%TF.GenerationSoftware,KiCad,Pcbnew,7.0.5*%
%TF.CreationDate,2023-07-03T18:51:50+02:00*%
%TF.ProjectId,Master_Board_panel,4d617374-6572-45f4-926f-6172645f7061,rev?*%
%TF.SameCoordinates,Original*%
%TF.FileFunction,Drillmap*%
%TF.FilePolarity,Positive*%
%FSLAX45Y45*%
G04 Gerber Fmt 4.5, Leading zero omitted, Abs format (unit mm)*
G04 Created by KiCad (PCBNEW 7.0.5) date 2023-07-03 18:51:50*
%MOMM*%
%LPD*%
G01*
G04 APERTURE LIST*
%ADD10C,0.100000*%
%ADD11C,0.200000*%
G04 APERTURE END LIST*
D10*
X10400000Y-2400000D02*
X10600000Y-2400000D01*
X10600000Y-13600000D01*
X10400000Y-13600000D01*
X10400000Y-2400000D01*
X5000000Y-3400000D02*
X7000000Y-3400000D01*
X7000000Y-7500000D01*
X5000000Y-7500000D01*
X5000000Y-3400000D01*
X7500000Y-14500000D02*
X11500000Y-14500000D01*
X11500000Y-20500000D01*
X7500000Y-20500000D01*
X7500000Y-14500000D01*
X8400000Y-2400000D02*
X8600000Y-2400000D01*
X8600000Y-13600000D01*
X8400000Y-13600000D01*
X8400000Y-2400000D01*
X4000000Y-500000D02*
X12500000Y-500000D01*
X12500000Y-22600000D01*
X4000000Y-22600000D01*
X4000000Y-500000D01*
X5000000Y-8000000D02*
X7000000Y-8000000D01*
X7000000Y-12000000D01*
X5000000Y-12000000D01*
X5000000Y-8000000D01*
X5000000Y-12500000D02*
X7000000Y-12500000D01*
X7000000Y-16500000D01*
X5000000Y-16500000D01*
X5000000Y-12500000D01*
D11*
X4255777Y-22916484D02*
X4255777Y-22716484D01*
X4255777Y-22716484D02*
X4303396Y-22716484D01*
X4303396Y-22716484D02*
X4331967Y-22726008D01*
X4331967Y-22726008D02*
X4351015Y-22745055D01*
X4351015Y-22745055D02*
X4360539Y-22764103D01*
X4360539Y-22764103D02*
X4370063Y-22802198D01*
X4370063Y-22802198D02*
X4370063Y-22830769D01*
X4370063Y-22830769D02*
X4360539Y-22868865D01*
X4360539Y-22868865D02*
X4351015Y-22887912D01*
X4351015Y-22887912D02*
X4331967Y-22906960D01*
X4331967Y-22906960D02*
X4303396Y-22916484D01*
X4303396Y-22916484D02*
X4255777Y-22916484D01*
X4455777Y-22916484D02*
X4455777Y-22783150D01*
X4455777Y-22821246D02*
X4465301Y-22802198D01*
X4465301Y-22802198D02*
X4474824Y-22792674D01*
X4474824Y-22792674D02*
X4493872Y-22783150D01*
X4493872Y-22783150D02*
X4512920Y-22783150D01*
X4579586Y-22916484D02*
X4579586Y-22783150D01*
X4579586Y-22716484D02*
X4570063Y-22726008D01*
X4570063Y-22726008D02*
X4579586Y-22735531D01*
X4579586Y-22735531D02*
X4589110Y-22726008D01*
X4589110Y-22726008D02*
X4579586Y-22716484D01*
X4579586Y-22716484D02*
X4579586Y-22735531D01*
X4703396Y-22916484D02*
X4684348Y-22906960D01*
X4684348Y-22906960D02*
X4674824Y-22887912D01*
X4674824Y-22887912D02*
X4674824Y-22716484D01*
X4808158Y-22916484D02*
X4789110Y-22906960D01*
X4789110Y-22906960D02*
X4779586Y-22887912D01*
X4779586Y-22887912D02*
X4779586Y-22716484D01*
X5036729Y-22916484D02*
X5036729Y-22716484D01*
X5036729Y-22716484D02*
X5103396Y-22859341D01*
X5103396Y-22859341D02*
X5170063Y-22716484D01*
X5170063Y-22716484D02*
X5170063Y-22916484D01*
X5351015Y-22916484D02*
X5351015Y-22811722D01*
X5351015Y-22811722D02*
X5341491Y-22792674D01*
X5341491Y-22792674D02*
X5322444Y-22783150D01*
X5322444Y-22783150D02*
X5284348Y-22783150D01*
X5284348Y-22783150D02*
X5265301Y-22792674D01*
X5351015Y-22906960D02*
X5331967Y-22916484D01*
X5331967Y-22916484D02*
X5284348Y-22916484D01*
X5284348Y-22916484D02*
X5265301Y-22906960D01*
X5265301Y-22906960D02*
X5255777Y-22887912D01*
X5255777Y-22887912D02*
X5255777Y-22868865D01*
X5255777Y-22868865D02*
X5265301Y-22849817D01*
X5265301Y-22849817D02*
X5284348Y-22840293D01*
X5284348Y-22840293D02*
X5331967Y-22840293D01*
X5331967Y-22840293D02*
X5351015Y-22830769D01*
X5446253Y-22783150D02*
X5446253Y-22983150D01*
X5446253Y-22792674D02*
X5465301Y-22783150D01*
X5465301Y-22783150D02*
X5503396Y-22783150D01*
X5503396Y-22783150D02*
X5522444Y-22792674D01*
X5522444Y-22792674D02*
X5531967Y-22802198D01*
X5531967Y-22802198D02*
X5541491Y-22821246D01*
X5541491Y-22821246D02*
X5541491Y-22878388D01*
X5541491Y-22878388D02*
X5531967Y-22897436D01*
X5531967Y-22897436D02*
X5522444Y-22906960D01*
X5522444Y-22906960D02*
X5503396Y-22916484D01*
X5503396Y-22916484D02*
X5465301Y-22916484D01*
X5465301Y-22916484D02*
X5446253Y-22906960D01*
X5627205Y-22897436D02*
X5636729Y-22906960D01*
X5636729Y-22906960D02*
X5627205Y-22916484D01*
X5627205Y-22916484D02*
X5617682Y-22906960D01*
X5617682Y-22906960D02*
X5627205Y-22897436D01*
X5627205Y-22897436D02*
X5627205Y-22916484D01*
X5627205Y-22792674D02*
X5636729Y-22802198D01*
X5636729Y-22802198D02*
X5627205Y-22811722D01*
X5627205Y-22811722D02*
X5617682Y-22802198D01*
X5617682Y-22802198D02*
X5627205Y-22792674D01*
X5627205Y-22792674D02*
X5627205Y-22811722D01*
M02*
