%TF.GenerationSoftware,KiCad,Pcbnew,7.0.5*%
%TF.CreationDate,2023-07-03T18:51:50+02:00*%
%TF.ProjectId,Master_Board_panel,4d617374-6572-45f4-926f-6172645f7061,rev?*%
%TF.SameCoordinates,Original*%
%TF.FileFunction,Drillmap*%
%TF.FilePolarity,Positive*%
%FSLAX45Y45*%
G04 Gerber Fmt 4.5, Leading zero omitted, Abs format (unit mm)*
G04 Created by KiCad (PCBNEW 7.0.5) date 2023-07-03 18:51:50*
%MOMM*%
%LPD*%
G01*
G04 APERTURE LIST*
%ADD10C,0.100000*%
%ADD11C,0.200000*%
%ADD12C,0.320000*%
G04 APERTURE END LIST*
D10*
X10400000Y-2400000D02*
X10600000Y-2400000D01*
X10600000Y-13600000D01*
X10400000Y-13600000D01*
X10400000Y-2400000D01*
X5000000Y-3400000D02*
X7000000Y-3400000D01*
X7000000Y-7500000D01*
X5000000Y-7500000D01*
X5000000Y-3400000D01*
X7500000Y-14500000D02*
X11500000Y-14500000D01*
X11500000Y-20500000D01*
X7500000Y-20500000D01*
X7500000Y-14500000D01*
X8400000Y-2400000D02*
X8600000Y-2400000D01*
X8600000Y-13600000D01*
X8400000Y-13600000D01*
X8400000Y-2400000D01*
X4000000Y-500000D02*
X12500000Y-500000D01*
X12500000Y-22600000D01*
X4000000Y-22600000D01*
X4000000Y-500000D01*
X5000000Y-8000000D02*
X7000000Y-8000000D01*
X7000000Y-12000000D01*
X5000000Y-12000000D01*
X5000000Y-8000000D01*
X5000000Y-12500000D02*
X7000000Y-12500000D01*
X7000000Y-16500000D01*
X5000000Y-16500000D01*
X5000000Y-12500000D01*
D11*
D12*
X4340000Y-840000D02*
X4660000Y-1160000D01*
X4660000Y-840000D02*
X4340000Y-1160000D01*
X4340000Y-2340000D02*
X4660000Y-2660000D01*
X4660000Y-2340000D02*
X4340000Y-2660000D01*
X4340000Y-19340000D02*
X4660000Y-19660000D01*
X4660000Y-19340000D02*
X4340000Y-19660000D01*
X4340000Y-21840000D02*
X4660000Y-22160000D01*
X4660000Y-21840000D02*
X4340000Y-22160000D01*
X4348000Y-13840000D02*
X4668000Y-14160000D01*
X4668000Y-13840000D02*
X4348000Y-14160000D01*
X11840000Y-840000D02*
X12160000Y-1160000D01*
X12160000Y-840000D02*
X11840000Y-1160000D01*
X11840000Y-2340000D02*
X12160000Y-2660000D01*
X12160000Y-2340000D02*
X11840000Y-2660000D01*
X11840000Y-13840000D02*
X12160000Y-14160000D01*
X12160000Y-13840000D02*
X11840000Y-14160000D01*
X11840000Y-19340000D02*
X12160000Y-19660000D01*
X12160000Y-19340000D02*
X11840000Y-19660000D01*
X11840000Y-21840000D02*
X12160000Y-22160000D01*
X12160000Y-21840000D02*
X11840000Y-22160000D01*
D11*
X4255777Y-22916484D02*
X4255777Y-22716484D01*
X4255777Y-22716484D02*
X4303396Y-22716484D01*
X4303396Y-22716484D02*
X4331967Y-22726008D01*
X4331967Y-22726008D02*
X4351015Y-22745055D01*
X4351015Y-22745055D02*
X4360539Y-22764103D01*
X4360539Y-22764103D02*
X4370063Y-22802198D01*
X4370063Y-22802198D02*
X4370063Y-22830769D01*
X4370063Y-22830769D02*
X4360539Y-22868865D01*
X4360539Y-22868865D02*
X4351015Y-22887912D01*
X4351015Y-22887912D02*
X4331967Y-22906960D01*
X4331967Y-22906960D02*
X4303396Y-22916484D01*
X4303396Y-22916484D02*
X4255777Y-22916484D01*
X4455777Y-22916484D02*
X4455777Y-22783150D01*
X4455777Y-22821246D02*
X4465301Y-22802198D01*
X4465301Y-22802198D02*
X4474824Y-22792674D01*
X4474824Y-22792674D02*
X4493872Y-22783150D01*
X4493872Y-22783150D02*
X4512920Y-22783150D01*
X4579586Y-22916484D02*
X4579586Y-22783150D01*
X4579586Y-22716484D02*
X4570063Y-22726008D01*
X4570063Y-22726008D02*
X4579586Y-22735531D01*
X4579586Y-22735531D02*
X4589110Y-22726008D01*
X4589110Y-22726008D02*
X4579586Y-22716484D01*
X4579586Y-22716484D02*
X4579586Y-22735531D01*
X4703396Y-22916484D02*
X4684348Y-22906960D01*
X4684348Y-22906960D02*
X4674824Y-22887912D01*
X4674824Y-22887912D02*
X4674824Y-22716484D01*
X4808158Y-22916484D02*
X4789110Y-22906960D01*
X4789110Y-22906960D02*
X4779586Y-22887912D01*
X4779586Y-22887912D02*
X4779586Y-22716484D01*
X5036729Y-22916484D02*
X5036729Y-22716484D01*
X5036729Y-22716484D02*
X5103396Y-22859341D01*
X5103396Y-22859341D02*
X5170063Y-22716484D01*
X5170063Y-22716484D02*
X5170063Y-22916484D01*
X5351015Y-22916484D02*
X5351015Y-22811722D01*
X5351015Y-22811722D02*
X5341491Y-22792674D01*
X5341491Y-22792674D02*
X5322444Y-22783150D01*
X5322444Y-22783150D02*
X5284348Y-22783150D01*
X5284348Y-22783150D02*
X5265301Y-22792674D01*
X5351015Y-22906960D02*
X5331967Y-22916484D01*
X5331967Y-22916484D02*
X5284348Y-22916484D01*
X5284348Y-22916484D02*
X5265301Y-22906960D01*
X5265301Y-22906960D02*
X5255777Y-22887912D01*
X5255777Y-22887912D02*
X5255777Y-22868865D01*
X5255777Y-22868865D02*
X5265301Y-22849817D01*
X5265301Y-22849817D02*
X5284348Y-22840293D01*
X5284348Y-22840293D02*
X5331967Y-22840293D01*
X5331967Y-22840293D02*
X5351015Y-22830769D01*
X5446253Y-22783150D02*
X5446253Y-22983150D01*
X5446253Y-22792674D02*
X5465301Y-22783150D01*
X5465301Y-22783150D02*
X5503396Y-22783150D01*
X5503396Y-22783150D02*
X5522444Y-22792674D01*
X5522444Y-22792674D02*
X5531967Y-22802198D01*
X5531967Y-22802198D02*
X5541491Y-22821246D01*
X5541491Y-22821246D02*
X5541491Y-22878388D01*
X5541491Y-22878388D02*
X5531967Y-22897436D01*
X5531967Y-22897436D02*
X5522444Y-22906960D01*
X5522444Y-22906960D02*
X5503396Y-22916484D01*
X5503396Y-22916484D02*
X5465301Y-22916484D01*
X5465301Y-22916484D02*
X5446253Y-22906960D01*
X5627205Y-22897436D02*
X5636729Y-22906960D01*
X5636729Y-22906960D02*
X5627205Y-22916484D01*
X5627205Y-22916484D02*
X5617682Y-22906960D01*
X5617682Y-22906960D02*
X5627205Y-22897436D01*
X5627205Y-22897436D02*
X5627205Y-22916484D01*
X5627205Y-22792674D02*
X5636729Y-22802198D01*
X5636729Y-22802198D02*
X5627205Y-22811722D01*
X5627205Y-22811722D02*
X5617682Y-22802198D01*
X5617682Y-22802198D02*
X5627205Y-22792674D01*
X5627205Y-22792674D02*
X5627205Y-22811722D01*
X3795000Y-23145000D02*
X3995000Y-23345000D01*
X3995000Y-23145000D02*
X3795000Y-23345000D01*
X4236729Y-23136484D02*
X4360539Y-23136484D01*
X4360539Y-23136484D02*
X4293872Y-23212674D01*
X4293872Y-23212674D02*
X4322444Y-23212674D01*
X4322444Y-23212674D02*
X4341491Y-23222198D01*
X4341491Y-23222198D02*
X4351015Y-23231722D01*
X4351015Y-23231722D02*
X4360539Y-23250769D01*
X4360539Y-23250769D02*
X4360539Y-23298388D01*
X4360539Y-23298388D02*
X4351015Y-23317436D01*
X4351015Y-23317436D02*
X4341491Y-23326960D01*
X4341491Y-23326960D02*
X4322444Y-23336484D01*
X4322444Y-23336484D02*
X4265301Y-23336484D01*
X4265301Y-23336484D02*
X4246253Y-23326960D01*
X4246253Y-23326960D02*
X4236729Y-23317436D01*
X4446253Y-23317436D02*
X4455777Y-23326960D01*
X4455777Y-23326960D02*
X4446253Y-23336484D01*
X4446253Y-23336484D02*
X4436729Y-23326960D01*
X4436729Y-23326960D02*
X4446253Y-23317436D01*
X4446253Y-23317436D02*
X4446253Y-23336484D01*
X4531967Y-23155531D02*
X4541491Y-23146008D01*
X4541491Y-23146008D02*
X4560539Y-23136484D01*
X4560539Y-23136484D02*
X4608158Y-23136484D01*
X4608158Y-23136484D02*
X4627205Y-23146008D01*
X4627205Y-23146008D02*
X4636729Y-23155531D01*
X4636729Y-23155531D02*
X4646253Y-23174579D01*
X4646253Y-23174579D02*
X4646253Y-23193627D01*
X4646253Y-23193627D02*
X4636729Y-23222198D01*
X4636729Y-23222198D02*
X4522444Y-23336484D01*
X4522444Y-23336484D02*
X4646253Y-23336484D01*
X4770063Y-23136484D02*
X4789110Y-23136484D01*
X4789110Y-23136484D02*
X4808158Y-23146008D01*
X4808158Y-23146008D02*
X4817682Y-23155531D01*
X4817682Y-23155531D02*
X4827205Y-23174579D01*
X4827205Y-23174579D02*
X4836729Y-23212674D01*
X4836729Y-23212674D02*
X4836729Y-23260293D01*
X4836729Y-23260293D02*
X4827205Y-23298388D01*
X4827205Y-23298388D02*
X4817682Y-23317436D01*
X4817682Y-23317436D02*
X4808158Y-23326960D01*
X4808158Y-23326960D02*
X4789110Y-23336484D01*
X4789110Y-23336484D02*
X4770063Y-23336484D01*
X4770063Y-23336484D02*
X4751015Y-23326960D01*
X4751015Y-23326960D02*
X4741491Y-23317436D01*
X4741491Y-23317436D02*
X4731967Y-23298388D01*
X4731967Y-23298388D02*
X4722444Y-23260293D01*
X4722444Y-23260293D02*
X4722444Y-23212674D01*
X4722444Y-23212674D02*
X4731967Y-23174579D01*
X4731967Y-23174579D02*
X4741491Y-23155531D01*
X4741491Y-23155531D02*
X4751015Y-23146008D01*
X4751015Y-23146008D02*
X4770063Y-23136484D01*
X4960539Y-23136484D02*
X4979586Y-23136484D01*
X4979586Y-23136484D02*
X4998634Y-23146008D01*
X4998634Y-23146008D02*
X5008158Y-23155531D01*
X5008158Y-23155531D02*
X5017682Y-23174579D01*
X5017682Y-23174579D02*
X5027205Y-23212674D01*
X5027205Y-23212674D02*
X5027205Y-23260293D01*
X5027205Y-23260293D02*
X5017682Y-23298388D01*
X5017682Y-23298388D02*
X5008158Y-23317436D01*
X5008158Y-23317436D02*
X4998634Y-23326960D01*
X4998634Y-23326960D02*
X4979586Y-23336484D01*
X4979586Y-23336484D02*
X4960539Y-23336484D01*
X4960539Y-23336484D02*
X4941491Y-23326960D01*
X4941491Y-23326960D02*
X4931967Y-23317436D01*
X4931967Y-23317436D02*
X4922444Y-23298388D01*
X4922444Y-23298388D02*
X4912920Y-23260293D01*
X4912920Y-23260293D02*
X4912920Y-23212674D01*
X4912920Y-23212674D02*
X4922444Y-23174579D01*
X4922444Y-23174579D02*
X4931967Y-23155531D01*
X4931967Y-23155531D02*
X4941491Y-23146008D01*
X4941491Y-23146008D02*
X4960539Y-23136484D01*
X5112920Y-23336484D02*
X5112920Y-23203150D01*
X5112920Y-23222198D02*
X5122444Y-23212674D01*
X5122444Y-23212674D02*
X5141491Y-23203150D01*
X5141491Y-23203150D02*
X5170063Y-23203150D01*
X5170063Y-23203150D02*
X5189110Y-23212674D01*
X5189110Y-23212674D02*
X5198634Y-23231722D01*
X5198634Y-23231722D02*
X5198634Y-23336484D01*
X5198634Y-23231722D02*
X5208158Y-23212674D01*
X5208158Y-23212674D02*
X5227205Y-23203150D01*
X5227205Y-23203150D02*
X5255777Y-23203150D01*
X5255777Y-23203150D02*
X5274825Y-23212674D01*
X5274825Y-23212674D02*
X5284348Y-23231722D01*
X5284348Y-23231722D02*
X5284348Y-23336484D01*
X5379586Y-23336484D02*
X5379586Y-23203150D01*
X5379586Y-23222198D02*
X5389110Y-23212674D01*
X5389110Y-23212674D02*
X5408158Y-23203150D01*
X5408158Y-23203150D02*
X5436729Y-23203150D01*
X5436729Y-23203150D02*
X5455777Y-23212674D01*
X5455777Y-23212674D02*
X5465301Y-23231722D01*
X5465301Y-23231722D02*
X5465301Y-23336484D01*
X5465301Y-23231722D02*
X5474825Y-23212674D01*
X5474825Y-23212674D02*
X5493872Y-23203150D01*
X5493872Y-23203150D02*
X5522444Y-23203150D01*
X5522444Y-23203150D02*
X5541491Y-23212674D01*
X5541491Y-23212674D02*
X5551015Y-23231722D01*
X5551015Y-23231722D02*
X5551015Y-23336484D01*
X5941491Y-23126960D02*
X5770063Y-23384103D01*
X6198634Y-23136484D02*
X6217682Y-23136484D01*
X6217682Y-23136484D02*
X6236729Y-23146008D01*
X6236729Y-23146008D02*
X6246253Y-23155531D01*
X6246253Y-23155531D02*
X6255777Y-23174579D01*
X6255777Y-23174579D02*
X6265301Y-23212674D01*
X6265301Y-23212674D02*
X6265301Y-23260293D01*
X6265301Y-23260293D02*
X6255777Y-23298388D01*
X6255777Y-23298388D02*
X6246253Y-23317436D01*
X6246253Y-23317436D02*
X6236729Y-23326960D01*
X6236729Y-23326960D02*
X6217682Y-23336484D01*
X6217682Y-23336484D02*
X6198634Y-23336484D01*
X6198634Y-23336484D02*
X6179586Y-23326960D01*
X6179586Y-23326960D02*
X6170063Y-23317436D01*
X6170063Y-23317436D02*
X6160539Y-23298388D01*
X6160539Y-23298388D02*
X6151015Y-23260293D01*
X6151015Y-23260293D02*
X6151015Y-23212674D01*
X6151015Y-23212674D02*
X6160539Y-23174579D01*
X6160539Y-23174579D02*
X6170063Y-23155531D01*
X6170063Y-23155531D02*
X6179586Y-23146008D01*
X6179586Y-23146008D02*
X6198634Y-23136484D01*
X6351015Y-23317436D02*
X6360539Y-23326960D01*
X6360539Y-23326960D02*
X6351015Y-23336484D01*
X6351015Y-23336484D02*
X6341491Y-23326960D01*
X6341491Y-23326960D02*
X6351015Y-23317436D01*
X6351015Y-23317436D02*
X6351015Y-23336484D01*
X6551015Y-23336484D02*
X6436729Y-23336484D01*
X6493872Y-23336484D02*
X6493872Y-23136484D01*
X6493872Y-23136484D02*
X6474825Y-23165055D01*
X6474825Y-23165055D02*
X6455777Y-23184103D01*
X6455777Y-23184103D02*
X6436729Y-23193627D01*
X6627206Y-23155531D02*
X6636729Y-23146008D01*
X6636729Y-23146008D02*
X6655777Y-23136484D01*
X6655777Y-23136484D02*
X6703396Y-23136484D01*
X6703396Y-23136484D02*
X6722444Y-23146008D01*
X6722444Y-23146008D02*
X6731967Y-23155531D01*
X6731967Y-23155531D02*
X6741491Y-23174579D01*
X6741491Y-23174579D02*
X6741491Y-23193627D01*
X6741491Y-23193627D02*
X6731967Y-23222198D01*
X6731967Y-23222198D02*
X6617682Y-23336484D01*
X6617682Y-23336484D02*
X6741491Y-23336484D01*
X6912920Y-23136484D02*
X6874825Y-23136484D01*
X6874825Y-23136484D02*
X6855777Y-23146008D01*
X6855777Y-23146008D02*
X6846253Y-23155531D01*
X6846253Y-23155531D02*
X6827206Y-23184103D01*
X6827206Y-23184103D02*
X6817682Y-23222198D01*
X6817682Y-23222198D02*
X6817682Y-23298388D01*
X6817682Y-23298388D02*
X6827206Y-23317436D01*
X6827206Y-23317436D02*
X6836729Y-23326960D01*
X6836729Y-23326960D02*
X6855777Y-23336484D01*
X6855777Y-23336484D02*
X6893872Y-23336484D01*
X6893872Y-23336484D02*
X6912920Y-23326960D01*
X6912920Y-23326960D02*
X6922444Y-23317436D01*
X6922444Y-23317436D02*
X6931967Y-23298388D01*
X6931967Y-23298388D02*
X6931967Y-23250769D01*
X6931967Y-23250769D02*
X6922444Y-23231722D01*
X6922444Y-23231722D02*
X6912920Y-23222198D01*
X6912920Y-23222198D02*
X6893872Y-23212674D01*
X6893872Y-23212674D02*
X6855777Y-23212674D01*
X6855777Y-23212674D02*
X6836729Y-23222198D01*
X6836729Y-23222198D02*
X6827206Y-23231722D01*
X6827206Y-23231722D02*
X6817682Y-23250769D01*
X7055777Y-23136484D02*
X7074825Y-23136484D01*
X7074825Y-23136484D02*
X7093872Y-23146008D01*
X7093872Y-23146008D02*
X7103396Y-23155531D01*
X7103396Y-23155531D02*
X7112920Y-23174579D01*
X7112920Y-23174579D02*
X7122444Y-23212674D01*
X7122444Y-23212674D02*
X7122444Y-23260293D01*
X7122444Y-23260293D02*
X7112920Y-23298388D01*
X7112920Y-23298388D02*
X7103396Y-23317436D01*
X7103396Y-23317436D02*
X7093872Y-23326960D01*
X7093872Y-23326960D02*
X7074825Y-23336484D01*
X7074825Y-23336484D02*
X7055777Y-23336484D01*
X7055777Y-23336484D02*
X7036729Y-23326960D01*
X7036729Y-23326960D02*
X7027206Y-23317436D01*
X7027206Y-23317436D02*
X7017682Y-23298388D01*
X7017682Y-23298388D02*
X7008158Y-23260293D01*
X7008158Y-23260293D02*
X7008158Y-23212674D01*
X7008158Y-23212674D02*
X7017682Y-23174579D01*
X7017682Y-23174579D02*
X7027206Y-23155531D01*
X7027206Y-23155531D02*
X7036729Y-23146008D01*
X7036729Y-23146008D02*
X7055777Y-23136484D01*
X7198634Y-23136484D02*
X7198634Y-23174579D01*
X7274825Y-23136484D02*
X7274825Y-23174579D01*
X7570063Y-23412674D02*
X7560539Y-23403150D01*
X7560539Y-23403150D02*
X7541491Y-23374579D01*
X7541491Y-23374579D02*
X7531968Y-23355531D01*
X7531968Y-23355531D02*
X7522444Y-23326960D01*
X7522444Y-23326960D02*
X7512920Y-23279341D01*
X7512920Y-23279341D02*
X7512920Y-23241246D01*
X7512920Y-23241246D02*
X7522444Y-23193627D01*
X7522444Y-23193627D02*
X7531968Y-23165055D01*
X7531968Y-23165055D02*
X7541491Y-23146008D01*
X7541491Y-23146008D02*
X7560539Y-23117436D01*
X7560539Y-23117436D02*
X7570063Y-23107912D01*
X7751015Y-23336484D02*
X7636729Y-23336484D01*
X7693872Y-23336484D02*
X7693872Y-23136484D01*
X7693872Y-23136484D02*
X7674825Y-23165055D01*
X7674825Y-23165055D02*
X7655777Y-23184103D01*
X7655777Y-23184103D02*
X7636729Y-23193627D01*
X7874825Y-23136484D02*
X7893872Y-23136484D01*
X7893872Y-23136484D02*
X7912920Y-23146008D01*
X7912920Y-23146008D02*
X7922444Y-23155531D01*
X7922444Y-23155531D02*
X7931968Y-23174579D01*
X7931968Y-23174579D02*
X7941491Y-23212674D01*
X7941491Y-23212674D02*
X7941491Y-23260293D01*
X7941491Y-23260293D02*
X7931968Y-23298388D01*
X7931968Y-23298388D02*
X7922444Y-23317436D01*
X7922444Y-23317436D02*
X7912920Y-23326960D01*
X7912920Y-23326960D02*
X7893872Y-23336484D01*
X7893872Y-23336484D02*
X7874825Y-23336484D01*
X7874825Y-23336484D02*
X7855777Y-23326960D01*
X7855777Y-23326960D02*
X7846253Y-23317436D01*
X7846253Y-23317436D02*
X7836729Y-23298388D01*
X7836729Y-23298388D02*
X7827206Y-23260293D01*
X7827206Y-23260293D02*
X7827206Y-23212674D01*
X7827206Y-23212674D02*
X7836729Y-23174579D01*
X7836729Y-23174579D02*
X7846253Y-23155531D01*
X7846253Y-23155531D02*
X7855777Y-23146008D01*
X7855777Y-23146008D02*
X7874825Y-23136484D01*
X8179587Y-23336484D02*
X8179587Y-23136484D01*
X8265301Y-23336484D02*
X8265301Y-23231722D01*
X8265301Y-23231722D02*
X8255777Y-23212674D01*
X8255777Y-23212674D02*
X8236730Y-23203150D01*
X8236730Y-23203150D02*
X8208158Y-23203150D01*
X8208158Y-23203150D02*
X8189110Y-23212674D01*
X8189110Y-23212674D02*
X8179587Y-23222198D01*
X8389111Y-23336484D02*
X8370063Y-23326960D01*
X8370063Y-23326960D02*
X8360539Y-23317436D01*
X8360539Y-23317436D02*
X8351015Y-23298388D01*
X8351015Y-23298388D02*
X8351015Y-23241246D01*
X8351015Y-23241246D02*
X8360539Y-23222198D01*
X8360539Y-23222198D02*
X8370063Y-23212674D01*
X8370063Y-23212674D02*
X8389111Y-23203150D01*
X8389111Y-23203150D02*
X8417682Y-23203150D01*
X8417682Y-23203150D02*
X8436730Y-23212674D01*
X8436730Y-23212674D02*
X8446253Y-23222198D01*
X8446253Y-23222198D02*
X8455777Y-23241246D01*
X8455777Y-23241246D02*
X8455777Y-23298388D01*
X8455777Y-23298388D02*
X8446253Y-23317436D01*
X8446253Y-23317436D02*
X8436730Y-23326960D01*
X8436730Y-23326960D02*
X8417682Y-23336484D01*
X8417682Y-23336484D02*
X8389111Y-23336484D01*
X8570063Y-23336484D02*
X8551015Y-23326960D01*
X8551015Y-23326960D02*
X8541492Y-23307912D01*
X8541492Y-23307912D02*
X8541492Y-23136484D01*
X8722444Y-23326960D02*
X8703396Y-23336484D01*
X8703396Y-23336484D02*
X8665301Y-23336484D01*
X8665301Y-23336484D02*
X8646253Y-23326960D01*
X8646253Y-23326960D02*
X8636730Y-23307912D01*
X8636730Y-23307912D02*
X8636730Y-23231722D01*
X8636730Y-23231722D02*
X8646253Y-23212674D01*
X8646253Y-23212674D02*
X8665301Y-23203150D01*
X8665301Y-23203150D02*
X8703396Y-23203150D01*
X8703396Y-23203150D02*
X8722444Y-23212674D01*
X8722444Y-23212674D02*
X8731968Y-23231722D01*
X8731968Y-23231722D02*
X8731968Y-23250769D01*
X8731968Y-23250769D02*
X8636730Y-23269817D01*
X8808158Y-23326960D02*
X8827206Y-23336484D01*
X8827206Y-23336484D02*
X8865301Y-23336484D01*
X8865301Y-23336484D02*
X8884349Y-23326960D01*
X8884349Y-23326960D02*
X8893873Y-23307912D01*
X8893873Y-23307912D02*
X8893873Y-23298388D01*
X8893873Y-23298388D02*
X8884349Y-23279341D01*
X8884349Y-23279341D02*
X8865301Y-23269817D01*
X8865301Y-23269817D02*
X8836730Y-23269817D01*
X8836730Y-23269817D02*
X8817682Y-23260293D01*
X8817682Y-23260293D02*
X8808158Y-23241246D01*
X8808158Y-23241246D02*
X8808158Y-23231722D01*
X8808158Y-23231722D02*
X8817682Y-23212674D01*
X8817682Y-23212674D02*
X8836730Y-23203150D01*
X8836730Y-23203150D02*
X8865301Y-23203150D01*
X8865301Y-23203150D02*
X8884349Y-23212674D01*
X8960539Y-23412674D02*
X8970063Y-23403150D01*
X8970063Y-23403150D02*
X8989111Y-23374579D01*
X8989111Y-23374579D02*
X8998634Y-23355531D01*
X8998634Y-23355531D02*
X9008158Y-23326960D01*
X9008158Y-23326960D02*
X9017682Y-23279341D01*
X9017682Y-23279341D02*
X9017682Y-23241246D01*
X9017682Y-23241246D02*
X9008158Y-23193627D01*
X9008158Y-23193627D02*
X8998634Y-23165055D01*
X8998634Y-23165055D02*
X8989111Y-23146008D01*
X8989111Y-23146008D02*
X8970063Y-23117436D01*
X8970063Y-23117436D02*
X8960539Y-23107912D01*
X9322444Y-23412674D02*
X9312920Y-23403150D01*
X9312920Y-23403150D02*
X9293873Y-23374579D01*
X9293873Y-23374579D02*
X9284349Y-23355531D01*
X9284349Y-23355531D02*
X9274825Y-23326960D01*
X9274825Y-23326960D02*
X9265301Y-23279341D01*
X9265301Y-23279341D02*
X9265301Y-23241246D01*
X9265301Y-23241246D02*
X9274825Y-23193627D01*
X9274825Y-23193627D02*
X9284349Y-23165055D01*
X9284349Y-23165055D02*
X9293873Y-23146008D01*
X9293873Y-23146008D02*
X9312920Y-23117436D01*
X9312920Y-23117436D02*
X9322444Y-23107912D01*
X9398634Y-23203150D02*
X9398634Y-23336484D01*
X9398634Y-23222198D02*
X9408158Y-23212674D01*
X9408158Y-23212674D02*
X9427206Y-23203150D01*
X9427206Y-23203150D02*
X9455777Y-23203150D01*
X9455777Y-23203150D02*
X9474825Y-23212674D01*
X9474825Y-23212674D02*
X9484349Y-23231722D01*
X9484349Y-23231722D02*
X9484349Y-23336484D01*
X9608158Y-23336484D02*
X9589111Y-23326960D01*
X9589111Y-23326960D02*
X9579587Y-23317436D01*
X9579587Y-23317436D02*
X9570063Y-23298388D01*
X9570063Y-23298388D02*
X9570063Y-23241246D01*
X9570063Y-23241246D02*
X9579587Y-23222198D01*
X9579587Y-23222198D02*
X9589111Y-23212674D01*
X9589111Y-23212674D02*
X9608158Y-23203150D01*
X9608158Y-23203150D02*
X9636730Y-23203150D01*
X9636730Y-23203150D02*
X9655777Y-23212674D01*
X9655777Y-23212674D02*
X9665301Y-23222198D01*
X9665301Y-23222198D02*
X9674825Y-23241246D01*
X9674825Y-23241246D02*
X9674825Y-23298388D01*
X9674825Y-23298388D02*
X9665301Y-23317436D01*
X9665301Y-23317436D02*
X9655777Y-23326960D01*
X9655777Y-23326960D02*
X9636730Y-23336484D01*
X9636730Y-23336484D02*
X9608158Y-23336484D01*
X9731968Y-23203150D02*
X9808158Y-23203150D01*
X9760539Y-23136484D02*
X9760539Y-23307912D01*
X9760539Y-23307912D02*
X9770063Y-23326960D01*
X9770063Y-23326960D02*
X9789111Y-23336484D01*
X9789111Y-23336484D02*
X9808158Y-23336484D01*
X10027206Y-23203150D02*
X10027206Y-23403150D01*
X10027206Y-23212674D02*
X10046254Y-23203150D01*
X10046254Y-23203150D02*
X10084349Y-23203150D01*
X10084349Y-23203150D02*
X10103396Y-23212674D01*
X10103396Y-23212674D02*
X10112920Y-23222198D01*
X10112920Y-23222198D02*
X10122444Y-23241246D01*
X10122444Y-23241246D02*
X10122444Y-23298388D01*
X10122444Y-23298388D02*
X10112920Y-23317436D01*
X10112920Y-23317436D02*
X10103396Y-23326960D01*
X10103396Y-23326960D02*
X10084349Y-23336484D01*
X10084349Y-23336484D02*
X10046254Y-23336484D01*
X10046254Y-23336484D02*
X10027206Y-23326960D01*
X10236730Y-23336484D02*
X10217682Y-23326960D01*
X10217682Y-23326960D02*
X10208158Y-23307912D01*
X10208158Y-23307912D02*
X10208158Y-23136484D01*
X10398635Y-23336484D02*
X10398635Y-23231722D01*
X10398635Y-23231722D02*
X10389111Y-23212674D01*
X10389111Y-23212674D02*
X10370063Y-23203150D01*
X10370063Y-23203150D02*
X10331968Y-23203150D01*
X10331968Y-23203150D02*
X10312920Y-23212674D01*
X10398635Y-23326960D02*
X10379587Y-23336484D01*
X10379587Y-23336484D02*
X10331968Y-23336484D01*
X10331968Y-23336484D02*
X10312920Y-23326960D01*
X10312920Y-23326960D02*
X10303396Y-23307912D01*
X10303396Y-23307912D02*
X10303396Y-23288865D01*
X10303396Y-23288865D02*
X10312920Y-23269817D01*
X10312920Y-23269817D02*
X10331968Y-23260293D01*
X10331968Y-23260293D02*
X10379587Y-23260293D01*
X10379587Y-23260293D02*
X10398635Y-23250769D01*
X10465301Y-23203150D02*
X10541492Y-23203150D01*
X10493873Y-23136484D02*
X10493873Y-23307912D01*
X10493873Y-23307912D02*
X10503396Y-23326960D01*
X10503396Y-23326960D02*
X10522444Y-23336484D01*
X10522444Y-23336484D02*
X10541492Y-23336484D01*
X10684349Y-23326960D02*
X10665301Y-23336484D01*
X10665301Y-23336484D02*
X10627206Y-23336484D01*
X10627206Y-23336484D02*
X10608158Y-23326960D01*
X10608158Y-23326960D02*
X10598635Y-23307912D01*
X10598635Y-23307912D02*
X10598635Y-23231722D01*
X10598635Y-23231722D02*
X10608158Y-23212674D01*
X10608158Y-23212674D02*
X10627206Y-23203150D01*
X10627206Y-23203150D02*
X10665301Y-23203150D01*
X10665301Y-23203150D02*
X10684349Y-23212674D01*
X10684349Y-23212674D02*
X10693873Y-23231722D01*
X10693873Y-23231722D02*
X10693873Y-23250769D01*
X10693873Y-23250769D02*
X10598635Y-23269817D01*
X10865301Y-23336484D02*
X10865301Y-23136484D01*
X10865301Y-23326960D02*
X10846254Y-23336484D01*
X10846254Y-23336484D02*
X10808158Y-23336484D01*
X10808158Y-23336484D02*
X10789111Y-23326960D01*
X10789111Y-23326960D02*
X10779587Y-23317436D01*
X10779587Y-23317436D02*
X10770063Y-23298388D01*
X10770063Y-23298388D02*
X10770063Y-23241246D01*
X10770063Y-23241246D02*
X10779587Y-23222198D01*
X10779587Y-23222198D02*
X10789111Y-23212674D01*
X10789111Y-23212674D02*
X10808158Y-23203150D01*
X10808158Y-23203150D02*
X10846254Y-23203150D01*
X10846254Y-23203150D02*
X10865301Y-23212674D01*
X10941492Y-23412674D02*
X10951016Y-23403150D01*
X10951016Y-23403150D02*
X10970063Y-23374579D01*
X10970063Y-23374579D02*
X10979587Y-23355531D01*
X10979587Y-23355531D02*
X10989111Y-23326960D01*
X10989111Y-23326960D02*
X10998635Y-23279341D01*
X10998635Y-23279341D02*
X10998635Y-23241246D01*
X10998635Y-23241246D02*
X10989111Y-23193627D01*
X10989111Y-23193627D02*
X10979587Y-23165055D01*
X10979587Y-23165055D02*
X10970063Y-23146008D01*
X10970063Y-23146008D02*
X10951016Y-23117436D01*
X10951016Y-23117436D02*
X10941492Y-23107912D01*
M02*
