%TF.GenerationSoftware,KiCad,Pcbnew,7.0.5*%
%TF.CreationDate,2023-07-07T19:02:18+02:00*%
%TF.ProjectId,Processor_Board,50726f63-6573-4736-9f72-5f426f617264,rev?*%
%TF.SameCoordinates,Original*%
%TF.FileFunction,Copper,L1,Top*%
%TF.FilePolarity,Positive*%
%FSLAX46Y46*%
G04 Gerber Fmt 4.6, Leading zero omitted, Abs format (unit mm)*
G04 Created by KiCad (PCBNEW 7.0.5) date 2023-07-07 19:02:18*
%MOMM*%
%LPD*%
G01*
G04 APERTURE LIST*
G04 Aperture macros list*
%AMRoundRect*
0 Rectangle with rounded corners*
0 $1 Rounding radius*
0 $2 $3 $4 $5 $6 $7 $8 $9 X,Y pos of 4 corners*
0 Add a 4 corners polygon primitive as box body*
4,1,4,$2,$3,$4,$5,$6,$7,$8,$9,$2,$3,0*
0 Add four circle primitives for the rounded corners*
1,1,$1+$1,$2,$3*
1,1,$1+$1,$4,$5*
1,1,$1+$1,$6,$7*
1,1,$1+$1,$8,$9*
0 Add four rect primitives between the rounded corners*
20,1,$1+$1,$2,$3,$4,$5,0*
20,1,$1+$1,$4,$5,$6,$7,0*
20,1,$1+$1,$6,$7,$8,$9,0*
20,1,$1+$1,$8,$9,$2,$3,0*%
G04 Aperture macros list end*
%TA.AperFunction,ComponentPad*%
%ADD10C,5.600000*%
%TD*%
%TA.AperFunction,ComponentPad*%
%ADD11C,1.600000*%
%TD*%
%TA.AperFunction,ComponentPad*%
%ADD12O,1.600000X1.600000*%
%TD*%
%TA.AperFunction,ComponentPad*%
%ADD13R,1.500000X1.050000*%
%TD*%
%TA.AperFunction,ComponentPad*%
%ADD14O,1.500000X1.050000*%
%TD*%
%TA.AperFunction,ComponentPad*%
%ADD15R,1.600000X1.600000*%
%TD*%
%TA.AperFunction,ComponentPad*%
%ADD16RoundRect,0.250000X-0.600000X0.600000X-0.600000X-0.600000X0.600000X-0.600000X0.600000X0.600000X0*%
%TD*%
%TA.AperFunction,ComponentPad*%
%ADD17C,1.700000*%
%TD*%
%TA.AperFunction,ComponentPad*%
%ADD18RoundRect,0.250000X-0.600000X-0.600000X0.600000X-0.600000X0.600000X0.600000X-0.600000X0.600000X0*%
%TD*%
%TA.AperFunction,ComponentPad*%
%ADD19C,1.500000*%
%TD*%
%TA.AperFunction,ComponentPad*%
%ADD20R,2.000000X1.905000*%
%TD*%
%TA.AperFunction,ComponentPad*%
%ADD21O,2.000000X1.905000*%
%TD*%
%TA.AperFunction,ComponentPad*%
%ADD22R,1.600000X2.400000*%
%TD*%
%TA.AperFunction,ComponentPad*%
%ADD23O,1.600000X2.400000*%
%TD*%
%TA.AperFunction,ViaPad*%
%ADD24C,0.800000*%
%TD*%
%TA.AperFunction,Conductor*%
%ADD25C,0.250000*%
%TD*%
%TA.AperFunction,Conductor*%
%ADD26C,1.000000*%
%TD*%
G04 APERTURE END LIST*
D10*
%TO.P,H6,1,1*%
%TO.N,GND*%
X80000000Y-135000000D03*
%TD*%
D11*
%TO.P,R2,1*%
%TO.N,MATRIX_B*%
X127500000Y-157940000D03*
D12*
%TO.P,R2,2*%
%TO.N,GND*%
X127500000Y-165560000D03*
%TD*%
D11*
%TO.P,R8,1*%
%TO.N,\u005CEVNT*%
X146000000Y-174190000D03*
D12*
%TO.P,R8,2*%
%TO.N,Net-(Q1-C)*%
X146000000Y-181810000D03*
%TD*%
D11*
%TO.P,R7,1*%
%TO.N,MATRIX_C*%
X124500000Y-157940000D03*
D12*
%TO.P,R7,2*%
%TO.N,GND*%
X124500000Y-165560000D03*
%TD*%
D11*
%TO.P,R1,1*%
%TO.N,MATRIX_A*%
X130500000Y-157940000D03*
D12*
%TO.P,R1,2*%
%TO.N,GND*%
X130500000Y-165560000D03*
%TD*%
D13*
%TO.P,Q1,1,E*%
%TO.N,GND*%
X140000000Y-178730000D03*
D14*
%TO.P,Q1,2,B*%
%TO.N,ICSP2_SCK*%
X140000000Y-180000000D03*
%TO.P,Q1,3,C*%
%TO.N,Net-(Q1-C)*%
X140000000Y-181270000D03*
%TD*%
D10*
%TO.P,H8,1,1*%
%TO.N,GND*%
X155000000Y-190000000D03*
%TD*%
%TO.P,H6,1,1*%
%TO.N,GND*%
X155000000Y-135000000D03*
%TD*%
D15*
%TO.P,C10,1*%
%TO.N,+5VA*%
X139000000Y-157000000D03*
D11*
%TO.P,C10,2*%
%TO.N,GND*%
X141500000Y-157000000D03*
%TD*%
%TO.P,C9,1*%
%TO.N,+5VA*%
X135000000Y-149000000D03*
%TO.P,C9,2*%
%TO.N,GND*%
X135000000Y-144000000D03*
%TD*%
D16*
%TO.P,J1,1,Pin_1*%
%TO.N,ICSP2_MISO*%
X132000000Y-134460000D03*
D17*
%TO.P,J1,2,Pin_2*%
%TO.N,ICSP2_MOSI*%
X132000000Y-137000000D03*
%TO.P,J1,3,Pin_3*%
%TO.N,MATRIX_3*%
X129460000Y-134460000D03*
%TO.P,J1,4,Pin_4*%
%TO.N,MATRIX_4*%
X129460000Y-137000000D03*
%TO.P,J1,5,Pin_5*%
%TO.N,MATRIX_5*%
X126920000Y-134460000D03*
%TO.P,J1,6,Pin_6*%
%TO.N,MATRIX_6*%
X126920000Y-137000000D03*
%TO.P,J1,7,Pin_7*%
%TO.N,MATRIX_7*%
X124380000Y-134460000D03*
%TO.P,J1,8,Pin_8*%
%TO.N,MATRIX_8*%
X124380000Y-137000000D03*
%TO.P,J1,9,Pin_9*%
%TO.N,MATRIX_A*%
X121840000Y-134460000D03*
%TO.P,J1,10,Pin_10*%
%TO.N,MATRIX_B*%
X121840000Y-137000000D03*
%TO.P,J1,11,Pin_11*%
%TO.N,unconnected-(J1-Pin_11-Pad11)*%
X119300000Y-134460000D03*
%TO.P,J1,12,Pin_12*%
%TO.N,unconnected-(J1-Pin_12-Pad12)*%
X119300000Y-137000000D03*
%TO.P,J1,13,Pin_13*%
%TO.N,GND*%
X116760000Y-134460000D03*
%TO.P,J1,14,Pin_14*%
%TO.N,MATRIX_C*%
X116760000Y-137000000D03*
%TO.P,J1,15,Pin_15*%
%TO.N,GND*%
X114220000Y-134460000D03*
%TO.P,J1,16,Pin_16*%
X114220000Y-137000000D03*
%TO.P,J1,17,Pin_17*%
X111680000Y-134460000D03*
%TO.P,J1,18,Pin_18*%
X111680000Y-137000000D03*
%TO.P,J1,19,Pin_19*%
%TO.N,+5VA*%
X109140000Y-134460000D03*
%TO.P,J1,20,Pin_20*%
X109140000Y-137000000D03*
%TO.P,J1,21,Pin_21*%
%TO.N,ANALOG_11*%
X106600000Y-134460000D03*
%TO.P,J1,22,Pin_22*%
%TO.N,GND*%
X106600000Y-137000000D03*
%TO.P,J1,23,Pin_23*%
%TO.N,ANALOG_12*%
X104060000Y-134460000D03*
%TO.P,J1,24,Pin_24*%
%TO.N,GND*%
X104060000Y-137000000D03*
%TO.P,J1,25,Pin_25*%
%TO.N,ANALOG_13*%
X101520000Y-134460000D03*
%TO.P,J1,26,Pin_26*%
%TO.N,GND*%
X101520000Y-137000000D03*
%TO.P,J1,27,Pin_27*%
%TO.N,ANALOG_14*%
X98980000Y-134460000D03*
%TO.P,J1,28,Pin_28*%
%TO.N,GND*%
X98980000Y-137000000D03*
%TO.P,J1,29,Pin_29*%
%TO.N,ANALOG_15*%
X96440000Y-134460000D03*
%TO.P,J1,30,Pin_30*%
%TO.N,GND*%
X96440000Y-137000000D03*
%TD*%
D10*
%TO.P,H4,1,1*%
%TO.N,GND*%
X45000000Y-135000000D03*
%TD*%
D18*
%TO.P,J6,1,Pin_1*%
%TO.N,+12V*%
X152460000Y-163840000D03*
D17*
%TO.P,J6,2,Pin_2*%
%TO.N,GND*%
X155000000Y-163840000D03*
%TO.P,J6,3,Pin_3*%
%TO.N,+5V*%
X152460000Y-166380000D03*
%TO.P,J6,4,Pin_4*%
%TO.N,GND*%
X155000000Y-166380000D03*
%TO.P,J6,5,Pin_5*%
%TO.N,TX*%
X152460000Y-168920000D03*
%TO.P,J6,6,Pin_6*%
%TO.N,GND*%
X155000000Y-168920000D03*
%TO.P,J6,7,Pin_7*%
%TO.N,RX*%
X152460000Y-171460000D03*
%TO.P,J6,8,Pin_8*%
%TO.N,GND*%
X155000000Y-171460000D03*
%TO.P,J6,9,Pin_9*%
%TO.N,\u005CEVNT*%
X152460000Y-174000000D03*
%TO.P,J6,10,Pin_10*%
%TO.N,GND*%
X155000000Y-174000000D03*
%TD*%
D19*
%TO.P,Y1,2,2*%
%TO.N,Net-(U1-PB6{slash}XTAL1)*%
X109100000Y-161750000D03*
%TO.P,Y1,1,1*%
%TO.N,Net-(U1-PB7{slash}XTAL2)*%
X114000000Y-161750000D03*
%TD*%
D11*
%TO.P,C2,1*%
%TO.N,GND*%
X118250000Y-157500000D03*
%TO.P,C2,2*%
%TO.N,Net-(U1-PB7{slash}XTAL2)*%
X113250000Y-157500000D03*
%TD*%
D16*
%TO.P,J5,1,Pin_1*%
%TO.N,ICSP2_MOSI*%
X68000000Y-134460000D03*
D17*
%TO.P,J5,2,Pin_2*%
%TO.N,+5V*%
X68000000Y-137000000D03*
%TO.P,J5,3,Pin_3*%
%TO.N,unconnected-(J5-Pin_3-Pad3)*%
X65460000Y-134460000D03*
%TO.P,J5,4,Pin_4*%
%TO.N,GND*%
X65460000Y-137000000D03*
%TO.P,J5,5,Pin_5*%
%TO.N,~{RESET}*%
X62920000Y-134460000D03*
%TO.P,J5,6,Pin_6*%
%TO.N,GND*%
X62920000Y-137000000D03*
%TO.P,J5,7,Pin_7*%
%TO.N,ICSP2_SCK*%
X60380000Y-134460000D03*
%TO.P,J5,8,Pin_8*%
%TO.N,GND*%
X60380000Y-137000000D03*
%TO.P,J5,9,Pin_9*%
%TO.N,ICSP2_MISO*%
X57840000Y-134460000D03*
%TO.P,J5,10,Pin_10*%
%TO.N,GND*%
X57840000Y-137000000D03*
%TD*%
D15*
%TO.P,C11,1*%
%TO.N,+5V*%
X81000000Y-148500000D03*
D11*
%TO.P,C11,2*%
%TO.N,GND*%
X81000000Y-151000000D03*
%TD*%
%TO.P,C1,1*%
%TO.N,GND*%
X105000000Y-157500000D03*
%TO.P,C1,2*%
%TO.N,Net-(U1-PB6{slash}XTAL1)*%
X110000000Y-157500000D03*
%TD*%
D20*
%TO.P,U6,1,IN*%
%TO.N,+12V*%
X138770000Y-143460000D03*
D21*
%TO.P,U6,2,GND*%
%TO.N,GND*%
X138770000Y-146000000D03*
%TO.P,U6,3,OUT*%
%TO.N,+5VA*%
X138770000Y-148540000D03*
%TD*%
D22*
%TO.P,U1,1,PC6/~{RESET}*%
%TO.N,~{RESET}*%
X94300000Y-153620000D03*
D23*
%TO.P,U1,2,PD0*%
%TO.N,TX*%
X96840000Y-153620000D03*
%TO.P,U1,3,PD1*%
%TO.N,RX*%
X99380000Y-153620000D03*
%TO.P,U1,4,PD2*%
%TO.N,MATRIX_3*%
X101920000Y-153620000D03*
%TO.P,U1,5,PD3*%
%TO.N,MATRIX_4*%
X104460000Y-153620000D03*
%TO.P,U1,6,PD4*%
%TO.N,MATRIX_5*%
X107000000Y-153620000D03*
%TO.P,U1,7,VCC*%
%TO.N,+5V*%
X109540000Y-153620000D03*
%TO.P,U1,8,GND*%
%TO.N,GND*%
X112080000Y-153620000D03*
%TO.P,U1,9,PB6/XTAL1*%
%TO.N,Net-(U1-PB6{slash}XTAL1)*%
X114620000Y-153620000D03*
%TO.P,U1,10,PB7/XTAL2*%
%TO.N,Net-(U1-PB7{slash}XTAL2)*%
X117160000Y-153620000D03*
%TO.P,U1,11,PD5*%
%TO.N,MATRIX_6*%
X119700000Y-153620000D03*
%TO.P,U1,12,PD6*%
%TO.N,MATRIX_7*%
X122240000Y-153620000D03*
%TO.P,U1,13,PD7*%
%TO.N,MATRIX_8*%
X124780000Y-153620000D03*
%TO.P,U1,14,PB0*%
%TO.N,MATRIX_A*%
X127320000Y-153620000D03*
%TO.P,U1,15,PB1*%
%TO.N,MATRIX_B*%
X127320000Y-146000000D03*
%TO.P,U1,16,PB2*%
%TO.N,MATRIX_C*%
X124780000Y-146000000D03*
%TO.P,U1,17,PB3*%
%TO.N,ICSP2_MOSI*%
X122240000Y-146000000D03*
%TO.P,U1,18,PB4*%
%TO.N,ICSP2_MISO*%
X119700000Y-146000000D03*
%TO.P,U1,19,PB5*%
%TO.N,ICSP2_SCK*%
X117160000Y-146000000D03*
%TO.P,U1,20,AVCC*%
%TO.N,+5V*%
X114620000Y-146000000D03*
%TO.P,U1,21,AREF*%
X112080000Y-146000000D03*
%TO.P,U1,22,AGND*%
%TO.N,GND*%
X109540000Y-146000000D03*
%TO.P,U1,23,PC0*%
%TO.N,ANALOG_11*%
X107000000Y-146000000D03*
%TO.P,U1,24,PC1*%
%TO.N,ANALOG_12*%
X104460000Y-146000000D03*
%TO.P,U1,25,PC2*%
%TO.N,ANALOG_13*%
X101920000Y-146000000D03*
%TO.P,U1,26,PC3*%
%TO.N,ANALOG_14*%
X99380000Y-146000000D03*
%TO.P,U1,27,PC4*%
%TO.N,ANALOG_15*%
X96840000Y-146000000D03*
%TO.P,U1,28,PC5*%
%TO.N,unconnected-(U1-PC5-Pad28)*%
X94300000Y-146000000D03*
%TD*%
D11*
%TO.P,C7,2*%
%TO.N,GND*%
X110000000Y-143000000D03*
%TO.P,C7,1*%
%TO.N,+5V*%
X115000000Y-143000000D03*
%TD*%
D24*
%TO.N,~{RESET}*%
X92250000Y-140775500D03*
%TO.N,MATRIX_8*%
X126000000Y-144250000D03*
X125180500Y-148250000D03*
%TO.N,GND*%
X109250000Y-155750000D03*
%TO.N,ICSP2_SCK*%
X137500000Y-168159500D03*
%TO.N,ICSP2_MISO*%
X68750000Y-132525500D03*
X70500000Y-136809500D03*
%TO.N,ICSP2_SCK*%
X108000000Y-144250000D03*
X107750000Y-133000000D03*
%TO.N,+5V*%
X107750000Y-166750000D03*
%TO.N,ICSP2_SCK*%
X119500000Y-168000000D03*
%TO.N,RX*%
X98387299Y-164112701D03*
%TO.N,TX*%
X98750000Y-165500000D03*
%TO.N,ICSP2_MISO*%
X132822620Y-141682284D03*
X120500000Y-141500000D03*
%TO.N,ICSP2_MOSI*%
X132000000Y-142250000D03*
X121115500Y-142301395D03*
%TO.N,MATRIX_3*%
X102250000Y-151250000D03*
X130289754Y-150807605D03*
%TO.N,MATRIX_4*%
X104750000Y-150750000D03*
X129722051Y-149984976D03*
%TO.N,MATRIX_5*%
X107000000Y-150250000D03*
X128784086Y-149639682D03*
%TO.N,MATRIX_6*%
X119750000Y-148500000D03*
X128696991Y-148643982D03*
%TO.N,MATRIX_7*%
X128250000Y-147750000D03*
X122250000Y-148500000D03*
%TO.N,MATRIX_A*%
X127500000Y-156250000D03*
X123500000Y-156500000D03*
%TO.N,MATRIX_B*%
X127250000Y-144000000D03*
X122000000Y-143025500D03*
%TO.N,MATRIX_C*%
X124750000Y-144000000D03*
X117000000Y-143750000D03*
%TD*%
D25*
%TO.N,~{RESET}*%
X92250000Y-151570000D02*
X92250000Y-140775500D01*
%TO.N,MATRIX_8*%
X126000000Y-138620000D02*
X124380000Y-137000000D01*
X126000000Y-144250000D02*
X126000000Y-138620000D01*
X124780000Y-148650500D02*
X125180500Y-148250000D01*
X124780000Y-153620000D02*
X124780000Y-148650500D01*
%TO.N,MATRIX_C*%
X125905000Y-147125000D02*
X125905000Y-156535000D01*
X124780000Y-146000000D02*
X125905000Y-147125000D01*
X124500000Y-157940000D02*
X125905000Y-156535000D01*
%TO.N,MATRIX_B*%
X128483781Y-150364682D02*
X127320000Y-149200901D01*
X128483781Y-156956219D02*
X128483781Y-150364682D01*
X127320000Y-149200901D02*
X127320000Y-146000000D01*
X127500000Y-157940000D02*
X128483781Y-156956219D01*
%TO.N,GND*%
X109540000Y-143460000D02*
X110000000Y-143000000D01*
X109540000Y-146000000D02*
X109540000Y-143460000D01*
X109950000Y-155750000D02*
X109250000Y-155750000D01*
X112080000Y-153620000D02*
X109950000Y-155750000D01*
X116125000Y-138905000D02*
X114220000Y-137000000D01*
X115825000Y-143925000D02*
X116125000Y-143625000D01*
X116125000Y-143625000D02*
X116125000Y-138905000D01*
X115825000Y-149875000D02*
X115825000Y-143925000D01*
X112080000Y-153620000D02*
X115825000Y-149875000D01*
%TO.N,Net-(U1-PB6{slash}XTAL1)*%
X114250000Y-155750000D02*
X114620000Y-155380000D01*
X113409009Y-155750000D02*
X114250000Y-155750000D01*
X111659009Y-157500000D02*
X113409009Y-155750000D01*
X114620000Y-155380000D02*
X114620000Y-153620000D01*
X110000000Y-157500000D02*
X111659009Y-157500000D01*
%TO.N,RX*%
X97290000Y-155710000D02*
X99380000Y-153620000D01*
X97290000Y-163403604D02*
X97290000Y-155710000D01*
X98387299Y-164112701D02*
X97999097Y-164112701D01*
X97999097Y-164112701D02*
X97290000Y-163403604D01*
%TO.N,ICSP2_SCK*%
X137672500Y-178327500D02*
X137672500Y-168332000D01*
X137672500Y-168332000D02*
X137500000Y-168159500D01*
X139345000Y-180000000D02*
X137672500Y-178327500D01*
%TO.N,ICSP2_MISO*%
X70500000Y-134275500D02*
X68750000Y-132525500D01*
X70500000Y-136809500D02*
X70500000Y-134275500D01*
%TO.N,ICSP2_SCK*%
X107775000Y-144025000D02*
X108000000Y-144250000D01*
X107775000Y-133025000D02*
X107775000Y-144025000D01*
X107750000Y-133000000D02*
X107775000Y-133025000D01*
%TO.N,~{RESET}*%
X92250000Y-151570000D02*
X94300000Y-153620000D01*
%TO.N,+5V*%
X68000000Y-137000000D02*
X79500000Y-148500000D01*
X79500000Y-148500000D02*
X81000000Y-148500000D01*
D26*
X115000000Y-145620000D02*
X114620000Y-146000000D01*
X115000000Y-143000000D02*
X115000000Y-145620000D01*
X109540000Y-148540000D02*
X112080000Y-146000000D01*
X109540000Y-153620000D02*
X109540000Y-148540000D01*
X107650000Y-155510000D02*
X109540000Y-153620000D01*
X107750000Y-166750000D02*
X107650000Y-166650000D01*
X107650000Y-166650000D02*
X107650000Y-155510000D01*
%TO.N,+5VA*%
X109140000Y-134460000D02*
X109140000Y-137000000D01*
%TO.N,GND*%
X141500000Y-157000000D02*
X141500000Y-148730000D01*
X141500000Y-148730000D02*
X138770000Y-146000000D01*
X137000000Y-146000000D02*
X138770000Y-146000000D01*
X135000000Y-144000000D02*
X137000000Y-146000000D01*
%TO.N,+5VA*%
X139000000Y-148770000D02*
X138770000Y-148540000D01*
X139000000Y-157000000D02*
X139000000Y-148770000D01*
X135460000Y-148540000D02*
X135000000Y-149000000D01*
X138770000Y-148540000D02*
X135460000Y-148540000D01*
%TO.N,+12V*%
X144710000Y-143460000D02*
X138770000Y-143460000D01*
X152460000Y-151210000D02*
X144710000Y-143460000D01*
X152460000Y-163840000D02*
X152460000Y-151210000D01*
D25*
%TO.N,ICSP2_SCK*%
X118285000Y-147125000D02*
X117160000Y-146000000D01*
X118285000Y-154195990D02*
X118285000Y-147125000D01*
X119500000Y-155410990D02*
X118285000Y-154195990D01*
X119500000Y-168000000D02*
X119500000Y-155410990D01*
X140000000Y-180000000D02*
X139345000Y-180000000D01*
%TO.N,TX*%
X96840000Y-163590000D02*
X96840000Y-153620000D01*
X98750000Y-165500000D02*
X96840000Y-163590000D01*
%TO.N,Net-(U1-PB7{slash}XTAL2)*%
X117130000Y-153620000D02*
X117160000Y-153620000D01*
X113250000Y-157500000D02*
X117130000Y-153620000D01*
%TO.N,Net-(U1-PB6{slash}XTAL1)*%
X110000000Y-160850000D02*
X109100000Y-161750000D01*
X110000000Y-157500000D02*
X110000000Y-160850000D01*
%TO.N,Net-(U1-PB7{slash}XTAL2)*%
X113250000Y-161000000D02*
X114000000Y-161750000D01*
X113250000Y-157500000D02*
X113250000Y-161000000D01*
%TO.N,ICSP2_MISO*%
X133175000Y-135635000D02*
X132000000Y-134460000D01*
X133175000Y-141329904D02*
X133175000Y-135635000D01*
X132822620Y-141682284D02*
X133175000Y-141329904D01*
X119700000Y-142300000D02*
X120500000Y-141500000D01*
X119700000Y-146000000D02*
X119700000Y-142300000D01*
%TO.N,ICSP2_MOSI*%
X132000000Y-142250000D02*
X132000000Y-137000000D01*
X121275000Y-142460895D02*
X121115500Y-142301395D01*
X121275000Y-145035000D02*
X121275000Y-142460895D01*
X122240000Y-146000000D02*
X121275000Y-145035000D01*
%TO.N,MATRIX_3*%
X102250000Y-151250000D02*
X101920000Y-151580000D01*
X101920000Y-151580000D02*
X101920000Y-153620000D01*
X130350000Y-148250000D02*
X130447051Y-148347051D01*
X130447051Y-148347051D02*
X130447051Y-150650308D01*
X130635000Y-141901396D02*
X130350000Y-142186396D01*
X130635000Y-135635000D02*
X130635000Y-141901396D01*
X130350000Y-145750000D02*
X130350000Y-148250000D01*
X130447051Y-150650308D02*
X130289754Y-150807605D01*
X130350000Y-142186396D02*
X130350000Y-145750000D01*
X129460000Y-134460000D02*
X130635000Y-135635000D01*
%TO.N,MATRIX_4*%
X129900000Y-149807027D02*
X129722051Y-149984976D01*
X129900000Y-142000000D02*
X129900000Y-149807027D01*
X129900000Y-137440000D02*
X129900000Y-142000000D01*
X104460000Y-151040000D02*
X104460000Y-153620000D01*
X129460000Y-137000000D02*
X129900000Y-137440000D01*
X104750000Y-150750000D02*
X104460000Y-151040000D01*
%TO.N,MATRIX_5*%
X107000000Y-150250000D02*
X107000000Y-153620000D01*
X128997296Y-149426472D02*
X128784086Y-149639682D01*
X128997296Y-149368982D02*
X128997296Y-149426472D01*
X129450000Y-140160812D02*
X129450000Y-143500000D01*
X129450000Y-143500000D02*
X129450000Y-148527369D01*
X128250000Y-138960812D02*
X128526396Y-139237208D01*
X128250000Y-135790000D02*
X128250000Y-138960812D01*
X128526396Y-139237208D02*
X129450000Y-140160812D01*
X126920000Y-134460000D02*
X128250000Y-135790000D01*
X129450000Y-148527369D02*
X129450000Y-148916278D01*
X129450000Y-148916278D02*
X128997296Y-149368982D01*
%TO.N,MATRIX_6*%
X119700000Y-148550000D02*
X119700000Y-153620000D01*
X119750000Y-148500000D02*
X119700000Y-148550000D01*
X129000000Y-148340973D02*
X128696991Y-148643982D01*
X129000000Y-140347208D02*
X129000000Y-142250000D01*
X129000000Y-142250000D02*
X129000000Y-148340973D01*
X128076396Y-139423604D02*
X129000000Y-140347208D01*
X126920000Y-138267208D02*
X128076396Y-139423604D01*
X126920000Y-137000000D02*
X126920000Y-138267208D01*
%TO.N,MATRIX_7*%
X122240000Y-148510000D02*
X122240000Y-153620000D01*
X122250000Y-148500000D02*
X122240000Y-148510000D01*
X128500000Y-140483604D02*
X128500000Y-147500000D01*
X128500000Y-147500000D02*
X128250000Y-147750000D01*
X125555000Y-135635000D02*
X125555000Y-137538604D01*
X125555000Y-137538604D02*
X128500000Y-140483604D01*
X124380000Y-134460000D02*
X125555000Y-135635000D01*
%TO.N,MATRIX_A*%
X127500000Y-156250000D02*
X127320000Y-156070000D01*
X123500000Y-145269010D02*
X123500000Y-156500000D01*
X123015000Y-144784010D02*
X123500000Y-145269010D01*
X127320000Y-156070000D02*
X127320000Y-153620000D01*
X123015000Y-135635000D02*
X123015000Y-144784010D01*
X121840000Y-134460000D02*
X123015000Y-135635000D01*
%TO.N,MATRIX_B*%
X127250000Y-145930000D02*
X127320000Y-146000000D01*
X127250000Y-144000000D02*
X127250000Y-145930000D01*
X121840000Y-142865500D02*
X122000000Y-143025500D01*
X121840000Y-137000000D02*
X121840000Y-142865500D01*
%TO.N,MATRIX_C*%
X124750000Y-145970000D02*
X124780000Y-146000000D01*
X124750000Y-144000000D02*
X124750000Y-145970000D01*
X116760000Y-137000000D02*
X116760000Y-143510000D01*
X116760000Y-143510000D02*
X117000000Y-143750000D01*
%TO.N,ANALOG_11*%
X105425000Y-135635000D02*
X106600000Y-134460000D01*
X107000000Y-146000000D02*
X105425000Y-144425000D01*
X105425000Y-144425000D02*
X105425000Y-135635000D01*
%TO.N,ANALOG_12*%
X102885000Y-135635000D02*
X104060000Y-134460000D01*
X102885000Y-144425000D02*
X102885000Y-135635000D01*
X104460000Y-146000000D02*
X102885000Y-144425000D01*
%TO.N,ANALOG_13*%
X100345000Y-144425000D02*
X101920000Y-146000000D01*
X100345000Y-135635000D02*
X100345000Y-144425000D01*
X101520000Y-134460000D02*
X100345000Y-135635000D01*
%TO.N,ANALOG_14*%
X97615000Y-135825000D02*
X98980000Y-134460000D01*
X99380000Y-146000000D02*
X97615000Y-144235000D01*
X97615000Y-144235000D02*
X97615000Y-135825000D01*
%TO.N,ANALOG_15*%
X95265000Y-135635000D02*
X96440000Y-134460000D01*
X95265000Y-144425000D02*
X95265000Y-135635000D01*
X96840000Y-146000000D02*
X95265000Y-144425000D01*
%TD*%
%TA.AperFunction,Conductor*%
%TO.N,GND*%
G36*
X154540507Y-171669844D02*
G01*
X154618239Y-171790798D01*
X154726900Y-171884952D01*
X154857685Y-171944680D01*
X154867466Y-171946086D01*
X154238625Y-172574925D01*
X154315031Y-172628425D01*
X154358655Y-172683002D01*
X154365848Y-172752501D01*
X154334326Y-172814855D01*
X154315029Y-172831576D01*
X154238625Y-172885072D01*
X154867466Y-173513913D01*
X154857685Y-173515320D01*
X154726900Y-173575048D01*
X154618239Y-173669202D01*
X154540507Y-173790156D01*
X154516923Y-173870475D01*
X153885072Y-173238625D01*
X153885072Y-173238626D01*
X153835131Y-173309950D01*
X153780555Y-173353575D01*
X153711056Y-173360769D01*
X153648701Y-173329246D01*
X153629748Y-173306649D01*
X153535723Y-173162734D01*
X153535715Y-173162723D01*
X153383243Y-172997097D01*
X153383238Y-172997092D01*
X153205577Y-172858812D01*
X153205578Y-172858812D01*
X153205576Y-172858811D01*
X153169070Y-172839055D01*
X153119479Y-172789836D01*
X153104371Y-172721619D01*
X153128541Y-172656064D01*
X153169070Y-172620945D01*
X153169084Y-172620936D01*
X153205576Y-172601189D01*
X153383240Y-172462906D01*
X153535722Y-172297268D01*
X153629749Y-172153347D01*
X153682894Y-172107994D01*
X153752125Y-172098570D01*
X153815461Y-172128072D01*
X153835131Y-172150049D01*
X153885072Y-172221373D01*
X153885073Y-172221373D01*
X154516923Y-171589523D01*
X154540507Y-171669844D01*
G37*
%TD.AperFunction*%
%TA.AperFunction,Conductor*%
G36*
X154540507Y-169129844D02*
G01*
X154618239Y-169250798D01*
X154726900Y-169344952D01*
X154857685Y-169404680D01*
X154867466Y-169406086D01*
X154238625Y-170034925D01*
X154315031Y-170088425D01*
X154358655Y-170143002D01*
X154365848Y-170212501D01*
X154334326Y-170274855D01*
X154315029Y-170291576D01*
X154238625Y-170345072D01*
X154867466Y-170973913D01*
X154857685Y-170975320D01*
X154726900Y-171035048D01*
X154618239Y-171129202D01*
X154540507Y-171250156D01*
X154516923Y-171330475D01*
X153885072Y-170698625D01*
X153885072Y-170698626D01*
X153835131Y-170769950D01*
X153780555Y-170813575D01*
X153711056Y-170820769D01*
X153648701Y-170789246D01*
X153629748Y-170766649D01*
X153535723Y-170622734D01*
X153535715Y-170622723D01*
X153383243Y-170457097D01*
X153383238Y-170457092D01*
X153261987Y-170362718D01*
X153205576Y-170318811D01*
X153169070Y-170299055D01*
X153119479Y-170249836D01*
X153104371Y-170181619D01*
X153128541Y-170116064D01*
X153169070Y-170080945D01*
X153174403Y-170078059D01*
X153205576Y-170061189D01*
X153383240Y-169922906D01*
X153535722Y-169757268D01*
X153629749Y-169613347D01*
X153682894Y-169567994D01*
X153752125Y-169558570D01*
X153815461Y-169588072D01*
X153835131Y-169610049D01*
X153885072Y-169681373D01*
X153885073Y-169681373D01*
X154516923Y-169049523D01*
X154540507Y-169129844D01*
G37*
%TD.AperFunction*%
%TA.AperFunction,Conductor*%
G36*
X154540507Y-166589844D02*
G01*
X154618239Y-166710798D01*
X154726900Y-166804952D01*
X154857685Y-166864680D01*
X154867466Y-166866086D01*
X154238625Y-167494925D01*
X154315031Y-167548425D01*
X154358655Y-167603002D01*
X154365848Y-167672501D01*
X154334326Y-167734855D01*
X154315029Y-167751576D01*
X154238625Y-167805072D01*
X154867466Y-168433913D01*
X154857685Y-168435320D01*
X154726900Y-168495048D01*
X154618239Y-168589202D01*
X154540507Y-168710156D01*
X154516923Y-168790476D01*
X153885072Y-168158625D01*
X153885072Y-168158626D01*
X153835131Y-168229950D01*
X153780555Y-168273575D01*
X153711056Y-168280769D01*
X153648701Y-168249246D01*
X153629748Y-168226649D01*
X153535723Y-168082734D01*
X153535715Y-168082723D01*
X153383243Y-167917097D01*
X153383238Y-167917092D01*
X153245740Y-167810072D01*
X153205576Y-167778811D01*
X153205575Y-167778810D01*
X153205572Y-167778808D01*
X153169068Y-167759053D01*
X153119478Y-167709833D01*
X153104371Y-167641616D01*
X153128542Y-167576061D01*
X153169069Y-167540945D01*
X153205576Y-167521189D01*
X153383240Y-167382906D01*
X153535722Y-167217268D01*
X153629749Y-167073347D01*
X153682894Y-167027994D01*
X153752125Y-167018570D01*
X153815461Y-167048072D01*
X153835131Y-167070049D01*
X153885072Y-167141373D01*
X153885073Y-167141373D01*
X154516922Y-166509523D01*
X154540507Y-166589844D01*
G37*
%TD.AperFunction*%
%TA.AperFunction,Conductor*%
G36*
X154540507Y-164049844D02*
G01*
X154618239Y-164170798D01*
X154726900Y-164264952D01*
X154857685Y-164324680D01*
X154867466Y-164326086D01*
X154238625Y-164954925D01*
X154315031Y-165008425D01*
X154358655Y-165063002D01*
X154365848Y-165132501D01*
X154334326Y-165194855D01*
X154315029Y-165211576D01*
X154238625Y-165265072D01*
X154867466Y-165893913D01*
X154857685Y-165895320D01*
X154726900Y-165955048D01*
X154618239Y-166049202D01*
X154540507Y-166170156D01*
X154516923Y-166250474D01*
X153885073Y-165618625D01*
X153885072Y-165618626D01*
X153835131Y-165689950D01*
X153780555Y-165733575D01*
X153711056Y-165740769D01*
X153648701Y-165709246D01*
X153629748Y-165686649D01*
X153535723Y-165542734D01*
X153535715Y-165542723D01*
X153383243Y-165377097D01*
X153383241Y-165377095D01*
X153383240Y-165377094D01*
X153377697Y-165372780D01*
X153345481Y-165347704D01*
X153304669Y-165290994D01*
X153300996Y-165221220D01*
X153335628Y-165160538D01*
X153376513Y-165135848D01*
X153376195Y-165135165D01*
X153382565Y-165132194D01*
X153382647Y-165132144D01*
X153382738Y-165132115D01*
X153533652Y-165039030D01*
X153659030Y-164913652D01*
X153752115Y-164762738D01*
X153776985Y-164687683D01*
X153816756Y-164630240D01*
X153881271Y-164603416D01*
X153883049Y-164603397D01*
X154516923Y-163969523D01*
X154540507Y-164049844D01*
G37*
%TD.AperFunction*%
%TA.AperFunction,Conductor*%
G36*
X111841955Y-153947641D02*
G01*
X111954852Y-154005165D01*
X112048519Y-154020000D01*
X112111481Y-154020000D01*
X112205148Y-154005165D01*
X112318045Y-153947641D01*
X112329999Y-153935686D01*
X112329999Y-155298871D01*
X112330000Y-155298872D01*
X112526317Y-155246269D01*
X112526326Y-155246265D01*
X112732483Y-155150133D01*
X112819382Y-155089285D01*
X112885588Y-155066957D01*
X112896232Y-155069628D01*
X112912775Y-155027147D01*
X112923286Y-155015190D01*
X113079660Y-154858816D01*
X113210133Y-154672483D01*
X113232927Y-154623600D01*
X113279098Y-154571160D01*
X113346292Y-154552007D01*
X113413173Y-154572221D01*
X113457691Y-154623596D01*
X113482477Y-154676749D01*
X113613802Y-154864300D01*
X113613806Y-154864304D01*
X113654321Y-154904819D01*
X113687806Y-154966142D01*
X113682822Y-155035834D01*
X113640950Y-155091767D01*
X113575486Y-155116184D01*
X113566640Y-155116500D01*
X113492641Y-155116500D01*
X113476889Y-155114760D01*
X113476864Y-155115032D01*
X113469102Y-155114297D01*
X113400006Y-155116469D01*
X113398058Y-155116500D01*
X113369153Y-155116500D01*
X113369150Y-155116500D01*
X113369138Y-155116501D01*
X113362146Y-155117384D01*
X113356329Y-155117841D01*
X113309123Y-155119325D01*
X113309116Y-155119326D01*
X113289509Y-155125022D01*
X113270470Y-155128965D01*
X113250220Y-155131524D01*
X113250210Y-155131526D01*
X113206300Y-155148911D01*
X113200774Y-155150803D01*
X113155421Y-155163979D01*
X113155416Y-155163981D01*
X113137842Y-155174374D01*
X113120381Y-155182928D01*
X113101395Y-155190446D01*
X113083848Y-155203194D01*
X113018040Y-155226670D01*
X113005594Y-155223775D01*
X112987367Y-155268280D01*
X112975397Y-155281246D01*
X112971897Y-155284532D01*
X112941789Y-155320925D01*
X112937858Y-155325246D01*
X111432923Y-156830181D01*
X111371600Y-156863666D01*
X111345242Y-156866500D01*
X111218352Y-156866500D01*
X111151313Y-156846815D01*
X111116779Y-156813626D01*
X111006198Y-156655700D01*
X110844300Y-156493802D01*
X110656749Y-156362477D01*
X110624665Y-156347516D01*
X110449249Y-156265718D01*
X110449238Y-156265714D01*
X110228089Y-156206457D01*
X110228081Y-156206456D01*
X110000002Y-156186502D01*
X109999998Y-156186502D01*
X109771918Y-156206456D01*
X109771910Y-156206457D01*
X109550761Y-156265714D01*
X109550750Y-156265718D01*
X109343254Y-156362475D01*
X109343252Y-156362476D01*
X109272856Y-156411767D01*
X109155700Y-156493802D01*
X109155698Y-156493803D01*
X109155695Y-156493806D01*
X108993802Y-156655699D01*
X108884073Y-156812407D01*
X108829496Y-156856032D01*
X108759998Y-156863224D01*
X108697643Y-156831701D01*
X108662230Y-156771471D01*
X108658499Y-156741283D01*
X108658499Y-155979095D01*
X108678184Y-155912056D01*
X108694813Y-155891419D01*
X109234961Y-155351271D01*
X109296282Y-155317788D01*
X109333440Y-155315426D01*
X109524330Y-155332127D01*
X109539999Y-155333498D01*
X109540000Y-155333498D01*
X109540002Y-155333498D01*
X109597139Y-155328499D01*
X109768087Y-155313543D01*
X109989243Y-155254284D01*
X110196749Y-155157523D01*
X110384300Y-155026198D01*
X110546198Y-154864300D01*
X110677523Y-154676749D01*
X110702307Y-154623598D01*
X110748479Y-154571159D01*
X110815672Y-154552007D01*
X110882553Y-154572222D01*
X110927071Y-154623599D01*
X110949864Y-154672479D01*
X110949865Y-154672481D01*
X111080342Y-154858820D01*
X111241179Y-155019657D01*
X111427517Y-155150134D01*
X111633673Y-155246265D01*
X111633682Y-155246269D01*
X111829999Y-155298872D01*
X111829999Y-153935685D01*
X111841955Y-153947641D01*
G37*
%TD.AperFunction*%
%TA.AperFunction,Conductor*%
G36*
X115957864Y-146962278D02*
G01*
X116002382Y-147013655D01*
X116022477Y-147056749D01*
X116153802Y-147244300D01*
X116315700Y-147406198D01*
X116503251Y-147537523D01*
X116586954Y-147576554D01*
X116710750Y-147634281D01*
X116710752Y-147634281D01*
X116710757Y-147634284D01*
X116931913Y-147693543D01*
X117079521Y-147706457D01*
X117159998Y-147713498D01*
X117160000Y-147713498D01*
X117160002Y-147713498D01*
X117217021Y-147708509D01*
X117388087Y-147693543D01*
X117495408Y-147664786D01*
X117565253Y-147666449D01*
X117623116Y-147705611D01*
X117650621Y-147769839D01*
X117651498Y-147784561D01*
X117651499Y-151835438D01*
X117631814Y-151902477D01*
X117579010Y-151948232D01*
X117509852Y-151958176D01*
X117495406Y-151955213D01*
X117388092Y-151926458D01*
X117388088Y-151926457D01*
X117388087Y-151926457D01*
X117388086Y-151926456D01*
X117388081Y-151926456D01*
X117160002Y-151906502D01*
X117159998Y-151906502D01*
X116931918Y-151926456D01*
X116931910Y-151926457D01*
X116710761Y-151985714D01*
X116710750Y-151985718D01*
X116503254Y-152082475D01*
X116503252Y-152082476D01*
X116473624Y-152103222D01*
X116315700Y-152213802D01*
X116315698Y-152213803D01*
X116315695Y-152213806D01*
X116153806Y-152375695D01*
X116153803Y-152375698D01*
X116153802Y-152375700D01*
X116131935Y-152406929D01*
X116022476Y-152563251D01*
X116002382Y-152606345D01*
X115956209Y-152658784D01*
X115889016Y-152677936D01*
X115822135Y-152657720D01*
X115777618Y-152606345D01*
X115757523Y-152563251D01*
X115755874Y-152560896D01*
X115626198Y-152375700D01*
X115464300Y-152213802D01*
X115276749Y-152082477D01*
X115276745Y-152082475D01*
X115069249Y-151985718D01*
X115069238Y-151985714D01*
X114848089Y-151926457D01*
X114848081Y-151926456D01*
X114620002Y-151906502D01*
X114619998Y-151906502D01*
X114391918Y-151926456D01*
X114391910Y-151926457D01*
X114170761Y-151985714D01*
X114170750Y-151985718D01*
X113963254Y-152082475D01*
X113963252Y-152082476D01*
X113933624Y-152103222D01*
X113775700Y-152213802D01*
X113775698Y-152213803D01*
X113775695Y-152213806D01*
X113613806Y-152375695D01*
X113613803Y-152375698D01*
X113613802Y-152375700D01*
X113531767Y-152492856D01*
X113482476Y-152563252D01*
X113482474Y-152563256D01*
X113457691Y-152616402D01*
X113411518Y-152668841D01*
X113344324Y-152687992D01*
X113277444Y-152667775D01*
X113232927Y-152616399D01*
X113210133Y-152567517D01*
X113079657Y-152381179D01*
X112918820Y-152220342D01*
X112732482Y-152089865D01*
X112526328Y-151993734D01*
X112329999Y-151941127D01*
X112329999Y-153304313D01*
X112318045Y-153292359D01*
X112205148Y-153234835D01*
X112111481Y-153220000D01*
X112048519Y-153220000D01*
X111954852Y-153234835D01*
X111841955Y-153292359D01*
X111829999Y-153304315D01*
X111829999Y-151941127D01*
X111633671Y-151993734D01*
X111427517Y-152089865D01*
X111241179Y-152220342D01*
X111080342Y-152381179D01*
X110949865Y-152567517D01*
X110927071Y-152616401D01*
X110880898Y-152668840D01*
X110813705Y-152687992D01*
X110746824Y-152667776D01*
X110702307Y-152616401D01*
X110697617Y-152606343D01*
X110677523Y-152563251D01*
X110570924Y-152411012D01*
X110548598Y-152344807D01*
X110548500Y-152339890D01*
X110548500Y-149009095D01*
X110568185Y-148942056D01*
X110584814Y-148921419D01*
X111774961Y-147731271D01*
X111836282Y-147697788D01*
X111873440Y-147695426D01*
X112064330Y-147712127D01*
X112079999Y-147713498D01*
X112080000Y-147713498D01*
X112080002Y-147713498D01*
X112137021Y-147708509D01*
X112308087Y-147693543D01*
X112529243Y-147634284D01*
X112736749Y-147537523D01*
X112924300Y-147406198D01*
X113086198Y-147244300D01*
X113217523Y-147056749D01*
X113237617Y-147013655D01*
X113283790Y-146961215D01*
X113350983Y-146942063D01*
X113417864Y-146962278D01*
X113462382Y-147013655D01*
X113482477Y-147056749D01*
X113613802Y-147244300D01*
X113775700Y-147406198D01*
X113963251Y-147537523D01*
X114046954Y-147576554D01*
X114170750Y-147634281D01*
X114170752Y-147634281D01*
X114170757Y-147634284D01*
X114391913Y-147693543D01*
X114539521Y-147706457D01*
X114619998Y-147713498D01*
X114620000Y-147713498D01*
X114620002Y-147713498D01*
X114677021Y-147708509D01*
X114848087Y-147693543D01*
X115069243Y-147634284D01*
X115276749Y-147537523D01*
X115464300Y-147406198D01*
X115626198Y-147244300D01*
X115757523Y-147056749D01*
X115777617Y-147013655D01*
X115823790Y-146961215D01*
X115890983Y-146942063D01*
X115957864Y-146962278D01*
G37*
%TD.AperFunction*%
%TA.AperFunction,Conductor*%
G36*
X113760507Y-137209844D02*
G01*
X113838239Y-137330798D01*
X113946900Y-137424952D01*
X114077685Y-137484680D01*
X114087466Y-137486086D01*
X113458625Y-138114925D01*
X113542421Y-138173599D01*
X113756507Y-138273429D01*
X113756516Y-138273433D01*
X113984673Y-138334567D01*
X113984684Y-138334569D01*
X114219998Y-138355157D01*
X114220002Y-138355157D01*
X114455315Y-138334569D01*
X114455326Y-138334567D01*
X114683483Y-138273433D01*
X114683492Y-138273429D01*
X114897578Y-138173600D01*
X114897582Y-138173598D01*
X114981373Y-138114926D01*
X114981373Y-138114925D01*
X114352533Y-137486086D01*
X114362315Y-137484680D01*
X114493100Y-137424952D01*
X114601761Y-137330798D01*
X114679493Y-137209844D01*
X114703076Y-137129525D01*
X115334925Y-137761373D01*
X115384868Y-137690048D01*
X115439445Y-137646424D01*
X115508944Y-137639231D01*
X115571298Y-137670753D01*
X115590251Y-137693350D01*
X115684276Y-137837265D01*
X115684284Y-137837276D01*
X115836756Y-138002902D01*
X115836760Y-138002906D01*
X116014424Y-138141189D01*
X116014426Y-138141190D01*
X116014433Y-138141195D01*
X116061516Y-138166674D01*
X116111107Y-138215892D01*
X116126500Y-138275729D01*
X116126500Y-141976640D01*
X116106815Y-142043679D01*
X116054011Y-142089434D01*
X115984853Y-142099378D01*
X115921297Y-142070353D01*
X115914819Y-142064321D01*
X115844304Y-141993806D01*
X115844300Y-141993802D01*
X115656749Y-141862477D01*
X115656745Y-141862475D01*
X115449249Y-141765718D01*
X115449238Y-141765714D01*
X115228089Y-141706457D01*
X115228081Y-141706456D01*
X115000002Y-141686502D01*
X114999998Y-141686502D01*
X114771918Y-141706456D01*
X114771910Y-141706457D01*
X114550761Y-141765714D01*
X114550750Y-141765718D01*
X114343254Y-141862475D01*
X114343252Y-141862476D01*
X114303596Y-141890244D01*
X114155700Y-141993802D01*
X114155698Y-141993803D01*
X114155695Y-141993806D01*
X113993806Y-142155695D01*
X113993803Y-142155698D01*
X113993802Y-142155700D01*
X113927673Y-142250142D01*
X113862476Y-142343252D01*
X113862475Y-142343254D01*
X113765718Y-142550750D01*
X113765714Y-142550761D01*
X113706457Y-142771910D01*
X113706456Y-142771918D01*
X113686502Y-142999998D01*
X113686502Y-143000001D01*
X113706456Y-143228081D01*
X113706457Y-143228089D01*
X113765714Y-143449238D01*
X113765718Y-143449249D01*
X113860485Y-143652478D01*
X113862477Y-143656749D01*
X113962759Y-143799967D01*
X113969074Y-143808985D01*
X113991401Y-143875191D01*
X113991499Y-143880108D01*
X113991499Y-144378146D01*
X113971814Y-144445185D01*
X113938623Y-144479720D01*
X113775699Y-144593802D01*
X113613806Y-144755695D01*
X113613803Y-144755698D01*
X113613802Y-144755700D01*
X113599756Y-144775760D01*
X113482476Y-144943251D01*
X113462382Y-144986345D01*
X113416209Y-145038784D01*
X113349016Y-145057936D01*
X113282135Y-145037720D01*
X113237618Y-144986345D01*
X113217523Y-144943251D01*
X113207450Y-144928866D01*
X113086198Y-144755700D01*
X112924300Y-144593802D01*
X112736749Y-144462477D01*
X112733912Y-144461154D01*
X112529249Y-144365718D01*
X112529238Y-144365714D01*
X112308089Y-144306457D01*
X112308081Y-144306456D01*
X112080002Y-144286502D01*
X112079998Y-144286502D01*
X111851918Y-144306456D01*
X111851910Y-144306457D01*
X111630761Y-144365714D01*
X111630750Y-144365718D01*
X111423254Y-144462475D01*
X111423252Y-144462476D01*
X111354272Y-144510777D01*
X111235700Y-144593802D01*
X111235698Y-144593803D01*
X111235695Y-144593806D01*
X111073806Y-144755695D01*
X111073803Y-144755698D01*
X111073802Y-144755700D01*
X110994939Y-144868328D01*
X110942476Y-144943252D01*
X110942474Y-144943256D01*
X110917691Y-144996402D01*
X110871518Y-145048841D01*
X110804324Y-145067992D01*
X110737444Y-145047775D01*
X110692927Y-144996399D01*
X110670133Y-144947517D01*
X110539657Y-144761179D01*
X110378820Y-144600342D01*
X110228953Y-144495403D01*
X110185328Y-144440825D01*
X110178136Y-144371327D01*
X110209658Y-144308972D01*
X110267984Y-144274053D01*
X110446317Y-144226269D01*
X110446331Y-144226264D01*
X110652478Y-144130136D01*
X110725472Y-144079025D01*
X110044401Y-143397953D01*
X110125148Y-143385165D01*
X110238045Y-143327641D01*
X110327641Y-143238045D01*
X110385165Y-143125148D01*
X110397953Y-143044400D01*
X111079025Y-143725472D01*
X111130136Y-143652478D01*
X111226264Y-143446331D01*
X111226269Y-143446317D01*
X111285139Y-143226610D01*
X111285141Y-143226599D01*
X111304966Y-143000002D01*
X111304966Y-142999997D01*
X111285141Y-142773400D01*
X111285139Y-142773389D01*
X111226269Y-142553682D01*
X111226265Y-142553673D01*
X111130133Y-142347516D01*
X111130131Y-142347512D01*
X111079026Y-142274526D01*
X111079025Y-142274526D01*
X110397953Y-142955598D01*
X110385165Y-142874852D01*
X110327641Y-142761955D01*
X110238045Y-142672359D01*
X110125148Y-142614835D01*
X110044400Y-142602046D01*
X110725472Y-141920974D01*
X110725471Y-141920973D01*
X110652483Y-141869866D01*
X110652481Y-141869865D01*
X110446326Y-141773734D01*
X110446317Y-141773730D01*
X110226610Y-141714860D01*
X110226599Y-141714858D01*
X110000002Y-141695034D01*
X109999998Y-141695034D01*
X109773400Y-141714858D01*
X109773389Y-141714860D01*
X109553682Y-141773730D01*
X109553673Y-141773734D01*
X109347513Y-141869868D01*
X109274527Y-141920972D01*
X109274526Y-141920973D01*
X109955600Y-142602046D01*
X109874852Y-142614835D01*
X109761955Y-142672359D01*
X109672359Y-142761955D01*
X109614835Y-142874852D01*
X109602046Y-142955599D01*
X108920973Y-142274526D01*
X108920972Y-142274527D01*
X108869868Y-142347513D01*
X108773734Y-142553673D01*
X108773730Y-142553682D01*
X108714860Y-142773389D01*
X108714858Y-142773400D01*
X108695034Y-142999997D01*
X108695034Y-143000002D01*
X108714858Y-143226599D01*
X108714860Y-143226610D01*
X108763907Y-143409656D01*
X108762244Y-143479506D01*
X108723081Y-143537368D01*
X108658853Y-143564872D01*
X108589951Y-143553285D01*
X108571246Y-143542067D01*
X108459614Y-143460961D01*
X108416949Y-143405631D01*
X108408500Y-143360643D01*
X108408500Y-138356905D01*
X108428185Y-138289866D01*
X108480989Y-138244111D01*
X108550147Y-138234167D01*
X108587606Y-138246557D01*
X108587728Y-138246281D01*
X108590664Y-138247569D01*
X108591521Y-138247852D01*
X108592426Y-138248342D01*
X108805365Y-138321444D01*
X109027431Y-138358500D01*
X109252569Y-138358500D01*
X109474635Y-138321444D01*
X109687574Y-138248342D01*
X109885576Y-138141189D01*
X110063240Y-138002906D01*
X110215722Y-137837268D01*
X110309749Y-137693347D01*
X110362894Y-137647994D01*
X110432125Y-137638570D01*
X110495461Y-137668072D01*
X110515131Y-137690049D01*
X110565072Y-137761373D01*
X110565073Y-137761373D01*
X111196923Y-137129523D01*
X111220507Y-137209844D01*
X111298239Y-137330798D01*
X111406900Y-137424952D01*
X111537685Y-137484680D01*
X111547466Y-137486086D01*
X110918625Y-138114925D01*
X111002421Y-138173599D01*
X111216507Y-138273429D01*
X111216516Y-138273433D01*
X111444673Y-138334567D01*
X111444684Y-138334569D01*
X111679998Y-138355157D01*
X111680002Y-138355157D01*
X111915315Y-138334569D01*
X111915326Y-138334567D01*
X112143483Y-138273433D01*
X112143492Y-138273429D01*
X112357578Y-138173600D01*
X112357582Y-138173598D01*
X112441373Y-138114926D01*
X112441373Y-138114925D01*
X111812533Y-137486086D01*
X111822315Y-137484680D01*
X111953100Y-137424952D01*
X112061761Y-137330798D01*
X112139493Y-137209844D01*
X112163076Y-137129524D01*
X112794925Y-137761373D01*
X112848425Y-137684968D01*
X112903002Y-137641344D01*
X112972501Y-137634151D01*
X113034855Y-137665673D01*
X113051576Y-137684969D01*
X113105073Y-137761372D01*
X113736922Y-137129523D01*
X113760507Y-137209844D01*
G37*
%TD.AperFunction*%
%TA.AperFunction,Conductor*%
G36*
X109614835Y-143125148D02*
G01*
X109672359Y-143238045D01*
X109761955Y-143327641D01*
X109874852Y-143385165D01*
X109955599Y-143397953D01*
X109274526Y-144079025D01*
X109311044Y-144104595D01*
X109354670Y-144159172D01*
X109361864Y-144228670D01*
X109330342Y-144291025D01*
X109272016Y-144325946D01*
X109093680Y-144373731D01*
X109093661Y-144373738D01*
X109089166Y-144375834D01*
X109020088Y-144386319D01*
X108956307Y-144357793D01*
X108918073Y-144299313D01*
X108914023Y-144256498D01*
X108913504Y-144256498D01*
X108913504Y-144251013D01*
X108913453Y-144250479D01*
X108913504Y-144250000D01*
X108893542Y-144060072D01*
X108838731Y-143891385D01*
X108836737Y-143821545D01*
X108872817Y-143761712D01*
X108896260Y-143750185D01*
X109602046Y-143044399D01*
X109614835Y-143125148D01*
G37*
%TD.AperFunction*%
%TA.AperFunction,Conductor*%
G36*
X111220507Y-134669844D02*
G01*
X111298239Y-134790798D01*
X111406900Y-134884952D01*
X111537685Y-134944680D01*
X111547466Y-134946086D01*
X110918625Y-135574925D01*
X110995031Y-135628425D01*
X111038655Y-135683002D01*
X111045848Y-135752501D01*
X111014326Y-135814855D01*
X110995029Y-135831576D01*
X110918625Y-135885072D01*
X111547466Y-136513913D01*
X111537685Y-136515320D01*
X111406900Y-136575048D01*
X111298239Y-136669202D01*
X111220507Y-136790156D01*
X111196923Y-136870476D01*
X110565072Y-136238625D01*
X110565072Y-136238626D01*
X110515131Y-136309950D01*
X110460555Y-136353575D01*
X110391056Y-136360769D01*
X110328701Y-136329246D01*
X110309748Y-136306649D01*
X110215723Y-136162734D01*
X110215722Y-136162732D01*
X110181269Y-136125306D01*
X110150347Y-136062656D01*
X110148500Y-136041336D01*
X110148500Y-135418670D01*
X110168184Y-135351635D01*
X110181262Y-135334699D01*
X110215722Y-135297268D01*
X110309749Y-135153347D01*
X110362894Y-135107994D01*
X110432125Y-135098570D01*
X110495461Y-135128072D01*
X110515131Y-135150049D01*
X110565072Y-135221373D01*
X110565073Y-135221373D01*
X111196923Y-134589523D01*
X111220507Y-134669844D01*
G37*
%TD.AperFunction*%
%TA.AperFunction,Conductor*%
G36*
X113760507Y-134669844D02*
G01*
X113838239Y-134790798D01*
X113946900Y-134884952D01*
X114077685Y-134944680D01*
X114087466Y-134946086D01*
X113458625Y-135574925D01*
X113535031Y-135628425D01*
X113578655Y-135683002D01*
X113585848Y-135752501D01*
X113554326Y-135814855D01*
X113535029Y-135831576D01*
X113458625Y-135885072D01*
X113458625Y-135885073D01*
X114087465Y-136513913D01*
X114077685Y-136515320D01*
X113946900Y-136575048D01*
X113838239Y-136669202D01*
X113760507Y-136790156D01*
X113736923Y-136870474D01*
X113105073Y-136238625D01*
X113105072Y-136238626D01*
X113051574Y-136315030D01*
X112996998Y-136358655D01*
X112927499Y-136365849D01*
X112865144Y-136334326D01*
X112848424Y-136315030D01*
X112794925Y-136238626D01*
X112794925Y-136238625D01*
X112163076Y-136870474D01*
X112139493Y-136790156D01*
X112061761Y-136669202D01*
X111953100Y-136575048D01*
X111822315Y-136515320D01*
X111812533Y-136513913D01*
X112441373Y-135885073D01*
X112364969Y-135831576D01*
X112321344Y-135776999D01*
X112314150Y-135707501D01*
X112345672Y-135645146D01*
X112364968Y-135628425D01*
X112441373Y-135574925D01*
X111812533Y-134946086D01*
X111822315Y-134944680D01*
X111953100Y-134884952D01*
X112061761Y-134790798D01*
X112139493Y-134669844D01*
X112163076Y-134589524D01*
X112794925Y-135221373D01*
X112848425Y-135144968D01*
X112903002Y-135101344D01*
X112972501Y-135094151D01*
X113034855Y-135125673D01*
X113051576Y-135144969D01*
X113105073Y-135221372D01*
X113736922Y-134589523D01*
X113760507Y-134669844D01*
G37*
%TD.AperFunction*%
%TA.AperFunction,Conductor*%
G36*
X116300507Y-134669844D02*
G01*
X116378239Y-134790798D01*
X116486900Y-134884952D01*
X116617685Y-134944680D01*
X116627466Y-134946086D01*
X115998625Y-135574925D01*
X116069801Y-135624763D01*
X116113426Y-135679340D01*
X116120620Y-135748838D01*
X116089097Y-135811193D01*
X116057697Y-135835392D01*
X116014427Y-135858809D01*
X116014422Y-135858812D01*
X115836761Y-135997092D01*
X115836756Y-135997097D01*
X115684284Y-136162723D01*
X115684280Y-136162729D01*
X115590250Y-136306651D01*
X115537103Y-136352007D01*
X115467872Y-136361430D01*
X115404536Y-136331927D01*
X115384866Y-136309951D01*
X115334924Y-136238626D01*
X114703076Y-136870474D01*
X114679493Y-136790156D01*
X114601761Y-136669202D01*
X114493100Y-136575048D01*
X114362315Y-136515320D01*
X114352532Y-136513913D01*
X114981373Y-135885073D01*
X114904969Y-135831576D01*
X114861344Y-135776999D01*
X114854150Y-135707501D01*
X114885672Y-135645146D01*
X114904968Y-135628425D01*
X114981373Y-135574925D01*
X114352533Y-134946086D01*
X114362315Y-134944680D01*
X114493100Y-134884952D01*
X114601761Y-134790798D01*
X114679493Y-134669844D01*
X114703076Y-134589525D01*
X115334925Y-135221373D01*
X115388425Y-135144968D01*
X115443002Y-135101344D01*
X115512501Y-135094151D01*
X115574855Y-135125673D01*
X115591576Y-135144969D01*
X115645073Y-135221372D01*
X116276922Y-134589523D01*
X116300507Y-134669844D01*
G37*
%TD.AperFunction*%
%TA.AperFunction,Conductor*%
G36*
X117874925Y-135221373D02*
G01*
X117924868Y-135150048D01*
X117979445Y-135106424D01*
X118048944Y-135099231D01*
X118111298Y-135130753D01*
X118130251Y-135153350D01*
X118224276Y-135297265D01*
X118224284Y-135297276D01*
X118376756Y-135462902D01*
X118376761Y-135462907D01*
X118393844Y-135476203D01*
X118554424Y-135601189D01*
X118554429Y-135601191D01*
X118554431Y-135601193D01*
X118590930Y-135620946D01*
X118640520Y-135670165D01*
X118655628Y-135738382D01*
X118631457Y-135803937D01*
X118590930Y-135839054D01*
X118554431Y-135858806D01*
X118554422Y-135858812D01*
X118376761Y-135997092D01*
X118376756Y-135997097D01*
X118224284Y-136162723D01*
X118224276Y-136162734D01*
X118133808Y-136301206D01*
X118080662Y-136346562D01*
X118011431Y-136355986D01*
X117948095Y-136326484D01*
X117926192Y-136301206D01*
X117835723Y-136162734D01*
X117835715Y-136162723D01*
X117683243Y-135997097D01*
X117683238Y-135997092D01*
X117505577Y-135858812D01*
X117505577Y-135858811D01*
X117462303Y-135835393D01*
X117412713Y-135786173D01*
X117397605Y-135717957D01*
X117421775Y-135652401D01*
X117450198Y-135624763D01*
X117521373Y-135574925D01*
X116892533Y-134946086D01*
X116902315Y-134944680D01*
X117033100Y-134884952D01*
X117141761Y-134790798D01*
X117219493Y-134669844D01*
X117243076Y-134589524D01*
X117874925Y-135221373D01*
G37*
%TD.AperFunction*%
%TA.AperFunction,Conductor*%
G36*
X59191903Y-135133515D02*
G01*
X59213807Y-135158793D01*
X59304276Y-135297265D01*
X59304284Y-135297276D01*
X59456756Y-135462902D01*
X59456761Y-135462907D01*
X59473844Y-135476203D01*
X59634424Y-135601189D01*
X59670930Y-135620945D01*
X59677695Y-135624606D01*
X59727286Y-135673825D01*
X59742394Y-135742042D01*
X59718224Y-135807597D01*
X59689801Y-135835236D01*
X59618626Y-135885072D01*
X59618625Y-135885072D01*
X60247466Y-136513913D01*
X60237685Y-136515320D01*
X60106900Y-136575048D01*
X59998239Y-136669202D01*
X59920507Y-136790156D01*
X59896923Y-136870476D01*
X59265072Y-136238625D01*
X59265072Y-136238626D01*
X59211574Y-136315030D01*
X59156998Y-136358655D01*
X59087499Y-136365849D01*
X59025144Y-136334326D01*
X59008424Y-136315030D01*
X58954925Y-136238626D01*
X58954925Y-136238625D01*
X58323076Y-136870474D01*
X58299493Y-136790156D01*
X58221761Y-136669202D01*
X58113100Y-136575048D01*
X57982315Y-136515320D01*
X57972533Y-136513913D01*
X58601373Y-135885073D01*
X58601373Y-135885072D01*
X58530199Y-135835236D01*
X58486574Y-135780659D01*
X58479380Y-135711161D01*
X58510903Y-135648806D01*
X58542305Y-135624606D01*
X58549070Y-135620945D01*
X58585576Y-135601189D01*
X58763240Y-135462906D01*
X58904041Y-135309957D01*
X58915715Y-135297276D01*
X58915717Y-135297273D01*
X58915722Y-135297268D01*
X59006193Y-135158791D01*
X59059336Y-135113437D01*
X59128567Y-135104013D01*
X59191903Y-135133515D01*
G37*
%TD.AperFunction*%
%TA.AperFunction,Conductor*%
G36*
X64271903Y-135133515D02*
G01*
X64293807Y-135158793D01*
X64384276Y-135297265D01*
X64384284Y-135297276D01*
X64536756Y-135462902D01*
X64536761Y-135462907D01*
X64553844Y-135476203D01*
X64714424Y-135601189D01*
X64750930Y-135620945D01*
X64757695Y-135624606D01*
X64807286Y-135673825D01*
X64822394Y-135742042D01*
X64798224Y-135807597D01*
X64769801Y-135835236D01*
X64698626Y-135885072D01*
X64698625Y-135885072D01*
X65327466Y-136513913D01*
X65317685Y-136515320D01*
X65186900Y-136575048D01*
X65078239Y-136669202D01*
X65000507Y-136790156D01*
X64976923Y-136870476D01*
X64345072Y-136238625D01*
X64345072Y-136238626D01*
X64291574Y-136315030D01*
X64236998Y-136358655D01*
X64167499Y-136365849D01*
X64105144Y-136334326D01*
X64088424Y-136315030D01*
X64034925Y-136238626D01*
X64034925Y-136238625D01*
X63403076Y-136870473D01*
X63379493Y-136790156D01*
X63301761Y-136669202D01*
X63193100Y-136575048D01*
X63062315Y-136515320D01*
X63052533Y-136513913D01*
X63681373Y-135885073D01*
X63681373Y-135885072D01*
X63610199Y-135835236D01*
X63566574Y-135780659D01*
X63559380Y-135711161D01*
X63590903Y-135648806D01*
X63622305Y-135624606D01*
X63629070Y-135620945D01*
X63665576Y-135601189D01*
X63843240Y-135462906D01*
X63984041Y-135309957D01*
X63995715Y-135297276D01*
X63995717Y-135297273D01*
X63995722Y-135297268D01*
X64086193Y-135158791D01*
X64139336Y-135113437D01*
X64208567Y-135104013D01*
X64271903Y-135133515D01*
G37*
%TD.AperFunction*%
%TA.AperFunction,Conductor*%
G36*
X61731903Y-135133515D02*
G01*
X61753807Y-135158793D01*
X61844276Y-135297265D01*
X61844284Y-135297276D01*
X61996756Y-135462902D01*
X61996761Y-135462907D01*
X62013844Y-135476203D01*
X62174424Y-135601189D01*
X62210930Y-135620945D01*
X62217695Y-135624606D01*
X62267286Y-135673825D01*
X62282394Y-135742042D01*
X62258224Y-135807597D01*
X62229801Y-135835236D01*
X62158626Y-135885072D01*
X62158625Y-135885072D01*
X62787466Y-136513913D01*
X62777685Y-136515320D01*
X62646900Y-136575048D01*
X62538239Y-136669202D01*
X62460507Y-136790156D01*
X62436923Y-136870475D01*
X61805073Y-136238625D01*
X61805071Y-136238626D01*
X61751574Y-136315030D01*
X61696998Y-136358655D01*
X61627499Y-136365849D01*
X61565144Y-136334326D01*
X61548424Y-136315030D01*
X61494925Y-136238626D01*
X61494925Y-136238625D01*
X60863076Y-136870475D01*
X60839493Y-136790156D01*
X60761761Y-136669202D01*
X60653100Y-136575048D01*
X60522315Y-136515320D01*
X60512533Y-136513913D01*
X61141373Y-135885073D01*
X61141373Y-135885072D01*
X61070199Y-135835236D01*
X61026574Y-135780659D01*
X61019380Y-135711161D01*
X61050903Y-135648806D01*
X61082305Y-135624606D01*
X61089070Y-135620945D01*
X61125576Y-135601189D01*
X61303240Y-135462906D01*
X61444041Y-135309957D01*
X61455715Y-135297276D01*
X61455717Y-135297273D01*
X61455722Y-135297268D01*
X61546193Y-135158791D01*
X61599336Y-135113437D01*
X61668567Y-135104013D01*
X61731903Y-135133515D01*
G37*
%TD.AperFunction*%
%TA.AperFunction,Conductor*%
G36*
X66628542Y-135303467D02*
G01*
X66686158Y-135342991D01*
X66704474Y-135376362D01*
X66704835Y-135376195D01*
X66707389Y-135381672D01*
X66707749Y-135382329D01*
X66707882Y-135382730D01*
X66707884Y-135382735D01*
X66707886Y-135382740D01*
X66730051Y-135418674D01*
X66800970Y-135533652D01*
X66926348Y-135659030D01*
X67077262Y-135752115D01*
X67077356Y-135752146D01*
X67077408Y-135752182D01*
X67083805Y-135755165D01*
X67083295Y-135756257D01*
X67134799Y-135791914D01*
X67161625Y-135856429D01*
X67149313Y-135925205D01*
X67114519Y-135967704D01*
X67076758Y-135997095D01*
X67076756Y-135997097D01*
X66924284Y-136162723D01*
X66924280Y-136162729D01*
X66830250Y-136306651D01*
X66777103Y-136352007D01*
X66707872Y-136361430D01*
X66644536Y-136331927D01*
X66624866Y-136309951D01*
X66574924Y-136238626D01*
X65943076Y-136870474D01*
X65919493Y-136790156D01*
X65841761Y-136669202D01*
X65733100Y-136575048D01*
X65602315Y-136515320D01*
X65592533Y-136513913D01*
X66221373Y-135885073D01*
X66221373Y-135885072D01*
X66150199Y-135835236D01*
X66106574Y-135780659D01*
X66099380Y-135711161D01*
X66130903Y-135648806D01*
X66162305Y-135624606D01*
X66169070Y-135620945D01*
X66205576Y-135601189D01*
X66383240Y-135462906D01*
X66498818Y-135337355D01*
X66558704Y-135301366D01*
X66628542Y-135303467D01*
G37*
%TD.AperFunction*%
%TA.AperFunction,Conductor*%
G36*
X159942539Y-130058185D02*
G01*
X159988294Y-130110989D01*
X159999500Y-130162500D01*
X159999500Y-193875500D01*
X159979815Y-193942539D01*
X159927011Y-193988294D01*
X159875500Y-193999500D01*
X139251440Y-193999500D01*
X139248576Y-193999434D01*
X139077206Y-193991510D01*
X138853655Y-193980527D01*
X138848130Y-193980007D01*
X138655044Y-193953074D01*
X138452793Y-193923071D01*
X138447694Y-193922095D01*
X138254085Y-193876559D01*
X138059266Y-193827760D01*
X138054626Y-193826403D01*
X137864915Y-193762819D01*
X137863731Y-193762409D01*
X137676611Y-193695457D01*
X137672453Y-193693797D01*
X137488600Y-193612617D01*
X137487204Y-193611980D01*
X137384045Y-193563189D01*
X137308320Y-193527373D01*
X137304658Y-193525490D01*
X137128681Y-193427472D01*
X137126976Y-193426487D01*
X136957675Y-193325012D01*
X136954523Y-193322990D01*
X136856649Y-193255945D01*
X136788130Y-193209008D01*
X136786235Y-193207657D01*
X136627892Y-193090223D01*
X136625217Y-193088122D01*
X136469918Y-192959164D01*
X136467890Y-192957404D01*
X136321942Y-192825125D01*
X136319738Y-192823026D01*
X136176972Y-192680260D01*
X136174873Y-192678056D01*
X136042594Y-192532108D01*
X136040834Y-192530080D01*
X135911876Y-192374781D01*
X135909784Y-192372118D01*
X135866277Y-192313455D01*
X135792341Y-192213763D01*
X135790990Y-192211868D01*
X135748612Y-192150004D01*
X135676998Y-192045459D01*
X135675000Y-192042345D01*
X135573484Y-191872976D01*
X135572540Y-191871341D01*
X135474505Y-191695335D01*
X135472631Y-191691691D01*
X135387987Y-191512726D01*
X135387413Y-191511470D01*
X135306190Y-191327518D01*
X135304549Y-191323409D01*
X135237571Y-191136217D01*
X135237204Y-191135155D01*
X135173594Y-190945369D01*
X135172241Y-190940745D01*
X135123451Y-190745961D01*
X135077901Y-190552296D01*
X135076927Y-190547205D01*
X135072620Y-190518176D01*
X135046938Y-190345047D01*
X135019990Y-190151859D01*
X135019471Y-190146342D01*
X135012282Y-190000002D01*
X151695153Y-190000002D01*
X151714526Y-190357314D01*
X151714527Y-190357331D01*
X151772415Y-190710431D01*
X151772421Y-190710457D01*
X151868147Y-191055232D01*
X151868149Y-191055239D01*
X152000597Y-191387659D01*
X152000606Y-191387677D01*
X152168218Y-191703827D01*
X152369033Y-192000007D01*
X152496441Y-192150003D01*
X152496442Y-192150004D01*
X153702266Y-190944180D01*
X153865130Y-191134870D01*
X154055818Y-191297732D01*
X152847255Y-192506295D01*
X152847256Y-192506296D01*
X152860485Y-192518828D01*
X152860486Y-192518829D01*
X153145367Y-192735388D01*
X153145370Y-192735390D01*
X153451990Y-192919876D01*
X153776739Y-193070122D01*
X153776744Y-193070123D01*
X154115855Y-193184383D01*
X154465339Y-193261311D01*
X154821075Y-193299999D01*
X154821085Y-193300000D01*
X155178915Y-193300000D01*
X155178924Y-193299999D01*
X155534660Y-193261311D01*
X155884144Y-193184383D01*
X156223255Y-193070123D01*
X156223260Y-193070122D01*
X156548009Y-192919876D01*
X156854629Y-192735390D01*
X156854632Y-192735388D01*
X157139504Y-192518836D01*
X157152742Y-192506294D01*
X155944180Y-191297733D01*
X156134870Y-191134870D01*
X156297733Y-190944180D01*
X157503556Y-192150003D01*
X157630964Y-192000008D01*
X157630975Y-191999994D01*
X157831781Y-191703827D01*
X157999393Y-191387677D01*
X157999402Y-191387659D01*
X158131850Y-191055239D01*
X158131852Y-191055232D01*
X158227578Y-190710457D01*
X158227584Y-190710431D01*
X158285472Y-190357331D01*
X158285473Y-190357314D01*
X158304846Y-190000002D01*
X158304846Y-189999997D01*
X158285473Y-189642685D01*
X158285472Y-189642668D01*
X158227584Y-189289568D01*
X158227578Y-189289542D01*
X158131852Y-188944767D01*
X158131850Y-188944760D01*
X157999402Y-188612340D01*
X157999393Y-188612322D01*
X157831781Y-188296172D01*
X157630966Y-187999992D01*
X157503557Y-187849995D01*
X157503556Y-187849994D01*
X156297732Y-189055818D01*
X156134870Y-188865130D01*
X155944180Y-188702266D01*
X157152743Y-187493703D01*
X157152742Y-187493702D01*
X157139514Y-187481171D01*
X157139513Y-187481170D01*
X156854632Y-187264611D01*
X156854629Y-187264609D01*
X156548009Y-187080123D01*
X156223260Y-186929877D01*
X156223255Y-186929876D01*
X155884144Y-186815616D01*
X155534660Y-186738688D01*
X155178924Y-186700000D01*
X154821075Y-186700000D01*
X154465339Y-186738688D01*
X154115855Y-186815616D01*
X153776744Y-186929876D01*
X153776739Y-186929877D01*
X153451990Y-187080123D01*
X153145370Y-187264609D01*
X153145367Y-187264611D01*
X152860491Y-187481166D01*
X152847256Y-187493703D01*
X152847255Y-187493703D01*
X154055819Y-188702266D01*
X153865130Y-188865130D01*
X153702266Y-189055818D01*
X152496442Y-187849994D01*
X152496441Y-187849995D01*
X152369040Y-187999983D01*
X152369033Y-187999993D01*
X152168218Y-188296172D01*
X152000606Y-188612322D01*
X152000597Y-188612340D01*
X151868149Y-188944760D01*
X151868147Y-188944767D01*
X151772421Y-189289542D01*
X151772415Y-189289568D01*
X151714527Y-189642668D01*
X151714526Y-189642685D01*
X151695153Y-189999997D01*
X151695153Y-190000002D01*
X135012282Y-190000002D01*
X135012282Y-189999999D01*
X135008500Y-189923036D01*
X135000566Y-189751418D01*
X135000499Y-189748604D01*
X134995296Y-174255105D01*
X134995296Y-174058691D01*
X134973804Y-173826764D01*
X134973617Y-173824118D01*
X134969850Y-173747429D01*
X134965051Y-173732301D01*
X134959033Y-173667353D01*
X134959033Y-173667350D01*
X134941779Y-173575048D01*
X134910268Y-173406476D01*
X134909897Y-173404256D01*
X134900787Y-173342839D01*
X134896469Y-173332659D01*
X134886815Y-173281010D01*
X134874755Y-173238625D01*
X134806034Y-172997097D01*
X134803341Y-172987631D01*
X134802839Y-172985751D01*
X134793042Y-172946644D01*
X134790159Y-172941301D01*
X134779258Y-172902988D01*
X134650362Y-172570267D01*
X134649804Y-172568769D01*
X134647567Y-172562517D01*
X134647071Y-172561772D01*
X134637282Y-172536503D01*
X134462095Y-172184682D01*
X134255194Y-171850525D01*
X134255193Y-171850524D01*
X134255189Y-171850517D01*
X134018357Y-171536899D01*
X134018341Y-171536880D01*
X133886568Y-171392333D01*
X133753565Y-171246435D01*
X133592750Y-171099833D01*
X133463119Y-170981658D01*
X133463100Y-170981642D01*
X133149482Y-170744810D01*
X132983768Y-170642205D01*
X132815318Y-170537905D01*
X132463497Y-170362718D01*
X132463493Y-170362716D01*
X132463484Y-170362712D01*
X132438222Y-170352925D01*
X132437665Y-170352497D01*
X132431214Y-170350189D01*
X132429707Y-170349627D01*
X132097009Y-170220741D01*
X132058696Y-170209840D01*
X132054630Y-170207275D01*
X132014212Y-170197150D01*
X132012310Y-170196642D01*
X131718997Y-170113186D01*
X131691820Y-170108106D01*
X131667337Y-170103529D01*
X131659540Y-170099565D01*
X131595730Y-170090099D01*
X131593435Y-170089715D01*
X131440837Y-170061190D01*
X131332657Y-170040968D01*
X131332655Y-170040967D01*
X131332651Y-170040967D01*
X131267687Y-170034947D01*
X131256030Y-170030317D01*
X131175848Y-170026379D01*
X131173169Y-170026189D01*
X131091407Y-170018612D01*
X130941309Y-170004704D01*
X130941306Y-170004704D01*
X130744905Y-170004704D01*
X100282600Y-169999505D01*
X100221829Y-169983580D01*
X85974346Y-161969371D01*
X72265449Y-154258116D01*
X72258905Y-154253137D01*
X72253656Y-154250969D01*
X72251580Y-154249962D01*
X72250193Y-154249446D01*
X72248481Y-154249166D01*
X72246218Y-154249026D01*
X72241046Y-154248383D01*
X72232861Y-154249500D01*
X44251440Y-154249500D01*
X44248576Y-154249434D01*
X44077206Y-154241510D01*
X43853655Y-154230527D01*
X43848130Y-154230007D01*
X43655044Y-154203074D01*
X43452793Y-154173071D01*
X43447694Y-154172095D01*
X43254085Y-154126559D01*
X43059266Y-154077760D01*
X43054626Y-154076403D01*
X42864915Y-154012819D01*
X42863731Y-154012409D01*
X42676611Y-153945457D01*
X42672453Y-153943797D01*
X42488600Y-153862617D01*
X42487204Y-153861980D01*
X42384045Y-153813189D01*
X42308320Y-153777373D01*
X42304658Y-153775490D01*
X42128681Y-153677472D01*
X42126976Y-153676487D01*
X41957675Y-153575012D01*
X41954523Y-153572990D01*
X41840455Y-153494852D01*
X41788130Y-153459008D01*
X41786235Y-153457657D01*
X41627892Y-153340223D01*
X41625217Y-153338122D01*
X41469918Y-153209164D01*
X41467890Y-153207404D01*
X41321942Y-153075125D01*
X41319738Y-153073026D01*
X41176972Y-152930260D01*
X41174873Y-152928056D01*
X41042594Y-152782108D01*
X41040834Y-152780080D01*
X40911876Y-152624781D01*
X40909784Y-152622118D01*
X40866126Y-152563251D01*
X40792341Y-152463763D01*
X40790990Y-152461868D01*
X40772026Y-152434184D01*
X40676998Y-152295459D01*
X40675000Y-152292345D01*
X40573484Y-152122976D01*
X40572540Y-152121341D01*
X40474505Y-151945335D01*
X40472631Y-151941691D01*
X40387987Y-151762726D01*
X40387413Y-151761470D01*
X40306190Y-151577518D01*
X40304549Y-151573409D01*
X40237571Y-151386217D01*
X40237204Y-151385155D01*
X40173594Y-151195369D01*
X40172241Y-151190745D01*
X40123846Y-150997537D01*
X40123451Y-150995961D01*
X40077901Y-150802296D01*
X40076927Y-150797205D01*
X40072620Y-150768176D01*
X40046938Y-150595047D01*
X40019990Y-150401859D01*
X40019471Y-150396342D01*
X40011510Y-150234285D01*
X40008500Y-150173035D01*
X40000566Y-150001424D01*
X40000500Y-149998561D01*
X40000500Y-135000002D01*
X41695153Y-135000002D01*
X41714526Y-135357314D01*
X41714527Y-135357331D01*
X41772415Y-135710431D01*
X41772421Y-135710457D01*
X41868147Y-136055232D01*
X41868149Y-136055239D01*
X42000597Y-136387659D01*
X42000606Y-136387677D01*
X42168218Y-136703827D01*
X42369033Y-137000007D01*
X42496441Y-137150003D01*
X42496442Y-137150004D01*
X43702266Y-135944180D01*
X43865130Y-136134870D01*
X44055818Y-136297732D01*
X42847255Y-137506295D01*
X42847256Y-137506296D01*
X42860485Y-137518828D01*
X42860486Y-137518829D01*
X43145367Y-137735388D01*
X43145370Y-137735390D01*
X43451990Y-137919876D01*
X43776739Y-138070122D01*
X43776744Y-138070123D01*
X44115855Y-138184383D01*
X44465339Y-138261311D01*
X44821075Y-138299999D01*
X44821085Y-138300000D01*
X45178915Y-138300000D01*
X45178924Y-138299999D01*
X45534660Y-138261311D01*
X45884144Y-138184383D01*
X46223255Y-138070123D01*
X46223260Y-138070122D01*
X46548009Y-137919876D01*
X46854629Y-137735390D01*
X46854632Y-137735388D01*
X47139504Y-137518836D01*
X47152742Y-137506294D01*
X45944180Y-136297733D01*
X46134870Y-136134870D01*
X46297733Y-135944180D01*
X47503556Y-137150003D01*
X47630964Y-137000008D01*
X47630975Y-136999994D01*
X47831781Y-136703827D01*
X47999393Y-136387677D01*
X47999402Y-136387659D01*
X48131850Y-136055239D01*
X48131852Y-136055232D01*
X48227578Y-135710457D01*
X48227584Y-135710431D01*
X48285472Y-135357331D01*
X48285473Y-135357314D01*
X48304847Y-135000002D01*
X48304847Y-134999997D01*
X48285473Y-134642685D01*
X48285472Y-134642668D01*
X48255526Y-134460005D01*
X56476844Y-134460005D01*
X56495434Y-134684359D01*
X56495436Y-134684371D01*
X56550703Y-134902614D01*
X56641140Y-135108792D01*
X56764276Y-135297265D01*
X56764284Y-135297276D01*
X56916756Y-135462902D01*
X56916761Y-135462907D01*
X56933844Y-135476203D01*
X57094424Y-135601189D01*
X57130930Y-135620945D01*
X57137695Y-135624606D01*
X57187286Y-135673825D01*
X57202394Y-135742042D01*
X57178224Y-135807597D01*
X57149801Y-135835236D01*
X57078626Y-135885072D01*
X57078625Y-135885072D01*
X57707466Y-136513913D01*
X57697685Y-136515320D01*
X57566900Y-136575048D01*
X57458239Y-136669202D01*
X57380507Y-136790156D01*
X57356923Y-136870475D01*
X56725073Y-136238625D01*
X56725072Y-136238625D01*
X56666401Y-136322419D01*
X56566570Y-136536507D01*
X56566566Y-136536516D01*
X56505432Y-136764673D01*
X56505430Y-136764684D01*
X56484843Y-136999998D01*
X56484843Y-137000001D01*
X56505430Y-137235315D01*
X56505432Y-137235326D01*
X56566566Y-137463483D01*
X56566570Y-137463492D01*
X56666400Y-137677579D01*
X56666402Y-137677583D01*
X56725072Y-137761373D01*
X56725073Y-137761373D01*
X57356923Y-137129523D01*
X57380507Y-137209844D01*
X57458239Y-137330798D01*
X57566900Y-137424952D01*
X57697685Y-137484680D01*
X57707466Y-137486086D01*
X57078625Y-138114925D01*
X57162421Y-138173599D01*
X57376507Y-138273429D01*
X57376516Y-138273433D01*
X57604673Y-138334567D01*
X57604684Y-138334569D01*
X57839998Y-138355157D01*
X57840002Y-138355157D01*
X58075315Y-138334569D01*
X58075326Y-138334567D01*
X58303483Y-138273433D01*
X58303492Y-138273429D01*
X58517578Y-138173600D01*
X58517582Y-138173598D01*
X58601373Y-138114926D01*
X58601373Y-138114925D01*
X57972533Y-137486086D01*
X57982315Y-137484680D01*
X58113100Y-137424952D01*
X58221761Y-137330798D01*
X58299493Y-137209844D01*
X58323076Y-137129524D01*
X58954925Y-137761373D01*
X59008425Y-137684968D01*
X59063002Y-137641344D01*
X59132501Y-137634151D01*
X59194855Y-137665673D01*
X59211576Y-137684969D01*
X59265073Y-137761372D01*
X59896922Y-137129523D01*
X59920507Y-137209844D01*
X59998239Y-137330798D01*
X60106900Y-137424952D01*
X60237685Y-137484680D01*
X60247466Y-137486086D01*
X59618625Y-138114925D01*
X59702421Y-138173599D01*
X59916507Y-138273429D01*
X59916516Y-138273433D01*
X60144673Y-138334567D01*
X60144684Y-138334569D01*
X60379998Y-138355157D01*
X60380002Y-138355157D01*
X60615315Y-138334569D01*
X60615326Y-138334567D01*
X60843483Y-138273433D01*
X60843492Y-138273429D01*
X61057578Y-138173600D01*
X61057582Y-138173598D01*
X61141373Y-138114926D01*
X61141373Y-138114925D01*
X60512533Y-137486086D01*
X60522315Y-137484680D01*
X60653100Y-137424952D01*
X60761761Y-137330798D01*
X60839493Y-137209844D01*
X60863076Y-137129524D01*
X61494925Y-137761373D01*
X61548424Y-137684970D01*
X61603001Y-137641345D01*
X61672499Y-137634152D01*
X61734854Y-137665674D01*
X61751574Y-137684970D01*
X61805072Y-137761373D01*
X61805073Y-137761373D01*
X62436923Y-137129523D01*
X62460507Y-137209844D01*
X62538239Y-137330798D01*
X62646900Y-137424952D01*
X62777685Y-137484680D01*
X62787466Y-137486086D01*
X62158625Y-138114925D01*
X62242421Y-138173599D01*
X62456507Y-138273429D01*
X62456516Y-138273433D01*
X62684673Y-138334567D01*
X62684684Y-138334569D01*
X62919998Y-138355157D01*
X62920002Y-138355157D01*
X63155315Y-138334569D01*
X63155326Y-138334567D01*
X63383483Y-138273433D01*
X63383492Y-138273429D01*
X63597578Y-138173600D01*
X63597582Y-138173598D01*
X63681373Y-138114926D01*
X63681373Y-138114925D01*
X63052533Y-137486086D01*
X63062315Y-137484680D01*
X63193100Y-137424952D01*
X63301761Y-137330798D01*
X63379493Y-137209844D01*
X63403076Y-137129525D01*
X64034925Y-137761373D01*
X64088425Y-137684968D01*
X64143002Y-137641344D01*
X64212501Y-137634151D01*
X64274855Y-137665673D01*
X64291576Y-137684969D01*
X64345073Y-137761372D01*
X64976922Y-137129523D01*
X65000507Y-137209844D01*
X65078239Y-137330798D01*
X65186900Y-137424952D01*
X65317685Y-137484680D01*
X65327466Y-137486086D01*
X64698625Y-138114925D01*
X64782421Y-138173599D01*
X64996507Y-138273429D01*
X64996516Y-138273433D01*
X65224673Y-138334567D01*
X65224684Y-138334569D01*
X65459998Y-138355157D01*
X65460002Y-138355157D01*
X65695315Y-138334569D01*
X65695326Y-138334567D01*
X65923483Y-138273433D01*
X65923492Y-138273429D01*
X66137578Y-138173600D01*
X66137582Y-138173598D01*
X66221373Y-138114926D01*
X66221373Y-138114925D01*
X65592533Y-137486086D01*
X65602315Y-137484680D01*
X65733100Y-137424952D01*
X65841761Y-137330798D01*
X65919493Y-137209844D01*
X65943076Y-137129524D01*
X66574925Y-137761373D01*
X66624868Y-137690048D01*
X66679445Y-137646424D01*
X66748944Y-137639231D01*
X66811298Y-137670753D01*
X66830251Y-137693350D01*
X66924276Y-137837265D01*
X66924284Y-137837276D01*
X67076756Y-138002902D01*
X67076760Y-138002906D01*
X67254424Y-138141189D01*
X67254425Y-138141189D01*
X67254427Y-138141191D01*
X67314314Y-138173600D01*
X67452426Y-138248342D01*
X67665365Y-138321444D01*
X67887431Y-138358500D01*
X68112569Y-138358500D01*
X68334630Y-138321445D01*
X68334631Y-138321444D01*
X68334635Y-138321444D01*
X68334637Y-138321442D01*
X68338849Y-138320376D01*
X68408669Y-138322988D01*
X68456990Y-138352894D01*
X73732538Y-143628443D01*
X78992912Y-148888817D01*
X79002816Y-148901178D01*
X79003026Y-148901005D01*
X79007997Y-148907013D01*
X79008000Y-148907018D01*
X79058418Y-148954363D01*
X79059727Y-148955632D01*
X79069992Y-148965897D01*
X79080225Y-148976131D01*
X79085813Y-148980466D01*
X79090245Y-148984252D01*
X79116702Y-149009095D01*
X79124680Y-149016587D01*
X79142562Y-149026417D01*
X79158829Y-149037102D01*
X79174960Y-149049615D01*
X79196838Y-149059081D01*
X79218307Y-149068371D01*
X79223533Y-149070931D01*
X79264940Y-149093695D01*
X79284716Y-149098772D01*
X79303124Y-149105075D01*
X79321850Y-149113179D01*
X79321852Y-149113180D01*
X79321853Y-149113180D01*
X79321855Y-149113181D01*
X79362784Y-149119663D01*
X79368503Y-149120569D01*
X79374212Y-149121751D01*
X79419970Y-149133500D01*
X79440384Y-149133500D01*
X79459783Y-149135027D01*
X79479943Y-149138220D01*
X79526965Y-149133775D01*
X79532804Y-149133500D01*
X79567500Y-149133500D01*
X79634539Y-149153185D01*
X79680294Y-149205989D01*
X79691500Y-149257500D01*
X79691500Y-149348654D01*
X79698011Y-149409202D01*
X79698011Y-149409204D01*
X79738452Y-149517626D01*
X79749111Y-149546204D01*
X79836739Y-149663261D01*
X79953796Y-149750889D01*
X80090799Y-149801989D01*
X80118050Y-149804918D01*
X80151345Y-149808499D01*
X80151360Y-149808499D01*
X80151362Y-149808500D01*
X80151364Y-149808500D01*
X80154669Y-149808677D01*
X80154659Y-149808855D01*
X80154665Y-149808856D01*
X80154653Y-149808959D01*
X80154591Y-149810128D01*
X80216084Y-149828185D01*
X80261839Y-149880989D01*
X80267518Y-149913965D01*
X80955600Y-150602046D01*
X80874852Y-150614835D01*
X80761955Y-150672359D01*
X80672359Y-150761955D01*
X80614835Y-150874852D01*
X80602046Y-150955599D01*
X79920973Y-150274526D01*
X79920972Y-150274527D01*
X79869868Y-150347513D01*
X79773734Y-150553673D01*
X79773730Y-150553682D01*
X79714860Y-150773389D01*
X79714858Y-150773400D01*
X79695034Y-150999997D01*
X79695034Y-151000002D01*
X79714858Y-151226599D01*
X79714860Y-151226610D01*
X79773730Y-151446317D01*
X79773734Y-151446326D01*
X79869865Y-151652481D01*
X79869866Y-151652483D01*
X79920973Y-151725471D01*
X79920974Y-151725472D01*
X80602046Y-151044399D01*
X80614835Y-151125148D01*
X80672359Y-151238045D01*
X80761955Y-151327641D01*
X80874852Y-151385165D01*
X80955599Y-151397953D01*
X80274526Y-152079025D01*
X80274526Y-152079026D01*
X80347512Y-152130131D01*
X80347516Y-152130133D01*
X80553673Y-152226265D01*
X80553682Y-152226269D01*
X80773389Y-152285139D01*
X80773400Y-152285141D01*
X80999998Y-152304966D01*
X81000002Y-152304966D01*
X81226599Y-152285141D01*
X81226610Y-152285139D01*
X81446317Y-152226269D01*
X81446331Y-152226264D01*
X81652478Y-152130136D01*
X81725472Y-152079025D01*
X81044401Y-151397953D01*
X81125148Y-151385165D01*
X81238045Y-151327641D01*
X81327641Y-151238045D01*
X81385165Y-151125148D01*
X81397953Y-151044400D01*
X82079025Y-151725472D01*
X82130136Y-151652478D01*
X82226264Y-151446331D01*
X82226269Y-151446317D01*
X82285139Y-151226610D01*
X82285141Y-151226599D01*
X82304966Y-151000002D01*
X82304966Y-150999997D01*
X82285141Y-150773400D01*
X82285139Y-150773389D01*
X82226269Y-150553682D01*
X82226265Y-150553673D01*
X82130133Y-150347516D01*
X82130131Y-150347512D01*
X82079026Y-150274526D01*
X82079025Y-150274526D01*
X81397953Y-150955598D01*
X81385165Y-150874852D01*
X81327641Y-150761955D01*
X81238045Y-150672359D01*
X81125148Y-150614835D01*
X81044400Y-150602046D01*
X81733534Y-149912911D01*
X81741192Y-149874809D01*
X81789807Y-149824625D01*
X81845399Y-149809964D01*
X81845346Y-149808959D01*
X81845335Y-149808856D01*
X81845340Y-149808855D01*
X81845331Y-149808677D01*
X81848635Y-149808500D01*
X81848638Y-149808500D01*
X81848640Y-149808499D01*
X81848654Y-149808499D01*
X81875692Y-149805591D01*
X81909201Y-149801989D01*
X82046204Y-149750889D01*
X82163261Y-149663261D01*
X82250889Y-149546204D01*
X82301989Y-149409201D01*
X82307831Y-149354863D01*
X82308499Y-149348654D01*
X82308500Y-149348637D01*
X82308500Y-147651362D01*
X82308499Y-147651345D01*
X82305113Y-147619855D01*
X82301989Y-147590799D01*
X82299812Y-147584963D01*
X82278051Y-147526620D01*
X82250889Y-147453796D01*
X82163261Y-147336739D01*
X82046204Y-147249111D01*
X82033316Y-147244304D01*
X81909203Y-147198011D01*
X81848654Y-147191500D01*
X81848638Y-147191500D01*
X80151362Y-147191500D01*
X80151345Y-147191500D01*
X80090797Y-147198011D01*
X80090795Y-147198011D01*
X79953795Y-147249111D01*
X79836739Y-147336739D01*
X79749111Y-147453795D01*
X79708035Y-147563922D01*
X79666163Y-147619855D01*
X79600699Y-147644271D01*
X79532426Y-147629419D01*
X79504173Y-147608268D01*
X72671405Y-140775500D01*
X91336496Y-140775500D01*
X91356458Y-140965428D01*
X91356459Y-140965431D01*
X91415470Y-141147049D01*
X91415473Y-141147056D01*
X91509590Y-141310072D01*
X91510960Y-141312444D01*
X91584649Y-141394284D01*
X91614880Y-141457275D01*
X91616500Y-141477256D01*
X91616500Y-151486366D01*
X91614761Y-151502113D01*
X91615032Y-151502139D01*
X91614297Y-151509906D01*
X91616469Y-151578990D01*
X91616500Y-151580938D01*
X91616500Y-151609859D01*
X91617384Y-151616856D01*
X91617842Y-151622679D01*
X91619326Y-151669889D01*
X91619327Y-151669891D01*
X91625022Y-151689495D01*
X91628967Y-151708542D01*
X91631526Y-151728797D01*
X91631527Y-151728800D01*
X91631528Y-151728803D01*
X91648914Y-151772716D01*
X91650806Y-151778244D01*
X91663981Y-151823592D01*
X91674372Y-151841162D01*
X91682932Y-151858635D01*
X91690447Y-151877617D01*
X91718209Y-151915827D01*
X91721416Y-151920710D01*
X91724816Y-151926458D01*
X91741821Y-151955213D01*
X91745458Y-151961362D01*
X91745462Y-151961366D01*
X91759889Y-151975793D01*
X91772526Y-151990588D01*
X91784528Y-152007107D01*
X91820931Y-152037222D01*
X91825231Y-152041135D01*
X92390439Y-152606343D01*
X92955181Y-153171085D01*
X92988666Y-153232408D01*
X92991500Y-153258766D01*
X92991500Y-154868654D01*
X92998011Y-154929202D01*
X92998011Y-154929204D01*
X93034189Y-155026198D01*
X93049111Y-155066204D01*
X93136739Y-155183261D01*
X93253796Y-155270889D01*
X93390799Y-155321989D01*
X93418050Y-155324918D01*
X93451345Y-155328499D01*
X93451362Y-155328500D01*
X95148638Y-155328500D01*
X95148654Y-155328499D01*
X95175692Y-155325591D01*
X95209201Y-155321989D01*
X95346204Y-155270889D01*
X95463261Y-155183261D01*
X95550889Y-155066204D01*
X95601989Y-154929201D01*
X95603569Y-154914500D01*
X95630304Y-154849952D01*
X95687695Y-154810102D01*
X95757521Y-154807606D01*
X95817611Y-154843257D01*
X95828428Y-154856626D01*
X95833802Y-154864300D01*
X95995700Y-155026198D01*
X96153625Y-155136779D01*
X96197249Y-155191354D01*
X96206500Y-155238352D01*
X96206500Y-163506366D01*
X96204761Y-163522113D01*
X96205032Y-163522139D01*
X96204297Y-163529906D01*
X96206469Y-163598990D01*
X96206500Y-163600938D01*
X96206500Y-163629859D01*
X96207384Y-163636856D01*
X96207842Y-163642679D01*
X96209326Y-163689889D01*
X96209327Y-163689891D01*
X96215022Y-163709495D01*
X96218967Y-163728542D01*
X96221526Y-163748797D01*
X96221527Y-163748800D01*
X96221528Y-163748803D01*
X96238914Y-163792716D01*
X96240806Y-163798244D01*
X96253981Y-163843592D01*
X96264372Y-163861162D01*
X96272932Y-163878635D01*
X96280447Y-163897617D01*
X96308209Y-163935827D01*
X96311416Y-163940710D01*
X96335458Y-163981362D01*
X96335462Y-163981366D01*
X96349889Y-163995793D01*
X96362526Y-164010588D01*
X96374528Y-164027107D01*
X96410931Y-164057222D01*
X96415231Y-164061135D01*
X97467768Y-165113673D01*
X97803379Y-165449284D01*
X97836864Y-165510607D01*
X97839018Y-165523999D01*
X97856458Y-165689928D01*
X97856459Y-165689931D01*
X97915470Y-165871549D01*
X97915473Y-165871556D01*
X98010960Y-166036944D01*
X98138747Y-166178866D01*
X98293248Y-166291118D01*
X98467712Y-166368794D01*
X98654513Y-166408500D01*
X98845487Y-166408500D01*
X99032288Y-166368794D01*
X99206752Y-166291118D01*
X99361253Y-166178866D01*
X99489040Y-166036944D01*
X99584527Y-165871556D01*
X99643542Y-165689928D01*
X99663504Y-165500000D01*
X99643542Y-165310072D01*
X99585720Y-165132115D01*
X99584529Y-165128450D01*
X99584528Y-165128449D01*
X99584527Y-165128444D01*
X99489040Y-164963056D01*
X99361253Y-164821134D01*
X99216333Y-164715843D01*
X99173669Y-164660514D01*
X99167690Y-164590900D01*
X99181833Y-164553526D01*
X99221826Y-164484257D01*
X99280841Y-164302629D01*
X99300803Y-164112701D01*
X99280841Y-163922773D01*
X99221826Y-163741145D01*
X99126339Y-163575757D01*
X98998552Y-163433835D01*
X98844051Y-163321583D01*
X98669587Y-163243907D01*
X98669585Y-163243906D01*
X98482786Y-163204201D01*
X98291812Y-163204201D01*
X98291811Y-163204201D01*
X98105875Y-163243722D01*
X98036208Y-163238406D01*
X97992414Y-163210113D01*
X97959819Y-163177518D01*
X97926334Y-163116195D01*
X97923500Y-163089837D01*
X97923500Y-157500002D01*
X103695034Y-157500002D01*
X103714858Y-157726599D01*
X103714860Y-157726610D01*
X103773730Y-157946317D01*
X103773734Y-157946326D01*
X103869865Y-158152481D01*
X103869866Y-158152483D01*
X103920973Y-158225471D01*
X103920974Y-158225472D01*
X104602046Y-157544399D01*
X104614835Y-157625148D01*
X104672359Y-157738045D01*
X104761955Y-157827641D01*
X104874852Y-157885165D01*
X104955599Y-157897953D01*
X104274526Y-158579025D01*
X104274526Y-158579026D01*
X104347512Y-158630131D01*
X104347516Y-158630133D01*
X104553673Y-158726265D01*
X104553682Y-158726269D01*
X104773389Y-158785139D01*
X104773400Y-158785141D01*
X104999998Y-158804966D01*
X105000002Y-158804966D01*
X105226599Y-158785141D01*
X105226610Y-158785139D01*
X105446317Y-158726269D01*
X105446331Y-158726264D01*
X105652478Y-158630136D01*
X105725472Y-158579025D01*
X105044401Y-157897953D01*
X105125148Y-157885165D01*
X105238045Y-157827641D01*
X105327641Y-157738045D01*
X105385165Y-157625148D01*
X105397953Y-157544400D01*
X106079025Y-158225472D01*
X106130136Y-158152478D01*
X106226264Y-157946331D01*
X106226269Y-157946317D01*
X106285139Y-157726610D01*
X106285141Y-157726599D01*
X106304966Y-157500002D01*
X106304966Y-157499997D01*
X106285141Y-157273400D01*
X106285139Y-157273389D01*
X106226269Y-157053682D01*
X106226265Y-157053673D01*
X106130133Y-156847516D01*
X106130131Y-156847512D01*
X106079026Y-156774526D01*
X106079025Y-156774526D01*
X105397953Y-157455598D01*
X105385165Y-157374852D01*
X105327641Y-157261955D01*
X105238045Y-157172359D01*
X105125148Y-157114835D01*
X105044400Y-157102046D01*
X105725472Y-156420974D01*
X105725471Y-156420973D01*
X105652483Y-156369866D01*
X105652481Y-156369865D01*
X105446326Y-156273734D01*
X105446317Y-156273730D01*
X105226610Y-156214860D01*
X105226599Y-156214858D01*
X105000002Y-156195034D01*
X104999998Y-156195034D01*
X104773400Y-156214858D01*
X104773389Y-156214860D01*
X104553682Y-156273730D01*
X104553673Y-156273734D01*
X104347513Y-156369868D01*
X104274527Y-156420972D01*
X104274526Y-156420973D01*
X104955600Y-157102046D01*
X104874852Y-157114835D01*
X104761955Y-157172359D01*
X104672359Y-157261955D01*
X104614835Y-157374852D01*
X104602046Y-157455599D01*
X103920973Y-156774526D01*
X103920972Y-156774527D01*
X103869868Y-156847513D01*
X103773734Y-157053673D01*
X103773730Y-157053682D01*
X103714860Y-157273389D01*
X103714858Y-157273400D01*
X103695034Y-157499997D01*
X103695034Y-157500002D01*
X97923500Y-157500002D01*
X97923500Y-156023765D01*
X97943185Y-155956726D01*
X97959815Y-155936088D01*
X98672174Y-155223728D01*
X98733497Y-155190244D01*
X98803189Y-155195228D01*
X98812259Y-155199028D01*
X98930750Y-155254281D01*
X98930752Y-155254281D01*
X98930757Y-155254284D01*
X99151913Y-155313543D01*
X99314832Y-155327796D01*
X99379998Y-155333498D01*
X99380000Y-155333498D01*
X99380002Y-155333498D01*
X99437139Y-155328499D01*
X99608087Y-155313543D01*
X99829243Y-155254284D01*
X100036749Y-155157523D01*
X100224300Y-155026198D01*
X100386198Y-154864300D01*
X100517523Y-154676749D01*
X100537617Y-154633655D01*
X100583790Y-154581215D01*
X100650983Y-154562063D01*
X100717864Y-154582278D01*
X100762382Y-154633655D01*
X100782477Y-154676749D01*
X100913802Y-154864300D01*
X101075700Y-155026198D01*
X101263251Y-155157523D01*
X101384770Y-155214188D01*
X101470750Y-155254281D01*
X101470752Y-155254281D01*
X101470757Y-155254284D01*
X101691913Y-155313543D01*
X101854832Y-155327796D01*
X101919998Y-155333498D01*
X101920000Y-155333498D01*
X101920002Y-155333498D01*
X101977139Y-155328499D01*
X102148087Y-155313543D01*
X102369243Y-155254284D01*
X102576749Y-155157523D01*
X102764300Y-155026198D01*
X102926198Y-154864300D01*
X103057523Y-154676749D01*
X103077617Y-154633655D01*
X103123790Y-154581215D01*
X103190983Y-154562063D01*
X103257864Y-154582278D01*
X103302382Y-154633655D01*
X103322477Y-154676749D01*
X103453802Y-154864300D01*
X103615700Y-155026198D01*
X103803251Y-155157523D01*
X103924770Y-155214188D01*
X104010750Y-155254281D01*
X104010752Y-155254281D01*
X104010757Y-155254284D01*
X104231913Y-155313543D01*
X104394832Y-155327796D01*
X104459998Y-155333498D01*
X104460000Y-155333498D01*
X104460002Y-155333498D01*
X104517139Y-155328499D01*
X104688087Y-155313543D01*
X104909243Y-155254284D01*
X105116749Y-155157523D01*
X105304300Y-155026198D01*
X105466198Y-154864300D01*
X105597523Y-154676749D01*
X105617617Y-154633655D01*
X105663790Y-154581215D01*
X105730983Y-154562063D01*
X105797864Y-154582278D01*
X105842382Y-154633655D01*
X105862477Y-154676749D01*
X105993802Y-154864300D01*
X106155700Y-155026198D01*
X106343251Y-155157523D01*
X106464770Y-155214188D01*
X106550750Y-155254281D01*
X106550752Y-155254281D01*
X106550757Y-155254284D01*
X106550762Y-155254285D01*
X106550764Y-155254286D01*
X106557328Y-155256045D01*
X106616989Y-155292410D01*
X106647518Y-155355256D01*
X106648638Y-155387973D01*
X106636620Y-155510000D01*
X106641201Y-155556517D01*
X106641500Y-155562597D01*
X106641500Y-166597401D01*
X106641201Y-166603481D01*
X106636620Y-166649999D01*
X106656091Y-166847703D01*
X106686425Y-166947699D01*
X106686425Y-166947700D01*
X106713759Y-167037805D01*
X106807401Y-167212998D01*
X106807405Y-167213005D01*
X106933430Y-167366567D01*
X106969566Y-167396222D01*
X106974067Y-167400301D01*
X107036816Y-167463050D01*
X107071918Y-167498152D01*
X107186994Y-167592594D01*
X107187001Y-167592598D01*
X107362191Y-167686239D01*
X107362193Y-167686239D01*
X107362196Y-167686241D01*
X107552299Y-167743908D01*
X107552298Y-167743908D01*
X107571770Y-167745825D01*
X107750000Y-167763380D01*
X107947700Y-167743908D01*
X108137803Y-167686241D01*
X108313003Y-167592595D01*
X108466568Y-167466568D01*
X108592595Y-167313003D01*
X108686241Y-167137803D01*
X108743908Y-166947700D01*
X108763380Y-166750000D01*
X108743908Y-166552299D01*
X108686241Y-166362196D01*
X108673141Y-166337688D01*
X108658500Y-166279238D01*
X108658500Y-163096191D01*
X108678184Y-163029156D01*
X108730988Y-162983401D01*
X108800146Y-162973457D01*
X108814586Y-162976418D01*
X108880629Y-162994115D01*
X109037322Y-163007823D01*
X109099998Y-163013307D01*
X109100000Y-163013307D01*
X109100002Y-163013307D01*
X109154842Y-163008508D01*
X109319371Y-162994115D01*
X109532076Y-162937120D01*
X109731654Y-162844056D01*
X109912038Y-162717749D01*
X110067749Y-162562038D01*
X110194056Y-162381654D01*
X110287120Y-162182076D01*
X110344115Y-161969371D01*
X110363307Y-161750000D01*
X110344115Y-161530629D01*
X110335417Y-161498168D01*
X110337078Y-161428319D01*
X110367508Y-161378394D01*
X110388815Y-161357087D01*
X110401180Y-161347183D01*
X110401006Y-161346973D01*
X110407014Y-161342002D01*
X110407018Y-161342000D01*
X110454393Y-161291549D01*
X110455665Y-161290237D01*
X110476134Y-161269770D01*
X110480463Y-161264187D01*
X110484242Y-161259763D01*
X110516586Y-161225321D01*
X110526423Y-161207424D01*
X110537097Y-161191174D01*
X110549613Y-161175041D01*
X110568372Y-161131689D01*
X110570933Y-161126462D01*
X110593695Y-161085060D01*
X110598774Y-161065274D01*
X110605072Y-161046882D01*
X110613181Y-161028145D01*
X110620569Y-160981497D01*
X110621751Y-160975786D01*
X110633500Y-160930030D01*
X110633500Y-160909613D01*
X110635026Y-160890219D01*
X110638220Y-160870057D01*
X110633773Y-160823023D01*
X110633499Y-160817202D01*
X110633499Y-158718353D01*
X110653184Y-158651314D01*
X110686373Y-158616779D01*
X110844300Y-158506198D01*
X111006198Y-158344300D01*
X111116779Y-158186374D01*
X111171354Y-158142751D01*
X111218352Y-158133500D01*
X111575375Y-158133500D01*
X111591122Y-158135238D01*
X111591148Y-158134968D01*
X111598915Y-158135702D01*
X111598917Y-158135701D01*
X111598918Y-158135702D01*
X111608268Y-158135408D01*
X111668000Y-158133531D01*
X111669948Y-158133500D01*
X111698866Y-158133500D01*
X111700231Y-158133327D01*
X111705871Y-158132614D01*
X111711694Y-158132156D01*
X111737717Y-158131338D01*
X111758899Y-158130673D01*
X111768690Y-158127827D01*
X111778490Y-158124980D01*
X111797547Y-158121032D01*
X111817806Y-158118474D01*
X111861730Y-158101082D01*
X111867230Y-158099199D01*
X111912602Y-158086018D01*
X111925707Y-158078267D01*
X111993428Y-158061082D01*
X112059691Y-158083238D01*
X112101211Y-158132590D01*
X112112477Y-158156749D01*
X112243802Y-158344300D01*
X112405700Y-158506198D01*
X112563625Y-158616779D01*
X112607249Y-158671354D01*
X112616500Y-158718352D01*
X112616500Y-160916366D01*
X112614761Y-160932113D01*
X112615032Y-160932139D01*
X112614297Y-160939906D01*
X112616469Y-161008990D01*
X112616500Y-161010938D01*
X112616500Y-161039859D01*
X112617384Y-161046856D01*
X112617842Y-161052679D01*
X112619326Y-161099889D01*
X112619327Y-161099891D01*
X112625022Y-161119495D01*
X112628967Y-161138542D01*
X112631526Y-161158797D01*
X112631527Y-161158800D01*
X112631528Y-161158803D01*
X112648914Y-161202716D01*
X112650806Y-161208244D01*
X112663981Y-161253592D01*
X112674372Y-161271162D01*
X112682932Y-161288635D01*
X112690447Y-161307617D01*
X112718209Y-161345827D01*
X112721418Y-161350712D01*
X112749429Y-161398077D01*
X112747445Y-161399249D01*
X112768750Y-161453498D01*
X112765012Y-161496564D01*
X112755887Y-161530620D01*
X112755884Y-161530634D01*
X112736693Y-161749997D01*
X112736693Y-161750000D01*
X112755885Y-161969371D01*
X112812880Y-162182076D01*
X112905944Y-162381654D01*
X113032251Y-162562038D01*
X113187962Y-162717749D01*
X113368346Y-162844056D01*
X113567924Y-162937120D01*
X113780629Y-162994115D01*
X113937322Y-163007823D01*
X113999998Y-163013307D01*
X114000000Y-163013307D01*
X114000002Y-163013307D01*
X114054842Y-163008508D01*
X114219371Y-162994115D01*
X114432076Y-162937120D01*
X114631654Y-162844056D01*
X114812038Y-162717749D01*
X114967749Y-162562038D01*
X115094056Y-162381654D01*
X115187120Y-162182076D01*
X115244115Y-161969371D01*
X115263307Y-161750000D01*
X115244115Y-161530629D01*
X115187120Y-161317924D01*
X115094056Y-161118347D01*
X115094054Y-161118344D01*
X115094053Y-161118342D01*
X115017483Y-161008990D01*
X114967749Y-160937962D01*
X114812038Y-160782251D01*
X114631654Y-160655944D01*
X114631650Y-160655942D01*
X114432081Y-160562882D01*
X114432079Y-160562881D01*
X114432076Y-160562880D01*
X114266499Y-160518513D01*
X114219372Y-160505885D01*
X114219365Y-160505884D01*
X113996692Y-160486403D01*
X113931623Y-160460951D01*
X113890644Y-160404360D01*
X113883499Y-160362880D01*
X113883499Y-158718352D01*
X113903184Y-158651314D01*
X113936373Y-158616779D01*
X114094300Y-158506198D01*
X114256198Y-158344300D01*
X114387523Y-158156749D01*
X114484284Y-157949243D01*
X114543543Y-157728087D01*
X114561086Y-157527567D01*
X114563498Y-157500001D01*
X114563498Y-157499998D01*
X114553451Y-157385165D01*
X114543543Y-157271913D01*
X114526240Y-157207341D01*
X114527904Y-157137491D01*
X114558333Y-157087569D01*
X116431716Y-155214186D01*
X116493037Y-155180703D01*
X116562729Y-155185687D01*
X116571784Y-155189480D01*
X116710757Y-155254284D01*
X116931913Y-155313543D01*
X117094832Y-155327796D01*
X117159998Y-155333498D01*
X117160000Y-155333498D01*
X117160002Y-155333498D01*
X117217139Y-155328499D01*
X117388087Y-155313543D01*
X117609243Y-155254284D01*
X117816749Y-155157523D01*
X118004300Y-155026198D01*
X118024120Y-155006377D01*
X118085444Y-154972892D01*
X118155136Y-154977876D01*
X118199483Y-155006377D01*
X118830180Y-155637074D01*
X118863665Y-155698397D01*
X118866499Y-155724755D01*
X118866499Y-156158581D01*
X118846814Y-156225620D01*
X118794010Y-156271375D01*
X118724852Y-156281319D01*
X118700083Y-156275101D01*
X118696321Y-156273731D01*
X118476610Y-156214860D01*
X118476599Y-156214858D01*
X118250002Y-156195034D01*
X118249998Y-156195034D01*
X118023400Y-156214858D01*
X118023389Y-156214860D01*
X117803682Y-156273730D01*
X117803673Y-156273734D01*
X117597513Y-156369868D01*
X117524526Y-156420973D01*
X118205599Y-157102046D01*
X118124852Y-157114835D01*
X118011955Y-157172359D01*
X117922359Y-157261955D01*
X117864835Y-157374852D01*
X117852046Y-157455599D01*
X117170973Y-156774526D01*
X117170972Y-156774527D01*
X117119868Y-156847513D01*
X117023734Y-157053673D01*
X117023730Y-157053682D01*
X116964860Y-157273389D01*
X116964858Y-157273400D01*
X116945034Y-157499997D01*
X116945034Y-157500002D01*
X116964858Y-157726599D01*
X116964860Y-157726610D01*
X117023730Y-157946317D01*
X117023734Y-157946326D01*
X117119865Y-158152481D01*
X117119866Y-158152483D01*
X117170973Y-158225471D01*
X117170974Y-158225472D01*
X117852046Y-157544399D01*
X117864835Y-157625148D01*
X117922359Y-157738045D01*
X118011955Y-157827641D01*
X118124852Y-157885165D01*
X118205597Y-157897953D01*
X117524526Y-158579025D01*
X117524526Y-158579026D01*
X117597512Y-158630131D01*
X117597516Y-158630133D01*
X117803673Y-158726265D01*
X117803682Y-158726269D01*
X118023389Y-158785139D01*
X118023400Y-158785141D01*
X118249998Y-158804966D01*
X118250002Y-158804966D01*
X118476599Y-158785141D01*
X118476610Y-158785139D01*
X118696311Y-158726270D01*
X118700071Y-158724902D01*
X118769799Y-158720461D01*
X118830860Y-158754422D01*
X118863867Y-158816004D01*
X118866499Y-158841418D01*
X118866499Y-167298242D01*
X118846814Y-167365281D01*
X118834650Y-167381213D01*
X118760961Y-167463054D01*
X118760957Y-167463059D01*
X118665473Y-167628443D01*
X118665470Y-167628450D01*
X118608082Y-167805073D01*
X118606458Y-167810072D01*
X118586496Y-168000000D01*
X118606458Y-168189928D01*
X118606459Y-168189931D01*
X118665470Y-168371549D01*
X118665473Y-168371556D01*
X118760960Y-168536944D01*
X118888747Y-168678866D01*
X119043248Y-168791118D01*
X119217712Y-168868794D01*
X119404513Y-168908500D01*
X119595487Y-168908500D01*
X119782288Y-168868794D01*
X119956752Y-168791118D01*
X120111253Y-168678866D01*
X120239040Y-168536944D01*
X120334527Y-168371556D01*
X120393542Y-168189928D01*
X120396740Y-168159500D01*
X136586496Y-168159500D01*
X136606458Y-168349428D01*
X136606459Y-168349431D01*
X136665470Y-168531049D01*
X136665473Y-168531056D01*
X136760960Y-168696444D01*
X136888747Y-168838366D01*
X136987888Y-168910396D01*
X137030551Y-168965722D01*
X137039000Y-169010711D01*
X137039000Y-178243866D01*
X137037261Y-178259613D01*
X137037532Y-178259639D01*
X137036797Y-178267406D01*
X137038969Y-178336490D01*
X137039000Y-178338438D01*
X137039000Y-178367359D01*
X137039884Y-178374356D01*
X137040342Y-178380179D01*
X137041826Y-178427389D01*
X137041827Y-178427391D01*
X137047522Y-178446995D01*
X137051467Y-178466042D01*
X137054026Y-178486297D01*
X137054027Y-178486300D01*
X137054028Y-178486303D01*
X137071414Y-178530216D01*
X137073306Y-178535744D01*
X137086481Y-178581092D01*
X137096872Y-178598662D01*
X137105432Y-178616135D01*
X137112947Y-178635117D01*
X137140709Y-178673327D01*
X137143916Y-178678210D01*
X137167958Y-178718862D01*
X137167962Y-178718866D01*
X137182389Y-178733293D01*
X137195026Y-178748088D01*
X137207028Y-178764607D01*
X137243431Y-178794722D01*
X137247731Y-178798635D01*
X138045144Y-179596048D01*
X138780104Y-180331008D01*
X138811083Y-180382692D01*
X138815550Y-180397417D01*
X138911297Y-180576546D01*
X138925539Y-180644948D01*
X138911297Y-180693452D01*
X138815553Y-180872575D01*
X138815552Y-180872578D01*
X138756453Y-181067400D01*
X138736499Y-181270000D01*
X138756453Y-181472599D01*
X138756454Y-181472601D01*
X138815550Y-181667417D01*
X138815551Y-181667420D01*
X138815552Y-181667421D01*
X138815553Y-181667424D01*
X138911514Y-181846954D01*
X138911519Y-181846961D01*
X139040668Y-182004331D01*
X139081803Y-182038089D01*
X139198040Y-182133482D01*
X139198043Y-182133483D01*
X139198045Y-182133485D01*
X139377575Y-182229446D01*
X139377576Y-182229446D01*
X139377583Y-182229450D01*
X139572399Y-182288546D01*
X139572398Y-182288546D01*
X139610355Y-182292284D01*
X139724225Y-182303500D01*
X139724228Y-182303500D01*
X140275772Y-182303500D01*
X140275775Y-182303500D01*
X140427601Y-182288546D01*
X140622417Y-182229450D01*
X140801960Y-182133482D01*
X140959331Y-182004331D01*
X141088482Y-181846960D01*
X141108237Y-181810001D01*
X144686502Y-181810001D01*
X144706456Y-182038081D01*
X144706457Y-182038089D01*
X144765714Y-182259238D01*
X144765718Y-182259249D01*
X144786353Y-182303500D01*
X144862477Y-182466749D01*
X144993802Y-182654300D01*
X145155700Y-182816198D01*
X145343251Y-182947523D01*
X145468091Y-183005736D01*
X145550750Y-183044281D01*
X145550752Y-183044281D01*
X145550757Y-183044284D01*
X145771913Y-183103543D01*
X145934832Y-183117796D01*
X145999998Y-183123498D01*
X146000000Y-183123498D01*
X146000002Y-183123498D01*
X146057021Y-183118509D01*
X146228087Y-183103543D01*
X146449243Y-183044284D01*
X146656749Y-182947523D01*
X146844300Y-182816198D01*
X147006198Y-182654300D01*
X147137523Y-182466749D01*
X147234284Y-182259243D01*
X147293543Y-182038087D01*
X147313498Y-181810000D01*
X147293543Y-181581913D01*
X147234284Y-181360757D01*
X147137523Y-181153251D01*
X147006198Y-180965700D01*
X146844300Y-180803802D01*
X146656749Y-180672477D01*
X146656745Y-180672475D01*
X146449249Y-180575718D01*
X146449238Y-180575714D01*
X146228089Y-180516457D01*
X146228081Y-180516456D01*
X146000002Y-180496502D01*
X145999998Y-180496502D01*
X145771918Y-180516456D01*
X145771910Y-180516457D01*
X145550761Y-180575714D01*
X145550750Y-180575718D01*
X145343254Y-180672475D01*
X145343252Y-180672476D01*
X145313293Y-180693454D01*
X145155700Y-180803802D01*
X145155698Y-180803803D01*
X145155695Y-180803806D01*
X144993806Y-180965695D01*
X144862476Y-181153252D01*
X144862475Y-181153254D01*
X144765718Y-181360750D01*
X144765714Y-181360761D01*
X144706457Y-181581910D01*
X144706456Y-181581918D01*
X144686502Y-181809998D01*
X144686502Y-181810001D01*
X141108237Y-181810001D01*
X141184450Y-181667417D01*
X141243546Y-181472601D01*
X141263501Y-181270000D01*
X141243546Y-181067399D01*
X141184450Y-180872583D01*
X141088701Y-180693450D01*
X141074460Y-180625051D01*
X141088700Y-180576551D01*
X141184450Y-180397417D01*
X141243546Y-180202601D01*
X141263501Y-180000000D01*
X141243546Y-179797399D01*
X141184450Y-179602583D01*
X141184448Y-179602580D01*
X141182681Y-179596753D01*
X141185005Y-179596048D01*
X141178674Y-179537219D01*
X141191876Y-179499792D01*
X141193352Y-179497088D01*
X141243597Y-179362376D01*
X141243598Y-179362372D01*
X141249999Y-179302844D01*
X141250000Y-179302827D01*
X141250000Y-178980000D01*
X140415888Y-178980000D01*
X140409807Y-178979701D01*
X140333388Y-178972174D01*
X140290639Y-178967964D01*
X140318278Y-178937941D01*
X140368551Y-178823330D01*
X140378886Y-178698605D01*
X140348163Y-178577281D01*
X140284606Y-178480000D01*
X141250000Y-178480000D01*
X141250000Y-178157172D01*
X141249999Y-178157155D01*
X141243598Y-178097627D01*
X141243596Y-178097620D01*
X141193354Y-177962913D01*
X141193350Y-177962906D01*
X141107190Y-177847812D01*
X141107187Y-177847809D01*
X140992093Y-177761649D01*
X140992086Y-177761645D01*
X140857379Y-177711403D01*
X140857372Y-177711401D01*
X140797844Y-177705000D01*
X140250000Y-177705000D01*
X140250000Y-178449382D01*
X140180948Y-178395637D01*
X140062576Y-178355000D01*
X139968927Y-178355000D01*
X139876554Y-178370414D01*
X139766486Y-178429981D01*
X139750000Y-178447889D01*
X139750000Y-177705000D01*
X139202155Y-177705000D01*
X139142627Y-177711401D01*
X139142620Y-177711403D01*
X139007913Y-177761645D01*
X139007906Y-177761649D01*
X138892812Y-177847809D01*
X138892809Y-177847812D01*
X138806649Y-177962906D01*
X138806645Y-177962913D01*
X138756403Y-178097620D01*
X138756401Y-178097627D01*
X138750000Y-178157155D01*
X138750000Y-178209732D01*
X138730315Y-178276771D01*
X138677511Y-178322526D01*
X138608353Y-178332470D01*
X138544797Y-178303445D01*
X138538319Y-178297413D01*
X138342319Y-178101413D01*
X138308834Y-178040090D01*
X138306000Y-178013732D01*
X138306000Y-174190001D01*
X144686502Y-174190001D01*
X144706456Y-174418081D01*
X144706457Y-174418089D01*
X144765714Y-174639238D01*
X144765718Y-174639249D01*
X144858056Y-174837268D01*
X144862477Y-174846749D01*
X144993802Y-175034300D01*
X145155700Y-175196198D01*
X145343251Y-175327523D01*
X145402513Y-175355157D01*
X145550750Y-175424281D01*
X145550752Y-175424281D01*
X145550757Y-175424284D01*
X145771913Y-175483543D01*
X145934832Y-175497796D01*
X145999998Y-175503498D01*
X146000000Y-175503498D01*
X146000002Y-175503498D01*
X146057021Y-175498509D01*
X146228087Y-175483543D01*
X146449243Y-175424284D01*
X146656749Y-175327523D01*
X146844300Y-175196198D01*
X147006198Y-175034300D01*
X147137523Y-174846749D01*
X147234284Y-174639243D01*
X147293543Y-174418087D01*
X147313498Y-174190000D01*
X147293543Y-173961913D01*
X147234284Y-173740757D01*
X147137523Y-173533251D01*
X147006198Y-173345700D01*
X146844300Y-173183802D01*
X146656749Y-173052477D01*
X146656745Y-173052475D01*
X146449249Y-172955718D01*
X146449238Y-172955714D01*
X146228089Y-172896457D01*
X146228081Y-172896456D01*
X146000002Y-172876502D01*
X145999998Y-172876502D01*
X145771918Y-172896456D01*
X145771910Y-172896457D01*
X145550761Y-172955714D01*
X145550750Y-172955718D01*
X145343254Y-173052475D01*
X145343252Y-173052476D01*
X145343249Y-173052477D01*
X145343251Y-173052477D01*
X145155700Y-173183802D01*
X145155698Y-173183803D01*
X145155695Y-173183806D01*
X144993806Y-173345695D01*
X144862476Y-173533252D01*
X144862475Y-173533254D01*
X144765718Y-173740750D01*
X144765714Y-173740761D01*
X144706457Y-173961910D01*
X144706456Y-173961918D01*
X144686502Y-174189998D01*
X144686502Y-174190001D01*
X138306000Y-174190001D01*
X138306000Y-168613691D01*
X138322613Y-168551691D01*
X138334527Y-168531056D01*
X138393542Y-168349428D01*
X138413504Y-168159500D01*
X138393542Y-167969572D01*
X138334527Y-167787944D01*
X138239040Y-167622556D01*
X138111253Y-167480634D01*
X137956752Y-167368382D01*
X137782288Y-167290706D01*
X137782286Y-167290705D01*
X137595487Y-167251000D01*
X137404513Y-167251000D01*
X137217714Y-167290705D01*
X137217711Y-167290706D01*
X137217712Y-167290706D01*
X137047323Y-167366568D01*
X137043246Y-167368383D01*
X136888745Y-167480635D01*
X136760959Y-167622557D01*
X136665473Y-167787943D01*
X136665470Y-167787950D01*
X136623509Y-167917094D01*
X136606458Y-167969572D01*
X136586496Y-168159500D01*
X120396740Y-168159500D01*
X120413504Y-168000000D01*
X120393542Y-167810072D01*
X120334527Y-167628444D01*
X120284008Y-167540943D01*
X120239041Y-167463057D01*
X120239036Y-167463050D01*
X120165349Y-167381213D01*
X120135119Y-167318222D01*
X120133499Y-167298253D01*
X120133499Y-165309999D01*
X123221127Y-165309999D01*
X123221128Y-165310000D01*
X124184314Y-165310000D01*
X124172359Y-165321955D01*
X124114835Y-165434852D01*
X124095014Y-165560000D01*
X124114835Y-165685148D01*
X124172359Y-165798045D01*
X124184314Y-165810000D01*
X123221128Y-165810000D01*
X123273730Y-166006317D01*
X123273734Y-166006326D01*
X123369865Y-166212482D01*
X123500342Y-166398820D01*
X123661179Y-166559657D01*
X123847517Y-166690134D01*
X124053673Y-166786265D01*
X124053682Y-166786269D01*
X124249999Y-166838872D01*
X124250000Y-166838871D01*
X124250000Y-165875686D01*
X124261955Y-165887641D01*
X124374852Y-165945165D01*
X124468519Y-165960000D01*
X124531481Y-165960000D01*
X124625148Y-165945165D01*
X124738045Y-165887641D01*
X124750000Y-165875686D01*
X124750000Y-166838872D01*
X124946317Y-166786269D01*
X124946326Y-166786265D01*
X125152482Y-166690134D01*
X125338820Y-166559657D01*
X125499657Y-166398820D01*
X125630134Y-166212482D01*
X125726265Y-166006326D01*
X125726269Y-166006317D01*
X125778872Y-165810000D01*
X124815686Y-165810000D01*
X124827641Y-165798045D01*
X124885165Y-165685148D01*
X124904986Y-165560000D01*
X124885165Y-165434852D01*
X124827641Y-165321955D01*
X124815686Y-165310000D01*
X125778872Y-165310000D01*
X125778872Y-165309999D01*
X126221127Y-165309999D01*
X126221128Y-165310000D01*
X127184314Y-165310000D01*
X127172359Y-165321955D01*
X127114835Y-165434852D01*
X127095014Y-165560000D01*
X127114835Y-165685148D01*
X127172359Y-165798045D01*
X127184314Y-165810000D01*
X126221128Y-165810000D01*
X126273730Y-166006317D01*
X126273734Y-166006326D01*
X126369865Y-166212482D01*
X126500342Y-166398820D01*
X126661179Y-166559657D01*
X126847517Y-166690134D01*
X127053673Y-166786265D01*
X127053682Y-166786269D01*
X127249999Y-166838872D01*
X127250000Y-166838871D01*
X127250000Y-165875686D01*
X127261955Y-165887641D01*
X127374852Y-165945165D01*
X127468519Y-165960000D01*
X127531481Y-165960000D01*
X127625148Y-165945165D01*
X127738045Y-165887641D01*
X127750000Y-165875686D01*
X127750000Y-166838872D01*
X127946317Y-166786269D01*
X127946326Y-166786265D01*
X128152482Y-166690134D01*
X128338820Y-166559657D01*
X128499657Y-166398820D01*
X128630134Y-166212482D01*
X128726265Y-166006326D01*
X128726269Y-166006317D01*
X128778872Y-165810000D01*
X127815686Y-165810000D01*
X127827641Y-165798045D01*
X127885165Y-165685148D01*
X127904986Y-165560000D01*
X127885165Y-165434852D01*
X127827641Y-165321955D01*
X127815686Y-165310000D01*
X128778872Y-165310000D01*
X128778872Y-165309999D01*
X129221127Y-165309999D01*
X129221128Y-165310000D01*
X130184314Y-165310000D01*
X130172359Y-165321955D01*
X130114835Y-165434852D01*
X130095014Y-165560000D01*
X130114835Y-165685148D01*
X130172359Y-165798045D01*
X130184314Y-165810000D01*
X129221128Y-165810000D01*
X129273730Y-166006317D01*
X129273734Y-166006326D01*
X129369865Y-166212482D01*
X129500342Y-166398820D01*
X129661179Y-166559657D01*
X129847517Y-166690134D01*
X130053673Y-166786265D01*
X130053682Y-166786269D01*
X130249999Y-166838872D01*
X130250000Y-166838871D01*
X130250000Y-165875685D01*
X130261955Y-165887641D01*
X130374852Y-165945165D01*
X130468519Y-165960000D01*
X130531481Y-165960000D01*
X130625148Y-165945165D01*
X130738045Y-165887641D01*
X130750000Y-165875686D01*
X130750000Y-166838872D01*
X130946317Y-166786269D01*
X130946326Y-166786265D01*
X131152482Y-166690134D01*
X131338820Y-166559657D01*
X131499657Y-166398820D01*
X131630134Y-166212482D01*
X131726265Y-166006326D01*
X131726269Y-166006317D01*
X131778872Y-165810000D01*
X130815686Y-165810000D01*
X130827641Y-165798045D01*
X130885165Y-165685148D01*
X130904986Y-165560000D01*
X130885165Y-165434852D01*
X130827641Y-165321955D01*
X130815686Y-165310000D01*
X131778872Y-165310000D01*
X131778872Y-165309999D01*
X131726269Y-165113682D01*
X131726265Y-165113673D01*
X131630134Y-164907517D01*
X131499657Y-164721179D01*
X131338820Y-164560342D01*
X131152482Y-164429865D01*
X130946328Y-164333734D01*
X130750000Y-164281127D01*
X130750000Y-165244314D01*
X130738045Y-165232359D01*
X130625148Y-165174835D01*
X130531481Y-165160000D01*
X130468519Y-165160000D01*
X130374852Y-165174835D01*
X130261955Y-165232359D01*
X130250000Y-165244314D01*
X130250000Y-164281127D01*
X130053671Y-164333734D01*
X129847517Y-164429865D01*
X129661179Y-164560342D01*
X129500342Y-164721179D01*
X129369865Y-164907517D01*
X129273734Y-165113673D01*
X129273730Y-165113682D01*
X129221127Y-165309999D01*
X128778872Y-165309999D01*
X128726269Y-165113682D01*
X128726265Y-165113673D01*
X128630134Y-164907517D01*
X128499657Y-164721179D01*
X128338820Y-164560342D01*
X128152482Y-164429865D01*
X127946328Y-164333734D01*
X127749999Y-164281127D01*
X127749999Y-165244313D01*
X127738045Y-165232359D01*
X127625148Y-165174835D01*
X127531481Y-165160000D01*
X127468519Y-165160000D01*
X127374852Y-165174835D01*
X127261955Y-165232359D01*
X127249999Y-165244314D01*
X127249999Y-164281127D01*
X127053671Y-164333734D01*
X126847517Y-164429865D01*
X126661179Y-164560342D01*
X126500342Y-164721179D01*
X126369865Y-164907517D01*
X126273734Y-165113673D01*
X126273730Y-165113682D01*
X126221127Y-165309999D01*
X125778872Y-165309999D01*
X125726269Y-165113682D01*
X125726265Y-165113673D01*
X125630134Y-164907517D01*
X125499657Y-164721179D01*
X125338820Y-164560342D01*
X125152482Y-164429865D01*
X124946328Y-164333734D01*
X124749999Y-164281127D01*
X124749999Y-165244313D01*
X124738045Y-165232359D01*
X124625148Y-165174835D01*
X124531481Y-165160000D01*
X124468519Y-165160000D01*
X124374852Y-165174835D01*
X124261955Y-165232359D01*
X124249999Y-165244314D01*
X124250000Y-164281127D01*
X124053671Y-164333734D01*
X123847517Y-164429865D01*
X123661179Y-164560342D01*
X123500342Y-164721179D01*
X123369865Y-164907517D01*
X123273734Y-165113673D01*
X123273730Y-165113682D01*
X123221127Y-165309999D01*
X120133499Y-165309999D01*
X120133499Y-155494623D01*
X120135238Y-155478876D01*
X120134966Y-155478851D01*
X120135699Y-155471088D01*
X120135701Y-155471081D01*
X120134351Y-155428147D01*
X120133531Y-155402016D01*
X120133500Y-155400069D01*
X120133500Y-155371140D01*
X120133500Y-155371134D01*
X120132615Y-155364130D01*
X120132156Y-155358303D01*
X120131935Y-155351273D01*
X120131749Y-155345360D01*
X120149318Y-155277737D01*
X120200658Y-155230346D01*
X120203253Y-155229098D01*
X120356749Y-155157523D01*
X120544300Y-155026198D01*
X120706198Y-154864300D01*
X120837523Y-154676749D01*
X120857617Y-154633655D01*
X120903790Y-154581215D01*
X120970983Y-154562063D01*
X121037864Y-154582278D01*
X121082382Y-154633655D01*
X121102477Y-154676749D01*
X121233802Y-154864300D01*
X121395700Y-155026198D01*
X121583251Y-155157523D01*
X121704770Y-155214188D01*
X121790750Y-155254281D01*
X121790752Y-155254281D01*
X121790757Y-155254284D01*
X122011913Y-155313543D01*
X122174832Y-155327796D01*
X122239998Y-155333498D01*
X122240000Y-155333498D01*
X122240002Y-155333498D01*
X122297139Y-155328499D01*
X122468087Y-155313543D01*
X122689243Y-155254284D01*
X122690088Y-155253889D01*
X122690494Y-155253828D01*
X122694324Y-155252434D01*
X122694604Y-155253203D01*
X122759163Y-155243393D01*
X122822950Y-155271908D01*
X122861194Y-155330381D01*
X122866500Y-155366268D01*
X122866500Y-155798241D01*
X122846815Y-155865280D01*
X122834650Y-155881213D01*
X122760963Y-155963050D01*
X122760958Y-155963057D01*
X122665473Y-156128443D01*
X122665470Y-156128450D01*
X122606459Y-156310068D01*
X122606458Y-156310072D01*
X122586496Y-156500000D01*
X122606458Y-156689928D01*
X122606459Y-156689931D01*
X122665470Y-156871549D01*
X122665473Y-156871556D01*
X122760960Y-157036944D01*
X122888747Y-157178866D01*
X123043248Y-157291118D01*
X123193046Y-157357812D01*
X123246282Y-157403061D01*
X123266604Y-157469910D01*
X123262385Y-157503184D01*
X123206458Y-157711907D01*
X123206456Y-157711918D01*
X123186502Y-157939998D01*
X123186502Y-157940001D01*
X123206456Y-158168081D01*
X123206457Y-158168089D01*
X123265714Y-158389238D01*
X123265718Y-158389249D01*
X123362475Y-158596745D01*
X123362477Y-158596749D01*
X123493802Y-158784300D01*
X123655700Y-158946198D01*
X123843251Y-159077523D01*
X123968091Y-159135736D01*
X124050750Y-159174281D01*
X124050752Y-159174281D01*
X124050757Y-159174284D01*
X124271913Y-159233543D01*
X124434832Y-159247796D01*
X124499998Y-159253498D01*
X124500000Y-159253498D01*
X124500002Y-159253498D01*
X124557021Y-159248509D01*
X124728087Y-159233543D01*
X124949243Y-159174284D01*
X125156749Y-159077523D01*
X125344300Y-158946198D01*
X125506198Y-158784300D01*
X125637523Y-158596749D01*
X125734284Y-158389243D01*
X125793543Y-158168087D01*
X125813498Y-157940000D01*
X125810803Y-157909201D01*
X125805216Y-157845335D01*
X125793543Y-157711913D01*
X125776241Y-157647341D01*
X125777904Y-157577493D01*
X125808333Y-157527570D01*
X126135920Y-157199983D01*
X126197241Y-157166500D01*
X126266933Y-157171484D01*
X126322866Y-157213356D01*
X126347283Y-157278820D01*
X126335981Y-157340070D01*
X126265718Y-157490750D01*
X126265714Y-157490761D01*
X126206457Y-157711910D01*
X126206456Y-157711918D01*
X126186502Y-157939998D01*
X126186502Y-157940001D01*
X126206456Y-158168081D01*
X126206457Y-158168089D01*
X126265714Y-158389238D01*
X126265718Y-158389249D01*
X126362475Y-158596745D01*
X126362477Y-158596749D01*
X126493802Y-158784300D01*
X126655700Y-158946198D01*
X126843251Y-159077523D01*
X126968091Y-159135736D01*
X127050750Y-159174281D01*
X127050752Y-159174281D01*
X127050757Y-159174284D01*
X127271913Y-159233543D01*
X127434832Y-159247796D01*
X127499998Y-159253498D01*
X127500000Y-159253498D01*
X127500002Y-159253498D01*
X127557021Y-159248509D01*
X127728087Y-159233543D01*
X127949243Y-159174284D01*
X128156749Y-159077523D01*
X128344300Y-158946198D01*
X128506198Y-158784300D01*
X128637523Y-158596749D01*
X128734284Y-158389243D01*
X128793543Y-158168087D01*
X128813498Y-157940001D01*
X129186502Y-157940001D01*
X129206456Y-158168081D01*
X129206457Y-158168089D01*
X129265714Y-158389238D01*
X129265718Y-158389249D01*
X129362475Y-158596745D01*
X129362477Y-158596749D01*
X129493802Y-158784300D01*
X129655700Y-158946198D01*
X129843251Y-159077523D01*
X129968091Y-159135736D01*
X130050750Y-159174281D01*
X130050752Y-159174281D01*
X130050757Y-159174284D01*
X130271913Y-159233543D01*
X130434832Y-159247796D01*
X130499998Y-159253498D01*
X130500000Y-159253498D01*
X130500002Y-159253498D01*
X130557021Y-159248509D01*
X130728087Y-159233543D01*
X130949243Y-159174284D01*
X131156749Y-159077523D01*
X131344300Y-158946198D01*
X131506198Y-158784300D01*
X131637523Y-158596749D01*
X131734284Y-158389243D01*
X131793543Y-158168087D01*
X131813498Y-157940000D01*
X131810803Y-157909201D01*
X131805216Y-157845335D01*
X131793543Y-157711913D01*
X131734284Y-157490757D01*
X131714446Y-157448215D01*
X131637524Y-157283254D01*
X131637523Y-157283252D01*
X131637523Y-157283251D01*
X131506198Y-157095700D01*
X131344300Y-156933802D01*
X131156749Y-156802477D01*
X131156745Y-156802475D01*
X130949249Y-156705718D01*
X130949238Y-156705714D01*
X130728089Y-156646457D01*
X130728081Y-156646456D01*
X130500002Y-156626502D01*
X130499998Y-156626502D01*
X130271918Y-156646456D01*
X130271910Y-156646457D01*
X130050761Y-156705714D01*
X130050750Y-156705718D01*
X129843254Y-156802475D01*
X129843252Y-156802476D01*
X129827331Y-156813624D01*
X129655700Y-156933802D01*
X129655698Y-156933803D01*
X129655695Y-156933806D01*
X129493806Y-157095695D01*
X129493803Y-157095698D01*
X129493802Y-157095700D01*
X129426877Y-157191279D01*
X129362476Y-157283252D01*
X129362475Y-157283254D01*
X129265718Y-157490750D01*
X129265714Y-157490761D01*
X129206457Y-157711910D01*
X129206456Y-157711918D01*
X129186502Y-157939998D01*
X129186502Y-157940001D01*
X128813498Y-157940001D01*
X128813498Y-157940000D01*
X128810803Y-157909201D01*
X128805216Y-157845335D01*
X128793543Y-157711913D01*
X128777617Y-157652478D01*
X128776241Y-157647341D01*
X128777904Y-157577491D01*
X128808333Y-157527569D01*
X128872596Y-157463306D01*
X128884961Y-157453402D01*
X128884787Y-157453192D01*
X128890795Y-157448221D01*
X128890799Y-157448219D01*
X128938174Y-157397768D01*
X128939446Y-157396456D01*
X128959915Y-157375989D01*
X128964244Y-157370406D01*
X128968023Y-157365982D01*
X129000367Y-157331540D01*
X129010204Y-157313643D01*
X129020878Y-157297393D01*
X129033394Y-157281260D01*
X129052153Y-157237908D01*
X129054714Y-157232681D01*
X129077476Y-157191279D01*
X129082555Y-157171493D01*
X129088853Y-157153101D01*
X129096962Y-157134364D01*
X129104349Y-157087720D01*
X129105529Y-157082013D01*
X129117281Y-157036249D01*
X129117281Y-157015827D01*
X129118808Y-156996428D01*
X129122000Y-156976276D01*
X129117556Y-156929259D01*
X129117281Y-156923422D01*
X129117281Y-150901135D01*
X129136966Y-150834096D01*
X129189770Y-150788341D01*
X129258928Y-150778397D01*
X129291715Y-150787855D01*
X129292807Y-150788341D01*
X129312821Y-150797252D01*
X129366057Y-150842503D01*
X129385705Y-150897568D01*
X129396212Y-150997533D01*
X129396213Y-150997535D01*
X129396213Y-150997537D01*
X129455224Y-151179154D01*
X129455227Y-151179161D01*
X129550714Y-151344549D01*
X129678501Y-151486471D01*
X129833002Y-151598723D01*
X130007466Y-151676399D01*
X130194267Y-151716105D01*
X130385241Y-151716105D01*
X130572042Y-151676399D01*
X130746506Y-151598723D01*
X130901007Y-151486471D01*
X131028794Y-151344549D01*
X131124281Y-151179161D01*
X131183296Y-150997533D01*
X131203258Y-150807605D01*
X131183296Y-150617677D01*
X131124281Y-150436049D01*
X131097162Y-150389078D01*
X131080551Y-150327080D01*
X131080551Y-149000001D01*
X133686502Y-149000001D01*
X133706456Y-149228081D01*
X133706457Y-149228089D01*
X133765714Y-149449238D01*
X133765718Y-149449249D01*
X133853738Y-149638008D01*
X133862477Y-149656749D01*
X133993802Y-149844300D01*
X134155700Y-150006198D01*
X134343251Y-150137523D01*
X134468091Y-150195736D01*
X134550750Y-150234281D01*
X134550752Y-150234281D01*
X134550757Y-150234284D01*
X134771913Y-150293543D01*
X134934832Y-150307796D01*
X134999998Y-150313498D01*
X135000000Y-150313498D01*
X135000002Y-150313498D01*
X135057021Y-150308509D01*
X135228087Y-150293543D01*
X135449243Y-150234284D01*
X135656749Y-150137523D01*
X135844300Y-150006198D01*
X136006198Y-149844300D01*
X136137523Y-149656749D01*
X136154614Y-149620095D01*
X136200788Y-149567656D01*
X136266997Y-149548500D01*
X137612485Y-149548500D01*
X137679524Y-149568185D01*
X137696465Y-149581268D01*
X137822060Y-149696886D01*
X137935322Y-149770883D01*
X137980678Y-149824028D01*
X137991500Y-149874691D01*
X137991500Y-155658816D01*
X137971815Y-155725855D01*
X137941811Y-155758083D01*
X137836739Y-155836739D01*
X137749111Y-155953795D01*
X137698011Y-156090795D01*
X137698011Y-156090797D01*
X137691500Y-156151345D01*
X137691500Y-157848654D01*
X137698011Y-157909202D01*
X137698011Y-157909204D01*
X137735105Y-158008653D01*
X137749111Y-158046204D01*
X137836739Y-158163261D01*
X137953796Y-158250889D01*
X138090799Y-158301989D01*
X138118050Y-158304918D01*
X138151345Y-158308499D01*
X138151362Y-158308500D01*
X139848638Y-158308500D01*
X139848654Y-158308499D01*
X139875692Y-158305591D01*
X139909201Y-158301989D01*
X140046204Y-158250889D01*
X140163261Y-158163261D01*
X140250889Y-158046204D01*
X140301989Y-157909201D01*
X140307972Y-157853553D01*
X140308499Y-157848654D01*
X140308677Y-157845331D01*
X140308855Y-157845340D01*
X140308856Y-157845335D01*
X140308959Y-157845346D01*
X140310128Y-157845408D01*
X140328185Y-157783915D01*
X140380989Y-157738160D01*
X140413966Y-157732480D01*
X141102046Y-157044399D01*
X141114835Y-157125148D01*
X141172359Y-157238045D01*
X141261955Y-157327641D01*
X141374852Y-157385165D01*
X141455599Y-157397953D01*
X140774526Y-158079025D01*
X140774526Y-158079026D01*
X140847512Y-158130131D01*
X140847516Y-158130133D01*
X141053673Y-158226265D01*
X141053682Y-158226269D01*
X141273389Y-158285139D01*
X141273400Y-158285141D01*
X141499998Y-158304966D01*
X141500002Y-158304966D01*
X141726599Y-158285141D01*
X141726610Y-158285139D01*
X141946317Y-158226269D01*
X141946331Y-158226264D01*
X142152478Y-158130136D01*
X142225472Y-158079025D01*
X141544401Y-157397953D01*
X141625148Y-157385165D01*
X141738045Y-157327641D01*
X141827641Y-157238045D01*
X141885165Y-157125148D01*
X141897953Y-157044400D01*
X142579025Y-157725472D01*
X142630136Y-157652478D01*
X142726264Y-157446331D01*
X142726269Y-157446317D01*
X142785139Y-157226610D01*
X142785141Y-157226599D01*
X142804966Y-157000002D01*
X142804966Y-156999997D01*
X142785141Y-156773400D01*
X142785139Y-156773389D01*
X142726269Y-156553682D01*
X142726265Y-156553673D01*
X142630133Y-156347516D01*
X142630131Y-156347512D01*
X142579026Y-156274526D01*
X142579025Y-156274526D01*
X141897953Y-156955598D01*
X141885165Y-156874852D01*
X141827641Y-156761955D01*
X141738045Y-156672359D01*
X141625148Y-156614835D01*
X141544400Y-156602046D01*
X142225472Y-155920974D01*
X142225471Y-155920973D01*
X142152483Y-155869866D01*
X142152481Y-155869865D01*
X141946326Y-155773734D01*
X141946317Y-155773730D01*
X141726610Y-155714860D01*
X141726599Y-155714858D01*
X141500002Y-155695034D01*
X141499998Y-155695034D01*
X141273400Y-155714858D01*
X141273389Y-155714860D01*
X141053682Y-155773730D01*
X141053673Y-155773734D01*
X140847513Y-155869868D01*
X140774527Y-155920972D01*
X140774526Y-155920973D01*
X141455600Y-156602046D01*
X141374852Y-156614835D01*
X141261955Y-156672359D01*
X141172359Y-156761955D01*
X141114835Y-156874852D01*
X141102046Y-156955599D01*
X140412909Y-156266462D01*
X140374806Y-156258804D01*
X140324623Y-156210188D01*
X140309965Y-156154600D01*
X140308959Y-156154653D01*
X140308856Y-156154665D01*
X140308855Y-156154659D01*
X140308677Y-156154669D01*
X140308499Y-156151345D01*
X140305157Y-156120270D01*
X140301989Y-156090799D01*
X140290528Y-156060072D01*
X140254343Y-155963057D01*
X140250889Y-155953796D01*
X140163261Y-155836739D01*
X140058188Y-155758082D01*
X140016318Y-155702149D01*
X140008500Y-155658816D01*
X140008500Y-149431027D01*
X140028185Y-149363988D01*
X140034638Y-149354874D01*
X140044792Y-149341830D01*
X140160030Y-149128888D01*
X140238648Y-148899883D01*
X140278500Y-148661062D01*
X140278500Y-148418938D01*
X140238648Y-148180117D01*
X140231873Y-148160383D01*
X140174687Y-147993806D01*
X140160030Y-147951112D01*
X140044792Y-147738170D01*
X140044235Y-147737455D01*
X139978261Y-147652691D01*
X139896076Y-147547100D01*
X139743010Y-147406193D01*
X139717937Y-147383111D01*
X139695927Y-147368732D01*
X139650570Y-147315586D01*
X139641146Y-147246355D01*
X139670648Y-147183019D01*
X139695930Y-147161112D01*
X139712703Y-147150153D01*
X139889797Y-146987126D01*
X139889806Y-146987116D01*
X140037649Y-146797168D01*
X140037655Y-146797159D01*
X140152215Y-146585468D01*
X140152221Y-146585454D01*
X140230380Y-146357791D01*
X140248367Y-146250000D01*
X139264852Y-146250000D01*
X139313559Y-146112953D01*
X139323877Y-145962114D01*
X139293116Y-145814085D01*
X139259910Y-145750000D01*
X140248366Y-145750000D01*
X140248366Y-145749999D01*
X140230380Y-145642208D01*
X140152221Y-145414545D01*
X140152215Y-145414531D01*
X140037655Y-145202840D01*
X140037653Y-145202837D01*
X139931825Y-145066870D01*
X139906182Y-145001876D01*
X139919748Y-144933336D01*
X139968217Y-144883011D01*
X139986335Y-144874529D01*
X140016204Y-144863389D01*
X140133261Y-144775761D01*
X140220889Y-144658704D01*
X140261745Y-144549163D01*
X140303616Y-144493233D01*
X140369080Y-144468816D01*
X140377926Y-144468500D01*
X144240904Y-144468500D01*
X144307943Y-144488185D01*
X144328585Y-144504819D01*
X151415181Y-151591415D01*
X151448666Y-151652738D01*
X151451500Y-151679096D01*
X151451500Y-162531576D01*
X151431815Y-162598615D01*
X151392600Y-162637113D01*
X151386349Y-162640968D01*
X151260969Y-162766349D01*
X151167886Y-162917259D01*
X151167884Y-162917264D01*
X151112113Y-163085572D01*
X151101500Y-163189447D01*
X151101500Y-164490537D01*
X151101501Y-164490553D01*
X151112113Y-164594427D01*
X151115092Y-164603416D01*
X151167885Y-164762738D01*
X151260970Y-164913652D01*
X151386348Y-165039030D01*
X151537262Y-165132115D01*
X151537356Y-165132146D01*
X151537408Y-165132182D01*
X151543805Y-165135165D01*
X151543295Y-165136257D01*
X151594799Y-165171914D01*
X151621625Y-165236429D01*
X151609313Y-165305205D01*
X151574519Y-165347704D01*
X151536758Y-165377095D01*
X151536756Y-165377097D01*
X151384284Y-165542723D01*
X151384276Y-165542734D01*
X151261140Y-165731207D01*
X151170703Y-165937385D01*
X151115436Y-166155628D01*
X151115434Y-166155640D01*
X151096844Y-166379994D01*
X151096844Y-166380005D01*
X151115434Y-166604359D01*
X151115436Y-166604371D01*
X151170703Y-166822614D01*
X151261140Y-167028792D01*
X151384276Y-167217265D01*
X151384284Y-167217276D01*
X151535201Y-167381213D01*
X151536760Y-167382906D01*
X151714424Y-167521189D01*
X151714429Y-167521191D01*
X151714431Y-167521193D01*
X151750930Y-167540946D01*
X151800520Y-167590165D01*
X151815628Y-167658382D01*
X151791457Y-167723937D01*
X151750930Y-167759054D01*
X151714431Y-167778806D01*
X151714422Y-167778812D01*
X151536761Y-167917092D01*
X151536756Y-167917097D01*
X151384284Y-168082723D01*
X151384276Y-168082734D01*
X151261140Y-168271207D01*
X151170703Y-168477385D01*
X151115436Y-168695628D01*
X151115434Y-168695640D01*
X151096844Y-168919994D01*
X151096844Y-168920005D01*
X151115434Y-169144359D01*
X151115436Y-169144371D01*
X151170703Y-169362614D01*
X151261140Y-169568792D01*
X151384276Y-169757265D01*
X151384284Y-169757276D01*
X151536756Y-169922902D01*
X151536760Y-169922906D01*
X151714424Y-170061189D01*
X151714429Y-170061191D01*
X151714431Y-170061193D01*
X151750930Y-170080946D01*
X151800520Y-170130165D01*
X151815628Y-170198382D01*
X151791457Y-170263937D01*
X151750930Y-170299054D01*
X151714431Y-170318806D01*
X151714422Y-170318812D01*
X151536761Y-170457092D01*
X151536756Y-170457097D01*
X151384284Y-170622723D01*
X151384276Y-170622734D01*
X151261140Y-170811207D01*
X151170703Y-171017385D01*
X151115436Y-171235628D01*
X151115434Y-171235640D01*
X151096844Y-171459994D01*
X151096844Y-171460005D01*
X151115434Y-171684359D01*
X151115436Y-171684371D01*
X151170703Y-171902614D01*
X151261140Y-172108792D01*
X151384276Y-172297265D01*
X151384284Y-172297276D01*
X151536756Y-172462902D01*
X151536760Y-172462906D01*
X151714424Y-172601189D01*
X151714429Y-172601191D01*
X151714431Y-172601193D01*
X151750930Y-172620946D01*
X151800520Y-172670165D01*
X151815628Y-172738382D01*
X151791457Y-172803937D01*
X151750930Y-172839054D01*
X151714431Y-172858806D01*
X151714422Y-172858812D01*
X151536761Y-172997092D01*
X151536756Y-172997097D01*
X151384284Y-173162723D01*
X151384276Y-173162734D01*
X151261140Y-173351207D01*
X151170703Y-173557385D01*
X151115436Y-173775628D01*
X151115434Y-173775640D01*
X151096844Y-173999994D01*
X151096844Y-174000005D01*
X151115434Y-174224359D01*
X151115436Y-174224371D01*
X151170703Y-174442614D01*
X151261140Y-174648792D01*
X151384276Y-174837265D01*
X151384284Y-174837276D01*
X151536756Y-175002902D01*
X151536761Y-175002907D01*
X151577100Y-175034304D01*
X151714424Y-175141189D01*
X151714425Y-175141189D01*
X151714427Y-175141191D01*
X151774314Y-175173600D01*
X151912426Y-175248342D01*
X152125365Y-175321444D01*
X152347431Y-175358500D01*
X152572569Y-175358500D01*
X152794635Y-175321444D01*
X153007574Y-175248342D01*
X153205576Y-175141189D01*
X153383240Y-175002906D01*
X153535722Y-174837268D01*
X153629749Y-174693347D01*
X153682894Y-174647994D01*
X153752125Y-174638570D01*
X153815461Y-174668072D01*
X153835131Y-174690049D01*
X153885072Y-174761373D01*
X153885073Y-174761373D01*
X154516923Y-174129523D01*
X154540507Y-174209844D01*
X154618239Y-174330798D01*
X154726900Y-174424952D01*
X154857685Y-174484680D01*
X154867466Y-174486086D01*
X154238625Y-175114925D01*
X154322421Y-175173599D01*
X154536507Y-175273429D01*
X154536516Y-175273433D01*
X154764673Y-175334567D01*
X154764684Y-175334569D01*
X154999998Y-175355157D01*
X155000002Y-175355157D01*
X155235315Y-175334569D01*
X155235326Y-175334567D01*
X155463483Y-175273433D01*
X155463492Y-175273429D01*
X155677578Y-175173600D01*
X155677582Y-175173598D01*
X155761373Y-175114926D01*
X155761373Y-175114925D01*
X155132533Y-174486086D01*
X155142315Y-174484680D01*
X155273100Y-174424952D01*
X155381761Y-174330798D01*
X155459493Y-174209844D01*
X155483077Y-174129523D01*
X156114926Y-174761373D01*
X156173598Y-174677582D01*
X156173600Y-174677578D01*
X156273429Y-174463492D01*
X156273433Y-174463483D01*
X156334567Y-174235326D01*
X156334569Y-174235315D01*
X156355157Y-174000001D01*
X156355157Y-173999998D01*
X156334569Y-173764684D01*
X156334567Y-173764673D01*
X156273433Y-173536516D01*
X156273429Y-173536507D01*
X156173600Y-173322423D01*
X156173599Y-173322421D01*
X156114925Y-173238626D01*
X156114925Y-173238625D01*
X155483076Y-173870474D01*
X155459493Y-173790156D01*
X155381761Y-173669202D01*
X155273100Y-173575048D01*
X155142315Y-173515320D01*
X155132533Y-173513913D01*
X155761373Y-172885073D01*
X155684969Y-172831576D01*
X155641344Y-172776999D01*
X155634150Y-172707501D01*
X155665672Y-172645146D01*
X155684968Y-172628425D01*
X155761373Y-172574925D01*
X155132533Y-171946086D01*
X155142315Y-171944680D01*
X155273100Y-171884952D01*
X155381761Y-171790798D01*
X155459493Y-171669844D01*
X155483076Y-171589524D01*
X156114925Y-172221373D01*
X156114926Y-172221373D01*
X156173598Y-172137582D01*
X156173600Y-172137578D01*
X156273429Y-171923492D01*
X156273433Y-171923483D01*
X156334567Y-171695326D01*
X156334569Y-171695315D01*
X156355157Y-171460001D01*
X156355157Y-171459998D01*
X156334569Y-171224684D01*
X156334567Y-171224673D01*
X156273433Y-170996516D01*
X156273429Y-170996507D01*
X156173600Y-170782423D01*
X156173599Y-170782421D01*
X156114925Y-170698626D01*
X156114925Y-170698625D01*
X155483076Y-171330474D01*
X155459493Y-171250156D01*
X155381761Y-171129202D01*
X155273100Y-171035048D01*
X155142315Y-170975320D01*
X155132533Y-170973913D01*
X155761373Y-170345073D01*
X155684969Y-170291576D01*
X155641344Y-170236999D01*
X155634150Y-170167501D01*
X155665672Y-170105146D01*
X155684968Y-170088425D01*
X155761373Y-170034925D01*
X155132533Y-169406086D01*
X155142315Y-169404680D01*
X155273100Y-169344952D01*
X155381761Y-169250798D01*
X155459493Y-169129844D01*
X155483076Y-169049524D01*
X156114925Y-169681373D01*
X156114926Y-169681373D01*
X156173598Y-169597582D01*
X156173600Y-169597578D01*
X156273429Y-169383492D01*
X156273433Y-169383483D01*
X156334567Y-169155326D01*
X156334569Y-169155315D01*
X156355157Y-168920001D01*
X156355157Y-168919998D01*
X156334569Y-168684684D01*
X156334567Y-168684673D01*
X156273433Y-168456516D01*
X156273429Y-168456507D01*
X156173600Y-168242423D01*
X156173599Y-168242421D01*
X156114925Y-168158626D01*
X156114925Y-168158625D01*
X155483076Y-168790475D01*
X155459493Y-168710156D01*
X155381761Y-168589202D01*
X155273100Y-168495048D01*
X155142315Y-168435320D01*
X155132533Y-168433913D01*
X155761373Y-167805073D01*
X155761373Y-167805072D01*
X155684970Y-167751574D01*
X155641345Y-167696997D01*
X155634152Y-167627499D01*
X155665674Y-167565144D01*
X155684970Y-167548424D01*
X155761373Y-167494925D01*
X155132533Y-166866086D01*
X155142315Y-166864680D01*
X155273100Y-166804952D01*
X155381761Y-166710798D01*
X155459493Y-166589844D01*
X155483076Y-166509524D01*
X156114925Y-167141373D01*
X156114926Y-167141373D01*
X156173598Y-167057582D01*
X156173600Y-167057578D01*
X156273429Y-166843492D01*
X156273433Y-166843483D01*
X156334567Y-166615326D01*
X156334569Y-166615315D01*
X156355157Y-166380001D01*
X156355157Y-166379998D01*
X156334569Y-166144684D01*
X156334567Y-166144673D01*
X156273433Y-165916516D01*
X156273429Y-165916507D01*
X156173600Y-165702423D01*
X156173599Y-165702421D01*
X156114925Y-165618626D01*
X156114925Y-165618625D01*
X155483076Y-166250475D01*
X155459493Y-166170156D01*
X155381761Y-166049202D01*
X155273100Y-165955048D01*
X155142315Y-165895320D01*
X155132533Y-165893913D01*
X155761373Y-165265073D01*
X155684969Y-165211576D01*
X155641344Y-165156999D01*
X155634150Y-165087501D01*
X155665672Y-165025146D01*
X155684968Y-165008425D01*
X155761373Y-164954925D01*
X155132533Y-164326086D01*
X155142315Y-164324680D01*
X155273100Y-164264952D01*
X155381761Y-164170798D01*
X155459493Y-164049844D01*
X155483076Y-163969524D01*
X156114925Y-164601373D01*
X156114926Y-164601373D01*
X156173598Y-164517582D01*
X156173600Y-164517578D01*
X156273429Y-164303492D01*
X156273433Y-164303483D01*
X156334567Y-164075326D01*
X156334569Y-164075315D01*
X156355157Y-163840001D01*
X156355157Y-163839998D01*
X156334569Y-163604684D01*
X156334567Y-163604673D01*
X156273433Y-163376516D01*
X156273429Y-163376507D01*
X156173600Y-163162423D01*
X156173599Y-163162421D01*
X156114925Y-163078626D01*
X156114925Y-163078625D01*
X155483076Y-163710475D01*
X155459493Y-163630156D01*
X155381761Y-163509202D01*
X155273100Y-163415048D01*
X155142315Y-163355320D01*
X155132533Y-163353913D01*
X155761373Y-162725073D01*
X155761373Y-162725072D01*
X155677583Y-162666402D01*
X155677579Y-162666400D01*
X155463492Y-162566570D01*
X155463483Y-162566566D01*
X155235326Y-162505432D01*
X155235315Y-162505430D01*
X155000002Y-162484843D01*
X154999998Y-162484843D01*
X154764684Y-162505430D01*
X154764673Y-162505432D01*
X154536516Y-162566566D01*
X154536507Y-162566570D01*
X154322419Y-162666401D01*
X154238625Y-162725072D01*
X154867466Y-163353913D01*
X154857685Y-163355320D01*
X154726900Y-163415048D01*
X154618239Y-163509202D01*
X154540507Y-163630156D01*
X154516923Y-163710475D01*
X153877699Y-163071251D01*
X153836995Y-163063070D01*
X153786813Y-163014454D01*
X153776984Y-162992314D01*
X153774031Y-162983401D01*
X153752115Y-162917262D01*
X153659030Y-162766348D01*
X153533652Y-162640970D01*
X153533651Y-162640969D01*
X153533650Y-162640968D01*
X153527400Y-162637113D01*
X153480677Y-162585164D01*
X153468500Y-162531576D01*
X153468500Y-151262597D01*
X153468799Y-151256517D01*
X153471745Y-151226599D01*
X153473380Y-151210000D01*
X153453909Y-151012299D01*
X153396241Y-150822196D01*
X153388442Y-150807605D01*
X153302595Y-150646996D01*
X153302593Y-150646994D01*
X153302594Y-150646994D01*
X153176568Y-150493432D01*
X153140432Y-150463776D01*
X153135930Y-150459696D01*
X148676234Y-146000000D01*
X153166654Y-146000000D01*
X153168826Y-146033148D01*
X153168924Y-146039276D01*
X153167709Y-146075634D01*
X153167709Y-146075645D01*
X153178798Y-146185875D01*
X153178977Y-146188025D01*
X153186016Y-146295422D01*
X153186017Y-146295429D01*
X153193129Y-146331187D01*
X153194009Y-146337076D01*
X153197976Y-146376500D01*
X153222910Y-146481130D01*
X153223408Y-146483406D01*
X153243776Y-146585797D01*
X153243777Y-146585800D01*
X153243779Y-146585808D01*
X153256534Y-146623383D01*
X153258135Y-146628939D01*
X153268072Y-146670632D01*
X153268075Y-146670641D01*
X153305567Y-146767987D01*
X153306420Y-146770341D01*
X153338936Y-146866134D01*
X153338938Y-146866140D01*
X153357928Y-146904650D01*
X153360179Y-146909788D01*
X153376748Y-146952806D01*
X153425338Y-147041472D01*
X153426573Y-147043846D01*
X153469885Y-147131674D01*
X153495538Y-147170068D01*
X153498358Y-147174717D01*
X153522064Y-147217975D01*
X153522071Y-147217985D01*
X153580120Y-147296770D01*
X153581757Y-147299102D01*
X153634366Y-147377837D01*
X153634368Y-147377839D01*
X153666944Y-147414986D01*
X153670245Y-147419089D01*
X153701431Y-147461414D01*
X153764493Y-147526620D01*
X153767221Y-147529440D01*
X153769253Y-147531646D01*
X153829573Y-147600427D01*
X153833375Y-147603761D01*
X153869152Y-147635137D01*
X153872839Y-147638648D01*
X153885119Y-147651345D01*
X153911641Y-147678769D01*
X153911648Y-147678775D01*
X153983367Y-147735411D01*
X153985822Y-147737455D01*
X154052158Y-147795630D01*
X154098627Y-147826680D01*
X154102601Y-147829569D01*
X154148944Y-147866166D01*
X154148943Y-147866166D01*
X154224801Y-147911096D01*
X154227639Y-147912882D01*
X154298327Y-147960115D01*
X154332555Y-147976994D01*
X154351351Y-147986263D01*
X154355525Y-147988524D01*
X154409114Y-148020265D01*
X154436447Y-148031855D01*
X154487288Y-148053413D01*
X154490507Y-148054888D01*
X154516056Y-148067487D01*
X154563855Y-148091059D01*
X154622912Y-148111106D01*
X154627172Y-148112730D01*
X154664229Y-148128443D01*
X154687498Y-148138310D01*
X154766311Y-148159899D01*
X154769812Y-148160971D01*
X154844203Y-148186224D01*
X154908548Y-148199022D01*
X154912796Y-148200025D01*
X154979132Y-148218197D01*
X155056901Y-148228655D01*
X155060725Y-148229293D01*
X155134574Y-148243983D01*
X155134584Y-148243983D01*
X155134586Y-148243984D01*
X155203258Y-148248485D01*
X155207463Y-148248904D01*
X155278811Y-148258500D01*
X155354026Y-148258500D01*
X155358082Y-148258633D01*
X155388116Y-148260600D01*
X155430000Y-148263346D01*
X155475439Y-148260367D01*
X155501322Y-148258672D01*
X155503301Y-148258574D01*
X155505494Y-148258500D01*
X155505511Y-148258500D01*
X155579003Y-148253579D01*
X155579179Y-148253618D01*
X155579176Y-148253568D01*
X155579177Y-148253568D01*
X155725426Y-148243983D01*
X155725439Y-148243980D01*
X155726603Y-148243827D01*
X155730578Y-148243433D01*
X155731702Y-148243358D01*
X155875246Y-148214181D01*
X156015797Y-148186224D01*
X156016537Y-148185972D01*
X156024129Y-148183919D01*
X156028021Y-148183129D01*
X156163502Y-148136084D01*
X156296145Y-148091059D01*
X156299762Y-148089274D01*
X156306864Y-148086304D01*
X156306927Y-148086282D01*
X156313668Y-148083942D01*
X156438815Y-148020701D01*
X156561673Y-147960115D01*
X156567733Y-147956064D01*
X156574201Y-147952286D01*
X156583545Y-147947566D01*
X156696534Y-147870003D01*
X156807838Y-147795633D01*
X156815761Y-147788683D01*
X156821536Y-147784194D01*
X156832838Y-147776437D01*
X156932163Y-147686602D01*
X157030427Y-147600427D01*
X157039515Y-147590063D01*
X157044522Y-147584978D01*
X157057097Y-147573606D01*
X157141514Y-147473755D01*
X157225633Y-147377838D01*
X157235099Y-147363669D01*
X157239293Y-147358102D01*
X157252320Y-147342695D01*
X157320683Y-147235603D01*
X157321289Y-147234677D01*
X157390115Y-147131673D01*
X157399072Y-147113507D01*
X157402423Y-147107562D01*
X157415020Y-147087829D01*
X157415021Y-147087828D01*
X157415021Y-147087826D01*
X157415024Y-147087823D01*
X157467135Y-146975525D01*
X157467736Y-146974272D01*
X157474175Y-146961215D01*
X157521059Y-146866145D01*
X157528613Y-146843887D01*
X157531080Y-146837728D01*
X157542306Y-146813539D01*
X157578025Y-146698388D01*
X157578511Y-146696894D01*
X157616224Y-146585797D01*
X157621437Y-146559582D01*
X157623031Y-146553303D01*
X157624056Y-146550000D01*
X157631893Y-146524738D01*
X157651404Y-146409061D01*
X157651720Y-146407345D01*
X157673983Y-146295426D01*
X157675944Y-146265509D01*
X157676675Y-146259247D01*
X157682187Y-146226572D01*
X157685998Y-146112547D01*
X157686094Y-146110633D01*
X157693346Y-146000000D01*
X157691171Y-145966834D01*
X157691074Y-145960737D01*
X157692291Y-145924363D01*
X157681202Y-145814143D01*
X157681024Y-145811996D01*
X157673984Y-145704590D01*
X157673983Y-145704581D01*
X157673983Y-145704574D01*
X157666869Y-145668811D01*
X157665990Y-145662932D01*
X157662024Y-145623504D01*
X157642809Y-145542873D01*
X157637086Y-145518858D01*
X157636588Y-145516581D01*
X157628370Y-145475267D01*
X157616224Y-145414203D01*
X157603459Y-145376600D01*
X157601866Y-145371073D01*
X157591927Y-145329364D01*
X157554427Y-145232000D01*
X157553581Y-145229663D01*
X157538916Y-145186461D01*
X157521059Y-145133855D01*
X157502063Y-145095336D01*
X157499820Y-145090215D01*
X157483250Y-145047191D01*
X157434648Y-144958504D01*
X157433448Y-144956198D01*
X157390115Y-144868327D01*
X157364459Y-144829930D01*
X157361646Y-144825291D01*
X157337935Y-144782025D01*
X157337933Y-144782021D01*
X157279878Y-144703228D01*
X157278241Y-144700896D01*
X157225634Y-144622163D01*
X157193055Y-144585013D01*
X157189753Y-144580909D01*
X157164325Y-144546398D01*
X157158569Y-144538586D01*
X157092771Y-144470551D01*
X157090730Y-144468335D01*
X157030434Y-144399581D01*
X157030431Y-144399578D01*
X157030427Y-144399573D01*
X156991820Y-144365715D01*
X156990845Y-144364860D01*
X156987157Y-144361347D01*
X156948359Y-144321231D01*
X156948353Y-144321225D01*
X156876632Y-144264588D01*
X156874176Y-144262544D01*
X156867282Y-144256498D01*
X156807838Y-144204367D01*
X156761366Y-144173315D01*
X156757389Y-144170423D01*
X156747476Y-144162595D01*
X156711052Y-144133831D01*
X156711051Y-144133830D01*
X156635197Y-144088902D01*
X156632347Y-144087108D01*
X156588782Y-144057999D01*
X156561673Y-144039885D01*
X156561672Y-144039884D01*
X156561667Y-144039881D01*
X156508647Y-144013735D01*
X156504471Y-144011473D01*
X156450894Y-143979739D01*
X156450882Y-143979733D01*
X156372695Y-143946578D01*
X156369478Y-143945104D01*
X156296146Y-143908941D01*
X156296142Y-143908940D01*
X156237089Y-143888893D01*
X156232814Y-143887264D01*
X156172502Y-143861690D01*
X156172501Y-143861689D01*
X156093718Y-143840108D01*
X156090170Y-143839021D01*
X156015804Y-143813778D01*
X156015799Y-143813776D01*
X156015797Y-143813776D01*
X155951447Y-143800975D01*
X155947178Y-143799967D01*
X155880877Y-143781805D01*
X155880869Y-143781803D01*
X155880868Y-143781803D01*
X155880866Y-143781802D01*
X155880853Y-143781800D01*
X155823305Y-143774061D01*
X155803113Y-143771345D01*
X155799293Y-143770709D01*
X155758877Y-143762670D01*
X155725426Y-143756017D01*
X155725423Y-143756016D01*
X155725419Y-143756016D01*
X155656749Y-143751515D01*
X155652540Y-143751095D01*
X155626498Y-143747593D01*
X155581189Y-143741500D01*
X155581188Y-143741500D01*
X155505974Y-143741500D01*
X155501918Y-143741367D01*
X155436406Y-143737073D01*
X155430000Y-143736654D01*
X155429999Y-143736654D01*
X155358680Y-143741327D01*
X155356700Y-143741425D01*
X155354490Y-143741499D01*
X155295998Y-143745415D01*
X155280822Y-143746431D01*
X155248424Y-143748554D01*
X155134585Y-143756015D01*
X155133359Y-143756177D01*
X155129447Y-143756564D01*
X155128298Y-143756642D01*
X155128297Y-143756642D01*
X155128287Y-143756643D01*
X154984810Y-143785806D01*
X154844203Y-143813775D01*
X154844156Y-143813788D01*
X154843365Y-143814056D01*
X154835858Y-143816081D01*
X154831982Y-143816869D01*
X154831971Y-143816872D01*
X154696475Y-143863922D01*
X154563855Y-143908940D01*
X154563853Y-143908941D01*
X154560223Y-143910731D01*
X154553148Y-143913690D01*
X154546335Y-143916056D01*
X154546323Y-143916061D01*
X154421211Y-143979284D01*
X154298327Y-144039884D01*
X154298321Y-144039888D01*
X154292259Y-144043938D01*
X154285790Y-144047714D01*
X154276465Y-144052427D01*
X154276453Y-144052434D01*
X154163466Y-144129995D01*
X154052158Y-144204369D01*
X154044241Y-144211312D01*
X154038451Y-144215813D01*
X154027163Y-144223561D01*
X153927835Y-144313397D01*
X153829574Y-144399571D01*
X153820487Y-144409931D01*
X153815468Y-144415027D01*
X153802910Y-144426386D01*
X153802903Y-144426393D01*
X153802903Y-144426394D01*
X153793523Y-144437488D01*
X153718477Y-144526252D01*
X153634368Y-144622159D01*
X153624907Y-144636317D01*
X153620705Y-144641896D01*
X153607683Y-144657300D01*
X153539380Y-144764293D01*
X153538673Y-144765375D01*
X153469888Y-144868321D01*
X153469884Y-144868328D01*
X153460921Y-144886500D01*
X153457576Y-144892437D01*
X153444975Y-144912178D01*
X153392896Y-145024402D01*
X153392263Y-145025723D01*
X153338939Y-145133857D01*
X153331388Y-145156101D01*
X153328919Y-145162268D01*
X153317697Y-145186454D01*
X153317690Y-145186471D01*
X153296127Y-145255983D01*
X153281981Y-145301584D01*
X153281487Y-145303104D01*
X153243777Y-145414200D01*
X153243776Y-145414204D01*
X153238560Y-145440422D01*
X153236967Y-145446697D01*
X153228108Y-145475256D01*
X153228105Y-145475267D01*
X153208599Y-145590902D01*
X153208271Y-145592683D01*
X153186016Y-145704579D01*
X153186015Y-145704581D01*
X153184055Y-145734490D01*
X153183324Y-145740748D01*
X153177813Y-145773420D01*
X153174002Y-145887387D01*
X153173903Y-145889368D01*
X153166654Y-146000000D01*
X148676234Y-146000000D01*
X145460301Y-142784067D01*
X145456222Y-142779566D01*
X145426567Y-142743430D01*
X145273005Y-142617405D01*
X145272998Y-142617401D01*
X145097807Y-142523760D01*
X145097802Y-142523758D01*
X145093233Y-142522372D01*
X145088663Y-142520986D01*
X145017492Y-142499396D01*
X144907703Y-142466091D01*
X144775900Y-142453110D01*
X144710000Y-142446620D01*
X144709999Y-142446620D01*
X144663482Y-142451201D01*
X144657402Y-142451500D01*
X140377926Y-142451500D01*
X140310887Y-142431815D01*
X140265132Y-142379011D01*
X140261753Y-142370857D01*
X140220889Y-142261296D01*
X140219756Y-142259783D01*
X140203599Y-142238199D01*
X140133261Y-142144239D01*
X140016204Y-142056611D01*
X140008756Y-142053833D01*
X139879203Y-142005511D01*
X139818654Y-141999000D01*
X139818638Y-141999000D01*
X137721362Y-141999000D01*
X137721345Y-141999000D01*
X137660797Y-142005511D01*
X137660795Y-142005511D01*
X137523795Y-142056611D01*
X137406739Y-142144239D01*
X137319111Y-142261295D01*
X137268011Y-142398295D01*
X137268011Y-142398297D01*
X137261500Y-142458845D01*
X137261500Y-144461154D01*
X137268011Y-144521702D01*
X137268011Y-144521704D01*
X137310761Y-144636317D01*
X137319111Y-144658704D01*
X137406739Y-144775761D01*
X137523796Y-144863389D01*
X137553657Y-144874526D01*
X137609588Y-144916397D01*
X137634005Y-144981861D01*
X137619153Y-145050134D01*
X137608175Y-145066869D01*
X137502345Y-145202838D01*
X137502344Y-145202840D01*
X137387784Y-145414531D01*
X137387778Y-145414545D01*
X137309619Y-145642208D01*
X137291633Y-145749999D01*
X137291634Y-145750000D01*
X138275148Y-145750000D01*
X138226441Y-145887047D01*
X138216123Y-146037886D01*
X138246884Y-146185915D01*
X138280090Y-146250000D01*
X137291633Y-146250000D01*
X137309619Y-146357791D01*
X137387778Y-146585454D01*
X137387784Y-146585468D01*
X137502344Y-146797159D01*
X137502350Y-146797168D01*
X137650193Y-146987116D01*
X137650202Y-146987126D01*
X137827295Y-147150153D01*
X137844071Y-147161113D01*
X137889429Y-147214259D01*
X137898853Y-147283490D01*
X137869352Y-147346826D01*
X137844077Y-147368729D01*
X137822058Y-147383115D01*
X137696468Y-147498730D01*
X137633813Y-147529652D01*
X137612485Y-147531500D01*
X135512596Y-147531500D01*
X135506515Y-147531201D01*
X135460000Y-147526620D01*
X135410453Y-147531500D01*
X135262302Y-147546091D01*
X135262298Y-147546092D01*
X135262299Y-147546092D01*
X135072196Y-147603759D01*
X135072192Y-147603760D01*
X135072192Y-147603761D01*
X134923596Y-147683185D01*
X134875952Y-147697354D01*
X134771917Y-147706456D01*
X134771910Y-147706457D01*
X134550761Y-147765714D01*
X134550750Y-147765718D01*
X134343254Y-147862475D01*
X134343252Y-147862476D01*
X134320448Y-147878444D01*
X134155700Y-147993802D01*
X134155698Y-147993803D01*
X134155695Y-147993806D01*
X133993806Y-148155695D01*
X133993803Y-148155698D01*
X133993802Y-148155700D01*
X133921769Y-148258574D01*
X133862476Y-148343252D01*
X133862475Y-148343254D01*
X133765718Y-148550750D01*
X133765714Y-148550761D01*
X133706457Y-148771910D01*
X133706456Y-148771918D01*
X133686502Y-148999998D01*
X133686502Y-149000001D01*
X131080551Y-149000001D01*
X131080551Y-148430684D01*
X131082290Y-148414937D01*
X131082019Y-148414912D01*
X131082751Y-148407148D01*
X131082753Y-148407142D01*
X131081359Y-148362831D01*
X131080581Y-148338046D01*
X131080550Y-148336095D01*
X131080550Y-148325459D01*
X131080551Y-148307195D01*
X131079665Y-148300190D01*
X131079208Y-148294374D01*
X131078605Y-148275179D01*
X131077725Y-148247162D01*
X131072027Y-148227550D01*
X131068084Y-148208517D01*
X131065525Y-148188254D01*
X131048136Y-148144337D01*
X131046247Y-148138817D01*
X131033069Y-148093458D01*
X131022677Y-148075886D01*
X131014117Y-148058413D01*
X131006603Y-148039434D01*
X131006599Y-148039428D01*
X131002844Y-148032597D01*
X131004192Y-148031855D01*
X130983702Y-147974415D01*
X130983500Y-147967345D01*
X130983500Y-145710143D01*
X130983500Y-144239977D01*
X130983500Y-144000002D01*
X133695034Y-144000002D01*
X133714858Y-144226599D01*
X133714860Y-144226610D01*
X133773730Y-144446317D01*
X133773734Y-144446326D01*
X133869865Y-144652481D01*
X133869866Y-144652483D01*
X133920973Y-144725471D01*
X133920974Y-144725472D01*
X134602046Y-144044399D01*
X134614835Y-144125148D01*
X134672359Y-144238045D01*
X134761955Y-144327641D01*
X134874852Y-144385165D01*
X134955599Y-144397953D01*
X134274526Y-145079025D01*
X134274526Y-145079026D01*
X134347512Y-145130131D01*
X134347516Y-145130133D01*
X134553673Y-145226265D01*
X134553682Y-145226269D01*
X134773389Y-145285139D01*
X134773400Y-145285141D01*
X134999998Y-145304966D01*
X135000002Y-145304966D01*
X135226599Y-145285141D01*
X135226610Y-145285139D01*
X135446317Y-145226269D01*
X135446331Y-145226264D01*
X135652478Y-145130136D01*
X135725472Y-145079025D01*
X135044401Y-144397953D01*
X135125148Y-144385165D01*
X135238045Y-144327641D01*
X135327641Y-144238045D01*
X135385165Y-144125148D01*
X135397953Y-144044400D01*
X136079025Y-144725472D01*
X136130136Y-144652478D01*
X136226264Y-144446331D01*
X136226269Y-144446317D01*
X136285139Y-144226610D01*
X136285141Y-144226599D01*
X136304966Y-144000002D01*
X136304966Y-143999997D01*
X136285141Y-143773400D01*
X136285139Y-143773389D01*
X136226269Y-143553682D01*
X136226265Y-143553673D01*
X136130133Y-143347516D01*
X136130131Y-143347512D01*
X136079026Y-143274526D01*
X136079025Y-143274526D01*
X135397953Y-143955598D01*
X135385165Y-143874852D01*
X135327641Y-143761955D01*
X135238045Y-143672359D01*
X135125148Y-143614835D01*
X135044400Y-143602046D01*
X135725472Y-142920974D01*
X135725471Y-142920973D01*
X135652483Y-142869866D01*
X135652481Y-142869865D01*
X135446326Y-142773734D01*
X135446317Y-142773730D01*
X135226610Y-142714860D01*
X135226599Y-142714858D01*
X135000002Y-142695034D01*
X134999998Y-142695034D01*
X134773400Y-142714858D01*
X134773389Y-142714860D01*
X134553682Y-142773730D01*
X134553673Y-142773734D01*
X134347513Y-142869868D01*
X134274527Y-142920972D01*
X134274526Y-142920973D01*
X134955600Y-143602046D01*
X134874852Y-143614835D01*
X134761955Y-143672359D01*
X134672359Y-143761955D01*
X134614835Y-143874852D01*
X134602046Y-143955599D01*
X133920973Y-143274526D01*
X133920972Y-143274527D01*
X133869868Y-143347513D01*
X133773734Y-143553673D01*
X133773730Y-143553682D01*
X133714860Y-143773389D01*
X133714858Y-143773400D01*
X133695034Y-143999997D01*
X133695034Y-144000002D01*
X130983500Y-144000002D01*
X130983500Y-142769139D01*
X131003184Y-142702104D01*
X131055988Y-142656349D01*
X131125146Y-142646405D01*
X131188702Y-142675430D01*
X131214886Y-142707142D01*
X131260960Y-142786944D01*
X131388747Y-142928866D01*
X131543248Y-143041118D01*
X131717712Y-143118794D01*
X131904513Y-143158500D01*
X132095487Y-143158500D01*
X132282288Y-143118794D01*
X132456752Y-143041118D01*
X132611253Y-142928866D01*
X132739040Y-142786944D01*
X132785114Y-142707142D01*
X132816498Y-142652784D01*
X132867065Y-142604568D01*
X132911874Y-142593697D01*
X132911640Y-142591464D01*
X132918106Y-142590784D01*
X132918107Y-142590784D01*
X133104908Y-142551078D01*
X133279372Y-142473402D01*
X133433873Y-142361150D01*
X133561660Y-142219228D01*
X133657147Y-142053840D01*
X133716162Y-141872212D01*
X133736124Y-141682284D01*
X133735061Y-141672180D01*
X133747629Y-141603450D01*
X133749700Y-141599514D01*
X133768695Y-141564964D01*
X133773774Y-141545178D01*
X133780072Y-141526786D01*
X133788181Y-141508049D01*
X133795569Y-141461401D01*
X133796751Y-141455690D01*
X133808500Y-141409934D01*
X133808500Y-141389519D01*
X133810027Y-141370118D01*
X133813220Y-141349961D01*
X133808772Y-141302915D01*
X133808499Y-141297121D01*
X133808499Y-135718635D01*
X133810239Y-135702883D01*
X133809967Y-135702858D01*
X133810699Y-135695100D01*
X133810702Y-135695091D01*
X133808607Y-135628425D01*
X133808531Y-135625996D01*
X133808500Y-135624048D01*
X133808500Y-135595147D01*
X133808454Y-135594783D01*
X133807614Y-135588141D01*
X133807157Y-135582322D01*
X133806939Y-135575384D01*
X133805674Y-135535111D01*
X133799976Y-135515499D01*
X133796033Y-135496466D01*
X133793474Y-135476203D01*
X133776085Y-135432286D01*
X133774196Y-135426766D01*
X133761018Y-135381407D01*
X133750626Y-135363835D01*
X133742066Y-135346362D01*
X133734552Y-135327383D01*
X133706794Y-135289179D01*
X133703587Y-135284296D01*
X133693873Y-135267871D01*
X133679542Y-135243638D01*
X133665108Y-135229204D01*
X133652471Y-135214409D01*
X133640472Y-135197893D01*
X133640470Y-135197890D01*
X133604073Y-135167781D01*
X133599751Y-135163847D01*
X133435906Y-135000002D01*
X151695153Y-135000002D01*
X151714526Y-135357314D01*
X151714527Y-135357331D01*
X151772415Y-135710431D01*
X151772421Y-135710457D01*
X151868147Y-136055232D01*
X151868149Y-136055239D01*
X152000597Y-136387659D01*
X152000606Y-136387677D01*
X152168218Y-136703827D01*
X152369033Y-137000007D01*
X152496441Y-137150003D01*
X152496442Y-137150004D01*
X153702266Y-135944180D01*
X153865130Y-136134870D01*
X154055818Y-136297732D01*
X152847255Y-137506295D01*
X152847256Y-137506296D01*
X152860485Y-137518828D01*
X152860486Y-137518829D01*
X153145367Y-137735388D01*
X153145370Y-137735390D01*
X153451990Y-137919876D01*
X153776739Y-138070122D01*
X153776744Y-138070123D01*
X154115855Y-138184383D01*
X154465339Y-138261311D01*
X154821075Y-138299999D01*
X154821085Y-138300000D01*
X155178915Y-138300000D01*
X155178924Y-138299999D01*
X155534660Y-138261311D01*
X155884144Y-138184383D01*
X156223255Y-138070123D01*
X156223260Y-138070122D01*
X156548009Y-137919876D01*
X156854629Y-137735390D01*
X156854632Y-137735388D01*
X157139504Y-137518836D01*
X157152742Y-137506294D01*
X155944180Y-136297733D01*
X156134870Y-136134870D01*
X156297733Y-135944180D01*
X157503556Y-137150003D01*
X157630964Y-137000008D01*
X157630975Y-136999994D01*
X157831781Y-136703827D01*
X157999393Y-136387677D01*
X157999402Y-136387659D01*
X158131850Y-136055239D01*
X158131852Y-136055232D01*
X158227578Y-135710457D01*
X158227584Y-135710431D01*
X158285472Y-135357331D01*
X158285473Y-135357314D01*
X158304846Y-135000002D01*
X158304846Y-134999997D01*
X158285473Y-134642685D01*
X158285472Y-134642668D01*
X158227584Y-134289568D01*
X158227578Y-134289542D01*
X158131852Y-133944767D01*
X158131850Y-133944760D01*
X157999402Y-133612340D01*
X157999393Y-133612322D01*
X157831781Y-133296172D01*
X157630966Y-132999992D01*
X157503557Y-132849995D01*
X157503556Y-132849994D01*
X156297732Y-134055818D01*
X156134870Y-133865130D01*
X155944180Y-133702266D01*
X157152743Y-132493703D01*
X157152742Y-132493702D01*
X157139514Y-132481171D01*
X157139513Y-132481170D01*
X156854632Y-132264611D01*
X156854629Y-132264609D01*
X156548009Y-132080123D01*
X156223260Y-131929877D01*
X156223255Y-131929876D01*
X155884144Y-131815616D01*
X155534660Y-131738688D01*
X155178924Y-131700000D01*
X154821075Y-131700000D01*
X154465339Y-131738688D01*
X154115855Y-131815616D01*
X153776744Y-131929876D01*
X153776739Y-131929877D01*
X153451990Y-132080123D01*
X153145370Y-132264609D01*
X153145367Y-132264611D01*
X152860491Y-132481166D01*
X152847256Y-132493703D01*
X152847255Y-132493703D01*
X154055819Y-133702266D01*
X153865130Y-133865130D01*
X153702266Y-134055818D01*
X152496442Y-132849994D01*
X152496441Y-132849995D01*
X152369040Y-132999983D01*
X152369033Y-132999993D01*
X152168218Y-133296172D01*
X152000606Y-133612322D01*
X152000597Y-133612340D01*
X151868149Y-133944760D01*
X151868147Y-133944767D01*
X151772421Y-134289542D01*
X151772415Y-134289568D01*
X151714527Y-134642668D01*
X151714526Y-134642685D01*
X151695153Y-134999997D01*
X151695153Y-135000002D01*
X133435906Y-135000002D01*
X133394818Y-134958914D01*
X133361333Y-134897591D01*
X133358499Y-134871233D01*
X133358499Y-133809462D01*
X133358498Y-133809446D01*
X133353570Y-133761205D01*
X133347887Y-133705574D01*
X133292115Y-133537262D01*
X133199030Y-133386348D01*
X133073652Y-133260970D01*
X132922738Y-133167885D01*
X132922735Y-133167884D01*
X132754427Y-133112113D01*
X132650545Y-133101500D01*
X131349462Y-133101500D01*
X131349446Y-133101501D01*
X131245572Y-133112113D01*
X131077264Y-133167884D01*
X131077259Y-133167886D01*
X130926346Y-133260971D01*
X130800971Y-133386346D01*
X130707886Y-133537259D01*
X130707882Y-133537268D01*
X130707749Y-133537672D01*
X130707582Y-133537912D01*
X130704835Y-133543805D01*
X130703827Y-133543335D01*
X130667972Y-133595114D01*
X130603454Y-133621932D01*
X130534680Y-133609612D01*
X130498817Y-133582643D01*
X130487161Y-133569981D01*
X130383240Y-133457094D01*
X130383237Y-133457092D01*
X130383238Y-133457092D01*
X130205577Y-133318812D01*
X130205572Y-133318808D01*
X130007580Y-133211661D01*
X130007577Y-133211659D01*
X130007574Y-133211658D01*
X130007571Y-133211657D01*
X130007569Y-133211656D01*
X129794637Y-133138556D01*
X129572569Y-133101500D01*
X129347431Y-133101500D01*
X129125362Y-133138556D01*
X128912430Y-133211656D01*
X128912419Y-133211661D01*
X128714427Y-133318808D01*
X128714422Y-133318812D01*
X128536761Y-133457092D01*
X128536756Y-133457097D01*
X128384284Y-133622723D01*
X128384276Y-133622734D01*
X128293808Y-133761206D01*
X128240662Y-133806562D01*
X128171431Y-133815986D01*
X128108095Y-133786484D01*
X128086192Y-133761206D01*
X127995723Y-133622734D01*
X127995715Y-133622723D01*
X127843243Y-133457097D01*
X127843238Y-133457092D01*
X127665577Y-133318812D01*
X127665572Y-133318808D01*
X127467580Y-133211661D01*
X127467577Y-133211659D01*
X127467574Y-133211658D01*
X127467571Y-133211657D01*
X127467569Y-133211656D01*
X127254637Y-133138556D01*
X127032569Y-133101500D01*
X126807431Y-133101500D01*
X126585362Y-133138556D01*
X126372430Y-133211656D01*
X126372419Y-133211661D01*
X126174427Y-133318808D01*
X126174422Y-133318812D01*
X125996761Y-133457092D01*
X125996756Y-133457097D01*
X125844284Y-133622723D01*
X125844276Y-133622734D01*
X125753808Y-133761206D01*
X125700662Y-133806562D01*
X125631431Y-133815986D01*
X125568095Y-133786484D01*
X125546192Y-133761206D01*
X125455723Y-133622734D01*
X125455715Y-133622723D01*
X125303243Y-133457097D01*
X125303238Y-133457092D01*
X125125577Y-133318812D01*
X125125572Y-133318808D01*
X124927580Y-133211661D01*
X124927577Y-133211659D01*
X124927574Y-133211658D01*
X124927571Y-133211657D01*
X124927569Y-133211656D01*
X124714637Y-133138556D01*
X124492569Y-133101500D01*
X124267431Y-133101500D01*
X124045362Y-133138556D01*
X123832430Y-133211656D01*
X123832419Y-133211661D01*
X123634427Y-133318808D01*
X123634422Y-133318812D01*
X123456761Y-133457092D01*
X123456756Y-133457097D01*
X123304284Y-133622723D01*
X123304276Y-133622734D01*
X123213807Y-133761206D01*
X123160660Y-133806563D01*
X123091429Y-133815986D01*
X123028093Y-133786483D01*
X123006191Y-133761206D01*
X122915722Y-133622732D01*
X122915717Y-133622727D01*
X122915715Y-133622723D01*
X122763243Y-133457097D01*
X122763238Y-133457092D01*
X122585577Y-133318812D01*
X122585572Y-133318808D01*
X122387580Y-133211661D01*
X122387577Y-133211659D01*
X122387574Y-133211658D01*
X122387571Y-133211657D01*
X122387569Y-133211656D01*
X122174637Y-133138556D01*
X121952569Y-133101500D01*
X121727431Y-133101500D01*
X121505362Y-133138556D01*
X121292430Y-133211656D01*
X121292419Y-133211661D01*
X121094427Y-133318808D01*
X121094422Y-133318812D01*
X120916761Y-133457092D01*
X120916756Y-133457097D01*
X120764284Y-133622723D01*
X120764276Y-133622734D01*
X120673808Y-133761206D01*
X120620662Y-133806562D01*
X120551431Y-133815986D01*
X120488095Y-133786484D01*
X120466192Y-133761206D01*
X120375723Y-133622734D01*
X120375715Y-133622723D01*
X120223243Y-133457097D01*
X120223238Y-133457092D01*
X120045577Y-133318812D01*
X120045572Y-133318808D01*
X119847580Y-133211661D01*
X119847577Y-133211659D01*
X119847574Y-133211658D01*
X119847571Y-133211657D01*
X119847569Y-133211656D01*
X119634637Y-133138556D01*
X119412569Y-133101500D01*
X119187431Y-133101500D01*
X118965362Y-133138556D01*
X118752430Y-133211656D01*
X118752419Y-133211661D01*
X118554427Y-133318808D01*
X118554422Y-133318812D01*
X118376761Y-133457092D01*
X118376756Y-133457097D01*
X118224284Y-133622723D01*
X118224280Y-133622729D01*
X118130250Y-133766651D01*
X118077103Y-133812007D01*
X118007872Y-133821430D01*
X117944536Y-133791927D01*
X117924866Y-133769951D01*
X117874924Y-133698626D01*
X117243076Y-134330475D01*
X117219493Y-134250156D01*
X117141761Y-134129202D01*
X117033100Y-134035048D01*
X116902315Y-133975320D01*
X116892531Y-133973913D01*
X117521373Y-133345073D01*
X117521373Y-133345072D01*
X117437583Y-133286402D01*
X117437579Y-133286400D01*
X117223492Y-133186570D01*
X117223483Y-133186566D01*
X116995326Y-133125432D01*
X116995315Y-133125430D01*
X116760002Y-133104843D01*
X116759998Y-133104843D01*
X116524684Y-133125430D01*
X116524673Y-133125432D01*
X116296516Y-133186566D01*
X116296507Y-133186570D01*
X116082419Y-133286401D01*
X115998626Y-133345072D01*
X115998625Y-133345073D01*
X116627466Y-133973913D01*
X116617685Y-133975320D01*
X116486900Y-134035048D01*
X116378239Y-134129202D01*
X116300507Y-134250156D01*
X116276923Y-134330475D01*
X115645073Y-133698625D01*
X115645071Y-133698626D01*
X115591574Y-133775030D01*
X115536998Y-133818655D01*
X115467499Y-133825849D01*
X115405144Y-133794326D01*
X115388424Y-133775030D01*
X115334925Y-133698626D01*
X115334925Y-133698625D01*
X114703076Y-134330474D01*
X114679493Y-134250156D01*
X114601761Y-134129202D01*
X114493100Y-134035048D01*
X114362315Y-133975320D01*
X114352533Y-133973913D01*
X114981373Y-133345073D01*
X114981373Y-133345072D01*
X114897583Y-133286402D01*
X114897579Y-133286400D01*
X114683492Y-133186570D01*
X114683483Y-133186566D01*
X114455326Y-133125432D01*
X114455315Y-133125430D01*
X114220002Y-133104843D01*
X114219998Y-133104843D01*
X113984684Y-133125430D01*
X113984673Y-133125432D01*
X113756516Y-133186566D01*
X113756507Y-133186570D01*
X113542419Y-133286401D01*
X113458625Y-133345072D01*
X114087466Y-133973913D01*
X114077685Y-133975320D01*
X113946900Y-134035048D01*
X113838239Y-134129202D01*
X113760507Y-134250156D01*
X113736923Y-134330476D01*
X113105072Y-133698625D01*
X113105072Y-133698626D01*
X113051574Y-133775030D01*
X112996998Y-133818655D01*
X112927499Y-133825849D01*
X112865144Y-133794326D01*
X112848424Y-133775030D01*
X112794925Y-133698626D01*
X112794925Y-133698625D01*
X112163076Y-134330474D01*
X112139493Y-134250156D01*
X112061761Y-134129202D01*
X111953100Y-134035048D01*
X111822315Y-133975320D01*
X111812533Y-133973913D01*
X112441373Y-133345073D01*
X112441373Y-133345072D01*
X112357583Y-133286402D01*
X112357579Y-133286400D01*
X112143492Y-133186570D01*
X112143483Y-133186566D01*
X111915326Y-133125432D01*
X111915315Y-133125430D01*
X111680002Y-133104843D01*
X111679998Y-133104843D01*
X111444684Y-133125430D01*
X111444673Y-133125432D01*
X111216516Y-133186566D01*
X111216507Y-133186570D01*
X111002419Y-133286401D01*
X110918625Y-133345072D01*
X111547466Y-133973913D01*
X111537685Y-133975320D01*
X111406900Y-134035048D01*
X111298239Y-134129202D01*
X111220507Y-134250156D01*
X111196923Y-134330476D01*
X110565072Y-133698625D01*
X110565072Y-133698626D01*
X110515131Y-133769950D01*
X110460555Y-133813575D01*
X110391056Y-133820769D01*
X110328701Y-133789246D01*
X110309748Y-133766649D01*
X110215723Y-133622734D01*
X110215715Y-133622723D01*
X110063243Y-133457097D01*
X110063238Y-133457092D01*
X109885577Y-133318812D01*
X109885572Y-133318808D01*
X109687580Y-133211661D01*
X109687577Y-133211659D01*
X109687574Y-133211658D01*
X109687571Y-133211657D01*
X109687569Y-133211656D01*
X109474637Y-133138556D01*
X109252569Y-133101500D01*
X109027431Y-133101500D01*
X108806915Y-133138297D01*
X108737550Y-133129915D01*
X108683728Y-133085362D01*
X108662538Y-133018783D01*
X108663185Y-133003029D01*
X108663504Y-133000000D01*
X108643542Y-132810072D01*
X108584527Y-132628444D01*
X108489040Y-132463056D01*
X108361253Y-132321134D01*
X108206752Y-132208882D01*
X108032288Y-132131206D01*
X108032286Y-132131205D01*
X107845487Y-132091500D01*
X107654513Y-132091500D01*
X107467714Y-132131205D01*
X107293246Y-132208883D01*
X107138745Y-132321135D01*
X107010959Y-132463057D01*
X106915473Y-132628443D01*
X106915470Y-132628450D01*
X106856459Y-132810068D01*
X106856458Y-132810072D01*
X106837498Y-132990463D01*
X106810914Y-133055076D01*
X106753617Y-133095061D01*
X106714178Y-133101500D01*
X106487431Y-133101500D01*
X106265362Y-133138556D01*
X106052430Y-133211656D01*
X106052419Y-133211661D01*
X105854427Y-133318808D01*
X105854422Y-133318812D01*
X105676761Y-133457092D01*
X105676756Y-133457097D01*
X105524284Y-133622723D01*
X105524276Y-133622734D01*
X105433808Y-133761206D01*
X105380662Y-133806562D01*
X105311431Y-133815986D01*
X105248095Y-133786484D01*
X105226192Y-133761206D01*
X105135723Y-133622734D01*
X105135715Y-133622723D01*
X104983243Y-133457097D01*
X104983238Y-133457092D01*
X104805577Y-133318812D01*
X104805572Y-133318808D01*
X104607580Y-133211661D01*
X104607577Y-133211659D01*
X104607574Y-133211658D01*
X104607571Y-133211657D01*
X104607569Y-133211656D01*
X104394637Y-133138556D01*
X104172569Y-133101500D01*
X103947431Y-133101500D01*
X103725362Y-133138556D01*
X103512430Y-133211656D01*
X103512419Y-133211661D01*
X103314427Y-133318808D01*
X103314422Y-133318812D01*
X103136761Y-133457092D01*
X103136756Y-133457097D01*
X102984284Y-133622723D01*
X102984276Y-133622734D01*
X102893807Y-133761206D01*
X102840660Y-133806563D01*
X102771429Y-133815986D01*
X102708093Y-133786483D01*
X102686191Y-133761206D01*
X102595722Y-133622732D01*
X102595717Y-133622727D01*
X102595715Y-133622723D01*
X102443243Y-133457097D01*
X102443238Y-133457092D01*
X102265577Y-133318812D01*
X102265572Y-133318808D01*
X102067580Y-133211661D01*
X102067577Y-133211659D01*
X102067574Y-133211658D01*
X102067571Y-133211657D01*
X102067569Y-133211656D01*
X101854637Y-133138556D01*
X101632569Y-133101500D01*
X101407431Y-133101500D01*
X101185362Y-133138556D01*
X100972430Y-133211656D01*
X100972419Y-133211661D01*
X100774427Y-133318808D01*
X100774422Y-133318812D01*
X100596761Y-133457092D01*
X100596756Y-133457097D01*
X100444284Y-133622723D01*
X100444276Y-133622734D01*
X100353808Y-133761206D01*
X100300662Y-133806562D01*
X100231431Y-133815986D01*
X100168095Y-133786484D01*
X100146192Y-133761206D01*
X100055723Y-133622734D01*
X100055715Y-133622723D01*
X99903243Y-133457097D01*
X99903238Y-133457092D01*
X99725577Y-133318812D01*
X99725572Y-133318808D01*
X99527580Y-133211661D01*
X99527577Y-133211659D01*
X99527574Y-133211658D01*
X99527571Y-133211657D01*
X99527569Y-133211656D01*
X99314637Y-133138556D01*
X99092569Y-133101500D01*
X98867431Y-133101500D01*
X98645362Y-133138556D01*
X98432430Y-133211656D01*
X98432419Y-133211661D01*
X98234427Y-133318808D01*
X98234422Y-133318812D01*
X98056761Y-133457092D01*
X98056756Y-133457097D01*
X97904284Y-133622723D01*
X97904276Y-133622734D01*
X97813808Y-133761206D01*
X97760662Y-133806562D01*
X97691431Y-133815986D01*
X97628095Y-133786484D01*
X97606192Y-133761206D01*
X97515723Y-133622734D01*
X97515715Y-133622723D01*
X97363243Y-133457097D01*
X97363238Y-133457092D01*
X97185577Y-133318812D01*
X97185572Y-133318808D01*
X96987580Y-133211661D01*
X96987577Y-133211659D01*
X96987574Y-133211658D01*
X96987571Y-133211657D01*
X96987569Y-133211656D01*
X96774637Y-133138556D01*
X96552569Y-133101500D01*
X96327431Y-133101500D01*
X96105362Y-133138556D01*
X95892430Y-133211656D01*
X95892419Y-133211661D01*
X95694427Y-133318808D01*
X95694422Y-133318812D01*
X95516761Y-133457092D01*
X95516756Y-133457097D01*
X95364284Y-133622723D01*
X95364276Y-133622734D01*
X95241140Y-133811207D01*
X95150703Y-134017385D01*
X95095436Y-134235628D01*
X95095434Y-134235640D01*
X95076844Y-134459994D01*
X95076844Y-134460005D01*
X95095435Y-134684364D01*
X95123461Y-134795036D01*
X95120836Y-134864856D01*
X95090936Y-134913157D01*
X94876179Y-135127914D01*
X94863820Y-135137818D01*
X94863993Y-135138027D01*
X94857981Y-135143000D01*
X94810672Y-135193378D01*
X94809319Y-135194774D01*
X94788873Y-135215221D01*
X94788857Y-135215239D01*
X94784531Y-135220814D01*
X94780747Y-135225244D01*
X94748419Y-135259671D01*
X94748412Y-135259681D01*
X94738579Y-135277567D01*
X94727903Y-135293820D01*
X94715386Y-135309957D01*
X94715385Y-135309959D01*
X94696625Y-135353310D01*
X94694055Y-135358556D01*
X94671303Y-135399941D01*
X94671303Y-135399942D01*
X94666225Y-135419720D01*
X94659925Y-135438122D01*
X94651818Y-135456857D01*
X94644431Y-135503495D01*
X94643246Y-135509216D01*
X94631500Y-135554965D01*
X94631500Y-135575384D01*
X94629973Y-135594783D01*
X94627401Y-135611025D01*
X94626780Y-135614943D01*
X94627708Y-135624763D01*
X94631225Y-135661966D01*
X94631500Y-135667804D01*
X94631500Y-144180182D01*
X94611815Y-144247221D01*
X94559011Y-144292976D01*
X94496693Y-144303710D01*
X94300002Y-144286502D01*
X94299998Y-144286502D01*
X94071918Y-144306456D01*
X94071910Y-144306457D01*
X93850761Y-144365714D01*
X93850750Y-144365718D01*
X93643254Y-144462475D01*
X93643252Y-144462476D01*
X93574272Y-144510777D01*
X93455700Y-144593802D01*
X93455698Y-144593803D01*
X93455695Y-144593806D01*
X93293806Y-144755695D01*
X93293803Y-144755698D01*
X93293802Y-144755700D01*
X93279756Y-144775760D01*
X93162476Y-144943251D01*
X93119882Y-145034597D01*
X93073710Y-145087036D01*
X93006516Y-145106188D01*
X92939635Y-145085972D01*
X92894301Y-145032807D01*
X92883500Y-144982192D01*
X92883500Y-141477256D01*
X92903185Y-141410217D01*
X92915346Y-141394288D01*
X92989040Y-141312444D01*
X93084527Y-141147056D01*
X93143542Y-140965428D01*
X93163504Y-140775500D01*
X93143542Y-140585572D01*
X93084527Y-140403944D01*
X92989040Y-140238556D01*
X92861253Y-140096634D01*
X92706752Y-139984382D01*
X92532288Y-139906706D01*
X92532286Y-139906705D01*
X92345487Y-139867000D01*
X92154513Y-139867000D01*
X91967714Y-139906705D01*
X91793246Y-139984383D01*
X91638745Y-140096635D01*
X91510959Y-140238557D01*
X91415473Y-140403943D01*
X91415470Y-140403950D01*
X91356459Y-140585568D01*
X91356458Y-140585572D01*
X91336496Y-140775500D01*
X72671405Y-140775500D01*
X69349062Y-137453157D01*
X69315577Y-137391834D01*
X69316537Y-137335038D01*
X69344564Y-137224368D01*
X69361824Y-137016066D01*
X69386978Y-136950881D01*
X69443380Y-136909643D01*
X69513123Y-136905445D01*
X69574065Y-136939619D01*
X69603038Y-136993706D01*
X69604450Y-136993248D01*
X69665470Y-137181049D01*
X69665473Y-137181056D01*
X69760960Y-137346444D01*
X69888747Y-137488366D01*
X70043248Y-137600618D01*
X70217712Y-137678294D01*
X70404513Y-137718000D01*
X70595487Y-137718000D01*
X70782288Y-137678294D01*
X70956752Y-137600618D01*
X71111253Y-137488366D01*
X71239040Y-137346444D01*
X71334527Y-137181056D01*
X71393542Y-136999428D01*
X71413504Y-136809500D01*
X71393542Y-136619572D01*
X71334527Y-136437944D01*
X71284449Y-136351207D01*
X71239041Y-136272557D01*
X71239036Y-136272550D01*
X71165350Y-136190713D01*
X71135120Y-136127721D01*
X71133500Y-136107741D01*
X71133500Y-135000002D01*
X76695153Y-135000002D01*
X76714526Y-135357314D01*
X76714527Y-135357331D01*
X76772415Y-135710431D01*
X76772421Y-135710457D01*
X76868147Y-136055232D01*
X76868149Y-136055239D01*
X77000597Y-136387659D01*
X77000606Y-136387677D01*
X77168218Y-136703827D01*
X77369033Y-137000007D01*
X77496441Y-137150003D01*
X77496442Y-137150004D01*
X78702266Y-135944180D01*
X78865130Y-136134870D01*
X79055818Y-136297732D01*
X77847255Y-137506295D01*
X77847256Y-137506296D01*
X77860485Y-137518828D01*
X77860486Y-137518829D01*
X78145367Y-137735388D01*
X78145370Y-137735390D01*
X78451990Y-137919876D01*
X78776739Y-138070122D01*
X78776744Y-138070123D01*
X79115855Y-138184383D01*
X79465339Y-138261311D01*
X79821075Y-138299999D01*
X79821085Y-138300000D01*
X80178915Y-138300000D01*
X80178924Y-138299999D01*
X80534660Y-138261311D01*
X80884144Y-138184383D01*
X81223255Y-138070123D01*
X81223260Y-138070122D01*
X81548009Y-137919876D01*
X81854629Y-137735390D01*
X81854632Y-137735388D01*
X82139504Y-137518836D01*
X82152742Y-137506294D01*
X80944180Y-136297733D01*
X81134870Y-136134870D01*
X81297733Y-135944180D01*
X82503556Y-137150003D01*
X82630964Y-137000008D01*
X82630975Y-136999994D01*
X82831781Y-136703827D01*
X82999393Y-136387677D01*
X82999402Y-136387659D01*
X83131850Y-136055239D01*
X83131852Y-136055232D01*
X83227578Y-135710457D01*
X83227584Y-135710431D01*
X83285472Y-135357331D01*
X83285473Y-135357314D01*
X83304847Y-135000002D01*
X83304847Y-134999997D01*
X83285473Y-134642685D01*
X83285472Y-134642668D01*
X83227584Y-134289568D01*
X83227578Y-134289542D01*
X83131852Y-133944767D01*
X83131850Y-133944760D01*
X82999402Y-133612340D01*
X82999393Y-133612322D01*
X82831781Y-133296172D01*
X82630966Y-132999992D01*
X82503557Y-132849995D01*
X82503556Y-132849994D01*
X81297732Y-134055818D01*
X81134870Y-133865130D01*
X80944180Y-133702266D01*
X82152743Y-132493703D01*
X82152742Y-132493702D01*
X82139514Y-132481171D01*
X82139513Y-132481170D01*
X81854632Y-132264611D01*
X81854629Y-132264609D01*
X81548009Y-132080123D01*
X81223260Y-131929877D01*
X81223255Y-131929876D01*
X80884144Y-131815616D01*
X80534660Y-131738688D01*
X80178924Y-131700000D01*
X79821075Y-131700000D01*
X79465339Y-131738688D01*
X79115855Y-131815616D01*
X78776744Y-131929876D01*
X78776739Y-131929877D01*
X78451990Y-132080123D01*
X78145370Y-132264609D01*
X78145367Y-132264611D01*
X77860491Y-132481166D01*
X77847256Y-132493703D01*
X77847255Y-132493703D01*
X79055819Y-133702266D01*
X78865130Y-133865130D01*
X78702266Y-134055818D01*
X77496442Y-132849994D01*
X77496441Y-132849995D01*
X77369040Y-132999983D01*
X77369033Y-132999993D01*
X77168218Y-133296172D01*
X77000606Y-133612322D01*
X77000597Y-133612340D01*
X76868149Y-133944760D01*
X76868147Y-133944767D01*
X76772421Y-134289542D01*
X76772415Y-134289568D01*
X76714527Y-134642668D01*
X76714526Y-134642685D01*
X76695153Y-134999997D01*
X76695153Y-135000002D01*
X71133500Y-135000002D01*
X71133500Y-134359132D01*
X71135239Y-134343380D01*
X71134968Y-134343355D01*
X71135702Y-134335593D01*
X71133531Y-134266495D01*
X71133500Y-134264547D01*
X71133500Y-134235647D01*
X71133488Y-134235552D01*
X71132614Y-134228641D01*
X71132157Y-134222822D01*
X71130674Y-134175611D01*
X71124976Y-134155999D01*
X71121033Y-134136966D01*
X71118474Y-134116703D01*
X71101085Y-134072786D01*
X71099196Y-134067266D01*
X71086018Y-134021907D01*
X71075626Y-134004335D01*
X71067066Y-133986862D01*
X71059552Y-133967883D01*
X71031794Y-133929679D01*
X71028587Y-133924796D01*
X71018873Y-133908371D01*
X71004542Y-133884138D01*
X70990108Y-133869704D01*
X70977471Y-133854909D01*
X70965472Y-133838393D01*
X70965470Y-133838390D01*
X70929073Y-133808281D01*
X70924751Y-133804347D01*
X69696620Y-132576215D01*
X69663135Y-132514892D01*
X69660982Y-132501512D01*
X69643542Y-132335572D01*
X69584527Y-132153944D01*
X69489040Y-131988556D01*
X69361253Y-131846634D01*
X69206752Y-131734382D01*
X69032288Y-131656706D01*
X69032286Y-131656705D01*
X68845487Y-131617000D01*
X68654513Y-131617000D01*
X68467714Y-131656705D01*
X68293246Y-131734383D01*
X68138745Y-131846635D01*
X68010959Y-131988557D01*
X67915473Y-132153943D01*
X67915470Y-132153950D01*
X67861149Y-132321134D01*
X67856458Y-132335572D01*
X67836496Y-132525500D01*
X67856458Y-132715428D01*
X67856459Y-132715431D01*
X67915470Y-132897049D01*
X67915473Y-132897056D01*
X67926122Y-132915500D01*
X67942595Y-132983400D01*
X67919742Y-133049427D01*
X67864821Y-133092618D01*
X67818735Y-133101500D01*
X67349462Y-133101500D01*
X67349446Y-133101501D01*
X67245572Y-133112113D01*
X67077264Y-133167884D01*
X67077259Y-133167886D01*
X66926346Y-133260971D01*
X66800971Y-133386346D01*
X66707886Y-133537259D01*
X66707882Y-133537268D01*
X66707749Y-133537672D01*
X66707582Y-133537912D01*
X66704835Y-133543805D01*
X66703827Y-133543335D01*
X66667972Y-133595114D01*
X66603454Y-133621932D01*
X66534680Y-133609612D01*
X66498817Y-133582643D01*
X66487161Y-133569981D01*
X66383240Y-133457094D01*
X66383237Y-133457092D01*
X66383238Y-133457092D01*
X66205577Y-133318812D01*
X66205572Y-133318808D01*
X66007580Y-133211661D01*
X66007577Y-133211659D01*
X66007574Y-133211658D01*
X66007571Y-133211657D01*
X66007569Y-133211656D01*
X65794637Y-133138556D01*
X65572569Y-133101500D01*
X65347431Y-133101500D01*
X65125362Y-133138556D01*
X64912430Y-133211656D01*
X64912419Y-133211661D01*
X64714427Y-133318808D01*
X64714422Y-133318812D01*
X64536761Y-133457092D01*
X64536756Y-133457097D01*
X64384284Y-133622723D01*
X64384276Y-133622734D01*
X64293807Y-133761206D01*
X64240660Y-133806563D01*
X64171429Y-133815986D01*
X64108093Y-133786483D01*
X64086191Y-133761206D01*
X63995722Y-133622732D01*
X63995717Y-133622727D01*
X63995715Y-133622723D01*
X63843243Y-133457097D01*
X63843238Y-133457092D01*
X63665577Y-133318812D01*
X63665572Y-133318808D01*
X63467580Y-133211661D01*
X63467577Y-133211659D01*
X63467574Y-133211658D01*
X63467571Y-133211657D01*
X63467569Y-133211656D01*
X63254637Y-133138556D01*
X63032569Y-133101500D01*
X62807431Y-133101500D01*
X62585362Y-133138556D01*
X62372430Y-133211656D01*
X62372419Y-133211661D01*
X62174427Y-133318808D01*
X62174422Y-133318812D01*
X61996761Y-133457092D01*
X61996756Y-133457097D01*
X61844284Y-133622723D01*
X61844276Y-133622734D01*
X61753807Y-133761206D01*
X61700660Y-133806563D01*
X61631429Y-133815986D01*
X61568093Y-133786483D01*
X61546191Y-133761206D01*
X61455722Y-133622732D01*
X61455717Y-133622727D01*
X61455715Y-133622723D01*
X61303243Y-133457097D01*
X61303238Y-133457092D01*
X61125577Y-133318812D01*
X61125572Y-133318808D01*
X60927580Y-133211661D01*
X60927577Y-133211659D01*
X60927574Y-133211658D01*
X60927571Y-133211657D01*
X60927569Y-133211656D01*
X60714637Y-133138556D01*
X60492569Y-133101500D01*
X60267431Y-133101500D01*
X60045362Y-133138556D01*
X59832430Y-133211656D01*
X59832419Y-133211661D01*
X59634427Y-133318808D01*
X59634422Y-133318812D01*
X59456761Y-133457092D01*
X59456756Y-133457097D01*
X59304284Y-133622723D01*
X59304276Y-133622734D01*
X59213807Y-133761206D01*
X59160660Y-133806563D01*
X59091429Y-133815986D01*
X59028093Y-133786483D01*
X59006191Y-133761206D01*
X58915722Y-133622732D01*
X58915717Y-133622727D01*
X58915715Y-133622723D01*
X58763243Y-133457097D01*
X58763238Y-133457092D01*
X58585577Y-133318812D01*
X58585572Y-133318808D01*
X58387580Y-133211661D01*
X58387577Y-133211659D01*
X58387574Y-133211658D01*
X58387571Y-133211657D01*
X58387569Y-133211656D01*
X58174637Y-133138556D01*
X57952569Y-133101500D01*
X57727431Y-133101500D01*
X57505362Y-133138556D01*
X57292430Y-133211656D01*
X57292419Y-133211661D01*
X57094427Y-133318808D01*
X57094422Y-133318812D01*
X56916761Y-133457092D01*
X56916756Y-133457097D01*
X56764284Y-133622723D01*
X56764276Y-133622734D01*
X56641140Y-133811207D01*
X56550703Y-134017385D01*
X56495436Y-134235628D01*
X56495434Y-134235640D01*
X56476844Y-134459994D01*
X56476844Y-134460005D01*
X48255526Y-134460005D01*
X48227584Y-134289568D01*
X48227578Y-134289542D01*
X48131852Y-133944767D01*
X48131850Y-133944760D01*
X47999402Y-133612340D01*
X47999393Y-133612322D01*
X47831781Y-133296172D01*
X47630966Y-132999992D01*
X47503557Y-132849995D01*
X47503556Y-132849994D01*
X46297732Y-134055818D01*
X46134870Y-133865130D01*
X45944179Y-133702266D01*
X47152743Y-132493703D01*
X47152742Y-132493702D01*
X47139514Y-132481171D01*
X47139513Y-132481170D01*
X46854632Y-132264611D01*
X46854629Y-132264609D01*
X46548009Y-132080123D01*
X46223260Y-131929877D01*
X46223255Y-131929876D01*
X45884144Y-131815616D01*
X45534660Y-131738688D01*
X45178924Y-131700000D01*
X44821075Y-131700000D01*
X44465339Y-131738688D01*
X44115855Y-131815616D01*
X43776744Y-131929876D01*
X43776739Y-131929877D01*
X43451990Y-132080123D01*
X43145370Y-132264609D01*
X43145367Y-132264611D01*
X42860491Y-132481166D01*
X42847256Y-132493703D01*
X42847255Y-132493704D01*
X44055818Y-133702267D01*
X43865130Y-133865130D01*
X43702266Y-134055819D01*
X42496442Y-132849994D01*
X42496441Y-132849995D01*
X42369040Y-132999983D01*
X42369033Y-132999993D01*
X42168218Y-133296172D01*
X42000606Y-133612322D01*
X42000597Y-133612340D01*
X41868149Y-133944760D01*
X41868147Y-133944767D01*
X41772421Y-134289542D01*
X41772415Y-134289568D01*
X41714527Y-134642668D01*
X41714526Y-134642685D01*
X41695153Y-134999997D01*
X41695153Y-135000002D01*
X40000500Y-135000002D01*
X40000500Y-130162500D01*
X40020185Y-130095461D01*
X40072989Y-130049706D01*
X40124500Y-130038500D01*
X159875500Y-130038500D01*
X159942539Y-130058185D01*
G37*
%TD.AperFunction*%
%TD*%
M02*
