%TF.GenerationSoftware,KiCad,Pcbnew,7.0.5*%
%TF.CreationDate,2023-07-07T19:02:23+02:00*%
%TF.ProjectId,Processor_Board,50726f63-6573-4736-9f72-5f426f617264,rev?*%
%TF.SameCoordinates,Original*%
%TF.FileFunction,Drillmap*%
%TF.FilePolarity,Positive*%
%FSLAX45Y45*%
G04 Gerber Fmt 4.5, Leading zero omitted, Abs format (unit mm)*
G04 Created by KiCad (PCBNEW 7.0.5) date 2023-07-07 19:02:23*
%MOMM*%
%LPD*%
G01*
G04 APERTURE LIST*
%ADD10C,0.100000*%
%ADD11C,0.200000*%
%ADD12C,0.350000*%
G04 APERTURE END LIST*
D10*
X4000000Y-15000000D02*
G75*
G03*
X4425000Y-15425000I425000J0D01*
G01*
X13499480Y-17425520D02*
G75*
G03*
X13074480Y-17000520I-425000J0D01*
G01*
X13500000Y-18975000D02*
G75*
G03*
X13925000Y-19400000I425000J0D01*
G01*
X4000000Y-13003800D02*
X4000000Y-15000000D01*
X16000000Y-13003800D02*
X4000000Y-13003800D01*
X16000000Y-19400000D02*
X16000000Y-13003800D01*
X13925000Y-19400000D02*
X16000000Y-19400000D01*
X13499480Y-17425520D02*
X13500000Y-18975000D01*
X10025000Y-17000000D02*
X13074480Y-17000520D01*
X7225000Y-15425000D02*
X10025000Y-17000000D01*
X4425000Y-15425000D02*
X7225000Y-15425000D01*
D11*
D12*
X15368000Y-14425000D02*
X15718000Y-14775000D01*
X15718000Y-14425000D02*
X15368000Y-14775000D01*
D11*
X4255777Y-19716484D02*
X4255777Y-19516484D01*
X4255777Y-19516484D02*
X4303396Y-19516484D01*
X4303396Y-19516484D02*
X4331967Y-19526008D01*
X4331967Y-19526008D02*
X4351015Y-19545055D01*
X4351015Y-19545055D02*
X4360539Y-19564103D01*
X4360539Y-19564103D02*
X4370063Y-19602198D01*
X4370063Y-19602198D02*
X4370063Y-19630770D01*
X4370063Y-19630770D02*
X4360539Y-19668865D01*
X4360539Y-19668865D02*
X4351015Y-19687912D01*
X4351015Y-19687912D02*
X4331967Y-19706960D01*
X4331967Y-19706960D02*
X4303396Y-19716484D01*
X4303396Y-19716484D02*
X4255777Y-19716484D01*
X4455777Y-19716484D02*
X4455777Y-19583150D01*
X4455777Y-19621246D02*
X4465301Y-19602198D01*
X4465301Y-19602198D02*
X4474824Y-19592674D01*
X4474824Y-19592674D02*
X4493872Y-19583150D01*
X4493872Y-19583150D02*
X4512920Y-19583150D01*
X4579586Y-19716484D02*
X4579586Y-19583150D01*
X4579586Y-19516484D02*
X4570063Y-19526008D01*
X4570063Y-19526008D02*
X4579586Y-19535531D01*
X4579586Y-19535531D02*
X4589110Y-19526008D01*
X4589110Y-19526008D02*
X4579586Y-19516484D01*
X4579586Y-19516484D02*
X4579586Y-19535531D01*
X4703396Y-19716484D02*
X4684348Y-19706960D01*
X4684348Y-19706960D02*
X4674824Y-19687912D01*
X4674824Y-19687912D02*
X4674824Y-19516484D01*
X4808158Y-19716484D02*
X4789110Y-19706960D01*
X4789110Y-19706960D02*
X4779586Y-19687912D01*
X4779586Y-19687912D02*
X4779586Y-19516484D01*
X5036729Y-19716484D02*
X5036729Y-19516484D01*
X5036729Y-19516484D02*
X5103396Y-19659341D01*
X5103396Y-19659341D02*
X5170063Y-19516484D01*
X5170063Y-19516484D02*
X5170063Y-19716484D01*
X5351015Y-19716484D02*
X5351015Y-19611722D01*
X5351015Y-19611722D02*
X5341491Y-19592674D01*
X5341491Y-19592674D02*
X5322444Y-19583150D01*
X5322444Y-19583150D02*
X5284348Y-19583150D01*
X5284348Y-19583150D02*
X5265301Y-19592674D01*
X5351015Y-19706960D02*
X5331967Y-19716484D01*
X5331967Y-19716484D02*
X5284348Y-19716484D01*
X5284348Y-19716484D02*
X5265301Y-19706960D01*
X5265301Y-19706960D02*
X5255777Y-19687912D01*
X5255777Y-19687912D02*
X5255777Y-19668865D01*
X5255777Y-19668865D02*
X5265301Y-19649817D01*
X5265301Y-19649817D02*
X5284348Y-19640293D01*
X5284348Y-19640293D02*
X5331967Y-19640293D01*
X5331967Y-19640293D02*
X5351015Y-19630770D01*
X5446253Y-19583150D02*
X5446253Y-19783150D01*
X5446253Y-19592674D02*
X5465301Y-19583150D01*
X5465301Y-19583150D02*
X5503396Y-19583150D01*
X5503396Y-19583150D02*
X5522444Y-19592674D01*
X5522444Y-19592674D02*
X5531967Y-19602198D01*
X5531967Y-19602198D02*
X5541491Y-19621246D01*
X5541491Y-19621246D02*
X5541491Y-19678389D01*
X5541491Y-19678389D02*
X5531967Y-19697436D01*
X5531967Y-19697436D02*
X5522444Y-19706960D01*
X5522444Y-19706960D02*
X5503396Y-19716484D01*
X5503396Y-19716484D02*
X5465301Y-19716484D01*
X5465301Y-19716484D02*
X5446253Y-19706960D01*
X5627205Y-19697436D02*
X5636729Y-19706960D01*
X5636729Y-19706960D02*
X5627205Y-19716484D01*
X5627205Y-19716484D02*
X5617682Y-19706960D01*
X5617682Y-19706960D02*
X5627205Y-19697436D01*
X5627205Y-19697436D02*
X5627205Y-19716484D01*
X5627205Y-19592674D02*
X5636729Y-19602198D01*
X5636729Y-19602198D02*
X5627205Y-19611722D01*
X5627205Y-19611722D02*
X5617682Y-19602198D01*
X5617682Y-19602198D02*
X5627205Y-19592674D01*
X5627205Y-19592674D02*
X5627205Y-19611722D01*
X3795000Y-19945000D02*
X3995000Y-20145000D01*
X3995000Y-19945000D02*
X3795000Y-20145000D01*
X4236729Y-19936484D02*
X4360539Y-19936484D01*
X4360539Y-19936484D02*
X4293872Y-20012674D01*
X4293872Y-20012674D02*
X4322444Y-20012674D01*
X4322444Y-20012674D02*
X4341491Y-20022198D01*
X4341491Y-20022198D02*
X4351015Y-20031722D01*
X4351015Y-20031722D02*
X4360539Y-20050770D01*
X4360539Y-20050770D02*
X4360539Y-20098389D01*
X4360539Y-20098389D02*
X4351015Y-20117436D01*
X4351015Y-20117436D02*
X4341491Y-20126960D01*
X4341491Y-20126960D02*
X4322444Y-20136484D01*
X4322444Y-20136484D02*
X4265301Y-20136484D01*
X4265301Y-20136484D02*
X4246253Y-20126960D01*
X4246253Y-20126960D02*
X4236729Y-20117436D01*
X4446253Y-20117436D02*
X4455777Y-20126960D01*
X4455777Y-20126960D02*
X4446253Y-20136484D01*
X4446253Y-20136484D02*
X4436729Y-20126960D01*
X4436729Y-20126960D02*
X4446253Y-20117436D01*
X4446253Y-20117436D02*
X4446253Y-20136484D01*
X4636729Y-19936484D02*
X4541491Y-19936484D01*
X4541491Y-19936484D02*
X4531967Y-20031722D01*
X4531967Y-20031722D02*
X4541491Y-20022198D01*
X4541491Y-20022198D02*
X4560539Y-20012674D01*
X4560539Y-20012674D02*
X4608158Y-20012674D01*
X4608158Y-20012674D02*
X4627205Y-20022198D01*
X4627205Y-20022198D02*
X4636729Y-20031722D01*
X4636729Y-20031722D02*
X4646253Y-20050770D01*
X4646253Y-20050770D02*
X4646253Y-20098389D01*
X4646253Y-20098389D02*
X4636729Y-20117436D01*
X4636729Y-20117436D02*
X4627205Y-20126960D01*
X4627205Y-20126960D02*
X4608158Y-20136484D01*
X4608158Y-20136484D02*
X4560539Y-20136484D01*
X4560539Y-20136484D02*
X4541491Y-20126960D01*
X4541491Y-20126960D02*
X4531967Y-20117436D01*
X4770063Y-19936484D02*
X4789110Y-19936484D01*
X4789110Y-19936484D02*
X4808158Y-19946008D01*
X4808158Y-19946008D02*
X4817682Y-19955531D01*
X4817682Y-19955531D02*
X4827205Y-19974579D01*
X4827205Y-19974579D02*
X4836729Y-20012674D01*
X4836729Y-20012674D02*
X4836729Y-20060293D01*
X4836729Y-20060293D02*
X4827205Y-20098389D01*
X4827205Y-20098389D02*
X4817682Y-20117436D01*
X4817682Y-20117436D02*
X4808158Y-20126960D01*
X4808158Y-20126960D02*
X4789110Y-20136484D01*
X4789110Y-20136484D02*
X4770063Y-20136484D01*
X4770063Y-20136484D02*
X4751015Y-20126960D01*
X4751015Y-20126960D02*
X4741491Y-20117436D01*
X4741491Y-20117436D02*
X4731967Y-20098389D01*
X4731967Y-20098389D02*
X4722444Y-20060293D01*
X4722444Y-20060293D02*
X4722444Y-20012674D01*
X4722444Y-20012674D02*
X4731967Y-19974579D01*
X4731967Y-19974579D02*
X4741491Y-19955531D01*
X4741491Y-19955531D02*
X4751015Y-19946008D01*
X4751015Y-19946008D02*
X4770063Y-19936484D01*
X4960539Y-19936484D02*
X4979586Y-19936484D01*
X4979586Y-19936484D02*
X4998634Y-19946008D01*
X4998634Y-19946008D02*
X5008158Y-19955531D01*
X5008158Y-19955531D02*
X5017682Y-19974579D01*
X5017682Y-19974579D02*
X5027205Y-20012674D01*
X5027205Y-20012674D02*
X5027205Y-20060293D01*
X5027205Y-20060293D02*
X5017682Y-20098389D01*
X5017682Y-20098389D02*
X5008158Y-20117436D01*
X5008158Y-20117436D02*
X4998634Y-20126960D01*
X4998634Y-20126960D02*
X4979586Y-20136484D01*
X4979586Y-20136484D02*
X4960539Y-20136484D01*
X4960539Y-20136484D02*
X4941491Y-20126960D01*
X4941491Y-20126960D02*
X4931967Y-20117436D01*
X4931967Y-20117436D02*
X4922444Y-20098389D01*
X4922444Y-20098389D02*
X4912920Y-20060293D01*
X4912920Y-20060293D02*
X4912920Y-20012674D01*
X4912920Y-20012674D02*
X4922444Y-19974579D01*
X4922444Y-19974579D02*
X4931967Y-19955531D01*
X4931967Y-19955531D02*
X4941491Y-19946008D01*
X4941491Y-19946008D02*
X4960539Y-19936484D01*
X5112920Y-20136484D02*
X5112920Y-20003150D01*
X5112920Y-20022198D02*
X5122444Y-20012674D01*
X5122444Y-20012674D02*
X5141491Y-20003150D01*
X5141491Y-20003150D02*
X5170063Y-20003150D01*
X5170063Y-20003150D02*
X5189110Y-20012674D01*
X5189110Y-20012674D02*
X5198634Y-20031722D01*
X5198634Y-20031722D02*
X5198634Y-20136484D01*
X5198634Y-20031722D02*
X5208158Y-20012674D01*
X5208158Y-20012674D02*
X5227205Y-20003150D01*
X5227205Y-20003150D02*
X5255777Y-20003150D01*
X5255777Y-20003150D02*
X5274825Y-20012674D01*
X5274825Y-20012674D02*
X5284348Y-20031722D01*
X5284348Y-20031722D02*
X5284348Y-20136484D01*
X5379586Y-20136484D02*
X5379586Y-20003150D01*
X5379586Y-20022198D02*
X5389110Y-20012674D01*
X5389110Y-20012674D02*
X5408158Y-20003150D01*
X5408158Y-20003150D02*
X5436729Y-20003150D01*
X5436729Y-20003150D02*
X5455777Y-20012674D01*
X5455777Y-20012674D02*
X5465301Y-20031722D01*
X5465301Y-20031722D02*
X5465301Y-20136484D01*
X5465301Y-20031722D02*
X5474825Y-20012674D01*
X5474825Y-20012674D02*
X5493872Y-20003150D01*
X5493872Y-20003150D02*
X5522444Y-20003150D01*
X5522444Y-20003150D02*
X5541491Y-20012674D01*
X5541491Y-20012674D02*
X5551015Y-20031722D01*
X5551015Y-20031722D02*
X5551015Y-20136484D01*
X5941491Y-19926960D02*
X5770063Y-20184103D01*
X6198634Y-19936484D02*
X6217682Y-19936484D01*
X6217682Y-19936484D02*
X6236729Y-19946008D01*
X6236729Y-19946008D02*
X6246253Y-19955531D01*
X6246253Y-19955531D02*
X6255777Y-19974579D01*
X6255777Y-19974579D02*
X6265301Y-20012674D01*
X6265301Y-20012674D02*
X6265301Y-20060293D01*
X6265301Y-20060293D02*
X6255777Y-20098389D01*
X6255777Y-20098389D02*
X6246253Y-20117436D01*
X6246253Y-20117436D02*
X6236729Y-20126960D01*
X6236729Y-20126960D02*
X6217682Y-20136484D01*
X6217682Y-20136484D02*
X6198634Y-20136484D01*
X6198634Y-20136484D02*
X6179586Y-20126960D01*
X6179586Y-20126960D02*
X6170063Y-20117436D01*
X6170063Y-20117436D02*
X6160539Y-20098389D01*
X6160539Y-20098389D02*
X6151015Y-20060293D01*
X6151015Y-20060293D02*
X6151015Y-20012674D01*
X6151015Y-20012674D02*
X6160539Y-19974579D01*
X6160539Y-19974579D02*
X6170063Y-19955531D01*
X6170063Y-19955531D02*
X6179586Y-19946008D01*
X6179586Y-19946008D02*
X6198634Y-19936484D01*
X6351015Y-20117436D02*
X6360539Y-20126960D01*
X6360539Y-20126960D02*
X6351015Y-20136484D01*
X6351015Y-20136484D02*
X6341491Y-20126960D01*
X6341491Y-20126960D02*
X6351015Y-20117436D01*
X6351015Y-20117436D02*
X6351015Y-20136484D01*
X6551015Y-20136484D02*
X6436729Y-20136484D01*
X6493872Y-20136484D02*
X6493872Y-19936484D01*
X6493872Y-19936484D02*
X6474825Y-19965055D01*
X6474825Y-19965055D02*
X6455777Y-19984103D01*
X6455777Y-19984103D02*
X6436729Y-19993627D01*
X6617682Y-19936484D02*
X6741491Y-19936484D01*
X6741491Y-19936484D02*
X6674825Y-20012674D01*
X6674825Y-20012674D02*
X6703396Y-20012674D01*
X6703396Y-20012674D02*
X6722444Y-20022198D01*
X6722444Y-20022198D02*
X6731967Y-20031722D01*
X6731967Y-20031722D02*
X6741491Y-20050770D01*
X6741491Y-20050770D02*
X6741491Y-20098389D01*
X6741491Y-20098389D02*
X6731967Y-20117436D01*
X6731967Y-20117436D02*
X6722444Y-20126960D01*
X6722444Y-20126960D02*
X6703396Y-20136484D01*
X6703396Y-20136484D02*
X6646253Y-20136484D01*
X6646253Y-20136484D02*
X6627206Y-20126960D01*
X6627206Y-20126960D02*
X6617682Y-20117436D01*
X6808158Y-19936484D02*
X6941491Y-19936484D01*
X6941491Y-19936484D02*
X6855777Y-20136484D01*
X7046253Y-20022198D02*
X7027206Y-20012674D01*
X7027206Y-20012674D02*
X7017682Y-20003150D01*
X7017682Y-20003150D02*
X7008158Y-19984103D01*
X7008158Y-19984103D02*
X7008158Y-19974579D01*
X7008158Y-19974579D02*
X7017682Y-19955531D01*
X7017682Y-19955531D02*
X7027206Y-19946008D01*
X7027206Y-19946008D02*
X7046253Y-19936484D01*
X7046253Y-19936484D02*
X7084348Y-19936484D01*
X7084348Y-19936484D02*
X7103396Y-19946008D01*
X7103396Y-19946008D02*
X7112920Y-19955531D01*
X7112920Y-19955531D02*
X7122444Y-19974579D01*
X7122444Y-19974579D02*
X7122444Y-19984103D01*
X7122444Y-19984103D02*
X7112920Y-20003150D01*
X7112920Y-20003150D02*
X7103396Y-20012674D01*
X7103396Y-20012674D02*
X7084348Y-20022198D01*
X7084348Y-20022198D02*
X7046253Y-20022198D01*
X7046253Y-20022198D02*
X7027206Y-20031722D01*
X7027206Y-20031722D02*
X7017682Y-20041246D01*
X7017682Y-20041246D02*
X7008158Y-20060293D01*
X7008158Y-20060293D02*
X7008158Y-20098389D01*
X7008158Y-20098389D02*
X7017682Y-20117436D01*
X7017682Y-20117436D02*
X7027206Y-20126960D01*
X7027206Y-20126960D02*
X7046253Y-20136484D01*
X7046253Y-20136484D02*
X7084348Y-20136484D01*
X7084348Y-20136484D02*
X7103396Y-20126960D01*
X7103396Y-20126960D02*
X7112920Y-20117436D01*
X7112920Y-20117436D02*
X7122444Y-20098389D01*
X7122444Y-20098389D02*
X7122444Y-20060293D01*
X7122444Y-20060293D02*
X7112920Y-20041246D01*
X7112920Y-20041246D02*
X7103396Y-20031722D01*
X7103396Y-20031722D02*
X7084348Y-20022198D01*
X7198634Y-19936484D02*
X7198634Y-19974579D01*
X7274825Y-19936484D02*
X7274825Y-19974579D01*
X7570063Y-20212674D02*
X7560539Y-20203150D01*
X7560539Y-20203150D02*
X7541491Y-20174579D01*
X7541491Y-20174579D02*
X7531968Y-20155531D01*
X7531968Y-20155531D02*
X7522444Y-20126960D01*
X7522444Y-20126960D02*
X7512920Y-20079341D01*
X7512920Y-20079341D02*
X7512920Y-20041246D01*
X7512920Y-20041246D02*
X7522444Y-19993627D01*
X7522444Y-19993627D02*
X7531968Y-19965055D01*
X7531968Y-19965055D02*
X7541491Y-19946008D01*
X7541491Y-19946008D02*
X7560539Y-19917436D01*
X7560539Y-19917436D02*
X7570063Y-19907912D01*
X7751015Y-20136484D02*
X7636729Y-20136484D01*
X7693872Y-20136484D02*
X7693872Y-19936484D01*
X7693872Y-19936484D02*
X7674825Y-19965055D01*
X7674825Y-19965055D02*
X7655777Y-19984103D01*
X7655777Y-19984103D02*
X7636729Y-19993627D01*
X7989110Y-20136484D02*
X7989110Y-19936484D01*
X8074825Y-20136484D02*
X8074825Y-20031722D01*
X8074825Y-20031722D02*
X8065301Y-20012674D01*
X8065301Y-20012674D02*
X8046253Y-20003150D01*
X8046253Y-20003150D02*
X8017682Y-20003150D01*
X8017682Y-20003150D02*
X7998634Y-20012674D01*
X7998634Y-20012674D02*
X7989110Y-20022198D01*
X8198634Y-20136484D02*
X8179587Y-20126960D01*
X8179587Y-20126960D02*
X8170063Y-20117436D01*
X8170063Y-20117436D02*
X8160539Y-20098389D01*
X8160539Y-20098389D02*
X8160539Y-20041246D01*
X8160539Y-20041246D02*
X8170063Y-20022198D01*
X8170063Y-20022198D02*
X8179587Y-20012674D01*
X8179587Y-20012674D02*
X8198634Y-20003150D01*
X8198634Y-20003150D02*
X8227206Y-20003150D01*
X8227206Y-20003150D02*
X8246253Y-20012674D01*
X8246253Y-20012674D02*
X8255777Y-20022198D01*
X8255777Y-20022198D02*
X8265301Y-20041246D01*
X8265301Y-20041246D02*
X8265301Y-20098389D01*
X8265301Y-20098389D02*
X8255777Y-20117436D01*
X8255777Y-20117436D02*
X8246253Y-20126960D01*
X8246253Y-20126960D02*
X8227206Y-20136484D01*
X8227206Y-20136484D02*
X8198634Y-20136484D01*
X8379587Y-20136484D02*
X8360539Y-20126960D01*
X8360539Y-20126960D02*
X8351015Y-20107912D01*
X8351015Y-20107912D02*
X8351015Y-19936484D01*
X8531968Y-20126960D02*
X8512920Y-20136484D01*
X8512920Y-20136484D02*
X8474825Y-20136484D01*
X8474825Y-20136484D02*
X8455777Y-20126960D01*
X8455777Y-20126960D02*
X8446253Y-20107912D01*
X8446253Y-20107912D02*
X8446253Y-20031722D01*
X8446253Y-20031722D02*
X8455777Y-20012674D01*
X8455777Y-20012674D02*
X8474825Y-20003150D01*
X8474825Y-20003150D02*
X8512920Y-20003150D01*
X8512920Y-20003150D02*
X8531968Y-20012674D01*
X8531968Y-20012674D02*
X8541492Y-20031722D01*
X8541492Y-20031722D02*
X8541492Y-20050770D01*
X8541492Y-20050770D02*
X8446253Y-20069817D01*
X8608158Y-20212674D02*
X8617682Y-20203150D01*
X8617682Y-20203150D02*
X8636730Y-20174579D01*
X8636730Y-20174579D02*
X8646253Y-20155531D01*
X8646253Y-20155531D02*
X8655777Y-20126960D01*
X8655777Y-20126960D02*
X8665301Y-20079341D01*
X8665301Y-20079341D02*
X8665301Y-20041246D01*
X8665301Y-20041246D02*
X8655777Y-19993627D01*
X8655777Y-19993627D02*
X8646253Y-19965055D01*
X8646253Y-19965055D02*
X8636730Y-19946008D01*
X8636730Y-19946008D02*
X8617682Y-19917436D01*
X8617682Y-19917436D02*
X8608158Y-19907912D01*
X8970063Y-20212674D02*
X8960539Y-20203150D01*
X8960539Y-20203150D02*
X8941492Y-20174579D01*
X8941492Y-20174579D02*
X8931968Y-20155531D01*
X8931968Y-20155531D02*
X8922444Y-20126960D01*
X8922444Y-20126960D02*
X8912920Y-20079341D01*
X8912920Y-20079341D02*
X8912920Y-20041246D01*
X8912920Y-20041246D02*
X8922444Y-19993627D01*
X8922444Y-19993627D02*
X8931968Y-19965055D01*
X8931968Y-19965055D02*
X8941492Y-19946008D01*
X8941492Y-19946008D02*
X8960539Y-19917436D01*
X8960539Y-19917436D02*
X8970063Y-19907912D01*
X9046253Y-20003150D02*
X9046253Y-20136484D01*
X9046253Y-20022198D02*
X9055777Y-20012674D01*
X9055777Y-20012674D02*
X9074825Y-20003150D01*
X9074825Y-20003150D02*
X9103396Y-20003150D01*
X9103396Y-20003150D02*
X9122444Y-20012674D01*
X9122444Y-20012674D02*
X9131968Y-20031722D01*
X9131968Y-20031722D02*
X9131968Y-20136484D01*
X9255777Y-20136484D02*
X9236730Y-20126960D01*
X9236730Y-20126960D02*
X9227206Y-20117436D01*
X9227206Y-20117436D02*
X9217682Y-20098389D01*
X9217682Y-20098389D02*
X9217682Y-20041246D01*
X9217682Y-20041246D02*
X9227206Y-20022198D01*
X9227206Y-20022198D02*
X9236730Y-20012674D01*
X9236730Y-20012674D02*
X9255777Y-20003150D01*
X9255777Y-20003150D02*
X9284349Y-20003150D01*
X9284349Y-20003150D02*
X9303396Y-20012674D01*
X9303396Y-20012674D02*
X9312920Y-20022198D01*
X9312920Y-20022198D02*
X9322444Y-20041246D01*
X9322444Y-20041246D02*
X9322444Y-20098389D01*
X9322444Y-20098389D02*
X9312920Y-20117436D01*
X9312920Y-20117436D02*
X9303396Y-20126960D01*
X9303396Y-20126960D02*
X9284349Y-20136484D01*
X9284349Y-20136484D02*
X9255777Y-20136484D01*
X9379587Y-20003150D02*
X9455777Y-20003150D01*
X9408158Y-19936484D02*
X9408158Y-20107912D01*
X9408158Y-20107912D02*
X9417682Y-20126960D01*
X9417682Y-20126960D02*
X9436730Y-20136484D01*
X9436730Y-20136484D02*
X9455777Y-20136484D01*
X9674825Y-20003150D02*
X9674825Y-20203150D01*
X9674825Y-20012674D02*
X9693873Y-20003150D01*
X9693873Y-20003150D02*
X9731968Y-20003150D01*
X9731968Y-20003150D02*
X9751015Y-20012674D01*
X9751015Y-20012674D02*
X9760539Y-20022198D01*
X9760539Y-20022198D02*
X9770063Y-20041246D01*
X9770063Y-20041246D02*
X9770063Y-20098389D01*
X9770063Y-20098389D02*
X9760539Y-20117436D01*
X9760539Y-20117436D02*
X9751015Y-20126960D01*
X9751015Y-20126960D02*
X9731968Y-20136484D01*
X9731968Y-20136484D02*
X9693873Y-20136484D01*
X9693873Y-20136484D02*
X9674825Y-20126960D01*
X9884349Y-20136484D02*
X9865301Y-20126960D01*
X9865301Y-20126960D02*
X9855777Y-20107912D01*
X9855777Y-20107912D02*
X9855777Y-19936484D01*
X10046254Y-20136484D02*
X10046254Y-20031722D01*
X10046254Y-20031722D02*
X10036730Y-20012674D01*
X10036730Y-20012674D02*
X10017682Y-20003150D01*
X10017682Y-20003150D02*
X9979587Y-20003150D01*
X9979587Y-20003150D02*
X9960539Y-20012674D01*
X10046254Y-20126960D02*
X10027206Y-20136484D01*
X10027206Y-20136484D02*
X9979587Y-20136484D01*
X9979587Y-20136484D02*
X9960539Y-20126960D01*
X9960539Y-20126960D02*
X9951015Y-20107912D01*
X9951015Y-20107912D02*
X9951015Y-20088865D01*
X9951015Y-20088865D02*
X9960539Y-20069817D01*
X9960539Y-20069817D02*
X9979587Y-20060293D01*
X9979587Y-20060293D02*
X10027206Y-20060293D01*
X10027206Y-20060293D02*
X10046254Y-20050770D01*
X10112920Y-20003150D02*
X10189111Y-20003150D01*
X10141492Y-19936484D02*
X10141492Y-20107912D01*
X10141492Y-20107912D02*
X10151015Y-20126960D01*
X10151015Y-20126960D02*
X10170063Y-20136484D01*
X10170063Y-20136484D02*
X10189111Y-20136484D01*
X10331968Y-20126960D02*
X10312920Y-20136484D01*
X10312920Y-20136484D02*
X10274825Y-20136484D01*
X10274825Y-20136484D02*
X10255777Y-20126960D01*
X10255777Y-20126960D02*
X10246254Y-20107912D01*
X10246254Y-20107912D02*
X10246254Y-20031722D01*
X10246254Y-20031722D02*
X10255777Y-20012674D01*
X10255777Y-20012674D02*
X10274825Y-20003150D01*
X10274825Y-20003150D02*
X10312920Y-20003150D01*
X10312920Y-20003150D02*
X10331968Y-20012674D01*
X10331968Y-20012674D02*
X10341492Y-20031722D01*
X10341492Y-20031722D02*
X10341492Y-20050770D01*
X10341492Y-20050770D02*
X10246254Y-20069817D01*
X10512920Y-20136484D02*
X10512920Y-19936484D01*
X10512920Y-20126960D02*
X10493873Y-20136484D01*
X10493873Y-20136484D02*
X10455777Y-20136484D01*
X10455777Y-20136484D02*
X10436730Y-20126960D01*
X10436730Y-20126960D02*
X10427206Y-20117436D01*
X10427206Y-20117436D02*
X10417682Y-20098389D01*
X10417682Y-20098389D02*
X10417682Y-20041246D01*
X10417682Y-20041246D02*
X10427206Y-20022198D01*
X10427206Y-20022198D02*
X10436730Y-20012674D01*
X10436730Y-20012674D02*
X10455777Y-20003150D01*
X10455777Y-20003150D02*
X10493873Y-20003150D01*
X10493873Y-20003150D02*
X10512920Y-20012674D01*
X10589111Y-20212674D02*
X10598635Y-20203150D01*
X10598635Y-20203150D02*
X10617682Y-20174579D01*
X10617682Y-20174579D02*
X10627206Y-20155531D01*
X10627206Y-20155531D02*
X10636730Y-20126960D01*
X10636730Y-20126960D02*
X10646254Y-20079341D01*
X10646254Y-20079341D02*
X10646254Y-20041246D01*
X10646254Y-20041246D02*
X10636730Y-19993627D01*
X10636730Y-19993627D02*
X10627206Y-19965055D01*
X10627206Y-19965055D02*
X10617682Y-19946008D01*
X10617682Y-19946008D02*
X10598635Y-19917436D01*
X10598635Y-19917436D02*
X10589111Y-19907912D01*
M02*
