M48
; DRILL file {KiCad 7.0.5} date Fri Jul  7 19:02:21 2023
; FORMAT={-:-/ absolute / inch / decimal}
; #@! TF.CreationDate,2023-07-07T19:02:21+02:00
; #@! TF.GenerationSoftware,Kicad,Pcbnew,7.0.5
; #@! TF.FileFunction,Plated,1,2,PTH
FMAT,2
INCH
; #@! TA.AperFunction,Plated,PTH,ViaDrill
T1C0.0157
; #@! TA.AperFunction,Plated,PTH,ComponentDrill
T2C0.0295
; #@! TA.AperFunction,Plated,PTH,ComponentDrill
T3C0.0315
; #@! TA.AperFunction,Plated,PTH,ComponentDrill
T4C0.0394
; #@! TA.AperFunction,Plated,PTH,ComponentDrill
T5C0.0433
; #@! TA.AperFunction,Plated,PTH,ComponentDrill
T6C0.1260
%
G90
G05
T1
X2.7067Y-5.2175
X2.7756Y-5.3862
X3.6319Y-5.5423
X3.8735Y-6.4611
X3.8878Y-6.5157
X4.0256Y-5.9547
X4.124Y-5.935
X4.2126Y-5.9154
X4.2421Y-5.2362
X4.2421Y-6.565
X4.252Y-5.6791
X4.3012Y-6.1319
X4.6063Y-5.6594
X4.7047Y-6.6142
X4.7146Y-5.8465
X4.7441Y-5.5709
X4.7683Y-5.6024
X4.8031Y-5.6309
X4.813Y-5.8465
X4.8622Y-6.1614
X4.9114Y-5.6693
X4.9284Y-5.8366
X4.9606Y-5.6791
X5.0098Y-5.6693
X5.0197Y-6.1516
X5.0492Y-5.8169
X5.0668Y-5.8521
X5.0702Y-5.8913
X5.1072Y-5.9049
X5.1295Y-5.9373
X5.1969Y-5.6004
X5.2292Y-5.578
X5.4134Y-6.6205
T2
X5.5118Y-7.0366
X5.5118Y-7.0866
X5.5118Y-7.1366
T3
X3.189Y-5.8465
X3.189Y-5.9449
X3.7126Y-5.748
X3.7126Y-6.048
X3.8126Y-5.748
X3.8126Y-6.048
X3.9126Y-5.748
X3.9126Y-6.048
X4.0126Y-5.748
X4.0126Y-6.048
X4.1126Y-5.748
X4.1126Y-6.048
X4.1339Y-6.2008
X4.2126Y-5.748
X4.2126Y-6.048
X4.2953Y-6.3681
X4.3126Y-5.748
X4.3126Y-6.048
X4.3307Y-5.6299
X4.3307Y-6.2008
X4.4126Y-5.748
X4.4126Y-6.048
X4.4587Y-6.2008
X4.4882Y-6.3681
X4.5126Y-5.748
X4.5126Y-6.048
X4.5276Y-5.6299
X4.6126Y-5.748
X4.6126Y-6.048
X4.6555Y-6.2008
X4.7126Y-5.748
X4.7126Y-6.048
X4.8126Y-5.748
X4.8126Y-6.048
X4.9016Y-6.2181
X4.9016Y-6.5181
X4.9126Y-5.748
X4.9126Y-6.048
X5.0126Y-5.748
X5.0126Y-6.048
X5.0197Y-6.2181
X5.0197Y-6.5181
X5.1378Y-6.2181
X5.1378Y-6.5181
X5.315Y-5.6693
X5.315Y-5.8661
X5.4724Y-6.1811
X5.5709Y-6.1811
X5.748Y-6.8579
X5.748Y-7.1579
T4
X2.2772Y-5.2937
X2.2772Y-5.3937
X2.3772Y-5.2937
X2.3772Y-5.3937
X2.4772Y-5.2937
X2.4772Y-5.3937
X2.5772Y-5.2937
X2.5772Y-5.3937
X2.6772Y-5.2937
X2.6772Y-5.3937
X3.7969Y-5.2937
X3.7969Y-5.3937
X3.8969Y-5.2937
X3.8969Y-5.3937
X3.9969Y-5.2937
X3.9969Y-5.3937
X4.0969Y-5.2937
X4.0969Y-5.3937
X4.1969Y-5.2937
X4.1969Y-5.3937
X4.2969Y-5.2937
X4.2969Y-5.3937
X4.3969Y-5.2937
X4.3969Y-5.3937
X4.4969Y-5.2937
X4.4969Y-5.3937
X4.5969Y-5.2937
X4.5969Y-5.3937
X4.6969Y-5.2937
X4.6969Y-5.3937
X4.7969Y-5.2937
X4.7969Y-5.3937
X4.8969Y-5.2937
X4.8969Y-5.3937
X4.9969Y-5.2937
X4.9969Y-5.3937
X5.0969Y-5.2937
X5.0969Y-5.3937
X5.1969Y-5.2937
X5.1969Y-5.3937
X6.0024Y-6.4504
X6.0024Y-6.5504
X6.0024Y-6.6504
X6.0024Y-6.7504
X6.0024Y-6.8504
X6.1024Y-6.4504
X6.1024Y-6.5504
X6.1024Y-6.6504
X6.1024Y-6.7504
X6.1024Y-6.8504
T5
X5.4634Y-5.648
X5.4634Y-5.748
X5.4634Y-5.848
T6
X1.7717Y-5.315
X3.1496Y-5.315
X6.1024Y-5.315
X6.1024Y-7.4803
T0
M30
