%TF.GenerationSoftware,KiCad,Pcbnew,7.0.5*%
%TF.CreationDate,2023-07-07T19:02:18+02:00*%
%TF.ProjectId,Processor_Board,50726f63-6573-4736-9f72-5f426f617264,rev?*%
%TF.SameCoordinates,Original*%
%TF.FileFunction,Copper,L2,Bot*%
%TF.FilePolarity,Positive*%
%FSLAX46Y46*%
G04 Gerber Fmt 4.6, Leading zero omitted, Abs format (unit mm)*
G04 Created by KiCad (PCBNEW 7.0.5) date 2023-07-07 19:02:18*
%MOMM*%
%LPD*%
G01*
G04 APERTURE LIST*
G04 Aperture macros list*
%AMRoundRect*
0 Rectangle with rounded corners*
0 $1 Rounding radius*
0 $2 $3 $4 $5 $6 $7 $8 $9 X,Y pos of 4 corners*
0 Add a 4 corners polygon primitive as box body*
4,1,4,$2,$3,$4,$5,$6,$7,$8,$9,$2,$3,0*
0 Add four circle primitives for the rounded corners*
1,1,$1+$1,$2,$3*
1,1,$1+$1,$4,$5*
1,1,$1+$1,$6,$7*
1,1,$1+$1,$8,$9*
0 Add four rect primitives between the rounded corners*
20,1,$1+$1,$2,$3,$4,$5,0*
20,1,$1+$1,$4,$5,$6,$7,0*
20,1,$1+$1,$6,$7,$8,$9,0*
20,1,$1+$1,$8,$9,$2,$3,0*%
G04 Aperture macros list end*
%TA.AperFunction,ComponentPad*%
%ADD10C,5.600000*%
%TD*%
%TA.AperFunction,ComponentPad*%
%ADD11C,1.600000*%
%TD*%
%TA.AperFunction,ComponentPad*%
%ADD12O,1.600000X1.600000*%
%TD*%
%TA.AperFunction,ComponentPad*%
%ADD13R,1.500000X1.050000*%
%TD*%
%TA.AperFunction,ComponentPad*%
%ADD14O,1.500000X1.050000*%
%TD*%
%TA.AperFunction,ComponentPad*%
%ADD15R,1.600000X1.600000*%
%TD*%
%TA.AperFunction,ComponentPad*%
%ADD16RoundRect,0.250000X-0.600000X0.600000X-0.600000X-0.600000X0.600000X-0.600000X0.600000X0.600000X0*%
%TD*%
%TA.AperFunction,ComponentPad*%
%ADD17C,1.700000*%
%TD*%
%TA.AperFunction,ComponentPad*%
%ADD18RoundRect,0.250000X-0.600000X-0.600000X0.600000X-0.600000X0.600000X0.600000X-0.600000X0.600000X0*%
%TD*%
%TA.AperFunction,ComponentPad*%
%ADD19C,1.500000*%
%TD*%
%TA.AperFunction,ComponentPad*%
%ADD20R,2.000000X1.905000*%
%TD*%
%TA.AperFunction,ComponentPad*%
%ADD21O,2.000000X1.905000*%
%TD*%
%TA.AperFunction,ComponentPad*%
%ADD22R,1.600000X2.400000*%
%TD*%
%TA.AperFunction,ComponentPad*%
%ADD23O,1.600000X2.400000*%
%TD*%
%TA.AperFunction,ViaPad*%
%ADD24C,0.800000*%
%TD*%
%TA.AperFunction,Conductor*%
%ADD25C,0.250000*%
%TD*%
%TA.AperFunction,Conductor*%
%ADD26C,1.000000*%
%TD*%
G04 APERTURE END LIST*
D10*
%TO.P,H6,1,1*%
%TO.N,GND*%
X80000000Y-135000000D03*
%TD*%
D11*
%TO.P,R2,1*%
%TO.N,MATRIX_B*%
X127500000Y-157940000D03*
D12*
%TO.P,R2,2*%
%TO.N,GND*%
X127500000Y-165560000D03*
%TD*%
D11*
%TO.P,R8,1*%
%TO.N,\u005CEVNT*%
X146000000Y-174190000D03*
D12*
%TO.P,R8,2*%
%TO.N,Net-(Q1-C)*%
X146000000Y-181810000D03*
%TD*%
D11*
%TO.P,R7,1*%
%TO.N,MATRIX_C*%
X124500000Y-157940000D03*
D12*
%TO.P,R7,2*%
%TO.N,GND*%
X124500000Y-165560000D03*
%TD*%
D11*
%TO.P,R1,1*%
%TO.N,MATRIX_A*%
X130500000Y-157940000D03*
D12*
%TO.P,R1,2*%
%TO.N,GND*%
X130500000Y-165560000D03*
%TD*%
D13*
%TO.P,Q1,1,E*%
%TO.N,GND*%
X140000000Y-178730000D03*
D14*
%TO.P,Q1,2,B*%
%TO.N,ICSP2_SCK*%
X140000000Y-180000000D03*
%TO.P,Q1,3,C*%
%TO.N,Net-(Q1-C)*%
X140000000Y-181270000D03*
%TD*%
D10*
%TO.P,H8,1,1*%
%TO.N,GND*%
X155000000Y-190000000D03*
%TD*%
%TO.P,H6,1,1*%
%TO.N,GND*%
X155000000Y-135000000D03*
%TD*%
D15*
%TO.P,C10,1*%
%TO.N,+5VA*%
X139000000Y-157000000D03*
D11*
%TO.P,C10,2*%
%TO.N,GND*%
X141500000Y-157000000D03*
%TD*%
%TO.P,C9,1*%
%TO.N,+5VA*%
X135000000Y-149000000D03*
%TO.P,C9,2*%
%TO.N,GND*%
X135000000Y-144000000D03*
%TD*%
D16*
%TO.P,J1,1,Pin_1*%
%TO.N,ICSP2_MISO*%
X132000000Y-134460000D03*
D17*
%TO.P,J1,2,Pin_2*%
%TO.N,ICSP2_MOSI*%
X132000000Y-137000000D03*
%TO.P,J1,3,Pin_3*%
%TO.N,MATRIX_3*%
X129460000Y-134460000D03*
%TO.P,J1,4,Pin_4*%
%TO.N,MATRIX_4*%
X129460000Y-137000000D03*
%TO.P,J1,5,Pin_5*%
%TO.N,MATRIX_5*%
X126920000Y-134460000D03*
%TO.P,J1,6,Pin_6*%
%TO.N,MATRIX_6*%
X126920000Y-137000000D03*
%TO.P,J1,7,Pin_7*%
%TO.N,MATRIX_7*%
X124380000Y-134460000D03*
%TO.P,J1,8,Pin_8*%
%TO.N,MATRIX_8*%
X124380000Y-137000000D03*
%TO.P,J1,9,Pin_9*%
%TO.N,MATRIX_A*%
X121840000Y-134460000D03*
%TO.P,J1,10,Pin_10*%
%TO.N,MATRIX_B*%
X121840000Y-137000000D03*
%TO.P,J1,11,Pin_11*%
%TO.N,unconnected-(J1-Pin_11-Pad11)*%
X119300000Y-134460000D03*
%TO.P,J1,12,Pin_12*%
%TO.N,unconnected-(J1-Pin_12-Pad12)*%
X119300000Y-137000000D03*
%TO.P,J1,13,Pin_13*%
%TO.N,GND*%
X116760000Y-134460000D03*
%TO.P,J1,14,Pin_14*%
%TO.N,MATRIX_C*%
X116760000Y-137000000D03*
%TO.P,J1,15,Pin_15*%
%TO.N,GND*%
X114220000Y-134460000D03*
%TO.P,J1,16,Pin_16*%
X114220000Y-137000000D03*
%TO.P,J1,17,Pin_17*%
X111680000Y-134460000D03*
%TO.P,J1,18,Pin_18*%
X111680000Y-137000000D03*
%TO.P,J1,19,Pin_19*%
%TO.N,+5VA*%
X109140000Y-134460000D03*
%TO.P,J1,20,Pin_20*%
X109140000Y-137000000D03*
%TO.P,J1,21,Pin_21*%
%TO.N,ANALOG_11*%
X106600000Y-134460000D03*
%TO.P,J1,22,Pin_22*%
%TO.N,GND*%
X106600000Y-137000000D03*
%TO.P,J1,23,Pin_23*%
%TO.N,ANALOG_12*%
X104060000Y-134460000D03*
%TO.P,J1,24,Pin_24*%
%TO.N,GND*%
X104060000Y-137000000D03*
%TO.P,J1,25,Pin_25*%
%TO.N,ANALOG_13*%
X101520000Y-134460000D03*
%TO.P,J1,26,Pin_26*%
%TO.N,GND*%
X101520000Y-137000000D03*
%TO.P,J1,27,Pin_27*%
%TO.N,ANALOG_14*%
X98980000Y-134460000D03*
%TO.P,J1,28,Pin_28*%
%TO.N,GND*%
X98980000Y-137000000D03*
%TO.P,J1,29,Pin_29*%
%TO.N,ANALOG_15*%
X96440000Y-134460000D03*
%TO.P,J1,30,Pin_30*%
%TO.N,GND*%
X96440000Y-137000000D03*
%TD*%
D10*
%TO.P,H4,1,1*%
%TO.N,GND*%
X45000000Y-135000000D03*
%TD*%
D18*
%TO.P,J6,1,Pin_1*%
%TO.N,+12V*%
X152460000Y-163840000D03*
D17*
%TO.P,J6,2,Pin_2*%
%TO.N,GND*%
X155000000Y-163840000D03*
%TO.P,J6,3,Pin_3*%
%TO.N,+5V*%
X152460000Y-166380000D03*
%TO.P,J6,4,Pin_4*%
%TO.N,GND*%
X155000000Y-166380000D03*
%TO.P,J6,5,Pin_5*%
%TO.N,TX*%
X152460000Y-168920000D03*
%TO.P,J6,6,Pin_6*%
%TO.N,GND*%
X155000000Y-168920000D03*
%TO.P,J6,7,Pin_7*%
%TO.N,RX*%
X152460000Y-171460000D03*
%TO.P,J6,8,Pin_8*%
%TO.N,GND*%
X155000000Y-171460000D03*
%TO.P,J6,9,Pin_9*%
%TO.N,\u005CEVNT*%
X152460000Y-174000000D03*
%TO.P,J6,10,Pin_10*%
%TO.N,GND*%
X155000000Y-174000000D03*
%TD*%
D19*
%TO.P,Y1,2,2*%
%TO.N,Net-(U1-PB6{slash}XTAL1)*%
X109100000Y-161750000D03*
%TO.P,Y1,1,1*%
%TO.N,Net-(U1-PB7{slash}XTAL2)*%
X114000000Y-161750000D03*
%TD*%
D11*
%TO.P,C2,1*%
%TO.N,GND*%
X118250000Y-157500000D03*
%TO.P,C2,2*%
%TO.N,Net-(U1-PB7{slash}XTAL2)*%
X113250000Y-157500000D03*
%TD*%
D16*
%TO.P,J5,1,Pin_1*%
%TO.N,ICSP2_MOSI*%
X68000000Y-134460000D03*
D17*
%TO.P,J5,2,Pin_2*%
%TO.N,+5V*%
X68000000Y-137000000D03*
%TO.P,J5,3,Pin_3*%
%TO.N,unconnected-(J5-Pin_3-Pad3)*%
X65460000Y-134460000D03*
%TO.P,J5,4,Pin_4*%
%TO.N,GND*%
X65460000Y-137000000D03*
%TO.P,J5,5,Pin_5*%
%TO.N,~{RESET}*%
X62920000Y-134460000D03*
%TO.P,J5,6,Pin_6*%
%TO.N,GND*%
X62920000Y-137000000D03*
%TO.P,J5,7,Pin_7*%
%TO.N,ICSP2_SCK*%
X60380000Y-134460000D03*
%TO.P,J5,8,Pin_8*%
%TO.N,GND*%
X60380000Y-137000000D03*
%TO.P,J5,9,Pin_9*%
%TO.N,ICSP2_MISO*%
X57840000Y-134460000D03*
%TO.P,J5,10,Pin_10*%
%TO.N,GND*%
X57840000Y-137000000D03*
%TD*%
D15*
%TO.P,C11,1*%
%TO.N,+5V*%
X81000000Y-148500000D03*
D11*
%TO.P,C11,2*%
%TO.N,GND*%
X81000000Y-151000000D03*
%TD*%
%TO.P,C1,1*%
%TO.N,GND*%
X105000000Y-157500000D03*
%TO.P,C1,2*%
%TO.N,Net-(U1-PB6{slash}XTAL1)*%
X110000000Y-157500000D03*
%TD*%
D20*
%TO.P,U6,1,IN*%
%TO.N,+12V*%
X138770000Y-143460000D03*
D21*
%TO.P,U6,2,GND*%
%TO.N,GND*%
X138770000Y-146000000D03*
%TO.P,U6,3,OUT*%
%TO.N,+5VA*%
X138770000Y-148540000D03*
%TD*%
D22*
%TO.P,U1,1,PC6/~{RESET}*%
%TO.N,~{RESET}*%
X94300000Y-153620000D03*
D23*
%TO.P,U1,2,PD0*%
%TO.N,TX*%
X96840000Y-153620000D03*
%TO.P,U1,3,PD1*%
%TO.N,RX*%
X99380000Y-153620000D03*
%TO.P,U1,4,PD2*%
%TO.N,MATRIX_3*%
X101920000Y-153620000D03*
%TO.P,U1,5,PD3*%
%TO.N,MATRIX_4*%
X104460000Y-153620000D03*
%TO.P,U1,6,PD4*%
%TO.N,MATRIX_5*%
X107000000Y-153620000D03*
%TO.P,U1,7,VCC*%
%TO.N,+5V*%
X109540000Y-153620000D03*
%TO.P,U1,8,GND*%
%TO.N,GND*%
X112080000Y-153620000D03*
%TO.P,U1,9,PB6/XTAL1*%
%TO.N,Net-(U1-PB6{slash}XTAL1)*%
X114620000Y-153620000D03*
%TO.P,U1,10,PB7/XTAL2*%
%TO.N,Net-(U1-PB7{slash}XTAL2)*%
X117160000Y-153620000D03*
%TO.P,U1,11,PD5*%
%TO.N,MATRIX_6*%
X119700000Y-153620000D03*
%TO.P,U1,12,PD6*%
%TO.N,MATRIX_7*%
X122240000Y-153620000D03*
%TO.P,U1,13,PD7*%
%TO.N,MATRIX_8*%
X124780000Y-153620000D03*
%TO.P,U1,14,PB0*%
%TO.N,MATRIX_A*%
X127320000Y-153620000D03*
%TO.P,U1,15,PB1*%
%TO.N,MATRIX_B*%
X127320000Y-146000000D03*
%TO.P,U1,16,PB2*%
%TO.N,MATRIX_C*%
X124780000Y-146000000D03*
%TO.P,U1,17,PB3*%
%TO.N,ICSP2_MOSI*%
X122240000Y-146000000D03*
%TO.P,U1,18,PB4*%
%TO.N,ICSP2_MISO*%
X119700000Y-146000000D03*
%TO.P,U1,19,PB5*%
%TO.N,ICSP2_SCK*%
X117160000Y-146000000D03*
%TO.P,U1,20,AVCC*%
%TO.N,+5V*%
X114620000Y-146000000D03*
%TO.P,U1,21,AREF*%
X112080000Y-146000000D03*
%TO.P,U1,22,AGND*%
%TO.N,GND*%
X109540000Y-146000000D03*
%TO.P,U1,23,PC0*%
%TO.N,ANALOG_11*%
X107000000Y-146000000D03*
%TO.P,U1,24,PC1*%
%TO.N,ANALOG_12*%
X104460000Y-146000000D03*
%TO.P,U1,25,PC2*%
%TO.N,ANALOG_13*%
X101920000Y-146000000D03*
%TO.P,U1,26,PC3*%
%TO.N,ANALOG_14*%
X99380000Y-146000000D03*
%TO.P,U1,27,PC4*%
%TO.N,ANALOG_15*%
X96840000Y-146000000D03*
%TO.P,U1,28,PC5*%
%TO.N,unconnected-(U1-PC5-Pad28)*%
X94300000Y-146000000D03*
%TD*%
D11*
%TO.P,C7,2*%
%TO.N,GND*%
X110000000Y-143000000D03*
%TO.P,C7,1*%
%TO.N,+5V*%
X115000000Y-143000000D03*
%TD*%
D24*
%TO.N,~{RESET}*%
X92250000Y-140775500D03*
%TO.N,MATRIX_8*%
X126000000Y-144250000D03*
X125180500Y-148250000D03*
%TO.N,GND*%
X109250000Y-155750000D03*
%TO.N,ICSP2_SCK*%
X137500000Y-168159500D03*
%TO.N,ICSP2_MISO*%
X68750000Y-132525500D03*
X70500000Y-136809500D03*
%TO.N,ICSP2_SCK*%
X108000000Y-144250000D03*
X107750000Y-133000000D03*
%TO.N,+5V*%
X107750000Y-166750000D03*
%TO.N,ICSP2_SCK*%
X119500000Y-168000000D03*
%TO.N,RX*%
X98387299Y-164112701D03*
%TO.N,TX*%
X98750000Y-165500000D03*
%TO.N,ICSP2_MISO*%
X132822620Y-141682284D03*
X120500000Y-141500000D03*
%TO.N,ICSP2_MOSI*%
X132000000Y-142250000D03*
X121115500Y-142301395D03*
%TO.N,MATRIX_3*%
X102250000Y-151250000D03*
X130289754Y-150807605D03*
%TO.N,MATRIX_4*%
X104750000Y-150750000D03*
X129722051Y-149984976D03*
%TO.N,MATRIX_5*%
X107000000Y-150250000D03*
X128784086Y-149639682D03*
%TO.N,MATRIX_6*%
X119750000Y-148500000D03*
X128696991Y-148643982D03*
%TO.N,MATRIX_7*%
X128250000Y-147750000D03*
X122250000Y-148500000D03*
%TO.N,MATRIX_A*%
X127500000Y-156250000D03*
X123500000Y-156500000D03*
%TO.N,MATRIX_B*%
X127250000Y-144000000D03*
X122000000Y-143025500D03*
%TO.N,MATRIX_C*%
X124750000Y-144000000D03*
X117000000Y-143750000D03*
%TD*%
D25*
%TO.N,ICSP2_SCK*%
X86360000Y-133250000D02*
X107500000Y-133250000D01*
X83920000Y-130810000D02*
X86360000Y-133250000D01*
X107500000Y-133250000D02*
X107750000Y-133000000D01*
X76100000Y-130810000D02*
X83920000Y-130810000D01*
X61590000Y-133250000D02*
X73660000Y-133250000D01*
X73660000Y-133250000D02*
X76100000Y-130810000D01*
X60380000Y-134460000D02*
X61590000Y-133250000D01*
%TO.N,ICSP2_MOSI*%
X130635000Y-135635000D02*
X132000000Y-137000000D01*
X95250000Y-135635000D02*
X130635000Y-135635000D01*
X90365000Y-140520000D02*
X95250000Y-135635000D01*
X75483292Y-140520000D02*
X90365000Y-140520000D01*
X73023448Y-138060156D02*
X75483292Y-140520000D01*
X73023448Y-137352052D02*
X73023448Y-138060156D01*
X71306396Y-135635000D02*
X73023448Y-137352052D01*
X69175000Y-135635000D02*
X71306396Y-135635000D01*
X68000000Y-134460000D02*
X69175000Y-135635000D01*
%TO.N,~{RESET}*%
X92055500Y-140970000D02*
X92250000Y-140775500D01*
X75296896Y-140970000D02*
X92055500Y-140970000D01*
X72573448Y-138246552D02*
X75296896Y-140970000D01*
X72573448Y-137538448D02*
X72573448Y-138246552D01*
X71120000Y-136085000D02*
X72573448Y-137538448D01*
X68988604Y-136085000D02*
X71120000Y-136085000D01*
%TO.N,ICSP2_MISO*%
X75190500Y-141500000D02*
X70500000Y-136809500D01*
X120500000Y-141500000D02*
X75190500Y-141500000D01*
%TO.N,MATRIX_8*%
X126089104Y-147341396D02*
X126089104Y-144339104D01*
X126089104Y-144339104D02*
X126000000Y-144250000D01*
X125180500Y-148250000D02*
X126089104Y-147341396D01*
%TO.N,MATRIX_7*%
X123000000Y-149625000D02*
X123000000Y-149250000D01*
X127079577Y-149625000D02*
X123000000Y-149625000D01*
X123000000Y-149250000D02*
X122250000Y-148500000D01*
X127750000Y-148954577D02*
X127079577Y-149625000D01*
X127750000Y-147750000D02*
X127750000Y-148954577D01*
X128250000Y-147750000D02*
X127750000Y-147750000D01*
%TO.N,MATRIX_6*%
X127265973Y-150075000D02*
X128696991Y-148643982D01*
X121325000Y-150075000D02*
X127265973Y-150075000D01*
X119750000Y-148500000D02*
X121325000Y-150075000D01*
%TO.N,MATRIX_5*%
X127898768Y-150525000D02*
X128784086Y-149639682D01*
X119525000Y-150525000D02*
X127898768Y-150525000D01*
X118675000Y-149675000D02*
X119525000Y-150525000D01*
X107575000Y-149675000D02*
X118675000Y-149675000D01*
X107000000Y-150250000D02*
X107575000Y-149675000D01*
%TO.N,GND*%
X109000000Y-156000000D02*
X106500000Y-156000000D01*
X106500000Y-156000000D02*
X105000000Y-157500000D01*
X109250000Y-155750000D02*
X109000000Y-156000000D01*
%TO.N,ICSP2_MOSI*%
X131948605Y-142301395D02*
X132000000Y-142250000D01*
X123750000Y-142301395D02*
X131948605Y-142301395D01*
X123398605Y-141950000D02*
X123750000Y-142301395D01*
X121300000Y-141950000D02*
X123398605Y-141950000D01*
X121115500Y-142134500D02*
X121300000Y-141950000D01*
X121115500Y-142301395D02*
X121115500Y-142134500D01*
%TO.N,ICSP2_SCK*%
X137500000Y-168159500D02*
X134786000Y-168159500D01*
X134786000Y-168159500D02*
X134750000Y-168195500D01*
%TO.N,ICSP2_MISO*%
X68750000Y-132525500D02*
X59774500Y-132525500D01*
X59774500Y-132525500D02*
X57840000Y-134460000D01*
%TO.N,ICSP2_SCK*%
X115410000Y-144250000D02*
X117160000Y-146000000D01*
X108000000Y-144250000D02*
X115410000Y-144250000D01*
%TO.N,~{RESET}*%
X68538604Y-135635000D02*
X68988604Y-136085000D01*
X64095000Y-135635000D02*
X68538604Y-135635000D01*
X62920000Y-134460000D02*
X64095000Y-135635000D01*
D26*
%TO.N,+5V*%
X109580000Y-148500000D02*
X81000000Y-148500000D01*
X112080000Y-146000000D02*
X109580000Y-148500000D01*
X112080000Y-146000000D02*
X114620000Y-146000000D01*
X119805635Y-166750000D02*
X107750000Y-166750000D01*
X120115635Y-167060000D02*
X119805635Y-166750000D01*
X151780000Y-167060000D02*
X120115635Y-167060000D01*
X152460000Y-166380000D02*
X151780000Y-167060000D01*
%TO.N,+5VA*%
X141000000Y-146310000D02*
X141000000Y-133500000D01*
X138770000Y-148540000D02*
X141000000Y-146310000D01*
X140410000Y-132910000D02*
X141000000Y-133500000D01*
X110690000Y-132910000D02*
X140410000Y-132910000D01*
X109140000Y-134460000D02*
X110690000Y-132910000D01*
D25*
%TO.N,ICSP2_SCK*%
X119970000Y-168470000D02*
X119500000Y-168000000D01*
X131500000Y-168470000D02*
X119970000Y-168470000D01*
X134530000Y-168470000D02*
X131500000Y-168470000D01*
X134750000Y-168195500D02*
X134750000Y-168250000D01*
X134750000Y-168250000D02*
X134530000Y-168470000D01*
%TO.N,\u005CEVNT*%
X152270000Y-174190000D02*
X152460000Y-174000000D01*
X146000000Y-174190000D02*
X152270000Y-174190000D01*
%TO.N,Net-(Q1-C)*%
X145460000Y-181270000D02*
X146000000Y-181810000D01*
X140000000Y-181270000D02*
X145460000Y-181270000D01*
%TO.N,RX*%
X130500000Y-169370000D02*
X101594695Y-169370000D01*
X149000000Y-169370000D02*
X130500000Y-169370000D01*
X98025000Y-164475000D02*
X98387299Y-164112701D01*
X98025000Y-165800305D02*
X98025000Y-164475000D01*
X150370000Y-169370000D02*
X149000000Y-169370000D01*
X101594695Y-169370000D02*
X98025000Y-165800305D01*
X152460000Y-171460000D02*
X150370000Y-169370000D01*
%TO.N,TX*%
X102170000Y-168920000D02*
X98750000Y-165500000D01*
X152460000Y-168920000D02*
X102170000Y-168920000D01*
%TO.N,ICSP2_MISO*%
X132640336Y-141500000D02*
X132822620Y-141682284D01*
X120500000Y-141500000D02*
X132640336Y-141500000D01*
%TO.N,MATRIX_3*%
X102475000Y-151475000D02*
X102250000Y-151250000D01*
X121200000Y-151475000D02*
X102475000Y-151475000D01*
X121250000Y-151425000D02*
X121200000Y-151475000D01*
X129672359Y-151425000D02*
X121250000Y-151425000D01*
X130289754Y-150807605D02*
X129672359Y-151425000D01*
%TO.N,MATRIX_4*%
X104975000Y-150975000D02*
X104750000Y-150750000D01*
X129722051Y-149984976D02*
X128732027Y-150975000D01*
X128732027Y-150975000D02*
X104975000Y-150975000D01*
%TO.N,MATRIX_A*%
X129190000Y-157940000D02*
X130500000Y-157940000D01*
X127500000Y-156250000D02*
X129190000Y-157940000D01*
X123500000Y-156500000D02*
X127250000Y-156500000D01*
X127250000Y-156500000D02*
X127500000Y-156250000D01*
%TO.N,MATRIX_B*%
X122000000Y-143025500D02*
X126275500Y-143025500D01*
X126275500Y-143025500D02*
X127250000Y-144000000D01*
%TO.N,MATRIX_C*%
X124500000Y-143750000D02*
X124750000Y-144000000D01*
X117000000Y-143750000D02*
X124500000Y-143750000D01*
%TD*%
%TA.AperFunction,Conductor*%
%TO.N,GND*%
G36*
X75769510Y-130058185D02*
G01*
X75815265Y-130110989D01*
X75825209Y-130180147D01*
X75796184Y-130243703D01*
X75775353Y-130262821D01*
X75754172Y-130278208D01*
X75749290Y-130281415D01*
X75708637Y-130305457D01*
X75694201Y-130319894D01*
X75679415Y-130332523D01*
X75662893Y-130344528D01*
X75662891Y-130344529D01*
X75662891Y-130344530D01*
X75662888Y-130344532D01*
X75632780Y-130380925D01*
X75628849Y-130385246D01*
X73433914Y-132580181D01*
X73372591Y-132613666D01*
X73346233Y-132616500D01*
X69784719Y-132616500D01*
X69717680Y-132596815D01*
X69671925Y-132544011D01*
X69661398Y-132505462D01*
X69656941Y-132463056D01*
X69643542Y-132335572D01*
X69584527Y-132153944D01*
X69489040Y-131988556D01*
X69361253Y-131846634D01*
X69206752Y-131734382D01*
X69032288Y-131656706D01*
X69032286Y-131656705D01*
X68845487Y-131617000D01*
X68654513Y-131617000D01*
X68467714Y-131656705D01*
X68293246Y-131734383D01*
X68138745Y-131846635D01*
X68134840Y-131850973D01*
X68075354Y-131887621D01*
X68042691Y-131892000D01*
X59858134Y-131892000D01*
X59842386Y-131890261D01*
X59842361Y-131890532D01*
X59834593Y-131889797D01*
X59765509Y-131891969D01*
X59763561Y-131892000D01*
X59734637Y-131892000D01*
X59727643Y-131892884D01*
X59721820Y-131893342D01*
X59674611Y-131894826D01*
X59674608Y-131894827D01*
X59655005Y-131900522D01*
X59635959Y-131904466D01*
X59615703Y-131907026D01*
X59615701Y-131907026D01*
X59615699Y-131907027D01*
X59571782Y-131924414D01*
X59566256Y-131926306D01*
X59520906Y-131939482D01*
X59503331Y-131949875D01*
X59485873Y-131958428D01*
X59466883Y-131965948D01*
X59428672Y-131993708D01*
X59423790Y-131996915D01*
X59383137Y-132020957D01*
X59368701Y-132035394D01*
X59353915Y-132048023D01*
X59337393Y-132060028D01*
X59337391Y-132060029D01*
X59337391Y-132060030D01*
X59337388Y-132060032D01*
X59307280Y-132096425D01*
X59303349Y-132100746D01*
X58296990Y-133107103D01*
X58235667Y-133140588D01*
X58178872Y-133139628D01*
X58174642Y-133138557D01*
X57952569Y-133101500D01*
X57727431Y-133101500D01*
X57505362Y-133138556D01*
X57292430Y-133211656D01*
X57292419Y-133211661D01*
X57094427Y-133318808D01*
X57094422Y-133318812D01*
X56916761Y-133457092D01*
X56916756Y-133457097D01*
X56764284Y-133622723D01*
X56764276Y-133622734D01*
X56641141Y-133811206D01*
X56550703Y-134017385D01*
X56495436Y-134235628D01*
X56495434Y-134235640D01*
X56476844Y-134459994D01*
X56476844Y-134460005D01*
X56495434Y-134684359D01*
X56495436Y-134684371D01*
X56550703Y-134902614D01*
X56641140Y-135108792D01*
X56764276Y-135297265D01*
X56764284Y-135297276D01*
X56916756Y-135462902D01*
X56916760Y-135462906D01*
X57094424Y-135601189D01*
X57137695Y-135624606D01*
X57187286Y-135673825D01*
X57202394Y-135742042D01*
X57178224Y-135807597D01*
X57149801Y-135835236D01*
X57078626Y-135885072D01*
X57078625Y-135885072D01*
X57707466Y-136513913D01*
X57697685Y-136515320D01*
X57566900Y-136575048D01*
X57458239Y-136669202D01*
X57380507Y-136790156D01*
X57356923Y-136870475D01*
X56725073Y-136238625D01*
X56725072Y-136238625D01*
X56666401Y-136322419D01*
X56566570Y-136536507D01*
X56566566Y-136536516D01*
X56505432Y-136764673D01*
X56505430Y-136764684D01*
X56484843Y-136999998D01*
X56484843Y-137000001D01*
X56505430Y-137235315D01*
X56505432Y-137235326D01*
X56566566Y-137463483D01*
X56566570Y-137463492D01*
X56666400Y-137677579D01*
X56666402Y-137677583D01*
X56725072Y-137761373D01*
X56725073Y-137761373D01*
X57356923Y-137129523D01*
X57380507Y-137209844D01*
X57458239Y-137330798D01*
X57566900Y-137424952D01*
X57697685Y-137484680D01*
X57707466Y-137486086D01*
X57078625Y-138114925D01*
X57162421Y-138173599D01*
X57376507Y-138273429D01*
X57376516Y-138273433D01*
X57604673Y-138334567D01*
X57604684Y-138334569D01*
X57839998Y-138355157D01*
X57840002Y-138355157D01*
X58075315Y-138334569D01*
X58075326Y-138334567D01*
X58303483Y-138273433D01*
X58303492Y-138273429D01*
X58517578Y-138173600D01*
X58517582Y-138173598D01*
X58601373Y-138114926D01*
X58601373Y-138114925D01*
X57972533Y-137486086D01*
X57982315Y-137484680D01*
X58113100Y-137424952D01*
X58221761Y-137330798D01*
X58299493Y-137209844D01*
X58323076Y-137129524D01*
X58954925Y-137761373D01*
X59008425Y-137684968D01*
X59063002Y-137641344D01*
X59132501Y-137634151D01*
X59194855Y-137665673D01*
X59211576Y-137684969D01*
X59265073Y-137761372D01*
X59896922Y-137129523D01*
X59920507Y-137209844D01*
X59998239Y-137330798D01*
X60106900Y-137424952D01*
X60237685Y-137484680D01*
X60247466Y-137486086D01*
X59618625Y-138114925D01*
X59702421Y-138173599D01*
X59916507Y-138273429D01*
X59916516Y-138273433D01*
X60144673Y-138334567D01*
X60144684Y-138334569D01*
X60379998Y-138355157D01*
X60380002Y-138355157D01*
X60615315Y-138334569D01*
X60615326Y-138334567D01*
X60843483Y-138273433D01*
X60843492Y-138273429D01*
X61057578Y-138173600D01*
X61057582Y-138173598D01*
X61141373Y-138114926D01*
X61141373Y-138114925D01*
X60512533Y-137486086D01*
X60522315Y-137484680D01*
X60653100Y-137424952D01*
X60761761Y-137330798D01*
X60839493Y-137209844D01*
X60863076Y-137129524D01*
X61494925Y-137761373D01*
X61548424Y-137684970D01*
X61603001Y-137641345D01*
X61672499Y-137634152D01*
X61734854Y-137665674D01*
X61751574Y-137684970D01*
X61805072Y-137761373D01*
X61805073Y-137761373D01*
X62436923Y-137129523D01*
X62460507Y-137209844D01*
X62538239Y-137330798D01*
X62646900Y-137424952D01*
X62777685Y-137484680D01*
X62787466Y-137486086D01*
X62158625Y-138114925D01*
X62242421Y-138173599D01*
X62456507Y-138273429D01*
X62456516Y-138273433D01*
X62684673Y-138334567D01*
X62684684Y-138334569D01*
X62919998Y-138355157D01*
X62920002Y-138355157D01*
X63155315Y-138334569D01*
X63155326Y-138334567D01*
X63383483Y-138273433D01*
X63383492Y-138273429D01*
X63597578Y-138173600D01*
X63597582Y-138173598D01*
X63681373Y-138114926D01*
X63681373Y-138114925D01*
X63052533Y-137486086D01*
X63062315Y-137484680D01*
X63193100Y-137424952D01*
X63301761Y-137330798D01*
X63379493Y-137209844D01*
X63403076Y-137129524D01*
X64034925Y-137761373D01*
X64088425Y-137684968D01*
X64143002Y-137641344D01*
X64212501Y-137634151D01*
X64274855Y-137665673D01*
X64291576Y-137684969D01*
X64345073Y-137761372D01*
X64976922Y-137129522D01*
X65000507Y-137209844D01*
X65078239Y-137330798D01*
X65186900Y-137424952D01*
X65317685Y-137484680D01*
X65327465Y-137486086D01*
X64698625Y-138114925D01*
X64782421Y-138173599D01*
X64996507Y-138273429D01*
X64996516Y-138273433D01*
X65224673Y-138334567D01*
X65224684Y-138334569D01*
X65459998Y-138355157D01*
X65460002Y-138355157D01*
X65695315Y-138334569D01*
X65695326Y-138334567D01*
X65923483Y-138273433D01*
X65923492Y-138273429D01*
X66137578Y-138173600D01*
X66137582Y-138173598D01*
X66221373Y-138114926D01*
X65592532Y-137486086D01*
X65602315Y-137484680D01*
X65733100Y-137424952D01*
X65841761Y-137330798D01*
X65919493Y-137209844D01*
X65943076Y-137129524D01*
X66574925Y-137761373D01*
X66624868Y-137690048D01*
X66679445Y-137646424D01*
X66748944Y-137639231D01*
X66811298Y-137670753D01*
X66830251Y-137693350D01*
X66924276Y-137837265D01*
X66924284Y-137837276D01*
X67076756Y-138002902D01*
X67076760Y-138002906D01*
X67254424Y-138141189D01*
X67254425Y-138141189D01*
X67254427Y-138141191D01*
X67314314Y-138173600D01*
X67452426Y-138248342D01*
X67665365Y-138321444D01*
X67887431Y-138358500D01*
X68112569Y-138358500D01*
X68334635Y-138321444D01*
X68547574Y-138248342D01*
X68745576Y-138141189D01*
X68923240Y-138002906D01*
X69075722Y-137837268D01*
X69198860Y-137648791D01*
X69289296Y-137442616D01*
X69344564Y-137224368D01*
X69344662Y-137223189D01*
X69361825Y-137016066D01*
X69386978Y-136950881D01*
X69443380Y-136909643D01*
X69513123Y-136905445D01*
X69574065Y-136939619D01*
X69603038Y-136993706D01*
X69604450Y-136993248D01*
X69665470Y-137181049D01*
X69665473Y-137181056D01*
X69760960Y-137346444D01*
X69888747Y-137488366D01*
X70043248Y-137600618D01*
X70217712Y-137678294D01*
X70404513Y-137718000D01*
X70461234Y-137718000D01*
X70528273Y-137737685D01*
X70548915Y-137754319D01*
X74683410Y-141888814D01*
X74693316Y-141901178D01*
X74693526Y-141901005D01*
X74698497Y-141907013D01*
X74698500Y-141907018D01*
X74748935Y-141954379D01*
X74750244Y-141955648D01*
X74760501Y-141965905D01*
X74770725Y-141976130D01*
X74770729Y-141976133D01*
X74770731Y-141976135D01*
X74776305Y-141980458D01*
X74780747Y-141984252D01*
X74815178Y-142016585D01*
X74815181Y-142016587D01*
X74833063Y-142026417D01*
X74849330Y-142037102D01*
X74865459Y-142049614D01*
X74908807Y-142068371D01*
X74914033Y-142070931D01*
X74955440Y-142093695D01*
X74975216Y-142098772D01*
X74993624Y-142105075D01*
X75012350Y-142113179D01*
X75012352Y-142113180D01*
X75012353Y-142113180D01*
X75012355Y-142113181D01*
X75053284Y-142119663D01*
X75059003Y-142120569D01*
X75064712Y-142121751D01*
X75110470Y-142133500D01*
X75130884Y-142133500D01*
X75150283Y-142135027D01*
X75170443Y-142138220D01*
X75217465Y-142133775D01*
X75223304Y-142133500D01*
X108781521Y-142133500D01*
X108848560Y-142153185D01*
X108894315Y-142205989D01*
X108904259Y-142275147D01*
X108883095Y-142328625D01*
X108869866Y-142347516D01*
X108773734Y-142553673D01*
X108773730Y-142553682D01*
X108714860Y-142773389D01*
X108714858Y-142773400D01*
X108695034Y-142999997D01*
X108695034Y-143000002D01*
X108714858Y-143226599D01*
X108714860Y-143226610D01*
X108763907Y-143409656D01*
X108762244Y-143479506D01*
X108723081Y-143537368D01*
X108658853Y-143564872D01*
X108589951Y-143553285D01*
X108571247Y-143542067D01*
X108456756Y-143458884D01*
X108456752Y-143458882D01*
X108282288Y-143381206D01*
X108282286Y-143381205D01*
X108095487Y-143341500D01*
X107904513Y-143341500D01*
X107717714Y-143381205D01*
X107717711Y-143381206D01*
X107717712Y-143381206D01*
X107552673Y-143454686D01*
X107543246Y-143458883D01*
X107388745Y-143571135D01*
X107260959Y-143713057D01*
X107165473Y-143878443D01*
X107165470Y-143878450D01*
X107106459Y-144060068D01*
X107106458Y-144060072D01*
X107099618Y-144125148D01*
X107094111Y-144177545D01*
X107067526Y-144242160D01*
X107010228Y-144282144D01*
X106981598Y-144288111D01*
X106771917Y-144306456D01*
X106771910Y-144306457D01*
X106550761Y-144365714D01*
X106550750Y-144365718D01*
X106343254Y-144462475D01*
X106343252Y-144462476D01*
X106334885Y-144468335D01*
X106155700Y-144593802D01*
X106155698Y-144593803D01*
X106155695Y-144593806D01*
X105993806Y-144755695D01*
X105993803Y-144755698D01*
X105993802Y-144755700D01*
X105979756Y-144775760D01*
X105862476Y-144943251D01*
X105842382Y-144986345D01*
X105796209Y-145038784D01*
X105729016Y-145057936D01*
X105662135Y-145037720D01*
X105617618Y-144986345D01*
X105597523Y-144943251D01*
X105587450Y-144928866D01*
X105466198Y-144755700D01*
X105304300Y-144593802D01*
X105116749Y-144462477D01*
X105113912Y-144461154D01*
X104909249Y-144365718D01*
X104909238Y-144365714D01*
X104688089Y-144306457D01*
X104688081Y-144306456D01*
X104460002Y-144286502D01*
X104459998Y-144286502D01*
X104231918Y-144306456D01*
X104231910Y-144306457D01*
X104010761Y-144365714D01*
X104010750Y-144365718D01*
X103803254Y-144462475D01*
X103803252Y-144462476D01*
X103794885Y-144468335D01*
X103615700Y-144593802D01*
X103615698Y-144593803D01*
X103615695Y-144593806D01*
X103453806Y-144755695D01*
X103453803Y-144755698D01*
X103453802Y-144755700D01*
X103439756Y-144775760D01*
X103322476Y-144943251D01*
X103302382Y-144986345D01*
X103256209Y-145038784D01*
X103189016Y-145057936D01*
X103122135Y-145037720D01*
X103077618Y-144986345D01*
X103057523Y-144943251D01*
X103047450Y-144928866D01*
X102926198Y-144755700D01*
X102764300Y-144593802D01*
X102576749Y-144462477D01*
X102573912Y-144461154D01*
X102369249Y-144365718D01*
X102369238Y-144365714D01*
X102148089Y-144306457D01*
X102148081Y-144306456D01*
X101920002Y-144286502D01*
X101919998Y-144286502D01*
X101691918Y-144306456D01*
X101691910Y-144306457D01*
X101470761Y-144365714D01*
X101470750Y-144365718D01*
X101263254Y-144462475D01*
X101263252Y-144462476D01*
X101254885Y-144468335D01*
X101075700Y-144593802D01*
X101075698Y-144593803D01*
X101075695Y-144593806D01*
X100913806Y-144755695D01*
X100913803Y-144755698D01*
X100913802Y-144755700D01*
X100899756Y-144775760D01*
X100782476Y-144943251D01*
X100762382Y-144986345D01*
X100716209Y-145038784D01*
X100649016Y-145057936D01*
X100582135Y-145037720D01*
X100537618Y-144986345D01*
X100517523Y-144943251D01*
X100507450Y-144928866D01*
X100386198Y-144755700D01*
X100224300Y-144593802D01*
X100036749Y-144462477D01*
X100033912Y-144461154D01*
X99829249Y-144365718D01*
X99829238Y-144365714D01*
X99608089Y-144306457D01*
X99608081Y-144306456D01*
X99380002Y-144286502D01*
X99379998Y-144286502D01*
X99151918Y-144306456D01*
X99151910Y-144306457D01*
X98930761Y-144365714D01*
X98930750Y-144365718D01*
X98723254Y-144462475D01*
X98723252Y-144462476D01*
X98714885Y-144468335D01*
X98535700Y-144593802D01*
X98535698Y-144593803D01*
X98535695Y-144593806D01*
X98373806Y-144755695D01*
X98373803Y-144755698D01*
X98373802Y-144755700D01*
X98359756Y-144775760D01*
X98242476Y-144943251D01*
X98222382Y-144986345D01*
X98176209Y-145038784D01*
X98109016Y-145057936D01*
X98042135Y-145037720D01*
X97997618Y-144986345D01*
X97977523Y-144943251D01*
X97967450Y-144928866D01*
X97846198Y-144755700D01*
X97684300Y-144593802D01*
X97496749Y-144462477D01*
X97493912Y-144461154D01*
X97289249Y-144365718D01*
X97289238Y-144365714D01*
X97068089Y-144306457D01*
X97068081Y-144306456D01*
X96840002Y-144286502D01*
X96839998Y-144286502D01*
X96611918Y-144306456D01*
X96611910Y-144306457D01*
X96390761Y-144365714D01*
X96390750Y-144365718D01*
X96183254Y-144462475D01*
X96183252Y-144462476D01*
X96174885Y-144468335D01*
X95995700Y-144593802D01*
X95995698Y-144593803D01*
X95995695Y-144593806D01*
X95833806Y-144755695D01*
X95833803Y-144755698D01*
X95833802Y-144755700D01*
X95754939Y-144868328D01*
X95702476Y-144943252D01*
X95682380Y-144986347D01*
X95636207Y-145038785D01*
X95569013Y-145057936D01*
X95502132Y-145037719D01*
X95457618Y-144986345D01*
X95437523Y-144943251D01*
X95306198Y-144755700D01*
X95144300Y-144593802D01*
X94956749Y-144462477D01*
X94953912Y-144461154D01*
X94749249Y-144365718D01*
X94749238Y-144365714D01*
X94528089Y-144306457D01*
X94528081Y-144306456D01*
X94300002Y-144286502D01*
X94299998Y-144286502D01*
X94071918Y-144306456D01*
X94071910Y-144306457D01*
X93850761Y-144365714D01*
X93850750Y-144365718D01*
X93643254Y-144462475D01*
X93643252Y-144462476D01*
X93634885Y-144468335D01*
X93455700Y-144593802D01*
X93455698Y-144593803D01*
X93455695Y-144593806D01*
X93293806Y-144755695D01*
X93293803Y-144755698D01*
X93293802Y-144755700D01*
X93214939Y-144868328D01*
X93162476Y-144943252D01*
X93162475Y-144943254D01*
X93065718Y-145150750D01*
X93065714Y-145150761D01*
X93006457Y-145371910D01*
X93006456Y-145371918D01*
X92991500Y-145542869D01*
X92991500Y-146457130D01*
X93006456Y-146628081D01*
X93006457Y-146628089D01*
X93065714Y-146849238D01*
X93065718Y-146849249D01*
X93130011Y-146987126D01*
X93162477Y-147056749D01*
X93293802Y-147244300D01*
X93293806Y-147244304D01*
X93329321Y-147279819D01*
X93362806Y-147341142D01*
X93357822Y-147410834D01*
X93315950Y-147466767D01*
X93250486Y-147491184D01*
X93241640Y-147491500D01*
X82341184Y-147491500D01*
X82274145Y-147471815D01*
X82241917Y-147441811D01*
X82215257Y-147406198D01*
X82163261Y-147336739D01*
X82046204Y-147249111D01*
X82033316Y-147244304D01*
X81909203Y-147198011D01*
X81848654Y-147191500D01*
X81848638Y-147191500D01*
X80151362Y-147191500D01*
X80151345Y-147191500D01*
X80090797Y-147198011D01*
X80090795Y-147198011D01*
X79953795Y-147249111D01*
X79836739Y-147336739D01*
X79749111Y-147453795D01*
X79698011Y-147590795D01*
X79698011Y-147590797D01*
X79691500Y-147651345D01*
X79691500Y-149348654D01*
X79698011Y-149409202D01*
X79698011Y-149409204D01*
X79724039Y-149478985D01*
X79749111Y-149546204D01*
X79836739Y-149663261D01*
X79953796Y-149750889D01*
X80090799Y-149801989D01*
X80118050Y-149804918D01*
X80151345Y-149808499D01*
X80151360Y-149808499D01*
X80151362Y-149808500D01*
X80151364Y-149808500D01*
X80154669Y-149808677D01*
X80154659Y-149808855D01*
X80154665Y-149808856D01*
X80154653Y-149808959D01*
X80154591Y-149810128D01*
X80216084Y-149828185D01*
X80261839Y-149880989D01*
X80267518Y-149913965D01*
X80955600Y-150602046D01*
X80874852Y-150614835D01*
X80761955Y-150672359D01*
X80672359Y-150761955D01*
X80614835Y-150874852D01*
X80602046Y-150955599D01*
X79920973Y-150274526D01*
X79920972Y-150274527D01*
X79869868Y-150347513D01*
X79773734Y-150553673D01*
X79773730Y-150553682D01*
X79714860Y-150773389D01*
X79714858Y-150773400D01*
X79695034Y-150999997D01*
X79695034Y-151000002D01*
X79714858Y-151226599D01*
X79714860Y-151226610D01*
X79773730Y-151446317D01*
X79773734Y-151446326D01*
X79869865Y-151652481D01*
X79869866Y-151652483D01*
X79920973Y-151725471D01*
X79920974Y-151725472D01*
X80602046Y-151044399D01*
X80614835Y-151125148D01*
X80672359Y-151238045D01*
X80761955Y-151327641D01*
X80874852Y-151385165D01*
X80955599Y-151397953D01*
X80274526Y-152079025D01*
X80274526Y-152079026D01*
X80347512Y-152130131D01*
X80347516Y-152130133D01*
X80553673Y-152226265D01*
X80553682Y-152226269D01*
X80773389Y-152285139D01*
X80773400Y-152285141D01*
X80999998Y-152304966D01*
X81000002Y-152304966D01*
X81226599Y-152285141D01*
X81226610Y-152285139D01*
X81446317Y-152226269D01*
X81446331Y-152226264D01*
X81652478Y-152130136D01*
X81725472Y-152079025D01*
X81044401Y-151397953D01*
X81125148Y-151385165D01*
X81238045Y-151327641D01*
X81327641Y-151238045D01*
X81385165Y-151125148D01*
X81397953Y-151044400D01*
X82079025Y-151725472D01*
X82130136Y-151652478D01*
X82226264Y-151446331D01*
X82226269Y-151446317D01*
X82285139Y-151226610D01*
X82285141Y-151226599D01*
X82304966Y-151000002D01*
X82304966Y-150999997D01*
X82285141Y-150773400D01*
X82285139Y-150773389D01*
X82226269Y-150553682D01*
X82226265Y-150553673D01*
X82130133Y-150347516D01*
X82130131Y-150347512D01*
X82079026Y-150274526D01*
X82079025Y-150274526D01*
X81397953Y-150955598D01*
X81385165Y-150874852D01*
X81327641Y-150761955D01*
X81238045Y-150672359D01*
X81125148Y-150614835D01*
X81044400Y-150602046D01*
X81733534Y-149912911D01*
X81741192Y-149874809D01*
X81789807Y-149824625D01*
X81845399Y-149809964D01*
X81845346Y-149808959D01*
X81845335Y-149808856D01*
X81845340Y-149808855D01*
X81845331Y-149808677D01*
X81848635Y-149808500D01*
X81848638Y-149808500D01*
X81848640Y-149808499D01*
X81848654Y-149808499D01*
X81875692Y-149805591D01*
X81909201Y-149801989D01*
X82046204Y-149750889D01*
X82163261Y-149663261D01*
X82241917Y-149558188D01*
X82297851Y-149516318D01*
X82341184Y-149508500D01*
X106166635Y-149508500D01*
X106233674Y-149528185D01*
X106279429Y-149580989D01*
X106289373Y-149650147D01*
X106263475Y-149706854D01*
X106264778Y-149707801D01*
X106260959Y-149713056D01*
X106165473Y-149878443D01*
X106165470Y-149878450D01*
X106106459Y-150060068D01*
X106106458Y-150060072D01*
X106092118Y-150196512D01*
X106088550Y-150230462D01*
X106061965Y-150295076D01*
X106004668Y-150335061D01*
X105965229Y-150341500D01*
X105634789Y-150341500D01*
X105567750Y-150321815D01*
X105527402Y-150279500D01*
X105507372Y-150244809D01*
X105489040Y-150213056D01*
X105361253Y-150071134D01*
X105206752Y-149958882D01*
X105032288Y-149881206D01*
X105032286Y-149881205D01*
X104845487Y-149841500D01*
X104654513Y-149841500D01*
X104467714Y-149881205D01*
X104396501Y-149912911D01*
X104313025Y-149950077D01*
X104293246Y-149958883D01*
X104138745Y-150071135D01*
X104010959Y-150213057D01*
X103915473Y-150378443D01*
X103915470Y-150378450D01*
X103858537Y-150553673D01*
X103856458Y-150560072D01*
X103840379Y-150713056D01*
X103838550Y-150730462D01*
X103811965Y-150795076D01*
X103754668Y-150835061D01*
X103715229Y-150841500D01*
X103134789Y-150841500D01*
X103067750Y-150821815D01*
X103027402Y-150779500D01*
X102999089Y-150730462D01*
X102989040Y-150713056D01*
X102903161Y-150617677D01*
X102861254Y-150571135D01*
X102846028Y-150560072D01*
X102706752Y-150458882D01*
X102532288Y-150381206D01*
X102532286Y-150381205D01*
X102345487Y-150341500D01*
X102154513Y-150341500D01*
X101967714Y-150381205D01*
X101793246Y-150458883D01*
X101638745Y-150571135D01*
X101510959Y-150713057D01*
X101415473Y-150878443D01*
X101415470Y-150878450D01*
X101375976Y-151000002D01*
X101356458Y-151060072D01*
X101336496Y-151250000D01*
X101356458Y-151439928D01*
X101356459Y-151439931D01*
X101415470Y-151621549D01*
X101415473Y-151621556D01*
X101510960Y-151786944D01*
X101512989Y-151789197D01*
X101513752Y-151790787D01*
X101514778Y-151792199D01*
X101514519Y-151792386D01*
X101543221Y-151852185D01*
X101534599Y-151921521D01*
X101489860Y-151975189D01*
X101473247Y-151984554D01*
X101263251Y-152082476D01*
X101138126Y-152170090D01*
X101075700Y-152213802D01*
X101075698Y-152213803D01*
X101075695Y-152213806D01*
X100913806Y-152375695D01*
X100913803Y-152375698D01*
X100913802Y-152375700D01*
X100831767Y-152492856D01*
X100782476Y-152563252D01*
X100762380Y-152606347D01*
X100716207Y-152658785D01*
X100649013Y-152677936D01*
X100582132Y-152657719D01*
X100537618Y-152606345D01*
X100517523Y-152563251D01*
X100386198Y-152375700D01*
X100224300Y-152213802D01*
X100036749Y-152082477D01*
X100036745Y-152082475D01*
X99829249Y-151985718D01*
X99829238Y-151985714D01*
X99608089Y-151926457D01*
X99608081Y-151926456D01*
X99380002Y-151906502D01*
X99379998Y-151906502D01*
X99151918Y-151926456D01*
X99151910Y-151926457D01*
X98930761Y-151985714D01*
X98930750Y-151985718D01*
X98723254Y-152082475D01*
X98723252Y-152082476D01*
X98667782Y-152121317D01*
X98535700Y-152213802D01*
X98535698Y-152213803D01*
X98535695Y-152213806D01*
X98373806Y-152375695D01*
X98373803Y-152375698D01*
X98373802Y-152375700D01*
X98291767Y-152492856D01*
X98242476Y-152563252D01*
X98222380Y-152606347D01*
X98176207Y-152658785D01*
X98109013Y-152677936D01*
X98042132Y-152657719D01*
X97997618Y-152606345D01*
X97977523Y-152563251D01*
X97846198Y-152375700D01*
X97684300Y-152213802D01*
X97496749Y-152082477D01*
X97496745Y-152082475D01*
X97289249Y-151985718D01*
X97289238Y-151985714D01*
X97068089Y-151926457D01*
X97068081Y-151926456D01*
X96840002Y-151906502D01*
X96839998Y-151906502D01*
X96611918Y-151926456D01*
X96611910Y-151926457D01*
X96390761Y-151985714D01*
X96390750Y-151985718D01*
X96183254Y-152082475D01*
X96183252Y-152082476D01*
X96127782Y-152121317D01*
X95995700Y-152213802D01*
X95995698Y-152213803D01*
X95995695Y-152213806D01*
X95833805Y-152375696D01*
X95828429Y-152383374D01*
X95773849Y-152426995D01*
X95704350Y-152434184D01*
X95641997Y-152402658D01*
X95606587Y-152342426D01*
X95603570Y-152325510D01*
X95601989Y-152310799D01*
X95599813Y-152304966D01*
X95574490Y-152237073D01*
X95550889Y-152173796D01*
X95463261Y-152056739D01*
X95346204Y-151969111D01*
X95346204Y-151969110D01*
X95209203Y-151918011D01*
X95148654Y-151911500D01*
X95148638Y-151911500D01*
X93451362Y-151911500D01*
X93451345Y-151911500D01*
X93390797Y-151918011D01*
X93390795Y-151918011D01*
X93253795Y-151969111D01*
X93136739Y-152056739D01*
X93049111Y-152173795D01*
X92998011Y-152310795D01*
X92998011Y-152310797D01*
X92991500Y-152371345D01*
X92991500Y-154868654D01*
X92998011Y-154929202D01*
X92998011Y-154929204D01*
X93034189Y-155026198D01*
X93049111Y-155066204D01*
X93136739Y-155183261D01*
X93253796Y-155270889D01*
X93390799Y-155321989D01*
X93418050Y-155324918D01*
X93451345Y-155328499D01*
X93451362Y-155328500D01*
X95148638Y-155328500D01*
X95148654Y-155328499D01*
X95175692Y-155325591D01*
X95209201Y-155321989D01*
X95346204Y-155270889D01*
X95463261Y-155183261D01*
X95550889Y-155066204D01*
X95601989Y-154929201D01*
X95603569Y-154914500D01*
X95630304Y-154849952D01*
X95687695Y-154810102D01*
X95757521Y-154807606D01*
X95817611Y-154843257D01*
X95828428Y-154856626D01*
X95833802Y-154864300D01*
X95995700Y-155026198D01*
X96183251Y-155157523D01*
X96308091Y-155215736D01*
X96390750Y-155254281D01*
X96390752Y-155254281D01*
X96390757Y-155254284D01*
X96611913Y-155313543D01*
X96774832Y-155327796D01*
X96839998Y-155333498D01*
X96840000Y-155333498D01*
X96840002Y-155333498D01*
X96897139Y-155328499D01*
X97068087Y-155313543D01*
X97289243Y-155254284D01*
X97496749Y-155157523D01*
X97684300Y-155026198D01*
X97846198Y-154864300D01*
X97977523Y-154676749D01*
X97997617Y-154633655D01*
X98043790Y-154581215D01*
X98110983Y-154562063D01*
X98177864Y-154582278D01*
X98222382Y-154633655D01*
X98242477Y-154676749D01*
X98373802Y-154864300D01*
X98535700Y-155026198D01*
X98723251Y-155157523D01*
X98848091Y-155215736D01*
X98930750Y-155254281D01*
X98930752Y-155254281D01*
X98930757Y-155254284D01*
X99151913Y-155313543D01*
X99314832Y-155327796D01*
X99379998Y-155333498D01*
X99380000Y-155333498D01*
X99380002Y-155333498D01*
X99437139Y-155328499D01*
X99608087Y-155313543D01*
X99829243Y-155254284D01*
X100036749Y-155157523D01*
X100224300Y-155026198D01*
X100386198Y-154864300D01*
X100517523Y-154676749D01*
X100537617Y-154633655D01*
X100583790Y-154581215D01*
X100650983Y-154562063D01*
X100717864Y-154582278D01*
X100762382Y-154633655D01*
X100782477Y-154676749D01*
X100913802Y-154864300D01*
X101075700Y-155026198D01*
X101263251Y-155157523D01*
X101388091Y-155215736D01*
X101470750Y-155254281D01*
X101470752Y-155254281D01*
X101470757Y-155254284D01*
X101691913Y-155313543D01*
X101854832Y-155327796D01*
X101919998Y-155333498D01*
X101920000Y-155333498D01*
X101920002Y-155333498D01*
X101977139Y-155328499D01*
X102148087Y-155313543D01*
X102369243Y-155254284D01*
X102576749Y-155157523D01*
X102764300Y-155026198D01*
X102926198Y-154864300D01*
X103057523Y-154676749D01*
X103077617Y-154633655D01*
X103123790Y-154581215D01*
X103190983Y-154562063D01*
X103257864Y-154582278D01*
X103302382Y-154633655D01*
X103322477Y-154676749D01*
X103453802Y-154864300D01*
X103615700Y-155026198D01*
X103803251Y-155157523D01*
X103928091Y-155215736D01*
X104010750Y-155254281D01*
X104010752Y-155254281D01*
X104010757Y-155254284D01*
X104231913Y-155313543D01*
X104394832Y-155327796D01*
X104459998Y-155333498D01*
X104460000Y-155333498D01*
X104460002Y-155333498D01*
X104517139Y-155328499D01*
X104688087Y-155313543D01*
X104909243Y-155254284D01*
X105116749Y-155157523D01*
X105304300Y-155026198D01*
X105466198Y-154864300D01*
X105597523Y-154676749D01*
X105617617Y-154633655D01*
X105663790Y-154581215D01*
X105730983Y-154562063D01*
X105797864Y-154582278D01*
X105842382Y-154633655D01*
X105862477Y-154676749D01*
X105993802Y-154864300D01*
X106155700Y-155026198D01*
X106343251Y-155157523D01*
X106468091Y-155215736D01*
X106550750Y-155254281D01*
X106550752Y-155254281D01*
X106550757Y-155254284D01*
X106771913Y-155313543D01*
X106934832Y-155327796D01*
X106999998Y-155333498D01*
X107000000Y-155333498D01*
X107000002Y-155333498D01*
X107057139Y-155328499D01*
X107228087Y-155313543D01*
X107449243Y-155254284D01*
X107656749Y-155157523D01*
X107844300Y-155026198D01*
X108006198Y-154864300D01*
X108137523Y-154676749D01*
X108157617Y-154633655D01*
X108203790Y-154581215D01*
X108270983Y-154562063D01*
X108337864Y-154582278D01*
X108382382Y-154633655D01*
X108402477Y-154676749D01*
X108533802Y-154864300D01*
X108695700Y-155026198D01*
X108883251Y-155157523D01*
X109008091Y-155215736D01*
X109090750Y-155254281D01*
X109090752Y-155254281D01*
X109090757Y-155254284D01*
X109311913Y-155313543D01*
X109474832Y-155327796D01*
X109539998Y-155333498D01*
X109540000Y-155333498D01*
X109540002Y-155333498D01*
X109597139Y-155328499D01*
X109768087Y-155313543D01*
X109989243Y-155254284D01*
X110196749Y-155157523D01*
X110384300Y-155026198D01*
X110546198Y-154864300D01*
X110677523Y-154676749D01*
X110702307Y-154623598D01*
X110748479Y-154571159D01*
X110815672Y-154552007D01*
X110882553Y-154572222D01*
X110927071Y-154623599D01*
X110949864Y-154672479D01*
X110949865Y-154672481D01*
X111080342Y-154858820D01*
X111241179Y-155019657D01*
X111427517Y-155150134D01*
X111633673Y-155246265D01*
X111633682Y-155246269D01*
X111829999Y-155298872D01*
X111830000Y-155298871D01*
X111830000Y-153935685D01*
X111841955Y-153947641D01*
X111954852Y-154005165D01*
X112048519Y-154020000D01*
X112111481Y-154020000D01*
X112205148Y-154005165D01*
X112318045Y-153947641D01*
X112330000Y-153935685D01*
X112330000Y-155298872D01*
X112526317Y-155246269D01*
X112526326Y-155246265D01*
X112732482Y-155150134D01*
X112918820Y-155019657D01*
X113079657Y-154858820D01*
X113210133Y-154672483D01*
X113232927Y-154623600D01*
X113279098Y-154571160D01*
X113346292Y-154552007D01*
X113413173Y-154572221D01*
X113457691Y-154623596D01*
X113482477Y-154676749D01*
X113613802Y-154864300D01*
X113775700Y-155026198D01*
X113963251Y-155157523D01*
X114088091Y-155215736D01*
X114170750Y-155254281D01*
X114170752Y-155254281D01*
X114170757Y-155254284D01*
X114391913Y-155313543D01*
X114554832Y-155327796D01*
X114619998Y-155333498D01*
X114620000Y-155333498D01*
X114620002Y-155333498D01*
X114677139Y-155328499D01*
X114848087Y-155313543D01*
X115069243Y-155254284D01*
X115276749Y-155157523D01*
X115464300Y-155026198D01*
X115626198Y-154864300D01*
X115757523Y-154676749D01*
X115777617Y-154633655D01*
X115823790Y-154581215D01*
X115890983Y-154562063D01*
X115957864Y-154582278D01*
X116002382Y-154633655D01*
X116022477Y-154676749D01*
X116153802Y-154864300D01*
X116315700Y-155026198D01*
X116503251Y-155157523D01*
X116628091Y-155215736D01*
X116710750Y-155254281D01*
X116710752Y-155254281D01*
X116710757Y-155254284D01*
X116931913Y-155313543D01*
X117094832Y-155327796D01*
X117159998Y-155333498D01*
X117160000Y-155333498D01*
X117160002Y-155333498D01*
X117217139Y-155328499D01*
X117388087Y-155313543D01*
X117609243Y-155254284D01*
X117816749Y-155157523D01*
X118004300Y-155026198D01*
X118166198Y-154864300D01*
X118297523Y-154676749D01*
X118317617Y-154633655D01*
X118363790Y-154581215D01*
X118430983Y-154562063D01*
X118497864Y-154582278D01*
X118542382Y-154633655D01*
X118562477Y-154676749D01*
X118693802Y-154864300D01*
X118855700Y-155026198D01*
X119043251Y-155157523D01*
X119168091Y-155215736D01*
X119250750Y-155254281D01*
X119250752Y-155254281D01*
X119250757Y-155254284D01*
X119471913Y-155313543D01*
X119634832Y-155327796D01*
X119699998Y-155333498D01*
X119700000Y-155333498D01*
X119700002Y-155333498D01*
X119757139Y-155328499D01*
X119928087Y-155313543D01*
X120149243Y-155254284D01*
X120356749Y-155157523D01*
X120544300Y-155026198D01*
X120706198Y-154864300D01*
X120837523Y-154676749D01*
X120857617Y-154633655D01*
X120903790Y-154581215D01*
X120970983Y-154562063D01*
X121037864Y-154582278D01*
X121082382Y-154633655D01*
X121102477Y-154676749D01*
X121233802Y-154864300D01*
X121395700Y-155026198D01*
X121583251Y-155157523D01*
X121708091Y-155215736D01*
X121790750Y-155254281D01*
X121790752Y-155254281D01*
X121790757Y-155254284D01*
X122011913Y-155313543D01*
X122174832Y-155327796D01*
X122239998Y-155333498D01*
X122240000Y-155333498D01*
X122240002Y-155333498D01*
X122297139Y-155328499D01*
X122468087Y-155313543D01*
X122689243Y-155254284D01*
X122896749Y-155157523D01*
X123084300Y-155026198D01*
X123246198Y-154864300D01*
X123377523Y-154676749D01*
X123397617Y-154633655D01*
X123443790Y-154581215D01*
X123510983Y-154562063D01*
X123577864Y-154582278D01*
X123622382Y-154633655D01*
X123642477Y-154676749D01*
X123773802Y-154864300D01*
X123935700Y-155026198D01*
X124123251Y-155157523D01*
X124248091Y-155215736D01*
X124330750Y-155254281D01*
X124330752Y-155254281D01*
X124330757Y-155254284D01*
X124551913Y-155313543D01*
X124714832Y-155327796D01*
X124779998Y-155333498D01*
X124780000Y-155333498D01*
X124780002Y-155333498D01*
X124837139Y-155328499D01*
X125008087Y-155313543D01*
X125229243Y-155254284D01*
X125436749Y-155157523D01*
X125624300Y-155026198D01*
X125786198Y-154864300D01*
X125917523Y-154676749D01*
X125937617Y-154633655D01*
X125983790Y-154581215D01*
X126050983Y-154562063D01*
X126117864Y-154582278D01*
X126162382Y-154633655D01*
X126182477Y-154676749D01*
X126313802Y-154864300D01*
X126475700Y-155026198D01*
X126663251Y-155157523D01*
X126788091Y-155215736D01*
X126870750Y-155254281D01*
X126870752Y-155254281D01*
X126870757Y-155254284D01*
X126870761Y-155254285D01*
X126951391Y-155275890D01*
X127011051Y-155312255D01*
X127041580Y-155375102D01*
X127033285Y-155444478D01*
X126992183Y-155495983D01*
X126888745Y-155571135D01*
X126760959Y-155713057D01*
X126708165Y-155804500D01*
X126657599Y-155852715D01*
X126600778Y-155866500D01*
X124207309Y-155866500D01*
X124140270Y-155846815D01*
X124115160Y-155825473D01*
X124111254Y-155821135D01*
X124046013Y-155773734D01*
X123956752Y-155708882D01*
X123782288Y-155631206D01*
X123782286Y-155631205D01*
X123595487Y-155591500D01*
X123404513Y-155591500D01*
X123217714Y-155631205D01*
X123043246Y-155708883D01*
X122888745Y-155821135D01*
X122760959Y-155963057D01*
X122665473Y-156128443D01*
X122665470Y-156128450D01*
X122609498Y-156300715D01*
X122606458Y-156310072D01*
X122586496Y-156500000D01*
X122606458Y-156689928D01*
X122606459Y-156689931D01*
X122665470Y-156871549D01*
X122665473Y-156871556D01*
X122760960Y-157036944D01*
X122838430Y-157122983D01*
X122887105Y-157177043D01*
X122888747Y-157178866D01*
X123043248Y-157291118D01*
X123193046Y-157357812D01*
X123246282Y-157403061D01*
X123266604Y-157469910D01*
X123262385Y-157503184D01*
X123206458Y-157711907D01*
X123206456Y-157711918D01*
X123186502Y-157939998D01*
X123186502Y-157940001D01*
X123206456Y-158168081D01*
X123206457Y-158168089D01*
X123265714Y-158389238D01*
X123265718Y-158389249D01*
X123360815Y-158593185D01*
X123362477Y-158596749D01*
X123493802Y-158784300D01*
X123655700Y-158946198D01*
X123843251Y-159077523D01*
X123968091Y-159135736D01*
X124050750Y-159174281D01*
X124050752Y-159174281D01*
X124050757Y-159174284D01*
X124271913Y-159233543D01*
X124434832Y-159247796D01*
X124499998Y-159253498D01*
X124500000Y-159253498D01*
X124500002Y-159253498D01*
X124557021Y-159248509D01*
X124728087Y-159233543D01*
X124949243Y-159174284D01*
X125156749Y-159077523D01*
X125344300Y-158946198D01*
X125506198Y-158784300D01*
X125637523Y-158596749D01*
X125734284Y-158389243D01*
X125793543Y-158168087D01*
X125813498Y-157940000D01*
X125810803Y-157909201D01*
X125805216Y-157845335D01*
X125793543Y-157711913D01*
X125734284Y-157490757D01*
X125713568Y-157446331D01*
X125649952Y-157309904D01*
X125639460Y-157240827D01*
X125667980Y-157177043D01*
X125726457Y-157138804D01*
X125762334Y-157133500D01*
X126237666Y-157133500D01*
X126304705Y-157153185D01*
X126350460Y-157205989D01*
X126360404Y-157275147D01*
X126350048Y-157309904D01*
X126265718Y-157490750D01*
X126265714Y-157490761D01*
X126206457Y-157711910D01*
X126206456Y-157711918D01*
X126186502Y-157939998D01*
X126186502Y-157940001D01*
X126206456Y-158168081D01*
X126206457Y-158168089D01*
X126265714Y-158389238D01*
X126265718Y-158389249D01*
X126360815Y-158593185D01*
X126362477Y-158596749D01*
X126493802Y-158784300D01*
X126655700Y-158946198D01*
X126843251Y-159077523D01*
X126968091Y-159135736D01*
X127050750Y-159174281D01*
X127050752Y-159174281D01*
X127050757Y-159174284D01*
X127271913Y-159233543D01*
X127434832Y-159247796D01*
X127499998Y-159253498D01*
X127500000Y-159253498D01*
X127500002Y-159253498D01*
X127557021Y-159248509D01*
X127728087Y-159233543D01*
X127949243Y-159174284D01*
X128156749Y-159077523D01*
X128344300Y-158946198D01*
X128506198Y-158784300D01*
X128637523Y-158596749D01*
X128668978Y-158529292D01*
X128715148Y-158476855D01*
X128782341Y-158457702D01*
X128849223Y-158477917D01*
X128857360Y-158483720D01*
X128864959Y-158489614D01*
X128908307Y-158508371D01*
X128913533Y-158510931D01*
X128954940Y-158533695D01*
X128974716Y-158538772D01*
X128993124Y-158545075D01*
X129011850Y-158553179D01*
X129011852Y-158553180D01*
X129011853Y-158553180D01*
X129011855Y-158553181D01*
X129052784Y-158559663D01*
X129058503Y-158560569D01*
X129064212Y-158561751D01*
X129109970Y-158573500D01*
X129130384Y-158573500D01*
X129149783Y-158575027D01*
X129169943Y-158578220D01*
X129216965Y-158573775D01*
X129222804Y-158573500D01*
X129281648Y-158573500D01*
X129348687Y-158593185D01*
X129383220Y-158626373D01*
X129493802Y-158784300D01*
X129655700Y-158946198D01*
X129843251Y-159077523D01*
X129968091Y-159135736D01*
X130050750Y-159174281D01*
X130050752Y-159174281D01*
X130050757Y-159174284D01*
X130271913Y-159233543D01*
X130434832Y-159247796D01*
X130499998Y-159253498D01*
X130500000Y-159253498D01*
X130500002Y-159253498D01*
X130557021Y-159248509D01*
X130728087Y-159233543D01*
X130949243Y-159174284D01*
X131156749Y-159077523D01*
X131344300Y-158946198D01*
X131506198Y-158784300D01*
X131637523Y-158596749D01*
X131734284Y-158389243D01*
X131793543Y-158168087D01*
X131813498Y-157940000D01*
X131810803Y-157909201D01*
X131805506Y-157848654D01*
X137691500Y-157848654D01*
X137698011Y-157909202D01*
X137698011Y-157909204D01*
X137749110Y-158046204D01*
X137749111Y-158046204D01*
X137836739Y-158163261D01*
X137953796Y-158250889D01*
X138090799Y-158301989D01*
X138118050Y-158304918D01*
X138151345Y-158308499D01*
X138151362Y-158308500D01*
X139848638Y-158308500D01*
X139848654Y-158308499D01*
X139875692Y-158305591D01*
X139909201Y-158301989D01*
X140046204Y-158250889D01*
X140163261Y-158163261D01*
X140250889Y-158046204D01*
X140301989Y-157909201D01*
X140307972Y-157853553D01*
X140308499Y-157848654D01*
X140308677Y-157845331D01*
X140308855Y-157845340D01*
X140308856Y-157845335D01*
X140308959Y-157845346D01*
X140310128Y-157845408D01*
X140328185Y-157783915D01*
X140380989Y-157738160D01*
X140413966Y-157732480D01*
X141102046Y-157044399D01*
X141114835Y-157125148D01*
X141172359Y-157238045D01*
X141261955Y-157327641D01*
X141374852Y-157385165D01*
X141455599Y-157397953D01*
X140774526Y-158079025D01*
X140774526Y-158079026D01*
X140847512Y-158130131D01*
X140847516Y-158130133D01*
X141053673Y-158226265D01*
X141053682Y-158226269D01*
X141273389Y-158285139D01*
X141273400Y-158285141D01*
X141499998Y-158304966D01*
X141500002Y-158304966D01*
X141726599Y-158285141D01*
X141726610Y-158285139D01*
X141946317Y-158226269D01*
X141946331Y-158226264D01*
X142152478Y-158130136D01*
X142225472Y-158079025D01*
X141544401Y-157397953D01*
X141625148Y-157385165D01*
X141738045Y-157327641D01*
X141827641Y-157238045D01*
X141885165Y-157125148D01*
X141897953Y-157044400D01*
X142579025Y-157725472D01*
X142630136Y-157652478D01*
X142726264Y-157446331D01*
X142726269Y-157446317D01*
X142785139Y-157226610D01*
X142785141Y-157226599D01*
X142804966Y-157000002D01*
X142804966Y-156999997D01*
X142785141Y-156773400D01*
X142785139Y-156773389D01*
X142726269Y-156553682D01*
X142726265Y-156553673D01*
X142630133Y-156347516D01*
X142630131Y-156347512D01*
X142579026Y-156274526D01*
X142579025Y-156274526D01*
X141897953Y-156955598D01*
X141885165Y-156874852D01*
X141827641Y-156761955D01*
X141738045Y-156672359D01*
X141625148Y-156614835D01*
X141544400Y-156602046D01*
X142225472Y-155920974D01*
X142225471Y-155920973D01*
X142152483Y-155869866D01*
X142152481Y-155869865D01*
X141946326Y-155773734D01*
X141946317Y-155773730D01*
X141726610Y-155714860D01*
X141726599Y-155714858D01*
X141500002Y-155695034D01*
X141499998Y-155695034D01*
X141273400Y-155714858D01*
X141273389Y-155714860D01*
X141053682Y-155773730D01*
X141053673Y-155773734D01*
X140847513Y-155869868D01*
X140774527Y-155920972D01*
X140774526Y-155920973D01*
X141455600Y-156602046D01*
X141374852Y-156614835D01*
X141261955Y-156672359D01*
X141172359Y-156761955D01*
X141114835Y-156874852D01*
X141102046Y-156955599D01*
X140412909Y-156266462D01*
X140374806Y-156258804D01*
X140324623Y-156210188D01*
X140309965Y-156154600D01*
X140308959Y-156154653D01*
X140308856Y-156154665D01*
X140308855Y-156154659D01*
X140308677Y-156154669D01*
X140308499Y-156151345D01*
X140305157Y-156120270D01*
X140301989Y-156090799D01*
X140290528Y-156060072D01*
X140254343Y-155963057D01*
X140250889Y-155953796D01*
X140163261Y-155836739D01*
X140046204Y-155749111D01*
X140046203Y-155749110D01*
X139909203Y-155698011D01*
X139848654Y-155691500D01*
X139848638Y-155691500D01*
X138151362Y-155691500D01*
X138151345Y-155691500D01*
X138090797Y-155698011D01*
X138090795Y-155698011D01*
X137953795Y-155749111D01*
X137836739Y-155836739D01*
X137749111Y-155953795D01*
X137698011Y-156090795D01*
X137698011Y-156090797D01*
X137691500Y-156151345D01*
X137691500Y-157848654D01*
X131805506Y-157848654D01*
X131805216Y-157845335D01*
X131793543Y-157711913D01*
X131734284Y-157490757D01*
X131713561Y-157446317D01*
X131637524Y-157283254D01*
X131637523Y-157283252D01*
X131637523Y-157283251D01*
X131506198Y-157095700D01*
X131344300Y-156933802D01*
X131156749Y-156802477D01*
X131096810Y-156774527D01*
X130949249Y-156705718D01*
X130949238Y-156705714D01*
X130728089Y-156646457D01*
X130728081Y-156646456D01*
X130500002Y-156626502D01*
X130499998Y-156626502D01*
X130271918Y-156646456D01*
X130271910Y-156646457D01*
X130050761Y-156705714D01*
X130050750Y-156705718D01*
X129843254Y-156802475D01*
X129843252Y-156802476D01*
X129843249Y-156802477D01*
X129843251Y-156802477D01*
X129655700Y-156933802D01*
X129655698Y-156933803D01*
X129655695Y-156933806D01*
X129493805Y-157095696D01*
X129493800Y-157095702D01*
X129474698Y-157122983D01*
X129420121Y-157166607D01*
X129350622Y-157173799D01*
X129288268Y-157142276D01*
X129285443Y-157139539D01*
X128446620Y-156300715D01*
X128413135Y-156239392D01*
X128410982Y-156226012D01*
X128393542Y-156060072D01*
X128334527Y-155878444D01*
X128239040Y-155713056D01*
X128111253Y-155571134D01*
X127956752Y-155458882D01*
X127884941Y-155426910D01*
X127831707Y-155381662D01*
X127811385Y-155314813D01*
X127830430Y-155247589D01*
X127882794Y-155201334D01*
X127976749Y-155157523D01*
X128164300Y-155026198D01*
X128326198Y-154864300D01*
X128457523Y-154676749D01*
X128554284Y-154469243D01*
X128613543Y-154248087D01*
X128628500Y-154077127D01*
X128628500Y-153162873D01*
X128613543Y-152991913D01*
X128554284Y-152770757D01*
X128457523Y-152563251D01*
X128326198Y-152375700D01*
X128220679Y-152270181D01*
X128187194Y-152208858D01*
X128192178Y-152139166D01*
X128234050Y-152083233D01*
X128299514Y-152058816D01*
X128308360Y-152058500D01*
X129588725Y-152058500D01*
X129604472Y-152060238D01*
X129604498Y-152059968D01*
X129612265Y-152060702D01*
X129612267Y-152060701D01*
X129612268Y-152060702D01*
X129621618Y-152060408D01*
X129681350Y-152058531D01*
X129683298Y-152058500D01*
X129712216Y-152058500D01*
X129713581Y-152058327D01*
X129719221Y-152057614D01*
X129725044Y-152057156D01*
X129751067Y-152056338D01*
X129772249Y-152055673D01*
X129782040Y-152052827D01*
X129791840Y-152049980D01*
X129810897Y-152046032D01*
X129831156Y-152043474D01*
X129875080Y-152026082D01*
X129880580Y-152024199D01*
X129925952Y-152011018D01*
X129943524Y-152000625D01*
X129960991Y-151992068D01*
X129979976Y-151984552D01*
X130018185Y-151956790D01*
X130023063Y-151953585D01*
X130063721Y-151929542D01*
X130078161Y-151915100D01*
X130092951Y-151902470D01*
X130109466Y-151890472D01*
X130139576Y-151854073D01*
X130143502Y-151849760D01*
X130240841Y-151752423D01*
X130302164Y-151718939D01*
X130328521Y-151716105D01*
X130385241Y-151716105D01*
X130572042Y-151676399D01*
X130746506Y-151598723D01*
X130901007Y-151486471D01*
X131028794Y-151344549D01*
X131124281Y-151179161D01*
X131183296Y-150997533D01*
X131203258Y-150807605D01*
X131183296Y-150617677D01*
X131124281Y-150436049D01*
X131028794Y-150270661D01*
X130901007Y-150128739D01*
X130746506Y-150016487D01*
X130723397Y-150006198D01*
X130698983Y-149995328D01*
X130645746Y-149950077D01*
X130626099Y-149895010D01*
X130619076Y-149828185D01*
X130615593Y-149795048D01*
X130556578Y-149613420D01*
X130461091Y-149448032D01*
X130333304Y-149306110D01*
X130178803Y-149193858D01*
X130004339Y-149116182D01*
X130004337Y-149116181D01*
X129817538Y-149076476D01*
X129682390Y-149076476D01*
X129615351Y-149056791D01*
X129569596Y-149003987D01*
X129569023Y-149000001D01*
X133686502Y-149000001D01*
X133706456Y-149228081D01*
X133706457Y-149228089D01*
X133765714Y-149449238D01*
X133765718Y-149449249D01*
X133842270Y-149613415D01*
X133862477Y-149656749D01*
X133993802Y-149844300D01*
X134155700Y-150006198D01*
X134343251Y-150137523D01*
X134468091Y-150195736D01*
X134550750Y-150234281D01*
X134550752Y-150234281D01*
X134550757Y-150234284D01*
X134771913Y-150293543D01*
X134934832Y-150307796D01*
X134999998Y-150313498D01*
X135000000Y-150313498D01*
X135000002Y-150313498D01*
X135057127Y-150308500D01*
X135228087Y-150293543D01*
X135449243Y-150234284D01*
X135656749Y-150137523D01*
X135844300Y-150006198D01*
X136006198Y-149844300D01*
X136137523Y-149656749D01*
X136234284Y-149449243D01*
X136293543Y-149228087D01*
X136313498Y-149000000D01*
X136312506Y-148988666D01*
X136305114Y-148904176D01*
X136293543Y-148771913D01*
X136234284Y-148550757D01*
X136234264Y-148550715D01*
X136137524Y-148343254D01*
X136137523Y-148343252D01*
X136137523Y-148343251D01*
X136006198Y-148155700D01*
X135844300Y-147993802D01*
X135656749Y-147862477D01*
X135636134Y-147852864D01*
X135449249Y-147765718D01*
X135449238Y-147765714D01*
X135228089Y-147706457D01*
X135228081Y-147706456D01*
X135000002Y-147686502D01*
X134999998Y-147686502D01*
X134771918Y-147706456D01*
X134771910Y-147706457D01*
X134550761Y-147765714D01*
X134550750Y-147765718D01*
X134343254Y-147862475D01*
X134343252Y-147862476D01*
X134320449Y-147878443D01*
X134155700Y-147993802D01*
X134155698Y-147993803D01*
X134155695Y-147993806D01*
X133993806Y-148155695D01*
X133993803Y-148155698D01*
X133993802Y-148155700D01*
X133921769Y-148258574D01*
X133862476Y-148343252D01*
X133862475Y-148343254D01*
X133765718Y-148550750D01*
X133765714Y-148550761D01*
X133706457Y-148771910D01*
X133706456Y-148771918D01*
X133686502Y-148999998D01*
X133686502Y-149000001D01*
X129569023Y-149000001D01*
X129559652Y-148934829D01*
X129564459Y-148914158D01*
X129578303Y-148871549D01*
X129590533Y-148833910D01*
X129610495Y-148643982D01*
X129590533Y-148454054D01*
X129531518Y-148272426D01*
X129436031Y-148107038D01*
X129308244Y-147965116D01*
X129210684Y-147894234D01*
X129168020Y-147838905D01*
X129160250Y-147780955D01*
X129160725Y-147776436D01*
X129163504Y-147750000D01*
X129143542Y-147560072D01*
X129084527Y-147378444D01*
X128989040Y-147213056D01*
X128861253Y-147071134D01*
X128799916Y-147026570D01*
X128706753Y-146958882D01*
X128641036Y-146929623D01*
X128587800Y-146884372D01*
X128567479Y-146817523D01*
X128571697Y-146784256D01*
X128613543Y-146628087D01*
X128628500Y-146457127D01*
X128628500Y-145542873D01*
X128613543Y-145371913D01*
X128554284Y-145150757D01*
X128546403Y-145133857D01*
X128505989Y-145047188D01*
X128457523Y-144943251D01*
X128326198Y-144755700D01*
X128164300Y-144593802D01*
X128109191Y-144555214D01*
X128065568Y-144500639D01*
X128058376Y-144431140D01*
X128072929Y-144391643D01*
X128084527Y-144371556D01*
X128143542Y-144189928D01*
X128163504Y-144000002D01*
X133695034Y-144000002D01*
X133714858Y-144226599D01*
X133714860Y-144226610D01*
X133773730Y-144446317D01*
X133773734Y-144446326D01*
X133869865Y-144652481D01*
X133869866Y-144652483D01*
X133920973Y-144725471D01*
X133920974Y-144725472D01*
X134602046Y-144044399D01*
X134614835Y-144125148D01*
X134672359Y-144238045D01*
X134761955Y-144327641D01*
X134874852Y-144385165D01*
X134955599Y-144397953D01*
X134274526Y-145079025D01*
X134274526Y-145079026D01*
X134347512Y-145130131D01*
X134347516Y-145130133D01*
X134553673Y-145226265D01*
X134553682Y-145226269D01*
X134773389Y-145285139D01*
X134773400Y-145285141D01*
X134999998Y-145304966D01*
X135000002Y-145304966D01*
X135226599Y-145285141D01*
X135226610Y-145285139D01*
X135446317Y-145226269D01*
X135446331Y-145226264D01*
X135652478Y-145130136D01*
X135725472Y-145079025D01*
X135044401Y-144397953D01*
X135125148Y-144385165D01*
X135238045Y-144327641D01*
X135327641Y-144238045D01*
X135385165Y-144125148D01*
X135397953Y-144044400D01*
X136079025Y-144725472D01*
X136130136Y-144652478D01*
X136226264Y-144446331D01*
X136226269Y-144446317D01*
X136285139Y-144226610D01*
X136285141Y-144226599D01*
X136304966Y-144000002D01*
X136304966Y-143999997D01*
X136285141Y-143773400D01*
X136285139Y-143773389D01*
X136226269Y-143553682D01*
X136226265Y-143553673D01*
X136130133Y-143347516D01*
X136130131Y-143347512D01*
X136079026Y-143274526D01*
X136079025Y-143274526D01*
X135397953Y-143955598D01*
X135385165Y-143874852D01*
X135327641Y-143761955D01*
X135238045Y-143672359D01*
X135125148Y-143614835D01*
X135044400Y-143602046D01*
X135725472Y-142920974D01*
X135725471Y-142920973D01*
X135652483Y-142869866D01*
X135652481Y-142869865D01*
X135446326Y-142773734D01*
X135446317Y-142773730D01*
X135226610Y-142714860D01*
X135226599Y-142714858D01*
X135000002Y-142695034D01*
X134999998Y-142695034D01*
X134773400Y-142714858D01*
X134773389Y-142714860D01*
X134553682Y-142773730D01*
X134553673Y-142773734D01*
X134347513Y-142869868D01*
X134274527Y-142920972D01*
X134274526Y-142920973D01*
X134955600Y-143602046D01*
X134874852Y-143614835D01*
X134761955Y-143672359D01*
X134672359Y-143761955D01*
X134614835Y-143874852D01*
X134602046Y-143955599D01*
X133920973Y-143274526D01*
X133920972Y-143274527D01*
X133869868Y-143347513D01*
X133773734Y-143553673D01*
X133773730Y-143553682D01*
X133714860Y-143773389D01*
X133714858Y-143773400D01*
X133695034Y-143999997D01*
X133695034Y-144000002D01*
X128163504Y-144000002D01*
X128163504Y-144000000D01*
X128143542Y-143810072D01*
X128084527Y-143628444D01*
X127989040Y-143463056D01*
X127861253Y-143321134D01*
X127706752Y-143208882D01*
X127624303Y-143172173D01*
X127571068Y-143126925D01*
X127550746Y-143060076D01*
X127569791Y-142992852D01*
X127622157Y-142946596D01*
X127674740Y-142934895D01*
X131356754Y-142934895D01*
X131423793Y-142954580D01*
X131429639Y-142958577D01*
X131543243Y-143041115D01*
X131543245Y-143041116D01*
X131543248Y-143041118D01*
X131717712Y-143118794D01*
X131904513Y-143158500D01*
X132095487Y-143158500D01*
X132282288Y-143118794D01*
X132456752Y-143041118D01*
X132611253Y-142928866D01*
X132739040Y-142786944D01*
X132780659Y-142714858D01*
X132816498Y-142652784D01*
X132867065Y-142604568D01*
X132911874Y-142593697D01*
X132911640Y-142591464D01*
X132918106Y-142590784D01*
X132918107Y-142590784D01*
X133104908Y-142551078D01*
X133279372Y-142473402D01*
X133433873Y-142361150D01*
X133561660Y-142219228D01*
X133657147Y-142053840D01*
X133716162Y-141872212D01*
X133736124Y-141682284D01*
X133716162Y-141492356D01*
X133657147Y-141310728D01*
X133561660Y-141145340D01*
X133433873Y-141003418D01*
X133279372Y-140891166D01*
X133104908Y-140813490D01*
X133104906Y-140813489D01*
X132918107Y-140773784D01*
X132727133Y-140773784D01*
X132540334Y-140813489D01*
X132540331Y-140813490D01*
X132540332Y-140813490D01*
X132465483Y-140846815D01*
X132445347Y-140855780D01*
X132394912Y-140866500D01*
X121207309Y-140866500D01*
X121140270Y-140846815D01*
X121115160Y-140825473D01*
X121111254Y-140821135D01*
X121100731Y-140813489D01*
X120956752Y-140708882D01*
X120782288Y-140631206D01*
X120782286Y-140631205D01*
X120595487Y-140591500D01*
X120404513Y-140591500D01*
X120217714Y-140631205D01*
X120043246Y-140708883D01*
X119888745Y-140821135D01*
X119884840Y-140825473D01*
X119825354Y-140862121D01*
X119792691Y-140866500D01*
X93284719Y-140866500D01*
X93217680Y-140846815D01*
X93171925Y-140794011D01*
X93161398Y-140755462D01*
X93156502Y-140708882D01*
X93143542Y-140585572D01*
X93084527Y-140403944D01*
X92989040Y-140238556D01*
X92861253Y-140096634D01*
X92706752Y-139984382D01*
X92532288Y-139906706D01*
X92532286Y-139906705D01*
X92345487Y-139867000D01*
X92213265Y-139867000D01*
X92146226Y-139847315D01*
X92100471Y-139794511D01*
X92090527Y-139725353D01*
X92119552Y-139661797D01*
X92125584Y-139655319D01*
X93639716Y-138141187D01*
X94873163Y-136907740D01*
X94934485Y-136874256D01*
X95004177Y-136879240D01*
X95060110Y-136921112D01*
X95084527Y-136986576D01*
X95084843Y-136995422D01*
X95084843Y-137000001D01*
X95105430Y-137235315D01*
X95105432Y-137235326D01*
X95166566Y-137463483D01*
X95166570Y-137463492D01*
X95266400Y-137677579D01*
X95266402Y-137677583D01*
X95325072Y-137761373D01*
X95325073Y-137761373D01*
X95956922Y-137129523D01*
X95980507Y-137209844D01*
X96058239Y-137330798D01*
X96166900Y-137424952D01*
X96297685Y-137484680D01*
X96307466Y-137486086D01*
X95678625Y-138114925D01*
X95762421Y-138173599D01*
X95976507Y-138273429D01*
X95976516Y-138273433D01*
X96204673Y-138334567D01*
X96204684Y-138334569D01*
X96439998Y-138355157D01*
X96440002Y-138355157D01*
X96675315Y-138334569D01*
X96675326Y-138334567D01*
X96903483Y-138273433D01*
X96903492Y-138273429D01*
X97117578Y-138173600D01*
X97117582Y-138173598D01*
X97201373Y-138114926D01*
X97201373Y-138114925D01*
X96572533Y-137486086D01*
X96582315Y-137484680D01*
X96713100Y-137424952D01*
X96821761Y-137330798D01*
X96899493Y-137209844D01*
X96923076Y-137129524D01*
X97554925Y-137761373D01*
X97608425Y-137684968D01*
X97663002Y-137641344D01*
X97732501Y-137634151D01*
X97794855Y-137665673D01*
X97811576Y-137684969D01*
X97865073Y-137761372D01*
X98496922Y-137129522D01*
X98520507Y-137209844D01*
X98598239Y-137330798D01*
X98706900Y-137424952D01*
X98837685Y-137484680D01*
X98847466Y-137486086D01*
X98218625Y-138114925D01*
X98302421Y-138173599D01*
X98516507Y-138273429D01*
X98516516Y-138273433D01*
X98744673Y-138334567D01*
X98744684Y-138334569D01*
X98979998Y-138355157D01*
X98980002Y-138355157D01*
X99215315Y-138334569D01*
X99215326Y-138334567D01*
X99443483Y-138273433D01*
X99443492Y-138273429D01*
X99657578Y-138173600D01*
X99657582Y-138173598D01*
X99741373Y-138114926D01*
X99741373Y-138114925D01*
X99112533Y-137486086D01*
X99122315Y-137484680D01*
X99253100Y-137424952D01*
X99361761Y-137330798D01*
X99439493Y-137209844D01*
X99463076Y-137129524D01*
X100094925Y-137761373D01*
X100148425Y-137684968D01*
X100203002Y-137641344D01*
X100272501Y-137634151D01*
X100334855Y-137665673D01*
X100351576Y-137684969D01*
X100405073Y-137761372D01*
X101036922Y-137129522D01*
X101060507Y-137209844D01*
X101138239Y-137330798D01*
X101246900Y-137424952D01*
X101377685Y-137484680D01*
X101387466Y-137486086D01*
X100758625Y-138114925D01*
X100842421Y-138173599D01*
X101056507Y-138273429D01*
X101056516Y-138273433D01*
X101284673Y-138334567D01*
X101284684Y-138334569D01*
X101519998Y-138355157D01*
X101520002Y-138355157D01*
X101755315Y-138334569D01*
X101755326Y-138334567D01*
X101983483Y-138273433D01*
X101983492Y-138273429D01*
X102197578Y-138173600D01*
X102197582Y-138173598D01*
X102281373Y-138114926D01*
X102281373Y-138114925D01*
X101652533Y-137486086D01*
X101662315Y-137484680D01*
X101793100Y-137424952D01*
X101901761Y-137330798D01*
X101979493Y-137209844D01*
X102003076Y-137129524D01*
X102634925Y-137761373D01*
X102688425Y-137684968D01*
X102743002Y-137641344D01*
X102812501Y-137634151D01*
X102874855Y-137665673D01*
X102891576Y-137684969D01*
X102945073Y-137761372D01*
X103576922Y-137129522D01*
X103600507Y-137209844D01*
X103678239Y-137330798D01*
X103786900Y-137424952D01*
X103917685Y-137484680D01*
X103927466Y-137486086D01*
X103298625Y-138114925D01*
X103382421Y-138173599D01*
X103596507Y-138273429D01*
X103596516Y-138273433D01*
X103824673Y-138334567D01*
X103824684Y-138334569D01*
X104059998Y-138355157D01*
X104060002Y-138355157D01*
X104295315Y-138334569D01*
X104295326Y-138334567D01*
X104523483Y-138273433D01*
X104523492Y-138273429D01*
X104737578Y-138173600D01*
X104737582Y-138173598D01*
X104821373Y-138114926D01*
X104821373Y-138114925D01*
X104192533Y-137486086D01*
X104202315Y-137484680D01*
X104333100Y-137424952D01*
X104441761Y-137330798D01*
X104519493Y-137209844D01*
X104543076Y-137129524D01*
X105174925Y-137761373D01*
X105228425Y-137684968D01*
X105283002Y-137641344D01*
X105352501Y-137634151D01*
X105414855Y-137665673D01*
X105431576Y-137684969D01*
X105485073Y-137761372D01*
X106116922Y-137129522D01*
X106140507Y-137209844D01*
X106218239Y-137330798D01*
X106326900Y-137424952D01*
X106457685Y-137484680D01*
X106467465Y-137486086D01*
X105838625Y-138114925D01*
X105922421Y-138173599D01*
X106136507Y-138273429D01*
X106136516Y-138273433D01*
X106364673Y-138334567D01*
X106364684Y-138334569D01*
X106599998Y-138355157D01*
X106600002Y-138355157D01*
X106835315Y-138334569D01*
X106835326Y-138334567D01*
X107063483Y-138273433D01*
X107063492Y-138273429D01*
X107277578Y-138173600D01*
X107277582Y-138173598D01*
X107361373Y-138114926D01*
X106732532Y-137486086D01*
X106742315Y-137484680D01*
X106873100Y-137424952D01*
X106981761Y-137330798D01*
X107059493Y-137209844D01*
X107083076Y-137129524D01*
X107714925Y-137761373D01*
X107764868Y-137690048D01*
X107819445Y-137646424D01*
X107888944Y-137639231D01*
X107951298Y-137670753D01*
X107970251Y-137693350D01*
X108064276Y-137837265D01*
X108064284Y-137837276D01*
X108216756Y-138002902D01*
X108216760Y-138002906D01*
X108394424Y-138141189D01*
X108394425Y-138141189D01*
X108394427Y-138141191D01*
X108454314Y-138173600D01*
X108592426Y-138248342D01*
X108805365Y-138321444D01*
X109027431Y-138358500D01*
X109252569Y-138358500D01*
X109474635Y-138321444D01*
X109687574Y-138248342D01*
X109885576Y-138141189D01*
X110063240Y-138002906D01*
X110215722Y-137837268D01*
X110309749Y-137693347D01*
X110362894Y-137647994D01*
X110432125Y-137638570D01*
X110495461Y-137668072D01*
X110515131Y-137690049D01*
X110565072Y-137761373D01*
X110565073Y-137761373D01*
X111196922Y-137129523D01*
X111220507Y-137209844D01*
X111298239Y-137330798D01*
X111406900Y-137424952D01*
X111537685Y-137484680D01*
X111547466Y-137486086D01*
X110918625Y-138114925D01*
X111002421Y-138173599D01*
X111216507Y-138273429D01*
X111216516Y-138273433D01*
X111444673Y-138334567D01*
X111444684Y-138334569D01*
X111679998Y-138355157D01*
X111680002Y-138355157D01*
X111915315Y-138334569D01*
X111915326Y-138334567D01*
X112143483Y-138273433D01*
X112143492Y-138273429D01*
X112357578Y-138173600D01*
X112357582Y-138173598D01*
X112441373Y-138114926D01*
X112441373Y-138114925D01*
X111812533Y-137486086D01*
X111822315Y-137484680D01*
X111953100Y-137424952D01*
X112061761Y-137330798D01*
X112139493Y-137209844D01*
X112163076Y-137129524D01*
X112794925Y-137761373D01*
X112848425Y-137684968D01*
X112903002Y-137641344D01*
X112972501Y-137634151D01*
X113034855Y-137665673D01*
X113051576Y-137684969D01*
X113105073Y-137761372D01*
X113736922Y-137129522D01*
X113760507Y-137209844D01*
X113838239Y-137330798D01*
X113946900Y-137424952D01*
X114077685Y-137484680D01*
X114087466Y-137486086D01*
X113458625Y-138114925D01*
X113542421Y-138173599D01*
X113756507Y-138273429D01*
X113756516Y-138273433D01*
X113984673Y-138334567D01*
X113984684Y-138334569D01*
X114219998Y-138355157D01*
X114220002Y-138355157D01*
X114455315Y-138334569D01*
X114455326Y-138334567D01*
X114683483Y-138273433D01*
X114683492Y-138273429D01*
X114897578Y-138173600D01*
X114897582Y-138173598D01*
X114981373Y-138114926D01*
X114981373Y-138114925D01*
X114352533Y-137486086D01*
X114362315Y-137484680D01*
X114493100Y-137424952D01*
X114601761Y-137330798D01*
X114679493Y-137209844D01*
X114703076Y-137129524D01*
X115334925Y-137761373D01*
X115384868Y-137690048D01*
X115439445Y-137646424D01*
X115508944Y-137639231D01*
X115571298Y-137670753D01*
X115590251Y-137693350D01*
X115684276Y-137837265D01*
X115684284Y-137837276D01*
X115836756Y-138002902D01*
X115836760Y-138002906D01*
X116014424Y-138141189D01*
X116014425Y-138141189D01*
X116014427Y-138141191D01*
X116074314Y-138173600D01*
X116212426Y-138248342D01*
X116425365Y-138321444D01*
X116647431Y-138358500D01*
X116872569Y-138358500D01*
X117094635Y-138321444D01*
X117307574Y-138248342D01*
X117505576Y-138141189D01*
X117683240Y-138002906D01*
X117835722Y-137837268D01*
X117926193Y-137698790D01*
X117979338Y-137653437D01*
X118048569Y-137644013D01*
X118111905Y-137673515D01*
X118133804Y-137698787D01*
X118224278Y-137837268D01*
X118224283Y-137837273D01*
X118224284Y-137837276D01*
X118376756Y-138002902D01*
X118376760Y-138002906D01*
X118554424Y-138141189D01*
X118554425Y-138141189D01*
X118554427Y-138141191D01*
X118614314Y-138173600D01*
X118752426Y-138248342D01*
X118965365Y-138321444D01*
X119187431Y-138358500D01*
X119412569Y-138358500D01*
X119634635Y-138321444D01*
X119847574Y-138248342D01*
X120045576Y-138141189D01*
X120223240Y-138002906D01*
X120375722Y-137837268D01*
X120466193Y-137698790D01*
X120519338Y-137653437D01*
X120588569Y-137644013D01*
X120651905Y-137673515D01*
X120673804Y-137698787D01*
X120764278Y-137837268D01*
X120764283Y-137837273D01*
X120764284Y-137837276D01*
X120916756Y-138002902D01*
X120916760Y-138002906D01*
X121094424Y-138141189D01*
X121094425Y-138141189D01*
X121094427Y-138141191D01*
X121154314Y-138173600D01*
X121292426Y-138248342D01*
X121505365Y-138321444D01*
X121727431Y-138358500D01*
X121952569Y-138358500D01*
X122174635Y-138321444D01*
X122387574Y-138248342D01*
X122585576Y-138141189D01*
X122763240Y-138002906D01*
X122915722Y-137837268D01*
X123006193Y-137698791D01*
X123059336Y-137653437D01*
X123128567Y-137644013D01*
X123191903Y-137673515D01*
X123213807Y-137698793D01*
X123304276Y-137837265D01*
X123304284Y-137837276D01*
X123456756Y-138002902D01*
X123456760Y-138002906D01*
X123634424Y-138141189D01*
X123634425Y-138141189D01*
X123634427Y-138141191D01*
X123694314Y-138173600D01*
X123832426Y-138248342D01*
X124045365Y-138321444D01*
X124267431Y-138358500D01*
X124492569Y-138358500D01*
X124714635Y-138321444D01*
X124927574Y-138248342D01*
X125125576Y-138141189D01*
X125303240Y-138002906D01*
X125455722Y-137837268D01*
X125546193Y-137698790D01*
X125599338Y-137653437D01*
X125668569Y-137644013D01*
X125731905Y-137673515D01*
X125753804Y-137698787D01*
X125844278Y-137837268D01*
X125844283Y-137837273D01*
X125844284Y-137837276D01*
X125996756Y-138002902D01*
X125996760Y-138002906D01*
X126174424Y-138141189D01*
X126174425Y-138141189D01*
X126174427Y-138141191D01*
X126234314Y-138173600D01*
X126372426Y-138248342D01*
X126585365Y-138321444D01*
X126807431Y-138358500D01*
X127032569Y-138358500D01*
X127254635Y-138321444D01*
X127467574Y-138248342D01*
X127665576Y-138141189D01*
X127843240Y-138002906D01*
X127995722Y-137837268D01*
X128086193Y-137698790D01*
X128139338Y-137653437D01*
X128208569Y-137644013D01*
X128271905Y-137673515D01*
X128293804Y-137698787D01*
X128384278Y-137837268D01*
X128384283Y-137837273D01*
X128384284Y-137837276D01*
X128536756Y-138002902D01*
X128536760Y-138002906D01*
X128714424Y-138141189D01*
X128714425Y-138141189D01*
X128714427Y-138141191D01*
X128774314Y-138173600D01*
X128912426Y-138248342D01*
X129125365Y-138321444D01*
X129347431Y-138358500D01*
X129572569Y-138358500D01*
X129794635Y-138321444D01*
X130007574Y-138248342D01*
X130205576Y-138141189D01*
X130383240Y-138002906D01*
X130535722Y-137837268D01*
X130626193Y-137698790D01*
X130679338Y-137653437D01*
X130748569Y-137644013D01*
X130811905Y-137673515D01*
X130833804Y-137698787D01*
X130924278Y-137837268D01*
X130924283Y-137837273D01*
X130924284Y-137837276D01*
X131076756Y-138002902D01*
X131076760Y-138002906D01*
X131254424Y-138141189D01*
X131254425Y-138141189D01*
X131254427Y-138141191D01*
X131314314Y-138173600D01*
X131452426Y-138248342D01*
X131665365Y-138321444D01*
X131887431Y-138358500D01*
X132112569Y-138358500D01*
X132334635Y-138321444D01*
X132547574Y-138248342D01*
X132745576Y-138141189D01*
X132923240Y-138002906D01*
X133075722Y-137837268D01*
X133198860Y-137648791D01*
X133289296Y-137442616D01*
X133344564Y-137224368D01*
X133344662Y-137223189D01*
X133363156Y-137000005D01*
X133363156Y-136999994D01*
X133344565Y-136775640D01*
X133344563Y-136775628D01*
X133289296Y-136557385D01*
X133280142Y-136536516D01*
X133198860Y-136351209D01*
X133075722Y-136162732D01*
X133075719Y-136162729D01*
X133075715Y-136162723D01*
X132923243Y-135997097D01*
X132923241Y-135997096D01*
X132923240Y-135997094D01*
X132917697Y-135992780D01*
X132885481Y-135967704D01*
X132844669Y-135910994D01*
X132840996Y-135841220D01*
X132875628Y-135780538D01*
X132916513Y-135755848D01*
X132916195Y-135755165D01*
X132922565Y-135752194D01*
X132922647Y-135752144D01*
X132922738Y-135752115D01*
X133073652Y-135659030D01*
X133199030Y-135533652D01*
X133292115Y-135382738D01*
X133347887Y-135214426D01*
X133358500Y-135110545D01*
X133358499Y-134042499D01*
X133378183Y-133975461D01*
X133430987Y-133929706D01*
X133482499Y-133918500D01*
X139867500Y-133918500D01*
X139934539Y-133938185D01*
X139980294Y-133990989D01*
X139991500Y-134042500D01*
X139991500Y-141879538D01*
X139971815Y-141946577D01*
X139919011Y-141992332D01*
X139854245Y-142002828D01*
X139818638Y-141999000D01*
X137721362Y-141999000D01*
X137721345Y-141999000D01*
X137660797Y-142005511D01*
X137660795Y-142005511D01*
X137523795Y-142056611D01*
X137406739Y-142144239D01*
X137319111Y-142261295D01*
X137268011Y-142398295D01*
X137268011Y-142398297D01*
X137261500Y-142458845D01*
X137261500Y-144461154D01*
X137268011Y-144521702D01*
X137268011Y-144521704D01*
X137310761Y-144636317D01*
X137319111Y-144658704D01*
X137406739Y-144775761D01*
X137523796Y-144863389D01*
X137553657Y-144874526D01*
X137609588Y-144916397D01*
X137634005Y-144981861D01*
X137619153Y-145050134D01*
X137608175Y-145066869D01*
X137502345Y-145202838D01*
X137502344Y-145202840D01*
X137387784Y-145414531D01*
X137387778Y-145414545D01*
X137309619Y-145642208D01*
X137291633Y-145749999D01*
X137291634Y-145750000D01*
X138275148Y-145750000D01*
X138226441Y-145887047D01*
X138216123Y-146037886D01*
X138246884Y-146185915D01*
X138280090Y-146250000D01*
X137291633Y-146250000D01*
X137309619Y-146357791D01*
X137387778Y-146585454D01*
X137387784Y-146585468D01*
X137502344Y-146797159D01*
X137502350Y-146797168D01*
X137650193Y-146987116D01*
X137650202Y-146987126D01*
X137827295Y-147150153D01*
X137844071Y-147161113D01*
X137889429Y-147214259D01*
X137898853Y-147283490D01*
X137869352Y-147346826D01*
X137844077Y-147368729D01*
X137822058Y-147383115D01*
X137672222Y-147521049D01*
X137654329Y-147537522D01*
X137643922Y-147547102D01*
X137495209Y-147738167D01*
X137495206Y-147738172D01*
X137379973Y-147951105D01*
X137379967Y-147951119D01*
X137301352Y-148180113D01*
X137285948Y-148272426D01*
X137261500Y-148418938D01*
X137261500Y-148661062D01*
X137269307Y-148707848D01*
X137301352Y-148899886D01*
X137379967Y-149128880D01*
X137379973Y-149128894D01*
X137495206Y-149341827D01*
X137495209Y-149341832D01*
X137547099Y-149408500D01*
X137643924Y-149532900D01*
X137785534Y-149663261D01*
X137822062Y-149696888D01*
X137993443Y-149808856D01*
X138024758Y-149829315D01*
X138246488Y-149926575D01*
X138481203Y-149986013D01*
X138662073Y-150001000D01*
X138662081Y-150001000D01*
X138877919Y-150001000D01*
X138877927Y-150001000D01*
X139058797Y-149986013D01*
X139293512Y-149926575D01*
X139515242Y-149829315D01*
X139717940Y-149696886D01*
X139896076Y-149532900D01*
X140044792Y-149341830D01*
X140160030Y-149128888D01*
X140238648Y-148899883D01*
X140278500Y-148661062D01*
X140278500Y-148509095D01*
X140298185Y-148442056D01*
X140314814Y-148421419D01*
X141675944Y-147060288D01*
X141680413Y-147056238D01*
X141716568Y-147026568D01*
X141842595Y-146873004D01*
X141936241Y-146697804D01*
X141993908Y-146507701D01*
X142008500Y-146359547D01*
X142013380Y-146310000D01*
X142011944Y-146295422D01*
X142008799Y-146263483D01*
X142008500Y-146257403D01*
X142008500Y-146000000D01*
X153166654Y-146000000D01*
X153168826Y-146033148D01*
X153168924Y-146039276D01*
X153167709Y-146075634D01*
X153167709Y-146075645D01*
X153178798Y-146185875D01*
X153178975Y-146188009D01*
X153180863Y-146216813D01*
X153186016Y-146295422D01*
X153186017Y-146295429D01*
X153193129Y-146331187D01*
X153194009Y-146337076D01*
X153197976Y-146376500D01*
X153222910Y-146481130D01*
X153223408Y-146483406D01*
X153243776Y-146585797D01*
X153243777Y-146585800D01*
X153243779Y-146585808D01*
X153256534Y-146623383D01*
X153258135Y-146628939D01*
X153268072Y-146670632D01*
X153268075Y-146670641D01*
X153305567Y-146767987D01*
X153306420Y-146770341D01*
X153338936Y-146866134D01*
X153338938Y-146866140D01*
X153357928Y-146904650D01*
X153360179Y-146909788D01*
X153376748Y-146952806D01*
X153425338Y-147041472D01*
X153426573Y-147043846D01*
X153469885Y-147131674D01*
X153495538Y-147170068D01*
X153498358Y-147174717D01*
X153522064Y-147217975D01*
X153522071Y-147217985D01*
X153580120Y-147296770D01*
X153581757Y-147299102D01*
X153634367Y-147377838D01*
X153634904Y-147378450D01*
X153666944Y-147414986D01*
X153670245Y-147419089D01*
X153701431Y-147461414D01*
X153730222Y-147491184D01*
X153767221Y-147529440D01*
X153769253Y-147531646D01*
X153829573Y-147600427D01*
X153843874Y-147612969D01*
X153869152Y-147635137D01*
X153872839Y-147638648D01*
X153885119Y-147651345D01*
X153911641Y-147678769D01*
X153911648Y-147678775D01*
X153983367Y-147735411D01*
X153985822Y-147737455D01*
X154052158Y-147795630D01*
X154052160Y-147795631D01*
X154052162Y-147795633D01*
X154071953Y-147808857D01*
X154098627Y-147826680D01*
X154102601Y-147829569D01*
X154148944Y-147866166D01*
X154148943Y-147866166D01*
X154148947Y-147866168D01*
X154148948Y-147866169D01*
X154196333Y-147894235D01*
X154224801Y-147911096D01*
X154227639Y-147912882D01*
X154298327Y-147960115D01*
X154351351Y-147986263D01*
X154355525Y-147988524D01*
X154409114Y-148020265D01*
X154487288Y-148053413D01*
X154490507Y-148054888D01*
X154534865Y-148076762D01*
X154563855Y-148091059D01*
X154622912Y-148111106D01*
X154627172Y-148112730D01*
X154664229Y-148128443D01*
X154687498Y-148138310D01*
X154766311Y-148159899D01*
X154769812Y-148160971D01*
X154844203Y-148186224D01*
X154908548Y-148199022D01*
X154912796Y-148200025D01*
X154979132Y-148218197D01*
X155056901Y-148228655D01*
X155060725Y-148229293D01*
X155134574Y-148243983D01*
X155134584Y-148243983D01*
X155134586Y-148243984D01*
X155203258Y-148248485D01*
X155207463Y-148248904D01*
X155278811Y-148258500D01*
X155354026Y-148258500D01*
X155358082Y-148258633D01*
X155388116Y-148260600D01*
X155430000Y-148263346D01*
X155475439Y-148260367D01*
X155501322Y-148258672D01*
X155503301Y-148258574D01*
X155505494Y-148258500D01*
X155505511Y-148258500D01*
X155579003Y-148253579D01*
X155579179Y-148253618D01*
X155579176Y-148253568D01*
X155579177Y-148253568D01*
X155725426Y-148243983D01*
X155725439Y-148243980D01*
X155726603Y-148243827D01*
X155730578Y-148243433D01*
X155731702Y-148243358D01*
X155875246Y-148214181D01*
X156015797Y-148186224D01*
X156016537Y-148185972D01*
X156024129Y-148183919D01*
X156028021Y-148183129D01*
X156163502Y-148136084D01*
X156296145Y-148091059D01*
X156299762Y-148089274D01*
X156306864Y-148086304D01*
X156306927Y-148086282D01*
X156313668Y-148083942D01*
X156438815Y-148020701D01*
X156561673Y-147960115D01*
X156567733Y-147956064D01*
X156574201Y-147952286D01*
X156583545Y-147947566D01*
X156696534Y-147870003D01*
X156807838Y-147795633D01*
X156815761Y-147788683D01*
X156821536Y-147784194D01*
X156832838Y-147776437D01*
X156932163Y-147686602D01*
X157030427Y-147600427D01*
X157039515Y-147590063D01*
X157044522Y-147584978D01*
X157057097Y-147573606D01*
X157141514Y-147473755D01*
X157225633Y-147377838D01*
X157235099Y-147363669D01*
X157239293Y-147358102D01*
X157252320Y-147342695D01*
X157320683Y-147235603D01*
X157321289Y-147234677D01*
X157390115Y-147131673D01*
X157399072Y-147113507D01*
X157402423Y-147107562D01*
X157415020Y-147087829D01*
X157415021Y-147087828D01*
X157415021Y-147087826D01*
X157415024Y-147087823D01*
X157467135Y-146975525D01*
X157467736Y-146974272D01*
X157475326Y-146958882D01*
X157521059Y-146866145D01*
X157528613Y-146843887D01*
X157531080Y-146837728D01*
X157542306Y-146813539D01*
X157578025Y-146698388D01*
X157578511Y-146696894D01*
X157616224Y-146585797D01*
X157621437Y-146559582D01*
X157623031Y-146553303D01*
X157624056Y-146550000D01*
X157631893Y-146524738D01*
X157651404Y-146409061D01*
X157651720Y-146407345D01*
X157673983Y-146295426D01*
X157675944Y-146265509D01*
X157676675Y-146259247D01*
X157676986Y-146257403D01*
X157682187Y-146226572D01*
X157685998Y-146112547D01*
X157686094Y-146110633D01*
X157693346Y-146000000D01*
X157691171Y-145966834D01*
X157691074Y-145960737D01*
X157692291Y-145924363D01*
X157681202Y-145814143D01*
X157681024Y-145811996D01*
X157673984Y-145704590D01*
X157673983Y-145704581D01*
X157673983Y-145704574D01*
X157666869Y-145668811D01*
X157665990Y-145662932D01*
X157662024Y-145623504D01*
X157642809Y-145542873D01*
X157637086Y-145518858D01*
X157636588Y-145516581D01*
X157628370Y-145475267D01*
X157616224Y-145414203D01*
X157603459Y-145376600D01*
X157601866Y-145371073D01*
X157591927Y-145329364D01*
X157554427Y-145232000D01*
X157553581Y-145229663D01*
X157538916Y-145186461D01*
X157521059Y-145133855D01*
X157502063Y-145095336D01*
X157499820Y-145090215D01*
X157483250Y-145047191D01*
X157434648Y-144958504D01*
X157433448Y-144956198D01*
X157390115Y-144868327D01*
X157364459Y-144829930D01*
X157361646Y-144825291D01*
X157337935Y-144782025D01*
X157337933Y-144782021D01*
X157279878Y-144703228D01*
X157278241Y-144700896D01*
X157225634Y-144622163D01*
X157193055Y-144585013D01*
X157189753Y-144580909D01*
X157170822Y-144555216D01*
X157158569Y-144538586D01*
X157092771Y-144470551D01*
X157090730Y-144468335D01*
X157030434Y-144399581D01*
X157030431Y-144399578D01*
X157030427Y-144399573D01*
X156991821Y-144365716D01*
X156990845Y-144364860D01*
X156987157Y-144361347D01*
X156948359Y-144321231D01*
X156948353Y-144321225D01*
X156876632Y-144264588D01*
X156874176Y-144262544D01*
X156807838Y-144204367D01*
X156761366Y-144173315D01*
X156757389Y-144170423D01*
X156711053Y-144133832D01*
X156711051Y-144133830D01*
X156635197Y-144088902D01*
X156632347Y-144087108D01*
X156561667Y-144039881D01*
X156508647Y-144013735D01*
X156504471Y-144011473D01*
X156450894Y-143979739D01*
X156450882Y-143979733D01*
X156372695Y-143946578D01*
X156369478Y-143945104D01*
X156296146Y-143908941D01*
X156296142Y-143908940D01*
X156237089Y-143888893D01*
X156232814Y-143887264D01*
X156172502Y-143861690D01*
X156172501Y-143861689D01*
X156093718Y-143840108D01*
X156090170Y-143839021D01*
X156015804Y-143813778D01*
X156015799Y-143813776D01*
X156015797Y-143813776D01*
X155951447Y-143800975D01*
X155947178Y-143799967D01*
X155880877Y-143781805D01*
X155880869Y-143781803D01*
X155880868Y-143781803D01*
X155880866Y-143781802D01*
X155880853Y-143781800D01*
X155823305Y-143774061D01*
X155803113Y-143771345D01*
X155799293Y-143770709D01*
X155758877Y-143762670D01*
X155725426Y-143756017D01*
X155725423Y-143756016D01*
X155725419Y-143756016D01*
X155656749Y-143751515D01*
X155652540Y-143751095D01*
X155626498Y-143747593D01*
X155581189Y-143741500D01*
X155581188Y-143741500D01*
X155505974Y-143741500D01*
X155501918Y-143741367D01*
X155436406Y-143737073D01*
X155430000Y-143736654D01*
X155429999Y-143736654D01*
X155358680Y-143741327D01*
X155356700Y-143741425D01*
X155354490Y-143741499D01*
X155295998Y-143745415D01*
X155280822Y-143746431D01*
X155248424Y-143748554D01*
X155134585Y-143756015D01*
X155133359Y-143756177D01*
X155129447Y-143756564D01*
X155128298Y-143756642D01*
X155128297Y-143756642D01*
X155128287Y-143756643D01*
X154984810Y-143785806D01*
X154844203Y-143813775D01*
X154844156Y-143813788D01*
X154843365Y-143814056D01*
X154835858Y-143816081D01*
X154831982Y-143816869D01*
X154831971Y-143816872D01*
X154696475Y-143863922D01*
X154563855Y-143908940D01*
X154563853Y-143908941D01*
X154560223Y-143910731D01*
X154553148Y-143913690D01*
X154546335Y-143916056D01*
X154546323Y-143916061D01*
X154421211Y-143979284D01*
X154298327Y-144039884D01*
X154298321Y-144039888D01*
X154292259Y-144043938D01*
X154285790Y-144047714D01*
X154276465Y-144052427D01*
X154276453Y-144052434D01*
X154163466Y-144129995D01*
X154052158Y-144204369D01*
X154044241Y-144211312D01*
X154038451Y-144215813D01*
X154027163Y-144223561D01*
X153927835Y-144313397D01*
X153829574Y-144399571D01*
X153820487Y-144409931D01*
X153815468Y-144415027D01*
X153802910Y-144426386D01*
X153802904Y-144426393D01*
X153718477Y-144526252D01*
X153634368Y-144622159D01*
X153624907Y-144636317D01*
X153620705Y-144641896D01*
X153607683Y-144657300D01*
X153539380Y-144764293D01*
X153538673Y-144765375D01*
X153469888Y-144868321D01*
X153469884Y-144868328D01*
X153460921Y-144886500D01*
X153457576Y-144892437D01*
X153444975Y-144912178D01*
X153392896Y-145024402D01*
X153392263Y-145025723D01*
X153338939Y-145133857D01*
X153331388Y-145156101D01*
X153328919Y-145162268D01*
X153317697Y-145186454D01*
X153317690Y-145186471D01*
X153296127Y-145255983D01*
X153281981Y-145301584D01*
X153281487Y-145303104D01*
X153243777Y-145414200D01*
X153243776Y-145414204D01*
X153238560Y-145440422D01*
X153236967Y-145446697D01*
X153228108Y-145475256D01*
X153228105Y-145475267D01*
X153208599Y-145590902D01*
X153208271Y-145592683D01*
X153186016Y-145704579D01*
X153186015Y-145704581D01*
X153184055Y-145734490D01*
X153183324Y-145740748D01*
X153177813Y-145773420D01*
X153174002Y-145887387D01*
X153173903Y-145889368D01*
X153166654Y-146000000D01*
X142008500Y-146000000D01*
X142008500Y-135000002D01*
X151695153Y-135000002D01*
X151714526Y-135357314D01*
X151714527Y-135357331D01*
X151772415Y-135710431D01*
X151772421Y-135710457D01*
X151868147Y-136055232D01*
X151868149Y-136055239D01*
X152000597Y-136387659D01*
X152000606Y-136387677D01*
X152168218Y-136703827D01*
X152369033Y-137000007D01*
X152496441Y-137150003D01*
X152496442Y-137150004D01*
X153702266Y-135944180D01*
X153865130Y-136134870D01*
X154055818Y-136297732D01*
X152847255Y-137506295D01*
X152847256Y-137506296D01*
X152860485Y-137518828D01*
X152860486Y-137518829D01*
X153145367Y-137735388D01*
X153145370Y-137735390D01*
X153451990Y-137919876D01*
X153776739Y-138070122D01*
X153776744Y-138070123D01*
X154115855Y-138184383D01*
X154465339Y-138261311D01*
X154821075Y-138299999D01*
X154821085Y-138300000D01*
X155178915Y-138300000D01*
X155178924Y-138299999D01*
X155534660Y-138261311D01*
X155884144Y-138184383D01*
X156223255Y-138070123D01*
X156223260Y-138070122D01*
X156548009Y-137919876D01*
X156854629Y-137735390D01*
X156854632Y-137735388D01*
X157139504Y-137518836D01*
X157152742Y-137506294D01*
X155944180Y-136297733D01*
X156134870Y-136134870D01*
X156297733Y-135944180D01*
X157503556Y-137150003D01*
X157630964Y-137000008D01*
X157630975Y-136999994D01*
X157831781Y-136703827D01*
X157999393Y-136387677D01*
X157999402Y-136387659D01*
X158131850Y-136055239D01*
X158131852Y-136055232D01*
X158227578Y-135710457D01*
X158227584Y-135710431D01*
X158285472Y-135357331D01*
X158285473Y-135357314D01*
X158304846Y-135000002D01*
X158304846Y-134999997D01*
X158285473Y-134642685D01*
X158285472Y-134642668D01*
X158227584Y-134289568D01*
X158227578Y-134289542D01*
X158131852Y-133944767D01*
X158131850Y-133944760D01*
X157999402Y-133612340D01*
X157999393Y-133612322D01*
X157831781Y-133296172D01*
X157630966Y-132999992D01*
X157503557Y-132849995D01*
X157503556Y-132849994D01*
X156297732Y-134055818D01*
X156134870Y-133865130D01*
X155944180Y-133702266D01*
X157152743Y-132493703D01*
X157152742Y-132493702D01*
X157139514Y-132481171D01*
X157139513Y-132481170D01*
X156854632Y-132264611D01*
X156854629Y-132264609D01*
X156548009Y-132080123D01*
X156223260Y-131929877D01*
X156223255Y-131929876D01*
X155884144Y-131815616D01*
X155534660Y-131738688D01*
X155178924Y-131700000D01*
X154821075Y-131700000D01*
X154465339Y-131738688D01*
X154115855Y-131815616D01*
X153776744Y-131929876D01*
X153776739Y-131929877D01*
X153451990Y-132080123D01*
X153145370Y-132264609D01*
X153145367Y-132264611D01*
X152860491Y-132481166D01*
X152847256Y-132493703D01*
X152847255Y-132493703D01*
X154055819Y-133702266D01*
X153865130Y-133865130D01*
X153702266Y-134055818D01*
X152496442Y-132849994D01*
X152496441Y-132849995D01*
X152369040Y-132999983D01*
X152369033Y-132999993D01*
X152168218Y-133296172D01*
X152000606Y-133612322D01*
X152000597Y-133612340D01*
X151868149Y-133944760D01*
X151868147Y-133944767D01*
X151772421Y-134289542D01*
X151772415Y-134289568D01*
X151714527Y-134642668D01*
X151714526Y-134642685D01*
X151695153Y-134999997D01*
X151695153Y-135000002D01*
X142008500Y-135000002D01*
X142008500Y-133552597D01*
X142008799Y-133546517D01*
X142010068Y-133533628D01*
X142013380Y-133500000D01*
X141993909Y-133302299D01*
X141936241Y-133112196D01*
X141904430Y-133052682D01*
X141842595Y-132936996D01*
X141716568Y-132783432D01*
X141680430Y-132753774D01*
X141675930Y-132749696D01*
X141160301Y-132234067D01*
X141156222Y-132229566D01*
X141126567Y-132193430D01*
X140973005Y-132067405D01*
X140972998Y-132067401D01*
X140797809Y-131973761D01*
X140797806Y-131973760D01*
X140797804Y-131973759D01*
X140772055Y-131965948D01*
X140635138Y-131924414D01*
X140607702Y-131916091D01*
X140489675Y-131904467D01*
X140410000Y-131896620D01*
X140409999Y-131896620D01*
X140363482Y-131901201D01*
X140357402Y-131901500D01*
X110742598Y-131901500D01*
X110736518Y-131901201D01*
X110690000Y-131896620D01*
X110492297Y-131916091D01*
X110446853Y-131929877D01*
X110327945Y-131965948D01*
X110302196Y-131973759D01*
X110302195Y-131973759D01*
X110302190Y-131973761D01*
X110127001Y-132067401D01*
X110126994Y-132067405D01*
X109973431Y-132193432D01*
X109943775Y-132229567D01*
X109939687Y-132234077D01*
X109108458Y-133065307D01*
X109047135Y-133098792D01*
X109031022Y-133101202D01*
X109027434Y-133101499D01*
X108806915Y-133138297D01*
X108737550Y-133129915D01*
X108683728Y-133085362D01*
X108662538Y-133018783D01*
X108663185Y-133003029D01*
X108663504Y-133000000D01*
X108643542Y-132810072D01*
X108584527Y-132628444D01*
X108489040Y-132463056D01*
X108361253Y-132321134D01*
X108206752Y-132208882D01*
X108032288Y-132131206D01*
X108032286Y-132131205D01*
X107845487Y-132091500D01*
X107654513Y-132091500D01*
X107467714Y-132131205D01*
X107467711Y-132131206D01*
X107467712Y-132131206D01*
X107327950Y-132193432D01*
X107293246Y-132208883D01*
X107138745Y-132321135D01*
X107010959Y-132463057D01*
X106958165Y-132554500D01*
X106907599Y-132602715D01*
X106850778Y-132616500D01*
X86673766Y-132616500D01*
X86606727Y-132596815D01*
X86586085Y-132580181D01*
X84427088Y-130421183D01*
X84417187Y-130408823D01*
X84416977Y-130408998D01*
X84412001Y-130402984D01*
X84412000Y-130402982D01*
X84361614Y-130355667D01*
X84360239Y-130354334D01*
X84339768Y-130333863D01*
X84337792Y-130332331D01*
X84334183Y-130329531D01*
X84329750Y-130325744D01*
X84295321Y-130293414D01*
X84295319Y-130293412D01*
X84277431Y-130283578D01*
X84261170Y-130272896D01*
X84245162Y-130260479D01*
X84204255Y-130203837D01*
X84200465Y-130134070D01*
X84234996Y-130073329D01*
X84296884Y-130040900D01*
X84321162Y-130038500D01*
X159875500Y-130038500D01*
X159942539Y-130058185D01*
X159988294Y-130110989D01*
X159999500Y-130162500D01*
X159999500Y-193875500D01*
X159979815Y-193942539D01*
X159927011Y-193988294D01*
X159875500Y-193999500D01*
X139251440Y-193999500D01*
X139248576Y-193999434D01*
X139077206Y-193991510D01*
X138853655Y-193980527D01*
X138848130Y-193980007D01*
X138655044Y-193953074D01*
X138452793Y-193923071D01*
X138447694Y-193922095D01*
X138254085Y-193876559D01*
X138059266Y-193827760D01*
X138054626Y-193826403D01*
X137864915Y-193762819D01*
X137863731Y-193762409D01*
X137676611Y-193695457D01*
X137672453Y-193693797D01*
X137488600Y-193612617D01*
X137487204Y-193611980D01*
X137384045Y-193563189D01*
X137308320Y-193527373D01*
X137304658Y-193525490D01*
X137128681Y-193427472D01*
X137126976Y-193426487D01*
X136957675Y-193325012D01*
X136954523Y-193322990D01*
X136856649Y-193255945D01*
X136788130Y-193209008D01*
X136786235Y-193207657D01*
X136627892Y-193090223D01*
X136625217Y-193088122D01*
X136469918Y-192959164D01*
X136467890Y-192957404D01*
X136321942Y-192825125D01*
X136319738Y-192823026D01*
X136176972Y-192680260D01*
X136174873Y-192678056D01*
X136042594Y-192532108D01*
X136040834Y-192530080D01*
X135911876Y-192374781D01*
X135909784Y-192372118D01*
X135866277Y-192313455D01*
X135792341Y-192213763D01*
X135790990Y-192211868D01*
X135748612Y-192150004D01*
X135676998Y-192045459D01*
X135675000Y-192042345D01*
X135573484Y-191872976D01*
X135572540Y-191871341D01*
X135474505Y-191695335D01*
X135472631Y-191691691D01*
X135387987Y-191512726D01*
X135387413Y-191511470D01*
X135306190Y-191327518D01*
X135304549Y-191323409D01*
X135237571Y-191136217D01*
X135237204Y-191135155D01*
X135173594Y-190945369D01*
X135172241Y-190940745D01*
X135123451Y-190745961D01*
X135077901Y-190552296D01*
X135076927Y-190547205D01*
X135072620Y-190518176D01*
X135046938Y-190345047D01*
X135019990Y-190151859D01*
X135019471Y-190146342D01*
X135012282Y-190000002D01*
X151695153Y-190000002D01*
X151714526Y-190357314D01*
X151714527Y-190357331D01*
X151772415Y-190710431D01*
X151772421Y-190710457D01*
X151868147Y-191055232D01*
X151868149Y-191055239D01*
X152000597Y-191387659D01*
X152000606Y-191387677D01*
X152168218Y-191703827D01*
X152369033Y-192000007D01*
X152496441Y-192150003D01*
X152496442Y-192150004D01*
X153702266Y-190944180D01*
X153865130Y-191134870D01*
X154055818Y-191297732D01*
X152847255Y-192506295D01*
X152847256Y-192506296D01*
X152860485Y-192518828D01*
X152860486Y-192518829D01*
X153145367Y-192735388D01*
X153145370Y-192735390D01*
X153451990Y-192919876D01*
X153776739Y-193070122D01*
X153776744Y-193070123D01*
X154115855Y-193184383D01*
X154465339Y-193261311D01*
X154821075Y-193299999D01*
X154821085Y-193300000D01*
X155178915Y-193300000D01*
X155178924Y-193299999D01*
X155534660Y-193261311D01*
X155884144Y-193184383D01*
X156223255Y-193070123D01*
X156223260Y-193070122D01*
X156548009Y-192919876D01*
X156854629Y-192735390D01*
X156854632Y-192735388D01*
X157139504Y-192518836D01*
X157152742Y-192506294D01*
X155944180Y-191297733D01*
X156134870Y-191134870D01*
X156297733Y-190944180D01*
X157503556Y-192150003D01*
X157630964Y-192000008D01*
X157630975Y-191999994D01*
X157831781Y-191703827D01*
X157999393Y-191387677D01*
X157999402Y-191387659D01*
X158131850Y-191055239D01*
X158131852Y-191055232D01*
X158227578Y-190710457D01*
X158227584Y-190710431D01*
X158285472Y-190357331D01*
X158285473Y-190357314D01*
X158304846Y-190000002D01*
X158304846Y-189999997D01*
X158285473Y-189642685D01*
X158285472Y-189642668D01*
X158227584Y-189289568D01*
X158227578Y-189289542D01*
X158131852Y-188944767D01*
X158131850Y-188944760D01*
X157999402Y-188612340D01*
X157999393Y-188612322D01*
X157831781Y-188296172D01*
X157630966Y-187999992D01*
X157503557Y-187849995D01*
X157503556Y-187849994D01*
X156297732Y-189055818D01*
X156134870Y-188865130D01*
X155944180Y-188702266D01*
X157152743Y-187493703D01*
X157152742Y-187493702D01*
X157139514Y-187481171D01*
X157139513Y-187481170D01*
X156854632Y-187264611D01*
X156854629Y-187264609D01*
X156548009Y-187080123D01*
X156223260Y-186929877D01*
X156223255Y-186929876D01*
X155884144Y-186815616D01*
X155534660Y-186738688D01*
X155178924Y-186700000D01*
X154821075Y-186700000D01*
X154465339Y-186738688D01*
X154115855Y-186815616D01*
X153776744Y-186929876D01*
X153776739Y-186929877D01*
X153451990Y-187080123D01*
X153145370Y-187264609D01*
X153145367Y-187264611D01*
X152860491Y-187481166D01*
X152847256Y-187493703D01*
X152847255Y-187493703D01*
X154055819Y-188702266D01*
X153865130Y-188865130D01*
X153702266Y-189055818D01*
X152496442Y-187849994D01*
X152496441Y-187849995D01*
X152369040Y-187999983D01*
X152369033Y-187999993D01*
X152168218Y-188296172D01*
X152000606Y-188612322D01*
X152000597Y-188612340D01*
X151868149Y-188944760D01*
X151868147Y-188944767D01*
X151772421Y-189289542D01*
X151772415Y-189289568D01*
X151714527Y-189642668D01*
X151714526Y-189642685D01*
X151695153Y-189999997D01*
X151695153Y-190000002D01*
X135012282Y-190000002D01*
X135012282Y-189999999D01*
X135008500Y-189923036D01*
X135000566Y-189751418D01*
X135000499Y-189748604D01*
X134997652Y-181270000D01*
X138736499Y-181270000D01*
X138756453Y-181472599D01*
X138756454Y-181472601D01*
X138815550Y-181667417D01*
X138815551Y-181667420D01*
X138815552Y-181667421D01*
X138815553Y-181667424D01*
X138911514Y-181846954D01*
X138911519Y-181846961D01*
X139040668Y-182004331D01*
X139081803Y-182038089D01*
X139198040Y-182133482D01*
X139198043Y-182133483D01*
X139198045Y-182133485D01*
X139377575Y-182229446D01*
X139377576Y-182229446D01*
X139377583Y-182229450D01*
X139572399Y-182288546D01*
X139572398Y-182288546D01*
X139610355Y-182292284D01*
X139724225Y-182303500D01*
X139724228Y-182303500D01*
X140275772Y-182303500D01*
X140275775Y-182303500D01*
X140427601Y-182288546D01*
X140622417Y-182229450D01*
X140801960Y-182133482D01*
X140959331Y-182004331D01*
X140982591Y-181975989D01*
X141004876Y-181948835D01*
X141062621Y-181909501D01*
X141100729Y-181903500D01*
X144581057Y-181903500D01*
X144648096Y-181923185D01*
X144693851Y-181975989D01*
X144704585Y-182016691D01*
X144706456Y-182038082D01*
X144706457Y-182038089D01*
X144765714Y-182259238D01*
X144765718Y-182259249D01*
X144786353Y-182303500D01*
X144862477Y-182466749D01*
X144993802Y-182654300D01*
X145155700Y-182816198D01*
X145343251Y-182947523D01*
X145468091Y-183005736D01*
X145550750Y-183044281D01*
X145550752Y-183044281D01*
X145550757Y-183044284D01*
X145771913Y-183103543D01*
X145934832Y-183117796D01*
X145999998Y-183123498D01*
X146000000Y-183123498D01*
X146000002Y-183123498D01*
X146057021Y-183118509D01*
X146228087Y-183103543D01*
X146449243Y-183044284D01*
X146656749Y-182947523D01*
X146844300Y-182816198D01*
X147006198Y-182654300D01*
X147137523Y-182466749D01*
X147234284Y-182259243D01*
X147293543Y-182038087D01*
X147313498Y-181810000D01*
X147293543Y-181581913D01*
X147234284Y-181360757D01*
X147137523Y-181153251D01*
X147006198Y-180965700D01*
X146844300Y-180803802D01*
X146656749Y-180672477D01*
X146656745Y-180672475D01*
X146449249Y-180575718D01*
X146449238Y-180575714D01*
X146228089Y-180516457D01*
X146228081Y-180516456D01*
X146000002Y-180496502D01*
X145999998Y-180496502D01*
X145771918Y-180516456D01*
X145771910Y-180516457D01*
X145550761Y-180575714D01*
X145550750Y-180575718D01*
X145445319Y-180624882D01*
X145392915Y-180636500D01*
X141263539Y-180636500D01*
X141196500Y-180616815D01*
X141150745Y-180564011D01*
X141140801Y-180494853D01*
X141154181Y-180454046D01*
X141184448Y-180397420D01*
X141184450Y-180397417D01*
X141243546Y-180202601D01*
X141263501Y-180000000D01*
X141243546Y-179797399D01*
X141184450Y-179602583D01*
X141184448Y-179602580D01*
X141182681Y-179596753D01*
X141185005Y-179596048D01*
X141178674Y-179537219D01*
X141191876Y-179499792D01*
X141193352Y-179497088D01*
X141243597Y-179362376D01*
X141243598Y-179362372D01*
X141249999Y-179302844D01*
X141250000Y-179302827D01*
X141250000Y-178980000D01*
X140415888Y-178980000D01*
X140409807Y-178979701D01*
X140333388Y-178972174D01*
X140290639Y-178967964D01*
X140318278Y-178937941D01*
X140368551Y-178823330D01*
X140378886Y-178698605D01*
X140348163Y-178577281D01*
X140284606Y-178480000D01*
X141250000Y-178480000D01*
X141250000Y-178157172D01*
X141249999Y-178157155D01*
X141243598Y-178097627D01*
X141243596Y-178097620D01*
X141193354Y-177962913D01*
X141193350Y-177962906D01*
X141107190Y-177847812D01*
X141107187Y-177847809D01*
X140992093Y-177761649D01*
X140992086Y-177761645D01*
X140857379Y-177711403D01*
X140857372Y-177711401D01*
X140797844Y-177705000D01*
X140250000Y-177705000D01*
X140250000Y-178449382D01*
X140180948Y-178395637D01*
X140062576Y-178355000D01*
X139968927Y-178355000D01*
X139876554Y-178370414D01*
X139766486Y-178429981D01*
X139750000Y-178447889D01*
X139750000Y-177705000D01*
X139202155Y-177705000D01*
X139142627Y-177711401D01*
X139142620Y-177711403D01*
X139007913Y-177761645D01*
X139007906Y-177761649D01*
X138892812Y-177847809D01*
X138892809Y-177847812D01*
X138806649Y-177962906D01*
X138806645Y-177962913D01*
X138756403Y-178097620D01*
X138756401Y-178097627D01*
X138750000Y-178157155D01*
X138750000Y-178480000D01*
X139720440Y-178480000D01*
X139681722Y-178522059D01*
X139631449Y-178636670D01*
X139621114Y-178761395D01*
X139651837Y-178882719D01*
X139707641Y-178968133D01*
X139666611Y-178972174D01*
X139590193Y-178979701D01*
X139584112Y-178980000D01*
X138750000Y-178980000D01*
X138750000Y-179302844D01*
X138756401Y-179362372D01*
X138756402Y-179362376D01*
X138806650Y-179497095D01*
X138808130Y-179499806D01*
X138808785Y-179502819D01*
X138809747Y-179505398D01*
X138809376Y-179505536D01*
X138822976Y-179568080D01*
X138816280Y-179596439D01*
X138817319Y-179596754D01*
X138815551Y-179602579D01*
X138815550Y-179602583D01*
X138784489Y-179704976D01*
X138756453Y-179797400D01*
X138736499Y-180000000D01*
X138756453Y-180202599D01*
X138815551Y-180397420D01*
X138845819Y-180454046D01*
X138911297Y-180576547D01*
X138925539Y-180644948D01*
X138911297Y-180693452D01*
X138815553Y-180872575D01*
X138815552Y-180872578D01*
X138756453Y-181067400D01*
X138736499Y-181270000D01*
X134997652Y-181270000D01*
X134995296Y-174255105D01*
X134995296Y-174058691D01*
X134973804Y-173826764D01*
X134973617Y-173824118D01*
X134969850Y-173747429D01*
X134965051Y-173732301D01*
X134959033Y-173667353D01*
X134959033Y-173667350D01*
X134938477Y-173557384D01*
X134910268Y-173406476D01*
X134909897Y-173404256D01*
X134900787Y-173342839D01*
X134896469Y-173332659D01*
X134886815Y-173281010D01*
X134874755Y-173238625D01*
X134806034Y-172997097D01*
X134803341Y-172987631D01*
X134802839Y-172985751D01*
X134793042Y-172946644D01*
X134790159Y-172941301D01*
X134779258Y-172902988D01*
X134650362Y-172570267D01*
X134649804Y-172568769D01*
X134647567Y-172562517D01*
X134647071Y-172561772D01*
X134637282Y-172536503D01*
X134462095Y-172184682D01*
X134255194Y-171850525D01*
X134255193Y-171850524D01*
X134255189Y-171850517D01*
X134018357Y-171536899D01*
X134018341Y-171536880D01*
X133886568Y-171392333D01*
X133753565Y-171246435D01*
X133545393Y-171056661D01*
X133463119Y-170981658D01*
X133463100Y-170981642D01*
X133149482Y-170744810D01*
X132983768Y-170642205D01*
X132815318Y-170537905D01*
X132463497Y-170362718D01*
X132463493Y-170362716D01*
X132463484Y-170362712D01*
X132438222Y-170352925D01*
X132437665Y-170352497D01*
X132431214Y-170350189D01*
X132429707Y-170349627D01*
X132154795Y-170243127D01*
X132099393Y-170200554D01*
X132075802Y-170134787D01*
X132091513Y-170066707D01*
X132141537Y-170017928D01*
X132199588Y-170003500D01*
X148919970Y-170003500D01*
X150056234Y-170003500D01*
X150123273Y-170023185D01*
X150143915Y-170039819D01*
X151110936Y-171006840D01*
X151144421Y-171068163D01*
X151143461Y-171124960D01*
X151115435Y-171235633D01*
X151096844Y-171459994D01*
X151096844Y-171460005D01*
X151115434Y-171684359D01*
X151115436Y-171684371D01*
X151170703Y-171902614D01*
X151261140Y-172108792D01*
X151384276Y-172297265D01*
X151384284Y-172297276D01*
X151536756Y-172462902D01*
X151536760Y-172462906D01*
X151714424Y-172601189D01*
X151714429Y-172601191D01*
X151714431Y-172601193D01*
X151750930Y-172620946D01*
X151800520Y-172670165D01*
X151815628Y-172738382D01*
X151791457Y-172803937D01*
X151750930Y-172839054D01*
X151714431Y-172858806D01*
X151714422Y-172858812D01*
X151536761Y-172997092D01*
X151536756Y-172997097D01*
X151384284Y-173162723D01*
X151384276Y-173162734D01*
X151261140Y-173351207D01*
X151203634Y-173482310D01*
X151158678Y-173535796D01*
X151091942Y-173556486D01*
X151090078Y-173556500D01*
X147218352Y-173556500D01*
X147151313Y-173536815D01*
X147116779Y-173503626D01*
X147006198Y-173345700D01*
X146844300Y-173183802D01*
X146656749Y-173052477D01*
X146656745Y-173052475D01*
X146449249Y-172955718D01*
X146449238Y-172955714D01*
X146228089Y-172896457D01*
X146228081Y-172896456D01*
X146000002Y-172876502D01*
X145999998Y-172876502D01*
X145771918Y-172896456D01*
X145771910Y-172896457D01*
X145550761Y-172955714D01*
X145550750Y-172955718D01*
X145343254Y-173052475D01*
X145343252Y-173052476D01*
X145343249Y-173052477D01*
X145343251Y-173052477D01*
X145155700Y-173183802D01*
X145155698Y-173183803D01*
X145155695Y-173183806D01*
X144993806Y-173345695D01*
X144862476Y-173533252D01*
X144862475Y-173533254D01*
X144765718Y-173740750D01*
X144765714Y-173740761D01*
X144706457Y-173961910D01*
X144706456Y-173961918D01*
X144686502Y-174189998D01*
X144686502Y-174190001D01*
X144706456Y-174418081D01*
X144706457Y-174418089D01*
X144765714Y-174639238D01*
X144765718Y-174639249D01*
X144858056Y-174837268D01*
X144862477Y-174846749D01*
X144993802Y-175034300D01*
X145155700Y-175196198D01*
X145343251Y-175327523D01*
X145402513Y-175355157D01*
X145550750Y-175424281D01*
X145550752Y-175424281D01*
X145550757Y-175424284D01*
X145771913Y-175483543D01*
X145934832Y-175497796D01*
X145999998Y-175503498D01*
X146000000Y-175503498D01*
X146000002Y-175503498D01*
X146057021Y-175498509D01*
X146228087Y-175483543D01*
X146449243Y-175424284D01*
X146656749Y-175327523D01*
X146844300Y-175196198D01*
X147006198Y-175034300D01*
X147116779Y-174876374D01*
X147171354Y-174832751D01*
X147218352Y-174823500D01*
X151317213Y-174823500D01*
X151384252Y-174843185D01*
X151408442Y-174863517D01*
X151536756Y-175002902D01*
X151536761Y-175002907D01*
X151577100Y-175034304D01*
X151714424Y-175141189D01*
X151714425Y-175141189D01*
X151714427Y-175141191D01*
X151774314Y-175173600D01*
X151912426Y-175248342D01*
X152125365Y-175321444D01*
X152347431Y-175358500D01*
X152572569Y-175358500D01*
X152794635Y-175321444D01*
X153007574Y-175248342D01*
X153205576Y-175141189D01*
X153383240Y-175002906D01*
X153535722Y-174837268D01*
X153629749Y-174693347D01*
X153682894Y-174647994D01*
X153752125Y-174638570D01*
X153815461Y-174668072D01*
X153835131Y-174690049D01*
X153885072Y-174761373D01*
X153885073Y-174761373D01*
X154516923Y-174129523D01*
X154540507Y-174209844D01*
X154618239Y-174330798D01*
X154726900Y-174424952D01*
X154857685Y-174484680D01*
X154867466Y-174486086D01*
X154238625Y-175114925D01*
X154322421Y-175173599D01*
X154536507Y-175273429D01*
X154536516Y-175273433D01*
X154764673Y-175334567D01*
X154764684Y-175334569D01*
X154999998Y-175355157D01*
X155000002Y-175355157D01*
X155235315Y-175334569D01*
X155235326Y-175334567D01*
X155463483Y-175273433D01*
X155463492Y-175273429D01*
X155677578Y-175173600D01*
X155677582Y-175173598D01*
X155761373Y-175114926D01*
X155761373Y-175114925D01*
X155132533Y-174486086D01*
X155142315Y-174484680D01*
X155273100Y-174424952D01*
X155381761Y-174330798D01*
X155459493Y-174209844D01*
X155483077Y-174129523D01*
X156114926Y-174761373D01*
X156173598Y-174677582D01*
X156173600Y-174677578D01*
X156273429Y-174463492D01*
X156273433Y-174463483D01*
X156334567Y-174235326D01*
X156334569Y-174235315D01*
X156355157Y-174000001D01*
X156355157Y-173999998D01*
X156334569Y-173764684D01*
X156334567Y-173764673D01*
X156273433Y-173536516D01*
X156273429Y-173536507D01*
X156173600Y-173322423D01*
X156173599Y-173322421D01*
X156114925Y-173238626D01*
X156114925Y-173238625D01*
X155483076Y-173870474D01*
X155459493Y-173790156D01*
X155381761Y-173669202D01*
X155273100Y-173575048D01*
X155142315Y-173515320D01*
X155132533Y-173513913D01*
X155761373Y-172885073D01*
X155684969Y-172831576D01*
X155641344Y-172776999D01*
X155634150Y-172707501D01*
X155665672Y-172645146D01*
X155684968Y-172628425D01*
X155761373Y-172574925D01*
X155132533Y-171946086D01*
X155142315Y-171944680D01*
X155273100Y-171884952D01*
X155381761Y-171790798D01*
X155459493Y-171669844D01*
X155483076Y-171589524D01*
X156114925Y-172221373D01*
X156114926Y-172221373D01*
X156173598Y-172137582D01*
X156173600Y-172137578D01*
X156273429Y-171923492D01*
X156273433Y-171923483D01*
X156334567Y-171695326D01*
X156334569Y-171695315D01*
X156355157Y-171460001D01*
X156355157Y-171459998D01*
X156334569Y-171224684D01*
X156334567Y-171224673D01*
X156273433Y-170996516D01*
X156273429Y-170996507D01*
X156173600Y-170782423D01*
X156173599Y-170782421D01*
X156114925Y-170698626D01*
X156114925Y-170698625D01*
X155483076Y-171330474D01*
X155459493Y-171250156D01*
X155381761Y-171129202D01*
X155273100Y-171035048D01*
X155142315Y-170975320D01*
X155132533Y-170973913D01*
X155761373Y-170345073D01*
X155684969Y-170291576D01*
X155641344Y-170236999D01*
X155634150Y-170167501D01*
X155665672Y-170105146D01*
X155684968Y-170088425D01*
X155761373Y-170034925D01*
X155132533Y-169406086D01*
X155142315Y-169404680D01*
X155273100Y-169344952D01*
X155381761Y-169250798D01*
X155459493Y-169129844D01*
X155483076Y-169049524D01*
X156114925Y-169681373D01*
X156114926Y-169681373D01*
X156173598Y-169597582D01*
X156173600Y-169597578D01*
X156273429Y-169383492D01*
X156273433Y-169383483D01*
X156334567Y-169155326D01*
X156334569Y-169155315D01*
X156355157Y-168920001D01*
X156355157Y-168919998D01*
X156334569Y-168684684D01*
X156334567Y-168684673D01*
X156273433Y-168456516D01*
X156273429Y-168456507D01*
X156173600Y-168242423D01*
X156173599Y-168242421D01*
X156114925Y-168158626D01*
X156114925Y-168158625D01*
X155483076Y-168790475D01*
X155459493Y-168710156D01*
X155381761Y-168589202D01*
X155273100Y-168495048D01*
X155142315Y-168435320D01*
X155132533Y-168433913D01*
X155761373Y-167805073D01*
X155761373Y-167805072D01*
X155684970Y-167751574D01*
X155641345Y-167696997D01*
X155634152Y-167627499D01*
X155665674Y-167565144D01*
X155684970Y-167548424D01*
X155761373Y-167494925D01*
X155132533Y-166866086D01*
X155142315Y-166864680D01*
X155273100Y-166804952D01*
X155381761Y-166710798D01*
X155459493Y-166589844D01*
X155483076Y-166509524D01*
X156114925Y-167141373D01*
X156114926Y-167141373D01*
X156173598Y-167057582D01*
X156173600Y-167057578D01*
X156273429Y-166843492D01*
X156273433Y-166843483D01*
X156334567Y-166615326D01*
X156334569Y-166615315D01*
X156355157Y-166380001D01*
X156355157Y-166379998D01*
X156334569Y-166144684D01*
X156334567Y-166144673D01*
X156273433Y-165916516D01*
X156273429Y-165916507D01*
X156173600Y-165702423D01*
X156173599Y-165702421D01*
X156114925Y-165618626D01*
X156114925Y-165618625D01*
X155483076Y-166250475D01*
X155459493Y-166170156D01*
X155381761Y-166049202D01*
X155273100Y-165955048D01*
X155142315Y-165895320D01*
X155132533Y-165893913D01*
X155761373Y-165265073D01*
X155684969Y-165211576D01*
X155641344Y-165156999D01*
X155634150Y-165087501D01*
X155665672Y-165025146D01*
X155684968Y-165008425D01*
X155761373Y-164954925D01*
X155132533Y-164326086D01*
X155142315Y-164324680D01*
X155273100Y-164264952D01*
X155381761Y-164170798D01*
X155459493Y-164049844D01*
X155483076Y-163969524D01*
X156114925Y-164601373D01*
X156114926Y-164601373D01*
X156173598Y-164517582D01*
X156173600Y-164517578D01*
X156273429Y-164303492D01*
X156273433Y-164303483D01*
X156334567Y-164075326D01*
X156334569Y-164075315D01*
X156355157Y-163840001D01*
X156355157Y-163839998D01*
X156334569Y-163604684D01*
X156334567Y-163604673D01*
X156273433Y-163376516D01*
X156273429Y-163376507D01*
X156173600Y-163162423D01*
X156173599Y-163162421D01*
X156114925Y-163078626D01*
X156114925Y-163078625D01*
X155483076Y-163710475D01*
X155459493Y-163630156D01*
X155381761Y-163509202D01*
X155273100Y-163415048D01*
X155142315Y-163355320D01*
X155132533Y-163353913D01*
X155761373Y-162725073D01*
X155761373Y-162725072D01*
X155677583Y-162666402D01*
X155677579Y-162666400D01*
X155463492Y-162566570D01*
X155463483Y-162566566D01*
X155235326Y-162505432D01*
X155235315Y-162505430D01*
X155000002Y-162484843D01*
X154999998Y-162484843D01*
X154764684Y-162505430D01*
X154764673Y-162505432D01*
X154536516Y-162566566D01*
X154536507Y-162566570D01*
X154322419Y-162666401D01*
X154238625Y-162725072D01*
X154867466Y-163353913D01*
X154857685Y-163355320D01*
X154726900Y-163415048D01*
X154618239Y-163509202D01*
X154540507Y-163630156D01*
X154516923Y-163710475D01*
X153877699Y-163071251D01*
X153836995Y-163063070D01*
X153786813Y-163014454D01*
X153776984Y-162992314D01*
X153758694Y-162937117D01*
X153752115Y-162917262D01*
X153659030Y-162766348D01*
X153533652Y-162640970D01*
X153382738Y-162547885D01*
X153382735Y-162547884D01*
X153214427Y-162492113D01*
X153110545Y-162481500D01*
X151809462Y-162481500D01*
X151809446Y-162481501D01*
X151705572Y-162492113D01*
X151537264Y-162547884D01*
X151537259Y-162547886D01*
X151386346Y-162640971D01*
X151260971Y-162766346D01*
X151167886Y-162917259D01*
X151167884Y-162917264D01*
X151112113Y-163085572D01*
X151101500Y-163189447D01*
X151101500Y-164490537D01*
X151101501Y-164490553D01*
X151112113Y-164594427D01*
X151115092Y-164603416D01*
X151167885Y-164762738D01*
X151260970Y-164913652D01*
X151386348Y-165039030D01*
X151537262Y-165132115D01*
X151537356Y-165132146D01*
X151537408Y-165132182D01*
X151543805Y-165135165D01*
X151543295Y-165136257D01*
X151594799Y-165171914D01*
X151621625Y-165236429D01*
X151609313Y-165305205D01*
X151574519Y-165347704D01*
X151536758Y-165377095D01*
X151536756Y-165377097D01*
X151384284Y-165542723D01*
X151384276Y-165542734D01*
X151261140Y-165731207D01*
X151170703Y-165937386D01*
X151170701Y-165937392D01*
X151165497Y-165957942D01*
X151129957Y-166018097D01*
X151067536Y-166049489D01*
X151045292Y-166051500D01*
X131875763Y-166051500D01*
X131808724Y-166031815D01*
X131762969Y-165979011D01*
X131753025Y-165909853D01*
X131755988Y-165895407D01*
X131778872Y-165810000D01*
X130815686Y-165810000D01*
X130827641Y-165798045D01*
X130885165Y-165685148D01*
X130904986Y-165560000D01*
X130885165Y-165434852D01*
X130827641Y-165321955D01*
X130815686Y-165310000D01*
X131778872Y-165310000D01*
X131778872Y-165309999D01*
X131726269Y-165113682D01*
X131726265Y-165113673D01*
X131630134Y-164907517D01*
X131499657Y-164721179D01*
X131338820Y-164560342D01*
X131152482Y-164429865D01*
X130946328Y-164333734D01*
X130750000Y-164281127D01*
X130750000Y-165244314D01*
X130738045Y-165232359D01*
X130625148Y-165174835D01*
X130531481Y-165160000D01*
X130468519Y-165160000D01*
X130374852Y-165174835D01*
X130261955Y-165232359D01*
X130250000Y-165244314D01*
X130250000Y-164281127D01*
X130053671Y-164333734D01*
X129847517Y-164429865D01*
X129661179Y-164560342D01*
X129500342Y-164721179D01*
X129369865Y-164907517D01*
X129273734Y-165113673D01*
X129273730Y-165113682D01*
X129221127Y-165309999D01*
X129221128Y-165310000D01*
X130184314Y-165310000D01*
X130172359Y-165321955D01*
X130114835Y-165434852D01*
X130095014Y-165560000D01*
X130114835Y-165685148D01*
X130172359Y-165798045D01*
X130184314Y-165810000D01*
X129221128Y-165810000D01*
X129244012Y-165895407D01*
X129242349Y-165965257D01*
X129203186Y-166023119D01*
X129138958Y-166050623D01*
X129124237Y-166051500D01*
X128875763Y-166051500D01*
X128808724Y-166031815D01*
X128762969Y-165979011D01*
X128753025Y-165909853D01*
X128755988Y-165895407D01*
X128778872Y-165810000D01*
X127815686Y-165810000D01*
X127827641Y-165798045D01*
X127885165Y-165685148D01*
X127904986Y-165560000D01*
X127885165Y-165434852D01*
X127827641Y-165321955D01*
X127815686Y-165310000D01*
X128778872Y-165310000D01*
X128778872Y-165309999D01*
X128726269Y-165113682D01*
X128726265Y-165113673D01*
X128630134Y-164907517D01*
X128499657Y-164721179D01*
X128338820Y-164560342D01*
X128152482Y-164429865D01*
X127946328Y-164333734D01*
X127749999Y-164281127D01*
X127749999Y-165244313D01*
X127738045Y-165232359D01*
X127625148Y-165174835D01*
X127531481Y-165160000D01*
X127468519Y-165160000D01*
X127374852Y-165174835D01*
X127261955Y-165232359D01*
X127249999Y-165244314D01*
X127249999Y-164281127D01*
X127053671Y-164333734D01*
X126847517Y-164429865D01*
X126661179Y-164560342D01*
X126500342Y-164721179D01*
X126369865Y-164907517D01*
X126273734Y-165113673D01*
X126273730Y-165113682D01*
X126221127Y-165309999D01*
X126221128Y-165310000D01*
X127184314Y-165310000D01*
X127172359Y-165321955D01*
X127114835Y-165434852D01*
X127095014Y-165560000D01*
X127114835Y-165685148D01*
X127172359Y-165798045D01*
X127184314Y-165810000D01*
X126221128Y-165810000D01*
X126244012Y-165895407D01*
X126242349Y-165965257D01*
X126203186Y-166023119D01*
X126138958Y-166050623D01*
X126124237Y-166051500D01*
X125875763Y-166051500D01*
X125808724Y-166031815D01*
X125762969Y-165979011D01*
X125753025Y-165909853D01*
X125755988Y-165895407D01*
X125778872Y-165810000D01*
X124815686Y-165810000D01*
X124827641Y-165798045D01*
X124885165Y-165685148D01*
X124904986Y-165560000D01*
X124885165Y-165434852D01*
X124827641Y-165321955D01*
X124815686Y-165310000D01*
X125778872Y-165310000D01*
X125778872Y-165309999D01*
X125726269Y-165113682D01*
X125726265Y-165113673D01*
X125630134Y-164907517D01*
X125499657Y-164721179D01*
X125338820Y-164560342D01*
X125152482Y-164429865D01*
X124946328Y-164333734D01*
X124749999Y-164281127D01*
X124749999Y-165244313D01*
X124738045Y-165232359D01*
X124625148Y-165174835D01*
X124531481Y-165160000D01*
X124468519Y-165160000D01*
X124374852Y-165174835D01*
X124261955Y-165232359D01*
X124249999Y-165244314D01*
X124250000Y-164281127D01*
X124053671Y-164333734D01*
X123847517Y-164429865D01*
X123661179Y-164560342D01*
X123500342Y-164721179D01*
X123369865Y-164907517D01*
X123273734Y-165113673D01*
X123273730Y-165113682D01*
X123221127Y-165309999D01*
X123221128Y-165310000D01*
X124184314Y-165310000D01*
X124172359Y-165321955D01*
X124114835Y-165434852D01*
X124095014Y-165560000D01*
X124114835Y-165685148D01*
X124172359Y-165798045D01*
X124184314Y-165810000D01*
X123221128Y-165810000D01*
X123244012Y-165895407D01*
X123242349Y-165965257D01*
X123203186Y-166023119D01*
X123138958Y-166050623D01*
X123124237Y-166051500D01*
X120588587Y-166051500D01*
X120521548Y-166031815D01*
X120509922Y-166023353D01*
X120368640Y-165907405D01*
X120194798Y-165814485D01*
X120193601Y-165813807D01*
X120003334Y-165756090D01*
X119827232Y-165738747D01*
X119805635Y-165736620D01*
X119805634Y-165736620D01*
X119759117Y-165741201D01*
X119753037Y-165741500D01*
X107700453Y-165741500D01*
X107663883Y-165745101D01*
X107552300Y-165756091D01*
X107362191Y-165813760D01*
X107187001Y-165907401D01*
X107186994Y-165907405D01*
X107033431Y-166033431D01*
X106907405Y-166186994D01*
X106907401Y-166187001D01*
X106813760Y-166362191D01*
X106756091Y-166552300D01*
X106736620Y-166749999D01*
X106756091Y-166947699D01*
X106813760Y-167137808D01*
X106907401Y-167312998D01*
X106907405Y-167313005D01*
X107033431Y-167466568D01*
X107186994Y-167592594D01*
X107187001Y-167592598D01*
X107362191Y-167686239D01*
X107362193Y-167686239D01*
X107362196Y-167686241D01*
X107552299Y-167743908D01*
X107552298Y-167743908D01*
X107589337Y-167747556D01*
X107700453Y-167758500D01*
X118474163Y-167758500D01*
X118541202Y-167778185D01*
X118586957Y-167830989D01*
X118597483Y-167895459D01*
X118586496Y-168000000D01*
X118602213Y-168149541D01*
X118589645Y-168218268D01*
X118541913Y-168269292D01*
X118478893Y-168286500D01*
X102483767Y-168286500D01*
X102416728Y-168266815D01*
X102396086Y-168250181D01*
X99696620Y-165550715D01*
X99663135Y-165489392D01*
X99660982Y-165476012D01*
X99643542Y-165310072D01*
X99585720Y-165132115D01*
X99584529Y-165128450D01*
X99584528Y-165128449D01*
X99584527Y-165128444D01*
X99489040Y-164963056D01*
X99361253Y-164821134D01*
X99216333Y-164715843D01*
X99173669Y-164660514D01*
X99167690Y-164590900D01*
X99181833Y-164553526D01*
X99221826Y-164484257D01*
X99280841Y-164302629D01*
X99300803Y-164112701D01*
X99280841Y-163922773D01*
X99221826Y-163741145D01*
X99126339Y-163575757D01*
X98998552Y-163433835D01*
X98844051Y-163321583D01*
X98669587Y-163243907D01*
X98669585Y-163243906D01*
X98482786Y-163204201D01*
X98291812Y-163204201D01*
X98105013Y-163243906D01*
X97930545Y-163321584D01*
X97776044Y-163433836D01*
X97648258Y-163575758D01*
X97552772Y-163741144D01*
X97552769Y-163741151D01*
X97520651Y-163840001D01*
X97493757Y-163922773D01*
X97477723Y-164075326D01*
X97473795Y-164112702D01*
X97473857Y-164113292D01*
X97473795Y-164113697D01*
X97473795Y-164119198D01*
X97472953Y-164119198D01*
X97464338Y-164175488D01*
X97456627Y-164193307D01*
X97454056Y-164198556D01*
X97431303Y-164239944D01*
X97426225Y-164259720D01*
X97419925Y-164278122D01*
X97411818Y-164296857D01*
X97404431Y-164343495D01*
X97403246Y-164349216D01*
X97391500Y-164394965D01*
X97391500Y-164415384D01*
X97389973Y-164434783D01*
X97386780Y-164454941D01*
X97386780Y-164454942D01*
X97391225Y-164501966D01*
X97391500Y-164507804D01*
X97391500Y-165716671D01*
X97389761Y-165732418D01*
X97390032Y-165732444D01*
X97389297Y-165740211D01*
X97391469Y-165809295D01*
X97391500Y-165811243D01*
X97391500Y-165840164D01*
X97392384Y-165847161D01*
X97392842Y-165852984D01*
X97394326Y-165900194D01*
X97394327Y-165900196D01*
X97400022Y-165919800D01*
X97403967Y-165938847D01*
X97406526Y-165959102D01*
X97406527Y-165959105D01*
X97406528Y-165959108D01*
X97423914Y-166003021D01*
X97425806Y-166008549D01*
X97438981Y-166053897D01*
X97449372Y-166071467D01*
X97457932Y-166088940D01*
X97465447Y-166107922D01*
X97493209Y-166146132D01*
X97496418Y-166151017D01*
X97517698Y-166187001D01*
X97520458Y-166191667D01*
X97520462Y-166191671D01*
X97534889Y-166206098D01*
X97547526Y-166220893D01*
X97559528Y-166237412D01*
X97595931Y-166267527D01*
X97600231Y-166271440D01*
X100248788Y-168919998D01*
X101087607Y-169758817D01*
X101097511Y-169771178D01*
X101097721Y-169771005D01*
X101102691Y-169777012D01*
X101102695Y-169777018D01*
X101111451Y-169785240D01*
X101146846Y-169845481D01*
X101144052Y-169915295D01*
X101103959Y-169972516D01*
X101039293Y-169998977D01*
X101026546Y-169999632D01*
X100282600Y-169999505D01*
X100221829Y-169983580D01*
X85974346Y-161969371D01*
X85584353Y-161750000D01*
X107836693Y-161750000D01*
X107855885Y-161969371D01*
X107912880Y-162182076D01*
X108005944Y-162381654D01*
X108132251Y-162562038D01*
X108287962Y-162717749D01*
X108468346Y-162844056D01*
X108667924Y-162937120D01*
X108880629Y-162994115D01*
X109037322Y-163007823D01*
X109099998Y-163013307D01*
X109100000Y-163013307D01*
X109100002Y-163013307D01*
X109154842Y-163008508D01*
X109319371Y-162994115D01*
X109532076Y-162937120D01*
X109731654Y-162844056D01*
X109912038Y-162717749D01*
X110067749Y-162562038D01*
X110194056Y-162381654D01*
X110287120Y-162182076D01*
X110344115Y-161969371D01*
X110363307Y-161750000D01*
X112736693Y-161750000D01*
X112755885Y-161969371D01*
X112812880Y-162182076D01*
X112905944Y-162381654D01*
X113032251Y-162562038D01*
X113187962Y-162717749D01*
X113368346Y-162844056D01*
X113567924Y-162937120D01*
X113780629Y-162994115D01*
X113937322Y-163007823D01*
X113999998Y-163013307D01*
X114000000Y-163013307D01*
X114000002Y-163013307D01*
X114054842Y-163008508D01*
X114219371Y-162994115D01*
X114432076Y-162937120D01*
X114631654Y-162844056D01*
X114812038Y-162717749D01*
X114967749Y-162562038D01*
X115094056Y-162381654D01*
X115187120Y-162182076D01*
X115244115Y-161969371D01*
X115263307Y-161750000D01*
X115244115Y-161530629D01*
X115187120Y-161317924D01*
X115094056Y-161118347D01*
X115094054Y-161118344D01*
X115094053Y-161118342D01*
X115030902Y-161028154D01*
X114967749Y-160937962D01*
X114812038Y-160782251D01*
X114631654Y-160655944D01*
X114631650Y-160655942D01*
X114432081Y-160562882D01*
X114432079Y-160562881D01*
X114432076Y-160562880D01*
X114280777Y-160522339D01*
X114219372Y-160505885D01*
X114219365Y-160505884D01*
X114000002Y-160486693D01*
X113999998Y-160486693D01*
X113780634Y-160505884D01*
X113780627Y-160505885D01*
X113567920Y-160562881D01*
X113368346Y-160655944D01*
X113368342Y-160655946D01*
X113187967Y-160782247D01*
X113187960Y-160782252D01*
X113032252Y-160937960D01*
X113032247Y-160937967D01*
X112905946Y-161118342D01*
X112905944Y-161118346D01*
X112812881Y-161317920D01*
X112755885Y-161530627D01*
X112755884Y-161530634D01*
X112736693Y-161749997D01*
X112736693Y-161750000D01*
X110363307Y-161750000D01*
X110344115Y-161530629D01*
X110287120Y-161317924D01*
X110194056Y-161118347D01*
X110194054Y-161118344D01*
X110194053Y-161118342D01*
X110130902Y-161028154D01*
X110067749Y-160937962D01*
X109912038Y-160782251D01*
X109731654Y-160655944D01*
X109731650Y-160655942D01*
X109532081Y-160562882D01*
X109532079Y-160562881D01*
X109532076Y-160562880D01*
X109380777Y-160522339D01*
X109319372Y-160505885D01*
X109319365Y-160505884D01*
X109100002Y-160486693D01*
X109099998Y-160486693D01*
X108880634Y-160505884D01*
X108880627Y-160505885D01*
X108667920Y-160562881D01*
X108468346Y-160655944D01*
X108468342Y-160655946D01*
X108287967Y-160782247D01*
X108287960Y-160782252D01*
X108132252Y-160937960D01*
X108132247Y-160937967D01*
X108005946Y-161118342D01*
X108005944Y-161118346D01*
X107912881Y-161317920D01*
X107855885Y-161530627D01*
X107855884Y-161530634D01*
X107836693Y-161749997D01*
X107836693Y-161750000D01*
X85584353Y-161750000D01*
X78028802Y-157500002D01*
X103695034Y-157500002D01*
X103714858Y-157726599D01*
X103714860Y-157726610D01*
X103773730Y-157946317D01*
X103773734Y-157946326D01*
X103869865Y-158152481D01*
X103869866Y-158152483D01*
X103920973Y-158225471D01*
X103920974Y-158225472D01*
X104602046Y-157544399D01*
X104614835Y-157625148D01*
X104672359Y-157738045D01*
X104761955Y-157827641D01*
X104874852Y-157885165D01*
X104955599Y-157897953D01*
X104274526Y-158579025D01*
X104274526Y-158579026D01*
X104347512Y-158630131D01*
X104347516Y-158630133D01*
X104553673Y-158726265D01*
X104553682Y-158726269D01*
X104773389Y-158785139D01*
X104773400Y-158785141D01*
X104999998Y-158804966D01*
X105000002Y-158804966D01*
X105226599Y-158785141D01*
X105226610Y-158785139D01*
X105446317Y-158726269D01*
X105446331Y-158726264D01*
X105652478Y-158630136D01*
X105725472Y-158579025D01*
X105044401Y-157897953D01*
X105125148Y-157885165D01*
X105238045Y-157827641D01*
X105327641Y-157738045D01*
X105385165Y-157625148D01*
X105397953Y-157544400D01*
X106079025Y-158225472D01*
X106130136Y-158152478D01*
X106226264Y-157946331D01*
X106226269Y-157946317D01*
X106285139Y-157726610D01*
X106285141Y-157726599D01*
X106304966Y-157500002D01*
X106304966Y-157500001D01*
X108686502Y-157500001D01*
X108706456Y-157728081D01*
X108706457Y-157728089D01*
X108765714Y-157949238D01*
X108765718Y-157949249D01*
X108810929Y-158046204D01*
X108862477Y-158156749D01*
X108993802Y-158344300D01*
X109155700Y-158506198D01*
X109343251Y-158637523D01*
X109468091Y-158695736D01*
X109550750Y-158734281D01*
X109550752Y-158734281D01*
X109550757Y-158734284D01*
X109771913Y-158793543D01*
X109934832Y-158807796D01*
X109999998Y-158813498D01*
X110000000Y-158813498D01*
X110000002Y-158813498D01*
X110057021Y-158808509D01*
X110228087Y-158793543D01*
X110449243Y-158734284D01*
X110656749Y-158637523D01*
X110844300Y-158506198D01*
X111006198Y-158344300D01*
X111137523Y-158156749D01*
X111234284Y-157949243D01*
X111293543Y-157728087D01*
X111310647Y-157532583D01*
X111313498Y-157500001D01*
X111936502Y-157500001D01*
X111956456Y-157728081D01*
X111956457Y-157728089D01*
X112015714Y-157949238D01*
X112015718Y-157949249D01*
X112060929Y-158046204D01*
X112112477Y-158156749D01*
X112243802Y-158344300D01*
X112405700Y-158506198D01*
X112593251Y-158637523D01*
X112718091Y-158695736D01*
X112800750Y-158734281D01*
X112800752Y-158734281D01*
X112800757Y-158734284D01*
X113021913Y-158793543D01*
X113184832Y-158807796D01*
X113249998Y-158813498D01*
X113250000Y-158813498D01*
X113250002Y-158813498D01*
X113307021Y-158808509D01*
X113478087Y-158793543D01*
X113699243Y-158734284D01*
X113906749Y-158637523D01*
X114094300Y-158506198D01*
X114256198Y-158344300D01*
X114387523Y-158156749D01*
X114484284Y-157949243D01*
X114543543Y-157728087D01*
X114560647Y-157532583D01*
X114563498Y-157500002D01*
X116945034Y-157500002D01*
X116964858Y-157726599D01*
X116964860Y-157726610D01*
X117023730Y-157946317D01*
X117023734Y-157946326D01*
X117119865Y-158152481D01*
X117119866Y-158152483D01*
X117170973Y-158225471D01*
X117170974Y-158225472D01*
X117852046Y-157544399D01*
X117864835Y-157625148D01*
X117922359Y-157738045D01*
X118011955Y-157827641D01*
X118124852Y-157885165D01*
X118205599Y-157897953D01*
X117524526Y-158579025D01*
X117524526Y-158579026D01*
X117597512Y-158630131D01*
X117597516Y-158630133D01*
X117803673Y-158726265D01*
X117803682Y-158726269D01*
X118023389Y-158785139D01*
X118023400Y-158785141D01*
X118249998Y-158804966D01*
X118250002Y-158804966D01*
X118476599Y-158785141D01*
X118476610Y-158785139D01*
X118696317Y-158726269D01*
X118696331Y-158726264D01*
X118902478Y-158630136D01*
X118975472Y-158579025D01*
X118294401Y-157897953D01*
X118375148Y-157885165D01*
X118488045Y-157827641D01*
X118577641Y-157738045D01*
X118635165Y-157625148D01*
X118647953Y-157544400D01*
X119329025Y-158225472D01*
X119380136Y-158152478D01*
X119476264Y-157946331D01*
X119476269Y-157946317D01*
X119535139Y-157726610D01*
X119535141Y-157726599D01*
X119554966Y-157500002D01*
X119554966Y-157499997D01*
X119535141Y-157273400D01*
X119535139Y-157273389D01*
X119476269Y-157053682D01*
X119476265Y-157053673D01*
X119380133Y-156847516D01*
X119380131Y-156847512D01*
X119329026Y-156774526D01*
X119329025Y-156774526D01*
X118647953Y-157455598D01*
X118635165Y-157374852D01*
X118577641Y-157261955D01*
X118488045Y-157172359D01*
X118375148Y-157114835D01*
X118294400Y-157102046D01*
X118975472Y-156420974D01*
X118975471Y-156420973D01*
X118902483Y-156369866D01*
X118902481Y-156369865D01*
X118696326Y-156273734D01*
X118696317Y-156273730D01*
X118476610Y-156214860D01*
X118476599Y-156214858D01*
X118250002Y-156195034D01*
X118249998Y-156195034D01*
X118023400Y-156214858D01*
X118023389Y-156214860D01*
X117803682Y-156273730D01*
X117803673Y-156273734D01*
X117597513Y-156369868D01*
X117524527Y-156420972D01*
X117524526Y-156420973D01*
X118205600Y-157102046D01*
X118124852Y-157114835D01*
X118011955Y-157172359D01*
X117922359Y-157261955D01*
X117864835Y-157374852D01*
X117852046Y-157455599D01*
X117170973Y-156774526D01*
X117170972Y-156774527D01*
X117119868Y-156847513D01*
X117023734Y-157053673D01*
X117023730Y-157053682D01*
X116964860Y-157273389D01*
X116964858Y-157273400D01*
X116945034Y-157499997D01*
X116945034Y-157500002D01*
X114563498Y-157500002D01*
X114563498Y-157500001D01*
X114563498Y-157499998D01*
X114551058Y-157357811D01*
X114543543Y-157271913D01*
X114484284Y-157050757D01*
X114387523Y-156843251D01*
X114256198Y-156655700D01*
X114094300Y-156493802D01*
X113906749Y-156362477D01*
X113874665Y-156347516D01*
X113699249Y-156265718D01*
X113699238Y-156265714D01*
X113478089Y-156206457D01*
X113478081Y-156206456D01*
X113250002Y-156186502D01*
X113249998Y-156186502D01*
X113021918Y-156206456D01*
X113021910Y-156206457D01*
X112800761Y-156265714D01*
X112800750Y-156265718D01*
X112593254Y-156362475D01*
X112593252Y-156362476D01*
X112522856Y-156411767D01*
X112405700Y-156493802D01*
X112405698Y-156493803D01*
X112405695Y-156493806D01*
X112243806Y-156655695D01*
X112243803Y-156655698D01*
X112243802Y-156655700D01*
X112208779Y-156705718D01*
X112112476Y-156843252D01*
X112112475Y-156843254D01*
X112015718Y-157050750D01*
X112015714Y-157050761D01*
X111956457Y-157271910D01*
X111956456Y-157271918D01*
X111936502Y-157499998D01*
X111936502Y-157500001D01*
X111313498Y-157500001D01*
X111313498Y-157499998D01*
X111301058Y-157357811D01*
X111293543Y-157271913D01*
X111234284Y-157050757D01*
X111137523Y-156843251D01*
X111006198Y-156655700D01*
X110844300Y-156493802D01*
X110656749Y-156362477D01*
X110624665Y-156347516D01*
X110449249Y-156265718D01*
X110449238Y-156265714D01*
X110228089Y-156206457D01*
X110228081Y-156206456D01*
X110000002Y-156186502D01*
X109999998Y-156186502D01*
X109771918Y-156206456D01*
X109771910Y-156206457D01*
X109550761Y-156265714D01*
X109550750Y-156265718D01*
X109343254Y-156362475D01*
X109343252Y-156362476D01*
X109272856Y-156411767D01*
X109155700Y-156493802D01*
X109155698Y-156493803D01*
X109155695Y-156493806D01*
X108993806Y-156655695D01*
X108993803Y-156655698D01*
X108993802Y-156655700D01*
X108958779Y-156705718D01*
X108862476Y-156843252D01*
X108862475Y-156843254D01*
X108765718Y-157050750D01*
X108765714Y-157050761D01*
X108706457Y-157271910D01*
X108706456Y-157271918D01*
X108686502Y-157499998D01*
X108686502Y-157500001D01*
X106304966Y-157500001D01*
X106304966Y-157499997D01*
X106285141Y-157273400D01*
X106285139Y-157273389D01*
X106226269Y-157053682D01*
X106226265Y-157053673D01*
X106130133Y-156847516D01*
X106130131Y-156847512D01*
X106079026Y-156774526D01*
X106079025Y-156774526D01*
X105397953Y-157455598D01*
X105385165Y-157374852D01*
X105327641Y-157261955D01*
X105238045Y-157172359D01*
X105125148Y-157114835D01*
X105044400Y-157102046D01*
X105725472Y-156420974D01*
X105725471Y-156420973D01*
X105652483Y-156369866D01*
X105652481Y-156369865D01*
X105446326Y-156273734D01*
X105446317Y-156273730D01*
X105226610Y-156214860D01*
X105226599Y-156214858D01*
X105000002Y-156195034D01*
X104999998Y-156195034D01*
X104773400Y-156214858D01*
X104773389Y-156214860D01*
X104553682Y-156273730D01*
X104553673Y-156273734D01*
X104347513Y-156369868D01*
X104274527Y-156420972D01*
X104274526Y-156420973D01*
X104955600Y-157102046D01*
X104874852Y-157114835D01*
X104761955Y-157172359D01*
X104672359Y-157261955D01*
X104614835Y-157374852D01*
X104602046Y-157455599D01*
X103920973Y-156774526D01*
X103920972Y-156774527D01*
X103869868Y-156847513D01*
X103773734Y-157053673D01*
X103773730Y-157053682D01*
X103714860Y-157273389D01*
X103714858Y-157273400D01*
X103695034Y-157499997D01*
X103695034Y-157500002D01*
X78028802Y-157500002D01*
X72265449Y-154258116D01*
X72258905Y-154253137D01*
X72253656Y-154250969D01*
X72251580Y-154249962D01*
X72250193Y-154249446D01*
X72248481Y-154249166D01*
X72246218Y-154249026D01*
X72241046Y-154248383D01*
X72232861Y-154249500D01*
X44251440Y-154249500D01*
X44248576Y-154249434D01*
X44077206Y-154241510D01*
X43853655Y-154230527D01*
X43848130Y-154230007D01*
X43655044Y-154203074D01*
X43452793Y-154173071D01*
X43447694Y-154172095D01*
X43254085Y-154126559D01*
X43059266Y-154077760D01*
X43054626Y-154076403D01*
X42864915Y-154012819D01*
X42863731Y-154012409D01*
X42676611Y-153945457D01*
X42672453Y-153943797D01*
X42488600Y-153862617D01*
X42487204Y-153861980D01*
X42384045Y-153813189D01*
X42308320Y-153777373D01*
X42304658Y-153775490D01*
X42128681Y-153677472D01*
X42126976Y-153676487D01*
X41957675Y-153575012D01*
X41954523Y-153572990D01*
X41840455Y-153494852D01*
X41788130Y-153459008D01*
X41786235Y-153457657D01*
X41627892Y-153340223D01*
X41625217Y-153338122D01*
X41469918Y-153209164D01*
X41467890Y-153207404D01*
X41321942Y-153075125D01*
X41319738Y-153073026D01*
X41176972Y-152930260D01*
X41174873Y-152928056D01*
X41042594Y-152782108D01*
X41040834Y-152780080D01*
X40911876Y-152624781D01*
X40909784Y-152622118D01*
X40866126Y-152563251D01*
X40792341Y-152463763D01*
X40790990Y-152461868D01*
X40772026Y-152434184D01*
X40676998Y-152295459D01*
X40675000Y-152292345D01*
X40573484Y-152122976D01*
X40572540Y-152121341D01*
X40474505Y-151945335D01*
X40472631Y-151941691D01*
X40387987Y-151762726D01*
X40387413Y-151761470D01*
X40306190Y-151577518D01*
X40304549Y-151573409D01*
X40237571Y-151386217D01*
X40237204Y-151385155D01*
X40173594Y-151195369D01*
X40172241Y-151190745D01*
X40124462Y-150999997D01*
X40123451Y-150995961D01*
X40077901Y-150802296D01*
X40076927Y-150797205D01*
X40067026Y-150730462D01*
X40046938Y-150595047D01*
X40019990Y-150401859D01*
X40019471Y-150396342D01*
X40016777Y-150341500D01*
X40008500Y-150173037D01*
X40000566Y-150001424D01*
X40000500Y-149998561D01*
X40000500Y-135000002D01*
X41695153Y-135000002D01*
X41714526Y-135357314D01*
X41714527Y-135357331D01*
X41772415Y-135710431D01*
X41772421Y-135710457D01*
X41868147Y-136055232D01*
X41868149Y-136055239D01*
X42000597Y-136387659D01*
X42000606Y-136387677D01*
X42168218Y-136703827D01*
X42369033Y-137000007D01*
X42496441Y-137150003D01*
X42496442Y-137150004D01*
X43702266Y-135944180D01*
X43865130Y-136134870D01*
X44055818Y-136297732D01*
X42847255Y-137506295D01*
X42847256Y-137506296D01*
X42860485Y-137518828D01*
X42860486Y-137518829D01*
X43145367Y-137735388D01*
X43145370Y-137735390D01*
X43451990Y-137919876D01*
X43776739Y-138070122D01*
X43776744Y-138070123D01*
X44115855Y-138184383D01*
X44465339Y-138261311D01*
X44821075Y-138299999D01*
X44821085Y-138300000D01*
X45178915Y-138300000D01*
X45178924Y-138299999D01*
X45534660Y-138261311D01*
X45884144Y-138184383D01*
X46223255Y-138070123D01*
X46223260Y-138070122D01*
X46548009Y-137919876D01*
X46854629Y-137735390D01*
X46854632Y-137735388D01*
X47139504Y-137518836D01*
X47152742Y-137506294D01*
X45944180Y-136297733D01*
X46134870Y-136134870D01*
X46297733Y-135944180D01*
X47503556Y-137150003D01*
X47630964Y-137000008D01*
X47630975Y-136999994D01*
X47831781Y-136703827D01*
X47999393Y-136387677D01*
X47999402Y-136387659D01*
X48131850Y-136055239D01*
X48131852Y-136055232D01*
X48227578Y-135710457D01*
X48227584Y-135710431D01*
X48285472Y-135357331D01*
X48285473Y-135357314D01*
X48304847Y-135000002D01*
X48304847Y-134999997D01*
X48285473Y-134642685D01*
X48285472Y-134642668D01*
X48227584Y-134289568D01*
X48227578Y-134289542D01*
X48131852Y-133944767D01*
X48131850Y-133944760D01*
X47999402Y-133612340D01*
X47999393Y-133612322D01*
X47831781Y-133296172D01*
X47630966Y-132999992D01*
X47503557Y-132849995D01*
X47503556Y-132849994D01*
X46297732Y-134055818D01*
X46134870Y-133865130D01*
X45944179Y-133702266D01*
X47152743Y-132493703D01*
X47152742Y-132493702D01*
X47139514Y-132481171D01*
X47139513Y-132481170D01*
X46854632Y-132264611D01*
X46854629Y-132264609D01*
X46548009Y-132080123D01*
X46223260Y-131929877D01*
X46223255Y-131929876D01*
X45884144Y-131815616D01*
X45534660Y-131738688D01*
X45178924Y-131700000D01*
X44821075Y-131700000D01*
X44465339Y-131738688D01*
X44115855Y-131815616D01*
X43776744Y-131929876D01*
X43776739Y-131929877D01*
X43451990Y-132080123D01*
X43145370Y-132264609D01*
X43145367Y-132264611D01*
X42860491Y-132481166D01*
X42847256Y-132493703D01*
X42847255Y-132493704D01*
X44055818Y-133702267D01*
X43865130Y-133865130D01*
X43702266Y-134055819D01*
X42496442Y-132849994D01*
X42496441Y-132849995D01*
X42369040Y-132999983D01*
X42369033Y-132999993D01*
X42168218Y-133296172D01*
X42000606Y-133612322D01*
X42000597Y-133612340D01*
X41868149Y-133944760D01*
X41868147Y-133944767D01*
X41772421Y-134289542D01*
X41772415Y-134289568D01*
X41714527Y-134642668D01*
X41714526Y-134642685D01*
X41695153Y-134999997D01*
X41695153Y-135000002D01*
X40000500Y-135000002D01*
X40000500Y-130162500D01*
X40020185Y-130095461D01*
X40072989Y-130049706D01*
X40124500Y-130038500D01*
X75702471Y-130038500D01*
X75769510Y-130058185D01*
G37*
%TD.AperFunction*%
%TA.AperFunction,Conductor*%
G36*
X154540507Y-171669844D02*
G01*
X154618239Y-171790798D01*
X154726900Y-171884952D01*
X154857685Y-171944680D01*
X154867466Y-171946086D01*
X154238625Y-172574925D01*
X154315031Y-172628425D01*
X154358655Y-172683002D01*
X154365848Y-172752501D01*
X154334326Y-172814855D01*
X154315029Y-172831576D01*
X154238625Y-172885072D01*
X154867466Y-173513913D01*
X154857685Y-173515320D01*
X154726900Y-173575048D01*
X154618239Y-173669202D01*
X154540507Y-173790156D01*
X154516923Y-173870475D01*
X153885072Y-173238625D01*
X153885072Y-173238626D01*
X153835131Y-173309950D01*
X153780555Y-173353575D01*
X153711056Y-173360769D01*
X153648701Y-173329246D01*
X153629748Y-173306649D01*
X153535723Y-173162734D01*
X153535715Y-173162723D01*
X153383243Y-172997097D01*
X153383238Y-172997092D01*
X153205577Y-172858812D01*
X153205578Y-172858812D01*
X153205576Y-172858811D01*
X153169070Y-172839055D01*
X153119479Y-172789836D01*
X153104371Y-172721619D01*
X153128541Y-172656064D01*
X153169070Y-172620945D01*
X153169084Y-172620936D01*
X153205576Y-172601189D01*
X153383240Y-172462906D01*
X153535722Y-172297268D01*
X153629749Y-172153347D01*
X153682894Y-172107994D01*
X153752125Y-172098570D01*
X153815461Y-172128072D01*
X153835131Y-172150049D01*
X153885072Y-172221373D01*
X153885073Y-172221373D01*
X154516923Y-171589523D01*
X154540507Y-171669844D01*
G37*
%TD.AperFunction*%
%TA.AperFunction,Conductor*%
G36*
X154540507Y-169129844D02*
G01*
X154618239Y-169250798D01*
X154726900Y-169344952D01*
X154857685Y-169404680D01*
X154867466Y-169406086D01*
X154238625Y-170034925D01*
X154315031Y-170088425D01*
X154358655Y-170143002D01*
X154365848Y-170212501D01*
X154334326Y-170274855D01*
X154315029Y-170291576D01*
X154238625Y-170345072D01*
X154867466Y-170973913D01*
X154857685Y-170975320D01*
X154726900Y-171035048D01*
X154618239Y-171129202D01*
X154540507Y-171250156D01*
X154516923Y-171330475D01*
X153885072Y-170698625D01*
X153885072Y-170698626D01*
X153835131Y-170769950D01*
X153780555Y-170813575D01*
X153711056Y-170820769D01*
X153648701Y-170789246D01*
X153629748Y-170766649D01*
X153535723Y-170622734D01*
X153535715Y-170622723D01*
X153383243Y-170457097D01*
X153383238Y-170457092D01*
X153261987Y-170362718D01*
X153205576Y-170318811D01*
X153169070Y-170299055D01*
X153119479Y-170249836D01*
X153104371Y-170181619D01*
X153128541Y-170116064D01*
X153169070Y-170080945D01*
X153174403Y-170078059D01*
X153205576Y-170061189D01*
X153383240Y-169922906D01*
X153535722Y-169757268D01*
X153629749Y-169613347D01*
X153682894Y-169567994D01*
X153752125Y-169558570D01*
X153815461Y-169588072D01*
X153835131Y-169610049D01*
X153885072Y-169681373D01*
X153885073Y-169681373D01*
X154516923Y-169049523D01*
X154540507Y-169129844D01*
G37*
%TD.AperFunction*%
%TA.AperFunction,Conductor*%
G36*
X154540507Y-166589844D02*
G01*
X154618239Y-166710798D01*
X154726900Y-166804952D01*
X154857685Y-166864680D01*
X154867466Y-166866086D01*
X154238625Y-167494925D01*
X154315031Y-167548425D01*
X154358655Y-167603002D01*
X154365848Y-167672501D01*
X154334326Y-167734855D01*
X154315029Y-167751576D01*
X154238625Y-167805072D01*
X154867466Y-168433913D01*
X154857685Y-168435320D01*
X154726900Y-168495048D01*
X154618239Y-168589202D01*
X154540507Y-168710156D01*
X154516923Y-168790476D01*
X153885072Y-168158625D01*
X153885072Y-168158626D01*
X153835131Y-168229950D01*
X153780555Y-168273575D01*
X153711056Y-168280769D01*
X153648701Y-168249246D01*
X153629748Y-168226649D01*
X153535723Y-168082734D01*
X153535715Y-168082723D01*
X153383243Y-167917097D01*
X153383238Y-167917092D01*
X153205577Y-167778812D01*
X153205572Y-167778808D01*
X153169068Y-167759053D01*
X153119478Y-167709833D01*
X153104371Y-167641616D01*
X153128542Y-167576061D01*
X153169069Y-167540945D01*
X153205576Y-167521189D01*
X153383240Y-167382906D01*
X153535722Y-167217268D01*
X153629749Y-167073347D01*
X153682894Y-167027994D01*
X153752125Y-167018570D01*
X153815461Y-167048072D01*
X153835131Y-167070049D01*
X153885072Y-167141373D01*
X153885073Y-167141373D01*
X154516922Y-166509523D01*
X154540507Y-166589844D01*
G37*
%TD.AperFunction*%
%TA.AperFunction,Conductor*%
G36*
X154540507Y-164049844D02*
G01*
X154618239Y-164170798D01*
X154726900Y-164264952D01*
X154857685Y-164324680D01*
X154867466Y-164326086D01*
X154238625Y-164954925D01*
X154315031Y-165008425D01*
X154358655Y-165063002D01*
X154365848Y-165132501D01*
X154334326Y-165194855D01*
X154315029Y-165211576D01*
X154238625Y-165265072D01*
X154867466Y-165893913D01*
X154857685Y-165895320D01*
X154726900Y-165955048D01*
X154618239Y-166049202D01*
X154540507Y-166170156D01*
X154516923Y-166250474D01*
X153885073Y-165618625D01*
X153885072Y-165618626D01*
X153835131Y-165689950D01*
X153780555Y-165733575D01*
X153711056Y-165740769D01*
X153648701Y-165709246D01*
X153629748Y-165686649D01*
X153547004Y-165560000D01*
X153535722Y-165542732D01*
X153535719Y-165542729D01*
X153535715Y-165542723D01*
X153383243Y-165377097D01*
X153383241Y-165377095D01*
X153383240Y-165377094D01*
X153377697Y-165372780D01*
X153345481Y-165347704D01*
X153304669Y-165290994D01*
X153300996Y-165221220D01*
X153335628Y-165160538D01*
X153376513Y-165135848D01*
X153376195Y-165135165D01*
X153382565Y-165132194D01*
X153382647Y-165132144D01*
X153382738Y-165132115D01*
X153533652Y-165039030D01*
X153659030Y-164913652D01*
X153752115Y-164762738D01*
X153776985Y-164687683D01*
X153816756Y-164630240D01*
X153881271Y-164603416D01*
X153883049Y-164603397D01*
X154516923Y-163969523D01*
X154540507Y-164049844D01*
G37*
%TD.AperFunction*%
%TA.AperFunction,Conductor*%
G36*
X83673273Y-131463185D02*
G01*
X83693914Y-131479818D01*
X84794276Y-132580181D01*
X85852912Y-133638817D01*
X85862816Y-133651178D01*
X85863026Y-133651005D01*
X85867997Y-133657013D01*
X85868000Y-133657018D01*
X85918418Y-133704363D01*
X85919727Y-133705632D01*
X85929567Y-133715472D01*
X85940225Y-133726131D01*
X85945813Y-133730466D01*
X85950245Y-133734252D01*
X85971853Y-133754542D01*
X85984680Y-133766587D01*
X86002562Y-133776417D01*
X86018829Y-133787102D01*
X86034960Y-133799615D01*
X86056838Y-133809081D01*
X86078307Y-133818371D01*
X86083533Y-133820931D01*
X86124940Y-133843695D01*
X86144716Y-133848772D01*
X86163124Y-133855075D01*
X86181850Y-133863179D01*
X86181852Y-133863180D01*
X86181853Y-133863180D01*
X86181855Y-133863181D01*
X86222784Y-133869663D01*
X86228503Y-133870569D01*
X86234212Y-133871751D01*
X86279970Y-133883500D01*
X86300384Y-133883500D01*
X86319783Y-133885027D01*
X86339943Y-133888220D01*
X86386965Y-133883775D01*
X86392804Y-133883500D01*
X95025292Y-133883500D01*
X95092331Y-133903185D01*
X95138086Y-133955989D01*
X95148030Y-134025147D01*
X95145498Y-134037940D01*
X95095436Y-134235628D01*
X95095434Y-134235640D01*
X95076844Y-134459994D01*
X95076844Y-134460005D01*
X95095434Y-134684359D01*
X95095436Y-134684372D01*
X95144751Y-134879111D01*
X95142126Y-134948931D01*
X95102169Y-135006249D01*
X95070192Y-135024844D01*
X95047284Y-135033913D01*
X95041757Y-135035806D01*
X94996406Y-135048982D01*
X94978833Y-135059374D01*
X94961370Y-135067929D01*
X94942385Y-135075446D01*
X94942383Y-135075447D01*
X94904179Y-135103204D01*
X94899296Y-135106412D01*
X94858637Y-135130458D01*
X94844196Y-135144898D01*
X94829408Y-135157527D01*
X94812897Y-135169523D01*
X94812892Y-135169528D01*
X94782790Y-135205914D01*
X94778858Y-135210236D01*
X90138914Y-139850181D01*
X90077591Y-139883666D01*
X90051233Y-139886500D01*
X75797058Y-139886500D01*
X75730019Y-139866815D01*
X75709377Y-139850181D01*
X73693267Y-137834070D01*
X73659782Y-137772747D01*
X73656948Y-137746389D01*
X73656948Y-137435683D01*
X73658686Y-137419933D01*
X73658416Y-137419908D01*
X73659150Y-137412145D01*
X73656979Y-137343059D01*
X73656948Y-137341111D01*
X73656948Y-137312198D01*
X73656063Y-137305199D01*
X73655604Y-137299366D01*
X73654121Y-137252162D01*
X73654120Y-137252160D01*
X73648427Y-137232566D01*
X73644480Y-137213509D01*
X73641922Y-137193255D01*
X73624532Y-137149336D01*
X73622641Y-137143809D01*
X73609466Y-137098460D01*
X73609466Y-137098459D01*
X73599072Y-137080884D01*
X73590512Y-137063408D01*
X73583002Y-137044440D01*
X73583002Y-137044439D01*
X73583001Y-137044437D01*
X73583000Y-137044435D01*
X73555237Y-137006223D01*
X73552035Y-137001349D01*
X73527990Y-136960689D01*
X73513554Y-136946253D01*
X73500917Y-136931458D01*
X73488920Y-136914945D01*
X73452532Y-136884842D01*
X73448210Y-136880909D01*
X71813484Y-135246183D01*
X71803583Y-135233823D01*
X71803373Y-135233998D01*
X71798397Y-135227984D01*
X71798396Y-135227982D01*
X71748010Y-135180667D01*
X71746635Y-135179334D01*
X71726164Y-135158863D01*
X71724188Y-135157331D01*
X71720579Y-135154531D01*
X71716146Y-135150744D01*
X71709920Y-135144898D01*
X71681717Y-135118414D01*
X71681715Y-135118412D01*
X71663827Y-135108578D01*
X71647566Y-135097897D01*
X71631435Y-135085384D01*
X71588089Y-135066627D01*
X71582841Y-135064056D01*
X71555420Y-135048982D01*
X71541456Y-135041305D01*
X71538056Y-135040432D01*
X71521683Y-135036228D01*
X71503277Y-135029926D01*
X71484540Y-135021818D01*
X71484542Y-135021818D01*
X71437892Y-135014430D01*
X71432177Y-135013246D01*
X71412008Y-135008068D01*
X71386428Y-135001500D01*
X71386426Y-135001500D01*
X71366012Y-135001500D01*
X71346981Y-135000002D01*
X76695153Y-135000002D01*
X76714526Y-135357314D01*
X76714527Y-135357331D01*
X76772415Y-135710431D01*
X76772421Y-135710457D01*
X76868147Y-136055232D01*
X76868149Y-136055239D01*
X77000597Y-136387659D01*
X77000606Y-136387677D01*
X77168218Y-136703827D01*
X77369033Y-137000007D01*
X77496441Y-137150003D01*
X77496442Y-137150004D01*
X78702266Y-135944180D01*
X78865130Y-136134870D01*
X79055818Y-136297732D01*
X77847255Y-137506295D01*
X77847256Y-137506296D01*
X77860485Y-137518828D01*
X77860486Y-137518829D01*
X78145367Y-137735388D01*
X78145370Y-137735390D01*
X78451990Y-137919876D01*
X78776739Y-138070122D01*
X78776744Y-138070123D01*
X79115855Y-138184383D01*
X79465339Y-138261311D01*
X79821075Y-138299999D01*
X79821085Y-138300000D01*
X80178915Y-138300000D01*
X80178924Y-138299999D01*
X80534660Y-138261311D01*
X80884144Y-138184383D01*
X81223255Y-138070123D01*
X81223260Y-138070122D01*
X81548009Y-137919876D01*
X81854629Y-137735390D01*
X81854632Y-137735388D01*
X82139504Y-137518836D01*
X82152742Y-137506294D01*
X80944180Y-136297733D01*
X81134870Y-136134870D01*
X81297733Y-135944180D01*
X82503556Y-137150003D01*
X82630964Y-137000008D01*
X82630975Y-136999994D01*
X82831781Y-136703827D01*
X82999393Y-136387677D01*
X82999402Y-136387659D01*
X83131850Y-136055239D01*
X83131852Y-136055232D01*
X83227578Y-135710457D01*
X83227584Y-135710431D01*
X83285472Y-135357331D01*
X83285473Y-135357314D01*
X83304847Y-135000002D01*
X83304847Y-134999997D01*
X83285473Y-134642685D01*
X83285472Y-134642668D01*
X83227584Y-134289568D01*
X83227578Y-134289542D01*
X83131852Y-133944767D01*
X83131850Y-133944760D01*
X82999402Y-133612340D01*
X82999393Y-133612322D01*
X82831781Y-133296172D01*
X82630966Y-132999992D01*
X82503557Y-132849995D01*
X82503556Y-132849994D01*
X81297732Y-134055818D01*
X81134870Y-133865130D01*
X80944180Y-133702266D01*
X82152743Y-132493703D01*
X82152742Y-132493702D01*
X82139514Y-132481171D01*
X82139513Y-132481170D01*
X81854632Y-132264611D01*
X81854629Y-132264609D01*
X81548009Y-132080123D01*
X81223260Y-131929877D01*
X81223255Y-131929876D01*
X80884144Y-131815616D01*
X80534660Y-131738688D01*
X80178924Y-131700000D01*
X79821075Y-131700000D01*
X79465339Y-131738688D01*
X79115855Y-131815616D01*
X78776744Y-131929876D01*
X78776739Y-131929877D01*
X78451990Y-132080123D01*
X78145370Y-132264609D01*
X78145367Y-132264611D01*
X77860491Y-132481166D01*
X77847256Y-132493703D01*
X77847255Y-132493703D01*
X79055819Y-133702266D01*
X78865130Y-133865130D01*
X78702266Y-134055818D01*
X77496442Y-132849994D01*
X77496441Y-132849995D01*
X77369040Y-132999983D01*
X77369033Y-132999993D01*
X77168218Y-133296172D01*
X77000606Y-133612322D01*
X77000597Y-133612340D01*
X76868149Y-133944760D01*
X76868147Y-133944767D01*
X76772421Y-134289542D01*
X76772415Y-134289568D01*
X76714527Y-134642668D01*
X76714526Y-134642685D01*
X76695153Y-134999997D01*
X76695153Y-135000002D01*
X71346981Y-135000002D01*
X71346613Y-134999973D01*
X71326454Y-134996780D01*
X71326453Y-134996780D01*
X71279430Y-135001225D01*
X71273592Y-135001500D01*
X69488766Y-135001500D01*
X69421727Y-134981815D01*
X69401085Y-134965181D01*
X69394818Y-134958914D01*
X69361333Y-134897591D01*
X69358499Y-134871233D01*
X69358499Y-134007500D01*
X69378184Y-133940461D01*
X69430988Y-133894706D01*
X69482499Y-133883500D01*
X73576366Y-133883500D01*
X73592113Y-133885238D01*
X73592139Y-133884968D01*
X73599906Y-133885702D01*
X73599908Y-133885701D01*
X73599909Y-133885702D01*
X73609259Y-133885408D01*
X73668991Y-133883531D01*
X73670939Y-133883500D01*
X73699857Y-133883500D01*
X73701222Y-133883327D01*
X73706862Y-133882614D01*
X73712685Y-133882156D01*
X73738708Y-133881338D01*
X73759890Y-133880673D01*
X73769681Y-133877827D01*
X73779481Y-133874980D01*
X73798538Y-133871032D01*
X73818797Y-133868474D01*
X73862721Y-133851082D01*
X73868221Y-133849199D01*
X73913593Y-133836018D01*
X73931165Y-133825625D01*
X73948632Y-133817068D01*
X73967617Y-133809552D01*
X74005826Y-133781790D01*
X74010704Y-133778585D01*
X74051362Y-133754542D01*
X74065802Y-133740100D01*
X74080592Y-133727470D01*
X74097107Y-133715472D01*
X74127222Y-133679067D01*
X74131126Y-133674776D01*
X76326085Y-131479819D01*
X76387409Y-131446334D01*
X76413767Y-131443500D01*
X83606234Y-131443500D01*
X83673273Y-131463185D01*
G37*
%TD.AperFunction*%
%TA.AperFunction,Conductor*%
G36*
X59191903Y-135133515D02*
G01*
X59213807Y-135158793D01*
X59304276Y-135297265D01*
X59304284Y-135297276D01*
X59456756Y-135462902D01*
X59456760Y-135462906D01*
X59634424Y-135601189D01*
X59677695Y-135624606D01*
X59727286Y-135673825D01*
X59742394Y-135742042D01*
X59718224Y-135807597D01*
X59689801Y-135835236D01*
X59618626Y-135885072D01*
X59618625Y-135885072D01*
X60247466Y-136513913D01*
X60237685Y-136515320D01*
X60106900Y-136575048D01*
X59998239Y-136669202D01*
X59920507Y-136790156D01*
X59896923Y-136870476D01*
X59265072Y-136238625D01*
X59265072Y-136238626D01*
X59211574Y-136315030D01*
X59156998Y-136358655D01*
X59087499Y-136365849D01*
X59025144Y-136334326D01*
X59008424Y-136315030D01*
X58954925Y-136238626D01*
X58954925Y-136238625D01*
X58323076Y-136870474D01*
X58299493Y-136790156D01*
X58221761Y-136669202D01*
X58113100Y-136575048D01*
X57982315Y-136515320D01*
X57972533Y-136513913D01*
X58601373Y-135885073D01*
X58601373Y-135885072D01*
X58530199Y-135835236D01*
X58486574Y-135780659D01*
X58479380Y-135711161D01*
X58510903Y-135648806D01*
X58542305Y-135624606D01*
X58585576Y-135601189D01*
X58763240Y-135462906D01*
X58915722Y-135297268D01*
X59006193Y-135158791D01*
X59059336Y-135113437D01*
X59128567Y-135104013D01*
X59191903Y-135133515D01*
G37*
%TD.AperFunction*%
%TA.AperFunction,Conductor*%
G36*
X61731903Y-135133515D02*
G01*
X61753807Y-135158793D01*
X61844276Y-135297265D01*
X61844284Y-135297276D01*
X61996756Y-135462902D01*
X61996760Y-135462906D01*
X62174424Y-135601189D01*
X62217695Y-135624606D01*
X62267286Y-135673825D01*
X62282394Y-135742042D01*
X62258224Y-135807597D01*
X62229801Y-135835236D01*
X62158626Y-135885072D01*
X62158625Y-135885072D01*
X62787466Y-136513913D01*
X62777685Y-136515320D01*
X62646900Y-136575048D01*
X62538239Y-136669202D01*
X62460507Y-136790156D01*
X62436923Y-136870475D01*
X61805073Y-136238625D01*
X61805071Y-136238626D01*
X61751574Y-136315030D01*
X61696998Y-136358655D01*
X61627499Y-136365849D01*
X61565144Y-136334326D01*
X61548424Y-136315030D01*
X61494925Y-136238626D01*
X61494925Y-136238625D01*
X60863076Y-136870475D01*
X60839493Y-136790156D01*
X60761761Y-136669202D01*
X60653100Y-136575048D01*
X60522315Y-136515320D01*
X60512533Y-136513913D01*
X61141373Y-135885073D01*
X61141373Y-135885072D01*
X61070199Y-135835236D01*
X61026574Y-135780659D01*
X61019380Y-135711161D01*
X61050903Y-135648806D01*
X61082305Y-135624606D01*
X61125576Y-135601189D01*
X61303240Y-135462906D01*
X61455722Y-135297268D01*
X61546193Y-135158791D01*
X61599336Y-135113437D01*
X61668567Y-135104013D01*
X61731903Y-135133515D01*
G37*
%TD.AperFunction*%
%TD*%
M02*
