%TF.GenerationSoftware,KiCad,Pcbnew,7.0.5*%
%TF.CreationDate,2023-07-07T19:02:18+02:00*%
%TF.ProjectId,Processor_Board,50726f63-6573-4736-9f72-5f426f617264,rev?*%
%TF.SameCoordinates,Original*%
%TF.FileFunction,Soldermask,Bot*%
%TF.FilePolarity,Negative*%
%FSLAX46Y46*%
G04 Gerber Fmt 4.6, Leading zero omitted, Abs format (unit mm)*
G04 Created by KiCad (PCBNEW 7.0.5) date 2023-07-07 19:02:18*
%MOMM*%
%LPD*%
G01*
G04 APERTURE LIST*
G04 Aperture macros list*
%AMRoundRect*
0 Rectangle with rounded corners*
0 $1 Rounding radius*
0 $2 $3 $4 $5 $6 $7 $8 $9 X,Y pos of 4 corners*
0 Add a 4 corners polygon primitive as box body*
4,1,4,$2,$3,$4,$5,$6,$7,$8,$9,$2,$3,0*
0 Add four circle primitives for the rounded corners*
1,1,$1+$1,$2,$3*
1,1,$1+$1,$4,$5*
1,1,$1+$1,$6,$7*
1,1,$1+$1,$8,$9*
0 Add four rect primitives between the rounded corners*
20,1,$1+$1,$2,$3,$4,$5,0*
20,1,$1+$1,$4,$5,$6,$7,0*
20,1,$1+$1,$6,$7,$8,$9,0*
20,1,$1+$1,$8,$9,$2,$3,0*%
G04 Aperture macros list end*
%ADD10C,5.600000*%
%ADD11C,1.600000*%
%ADD12O,1.600000X1.600000*%
%ADD13R,1.500000X1.050000*%
%ADD14O,1.500000X1.050000*%
%ADD15R,1.600000X1.600000*%
%ADD16RoundRect,0.250000X-0.600000X0.600000X-0.600000X-0.600000X0.600000X-0.600000X0.600000X0.600000X0*%
%ADD17C,1.700000*%
%ADD18RoundRect,0.250000X-0.600000X-0.600000X0.600000X-0.600000X0.600000X0.600000X-0.600000X0.600000X0*%
%ADD19C,1.500000*%
%ADD20O,3.500000X3.500000*%
%ADD21R,2.000000X1.905000*%
%ADD22O,2.000000X1.905000*%
%ADD23R,1.600000X2.400000*%
%ADD24O,1.600000X2.400000*%
G04 APERTURE END LIST*
D10*
%TO.C,H6*%
X80000000Y-135000000D03*
%TD*%
D11*
%TO.C,R2*%
X127500000Y-157940000D03*
D12*
X127500000Y-165560000D03*
%TD*%
D11*
%TO.C,R8*%
X146000000Y-174190000D03*
D12*
X146000000Y-181810000D03*
%TD*%
D11*
%TO.C,R7*%
X124500000Y-157940000D03*
D12*
X124500000Y-165560000D03*
%TD*%
D11*
%TO.C,R1*%
X130500000Y-157940000D03*
D12*
X130500000Y-165560000D03*
%TD*%
D13*
%TO.C,Q1*%
X140000000Y-178730000D03*
D14*
X140000000Y-180000000D03*
X140000000Y-181270000D03*
%TD*%
D10*
%TO.C,H8*%
X155000000Y-190000000D03*
%TD*%
%TO.C,H6*%
X155000000Y-135000000D03*
%TD*%
D15*
%TO.C,C10*%
X139000000Y-157000000D03*
D11*
X141500000Y-157000000D03*
%TD*%
%TO.C,C9*%
X135000000Y-149000000D03*
X135000000Y-144000000D03*
%TD*%
D16*
%TO.C,J1*%
X132000000Y-134460000D03*
D17*
X132000000Y-137000000D03*
X129460000Y-134460000D03*
X129460000Y-137000000D03*
X126920000Y-134460000D03*
X126920000Y-137000000D03*
X124380000Y-134460000D03*
X124380000Y-137000000D03*
X121840000Y-134460000D03*
X121840000Y-137000000D03*
X119300000Y-134460000D03*
X119300000Y-137000000D03*
X116760000Y-134460000D03*
X116760000Y-137000000D03*
X114220000Y-134460000D03*
X114220000Y-137000000D03*
X111680000Y-134460000D03*
X111680000Y-137000000D03*
X109140000Y-134460000D03*
X109140000Y-137000000D03*
X106600000Y-134460000D03*
X106600000Y-137000000D03*
X104060000Y-134460000D03*
X104060000Y-137000000D03*
X101520000Y-134460000D03*
X101520000Y-137000000D03*
X98980000Y-134460000D03*
X98980000Y-137000000D03*
X96440000Y-134460000D03*
X96440000Y-137000000D03*
%TD*%
D10*
%TO.C,H4*%
X45000000Y-135000000D03*
%TD*%
D18*
%TO.C,J6*%
X152460000Y-163840000D03*
D17*
X155000000Y-163840000D03*
X152460000Y-166380000D03*
X155000000Y-166380000D03*
X152460000Y-168920000D03*
X155000000Y-168920000D03*
X152460000Y-171460000D03*
X155000000Y-171460000D03*
X152460000Y-174000000D03*
X155000000Y-174000000D03*
%TD*%
D19*
%TO.C,Y1*%
X109100000Y-161750000D03*
X114000000Y-161750000D03*
%TD*%
D11*
%TO.C,C2*%
X118250000Y-157500000D03*
X113250000Y-157500000D03*
%TD*%
D16*
%TO.C,J5*%
X68000000Y-134460000D03*
D17*
X68000000Y-137000000D03*
X65460000Y-134460000D03*
X65460000Y-137000000D03*
X62920000Y-134460000D03*
X62920000Y-137000000D03*
X60380000Y-134460000D03*
X60380000Y-137000000D03*
X57840000Y-134460000D03*
X57840000Y-137000000D03*
%TD*%
D15*
%TO.C,C11*%
X81000000Y-148500000D03*
D11*
X81000000Y-151000000D03*
%TD*%
%TO.C,C1*%
X105000000Y-157500000D03*
X110000000Y-157500000D03*
%TD*%
D20*
%TO.C,U6*%
X155430000Y-146000000D03*
D21*
X138770000Y-143460000D03*
D22*
X138770000Y-146000000D03*
X138770000Y-148540000D03*
%TD*%
D23*
%TO.C,U1*%
X94300000Y-153620000D03*
D24*
X96840000Y-153620000D03*
X99380000Y-153620000D03*
X101920000Y-153620000D03*
X104460000Y-153620000D03*
X107000000Y-153620000D03*
X109540000Y-153620000D03*
X112080000Y-153620000D03*
X114620000Y-153620000D03*
X117160000Y-153620000D03*
X119700000Y-153620000D03*
X122240000Y-153620000D03*
X124780000Y-153620000D03*
X127320000Y-153620000D03*
X127320000Y-146000000D03*
X124780000Y-146000000D03*
X122240000Y-146000000D03*
X119700000Y-146000000D03*
X117160000Y-146000000D03*
X114620000Y-146000000D03*
X112080000Y-146000000D03*
X109540000Y-146000000D03*
X107000000Y-146000000D03*
X104460000Y-146000000D03*
X101920000Y-146000000D03*
X99380000Y-146000000D03*
X96840000Y-146000000D03*
X94300000Y-146000000D03*
%TD*%
D11*
%TO.C,C7*%
X110000000Y-143000000D03*
X115000000Y-143000000D03*
%TD*%
M02*
