%TF.GenerationSoftware,KiCad,Pcbnew,7.0.5*%
%TF.CreationDate,2023-09-10T17:58:06+02:00*%
%TF.ProjectId,CMD_Board_cover,434d445f-426f-4617-9264-5f636f766572,rev?*%
%TF.SameCoordinates,Original*%
%TF.FileFunction,Drillmap*%
%TF.FilePolarity,Positive*%
%FSLAX45Y45*%
G04 Gerber Fmt 4.5, Leading zero omitted, Abs format (unit mm)*
G04 Created by KiCad (PCBNEW 7.0.5) date 2023-09-10 17:58:06*
%MOMM*%
%LPD*%
G01*
G04 APERTURE LIST*
%ADD10C,0.100000*%
%ADD11C,0.200000*%
G04 APERTURE END LIST*
D10*
X23500000Y-3400000D02*
X25500000Y-3400000D01*
X25500000Y-5400000D01*
X23500000Y-5400000D01*
X23500000Y-3400000D01*
X9500000Y-12400000D02*
X11500000Y-12400000D01*
X11500000Y-14400000D01*
X9500000Y-14400000D01*
X9500000Y-12400000D01*
X24500000Y-18400000D02*
X24500000Y-20400000D01*
X28500000Y-9400000D02*
X28500000Y-3400000D01*
X16500000Y-22400000D02*
X14500000Y-22400000D01*
X16500000Y-20400000D02*
X16500000Y-22400000D01*
X30500000Y-20400000D02*
X30500000Y-18400000D01*
X28500000Y-18400000D02*
X28500000Y-16400000D01*
X28500000Y-20400000D02*
X30500000Y-20400000D01*
X33000000Y-6400000D02*
X35000000Y-6400000D01*
X35000000Y-8400000D01*
X33000000Y-8400000D01*
X33000000Y-6400000D01*
X28500000Y-22400000D02*
X28500000Y-20400000D01*
X26500000Y-22400000D02*
X28500000Y-22400000D01*
X18500000Y-22400000D02*
X18500000Y-20400000D01*
X18500000Y-20400000D02*
X16500000Y-20400000D01*
X24500000Y-20400000D02*
X26500000Y-20400000D01*
X23500000Y-6400000D02*
X25500000Y-6400000D01*
X25500000Y-8400000D01*
X23500000Y-8400000D01*
X23500000Y-6400000D01*
X9500000Y-14900000D02*
X11500000Y-14900000D01*
X11500000Y-16900000D01*
X9500000Y-16900000D01*
X9500000Y-14900000D01*
X9500000Y-17400000D02*
X11500000Y-17400000D01*
X11500000Y-19400000D01*
X9500000Y-19400000D01*
X9500000Y-17400000D01*
X23500000Y-12400000D02*
X25500000Y-12400000D01*
X25500000Y-14400000D01*
X23500000Y-14400000D01*
X23500000Y-12400000D01*
X23500000Y-9400000D02*
X25500000Y-9400000D01*
X25500000Y-11400000D01*
X23500000Y-11400000D01*
X23500000Y-9400000D01*
X30500000Y-11400000D02*
X30500000Y-9400000D01*
X14500000Y-12400000D02*
X22500000Y-12400000D01*
X14500000Y-22400000D02*
X14500000Y-12400000D01*
X12000000Y-14900000D02*
X14000000Y-14900000D01*
X14000000Y-16900000D01*
X12000000Y-16900000D01*
X12000000Y-14900000D01*
X8000000Y-2400000D02*
X36000000Y-2400000D01*
X36000000Y-24500000D01*
X8000000Y-24500000D01*
X8000000Y-2400000D01*
X28500000Y-3400000D02*
X26500000Y-3400000D01*
X30500000Y-9400000D02*
X28500000Y-9400000D01*
X22500000Y-22400000D02*
X18500000Y-22400000D01*
X26500000Y-20400000D02*
X26500000Y-22400000D01*
X26500000Y-11400000D02*
X30500000Y-11400000D01*
X12000000Y-12400000D02*
X14000000Y-12400000D01*
X14000000Y-14400000D01*
X12000000Y-14400000D01*
X12000000Y-12400000D01*
X30500000Y-18400000D02*
X28500000Y-18400000D01*
X9500000Y-20400000D02*
X11500000Y-20400000D01*
X11500000Y-22400000D01*
X9500000Y-22400000D01*
X9500000Y-20400000D01*
X26500000Y-12400000D02*
X30500000Y-12400000D01*
X30500000Y-14400000D01*
X26500000Y-14400000D01*
X26500000Y-12400000D01*
X22500000Y-12400000D02*
X22500000Y-22400000D01*
X16500000Y-3400000D02*
X22500000Y-3400000D01*
X22500000Y-11400000D01*
X16500000Y-11400000D01*
X16500000Y-3400000D01*
X26500000Y-3400000D02*
X26500000Y-11400000D01*
X26500000Y-18400000D02*
X24500000Y-18400000D01*
X29000000Y-3400000D02*
X35000000Y-3400000D01*
X35000000Y-5400000D01*
X29000000Y-5400000D01*
X29000000Y-3400000D01*
X12000000Y-17400000D02*
X14000000Y-17400000D01*
X14000000Y-19400000D01*
X12000000Y-19400000D01*
X12000000Y-17400000D01*
X9500000Y-3400000D02*
X15500000Y-3400000D01*
X15500000Y-11400000D01*
X9500000Y-11400000D01*
X9500000Y-3400000D01*
X26500000Y-16400000D02*
X26500000Y-18400000D01*
X28500000Y-16400000D02*
X26500000Y-16400000D01*
X33900000Y-10400000D02*
X34100000Y-10400000D01*
X34100000Y-18300000D01*
X33900000Y-18300000D01*
X33900000Y-10400000D01*
D11*
X8255777Y-24816484D02*
X8255777Y-24616484D01*
X8255777Y-24616484D02*
X8303396Y-24616484D01*
X8303396Y-24616484D02*
X8331967Y-24626008D01*
X8331967Y-24626008D02*
X8351015Y-24645055D01*
X8351015Y-24645055D02*
X8360539Y-24664103D01*
X8360539Y-24664103D02*
X8370062Y-24702198D01*
X8370062Y-24702198D02*
X8370062Y-24730769D01*
X8370062Y-24730769D02*
X8360539Y-24768865D01*
X8360539Y-24768865D02*
X8351015Y-24787912D01*
X8351015Y-24787912D02*
X8331967Y-24806960D01*
X8331967Y-24806960D02*
X8303396Y-24816484D01*
X8303396Y-24816484D02*
X8255777Y-24816484D01*
X8455777Y-24816484D02*
X8455777Y-24683150D01*
X8455777Y-24721246D02*
X8465301Y-24702198D01*
X8465301Y-24702198D02*
X8474824Y-24692674D01*
X8474824Y-24692674D02*
X8493872Y-24683150D01*
X8493872Y-24683150D02*
X8512920Y-24683150D01*
X8579586Y-24816484D02*
X8579586Y-24683150D01*
X8579586Y-24616484D02*
X8570063Y-24626008D01*
X8570063Y-24626008D02*
X8579586Y-24635531D01*
X8579586Y-24635531D02*
X8589110Y-24626008D01*
X8589110Y-24626008D02*
X8579586Y-24616484D01*
X8579586Y-24616484D02*
X8579586Y-24635531D01*
X8703396Y-24816484D02*
X8684348Y-24806960D01*
X8684348Y-24806960D02*
X8674824Y-24787912D01*
X8674824Y-24787912D02*
X8674824Y-24616484D01*
X8808158Y-24816484D02*
X8789110Y-24806960D01*
X8789110Y-24806960D02*
X8779586Y-24787912D01*
X8779586Y-24787912D02*
X8779586Y-24616484D01*
X9036729Y-24816484D02*
X9036729Y-24616484D01*
X9036729Y-24616484D02*
X9103396Y-24759341D01*
X9103396Y-24759341D02*
X9170063Y-24616484D01*
X9170063Y-24616484D02*
X9170063Y-24816484D01*
X9351015Y-24816484D02*
X9351015Y-24711722D01*
X9351015Y-24711722D02*
X9341491Y-24692674D01*
X9341491Y-24692674D02*
X9322444Y-24683150D01*
X9322444Y-24683150D02*
X9284348Y-24683150D01*
X9284348Y-24683150D02*
X9265301Y-24692674D01*
X9351015Y-24806960D02*
X9331967Y-24816484D01*
X9331967Y-24816484D02*
X9284348Y-24816484D01*
X9284348Y-24816484D02*
X9265301Y-24806960D01*
X9265301Y-24806960D02*
X9255777Y-24787912D01*
X9255777Y-24787912D02*
X9255777Y-24768865D01*
X9255777Y-24768865D02*
X9265301Y-24749817D01*
X9265301Y-24749817D02*
X9284348Y-24740293D01*
X9284348Y-24740293D02*
X9331967Y-24740293D01*
X9331967Y-24740293D02*
X9351015Y-24730769D01*
X9446253Y-24683150D02*
X9446253Y-24883150D01*
X9446253Y-24692674D02*
X9465301Y-24683150D01*
X9465301Y-24683150D02*
X9503396Y-24683150D01*
X9503396Y-24683150D02*
X9522444Y-24692674D01*
X9522444Y-24692674D02*
X9531967Y-24702198D01*
X9531967Y-24702198D02*
X9541491Y-24721246D01*
X9541491Y-24721246D02*
X9541491Y-24778388D01*
X9541491Y-24778388D02*
X9531967Y-24797436D01*
X9531967Y-24797436D02*
X9522444Y-24806960D01*
X9522444Y-24806960D02*
X9503396Y-24816484D01*
X9503396Y-24816484D02*
X9465301Y-24816484D01*
X9465301Y-24816484D02*
X9446253Y-24806960D01*
X9627205Y-24797436D02*
X9636729Y-24806960D01*
X9636729Y-24806960D02*
X9627205Y-24816484D01*
X9627205Y-24816484D02*
X9617682Y-24806960D01*
X9617682Y-24806960D02*
X9627205Y-24797436D01*
X9627205Y-24797436D02*
X9627205Y-24816484D01*
X9627205Y-24692674D02*
X9636729Y-24702198D01*
X9636729Y-24702198D02*
X9627205Y-24711722D01*
X9627205Y-24711722D02*
X9617682Y-24702198D01*
X9617682Y-24702198D02*
X9627205Y-24692674D01*
X9627205Y-24692674D02*
X9627205Y-24711722D01*
M02*
