%TF.GenerationSoftware,KiCad,Pcbnew,7.0.5*%
%TF.CreationDate,2023-09-10T17:58:06+02:00*%
%TF.ProjectId,CMD_Board_cover,434d445f-426f-4617-9264-5f636f766572,rev?*%
%TF.SameCoordinates,Original*%
%TF.FileFunction,Drillmap*%
%TF.FilePolarity,Positive*%
%FSLAX45Y45*%
G04 Gerber Fmt 4.5, Leading zero omitted, Abs format (unit mm)*
G04 Created by KiCad (PCBNEW 7.0.5) date 2023-09-10 17:58:06*
%MOMM*%
%LPD*%
G01*
G04 APERTURE LIST*
%ADD10C,0.100000*%
%ADD11C,0.200000*%
%ADD12C,0.320000*%
G04 APERTURE END LIST*
D10*
X23500000Y-3400000D02*
X25500000Y-3400000D01*
X25500000Y-5400000D01*
X23500000Y-5400000D01*
X23500000Y-3400000D01*
X9500000Y-12400000D02*
X11500000Y-12400000D01*
X11500000Y-14400000D01*
X9500000Y-14400000D01*
X9500000Y-12400000D01*
X24500000Y-18400000D02*
X24500000Y-20400000D01*
X28500000Y-9400000D02*
X28500000Y-3400000D01*
X16500000Y-22400000D02*
X14500000Y-22400000D01*
X16500000Y-20400000D02*
X16500000Y-22400000D01*
X30500000Y-20400000D02*
X30500000Y-18400000D01*
X28500000Y-18400000D02*
X28500000Y-16400000D01*
X28500000Y-20400000D02*
X30500000Y-20400000D01*
X33000000Y-6400000D02*
X35000000Y-6400000D01*
X35000000Y-8400000D01*
X33000000Y-8400000D01*
X33000000Y-6400000D01*
X28500000Y-22400000D02*
X28500000Y-20400000D01*
X26500000Y-22400000D02*
X28500000Y-22400000D01*
X18500000Y-22400000D02*
X18500000Y-20400000D01*
X18500000Y-20400000D02*
X16500000Y-20400000D01*
X24500000Y-20400000D02*
X26500000Y-20400000D01*
X23500000Y-6400000D02*
X25500000Y-6400000D01*
X25500000Y-8400000D01*
X23500000Y-8400000D01*
X23500000Y-6400000D01*
X9500000Y-14900000D02*
X11500000Y-14900000D01*
X11500000Y-16900000D01*
X9500000Y-16900000D01*
X9500000Y-14900000D01*
X9500000Y-17400000D02*
X11500000Y-17400000D01*
X11500000Y-19400000D01*
X9500000Y-19400000D01*
X9500000Y-17400000D01*
X23500000Y-12400000D02*
X25500000Y-12400000D01*
X25500000Y-14400000D01*
X23500000Y-14400000D01*
X23500000Y-12400000D01*
X23500000Y-9400000D02*
X25500000Y-9400000D01*
X25500000Y-11400000D01*
X23500000Y-11400000D01*
X23500000Y-9400000D01*
X30500000Y-11400000D02*
X30500000Y-9400000D01*
X14500000Y-12400000D02*
X22500000Y-12400000D01*
X14500000Y-22400000D02*
X14500000Y-12400000D01*
X12000000Y-14900000D02*
X14000000Y-14900000D01*
X14000000Y-16900000D01*
X12000000Y-16900000D01*
X12000000Y-14900000D01*
X8000000Y-2400000D02*
X36000000Y-2400000D01*
X36000000Y-24500000D01*
X8000000Y-24500000D01*
X8000000Y-2400000D01*
X28500000Y-3400000D02*
X26500000Y-3400000D01*
X30500000Y-9400000D02*
X28500000Y-9400000D01*
X22500000Y-22400000D02*
X18500000Y-22400000D01*
X26500000Y-20400000D02*
X26500000Y-22400000D01*
X26500000Y-11400000D02*
X30500000Y-11400000D01*
X12000000Y-12400000D02*
X14000000Y-12400000D01*
X14000000Y-14400000D01*
X12000000Y-14400000D01*
X12000000Y-12400000D01*
X30500000Y-18400000D02*
X28500000Y-18400000D01*
X9500000Y-20400000D02*
X11500000Y-20400000D01*
X11500000Y-22400000D01*
X9500000Y-22400000D01*
X9500000Y-20400000D01*
X26500000Y-12400000D02*
X30500000Y-12400000D01*
X30500000Y-14400000D01*
X26500000Y-14400000D01*
X26500000Y-12400000D01*
X22500000Y-12400000D02*
X22500000Y-22400000D01*
X16500000Y-3400000D02*
X22500000Y-3400000D01*
X22500000Y-11400000D01*
X16500000Y-11400000D01*
X16500000Y-3400000D01*
X26500000Y-3400000D02*
X26500000Y-11400000D01*
X26500000Y-18400000D02*
X24500000Y-18400000D01*
X29000000Y-3400000D02*
X35000000Y-3400000D01*
X35000000Y-5400000D01*
X29000000Y-5400000D01*
X29000000Y-3400000D01*
X12000000Y-17400000D02*
X14000000Y-17400000D01*
X14000000Y-19400000D01*
X12000000Y-19400000D01*
X12000000Y-17400000D01*
X9500000Y-3400000D02*
X15500000Y-3400000D01*
X15500000Y-11400000D01*
X9500000Y-11400000D01*
X9500000Y-3400000D01*
X26500000Y-16400000D02*
X26500000Y-18400000D01*
X28500000Y-16400000D02*
X26500000Y-16400000D01*
X33900000Y-10400000D02*
X34100000Y-10400000D01*
X34100000Y-18300000D01*
X33900000Y-18300000D01*
X33900000Y-10400000D01*
D11*
D12*
X8340000Y-2740000D02*
X8660000Y-3060000D01*
X8660000Y-2740000D02*
X8340000Y-3060000D01*
X8340000Y-4240000D02*
X8660000Y-4560000D01*
X8660000Y-4240000D02*
X8340000Y-4560000D01*
X8340000Y-21240000D02*
X8660000Y-21560000D01*
X8660000Y-21240000D02*
X8340000Y-21560000D01*
X8340000Y-23740000D02*
X8660000Y-24060000D01*
X8660000Y-23740000D02*
X8340000Y-24060000D01*
X8348000Y-15740000D02*
X8668000Y-16060000D01*
X8668000Y-15740000D02*
X8348000Y-16060000D01*
X22840000Y-2740000D02*
X23160000Y-3060000D01*
X23160000Y-2740000D02*
X22840000Y-3060000D01*
X22840000Y-4240000D02*
X23160000Y-4560000D01*
X23160000Y-4240000D02*
X22840000Y-4560000D01*
X22840000Y-15740000D02*
X23160000Y-16060000D01*
X23160000Y-15740000D02*
X22840000Y-16060000D01*
X22840000Y-21240000D02*
X23160000Y-21560000D01*
X23160000Y-21240000D02*
X22840000Y-21560000D01*
X22840000Y-23740000D02*
X23160000Y-24060000D01*
X23160000Y-23740000D02*
X22840000Y-24060000D01*
X35340000Y-2740000D02*
X35660000Y-3060000D01*
X35660000Y-2740000D02*
X35340000Y-3060000D01*
X35340000Y-4240000D02*
X35660000Y-4560000D01*
X35660000Y-4240000D02*
X35340000Y-4560000D01*
X35340000Y-15740000D02*
X35660000Y-16060000D01*
X35660000Y-15740000D02*
X35340000Y-16060000D01*
X35340000Y-21240000D02*
X35660000Y-21560000D01*
X35660000Y-21240000D02*
X35340000Y-21560000D01*
X35340000Y-23740000D02*
X35660000Y-24060000D01*
X35660000Y-23740000D02*
X35340000Y-24060000D01*
D11*
X8255777Y-24816484D02*
X8255777Y-24616484D01*
X8255777Y-24616484D02*
X8303396Y-24616484D01*
X8303396Y-24616484D02*
X8331967Y-24626008D01*
X8331967Y-24626008D02*
X8351015Y-24645055D01*
X8351015Y-24645055D02*
X8360539Y-24664103D01*
X8360539Y-24664103D02*
X8370062Y-24702198D01*
X8370062Y-24702198D02*
X8370062Y-24730769D01*
X8370062Y-24730769D02*
X8360539Y-24768865D01*
X8360539Y-24768865D02*
X8351015Y-24787912D01*
X8351015Y-24787912D02*
X8331967Y-24806960D01*
X8331967Y-24806960D02*
X8303396Y-24816484D01*
X8303396Y-24816484D02*
X8255777Y-24816484D01*
X8455777Y-24816484D02*
X8455777Y-24683150D01*
X8455777Y-24721246D02*
X8465301Y-24702198D01*
X8465301Y-24702198D02*
X8474824Y-24692674D01*
X8474824Y-24692674D02*
X8493872Y-24683150D01*
X8493872Y-24683150D02*
X8512920Y-24683150D01*
X8579586Y-24816484D02*
X8579586Y-24683150D01*
X8579586Y-24616484D02*
X8570063Y-24626008D01*
X8570063Y-24626008D02*
X8579586Y-24635531D01*
X8579586Y-24635531D02*
X8589110Y-24626008D01*
X8589110Y-24626008D02*
X8579586Y-24616484D01*
X8579586Y-24616484D02*
X8579586Y-24635531D01*
X8703396Y-24816484D02*
X8684348Y-24806960D01*
X8684348Y-24806960D02*
X8674824Y-24787912D01*
X8674824Y-24787912D02*
X8674824Y-24616484D01*
X8808158Y-24816484D02*
X8789110Y-24806960D01*
X8789110Y-24806960D02*
X8779586Y-24787912D01*
X8779586Y-24787912D02*
X8779586Y-24616484D01*
X9036729Y-24816484D02*
X9036729Y-24616484D01*
X9036729Y-24616484D02*
X9103396Y-24759341D01*
X9103396Y-24759341D02*
X9170063Y-24616484D01*
X9170063Y-24616484D02*
X9170063Y-24816484D01*
X9351015Y-24816484D02*
X9351015Y-24711722D01*
X9351015Y-24711722D02*
X9341491Y-24692674D01*
X9341491Y-24692674D02*
X9322444Y-24683150D01*
X9322444Y-24683150D02*
X9284348Y-24683150D01*
X9284348Y-24683150D02*
X9265301Y-24692674D01*
X9351015Y-24806960D02*
X9331967Y-24816484D01*
X9331967Y-24816484D02*
X9284348Y-24816484D01*
X9284348Y-24816484D02*
X9265301Y-24806960D01*
X9265301Y-24806960D02*
X9255777Y-24787912D01*
X9255777Y-24787912D02*
X9255777Y-24768865D01*
X9255777Y-24768865D02*
X9265301Y-24749817D01*
X9265301Y-24749817D02*
X9284348Y-24740293D01*
X9284348Y-24740293D02*
X9331967Y-24740293D01*
X9331967Y-24740293D02*
X9351015Y-24730769D01*
X9446253Y-24683150D02*
X9446253Y-24883150D01*
X9446253Y-24692674D02*
X9465301Y-24683150D01*
X9465301Y-24683150D02*
X9503396Y-24683150D01*
X9503396Y-24683150D02*
X9522444Y-24692674D01*
X9522444Y-24692674D02*
X9531967Y-24702198D01*
X9531967Y-24702198D02*
X9541491Y-24721246D01*
X9541491Y-24721246D02*
X9541491Y-24778388D01*
X9541491Y-24778388D02*
X9531967Y-24797436D01*
X9531967Y-24797436D02*
X9522444Y-24806960D01*
X9522444Y-24806960D02*
X9503396Y-24816484D01*
X9503396Y-24816484D02*
X9465301Y-24816484D01*
X9465301Y-24816484D02*
X9446253Y-24806960D01*
X9627205Y-24797436D02*
X9636729Y-24806960D01*
X9636729Y-24806960D02*
X9627205Y-24816484D01*
X9627205Y-24816484D02*
X9617682Y-24806960D01*
X9617682Y-24806960D02*
X9627205Y-24797436D01*
X9627205Y-24797436D02*
X9627205Y-24816484D01*
X9627205Y-24692674D02*
X9636729Y-24702198D01*
X9636729Y-24702198D02*
X9627205Y-24711722D01*
X9627205Y-24711722D02*
X9617682Y-24702198D01*
X9617682Y-24702198D02*
X9627205Y-24692674D01*
X9627205Y-24692674D02*
X9627205Y-24711722D01*
X7795000Y-25045000D02*
X7995000Y-25245000D01*
X7995000Y-25045000D02*
X7795000Y-25245000D01*
X8236729Y-25036484D02*
X8360539Y-25036484D01*
X8360539Y-25036484D02*
X8293872Y-25112674D01*
X8293872Y-25112674D02*
X8322443Y-25112674D01*
X8322443Y-25112674D02*
X8341491Y-25122198D01*
X8341491Y-25122198D02*
X8351015Y-25131722D01*
X8351015Y-25131722D02*
X8360539Y-25150769D01*
X8360539Y-25150769D02*
X8360539Y-25198388D01*
X8360539Y-25198388D02*
X8351015Y-25217436D01*
X8351015Y-25217436D02*
X8341491Y-25226960D01*
X8341491Y-25226960D02*
X8322443Y-25236484D01*
X8322443Y-25236484D02*
X8265301Y-25236484D01*
X8265301Y-25236484D02*
X8246253Y-25226960D01*
X8246253Y-25226960D02*
X8236729Y-25217436D01*
X8446253Y-25217436D02*
X8455777Y-25226960D01*
X8455777Y-25226960D02*
X8446253Y-25236484D01*
X8446253Y-25236484D02*
X8436729Y-25226960D01*
X8436729Y-25226960D02*
X8446253Y-25217436D01*
X8446253Y-25217436D02*
X8446253Y-25236484D01*
X8531967Y-25055531D02*
X8541491Y-25046008D01*
X8541491Y-25046008D02*
X8560539Y-25036484D01*
X8560539Y-25036484D02*
X8608158Y-25036484D01*
X8608158Y-25036484D02*
X8627205Y-25046008D01*
X8627205Y-25046008D02*
X8636729Y-25055531D01*
X8636729Y-25055531D02*
X8646253Y-25074579D01*
X8646253Y-25074579D02*
X8646253Y-25093627D01*
X8646253Y-25093627D02*
X8636729Y-25122198D01*
X8636729Y-25122198D02*
X8522444Y-25236484D01*
X8522444Y-25236484D02*
X8646253Y-25236484D01*
X8770063Y-25036484D02*
X8789110Y-25036484D01*
X8789110Y-25036484D02*
X8808158Y-25046008D01*
X8808158Y-25046008D02*
X8817682Y-25055531D01*
X8817682Y-25055531D02*
X8827205Y-25074579D01*
X8827205Y-25074579D02*
X8836729Y-25112674D01*
X8836729Y-25112674D02*
X8836729Y-25160293D01*
X8836729Y-25160293D02*
X8827205Y-25198388D01*
X8827205Y-25198388D02*
X8817682Y-25217436D01*
X8817682Y-25217436D02*
X8808158Y-25226960D01*
X8808158Y-25226960D02*
X8789110Y-25236484D01*
X8789110Y-25236484D02*
X8770063Y-25236484D01*
X8770063Y-25236484D02*
X8751015Y-25226960D01*
X8751015Y-25226960D02*
X8741491Y-25217436D01*
X8741491Y-25217436D02*
X8731967Y-25198388D01*
X8731967Y-25198388D02*
X8722444Y-25160293D01*
X8722444Y-25160293D02*
X8722444Y-25112674D01*
X8722444Y-25112674D02*
X8731967Y-25074579D01*
X8731967Y-25074579D02*
X8741491Y-25055531D01*
X8741491Y-25055531D02*
X8751015Y-25046008D01*
X8751015Y-25046008D02*
X8770063Y-25036484D01*
X8960539Y-25036484D02*
X8979586Y-25036484D01*
X8979586Y-25036484D02*
X8998634Y-25046008D01*
X8998634Y-25046008D02*
X9008158Y-25055531D01*
X9008158Y-25055531D02*
X9017682Y-25074579D01*
X9017682Y-25074579D02*
X9027205Y-25112674D01*
X9027205Y-25112674D02*
X9027205Y-25160293D01*
X9027205Y-25160293D02*
X9017682Y-25198388D01*
X9017682Y-25198388D02*
X9008158Y-25217436D01*
X9008158Y-25217436D02*
X8998634Y-25226960D01*
X8998634Y-25226960D02*
X8979586Y-25236484D01*
X8979586Y-25236484D02*
X8960539Y-25236484D01*
X8960539Y-25236484D02*
X8941491Y-25226960D01*
X8941491Y-25226960D02*
X8931967Y-25217436D01*
X8931967Y-25217436D02*
X8922444Y-25198388D01*
X8922444Y-25198388D02*
X8912920Y-25160293D01*
X8912920Y-25160293D02*
X8912920Y-25112674D01*
X8912920Y-25112674D02*
X8922444Y-25074579D01*
X8922444Y-25074579D02*
X8931967Y-25055531D01*
X8931967Y-25055531D02*
X8941491Y-25046008D01*
X8941491Y-25046008D02*
X8960539Y-25036484D01*
X9112920Y-25236484D02*
X9112920Y-25103150D01*
X9112920Y-25122198D02*
X9122444Y-25112674D01*
X9122444Y-25112674D02*
X9141491Y-25103150D01*
X9141491Y-25103150D02*
X9170063Y-25103150D01*
X9170063Y-25103150D02*
X9189110Y-25112674D01*
X9189110Y-25112674D02*
X9198634Y-25131722D01*
X9198634Y-25131722D02*
X9198634Y-25236484D01*
X9198634Y-25131722D02*
X9208158Y-25112674D01*
X9208158Y-25112674D02*
X9227205Y-25103150D01*
X9227205Y-25103150D02*
X9255777Y-25103150D01*
X9255777Y-25103150D02*
X9274825Y-25112674D01*
X9274825Y-25112674D02*
X9284348Y-25131722D01*
X9284348Y-25131722D02*
X9284348Y-25236484D01*
X9379586Y-25236484D02*
X9379586Y-25103150D01*
X9379586Y-25122198D02*
X9389110Y-25112674D01*
X9389110Y-25112674D02*
X9408158Y-25103150D01*
X9408158Y-25103150D02*
X9436729Y-25103150D01*
X9436729Y-25103150D02*
X9455777Y-25112674D01*
X9455777Y-25112674D02*
X9465301Y-25131722D01*
X9465301Y-25131722D02*
X9465301Y-25236484D01*
X9465301Y-25131722D02*
X9474825Y-25112674D01*
X9474825Y-25112674D02*
X9493872Y-25103150D01*
X9493872Y-25103150D02*
X9522444Y-25103150D01*
X9522444Y-25103150D02*
X9541491Y-25112674D01*
X9541491Y-25112674D02*
X9551015Y-25131722D01*
X9551015Y-25131722D02*
X9551015Y-25236484D01*
X9941491Y-25026960D02*
X9770063Y-25284103D01*
X10198634Y-25036484D02*
X10217682Y-25036484D01*
X10217682Y-25036484D02*
X10236729Y-25046008D01*
X10236729Y-25046008D02*
X10246253Y-25055531D01*
X10246253Y-25055531D02*
X10255777Y-25074579D01*
X10255777Y-25074579D02*
X10265301Y-25112674D01*
X10265301Y-25112674D02*
X10265301Y-25160293D01*
X10265301Y-25160293D02*
X10255777Y-25198388D01*
X10255777Y-25198388D02*
X10246253Y-25217436D01*
X10246253Y-25217436D02*
X10236729Y-25226960D01*
X10236729Y-25226960D02*
X10217682Y-25236484D01*
X10217682Y-25236484D02*
X10198634Y-25236484D01*
X10198634Y-25236484D02*
X10179587Y-25226960D01*
X10179587Y-25226960D02*
X10170063Y-25217436D01*
X10170063Y-25217436D02*
X10160539Y-25198388D01*
X10160539Y-25198388D02*
X10151015Y-25160293D01*
X10151015Y-25160293D02*
X10151015Y-25112674D01*
X10151015Y-25112674D02*
X10160539Y-25074579D01*
X10160539Y-25074579D02*
X10170063Y-25055531D01*
X10170063Y-25055531D02*
X10179587Y-25046008D01*
X10179587Y-25046008D02*
X10198634Y-25036484D01*
X10351015Y-25217436D02*
X10360539Y-25226960D01*
X10360539Y-25226960D02*
X10351015Y-25236484D01*
X10351015Y-25236484D02*
X10341491Y-25226960D01*
X10341491Y-25226960D02*
X10351015Y-25217436D01*
X10351015Y-25217436D02*
X10351015Y-25236484D01*
X10551015Y-25236484D02*
X10436729Y-25236484D01*
X10493872Y-25236484D02*
X10493872Y-25036484D01*
X10493872Y-25036484D02*
X10474825Y-25065055D01*
X10474825Y-25065055D02*
X10455777Y-25084103D01*
X10455777Y-25084103D02*
X10436729Y-25093627D01*
X10627206Y-25055531D02*
X10636729Y-25046008D01*
X10636729Y-25046008D02*
X10655777Y-25036484D01*
X10655777Y-25036484D02*
X10703396Y-25036484D01*
X10703396Y-25036484D02*
X10722444Y-25046008D01*
X10722444Y-25046008D02*
X10731968Y-25055531D01*
X10731968Y-25055531D02*
X10741491Y-25074579D01*
X10741491Y-25074579D02*
X10741491Y-25093627D01*
X10741491Y-25093627D02*
X10731968Y-25122198D01*
X10731968Y-25122198D02*
X10617682Y-25236484D01*
X10617682Y-25236484D02*
X10741491Y-25236484D01*
X10912920Y-25036484D02*
X10874825Y-25036484D01*
X10874825Y-25036484D02*
X10855777Y-25046008D01*
X10855777Y-25046008D02*
X10846253Y-25055531D01*
X10846253Y-25055531D02*
X10827206Y-25084103D01*
X10827206Y-25084103D02*
X10817682Y-25122198D01*
X10817682Y-25122198D02*
X10817682Y-25198388D01*
X10817682Y-25198388D02*
X10827206Y-25217436D01*
X10827206Y-25217436D02*
X10836729Y-25226960D01*
X10836729Y-25226960D02*
X10855777Y-25236484D01*
X10855777Y-25236484D02*
X10893872Y-25236484D01*
X10893872Y-25236484D02*
X10912920Y-25226960D01*
X10912920Y-25226960D02*
X10922444Y-25217436D01*
X10922444Y-25217436D02*
X10931968Y-25198388D01*
X10931968Y-25198388D02*
X10931968Y-25150769D01*
X10931968Y-25150769D02*
X10922444Y-25131722D01*
X10922444Y-25131722D02*
X10912920Y-25122198D01*
X10912920Y-25122198D02*
X10893872Y-25112674D01*
X10893872Y-25112674D02*
X10855777Y-25112674D01*
X10855777Y-25112674D02*
X10836729Y-25122198D01*
X10836729Y-25122198D02*
X10827206Y-25131722D01*
X10827206Y-25131722D02*
X10817682Y-25150769D01*
X11055777Y-25036484D02*
X11074825Y-25036484D01*
X11074825Y-25036484D02*
X11093872Y-25046008D01*
X11093872Y-25046008D02*
X11103396Y-25055531D01*
X11103396Y-25055531D02*
X11112920Y-25074579D01*
X11112920Y-25074579D02*
X11122444Y-25112674D01*
X11122444Y-25112674D02*
X11122444Y-25160293D01*
X11122444Y-25160293D02*
X11112920Y-25198388D01*
X11112920Y-25198388D02*
X11103396Y-25217436D01*
X11103396Y-25217436D02*
X11093872Y-25226960D01*
X11093872Y-25226960D02*
X11074825Y-25236484D01*
X11074825Y-25236484D02*
X11055777Y-25236484D01*
X11055777Y-25236484D02*
X11036729Y-25226960D01*
X11036729Y-25226960D02*
X11027206Y-25217436D01*
X11027206Y-25217436D02*
X11017682Y-25198388D01*
X11017682Y-25198388D02*
X11008158Y-25160293D01*
X11008158Y-25160293D02*
X11008158Y-25112674D01*
X11008158Y-25112674D02*
X11017682Y-25074579D01*
X11017682Y-25074579D02*
X11027206Y-25055531D01*
X11027206Y-25055531D02*
X11036729Y-25046008D01*
X11036729Y-25046008D02*
X11055777Y-25036484D01*
X11198634Y-25036484D02*
X11198634Y-25074579D01*
X11274825Y-25036484D02*
X11274825Y-25074579D01*
X11570063Y-25312674D02*
X11560539Y-25303150D01*
X11560539Y-25303150D02*
X11541491Y-25274579D01*
X11541491Y-25274579D02*
X11531968Y-25255531D01*
X11531968Y-25255531D02*
X11522444Y-25226960D01*
X11522444Y-25226960D02*
X11512920Y-25179341D01*
X11512920Y-25179341D02*
X11512920Y-25141246D01*
X11512920Y-25141246D02*
X11522444Y-25093627D01*
X11522444Y-25093627D02*
X11531968Y-25065055D01*
X11531968Y-25065055D02*
X11541491Y-25046008D01*
X11541491Y-25046008D02*
X11560539Y-25017436D01*
X11560539Y-25017436D02*
X11570063Y-25007912D01*
X11751015Y-25236484D02*
X11636729Y-25236484D01*
X11693872Y-25236484D02*
X11693872Y-25036484D01*
X11693872Y-25036484D02*
X11674825Y-25065055D01*
X11674825Y-25065055D02*
X11655777Y-25084103D01*
X11655777Y-25084103D02*
X11636729Y-25093627D01*
X11931968Y-25036484D02*
X11836729Y-25036484D01*
X11836729Y-25036484D02*
X11827206Y-25131722D01*
X11827206Y-25131722D02*
X11836729Y-25122198D01*
X11836729Y-25122198D02*
X11855777Y-25112674D01*
X11855777Y-25112674D02*
X11903396Y-25112674D01*
X11903396Y-25112674D02*
X11922444Y-25122198D01*
X11922444Y-25122198D02*
X11931968Y-25131722D01*
X11931968Y-25131722D02*
X11941491Y-25150769D01*
X11941491Y-25150769D02*
X11941491Y-25198388D01*
X11941491Y-25198388D02*
X11931968Y-25217436D01*
X11931968Y-25217436D02*
X11922444Y-25226960D01*
X11922444Y-25226960D02*
X11903396Y-25236484D01*
X11903396Y-25236484D02*
X11855777Y-25236484D01*
X11855777Y-25236484D02*
X11836729Y-25226960D01*
X11836729Y-25226960D02*
X11827206Y-25217436D01*
X12179587Y-25236484D02*
X12179587Y-25036484D01*
X12265301Y-25236484D02*
X12265301Y-25131722D01*
X12265301Y-25131722D02*
X12255777Y-25112674D01*
X12255777Y-25112674D02*
X12236730Y-25103150D01*
X12236730Y-25103150D02*
X12208158Y-25103150D01*
X12208158Y-25103150D02*
X12189110Y-25112674D01*
X12189110Y-25112674D02*
X12179587Y-25122198D01*
X12389110Y-25236484D02*
X12370063Y-25226960D01*
X12370063Y-25226960D02*
X12360539Y-25217436D01*
X12360539Y-25217436D02*
X12351015Y-25198388D01*
X12351015Y-25198388D02*
X12351015Y-25141246D01*
X12351015Y-25141246D02*
X12360539Y-25122198D01*
X12360539Y-25122198D02*
X12370063Y-25112674D01*
X12370063Y-25112674D02*
X12389110Y-25103150D01*
X12389110Y-25103150D02*
X12417682Y-25103150D01*
X12417682Y-25103150D02*
X12436730Y-25112674D01*
X12436730Y-25112674D02*
X12446253Y-25122198D01*
X12446253Y-25122198D02*
X12455777Y-25141246D01*
X12455777Y-25141246D02*
X12455777Y-25198388D01*
X12455777Y-25198388D02*
X12446253Y-25217436D01*
X12446253Y-25217436D02*
X12436730Y-25226960D01*
X12436730Y-25226960D02*
X12417682Y-25236484D01*
X12417682Y-25236484D02*
X12389110Y-25236484D01*
X12570063Y-25236484D02*
X12551015Y-25226960D01*
X12551015Y-25226960D02*
X12541491Y-25207912D01*
X12541491Y-25207912D02*
X12541491Y-25036484D01*
X12722444Y-25226960D02*
X12703396Y-25236484D01*
X12703396Y-25236484D02*
X12665301Y-25236484D01*
X12665301Y-25236484D02*
X12646253Y-25226960D01*
X12646253Y-25226960D02*
X12636730Y-25207912D01*
X12636730Y-25207912D02*
X12636730Y-25131722D01*
X12636730Y-25131722D02*
X12646253Y-25112674D01*
X12646253Y-25112674D02*
X12665301Y-25103150D01*
X12665301Y-25103150D02*
X12703396Y-25103150D01*
X12703396Y-25103150D02*
X12722444Y-25112674D01*
X12722444Y-25112674D02*
X12731968Y-25131722D01*
X12731968Y-25131722D02*
X12731968Y-25150769D01*
X12731968Y-25150769D02*
X12636730Y-25169817D01*
X12808158Y-25226960D02*
X12827206Y-25236484D01*
X12827206Y-25236484D02*
X12865301Y-25236484D01*
X12865301Y-25236484D02*
X12884349Y-25226960D01*
X12884349Y-25226960D02*
X12893872Y-25207912D01*
X12893872Y-25207912D02*
X12893872Y-25198388D01*
X12893872Y-25198388D02*
X12884349Y-25179341D01*
X12884349Y-25179341D02*
X12865301Y-25169817D01*
X12865301Y-25169817D02*
X12836730Y-25169817D01*
X12836730Y-25169817D02*
X12817682Y-25160293D01*
X12817682Y-25160293D02*
X12808158Y-25141246D01*
X12808158Y-25141246D02*
X12808158Y-25131722D01*
X12808158Y-25131722D02*
X12817682Y-25112674D01*
X12817682Y-25112674D02*
X12836730Y-25103150D01*
X12836730Y-25103150D02*
X12865301Y-25103150D01*
X12865301Y-25103150D02*
X12884349Y-25112674D01*
X12960539Y-25312674D02*
X12970063Y-25303150D01*
X12970063Y-25303150D02*
X12989111Y-25274579D01*
X12989111Y-25274579D02*
X12998634Y-25255531D01*
X12998634Y-25255531D02*
X13008158Y-25226960D01*
X13008158Y-25226960D02*
X13017682Y-25179341D01*
X13017682Y-25179341D02*
X13017682Y-25141246D01*
X13017682Y-25141246D02*
X13008158Y-25093627D01*
X13008158Y-25093627D02*
X12998634Y-25065055D01*
X12998634Y-25065055D02*
X12989111Y-25046008D01*
X12989111Y-25046008D02*
X12970063Y-25017436D01*
X12970063Y-25017436D02*
X12960539Y-25007912D01*
X13322444Y-25312674D02*
X13312920Y-25303150D01*
X13312920Y-25303150D02*
X13293872Y-25274579D01*
X13293872Y-25274579D02*
X13284349Y-25255531D01*
X13284349Y-25255531D02*
X13274825Y-25226960D01*
X13274825Y-25226960D02*
X13265301Y-25179341D01*
X13265301Y-25179341D02*
X13265301Y-25141246D01*
X13265301Y-25141246D02*
X13274825Y-25093627D01*
X13274825Y-25093627D02*
X13284349Y-25065055D01*
X13284349Y-25065055D02*
X13293872Y-25046008D01*
X13293872Y-25046008D02*
X13312920Y-25017436D01*
X13312920Y-25017436D02*
X13322444Y-25007912D01*
X13398634Y-25103150D02*
X13398634Y-25236484D01*
X13398634Y-25122198D02*
X13408158Y-25112674D01*
X13408158Y-25112674D02*
X13427206Y-25103150D01*
X13427206Y-25103150D02*
X13455777Y-25103150D01*
X13455777Y-25103150D02*
X13474825Y-25112674D01*
X13474825Y-25112674D02*
X13484349Y-25131722D01*
X13484349Y-25131722D02*
X13484349Y-25236484D01*
X13608158Y-25236484D02*
X13589111Y-25226960D01*
X13589111Y-25226960D02*
X13579587Y-25217436D01*
X13579587Y-25217436D02*
X13570063Y-25198388D01*
X13570063Y-25198388D02*
X13570063Y-25141246D01*
X13570063Y-25141246D02*
X13579587Y-25122198D01*
X13579587Y-25122198D02*
X13589111Y-25112674D01*
X13589111Y-25112674D02*
X13608158Y-25103150D01*
X13608158Y-25103150D02*
X13636730Y-25103150D01*
X13636730Y-25103150D02*
X13655777Y-25112674D01*
X13655777Y-25112674D02*
X13665301Y-25122198D01*
X13665301Y-25122198D02*
X13674825Y-25141246D01*
X13674825Y-25141246D02*
X13674825Y-25198388D01*
X13674825Y-25198388D02*
X13665301Y-25217436D01*
X13665301Y-25217436D02*
X13655777Y-25226960D01*
X13655777Y-25226960D02*
X13636730Y-25236484D01*
X13636730Y-25236484D02*
X13608158Y-25236484D01*
X13731968Y-25103150D02*
X13808158Y-25103150D01*
X13760539Y-25036484D02*
X13760539Y-25207912D01*
X13760539Y-25207912D02*
X13770063Y-25226960D01*
X13770063Y-25226960D02*
X13789111Y-25236484D01*
X13789111Y-25236484D02*
X13808158Y-25236484D01*
X14027206Y-25103150D02*
X14027206Y-25303150D01*
X14027206Y-25112674D02*
X14046253Y-25103150D01*
X14046253Y-25103150D02*
X14084349Y-25103150D01*
X14084349Y-25103150D02*
X14103396Y-25112674D01*
X14103396Y-25112674D02*
X14112920Y-25122198D01*
X14112920Y-25122198D02*
X14122444Y-25141246D01*
X14122444Y-25141246D02*
X14122444Y-25198388D01*
X14122444Y-25198388D02*
X14112920Y-25217436D01*
X14112920Y-25217436D02*
X14103396Y-25226960D01*
X14103396Y-25226960D02*
X14084349Y-25236484D01*
X14084349Y-25236484D02*
X14046253Y-25236484D01*
X14046253Y-25236484D02*
X14027206Y-25226960D01*
X14236730Y-25236484D02*
X14217682Y-25226960D01*
X14217682Y-25226960D02*
X14208158Y-25207912D01*
X14208158Y-25207912D02*
X14208158Y-25036484D01*
X14398634Y-25236484D02*
X14398634Y-25131722D01*
X14398634Y-25131722D02*
X14389111Y-25112674D01*
X14389111Y-25112674D02*
X14370063Y-25103150D01*
X14370063Y-25103150D02*
X14331968Y-25103150D01*
X14331968Y-25103150D02*
X14312920Y-25112674D01*
X14398634Y-25226960D02*
X14379587Y-25236484D01*
X14379587Y-25236484D02*
X14331968Y-25236484D01*
X14331968Y-25236484D02*
X14312920Y-25226960D01*
X14312920Y-25226960D02*
X14303396Y-25207912D01*
X14303396Y-25207912D02*
X14303396Y-25188865D01*
X14303396Y-25188865D02*
X14312920Y-25169817D01*
X14312920Y-25169817D02*
X14331968Y-25160293D01*
X14331968Y-25160293D02*
X14379587Y-25160293D01*
X14379587Y-25160293D02*
X14398634Y-25150769D01*
X14465301Y-25103150D02*
X14541492Y-25103150D01*
X14493873Y-25036484D02*
X14493873Y-25207912D01*
X14493873Y-25207912D02*
X14503396Y-25226960D01*
X14503396Y-25226960D02*
X14522444Y-25236484D01*
X14522444Y-25236484D02*
X14541492Y-25236484D01*
X14684349Y-25226960D02*
X14665301Y-25236484D01*
X14665301Y-25236484D02*
X14627206Y-25236484D01*
X14627206Y-25236484D02*
X14608158Y-25226960D01*
X14608158Y-25226960D02*
X14598634Y-25207912D01*
X14598634Y-25207912D02*
X14598634Y-25131722D01*
X14598634Y-25131722D02*
X14608158Y-25112674D01*
X14608158Y-25112674D02*
X14627206Y-25103150D01*
X14627206Y-25103150D02*
X14665301Y-25103150D01*
X14665301Y-25103150D02*
X14684349Y-25112674D01*
X14684349Y-25112674D02*
X14693873Y-25131722D01*
X14693873Y-25131722D02*
X14693873Y-25150769D01*
X14693873Y-25150769D02*
X14598634Y-25169817D01*
X14865301Y-25236484D02*
X14865301Y-25036484D01*
X14865301Y-25226960D02*
X14846254Y-25236484D01*
X14846254Y-25236484D02*
X14808158Y-25236484D01*
X14808158Y-25236484D02*
X14789111Y-25226960D01*
X14789111Y-25226960D02*
X14779587Y-25217436D01*
X14779587Y-25217436D02*
X14770063Y-25198388D01*
X14770063Y-25198388D02*
X14770063Y-25141246D01*
X14770063Y-25141246D02*
X14779587Y-25122198D01*
X14779587Y-25122198D02*
X14789111Y-25112674D01*
X14789111Y-25112674D02*
X14808158Y-25103150D01*
X14808158Y-25103150D02*
X14846254Y-25103150D01*
X14846254Y-25103150D02*
X14865301Y-25112674D01*
X14941492Y-25312674D02*
X14951015Y-25303150D01*
X14951015Y-25303150D02*
X14970063Y-25274579D01*
X14970063Y-25274579D02*
X14979587Y-25255531D01*
X14979587Y-25255531D02*
X14989111Y-25226960D01*
X14989111Y-25226960D02*
X14998634Y-25179341D01*
X14998634Y-25179341D02*
X14998634Y-25141246D01*
X14998634Y-25141246D02*
X14989111Y-25093627D01*
X14989111Y-25093627D02*
X14979587Y-25065055D01*
X14979587Y-25065055D02*
X14970063Y-25046008D01*
X14970063Y-25046008D02*
X14951015Y-25017436D01*
X14951015Y-25017436D02*
X14941492Y-25007912D01*
M02*
