%TF.GenerationSoftware,KiCad,Pcbnew,7.0.5*%
%TF.CreationDate,2023-09-10T17:58:02+02:00*%
%TF.ProjectId,CMD_Board_cover,434d445f-426f-4617-9264-5f636f766572,rev?*%
%TF.SameCoordinates,Original*%
%TF.FileFunction,Profile,NP*%
%FSLAX46Y46*%
G04 Gerber Fmt 4.6, Leading zero omitted, Abs format (unit mm)*
G04 Created by KiCad (PCBNEW 7.0.5) date 2023-09-10 17:58:02*
%MOMM*%
%LPD*%
G01*
G04 APERTURE LIST*
%TA.AperFunction,Profile*%
%ADD10C,0.100000*%
%TD*%
G04 APERTURE END LIST*
D10*
X235000000Y-34000000D02*
X255000000Y-34000000D01*
X255000000Y-54000000D01*
X235000000Y-54000000D01*
X235000000Y-34000000D01*
X95000000Y-124000000D02*
X115000000Y-124000000D01*
X115000000Y-144000000D01*
X95000000Y-144000000D01*
X95000000Y-124000000D01*
X245000000Y-184000000D02*
X245000000Y-204000000D01*
X285000000Y-94000000D02*
X285000000Y-34000000D01*
X165000000Y-224000000D02*
X145000000Y-224000000D01*
X165000000Y-204000000D02*
X165000000Y-224000000D01*
X305000000Y-204000000D02*
X305000000Y-184000000D01*
X285000000Y-184000000D02*
X285000000Y-164000000D01*
X285000000Y-204000000D02*
X305000000Y-204000000D01*
X330000000Y-64000000D02*
X350000000Y-64000000D01*
X350000000Y-84000000D01*
X330000000Y-84000000D01*
X330000000Y-64000000D01*
X285000000Y-224000000D02*
X285000000Y-204000000D01*
X265000000Y-224000000D02*
X285000000Y-224000000D01*
X185000000Y-224000000D02*
X185000000Y-204000000D01*
X185000000Y-204000000D02*
X165000000Y-204000000D01*
X245000000Y-204000000D02*
X265000000Y-204000000D01*
X235000000Y-64000000D02*
X255000000Y-64000000D01*
X255000000Y-84000000D01*
X235000000Y-84000000D01*
X235000000Y-64000000D01*
X95000000Y-149000000D02*
X115000000Y-149000000D01*
X115000000Y-169000000D01*
X95000000Y-169000000D01*
X95000000Y-149000000D01*
X95000000Y-174000000D02*
X115000000Y-174000000D01*
X115000000Y-194000000D01*
X95000000Y-194000000D01*
X95000000Y-174000000D01*
X235000000Y-124000000D02*
X255000000Y-124000000D01*
X255000000Y-144000000D01*
X235000000Y-144000000D01*
X235000000Y-124000000D01*
X235000000Y-94000000D02*
X255000000Y-94000000D01*
X255000000Y-114000000D01*
X235000000Y-114000000D01*
X235000000Y-94000000D01*
X305000000Y-114000000D02*
X305000000Y-94000000D01*
X145000000Y-124000000D02*
X225000000Y-124000000D01*
X145000000Y-224000000D02*
X145000000Y-124000000D01*
X120000000Y-149000000D02*
X140000000Y-149000000D01*
X140000000Y-169000000D01*
X120000000Y-169000000D01*
X120000000Y-149000000D01*
X80000000Y-24000000D02*
X360000000Y-24000000D01*
X360000000Y-245000000D01*
X80000000Y-245000000D01*
X80000000Y-24000000D01*
X285000000Y-34000000D02*
X265000000Y-34000000D01*
X305000000Y-94000000D02*
X285000000Y-94000000D01*
X225000000Y-224000000D02*
X185000000Y-224000000D01*
X265000000Y-204000000D02*
X265000000Y-224000000D01*
X265000000Y-114000000D02*
X305000000Y-114000000D01*
X120000000Y-124000000D02*
X140000000Y-124000000D01*
X140000000Y-144000000D01*
X120000000Y-144000000D01*
X120000000Y-124000000D01*
X305000000Y-184000000D02*
X285000000Y-184000000D01*
X95000000Y-204000000D02*
X115000000Y-204000000D01*
X115000000Y-224000000D01*
X95000000Y-224000000D01*
X95000000Y-204000000D01*
X265000000Y-124000000D02*
X305000000Y-124000000D01*
X305000000Y-144000000D01*
X265000000Y-144000000D01*
X265000000Y-124000000D01*
X225000000Y-124000000D02*
X225000000Y-224000000D01*
X165000000Y-34000000D02*
X225000000Y-34000000D01*
X225000000Y-114000000D01*
X165000000Y-114000000D01*
X165000000Y-34000000D01*
X265000000Y-34000000D02*
X265000000Y-114000000D01*
X265000000Y-184000000D02*
X245000000Y-184000000D01*
X290000000Y-34000000D02*
X350000000Y-34000000D01*
X350000000Y-54000000D01*
X290000000Y-54000000D01*
X290000000Y-34000000D01*
X120000000Y-174000000D02*
X140000000Y-174000000D01*
X140000000Y-194000000D01*
X120000000Y-194000000D01*
X120000000Y-174000000D01*
X95000000Y-34000000D02*
X155000000Y-34000000D01*
X155000000Y-114000000D01*
X95000000Y-114000000D01*
X95000000Y-34000000D01*
X265000000Y-164000000D02*
X265000000Y-184000000D01*
X285000000Y-164000000D02*
X265000000Y-164000000D01*
X339000000Y-104000000D02*
X341000000Y-104000000D01*
X341000000Y-183000000D01*
X339000000Y-183000000D01*
X339000000Y-104000000D01*
M02*
