%TF.GenerationSoftware,KiCad,Pcbnew,7.0.5*%
%TF.CreationDate,2023-09-10T17:58:02+02:00*%
%TF.ProjectId,CMD_Board_cover,434d445f-426f-4617-9264-5f636f766572,rev?*%
%TF.SameCoordinates,Original*%
%TF.FileFunction,Copper,L1,Top*%
%TF.FilePolarity,Positive*%
%FSLAX46Y46*%
G04 Gerber Fmt 4.6, Leading zero omitted, Abs format (unit mm)*
G04 Created by KiCad (PCBNEW 7.0.5) date 2023-09-10 17:58:02*
%MOMM*%
%LPD*%
G01*
G04 APERTURE LIST*
G04 APERTURE END LIST*
%TA.AperFunction,NonConductor*%
G36*
X359942539Y-24020185D02*
G01*
X359988294Y-24072989D01*
X359999500Y-24124500D01*
X359999500Y-244873000D01*
X359979815Y-244940039D01*
X359927011Y-244985794D01*
X359875500Y-244997000D01*
X80145000Y-244997000D01*
X80077961Y-244977315D01*
X80032206Y-244924511D01*
X80021000Y-244873000D01*
X80021000Y-239067763D01*
X83145787Y-239067763D01*
X83175413Y-239337013D01*
X83175415Y-239337024D01*
X83243926Y-239599082D01*
X83243928Y-239599088D01*
X83349870Y-239848390D01*
X83421998Y-239966575D01*
X83490979Y-240079605D01*
X83490986Y-240079615D01*
X83664253Y-240287819D01*
X83664259Y-240287824D01*
X83865998Y-240468582D01*
X84091910Y-240618044D01*
X84337176Y-240733020D01*
X84337183Y-240733022D01*
X84337185Y-240733023D01*
X84596557Y-240811057D01*
X84596564Y-240811058D01*
X84596569Y-240811060D01*
X84864561Y-240850500D01*
X84864566Y-240850500D01*
X85067629Y-240850500D01*
X85067631Y-240850500D01*
X85067636Y-240850499D01*
X85067648Y-240850499D01*
X85105191Y-240847750D01*
X85270156Y-240835677D01*
X85382758Y-240810593D01*
X85534546Y-240776782D01*
X85534548Y-240776781D01*
X85534553Y-240776780D01*
X85787558Y-240680014D01*
X86023777Y-240547441D01*
X86238177Y-240381888D01*
X86426186Y-240186881D01*
X86583799Y-239966579D01*
X86657787Y-239822669D01*
X86707649Y-239725690D01*
X86707651Y-239725684D01*
X86707656Y-239725675D01*
X86795118Y-239469305D01*
X86844319Y-239202933D01*
X86849259Y-239067763D01*
X228145787Y-239067763D01*
X228175413Y-239337013D01*
X228175415Y-239337024D01*
X228243926Y-239599082D01*
X228243928Y-239599088D01*
X228349870Y-239848390D01*
X228421998Y-239966575D01*
X228490979Y-240079605D01*
X228490986Y-240079615D01*
X228664253Y-240287819D01*
X228664259Y-240287824D01*
X228865998Y-240468582D01*
X229091910Y-240618044D01*
X229337176Y-240733020D01*
X229337183Y-240733022D01*
X229337185Y-240733023D01*
X229596557Y-240811057D01*
X229596564Y-240811058D01*
X229596569Y-240811060D01*
X229864561Y-240850500D01*
X229864566Y-240850500D01*
X230067629Y-240850500D01*
X230067631Y-240850500D01*
X230067636Y-240850499D01*
X230067648Y-240850499D01*
X230105191Y-240847750D01*
X230270156Y-240835677D01*
X230382758Y-240810593D01*
X230534546Y-240776782D01*
X230534548Y-240776781D01*
X230534553Y-240776780D01*
X230787558Y-240680014D01*
X231023777Y-240547441D01*
X231238177Y-240381888D01*
X231426186Y-240186881D01*
X231583799Y-239966579D01*
X231657787Y-239822669D01*
X231707649Y-239725690D01*
X231707651Y-239725684D01*
X231707656Y-239725675D01*
X231795118Y-239469305D01*
X231844319Y-239202933D01*
X231849259Y-239067763D01*
X353145787Y-239067763D01*
X353175413Y-239337013D01*
X353175415Y-239337024D01*
X353243926Y-239599082D01*
X353243928Y-239599088D01*
X353349870Y-239848390D01*
X353421998Y-239966575D01*
X353490979Y-240079605D01*
X353490986Y-240079615D01*
X353664253Y-240287819D01*
X353664259Y-240287824D01*
X353865998Y-240468582D01*
X354091910Y-240618044D01*
X354337176Y-240733020D01*
X354337183Y-240733022D01*
X354337185Y-240733023D01*
X354596557Y-240811057D01*
X354596564Y-240811058D01*
X354596569Y-240811060D01*
X354864561Y-240850500D01*
X354864566Y-240850500D01*
X355067629Y-240850500D01*
X355067631Y-240850500D01*
X355067636Y-240850499D01*
X355067648Y-240850499D01*
X355105191Y-240847750D01*
X355270156Y-240835677D01*
X355382758Y-240810593D01*
X355534546Y-240776782D01*
X355534548Y-240776781D01*
X355534553Y-240776780D01*
X355787558Y-240680014D01*
X356023777Y-240547441D01*
X356238177Y-240381888D01*
X356426186Y-240186881D01*
X356583799Y-239966579D01*
X356657787Y-239822669D01*
X356707649Y-239725690D01*
X356707651Y-239725684D01*
X356707656Y-239725675D01*
X356795118Y-239469305D01*
X356844319Y-239202933D01*
X356854212Y-238932235D01*
X356824586Y-238662982D01*
X356756072Y-238400912D01*
X356650130Y-238151610D01*
X356509018Y-237920390D01*
X356419747Y-237813119D01*
X356335746Y-237712180D01*
X356335740Y-237712175D01*
X356134002Y-237531418D01*
X355908092Y-237381957D01*
X355908090Y-237381956D01*
X355662824Y-237266980D01*
X355662819Y-237266978D01*
X355662814Y-237266976D01*
X355403442Y-237188942D01*
X355403428Y-237188939D01*
X355287791Y-237171921D01*
X355135439Y-237149500D01*
X354932369Y-237149500D01*
X354932351Y-237149500D01*
X354729844Y-237164323D01*
X354729831Y-237164325D01*
X354465453Y-237223217D01*
X354465446Y-237223220D01*
X354212439Y-237319987D01*
X353976226Y-237452557D01*
X353761822Y-237618112D01*
X353573822Y-237813109D01*
X353573816Y-237813116D01*
X353416202Y-238033419D01*
X353416199Y-238033424D01*
X353292350Y-238274309D01*
X353292343Y-238274327D01*
X353204884Y-238530685D01*
X353204881Y-238530699D01*
X353155681Y-238797068D01*
X353155680Y-238797075D01*
X353145787Y-239067763D01*
X231849259Y-239067763D01*
X231854212Y-238932235D01*
X231824586Y-238662982D01*
X231756072Y-238400912D01*
X231650130Y-238151610D01*
X231509018Y-237920390D01*
X231419747Y-237813119D01*
X231335746Y-237712180D01*
X231335740Y-237712175D01*
X231134002Y-237531418D01*
X230908092Y-237381957D01*
X230908090Y-237381956D01*
X230662824Y-237266980D01*
X230662819Y-237266978D01*
X230662814Y-237266976D01*
X230403442Y-237188942D01*
X230403428Y-237188939D01*
X230287791Y-237171921D01*
X230135439Y-237149500D01*
X229932369Y-237149500D01*
X229932351Y-237149500D01*
X229729844Y-237164323D01*
X229729831Y-237164325D01*
X229465453Y-237223217D01*
X229465446Y-237223220D01*
X229212439Y-237319987D01*
X228976226Y-237452557D01*
X228761822Y-237618112D01*
X228573822Y-237813109D01*
X228573816Y-237813116D01*
X228416202Y-238033419D01*
X228416199Y-238033424D01*
X228292350Y-238274309D01*
X228292343Y-238274327D01*
X228204884Y-238530685D01*
X228204881Y-238530699D01*
X228155681Y-238797068D01*
X228155680Y-238797075D01*
X228145787Y-239067763D01*
X86849259Y-239067763D01*
X86854212Y-238932235D01*
X86824586Y-238662982D01*
X86756072Y-238400912D01*
X86650130Y-238151610D01*
X86509018Y-237920390D01*
X86419747Y-237813119D01*
X86335746Y-237712180D01*
X86335740Y-237712175D01*
X86134002Y-237531418D01*
X85908092Y-237381957D01*
X85908090Y-237381956D01*
X85662824Y-237266980D01*
X85662819Y-237266978D01*
X85662814Y-237266976D01*
X85403442Y-237188942D01*
X85403428Y-237188939D01*
X85287791Y-237171921D01*
X85135439Y-237149500D01*
X84932369Y-237149500D01*
X84932351Y-237149500D01*
X84729844Y-237164323D01*
X84729831Y-237164325D01*
X84465453Y-237223217D01*
X84465446Y-237223220D01*
X84212439Y-237319987D01*
X83976226Y-237452557D01*
X83761822Y-237618112D01*
X83573822Y-237813109D01*
X83573816Y-237813116D01*
X83416202Y-238033419D01*
X83416199Y-238033424D01*
X83292350Y-238274309D01*
X83292343Y-238274327D01*
X83204884Y-238530685D01*
X83204881Y-238530699D01*
X83155681Y-238797068D01*
X83155680Y-238797075D01*
X83145787Y-239067763D01*
X80021000Y-239067763D01*
X80021000Y-223975889D01*
X94999416Y-223975889D01*
X94999459Y-224000001D01*
X94999544Y-224000206D01*
X94999616Y-224000382D01*
X94999618Y-224000384D01*
X94999808Y-224000462D01*
X95000000Y-224000541D01*
X95000002Y-224000539D01*
X95024616Y-224000524D01*
X95024616Y-224000528D01*
X95024760Y-224000500D01*
X114975240Y-224000500D01*
X114975383Y-224000528D01*
X114975384Y-224000524D01*
X114999997Y-224000539D01*
X115000000Y-224000541D01*
X115000383Y-224000383D01*
X115000500Y-224000099D01*
X115000541Y-224000000D01*
X115000540Y-223999997D01*
X115000583Y-223975889D01*
X144999416Y-223975889D01*
X144999459Y-224000001D01*
X144999544Y-224000206D01*
X144999616Y-224000382D01*
X144999618Y-224000384D01*
X144999808Y-224000462D01*
X145000000Y-224000541D01*
X145000002Y-224000539D01*
X145024616Y-224000524D01*
X145024616Y-224000528D01*
X145024760Y-224000500D01*
X164975240Y-224000500D01*
X164975383Y-224000528D01*
X164975384Y-224000524D01*
X164999997Y-224000539D01*
X165000000Y-224000541D01*
X165000383Y-224000383D01*
X165000500Y-224000099D01*
X165000541Y-224000000D01*
X165000540Y-223999997D01*
X165000583Y-223975889D01*
X165000500Y-223975467D01*
X165000500Y-204124500D01*
X165020185Y-204057461D01*
X165072989Y-204011706D01*
X165124500Y-204000500D01*
X184875500Y-204000500D01*
X184942539Y-204020185D01*
X184988294Y-204072989D01*
X184999500Y-204124500D01*
X184999500Y-223975467D01*
X184999416Y-223975889D01*
X184999459Y-224000001D01*
X184999544Y-224000206D01*
X184999616Y-224000382D01*
X184999618Y-224000384D01*
X184999808Y-224000462D01*
X185000000Y-224000541D01*
X185000002Y-224000539D01*
X185024616Y-224000524D01*
X185024616Y-224000528D01*
X185024760Y-224000500D01*
X224975240Y-224000500D01*
X224975383Y-224000528D01*
X224975384Y-224000524D01*
X224999997Y-224000539D01*
X225000000Y-224000541D01*
X225000383Y-224000383D01*
X225000500Y-224000099D01*
X225000541Y-224000000D01*
X225000540Y-223999997D01*
X225000583Y-223975889D01*
X225000500Y-223975467D01*
X225000500Y-214067763D01*
X228145787Y-214067763D01*
X228175413Y-214337013D01*
X228175415Y-214337024D01*
X228243926Y-214599082D01*
X228243928Y-214599088D01*
X228349870Y-214848390D01*
X228421998Y-214966575D01*
X228490979Y-215079605D01*
X228490986Y-215079615D01*
X228664253Y-215287819D01*
X228664259Y-215287824D01*
X228865998Y-215468582D01*
X229091910Y-215618044D01*
X229337176Y-215733020D01*
X229337183Y-215733022D01*
X229337185Y-215733023D01*
X229596557Y-215811057D01*
X229596564Y-215811058D01*
X229596569Y-215811060D01*
X229864561Y-215850500D01*
X229864566Y-215850500D01*
X230067629Y-215850500D01*
X230067631Y-215850500D01*
X230067636Y-215850499D01*
X230067648Y-215850499D01*
X230105191Y-215847750D01*
X230270156Y-215835677D01*
X230382758Y-215810593D01*
X230534546Y-215776782D01*
X230534548Y-215776781D01*
X230534553Y-215776780D01*
X230787558Y-215680014D01*
X231023777Y-215547441D01*
X231238177Y-215381888D01*
X231426186Y-215186881D01*
X231583799Y-214966579D01*
X231657787Y-214822669D01*
X231707649Y-214725690D01*
X231707651Y-214725684D01*
X231707656Y-214725675D01*
X231795118Y-214469305D01*
X231844319Y-214202933D01*
X231854212Y-213932235D01*
X231824586Y-213662982D01*
X231756072Y-213400912D01*
X231650130Y-213151610D01*
X231509018Y-212920390D01*
X231419747Y-212813119D01*
X231335746Y-212712180D01*
X231335740Y-212712175D01*
X231134002Y-212531418D01*
X230908092Y-212381957D01*
X230908090Y-212381956D01*
X230662824Y-212266980D01*
X230662819Y-212266978D01*
X230662814Y-212266976D01*
X230403442Y-212188942D01*
X230403428Y-212188939D01*
X230287791Y-212171921D01*
X230135439Y-212149500D01*
X229932369Y-212149500D01*
X229932351Y-212149500D01*
X229729844Y-212164323D01*
X229729831Y-212164325D01*
X229465453Y-212223217D01*
X229465446Y-212223220D01*
X229212439Y-212319987D01*
X228976226Y-212452557D01*
X228761822Y-212618112D01*
X228573822Y-212813109D01*
X228573816Y-212813116D01*
X228416202Y-213033419D01*
X228416199Y-213033424D01*
X228292350Y-213274309D01*
X228292343Y-213274327D01*
X228204884Y-213530685D01*
X228204881Y-213530699D01*
X228155681Y-213797068D01*
X228155680Y-213797075D01*
X228145787Y-214067763D01*
X225000500Y-214067763D01*
X225000500Y-203975889D01*
X244999416Y-203975889D01*
X244999459Y-204000001D01*
X244999544Y-204000206D01*
X244999616Y-204000382D01*
X244999618Y-204000384D01*
X244999808Y-204000462D01*
X245000000Y-204000541D01*
X245000002Y-204000539D01*
X245024616Y-204000524D01*
X245024616Y-204000528D01*
X245024760Y-204000500D01*
X264875500Y-204000500D01*
X264942539Y-204020185D01*
X264988294Y-204072989D01*
X264999500Y-204124500D01*
X264999500Y-223975467D01*
X264999416Y-223975889D01*
X264999459Y-224000001D01*
X264999544Y-224000206D01*
X264999616Y-224000382D01*
X264999618Y-224000384D01*
X264999808Y-224000462D01*
X265000000Y-224000541D01*
X265000002Y-224000539D01*
X265024616Y-224000524D01*
X265024616Y-224000528D01*
X265024760Y-224000500D01*
X284975240Y-224000500D01*
X284975383Y-224000528D01*
X284975384Y-224000524D01*
X284999997Y-224000539D01*
X285000000Y-224000541D01*
X285000383Y-224000383D01*
X285000500Y-224000099D01*
X285000541Y-224000000D01*
X285000540Y-223999997D01*
X285000583Y-223975889D01*
X285000500Y-223975467D01*
X285000500Y-214067763D01*
X353145787Y-214067763D01*
X353175413Y-214337013D01*
X353175415Y-214337024D01*
X353243926Y-214599082D01*
X353243928Y-214599088D01*
X353349870Y-214848390D01*
X353421998Y-214966575D01*
X353490979Y-215079605D01*
X353490986Y-215079615D01*
X353664253Y-215287819D01*
X353664259Y-215287824D01*
X353865998Y-215468582D01*
X354091910Y-215618044D01*
X354337176Y-215733020D01*
X354337183Y-215733022D01*
X354337185Y-215733023D01*
X354596557Y-215811057D01*
X354596564Y-215811058D01*
X354596569Y-215811060D01*
X354864561Y-215850500D01*
X354864566Y-215850500D01*
X355067629Y-215850500D01*
X355067631Y-215850500D01*
X355067636Y-215850499D01*
X355067648Y-215850499D01*
X355105191Y-215847750D01*
X355270156Y-215835677D01*
X355382758Y-215810593D01*
X355534546Y-215776782D01*
X355534548Y-215776781D01*
X355534553Y-215776780D01*
X355787558Y-215680014D01*
X356023777Y-215547441D01*
X356238177Y-215381888D01*
X356426186Y-215186881D01*
X356583799Y-214966579D01*
X356657787Y-214822669D01*
X356707649Y-214725690D01*
X356707651Y-214725684D01*
X356707656Y-214725675D01*
X356795118Y-214469305D01*
X356844319Y-214202933D01*
X356854212Y-213932235D01*
X356824586Y-213662982D01*
X356756072Y-213400912D01*
X356650130Y-213151610D01*
X356509018Y-212920390D01*
X356419747Y-212813119D01*
X356335746Y-212712180D01*
X356335740Y-212712175D01*
X356134002Y-212531418D01*
X355908092Y-212381957D01*
X355908090Y-212381956D01*
X355662824Y-212266980D01*
X355662819Y-212266978D01*
X355662814Y-212266976D01*
X355403442Y-212188942D01*
X355403428Y-212188939D01*
X355287791Y-212171921D01*
X355135439Y-212149500D01*
X354932369Y-212149500D01*
X354932351Y-212149500D01*
X354729844Y-212164323D01*
X354729831Y-212164325D01*
X354465453Y-212223217D01*
X354465446Y-212223220D01*
X354212439Y-212319987D01*
X353976226Y-212452557D01*
X353761822Y-212618112D01*
X353573822Y-212813109D01*
X353573816Y-212813116D01*
X353416202Y-213033419D01*
X353416199Y-213033424D01*
X353292350Y-213274309D01*
X353292343Y-213274327D01*
X353204884Y-213530685D01*
X353204881Y-213530699D01*
X353155681Y-213797068D01*
X353155680Y-213797075D01*
X353145787Y-214067763D01*
X285000500Y-214067763D01*
X285000500Y-204124500D01*
X285020185Y-204057461D01*
X285072989Y-204011706D01*
X285124500Y-204000500D01*
X304975240Y-204000500D01*
X304975383Y-204000528D01*
X304975384Y-204000524D01*
X304999997Y-204000539D01*
X305000000Y-204000541D01*
X305000383Y-204000383D01*
X305000500Y-204000099D01*
X305000541Y-204000000D01*
X305000540Y-203999997D01*
X305000583Y-203975889D01*
X305000500Y-203975467D01*
X305000500Y-184024759D01*
X305000528Y-184024616D01*
X305000524Y-184024616D01*
X305000539Y-184000002D01*
X305000541Y-184000000D01*
X305000462Y-183999808D01*
X305000384Y-183999618D01*
X305000383Y-183999617D01*
X305000381Y-183999616D01*
X305000090Y-183999496D01*
X305000001Y-183999459D01*
X304975446Y-183999459D01*
X304975240Y-183999500D01*
X285124500Y-183999500D01*
X285057461Y-183979815D01*
X285011706Y-183927011D01*
X285000500Y-183875500D01*
X285000500Y-182975889D01*
X338999416Y-182975889D01*
X338999459Y-183000001D01*
X338999544Y-183000206D01*
X338999616Y-183000382D01*
X338999618Y-183000384D01*
X338999808Y-183000462D01*
X339000000Y-183000541D01*
X339000002Y-183000539D01*
X339024616Y-183000524D01*
X339024616Y-183000528D01*
X339024760Y-183000500D01*
X340975240Y-183000500D01*
X340975383Y-183000528D01*
X340975384Y-183000524D01*
X340999997Y-183000539D01*
X341000000Y-183000541D01*
X341000383Y-183000383D01*
X341000500Y-183000099D01*
X341000541Y-183000000D01*
X341000540Y-182999997D01*
X341000583Y-182975889D01*
X341000500Y-182975467D01*
X341000500Y-159067763D01*
X353145787Y-159067763D01*
X353175413Y-159337013D01*
X353175415Y-159337024D01*
X353243926Y-159599082D01*
X353243928Y-159599088D01*
X353349870Y-159848390D01*
X353421998Y-159966575D01*
X353490979Y-160079605D01*
X353490986Y-160079615D01*
X353664253Y-160287819D01*
X353664259Y-160287824D01*
X353865998Y-160468582D01*
X354091910Y-160618044D01*
X354337176Y-160733020D01*
X354337183Y-160733022D01*
X354337185Y-160733023D01*
X354596557Y-160811057D01*
X354596564Y-160811058D01*
X354596569Y-160811060D01*
X354864561Y-160850500D01*
X354864566Y-160850500D01*
X355067629Y-160850500D01*
X355067631Y-160850500D01*
X355067636Y-160850499D01*
X355067648Y-160850499D01*
X355105191Y-160847750D01*
X355270156Y-160835677D01*
X355382758Y-160810593D01*
X355534546Y-160776782D01*
X355534548Y-160776781D01*
X355534553Y-160776780D01*
X355787558Y-160680014D01*
X356023777Y-160547441D01*
X356238177Y-160381888D01*
X356426186Y-160186881D01*
X356583799Y-159966579D01*
X356657787Y-159822669D01*
X356707649Y-159725690D01*
X356707651Y-159725684D01*
X356707656Y-159725675D01*
X356795118Y-159469305D01*
X356844319Y-159202933D01*
X356854212Y-158932235D01*
X356824586Y-158662982D01*
X356756072Y-158400912D01*
X356650130Y-158151610D01*
X356509018Y-157920390D01*
X356419747Y-157813119D01*
X356335746Y-157712180D01*
X356335740Y-157712175D01*
X356134002Y-157531418D01*
X355908092Y-157381957D01*
X355908090Y-157381956D01*
X355662824Y-157266980D01*
X355662819Y-157266978D01*
X355662814Y-157266976D01*
X355403442Y-157188942D01*
X355403428Y-157188939D01*
X355287791Y-157171921D01*
X355135439Y-157149500D01*
X354932369Y-157149500D01*
X354932351Y-157149500D01*
X354729844Y-157164323D01*
X354729831Y-157164325D01*
X354465453Y-157223217D01*
X354465446Y-157223220D01*
X354212439Y-157319987D01*
X353976226Y-157452557D01*
X353761822Y-157618112D01*
X353573822Y-157813109D01*
X353573816Y-157813116D01*
X353416202Y-158033419D01*
X353416199Y-158033424D01*
X353292350Y-158274309D01*
X353292343Y-158274327D01*
X353204884Y-158530685D01*
X353204881Y-158530699D01*
X353155681Y-158797068D01*
X353155680Y-158797075D01*
X353145787Y-159067763D01*
X341000500Y-159067763D01*
X341000500Y-104024759D01*
X341000528Y-104024616D01*
X341000524Y-104024616D01*
X341000539Y-104000002D01*
X341000541Y-104000000D01*
X341000462Y-103999808D01*
X341000384Y-103999618D01*
X341000383Y-103999617D01*
X341000381Y-103999616D01*
X341000090Y-103999496D01*
X341000001Y-103999459D01*
X340975446Y-103999459D01*
X340975240Y-103999500D01*
X339024760Y-103999500D01*
X339024554Y-103999459D01*
X338999998Y-103999459D01*
X338999909Y-103999496D01*
X338999619Y-103999615D01*
X338999615Y-103999618D01*
X338999459Y-103999999D01*
X338999476Y-104024616D01*
X338999471Y-104024616D01*
X338999500Y-104024759D01*
X338999500Y-182975467D01*
X338999416Y-182975889D01*
X285000500Y-182975889D01*
X285000500Y-164024759D01*
X285000528Y-164024616D01*
X285000524Y-164024616D01*
X285000539Y-164000002D01*
X285000541Y-164000000D01*
X285000462Y-163999808D01*
X285000384Y-163999618D01*
X285000383Y-163999617D01*
X285000381Y-163999616D01*
X285000090Y-163999496D01*
X285000001Y-163999459D01*
X284975446Y-163999459D01*
X284975240Y-163999500D01*
X265024760Y-163999500D01*
X265024554Y-163999459D01*
X264999998Y-163999459D01*
X264999909Y-163999496D01*
X264999619Y-163999615D01*
X264999615Y-163999618D01*
X264999459Y-163999999D01*
X264999476Y-164024616D01*
X264999471Y-164024616D01*
X264999500Y-164024759D01*
X264999500Y-183875500D01*
X264979815Y-183942539D01*
X264927011Y-183988294D01*
X264875500Y-183999500D01*
X245024760Y-183999500D01*
X245024554Y-183999459D01*
X244999998Y-183999459D01*
X244999909Y-183999496D01*
X244999619Y-183999615D01*
X244999615Y-183999618D01*
X244999459Y-183999999D01*
X244999476Y-184024616D01*
X244999471Y-184024616D01*
X244999500Y-184024759D01*
X244999500Y-203975467D01*
X244999416Y-203975889D01*
X225000500Y-203975889D01*
X225000500Y-174000500D01*
X225000500Y-159067763D01*
X228145787Y-159067763D01*
X228175413Y-159337013D01*
X228175415Y-159337024D01*
X228243926Y-159599082D01*
X228243928Y-159599088D01*
X228349870Y-159848390D01*
X228421998Y-159966575D01*
X228490979Y-160079605D01*
X228490986Y-160079615D01*
X228664253Y-160287819D01*
X228664259Y-160287824D01*
X228865998Y-160468582D01*
X229091910Y-160618044D01*
X229337176Y-160733020D01*
X229337183Y-160733022D01*
X229337185Y-160733023D01*
X229596557Y-160811057D01*
X229596564Y-160811058D01*
X229596569Y-160811060D01*
X229864561Y-160850500D01*
X229864566Y-160850500D01*
X230067629Y-160850500D01*
X230067631Y-160850500D01*
X230067636Y-160850499D01*
X230067648Y-160850499D01*
X230105191Y-160847750D01*
X230270156Y-160835677D01*
X230382758Y-160810593D01*
X230534546Y-160776782D01*
X230534548Y-160776781D01*
X230534553Y-160776780D01*
X230787558Y-160680014D01*
X231023777Y-160547441D01*
X231238177Y-160381888D01*
X231426186Y-160186881D01*
X231583799Y-159966579D01*
X231657787Y-159822669D01*
X231707649Y-159725690D01*
X231707651Y-159725684D01*
X231707656Y-159725675D01*
X231795118Y-159469305D01*
X231844319Y-159202933D01*
X231854212Y-158932235D01*
X231824586Y-158662982D01*
X231756072Y-158400912D01*
X231650130Y-158151610D01*
X231509018Y-157920390D01*
X231419747Y-157813119D01*
X231335746Y-157712180D01*
X231335740Y-157712175D01*
X231134002Y-157531418D01*
X230908092Y-157381957D01*
X230908090Y-157381956D01*
X230662824Y-157266980D01*
X230662819Y-157266978D01*
X230662814Y-157266976D01*
X230403442Y-157188942D01*
X230403428Y-157188939D01*
X230287791Y-157171921D01*
X230135439Y-157149500D01*
X229932369Y-157149500D01*
X229932351Y-157149500D01*
X229729844Y-157164323D01*
X229729831Y-157164325D01*
X229465453Y-157223217D01*
X229465446Y-157223220D01*
X229212439Y-157319987D01*
X228976226Y-157452557D01*
X228761822Y-157618112D01*
X228573822Y-157813109D01*
X228573816Y-157813116D01*
X228416202Y-158033419D01*
X228416199Y-158033424D01*
X228292350Y-158274309D01*
X228292343Y-158274327D01*
X228204884Y-158530685D01*
X228204881Y-158530699D01*
X228155681Y-158797068D01*
X228155680Y-158797075D01*
X228145787Y-159067763D01*
X225000500Y-159067763D01*
X225000500Y-143975889D01*
X234999416Y-143975889D01*
X234999459Y-144000001D01*
X234999544Y-144000206D01*
X234999616Y-144000382D01*
X234999618Y-144000384D01*
X234999808Y-144000462D01*
X235000000Y-144000541D01*
X235000002Y-144000539D01*
X235024616Y-144000524D01*
X235024616Y-144000528D01*
X235024760Y-144000500D01*
X254975240Y-144000500D01*
X254975383Y-144000528D01*
X254975384Y-144000524D01*
X254999997Y-144000539D01*
X255000000Y-144000541D01*
X255000383Y-144000383D01*
X255000500Y-144000099D01*
X255000541Y-144000000D01*
X255000540Y-143999997D01*
X255000583Y-143975889D01*
X264999416Y-143975889D01*
X264999459Y-144000001D01*
X264999544Y-144000206D01*
X264999616Y-144000382D01*
X264999618Y-144000384D01*
X264999808Y-144000462D01*
X265000000Y-144000541D01*
X265000002Y-144000539D01*
X265024616Y-144000524D01*
X265024616Y-144000528D01*
X265024760Y-144000500D01*
X304975240Y-144000500D01*
X304975383Y-144000528D01*
X304975384Y-144000524D01*
X304999997Y-144000539D01*
X305000000Y-144000541D01*
X305000383Y-144000383D01*
X305000500Y-144000099D01*
X305000541Y-144000000D01*
X305000540Y-143999997D01*
X305000583Y-143975889D01*
X305000500Y-143975467D01*
X305000500Y-124024759D01*
X305000528Y-124024616D01*
X305000524Y-124024616D01*
X305000539Y-124000002D01*
X305000541Y-124000000D01*
X305000462Y-123999808D01*
X305000384Y-123999618D01*
X305000383Y-123999617D01*
X305000381Y-123999616D01*
X305000090Y-123999496D01*
X305000001Y-123999459D01*
X304975446Y-123999459D01*
X304975240Y-123999500D01*
X265024760Y-123999500D01*
X265024554Y-123999459D01*
X264999998Y-123999459D01*
X264999909Y-123999496D01*
X264999619Y-123999615D01*
X264999615Y-123999618D01*
X264999459Y-123999999D01*
X264999476Y-124024616D01*
X264999471Y-124024616D01*
X264999500Y-124024759D01*
X264999499Y-143975467D01*
X264999416Y-143975889D01*
X255000583Y-143975889D01*
X255000500Y-143975467D01*
X255000500Y-124024759D01*
X255000528Y-124024616D01*
X255000524Y-124024616D01*
X255000539Y-124000002D01*
X255000541Y-124000000D01*
X255000462Y-123999808D01*
X255000384Y-123999618D01*
X255000383Y-123999617D01*
X255000381Y-123999616D01*
X255000090Y-123999496D01*
X255000001Y-123999459D01*
X254975446Y-123999459D01*
X254975240Y-123999500D01*
X235024760Y-123999500D01*
X235024554Y-123999459D01*
X234999998Y-123999459D01*
X234999909Y-123999496D01*
X234999619Y-123999615D01*
X234999615Y-123999618D01*
X234999459Y-123999999D01*
X234999476Y-124024616D01*
X234999471Y-124024616D01*
X234999500Y-124024759D01*
X234999500Y-143975467D01*
X234999416Y-143975889D01*
X225000500Y-143975889D01*
X225000500Y-124024754D01*
X225000528Y-124024616D01*
X225000524Y-124024616D01*
X225000539Y-124000002D01*
X225000541Y-124000000D01*
X225000462Y-123999808D01*
X225000384Y-123999618D01*
X225000383Y-123999617D01*
X225000381Y-123999616D01*
X225000090Y-123999496D01*
X225000001Y-123999459D01*
X224975446Y-123999459D01*
X224975240Y-123999500D01*
X145024760Y-123999500D01*
X145024554Y-123999459D01*
X144999998Y-123999459D01*
X144999909Y-123999496D01*
X144999619Y-123999615D01*
X144999615Y-123999618D01*
X144999459Y-123999999D01*
X144999476Y-124024616D01*
X144999471Y-124024616D01*
X144999500Y-124024759D01*
X144999500Y-223975467D01*
X144999416Y-223975889D01*
X115000583Y-223975889D01*
X115000500Y-223975467D01*
X115000500Y-204024759D01*
X115000528Y-204024616D01*
X115000524Y-204024616D01*
X115000539Y-204000002D01*
X115000541Y-204000000D01*
X115000462Y-203999808D01*
X115000384Y-203999618D01*
X115000383Y-203999617D01*
X115000381Y-203999616D01*
X115000090Y-203999496D01*
X115000001Y-203999459D01*
X114975446Y-203999459D01*
X114975240Y-203999500D01*
X95024760Y-203999500D01*
X95024554Y-203999459D01*
X94999998Y-203999459D01*
X94999909Y-203999496D01*
X94999619Y-203999615D01*
X94999615Y-203999618D01*
X94999459Y-203999999D01*
X94999476Y-204024616D01*
X94999471Y-204024616D01*
X94999500Y-204024759D01*
X94999500Y-223975467D01*
X94999416Y-223975889D01*
X80021000Y-223975889D01*
X80021000Y-214067763D01*
X83145787Y-214067763D01*
X83175413Y-214337013D01*
X83175415Y-214337024D01*
X83243926Y-214599082D01*
X83243928Y-214599088D01*
X83349870Y-214848390D01*
X83421998Y-214966575D01*
X83490979Y-215079605D01*
X83490986Y-215079615D01*
X83664253Y-215287819D01*
X83664259Y-215287824D01*
X83865998Y-215468582D01*
X84091910Y-215618044D01*
X84337176Y-215733020D01*
X84337183Y-215733022D01*
X84337185Y-215733023D01*
X84596557Y-215811057D01*
X84596564Y-215811058D01*
X84596569Y-215811060D01*
X84864561Y-215850500D01*
X84864566Y-215850500D01*
X85067629Y-215850500D01*
X85067631Y-215850500D01*
X85067636Y-215850499D01*
X85067648Y-215850499D01*
X85105191Y-215847750D01*
X85270156Y-215835677D01*
X85382758Y-215810593D01*
X85534546Y-215776782D01*
X85534548Y-215776781D01*
X85534553Y-215776780D01*
X85787558Y-215680014D01*
X86023777Y-215547441D01*
X86238177Y-215381888D01*
X86426186Y-215186881D01*
X86583799Y-214966579D01*
X86657787Y-214822669D01*
X86707649Y-214725690D01*
X86707651Y-214725684D01*
X86707656Y-214725675D01*
X86795118Y-214469305D01*
X86844319Y-214202933D01*
X86854212Y-213932235D01*
X86824586Y-213662982D01*
X86756072Y-213400912D01*
X86650130Y-213151610D01*
X86509018Y-212920390D01*
X86419747Y-212813119D01*
X86335746Y-212712180D01*
X86335740Y-212712175D01*
X86134002Y-212531418D01*
X85908092Y-212381957D01*
X85908090Y-212381956D01*
X85662824Y-212266980D01*
X85662819Y-212266978D01*
X85662814Y-212266976D01*
X85403442Y-212188942D01*
X85403428Y-212188939D01*
X85287791Y-212171921D01*
X85135439Y-212149500D01*
X84932369Y-212149500D01*
X84932351Y-212149500D01*
X84729844Y-212164323D01*
X84729831Y-212164325D01*
X84465453Y-212223217D01*
X84465446Y-212223220D01*
X84212439Y-212319987D01*
X83976226Y-212452557D01*
X83761822Y-212618112D01*
X83573822Y-212813109D01*
X83573816Y-212813116D01*
X83416202Y-213033419D01*
X83416199Y-213033424D01*
X83292350Y-213274309D01*
X83292343Y-213274327D01*
X83204884Y-213530685D01*
X83204881Y-213530699D01*
X83155681Y-213797068D01*
X83155680Y-213797075D01*
X83145787Y-214067763D01*
X80021000Y-214067763D01*
X80021000Y-193975889D01*
X94999416Y-193975889D01*
X94999459Y-194000001D01*
X94999544Y-194000206D01*
X94999616Y-194000382D01*
X94999618Y-194000384D01*
X94999808Y-194000462D01*
X95000000Y-194000541D01*
X95000002Y-194000539D01*
X95024616Y-194000524D01*
X95024616Y-194000528D01*
X95024760Y-194000500D01*
X114975240Y-194000500D01*
X114975383Y-194000528D01*
X114975384Y-194000524D01*
X114999997Y-194000539D01*
X115000000Y-194000541D01*
X115000383Y-194000383D01*
X115000500Y-194000099D01*
X115000541Y-194000000D01*
X115000540Y-193999997D01*
X115000583Y-193975889D01*
X119999416Y-193975889D01*
X119999459Y-194000001D01*
X119999544Y-194000206D01*
X119999616Y-194000382D01*
X119999618Y-194000384D01*
X119999808Y-194000462D01*
X120000000Y-194000541D01*
X120000002Y-194000539D01*
X120024616Y-194000524D01*
X120024616Y-194000528D01*
X120024760Y-194000500D01*
X139975240Y-194000500D01*
X139975383Y-194000528D01*
X139975384Y-194000524D01*
X139999997Y-194000539D01*
X140000000Y-194000541D01*
X140000383Y-194000383D01*
X140000500Y-194000099D01*
X140000541Y-194000000D01*
X140000540Y-193999997D01*
X140000583Y-193975889D01*
X140000500Y-193975467D01*
X140000500Y-174024759D01*
X140000528Y-174024616D01*
X140000524Y-174024616D01*
X140000539Y-174000002D01*
X140000541Y-174000000D01*
X140000462Y-173999808D01*
X140000384Y-173999618D01*
X140000383Y-173999617D01*
X140000381Y-173999616D01*
X140000090Y-173999496D01*
X140000001Y-173999459D01*
X139975446Y-173999459D01*
X139975240Y-173999500D01*
X120024760Y-173999500D01*
X120024554Y-173999459D01*
X119999998Y-173999459D01*
X119999909Y-173999496D01*
X119999619Y-173999615D01*
X119999615Y-173999618D01*
X119999459Y-173999999D01*
X119999476Y-174024616D01*
X119999471Y-174024616D01*
X119999500Y-174024759D01*
X119999499Y-193975467D01*
X119999416Y-193975889D01*
X115000583Y-193975889D01*
X115000500Y-193975467D01*
X115000500Y-174024759D01*
X115000528Y-174024616D01*
X115000524Y-174024616D01*
X115000539Y-174000002D01*
X115000541Y-174000000D01*
X115000462Y-173999808D01*
X115000384Y-173999618D01*
X115000383Y-173999617D01*
X115000381Y-173999616D01*
X115000090Y-173999496D01*
X115000001Y-173999459D01*
X114975446Y-173999459D01*
X114975240Y-173999500D01*
X95024760Y-173999500D01*
X95024554Y-173999459D01*
X94999998Y-173999459D01*
X94999909Y-173999496D01*
X94999619Y-173999615D01*
X94999615Y-173999618D01*
X94999459Y-173999999D01*
X94999476Y-174024616D01*
X94999471Y-174024616D01*
X94999500Y-174024759D01*
X94999500Y-193975467D01*
X94999416Y-193975889D01*
X80021000Y-193975889D01*
X80021000Y-168975889D01*
X94999416Y-168975889D01*
X94999459Y-169000001D01*
X94999544Y-169000206D01*
X94999616Y-169000382D01*
X94999618Y-169000384D01*
X94999808Y-169000462D01*
X95000000Y-169000541D01*
X95000002Y-169000539D01*
X95024616Y-169000524D01*
X95024616Y-169000528D01*
X95024760Y-169000500D01*
X114975240Y-169000500D01*
X114975383Y-169000528D01*
X114975384Y-169000524D01*
X114999997Y-169000539D01*
X115000000Y-169000541D01*
X115000383Y-169000383D01*
X115000500Y-169000099D01*
X115000541Y-169000000D01*
X115000540Y-168999997D01*
X115000583Y-168975889D01*
X119999416Y-168975889D01*
X119999459Y-169000001D01*
X119999544Y-169000206D01*
X119999616Y-169000382D01*
X119999618Y-169000384D01*
X119999808Y-169000462D01*
X120000000Y-169000541D01*
X120000002Y-169000539D01*
X120024616Y-169000524D01*
X120024616Y-169000528D01*
X120024760Y-169000500D01*
X139975240Y-169000500D01*
X139975383Y-169000528D01*
X139975384Y-169000524D01*
X139999997Y-169000539D01*
X140000000Y-169000541D01*
X140000383Y-169000383D01*
X140000500Y-169000099D01*
X140000541Y-169000000D01*
X140000540Y-168999997D01*
X140000583Y-168975889D01*
X140000500Y-168975467D01*
X140000500Y-149024759D01*
X140000528Y-149024616D01*
X140000524Y-149024616D01*
X140000539Y-149000002D01*
X140000541Y-149000000D01*
X140000462Y-148999808D01*
X140000384Y-148999618D01*
X140000383Y-148999617D01*
X140000381Y-148999616D01*
X140000090Y-148999496D01*
X140000001Y-148999459D01*
X139975446Y-148999459D01*
X139975240Y-148999500D01*
X120024760Y-148999500D01*
X120024554Y-148999459D01*
X119999998Y-148999459D01*
X119999909Y-148999496D01*
X119999619Y-148999615D01*
X119999615Y-148999618D01*
X119999459Y-148999999D01*
X119999476Y-149024616D01*
X119999471Y-149024616D01*
X119999500Y-149024759D01*
X119999499Y-168975467D01*
X119999416Y-168975889D01*
X115000583Y-168975889D01*
X115000500Y-168975467D01*
X115000500Y-149024759D01*
X115000528Y-149024616D01*
X115000524Y-149024616D01*
X115000539Y-149000002D01*
X115000541Y-149000000D01*
X115000462Y-148999808D01*
X115000384Y-148999618D01*
X115000383Y-148999617D01*
X115000381Y-148999616D01*
X115000090Y-148999496D01*
X115000001Y-148999459D01*
X114975446Y-148999459D01*
X114975240Y-148999500D01*
X95024760Y-148999500D01*
X95024554Y-148999459D01*
X94999998Y-148999459D01*
X94999909Y-148999496D01*
X94999619Y-148999615D01*
X94999615Y-148999618D01*
X94999459Y-148999999D01*
X94999476Y-149024616D01*
X94999471Y-149024616D01*
X94999500Y-149024759D01*
X94999500Y-168975467D01*
X94999416Y-168975889D01*
X80021000Y-168975889D01*
X80021000Y-159067763D01*
X83225787Y-159067763D01*
X83255413Y-159337013D01*
X83255415Y-159337024D01*
X83323926Y-159599082D01*
X83323928Y-159599088D01*
X83429870Y-159848390D01*
X83501998Y-159966575D01*
X83570979Y-160079605D01*
X83570986Y-160079615D01*
X83744253Y-160287819D01*
X83744259Y-160287824D01*
X83945998Y-160468582D01*
X84171910Y-160618044D01*
X84417176Y-160733020D01*
X84417183Y-160733022D01*
X84417185Y-160733023D01*
X84676557Y-160811057D01*
X84676564Y-160811058D01*
X84676569Y-160811060D01*
X84944561Y-160850500D01*
X84944566Y-160850500D01*
X85147629Y-160850500D01*
X85147631Y-160850500D01*
X85147636Y-160850499D01*
X85147648Y-160850499D01*
X85185191Y-160847750D01*
X85350156Y-160835677D01*
X85462758Y-160810593D01*
X85614546Y-160776782D01*
X85614548Y-160776781D01*
X85614553Y-160776780D01*
X85867558Y-160680014D01*
X86103777Y-160547441D01*
X86318177Y-160381888D01*
X86506186Y-160186881D01*
X86663799Y-159966579D01*
X86737787Y-159822669D01*
X86787649Y-159725690D01*
X86787651Y-159725684D01*
X86787656Y-159725675D01*
X86875118Y-159469305D01*
X86924319Y-159202933D01*
X86934212Y-158932235D01*
X86904586Y-158662982D01*
X86836072Y-158400912D01*
X86730130Y-158151610D01*
X86589018Y-157920390D01*
X86499747Y-157813119D01*
X86415746Y-157712180D01*
X86415740Y-157712175D01*
X86214002Y-157531418D01*
X85988092Y-157381957D01*
X85988090Y-157381956D01*
X85742824Y-157266980D01*
X85742819Y-157266978D01*
X85742814Y-157266976D01*
X85483442Y-157188942D01*
X85483428Y-157188939D01*
X85367791Y-157171921D01*
X85215439Y-157149500D01*
X85012369Y-157149500D01*
X85012351Y-157149500D01*
X84809844Y-157164323D01*
X84809831Y-157164325D01*
X84545453Y-157223217D01*
X84545446Y-157223220D01*
X84292439Y-157319987D01*
X84056226Y-157452557D01*
X83841822Y-157618112D01*
X83653822Y-157813109D01*
X83653816Y-157813116D01*
X83496202Y-158033419D01*
X83496199Y-158033424D01*
X83372350Y-158274309D01*
X83372343Y-158274327D01*
X83284884Y-158530685D01*
X83284881Y-158530699D01*
X83235681Y-158797068D01*
X83235680Y-158797075D01*
X83225787Y-159067763D01*
X80021000Y-159067763D01*
X80021000Y-143975889D01*
X94999416Y-143975889D01*
X94999459Y-144000001D01*
X94999544Y-144000206D01*
X94999616Y-144000382D01*
X94999618Y-144000384D01*
X94999808Y-144000462D01*
X95000000Y-144000541D01*
X95000002Y-144000539D01*
X95024616Y-144000524D01*
X95024616Y-144000528D01*
X95024760Y-144000500D01*
X114975240Y-144000500D01*
X114975383Y-144000528D01*
X114975384Y-144000524D01*
X114999997Y-144000539D01*
X115000000Y-144000541D01*
X115000383Y-144000383D01*
X115000500Y-144000099D01*
X115000541Y-144000000D01*
X115000540Y-143999997D01*
X115000583Y-143975889D01*
X119999416Y-143975889D01*
X119999459Y-144000001D01*
X119999544Y-144000206D01*
X119999616Y-144000382D01*
X119999618Y-144000384D01*
X119999808Y-144000462D01*
X120000000Y-144000541D01*
X120000002Y-144000539D01*
X120024616Y-144000524D01*
X120024616Y-144000528D01*
X120024760Y-144000500D01*
X139975240Y-144000500D01*
X139975383Y-144000528D01*
X139975384Y-144000524D01*
X139999997Y-144000539D01*
X140000000Y-144000541D01*
X140000383Y-144000383D01*
X140000500Y-144000099D01*
X140000541Y-144000000D01*
X140000540Y-143999997D01*
X140000583Y-143975889D01*
X140000500Y-143975467D01*
X140000500Y-124024759D01*
X140000528Y-124024616D01*
X140000524Y-124024616D01*
X140000539Y-124000002D01*
X140000541Y-124000000D01*
X140000462Y-123999808D01*
X140000384Y-123999618D01*
X140000383Y-123999617D01*
X140000381Y-123999616D01*
X140000090Y-123999496D01*
X140000001Y-123999459D01*
X139975446Y-123999459D01*
X139975240Y-123999500D01*
X120024760Y-123999500D01*
X120024554Y-123999459D01*
X119999998Y-123999459D01*
X119999909Y-123999496D01*
X119999619Y-123999615D01*
X119999615Y-123999618D01*
X119999459Y-123999999D01*
X119999476Y-124024616D01*
X119999471Y-124024616D01*
X119999500Y-124024759D01*
X119999499Y-143975467D01*
X119999416Y-143975889D01*
X115000583Y-143975889D01*
X115000500Y-143975467D01*
X115000500Y-124024759D01*
X115000528Y-124024616D01*
X115000524Y-124024616D01*
X115000539Y-124000002D01*
X115000541Y-124000000D01*
X115000462Y-123999808D01*
X115000384Y-123999618D01*
X115000383Y-123999617D01*
X115000381Y-123999616D01*
X115000090Y-123999496D01*
X115000001Y-123999459D01*
X114975446Y-123999459D01*
X114975240Y-123999500D01*
X95024760Y-123999500D01*
X95024554Y-123999459D01*
X94999998Y-123999459D01*
X94999909Y-123999496D01*
X94999619Y-123999615D01*
X94999615Y-123999618D01*
X94999459Y-123999999D01*
X94999476Y-124024616D01*
X94999471Y-124024616D01*
X94999500Y-124024759D01*
X94999500Y-143975467D01*
X94999416Y-143975889D01*
X80021000Y-143975889D01*
X80021000Y-44067763D01*
X83145787Y-44067763D01*
X83175413Y-44337013D01*
X83175415Y-44337024D01*
X83243926Y-44599082D01*
X83243928Y-44599088D01*
X83349870Y-44848390D01*
X83421998Y-44966575D01*
X83490979Y-45079605D01*
X83490986Y-45079615D01*
X83664253Y-45287819D01*
X83664259Y-45287824D01*
X83865998Y-45468582D01*
X84091910Y-45618044D01*
X84337176Y-45733020D01*
X84337183Y-45733022D01*
X84337185Y-45733023D01*
X84596557Y-45811057D01*
X84596564Y-45811058D01*
X84596569Y-45811060D01*
X84864561Y-45850500D01*
X84864566Y-45850500D01*
X85067629Y-45850500D01*
X85067631Y-45850500D01*
X85067636Y-45850499D01*
X85067648Y-45850499D01*
X85105191Y-45847750D01*
X85270156Y-45835677D01*
X85382758Y-45810593D01*
X85534546Y-45776782D01*
X85534548Y-45776781D01*
X85534553Y-45776780D01*
X85787558Y-45680014D01*
X86023777Y-45547441D01*
X86238177Y-45381888D01*
X86426186Y-45186881D01*
X86583799Y-44966579D01*
X86657787Y-44822669D01*
X86707649Y-44725690D01*
X86707651Y-44725684D01*
X86707656Y-44725675D01*
X86795118Y-44469305D01*
X86844319Y-44202933D01*
X86854212Y-43932235D01*
X86824586Y-43662982D01*
X86756072Y-43400912D01*
X86650130Y-43151610D01*
X86509018Y-42920390D01*
X86419747Y-42813119D01*
X86335746Y-42712180D01*
X86335740Y-42712175D01*
X86134002Y-42531418D01*
X85908092Y-42381957D01*
X85908090Y-42381956D01*
X85662824Y-42266980D01*
X85662819Y-42266978D01*
X85662814Y-42266976D01*
X85403442Y-42188942D01*
X85403428Y-42188939D01*
X85287791Y-42171921D01*
X85135439Y-42149500D01*
X84932369Y-42149500D01*
X84932351Y-42149500D01*
X84729844Y-42164323D01*
X84729831Y-42164325D01*
X84465453Y-42223217D01*
X84465446Y-42223220D01*
X84212439Y-42319987D01*
X83976226Y-42452557D01*
X83761822Y-42618112D01*
X83573822Y-42813109D01*
X83573816Y-42813116D01*
X83416202Y-43033419D01*
X83416199Y-43033424D01*
X83292350Y-43274309D01*
X83292343Y-43274327D01*
X83204884Y-43530685D01*
X83204881Y-43530699D01*
X83155681Y-43797068D01*
X83155680Y-43797075D01*
X83145787Y-44067763D01*
X80021000Y-44067763D01*
X80021000Y-34023555D01*
X94999372Y-34023555D01*
X94999499Y-34024203D01*
X94999499Y-113976019D01*
X94999417Y-113976440D01*
X94999459Y-113999999D01*
X94999459Y-114000000D01*
X94999499Y-114000099D01*
X94999677Y-114000541D01*
X94999999Y-114000540D01*
X95000000Y-114000541D01*
X95000000Y-114000540D01*
X95024616Y-114000524D01*
X95024616Y-114000528D01*
X95024760Y-114000500D01*
X154975240Y-114000500D01*
X154975383Y-114000528D01*
X154975384Y-114000524D01*
X154999997Y-114000539D01*
X155000000Y-114000541D01*
X155000383Y-114000383D01*
X155000500Y-114000099D01*
X155000541Y-114000000D01*
X155000540Y-113999997D01*
X155000583Y-113975889D01*
X164999416Y-113975889D01*
X164999459Y-114000001D01*
X164999544Y-114000206D01*
X164999616Y-114000382D01*
X164999618Y-114000384D01*
X164999808Y-114000462D01*
X165000000Y-114000541D01*
X165000002Y-114000539D01*
X165024616Y-114000524D01*
X165024616Y-114000528D01*
X165024760Y-114000500D01*
X224975240Y-114000500D01*
X224975383Y-114000528D01*
X224975384Y-114000524D01*
X224999997Y-114000539D01*
X225000000Y-114000541D01*
X225000383Y-114000383D01*
X225000500Y-114000099D01*
X225000541Y-114000000D01*
X225000540Y-113999997D01*
X225000583Y-113975889D01*
X234999416Y-113975889D01*
X234999459Y-114000001D01*
X234999544Y-114000206D01*
X234999616Y-114000382D01*
X234999618Y-114000384D01*
X234999808Y-114000462D01*
X235000000Y-114000541D01*
X235000002Y-114000539D01*
X235024616Y-114000524D01*
X235024616Y-114000528D01*
X235024760Y-114000500D01*
X254975240Y-114000500D01*
X254975383Y-114000528D01*
X254975384Y-114000524D01*
X254999997Y-114000539D01*
X255000000Y-114000541D01*
X255000383Y-114000383D01*
X255000500Y-114000099D01*
X255000541Y-114000000D01*
X255000540Y-113999997D01*
X255000583Y-113975889D01*
X264999416Y-113975889D01*
X264999459Y-114000001D01*
X264999544Y-114000206D01*
X264999616Y-114000382D01*
X264999618Y-114000384D01*
X264999808Y-114000462D01*
X265000000Y-114000541D01*
X265000002Y-114000539D01*
X265024616Y-114000524D01*
X265024616Y-114000528D01*
X265024760Y-114000500D01*
X304975240Y-114000500D01*
X304975383Y-114000528D01*
X304975384Y-114000524D01*
X304999997Y-114000539D01*
X305000000Y-114000541D01*
X305000383Y-114000383D01*
X305000500Y-114000099D01*
X305000541Y-114000000D01*
X305000540Y-113999997D01*
X305000583Y-113975889D01*
X305000500Y-113975467D01*
X305000500Y-94024759D01*
X305000528Y-94024616D01*
X305000524Y-94024616D01*
X305000539Y-94000002D01*
X305000541Y-94000000D01*
X305000462Y-93999808D01*
X305000384Y-93999618D01*
X305000383Y-93999617D01*
X305000381Y-93999616D01*
X305000090Y-93999496D01*
X305000001Y-93999459D01*
X304975446Y-93999459D01*
X304975240Y-93999500D01*
X285124500Y-93999500D01*
X285057461Y-93979815D01*
X285011706Y-93927011D01*
X285000500Y-93875500D01*
X285000500Y-83975889D01*
X329999416Y-83975889D01*
X329999459Y-84000001D01*
X329999544Y-84000206D01*
X329999616Y-84000382D01*
X329999618Y-84000384D01*
X329999808Y-84000462D01*
X330000000Y-84000541D01*
X330000002Y-84000539D01*
X330024616Y-84000524D01*
X330024616Y-84000528D01*
X330024760Y-84000500D01*
X349975240Y-84000500D01*
X349975383Y-84000528D01*
X349975384Y-84000524D01*
X349999997Y-84000539D01*
X350000000Y-84000541D01*
X350000383Y-84000383D01*
X350000500Y-84000099D01*
X350000541Y-84000000D01*
X350000540Y-83999997D01*
X350000583Y-83975889D01*
X350000500Y-83975467D01*
X350000500Y-64024759D01*
X350000528Y-64024616D01*
X350000524Y-64024616D01*
X350000539Y-64000002D01*
X350000541Y-64000000D01*
X350000462Y-63999808D01*
X350000384Y-63999618D01*
X350000383Y-63999617D01*
X350000381Y-63999616D01*
X350000090Y-63999496D01*
X350000001Y-63999459D01*
X349975446Y-63999459D01*
X349975240Y-63999500D01*
X330024760Y-63999500D01*
X330024554Y-63999459D01*
X329999998Y-63999459D01*
X329999909Y-63999496D01*
X329999619Y-63999615D01*
X329999615Y-63999618D01*
X329999459Y-63999999D01*
X329999476Y-64024616D01*
X329999471Y-64024616D01*
X329999500Y-64024759D01*
X329999500Y-83975467D01*
X329999416Y-83975889D01*
X285000500Y-83975889D01*
X285000500Y-53975889D01*
X289999416Y-53975889D01*
X289999459Y-54000001D01*
X289999544Y-54000206D01*
X289999616Y-54000382D01*
X289999618Y-54000384D01*
X289999808Y-54000462D01*
X290000000Y-54000541D01*
X290000002Y-54000539D01*
X290024616Y-54000524D01*
X290024616Y-54000528D01*
X290024760Y-54000500D01*
X349975240Y-54000500D01*
X349975383Y-54000528D01*
X349975384Y-54000524D01*
X349999997Y-54000539D01*
X350000000Y-54000541D01*
X350000383Y-54000383D01*
X350000500Y-54000099D01*
X350000541Y-54000000D01*
X350000540Y-53999997D01*
X350000583Y-53975889D01*
X350000500Y-53975467D01*
X350000500Y-44067763D01*
X353145787Y-44067763D01*
X353175413Y-44337013D01*
X353175415Y-44337024D01*
X353243926Y-44599082D01*
X353243928Y-44599088D01*
X353349870Y-44848390D01*
X353421998Y-44966575D01*
X353490979Y-45079605D01*
X353490986Y-45079615D01*
X353664253Y-45287819D01*
X353664259Y-45287824D01*
X353865998Y-45468582D01*
X354091910Y-45618044D01*
X354337176Y-45733020D01*
X354337183Y-45733022D01*
X354337185Y-45733023D01*
X354596557Y-45811057D01*
X354596564Y-45811058D01*
X354596569Y-45811060D01*
X354864561Y-45850500D01*
X354864566Y-45850500D01*
X355067629Y-45850500D01*
X355067631Y-45850500D01*
X355067636Y-45850499D01*
X355067648Y-45850499D01*
X355105191Y-45847750D01*
X355270156Y-45835677D01*
X355382758Y-45810593D01*
X355534546Y-45776782D01*
X355534548Y-45776781D01*
X355534553Y-45776780D01*
X355787558Y-45680014D01*
X356023777Y-45547441D01*
X356238177Y-45381888D01*
X356426186Y-45186881D01*
X356583799Y-44966579D01*
X356657787Y-44822669D01*
X356707649Y-44725690D01*
X356707651Y-44725684D01*
X356707656Y-44725675D01*
X356795118Y-44469305D01*
X356844319Y-44202933D01*
X356854212Y-43932235D01*
X356824586Y-43662982D01*
X356756072Y-43400912D01*
X356650130Y-43151610D01*
X356509018Y-42920390D01*
X356419747Y-42813119D01*
X356335746Y-42712180D01*
X356335740Y-42712175D01*
X356134002Y-42531418D01*
X355908092Y-42381957D01*
X355908090Y-42381956D01*
X355662824Y-42266980D01*
X355662819Y-42266978D01*
X355662814Y-42266976D01*
X355403442Y-42188942D01*
X355403428Y-42188939D01*
X355287791Y-42171921D01*
X355135439Y-42149500D01*
X354932369Y-42149500D01*
X354932351Y-42149500D01*
X354729844Y-42164323D01*
X354729831Y-42164325D01*
X354465453Y-42223217D01*
X354465446Y-42223220D01*
X354212439Y-42319987D01*
X353976226Y-42452557D01*
X353761822Y-42618112D01*
X353573822Y-42813109D01*
X353573816Y-42813116D01*
X353416202Y-43033419D01*
X353416199Y-43033424D01*
X353292350Y-43274309D01*
X353292343Y-43274327D01*
X353204884Y-43530685D01*
X353204881Y-43530699D01*
X353155681Y-43797068D01*
X353155680Y-43797075D01*
X353145787Y-44067763D01*
X350000500Y-44067763D01*
X350000500Y-34024759D01*
X350000528Y-34024616D01*
X350000524Y-34024616D01*
X350000539Y-34000002D01*
X350000541Y-34000000D01*
X350000462Y-33999808D01*
X350000384Y-33999618D01*
X350000383Y-33999617D01*
X350000381Y-33999616D01*
X350000090Y-33999496D01*
X350000001Y-33999459D01*
X349975446Y-33999459D01*
X349975240Y-33999500D01*
X290024760Y-33999500D01*
X290024554Y-33999459D01*
X289999998Y-33999459D01*
X289999909Y-33999496D01*
X289999619Y-33999615D01*
X289999615Y-33999618D01*
X289999459Y-33999999D01*
X289999476Y-34024616D01*
X289999471Y-34024616D01*
X289999500Y-34024759D01*
X289999500Y-53975467D01*
X289999416Y-53975889D01*
X285000500Y-53975889D01*
X285000500Y-34024759D01*
X285000528Y-34024616D01*
X285000524Y-34024616D01*
X285000539Y-34000002D01*
X285000541Y-34000000D01*
X285000462Y-33999808D01*
X285000384Y-33999618D01*
X285000383Y-33999617D01*
X285000381Y-33999616D01*
X285000090Y-33999496D01*
X285000001Y-33999459D01*
X284975446Y-33999459D01*
X284975240Y-33999500D01*
X265024760Y-33999500D01*
X265024554Y-33999459D01*
X264999998Y-33999459D01*
X264999909Y-33999496D01*
X264999619Y-33999615D01*
X264999615Y-33999618D01*
X264999459Y-33999999D01*
X264999476Y-34024616D01*
X264999471Y-34024616D01*
X264999500Y-34024759D01*
X264999500Y-113975467D01*
X264999416Y-113975889D01*
X255000583Y-113975889D01*
X255000500Y-113975467D01*
X255000500Y-94024759D01*
X255000528Y-94024616D01*
X255000524Y-94024616D01*
X255000539Y-94000002D01*
X255000541Y-94000000D01*
X255000462Y-93999808D01*
X255000384Y-93999618D01*
X255000383Y-93999617D01*
X255000381Y-93999616D01*
X255000090Y-93999496D01*
X255000001Y-93999459D01*
X254975446Y-93999459D01*
X254975240Y-93999500D01*
X235024760Y-93999500D01*
X235024554Y-93999459D01*
X234999998Y-93999459D01*
X234999909Y-93999496D01*
X234999619Y-93999615D01*
X234999615Y-93999618D01*
X234999459Y-93999999D01*
X234999476Y-94024616D01*
X234999471Y-94024616D01*
X234999500Y-94024759D01*
X234999500Y-113975467D01*
X234999416Y-113975889D01*
X225000583Y-113975889D01*
X225000500Y-113975467D01*
X225000500Y-83975889D01*
X234999416Y-83975889D01*
X234999459Y-84000001D01*
X234999544Y-84000206D01*
X234999616Y-84000382D01*
X234999618Y-84000384D01*
X234999808Y-84000462D01*
X235000000Y-84000541D01*
X235000002Y-84000539D01*
X235024616Y-84000524D01*
X235024616Y-84000528D01*
X235024760Y-84000500D01*
X254975240Y-84000500D01*
X254975383Y-84000528D01*
X254975384Y-84000524D01*
X254999997Y-84000539D01*
X255000000Y-84000541D01*
X255000383Y-84000383D01*
X255000500Y-84000099D01*
X255000541Y-84000000D01*
X255000540Y-83999997D01*
X255000583Y-83975889D01*
X255000500Y-83975467D01*
X255000500Y-64024759D01*
X255000528Y-64024616D01*
X255000524Y-64024616D01*
X255000539Y-64000002D01*
X255000541Y-64000000D01*
X255000462Y-63999808D01*
X255000384Y-63999618D01*
X255000383Y-63999617D01*
X255000381Y-63999616D01*
X255000090Y-63999496D01*
X255000001Y-63999459D01*
X254975446Y-63999459D01*
X254975240Y-63999500D01*
X235024760Y-63999500D01*
X235024554Y-63999459D01*
X234999998Y-63999459D01*
X234999909Y-63999496D01*
X234999619Y-63999615D01*
X234999615Y-63999618D01*
X234999459Y-63999999D01*
X234999476Y-64024616D01*
X234999471Y-64024616D01*
X234999500Y-64024759D01*
X234999500Y-83975467D01*
X234999416Y-83975889D01*
X225000500Y-83975889D01*
X225000500Y-53975889D01*
X234999416Y-53975889D01*
X234999459Y-54000001D01*
X234999544Y-54000206D01*
X234999616Y-54000382D01*
X234999618Y-54000384D01*
X234999808Y-54000462D01*
X235000000Y-54000541D01*
X235000002Y-54000539D01*
X235024616Y-54000524D01*
X235024616Y-54000528D01*
X235024760Y-54000500D01*
X254975240Y-54000500D01*
X254975383Y-54000528D01*
X254975384Y-54000524D01*
X254999997Y-54000539D01*
X255000000Y-54000541D01*
X255000383Y-54000383D01*
X255000500Y-54000099D01*
X255000541Y-54000000D01*
X255000540Y-53999997D01*
X255000583Y-53975889D01*
X255000500Y-53975467D01*
X255000500Y-34024759D01*
X255000528Y-34024616D01*
X255000524Y-34024616D01*
X255000539Y-34000002D01*
X255000541Y-34000000D01*
X255000462Y-33999808D01*
X255000384Y-33999618D01*
X255000383Y-33999617D01*
X255000381Y-33999616D01*
X255000090Y-33999496D01*
X255000001Y-33999459D01*
X254975446Y-33999459D01*
X254975240Y-33999500D01*
X235024760Y-33999500D01*
X235024554Y-33999459D01*
X234999998Y-33999459D01*
X234999909Y-33999496D01*
X234999619Y-33999615D01*
X234999615Y-33999618D01*
X234999459Y-33999999D01*
X234999476Y-34024616D01*
X234999471Y-34024616D01*
X234999500Y-34024759D01*
X234999500Y-53975467D01*
X234999416Y-53975889D01*
X225000500Y-53975889D01*
X225000500Y-44067763D01*
X228145787Y-44067763D01*
X228175413Y-44337013D01*
X228175415Y-44337024D01*
X228243926Y-44599082D01*
X228243928Y-44599088D01*
X228349870Y-44848390D01*
X228421998Y-44966575D01*
X228490979Y-45079605D01*
X228490986Y-45079615D01*
X228664253Y-45287819D01*
X228664259Y-45287824D01*
X228865998Y-45468582D01*
X229091910Y-45618044D01*
X229337176Y-45733020D01*
X229337183Y-45733022D01*
X229337185Y-45733023D01*
X229596557Y-45811057D01*
X229596564Y-45811058D01*
X229596569Y-45811060D01*
X229864561Y-45850500D01*
X229864566Y-45850500D01*
X230067629Y-45850500D01*
X230067631Y-45850500D01*
X230067636Y-45850499D01*
X230067648Y-45850499D01*
X230105191Y-45847750D01*
X230270156Y-45835677D01*
X230382758Y-45810593D01*
X230534546Y-45776782D01*
X230534548Y-45776781D01*
X230534553Y-45776780D01*
X230787558Y-45680014D01*
X231023777Y-45547441D01*
X231238177Y-45381888D01*
X231426186Y-45186881D01*
X231583799Y-44966579D01*
X231657787Y-44822669D01*
X231707649Y-44725690D01*
X231707651Y-44725684D01*
X231707656Y-44725675D01*
X231795118Y-44469305D01*
X231844319Y-44202933D01*
X231854212Y-43932235D01*
X231824586Y-43662982D01*
X231756072Y-43400912D01*
X231650130Y-43151610D01*
X231509018Y-42920390D01*
X231419747Y-42813119D01*
X231335746Y-42712180D01*
X231335740Y-42712175D01*
X231134002Y-42531418D01*
X230908092Y-42381957D01*
X230908090Y-42381956D01*
X230662824Y-42266980D01*
X230662819Y-42266978D01*
X230662814Y-42266976D01*
X230403442Y-42188942D01*
X230403428Y-42188939D01*
X230287791Y-42171921D01*
X230135439Y-42149500D01*
X229932369Y-42149500D01*
X229932351Y-42149500D01*
X229729844Y-42164323D01*
X229729831Y-42164325D01*
X229465453Y-42223217D01*
X229465446Y-42223220D01*
X229212439Y-42319987D01*
X228976226Y-42452557D01*
X228761822Y-42618112D01*
X228573822Y-42813109D01*
X228573816Y-42813116D01*
X228416202Y-43033419D01*
X228416199Y-43033424D01*
X228292350Y-43274309D01*
X228292343Y-43274327D01*
X228204884Y-43530685D01*
X228204881Y-43530699D01*
X228155681Y-43797068D01*
X228155680Y-43797075D01*
X228145787Y-44067763D01*
X225000500Y-44067763D01*
X225000500Y-34024759D01*
X225000528Y-34024616D01*
X225000524Y-34024616D01*
X225000539Y-34000002D01*
X225000541Y-34000000D01*
X225000462Y-33999808D01*
X225000384Y-33999618D01*
X225000383Y-33999617D01*
X225000381Y-33999616D01*
X225000090Y-33999496D01*
X225000001Y-33999459D01*
X224975446Y-33999459D01*
X224975240Y-33999500D01*
X165024760Y-33999500D01*
X165024554Y-33999459D01*
X164999998Y-33999459D01*
X164999909Y-33999496D01*
X164999619Y-33999615D01*
X164999615Y-33999618D01*
X164999459Y-33999999D01*
X164999476Y-34024616D01*
X164999471Y-34024616D01*
X164999500Y-34024759D01*
X164999500Y-113975467D01*
X164999416Y-113975889D01*
X155000583Y-113975889D01*
X155000500Y-113975467D01*
X155000500Y-34024759D01*
X155000528Y-34024616D01*
X155000524Y-34024616D01*
X155000539Y-34000002D01*
X155000541Y-34000000D01*
X155000462Y-33999808D01*
X155000384Y-33999618D01*
X155000383Y-33999617D01*
X155000381Y-33999616D01*
X155000090Y-33999496D01*
X155000001Y-33999459D01*
X154975446Y-33999459D01*
X154975240Y-33999500D01*
X95024760Y-33999500D01*
X95024554Y-33999459D01*
X94999998Y-33999459D01*
X94999909Y-33999496D01*
X94999619Y-33999615D01*
X94999615Y-33999618D01*
X94999458Y-34000000D01*
X94999372Y-34023555D01*
X80021000Y-34023555D01*
X80021000Y-29067763D01*
X83145787Y-29067763D01*
X83175413Y-29337013D01*
X83175415Y-29337024D01*
X83243926Y-29599082D01*
X83243928Y-29599088D01*
X83349870Y-29848390D01*
X83421998Y-29966575D01*
X83490979Y-30079605D01*
X83490986Y-30079615D01*
X83664253Y-30287819D01*
X83664259Y-30287824D01*
X83865998Y-30468582D01*
X84091910Y-30618044D01*
X84337176Y-30733020D01*
X84337183Y-30733022D01*
X84337185Y-30733023D01*
X84596557Y-30811057D01*
X84596564Y-30811058D01*
X84596569Y-30811060D01*
X84864561Y-30850500D01*
X84864566Y-30850500D01*
X85067629Y-30850500D01*
X85067631Y-30850500D01*
X85067636Y-30850499D01*
X85067648Y-30850499D01*
X85105191Y-30847750D01*
X85270156Y-30835677D01*
X85382758Y-30810593D01*
X85534546Y-30776782D01*
X85534548Y-30776781D01*
X85534553Y-30776780D01*
X85787558Y-30680014D01*
X86023777Y-30547441D01*
X86238177Y-30381888D01*
X86426186Y-30186881D01*
X86583799Y-29966579D01*
X86657787Y-29822669D01*
X86707649Y-29725690D01*
X86707651Y-29725684D01*
X86707656Y-29725675D01*
X86795118Y-29469305D01*
X86844319Y-29202933D01*
X86849259Y-29067763D01*
X228145787Y-29067763D01*
X228175413Y-29337013D01*
X228175415Y-29337024D01*
X228243926Y-29599082D01*
X228243928Y-29599088D01*
X228349870Y-29848390D01*
X228421998Y-29966575D01*
X228490979Y-30079605D01*
X228490986Y-30079615D01*
X228664253Y-30287819D01*
X228664259Y-30287824D01*
X228865998Y-30468582D01*
X229091910Y-30618044D01*
X229337176Y-30733020D01*
X229337183Y-30733022D01*
X229337185Y-30733023D01*
X229596557Y-30811057D01*
X229596564Y-30811058D01*
X229596569Y-30811060D01*
X229864561Y-30850500D01*
X229864566Y-30850500D01*
X230067629Y-30850500D01*
X230067631Y-30850500D01*
X230067636Y-30850499D01*
X230067648Y-30850499D01*
X230105191Y-30847750D01*
X230270156Y-30835677D01*
X230382758Y-30810593D01*
X230534546Y-30776782D01*
X230534548Y-30776781D01*
X230534553Y-30776780D01*
X230787558Y-30680014D01*
X231023777Y-30547441D01*
X231238177Y-30381888D01*
X231426186Y-30186881D01*
X231583799Y-29966579D01*
X231657787Y-29822669D01*
X231707649Y-29725690D01*
X231707651Y-29725684D01*
X231707656Y-29725675D01*
X231795118Y-29469305D01*
X231844319Y-29202933D01*
X231849259Y-29067763D01*
X353145787Y-29067763D01*
X353175413Y-29337013D01*
X353175415Y-29337024D01*
X353243926Y-29599082D01*
X353243928Y-29599088D01*
X353349870Y-29848390D01*
X353421998Y-29966575D01*
X353490979Y-30079605D01*
X353490986Y-30079615D01*
X353664253Y-30287819D01*
X353664259Y-30287824D01*
X353865998Y-30468582D01*
X354091910Y-30618044D01*
X354337176Y-30733020D01*
X354337183Y-30733022D01*
X354337185Y-30733023D01*
X354596557Y-30811057D01*
X354596564Y-30811058D01*
X354596569Y-30811060D01*
X354864561Y-30850500D01*
X354864566Y-30850500D01*
X355067629Y-30850500D01*
X355067631Y-30850500D01*
X355067636Y-30850499D01*
X355067648Y-30850499D01*
X355105191Y-30847750D01*
X355270156Y-30835677D01*
X355382758Y-30810593D01*
X355534546Y-30776782D01*
X355534548Y-30776781D01*
X355534553Y-30776780D01*
X355787558Y-30680014D01*
X356023777Y-30547441D01*
X356238177Y-30381888D01*
X356426186Y-30186881D01*
X356583799Y-29966579D01*
X356657787Y-29822669D01*
X356707649Y-29725690D01*
X356707651Y-29725684D01*
X356707656Y-29725675D01*
X356795118Y-29469305D01*
X356844319Y-29202933D01*
X356854212Y-28932235D01*
X356824586Y-28662982D01*
X356756072Y-28400912D01*
X356650130Y-28151610D01*
X356509018Y-27920390D01*
X356419747Y-27813119D01*
X356335746Y-27712180D01*
X356335740Y-27712175D01*
X356134002Y-27531418D01*
X355908092Y-27381957D01*
X355908090Y-27381956D01*
X355662824Y-27266980D01*
X355662819Y-27266978D01*
X355662814Y-27266976D01*
X355403442Y-27188942D01*
X355403428Y-27188939D01*
X355287791Y-27171921D01*
X355135439Y-27149500D01*
X354932369Y-27149500D01*
X354932351Y-27149500D01*
X354729844Y-27164323D01*
X354729831Y-27164325D01*
X354465453Y-27223217D01*
X354465446Y-27223220D01*
X354212439Y-27319987D01*
X353976226Y-27452557D01*
X353761822Y-27618112D01*
X353573822Y-27813109D01*
X353573816Y-27813116D01*
X353416202Y-28033419D01*
X353416199Y-28033424D01*
X353292350Y-28274309D01*
X353292343Y-28274327D01*
X353204884Y-28530685D01*
X353204881Y-28530699D01*
X353155681Y-28797068D01*
X353155680Y-28797075D01*
X353145787Y-29067763D01*
X231849259Y-29067763D01*
X231854212Y-28932235D01*
X231824586Y-28662982D01*
X231756072Y-28400912D01*
X231650130Y-28151610D01*
X231509018Y-27920390D01*
X231419747Y-27813119D01*
X231335746Y-27712180D01*
X231335740Y-27712175D01*
X231134002Y-27531418D01*
X230908092Y-27381957D01*
X230908090Y-27381956D01*
X230662824Y-27266980D01*
X230662819Y-27266978D01*
X230662814Y-27266976D01*
X230403442Y-27188942D01*
X230403428Y-27188939D01*
X230287791Y-27171921D01*
X230135439Y-27149500D01*
X229932369Y-27149500D01*
X229932351Y-27149500D01*
X229729844Y-27164323D01*
X229729831Y-27164325D01*
X229465453Y-27223217D01*
X229465446Y-27223220D01*
X229212439Y-27319987D01*
X228976226Y-27452557D01*
X228761822Y-27618112D01*
X228573822Y-27813109D01*
X228573816Y-27813116D01*
X228416202Y-28033419D01*
X228416199Y-28033424D01*
X228292350Y-28274309D01*
X228292343Y-28274327D01*
X228204884Y-28530685D01*
X228204881Y-28530699D01*
X228155681Y-28797068D01*
X228155680Y-28797075D01*
X228145787Y-29067763D01*
X86849259Y-29067763D01*
X86854212Y-28932235D01*
X86824586Y-28662982D01*
X86756072Y-28400912D01*
X86650130Y-28151610D01*
X86509018Y-27920390D01*
X86419747Y-27813119D01*
X86335746Y-27712180D01*
X86335740Y-27712175D01*
X86134002Y-27531418D01*
X85908092Y-27381957D01*
X85908090Y-27381956D01*
X85662824Y-27266980D01*
X85662819Y-27266978D01*
X85662814Y-27266976D01*
X85403442Y-27188942D01*
X85403428Y-27188939D01*
X85287791Y-27171921D01*
X85135439Y-27149500D01*
X84932369Y-27149500D01*
X84932351Y-27149500D01*
X84729844Y-27164323D01*
X84729831Y-27164325D01*
X84465453Y-27223217D01*
X84465446Y-27223220D01*
X84212439Y-27319987D01*
X83976226Y-27452557D01*
X83761822Y-27618112D01*
X83573822Y-27813109D01*
X83573816Y-27813116D01*
X83416202Y-28033419D01*
X83416199Y-28033424D01*
X83292350Y-28274309D01*
X83292343Y-28274327D01*
X83204884Y-28530685D01*
X83204881Y-28530699D01*
X83155681Y-28797068D01*
X83155680Y-28797075D01*
X83145787Y-29067763D01*
X80021000Y-29067763D01*
X80021000Y-24140607D01*
X80040685Y-24073568D01*
X80093489Y-24027813D01*
X80144606Y-24016608D01*
X85225572Y-24000500D01*
X359875500Y-24000500D01*
X359942539Y-24020185D01*
G37*
%TD.AperFunction*%
M02*
