%TF.GenerationSoftware,KiCad,Pcbnew,(6.0.4)*%
%TF.CreationDate,2023-01-30T21:09:23+01:00*%
%TF.ProjectId,Fader_Board_panel,46616465-725f-4426-9f61-72645f70616e,rev?*%
%TF.SameCoordinates,Original*%
%TF.FileFunction,Profile,NP*%
%FSLAX46Y46*%
G04 Gerber Fmt 4.6, Leading zero omitted, Abs format (unit mm)*
G04 Created by KiCad (PCBNEW (6.0.4)) date 2023-01-30 21:09:23*
%MOMM*%
%LPD*%
G01*
G04 APERTURE LIST*
%TA.AperFunction,Profile*%
%ADD10C,0.100000*%
%TD*%
G04 APERTURE END LIST*
D10*
X139000000Y-66000000D02*
X141000000Y-66000000D01*
X141000000Y-66000000D02*
X141000000Y-144000000D01*
X141000000Y-144000000D02*
X139000000Y-144000000D01*
X139000000Y-144000000D02*
X139000000Y-66000000D01*
X119000000Y-144000000D02*
X121000000Y-144000000D01*
X121000000Y-144000000D02*
X121000000Y-66000000D01*
X121000000Y-66000000D02*
X119000000Y-66000000D01*
X119000000Y-66000000D02*
X119000000Y-144000000D01*
X99000000Y-66000000D02*
X101000000Y-66000000D01*
X101000000Y-66000000D02*
X101000000Y-144000000D01*
X101000000Y-144000000D02*
X99000000Y-144000000D01*
X99000000Y-144000000D02*
X99000000Y-66000000D01*
X79000000Y-144000000D02*
X81000000Y-144000000D01*
X81000000Y-144000000D02*
X81000000Y-66000000D01*
X81000000Y-66000000D02*
X79000000Y-66000000D01*
X79000000Y-66000000D02*
X79000000Y-144000000D01*
X59000000Y-66000000D02*
X61000000Y-66000000D01*
X61000000Y-66000000D02*
X61000000Y-144000000D01*
X61000000Y-144000000D02*
X59000000Y-144000000D01*
X59000000Y-144000000D02*
X59000000Y-66000000D01*
X150000000Y-185000000D02*
X50000000Y-185000000D01*
X50000000Y-185000000D02*
X50000000Y-205000000D01*
X50000000Y-205000000D02*
X150000000Y-205000000D01*
X150000000Y-205000000D02*
X150000000Y-185000000D01*
X50000000Y-155000000D02*
X150000000Y-155000000D01*
X150000000Y-155000000D02*
X150000000Y-175000000D01*
X150000000Y-175000000D02*
X50000000Y-175000000D01*
X50000000Y-175000000D02*
X50000000Y-155000000D01*
X40000000Y-5000000D02*
X160000000Y-5000000D01*
X160000000Y-5000000D02*
X160000000Y-226000000D01*
X160000000Y-226000000D02*
X40000000Y-226000000D01*
X40000000Y-226000000D02*
X40000000Y-5000000D01*
X50200000Y-15200000D02*
X149800000Y-15200000D01*
X149800000Y-15200000D02*
X149800000Y-54800000D01*
X149800000Y-54800000D02*
X50200000Y-54800000D01*
X50200000Y-54800000D02*
X50200000Y-15200000D01*
M02*
