M48
; DRILL file {KiCad 7.0.5} date Tue Jul  4 22:58:34 2023
; FORMAT={-:-/ absolute / inch / decimal}
; #@! TF.CreationDate,2023-07-04T22:58:34+02:00
; #@! TF.GenerationSoftware,Kicad,Pcbnew,7.0.5
; #@! TF.FileFunction,NonPlated,1,2,NPTH
FMAT,2
INCH
; #@! TA.AperFunction,NonPlated,NPTH,ComponentDrill
T1C0.0689
; #@! TA.AperFunction,NonPlated,NPTH,ComponentDrill
T2C0.1378
; #@! TA.AperFunction,NonPlated,NPTH,ComponentDrill
T3C0.1575
%
G90
G05
T1
X2.3591Y-0.7874
X2.3591Y-1.5748
X2.3591Y-2.3622
X2.3591Y-3.1496
X2.3591Y-4.3307
X2.3591Y-5.315
X2.3591Y-6.2992
X2.3591Y-7.4803
X2.7591Y-0.7874
X2.7591Y-1.5748
X2.7591Y-2.3622
X2.7591Y-3.1496
X2.7591Y-4.3307
X2.7591Y-5.315
X2.7591Y-6.2992
X2.7591Y-7.4803
X3.1465Y-0.7874
X3.1465Y-1.5748
X3.1465Y-2.3622
X3.1465Y-3.1496
X3.3433Y-4.3307
X3.3433Y-5.315
X3.3433Y-6.2992
X3.5465Y-0.7874
X3.5465Y-1.5748
X3.5465Y-2.3622
X3.5465Y-3.1496
X3.7433Y-4.3307
X3.7433Y-5.315
X3.7433Y-6.2992
X3.9339Y-0.7874
X3.9339Y-1.5748
X3.9339Y-2.3622
X3.9339Y-3.1496
X4.3276Y-4.3307
X4.3276Y-5.1181
X4.3276Y-5.9055
X4.3276Y-6.6929
X4.3276Y-7.4803
X4.3339Y-0.7874
X4.3339Y-1.5748
X4.3339Y-2.3622
X4.3339Y-3.1496
X4.7276Y-4.3307
X4.7276Y-5.1181
X4.7276Y-5.9055
X4.7276Y-6.6929
X4.7276Y-7.4803
X5.115Y-0.7874
X5.115Y-1.5748
X5.115Y-2.3622
X5.115Y-3.1496
X5.115Y-4.3307
X5.115Y-5.1181
X5.115Y-5.9055
X5.115Y-6.6929
X5.515Y-0.7874
X5.515Y-1.5748
X5.515Y-2.3622
X5.515Y-3.1496
X5.515Y-4.3307
X5.515Y-5.1181
X5.515Y-5.9055
X5.515Y-6.6929
X5.9024Y-0.7874
X5.9024Y-1.5748
X5.9024Y-2.3622
X5.9024Y-3.1496
X5.9024Y-4.3307
X5.9024Y-5.1181
X5.9024Y-5.9055
X5.9024Y-6.6929
X6.2961Y-7.4803
X6.3024Y-0.7874
X6.3024Y-1.5748
X6.3024Y-2.3622
X6.3024Y-3.1496
X6.3024Y-4.3307
X6.3024Y-5.1181
X6.3024Y-5.9055
X6.3024Y-6.6929
X6.6898Y-0.7874
X6.6898Y-1.5748
X6.6898Y-2.3622
X6.6898Y-3.1496
X6.6898Y-4.3307
X6.6898Y-5.1181
X6.6898Y-5.9055
X6.6898Y-6.6929
X6.6961Y-7.4803
X7.0898Y-0.7874
X7.0898Y-1.5748
X7.0898Y-2.3622
X7.0898Y-3.1496
X7.0898Y-4.3307
X7.0898Y-5.1181
X7.0898Y-5.9055
X7.0898Y-6.6929
X7.8709Y-0.7874
X7.8709Y-1.9685
X7.8709Y-3.1496
X7.8709Y-4.3307
X8.2646Y-6.6929
X8.2709Y-0.7874
X8.2709Y-1.9685
X8.2709Y-3.1496
X8.2709Y-4.3307
X8.6646Y-6.6929
X9.052Y-0.7874
X9.052Y-1.5748
X9.052Y-2.3622
X9.052Y-3.1496
X9.052Y-4.3307
X9.052Y-5.9055
X9.052Y-6.6929
X9.052Y-7.4803
X9.452Y-0.7874
X9.452Y-1.5748
X9.452Y-2.3622
X9.452Y-3.1496
X9.452Y-4.3307
X9.452Y-5.9055
X9.452Y-6.6929
X9.452Y-7.4803
X9.8394Y-3.1496
X9.8394Y-4.3307
X9.8394Y-6.6929
X10.0362Y-0.7874
X10.2394Y-3.1496
X10.2394Y-4.3307
X10.2394Y-6.6929
X10.4362Y-0.7874
X10.8236Y-0.7874
X11.2236Y-0.7874
X11.6079Y-0.7874
X11.611Y-1.9685
X12.0079Y-0.7874
X12.011Y-1.9685
T2
X10.7087Y-4.8256
T3
X2.5591Y-0.7874
X2.5591Y-1.5748
X2.5591Y-2.3622
X2.5591Y-3.1496
X2.5591Y-4.3307
X2.5591Y-5.315
X2.5591Y-6.2992
X2.5591Y-7.4803
X3.3465Y-0.7874
X3.3465Y-1.5748
X3.3465Y-2.3622
X3.3465Y-3.1496
X3.5433Y-4.3307
X3.5433Y-5.315
X3.5433Y-6.2992
X4.1339Y-0.7874
X4.1339Y-1.5748
X4.1339Y-2.3622
X4.1339Y-3.1496
X4.5276Y-4.3307
X4.5276Y-5.1181
X4.5276Y-5.9055
X4.5276Y-6.6929
X4.5276Y-7.4803
X5.315Y-0.7874
X5.315Y-1.5748
X5.315Y-2.3622
X5.315Y-3.1496
X5.315Y-4.3307
X5.315Y-5.1181
X5.315Y-5.9055
X5.315Y-6.6929
X6.1024Y-0.7874
X6.1024Y-1.5748
X6.1024Y-2.3622
X6.1024Y-3.1496
X6.1024Y-4.3307
X6.1024Y-5.1181
X6.1024Y-5.9055
X6.1024Y-6.6929
X6.4961Y-7.4803
X6.8898Y-0.7874
X6.8898Y-1.5748
X6.8898Y-2.3622
X6.8898Y-3.1496
X6.8898Y-4.3307
X6.8898Y-5.1181
X6.8898Y-5.9055
X6.8898Y-6.6929
X8.0709Y-0.7874
X8.0709Y-1.9685
X8.0709Y-3.1496
X8.0709Y-4.3307
X8.4646Y-6.6929
X9.252Y-0.7874
X9.252Y-1.5748
X9.252Y-2.3622
X9.252Y-3.1496
X9.252Y-4.3307
X9.252Y-5.9055
X9.252Y-6.6929
X9.252Y-7.4803
X10.0394Y-3.1496
X10.0394Y-4.3307
X10.0394Y-6.6929
X10.2362Y-0.7874
X11.0236Y-0.7874
X11.8079Y-0.7874
X11.811Y-1.9685
T0
M30
