%TF.GenerationSoftware,KiCad,Pcbnew,7.0.5*%
%TF.CreationDate,2023-07-04T22:58:32+02:00*%
%TF.ProjectId,CMD_Board,434d445f-426f-4617-9264-2e6b69636164,rev?*%
%TF.SameCoordinates,Original*%
%TF.FileFunction,Legend,Bot*%
%TF.FilePolarity,Positive*%
%FSLAX46Y46*%
G04 Gerber Fmt 4.6, Leading zero omitted, Abs format (unit mm)*
G04 Created by KiCad (PCBNEW 7.0.5) date 2023-07-04 22:58:32*
%MOMM*%
%LPD*%
G01*
G04 APERTURE LIST*
%ADD10C,0.500000*%
%ADD11C,0.300000*%
%ADD12C,0.150000*%
%ADD13C,0.120000*%
G04 APERTURE END LIST*
D10*
X258714286Y-129361857D02*
X258714286Y-126361857D01*
X258714286Y-129219000D02*
X259000000Y-129361857D01*
X259000000Y-129361857D02*
X259571428Y-129361857D01*
X259571428Y-129361857D02*
X259857143Y-129219000D01*
X259857143Y-129219000D02*
X260000000Y-129076142D01*
X260000000Y-129076142D02*
X260142857Y-128790428D01*
X260142857Y-128790428D02*
X260142857Y-127933285D01*
X260142857Y-127933285D02*
X260000000Y-127647571D01*
X260000000Y-127647571D02*
X259857143Y-127504714D01*
X259857143Y-127504714D02*
X259571428Y-127361857D01*
X259571428Y-127361857D02*
X259000000Y-127361857D01*
X259000000Y-127361857D02*
X258714286Y-127504714D01*
X257285714Y-129361857D02*
X257285714Y-127361857D01*
X257285714Y-126361857D02*
X257428571Y-126504714D01*
X257428571Y-126504714D02*
X257285714Y-126647571D01*
X257285714Y-126647571D02*
X257142857Y-126504714D01*
X257142857Y-126504714D02*
X257285714Y-126361857D01*
X257285714Y-126361857D02*
X257285714Y-126647571D01*
X256142857Y-127361857D02*
X255428571Y-129361857D01*
X254714286Y-127361857D02*
X255428571Y-129361857D01*
X255428571Y-129361857D02*
X255714286Y-130076142D01*
X255714286Y-130076142D02*
X255857143Y-130219000D01*
X255857143Y-130219000D02*
X256142857Y-130361857D01*
X253571429Y-129361857D02*
X253571429Y-126361857D01*
X253571429Y-126361857D02*
X252571429Y-128504714D01*
X252571429Y-128504714D02*
X251571429Y-126361857D01*
X251571429Y-126361857D02*
X251571429Y-129361857D01*
X250285715Y-128504714D02*
X248857144Y-128504714D01*
X250571429Y-129361857D02*
X249571429Y-126361857D01*
X249571429Y-126361857D02*
X248571429Y-129361857D01*
X243571429Y-129076142D02*
X243714286Y-129219000D01*
X243714286Y-129219000D02*
X244142858Y-129361857D01*
X244142858Y-129361857D02*
X244428572Y-129361857D01*
X244428572Y-129361857D02*
X244857143Y-129219000D01*
X244857143Y-129219000D02*
X245142858Y-128933285D01*
X245142858Y-128933285D02*
X245285715Y-128647571D01*
X245285715Y-128647571D02*
X245428572Y-128076142D01*
X245428572Y-128076142D02*
X245428572Y-127647571D01*
X245428572Y-127647571D02*
X245285715Y-127076142D01*
X245285715Y-127076142D02*
X245142858Y-126790428D01*
X245142858Y-126790428D02*
X244857143Y-126504714D01*
X244857143Y-126504714D02*
X244428572Y-126361857D01*
X244428572Y-126361857D02*
X244142858Y-126361857D01*
X244142858Y-126361857D02*
X243714286Y-126504714D01*
X243714286Y-126504714D02*
X243571429Y-126647571D01*
X241857143Y-129361857D02*
X242142858Y-129219000D01*
X242142858Y-129219000D02*
X242285715Y-129076142D01*
X242285715Y-129076142D02*
X242428572Y-128790428D01*
X242428572Y-128790428D02*
X242428572Y-127933285D01*
X242428572Y-127933285D02*
X242285715Y-127647571D01*
X242285715Y-127647571D02*
X242142858Y-127504714D01*
X242142858Y-127504714D02*
X241857143Y-127361857D01*
X241857143Y-127361857D02*
X241428572Y-127361857D01*
X241428572Y-127361857D02*
X241142858Y-127504714D01*
X241142858Y-127504714D02*
X241000001Y-127647571D01*
X241000001Y-127647571D02*
X240857143Y-127933285D01*
X240857143Y-127933285D02*
X240857143Y-128790428D01*
X240857143Y-128790428D02*
X241000001Y-129076142D01*
X241000001Y-129076142D02*
X241142858Y-129219000D01*
X241142858Y-129219000D02*
X241428572Y-129361857D01*
X241428572Y-129361857D02*
X241857143Y-129361857D01*
X239571429Y-129361857D02*
X239571429Y-127361857D01*
X239571429Y-127647571D02*
X239428572Y-127504714D01*
X239428572Y-127504714D02*
X239142857Y-127361857D01*
X239142857Y-127361857D02*
X238714286Y-127361857D01*
X238714286Y-127361857D02*
X238428572Y-127504714D01*
X238428572Y-127504714D02*
X238285715Y-127790428D01*
X238285715Y-127790428D02*
X238285715Y-129361857D01*
X238285715Y-127790428D02*
X238142857Y-127504714D01*
X238142857Y-127504714D02*
X237857143Y-127361857D01*
X237857143Y-127361857D02*
X237428572Y-127361857D01*
X237428572Y-127361857D02*
X237142857Y-127504714D01*
X237142857Y-127504714D02*
X237000000Y-127790428D01*
X237000000Y-127790428D02*
X237000000Y-129361857D01*
X234285715Y-129361857D02*
X234285715Y-127790428D01*
X234285715Y-127790428D02*
X234428572Y-127504714D01*
X234428572Y-127504714D02*
X234714286Y-127361857D01*
X234714286Y-127361857D02*
X235285715Y-127361857D01*
X235285715Y-127361857D02*
X235571429Y-127504714D01*
X234285715Y-129219000D02*
X234571429Y-129361857D01*
X234571429Y-129361857D02*
X235285715Y-129361857D01*
X235285715Y-129361857D02*
X235571429Y-129219000D01*
X235571429Y-129219000D02*
X235714286Y-128933285D01*
X235714286Y-128933285D02*
X235714286Y-128647571D01*
X235714286Y-128647571D02*
X235571429Y-128361857D01*
X235571429Y-128361857D02*
X235285715Y-128219000D01*
X235285715Y-128219000D02*
X234571429Y-128219000D01*
X234571429Y-128219000D02*
X234285715Y-128076142D01*
X232857143Y-127361857D02*
X232857143Y-129361857D01*
X232857143Y-127647571D02*
X232714286Y-127504714D01*
X232714286Y-127504714D02*
X232428571Y-127361857D01*
X232428571Y-127361857D02*
X232000000Y-127361857D01*
X232000000Y-127361857D02*
X231714286Y-127504714D01*
X231714286Y-127504714D02*
X231571429Y-127790428D01*
X231571429Y-127790428D02*
X231571429Y-129361857D01*
X228857143Y-129361857D02*
X228857143Y-126361857D01*
X228857143Y-129219000D02*
X229142857Y-129361857D01*
X229142857Y-129361857D02*
X229714285Y-129361857D01*
X229714285Y-129361857D02*
X230000000Y-129219000D01*
X230000000Y-129219000D02*
X230142857Y-129076142D01*
X230142857Y-129076142D02*
X230285714Y-128790428D01*
X230285714Y-128790428D02*
X230285714Y-127933285D01*
X230285714Y-127933285D02*
X230142857Y-127647571D01*
X230142857Y-127647571D02*
X230000000Y-127504714D01*
X230000000Y-127504714D02*
X229714285Y-127361857D01*
X229714285Y-127361857D02*
X229142857Y-127361857D01*
X229142857Y-127361857D02*
X228857143Y-127504714D01*
X225285714Y-129219000D02*
X224857143Y-129361857D01*
X224857143Y-129361857D02*
X224142857Y-129361857D01*
X224142857Y-129361857D02*
X223857143Y-129219000D01*
X223857143Y-129219000D02*
X223714285Y-129076142D01*
X223714285Y-129076142D02*
X223571428Y-128790428D01*
X223571428Y-128790428D02*
X223571428Y-128504714D01*
X223571428Y-128504714D02*
X223714285Y-128219000D01*
X223714285Y-128219000D02*
X223857143Y-128076142D01*
X223857143Y-128076142D02*
X224142857Y-127933285D01*
X224142857Y-127933285D02*
X224714285Y-127790428D01*
X224714285Y-127790428D02*
X225000000Y-127647571D01*
X225000000Y-127647571D02*
X225142857Y-127504714D01*
X225142857Y-127504714D02*
X225285714Y-127219000D01*
X225285714Y-127219000D02*
X225285714Y-126933285D01*
X225285714Y-126933285D02*
X225142857Y-126647571D01*
X225142857Y-126647571D02*
X225000000Y-126504714D01*
X225000000Y-126504714D02*
X224714285Y-126361857D01*
X224714285Y-126361857D02*
X224000000Y-126361857D01*
X224000000Y-126361857D02*
X223571428Y-126504714D01*
X221142857Y-129219000D02*
X221428571Y-129361857D01*
X221428571Y-129361857D02*
X222000000Y-129361857D01*
X222000000Y-129361857D02*
X222285714Y-129219000D01*
X222285714Y-129219000D02*
X222428571Y-128933285D01*
X222428571Y-128933285D02*
X222428571Y-127790428D01*
X222428571Y-127790428D02*
X222285714Y-127504714D01*
X222285714Y-127504714D02*
X222000000Y-127361857D01*
X222000000Y-127361857D02*
X221428571Y-127361857D01*
X221428571Y-127361857D02*
X221142857Y-127504714D01*
X221142857Y-127504714D02*
X221000000Y-127790428D01*
X221000000Y-127790428D02*
X221000000Y-128076142D01*
X221000000Y-128076142D02*
X222428571Y-128361857D01*
X218428571Y-129219000D02*
X218714285Y-129361857D01*
X218714285Y-129361857D02*
X219285713Y-129361857D01*
X219285713Y-129361857D02*
X219571428Y-129219000D01*
X219571428Y-129219000D02*
X219714285Y-129076142D01*
X219714285Y-129076142D02*
X219857142Y-128790428D01*
X219857142Y-128790428D02*
X219857142Y-127933285D01*
X219857142Y-127933285D02*
X219714285Y-127647571D01*
X219714285Y-127647571D02*
X219571428Y-127504714D01*
X219571428Y-127504714D02*
X219285713Y-127361857D01*
X219285713Y-127361857D02*
X218714285Y-127361857D01*
X218714285Y-127361857D02*
X218428571Y-127504714D01*
X217571427Y-127361857D02*
X216428570Y-127361857D01*
X217142856Y-126361857D02*
X217142856Y-128933285D01*
X217142856Y-128933285D02*
X216999999Y-129219000D01*
X216999999Y-129219000D02*
X216714284Y-129361857D01*
X216714284Y-129361857D02*
X216428570Y-129361857D01*
X215428570Y-129361857D02*
X215428570Y-127361857D01*
X215428570Y-126361857D02*
X215571427Y-126504714D01*
X215571427Y-126504714D02*
X215428570Y-126647571D01*
X215428570Y-126647571D02*
X215285713Y-126504714D01*
X215285713Y-126504714D02*
X215428570Y-126361857D01*
X215428570Y-126361857D02*
X215428570Y-126647571D01*
X213571427Y-129361857D02*
X213857142Y-129219000D01*
X213857142Y-129219000D02*
X213999999Y-129076142D01*
X213999999Y-129076142D02*
X214142856Y-128790428D01*
X214142856Y-128790428D02*
X214142856Y-127933285D01*
X214142856Y-127933285D02*
X213999999Y-127647571D01*
X213999999Y-127647571D02*
X213857142Y-127504714D01*
X213857142Y-127504714D02*
X213571427Y-127361857D01*
X213571427Y-127361857D02*
X213142856Y-127361857D01*
X213142856Y-127361857D02*
X212857142Y-127504714D01*
X212857142Y-127504714D02*
X212714285Y-127647571D01*
X212714285Y-127647571D02*
X212571427Y-127933285D01*
X212571427Y-127933285D02*
X212571427Y-128790428D01*
X212571427Y-128790428D02*
X212714285Y-129076142D01*
X212714285Y-129076142D02*
X212857142Y-129219000D01*
X212857142Y-129219000D02*
X213142856Y-129361857D01*
X213142856Y-129361857D02*
X213571427Y-129361857D01*
X211285713Y-127361857D02*
X211285713Y-129361857D01*
X211285713Y-127647571D02*
X211142856Y-127504714D01*
X211142856Y-127504714D02*
X210857141Y-127361857D01*
X210857141Y-127361857D02*
X210428570Y-127361857D01*
X210428570Y-127361857D02*
X210142856Y-127504714D01*
X210142856Y-127504714D02*
X209999999Y-127790428D01*
X209999999Y-127790428D02*
X209999999Y-129361857D01*
D11*
X252821428Y-131178328D02*
X252535714Y-132178328D01*
X252535714Y-132178328D02*
X252249999Y-131464042D01*
X252249999Y-131464042D02*
X251964285Y-132178328D01*
X251964285Y-132178328D02*
X251678571Y-131178328D01*
X251249999Y-131178328D02*
X250964285Y-132178328D01*
X250964285Y-132178328D02*
X250678570Y-131464042D01*
X250678570Y-131464042D02*
X250392856Y-132178328D01*
X250392856Y-132178328D02*
X250107142Y-131178328D01*
X249678570Y-131178328D02*
X249392856Y-132178328D01*
X249392856Y-132178328D02*
X249107141Y-131464042D01*
X249107141Y-131464042D02*
X248821427Y-132178328D01*
X248821427Y-132178328D02*
X248535713Y-131178328D01*
X247964284Y-132035471D02*
X247892855Y-132106900D01*
X247892855Y-132106900D02*
X247964284Y-132178328D01*
X247964284Y-132178328D02*
X248035712Y-132106900D01*
X248035712Y-132106900D02*
X247964284Y-132035471D01*
X247964284Y-132035471D02*
X247964284Y-132178328D01*
X246607141Y-132178328D02*
X246607141Y-130678328D01*
X246607141Y-132106900D02*
X246749998Y-132178328D01*
X246749998Y-132178328D02*
X247035712Y-132178328D01*
X247035712Y-132178328D02*
X247178569Y-132106900D01*
X247178569Y-132106900D02*
X247249998Y-132035471D01*
X247249998Y-132035471D02*
X247321426Y-131892614D01*
X247321426Y-131892614D02*
X247321426Y-131464042D01*
X247321426Y-131464042D02*
X247249998Y-131321185D01*
X247249998Y-131321185D02*
X247178569Y-131249757D01*
X247178569Y-131249757D02*
X247035712Y-131178328D01*
X247035712Y-131178328D02*
X246749998Y-131178328D01*
X246749998Y-131178328D02*
X246607141Y-131249757D01*
X245321426Y-132106900D02*
X245464283Y-132178328D01*
X245464283Y-132178328D02*
X245749998Y-132178328D01*
X245749998Y-132178328D02*
X245892855Y-132106900D01*
X245892855Y-132106900D02*
X245964283Y-131964042D01*
X245964283Y-131964042D02*
X245964283Y-131392614D01*
X245964283Y-131392614D02*
X245892855Y-131249757D01*
X245892855Y-131249757D02*
X245749998Y-131178328D01*
X245749998Y-131178328D02*
X245464283Y-131178328D01*
X245464283Y-131178328D02*
X245321426Y-131249757D01*
X245321426Y-131249757D02*
X245249998Y-131392614D01*
X245249998Y-131392614D02*
X245249998Y-131535471D01*
X245249998Y-131535471D02*
X245964283Y-131678328D01*
X244607141Y-131178328D02*
X244607141Y-132178328D01*
X244607141Y-131321185D02*
X244535712Y-131249757D01*
X244535712Y-131249757D02*
X244392855Y-131178328D01*
X244392855Y-131178328D02*
X244178569Y-131178328D01*
X244178569Y-131178328D02*
X244035712Y-131249757D01*
X244035712Y-131249757D02*
X243964284Y-131392614D01*
X243964284Y-131392614D02*
X243964284Y-132178328D01*
X243249998Y-131178328D02*
X243249998Y-132178328D01*
X243249998Y-131321185D02*
X243178569Y-131249757D01*
X243178569Y-131249757D02*
X243035712Y-131178328D01*
X243035712Y-131178328D02*
X242821426Y-131178328D01*
X242821426Y-131178328D02*
X242678569Y-131249757D01*
X242678569Y-131249757D02*
X242607141Y-131392614D01*
X242607141Y-131392614D02*
X242607141Y-132178328D01*
X241892855Y-132178328D02*
X241892855Y-131178328D01*
X241892855Y-130678328D02*
X241964283Y-130749757D01*
X241964283Y-130749757D02*
X241892855Y-130821185D01*
X241892855Y-130821185D02*
X241821426Y-130749757D01*
X241821426Y-130749757D02*
X241892855Y-130678328D01*
X241892855Y-130678328D02*
X241892855Y-130821185D01*
X241249997Y-132106900D02*
X241107140Y-132178328D01*
X241107140Y-132178328D02*
X240821426Y-132178328D01*
X240821426Y-132178328D02*
X240678569Y-132106900D01*
X240678569Y-132106900D02*
X240607140Y-131964042D01*
X240607140Y-131964042D02*
X240607140Y-131892614D01*
X240607140Y-131892614D02*
X240678569Y-131749757D01*
X240678569Y-131749757D02*
X240821426Y-131678328D01*
X240821426Y-131678328D02*
X241035712Y-131678328D01*
X241035712Y-131678328D02*
X241178569Y-131606900D01*
X241178569Y-131606900D02*
X241249997Y-131464042D01*
X241249997Y-131464042D02*
X241249997Y-131392614D01*
X241249997Y-131392614D02*
X241178569Y-131249757D01*
X241178569Y-131249757D02*
X241035712Y-131178328D01*
X241035712Y-131178328D02*
X240821426Y-131178328D01*
X240821426Y-131178328D02*
X240678569Y-131249757D01*
X239321426Y-131178328D02*
X239321426Y-132392614D01*
X239321426Y-132392614D02*
X239392854Y-132535471D01*
X239392854Y-132535471D02*
X239464283Y-132606900D01*
X239464283Y-132606900D02*
X239607140Y-132678328D01*
X239607140Y-132678328D02*
X239821426Y-132678328D01*
X239821426Y-132678328D02*
X239964283Y-132606900D01*
X239321426Y-132106900D02*
X239464283Y-132178328D01*
X239464283Y-132178328D02*
X239749997Y-132178328D01*
X239749997Y-132178328D02*
X239892854Y-132106900D01*
X239892854Y-132106900D02*
X239964283Y-132035471D01*
X239964283Y-132035471D02*
X240035711Y-131892614D01*
X240035711Y-131892614D02*
X240035711Y-131464042D01*
X240035711Y-131464042D02*
X239964283Y-131321185D01*
X239964283Y-131321185D02*
X239892854Y-131249757D01*
X239892854Y-131249757D02*
X239749997Y-131178328D01*
X239749997Y-131178328D02*
X239464283Y-131178328D01*
X239464283Y-131178328D02*
X239321426Y-131249757D01*
X237964283Y-131178328D02*
X237964283Y-132178328D01*
X238607140Y-131178328D02*
X238607140Y-131964042D01*
X238607140Y-131964042D02*
X238535711Y-132106900D01*
X238535711Y-132106900D02*
X238392854Y-132178328D01*
X238392854Y-132178328D02*
X238178568Y-132178328D01*
X238178568Y-132178328D02*
X238035711Y-132106900D01*
X238035711Y-132106900D02*
X237964283Y-132035471D01*
X237249997Y-131178328D02*
X237249997Y-132178328D01*
X237249997Y-131321185D02*
X237178568Y-131249757D01*
X237178568Y-131249757D02*
X237035711Y-131178328D01*
X237035711Y-131178328D02*
X236821425Y-131178328D01*
X236821425Y-131178328D02*
X236678568Y-131249757D01*
X236678568Y-131249757D02*
X236607140Y-131392614D01*
X236607140Y-131392614D02*
X236607140Y-132178328D01*
X235892854Y-132178328D02*
X235892854Y-131178328D01*
X235892854Y-130678328D02*
X235964282Y-130749757D01*
X235964282Y-130749757D02*
X235892854Y-130821185D01*
X235892854Y-130821185D02*
X235821425Y-130749757D01*
X235821425Y-130749757D02*
X235892854Y-130678328D01*
X235892854Y-130678328D02*
X235892854Y-130821185D01*
X234535711Y-132178328D02*
X234535711Y-131392614D01*
X234535711Y-131392614D02*
X234607139Y-131249757D01*
X234607139Y-131249757D02*
X234749996Y-131178328D01*
X234749996Y-131178328D02*
X235035711Y-131178328D01*
X235035711Y-131178328D02*
X235178568Y-131249757D01*
X234535711Y-132106900D02*
X234678568Y-132178328D01*
X234678568Y-132178328D02*
X235035711Y-132178328D01*
X235035711Y-132178328D02*
X235178568Y-132106900D01*
X235178568Y-132106900D02*
X235249996Y-131964042D01*
X235249996Y-131964042D02*
X235249996Y-131821185D01*
X235249996Y-131821185D02*
X235178568Y-131678328D01*
X235178568Y-131678328D02*
X235035711Y-131606900D01*
X235035711Y-131606900D02*
X234678568Y-131606900D01*
X234678568Y-131606900D02*
X234535711Y-131535471D01*
X233821425Y-132035471D02*
X233749996Y-132106900D01*
X233749996Y-132106900D02*
X233821425Y-132178328D01*
X233821425Y-132178328D02*
X233892853Y-132106900D01*
X233892853Y-132106900D02*
X233821425Y-132035471D01*
X233821425Y-132035471D02*
X233821425Y-132178328D01*
X232464282Y-132178328D02*
X232464282Y-130678328D01*
X232464282Y-132106900D02*
X232607139Y-132178328D01*
X232607139Y-132178328D02*
X232892853Y-132178328D01*
X232892853Y-132178328D02*
X233035710Y-132106900D01*
X233035710Y-132106900D02*
X233107139Y-132035471D01*
X233107139Y-132035471D02*
X233178567Y-131892614D01*
X233178567Y-131892614D02*
X233178567Y-131464042D01*
X233178567Y-131464042D02*
X233107139Y-131321185D01*
X233107139Y-131321185D02*
X233035710Y-131249757D01*
X233035710Y-131249757D02*
X232892853Y-131178328D01*
X232892853Y-131178328D02*
X232607139Y-131178328D01*
X232607139Y-131178328D02*
X232464282Y-131249757D01*
X231178567Y-132106900D02*
X231321424Y-132178328D01*
X231321424Y-132178328D02*
X231607139Y-132178328D01*
X231607139Y-132178328D02*
X231749996Y-132106900D01*
X231749996Y-132106900D02*
X231821424Y-131964042D01*
X231821424Y-131964042D02*
X231821424Y-131392614D01*
X231821424Y-131392614D02*
X231749996Y-131249757D01*
X231749996Y-131249757D02*
X231607139Y-131178328D01*
X231607139Y-131178328D02*
X231321424Y-131178328D01*
X231321424Y-131178328D02*
X231178567Y-131249757D01*
X231178567Y-131249757D02*
X231107139Y-131392614D01*
X231107139Y-131392614D02*
X231107139Y-131535471D01*
X231107139Y-131535471D02*
X231821424Y-131678328D01*
X228964282Y-132678328D02*
X228964282Y-130535471D01*
X226821425Y-130821185D02*
X226749997Y-130749757D01*
X226749997Y-130749757D02*
X226607140Y-130678328D01*
X226607140Y-130678328D02*
X226249997Y-130678328D01*
X226249997Y-130678328D02*
X226107140Y-130749757D01*
X226107140Y-130749757D02*
X226035711Y-130821185D01*
X226035711Y-130821185D02*
X225964282Y-130964042D01*
X225964282Y-130964042D02*
X225964282Y-131106900D01*
X225964282Y-131106900D02*
X226035711Y-131321185D01*
X226035711Y-131321185D02*
X226892854Y-132178328D01*
X226892854Y-132178328D02*
X225964282Y-132178328D01*
X225035711Y-130678328D02*
X224892854Y-130678328D01*
X224892854Y-130678328D02*
X224749997Y-130749757D01*
X224749997Y-130749757D02*
X224678569Y-130821185D01*
X224678569Y-130821185D02*
X224607140Y-130964042D01*
X224607140Y-130964042D02*
X224535711Y-131249757D01*
X224535711Y-131249757D02*
X224535711Y-131606900D01*
X224535711Y-131606900D02*
X224607140Y-131892614D01*
X224607140Y-131892614D02*
X224678569Y-132035471D01*
X224678569Y-132035471D02*
X224749997Y-132106900D01*
X224749997Y-132106900D02*
X224892854Y-132178328D01*
X224892854Y-132178328D02*
X225035711Y-132178328D01*
X225035711Y-132178328D02*
X225178569Y-132106900D01*
X225178569Y-132106900D02*
X225249997Y-132035471D01*
X225249997Y-132035471D02*
X225321426Y-131892614D01*
X225321426Y-131892614D02*
X225392854Y-131606900D01*
X225392854Y-131606900D02*
X225392854Y-131249757D01*
X225392854Y-131249757D02*
X225321426Y-130964042D01*
X225321426Y-130964042D02*
X225249997Y-130821185D01*
X225249997Y-130821185D02*
X225178569Y-130749757D01*
X225178569Y-130749757D02*
X225035711Y-130678328D01*
X223964283Y-130821185D02*
X223892855Y-130749757D01*
X223892855Y-130749757D02*
X223749998Y-130678328D01*
X223749998Y-130678328D02*
X223392855Y-130678328D01*
X223392855Y-130678328D02*
X223249998Y-130749757D01*
X223249998Y-130749757D02*
X223178569Y-130821185D01*
X223178569Y-130821185D02*
X223107140Y-130964042D01*
X223107140Y-130964042D02*
X223107140Y-131106900D01*
X223107140Y-131106900D02*
X223178569Y-131321185D01*
X223178569Y-131321185D02*
X224035712Y-132178328D01*
X224035712Y-132178328D02*
X223107140Y-132178328D01*
X222607141Y-130678328D02*
X221678569Y-130678328D01*
X221678569Y-130678328D02*
X222178569Y-131249757D01*
X222178569Y-131249757D02*
X221964284Y-131249757D01*
X221964284Y-131249757D02*
X221821427Y-131321185D01*
X221821427Y-131321185D02*
X221749998Y-131392614D01*
X221749998Y-131392614D02*
X221678569Y-131535471D01*
X221678569Y-131535471D02*
X221678569Y-131892614D01*
X221678569Y-131892614D02*
X221749998Y-132035471D01*
X221749998Y-132035471D02*
X221821427Y-132106900D01*
X221821427Y-132106900D02*
X221964284Y-132178328D01*
X221964284Y-132178328D02*
X222392855Y-132178328D01*
X222392855Y-132178328D02*
X222535712Y-132106900D01*
X222535712Y-132106900D02*
X222607141Y-132035471D01*
X219964284Y-130606900D02*
X221249998Y-132535471D01*
X219178569Y-130678328D02*
X219035712Y-130678328D01*
X219035712Y-130678328D02*
X218892855Y-130749757D01*
X218892855Y-130749757D02*
X218821427Y-130821185D01*
X218821427Y-130821185D02*
X218749998Y-130964042D01*
X218749998Y-130964042D02*
X218678569Y-131249757D01*
X218678569Y-131249757D02*
X218678569Y-131606900D01*
X218678569Y-131606900D02*
X218749998Y-131892614D01*
X218749998Y-131892614D02*
X218821427Y-132035471D01*
X218821427Y-132035471D02*
X218892855Y-132106900D01*
X218892855Y-132106900D02*
X219035712Y-132178328D01*
X219035712Y-132178328D02*
X219178569Y-132178328D01*
X219178569Y-132178328D02*
X219321427Y-132106900D01*
X219321427Y-132106900D02*
X219392855Y-132035471D01*
X219392855Y-132035471D02*
X219464284Y-131892614D01*
X219464284Y-131892614D02*
X219535712Y-131606900D01*
X219535712Y-131606900D02*
X219535712Y-131249757D01*
X219535712Y-131249757D02*
X219464284Y-130964042D01*
X219464284Y-130964042D02*
X219392855Y-130821185D01*
X219392855Y-130821185D02*
X219321427Y-130749757D01*
X219321427Y-130749757D02*
X219178569Y-130678328D01*
X218107141Y-130821185D02*
X218035713Y-130749757D01*
X218035713Y-130749757D02*
X217892856Y-130678328D01*
X217892856Y-130678328D02*
X217535713Y-130678328D01*
X217535713Y-130678328D02*
X217392856Y-130749757D01*
X217392856Y-130749757D02*
X217321427Y-130821185D01*
X217321427Y-130821185D02*
X217249998Y-130964042D01*
X217249998Y-130964042D02*
X217249998Y-131106900D01*
X217249998Y-131106900D02*
X217321427Y-131321185D01*
X217321427Y-131321185D02*
X218178570Y-132178328D01*
X218178570Y-132178328D02*
X217249998Y-132178328D01*
D12*
%TO.C,J4*%
X314563333Y-150484819D02*
X314563333Y-151199104D01*
X314563333Y-151199104D02*
X314610952Y-151341961D01*
X314610952Y-151341961D02*
X314706190Y-151437200D01*
X314706190Y-151437200D02*
X314849047Y-151484819D01*
X314849047Y-151484819D02*
X314944285Y-151484819D01*
X313658571Y-150818152D02*
X313658571Y-151484819D01*
X313896666Y-150437200D02*
X314134761Y-151151485D01*
X314134761Y-151151485D02*
X313515714Y-151151485D01*
%TO.C,J5*%
X314563333Y-91984819D02*
X314563333Y-92699104D01*
X314563333Y-92699104D02*
X314610952Y-92841961D01*
X314610952Y-92841961D02*
X314706190Y-92937200D01*
X314706190Y-92937200D02*
X314849047Y-92984819D01*
X314849047Y-92984819D02*
X314944285Y-92984819D01*
X313610952Y-91984819D02*
X314087142Y-91984819D01*
X314087142Y-91984819D02*
X314134761Y-92461009D01*
X314134761Y-92461009D02*
X314087142Y-92413390D01*
X314087142Y-92413390D02*
X313991904Y-92365771D01*
X313991904Y-92365771D02*
X313753809Y-92365771D01*
X313753809Y-92365771D02*
X313658571Y-92413390D01*
X313658571Y-92413390D02*
X313610952Y-92461009D01*
X313610952Y-92461009D02*
X313563333Y-92556247D01*
X313563333Y-92556247D02*
X313563333Y-92794342D01*
X313563333Y-92794342D02*
X313610952Y-92889580D01*
X313610952Y-92889580D02*
X313658571Y-92937200D01*
X313658571Y-92937200D02*
X313753809Y-92984819D01*
X313753809Y-92984819D02*
X313991904Y-92984819D01*
X313991904Y-92984819D02*
X314087142Y-92937200D01*
X314087142Y-92937200D02*
X314134761Y-92889580D01*
%TO.C,D18*%
X316924819Y-49205714D02*
X315924819Y-49205714D01*
X315924819Y-49205714D02*
X315924819Y-49443809D01*
X315924819Y-49443809D02*
X315972438Y-49586666D01*
X315972438Y-49586666D02*
X316067676Y-49681904D01*
X316067676Y-49681904D02*
X316162914Y-49729523D01*
X316162914Y-49729523D02*
X316353390Y-49777142D01*
X316353390Y-49777142D02*
X316496247Y-49777142D01*
X316496247Y-49777142D02*
X316686723Y-49729523D01*
X316686723Y-49729523D02*
X316781961Y-49681904D01*
X316781961Y-49681904D02*
X316877200Y-49586666D01*
X316877200Y-49586666D02*
X316924819Y-49443809D01*
X316924819Y-49443809D02*
X316924819Y-49205714D01*
X316924819Y-50729523D02*
X316924819Y-50158095D01*
X316924819Y-50443809D02*
X315924819Y-50443809D01*
X315924819Y-50443809D02*
X316067676Y-50348571D01*
X316067676Y-50348571D02*
X316162914Y-50253333D01*
X316162914Y-50253333D02*
X316210533Y-50158095D01*
X316353390Y-51300952D02*
X316305771Y-51205714D01*
X316305771Y-51205714D02*
X316258152Y-51158095D01*
X316258152Y-51158095D02*
X316162914Y-51110476D01*
X316162914Y-51110476D02*
X316115295Y-51110476D01*
X316115295Y-51110476D02*
X316020057Y-51158095D01*
X316020057Y-51158095D02*
X315972438Y-51205714D01*
X315972438Y-51205714D02*
X315924819Y-51300952D01*
X315924819Y-51300952D02*
X315924819Y-51491428D01*
X315924819Y-51491428D02*
X315972438Y-51586666D01*
X315972438Y-51586666D02*
X316020057Y-51634285D01*
X316020057Y-51634285D02*
X316115295Y-51681904D01*
X316115295Y-51681904D02*
X316162914Y-51681904D01*
X316162914Y-51681904D02*
X316258152Y-51634285D01*
X316258152Y-51634285D02*
X316305771Y-51586666D01*
X316305771Y-51586666D02*
X316353390Y-51491428D01*
X316353390Y-51491428D02*
X316353390Y-51300952D01*
X316353390Y-51300952D02*
X316401009Y-51205714D01*
X316401009Y-51205714D02*
X316448628Y-51158095D01*
X316448628Y-51158095D02*
X316543866Y-51110476D01*
X316543866Y-51110476D02*
X316734342Y-51110476D01*
X316734342Y-51110476D02*
X316829580Y-51158095D01*
X316829580Y-51158095D02*
X316877200Y-51205714D01*
X316877200Y-51205714D02*
X316924819Y-51300952D01*
X316924819Y-51300952D02*
X316924819Y-51491428D01*
X316924819Y-51491428D02*
X316877200Y-51586666D01*
X316877200Y-51586666D02*
X316829580Y-51634285D01*
X316829580Y-51634285D02*
X316734342Y-51681904D01*
X316734342Y-51681904D02*
X316543866Y-51681904D01*
X316543866Y-51681904D02*
X316448628Y-51634285D01*
X316448628Y-51634285D02*
X316401009Y-51586666D01*
X316401009Y-51586666D02*
X316353390Y-51491428D01*
X316554819Y-55238095D02*
X315554819Y-55238095D01*
X316554819Y-55809523D02*
X315983390Y-55380952D01*
X315554819Y-55809523D02*
X316126247Y-55238095D01*
%TO.C,J1*%
X312045833Y-75354819D02*
X312045833Y-76069104D01*
X312045833Y-76069104D02*
X312093452Y-76211961D01*
X312093452Y-76211961D02*
X312188690Y-76307200D01*
X312188690Y-76307200D02*
X312331547Y-76354819D01*
X312331547Y-76354819D02*
X312426785Y-76354819D01*
X311045833Y-76354819D02*
X311617261Y-76354819D01*
X311331547Y-76354819D02*
X311331547Y-75354819D01*
X311331547Y-75354819D02*
X311426785Y-75497676D01*
X311426785Y-75497676D02*
X311522023Y-75592914D01*
X311522023Y-75592914D02*
X311617261Y-75640533D01*
%TO.C,R4*%
X261436666Y-42374819D02*
X261769999Y-41898628D01*
X262008094Y-42374819D02*
X262008094Y-41374819D01*
X262008094Y-41374819D02*
X261627142Y-41374819D01*
X261627142Y-41374819D02*
X261531904Y-41422438D01*
X261531904Y-41422438D02*
X261484285Y-41470057D01*
X261484285Y-41470057D02*
X261436666Y-41565295D01*
X261436666Y-41565295D02*
X261436666Y-41708152D01*
X261436666Y-41708152D02*
X261484285Y-41803390D01*
X261484285Y-41803390D02*
X261531904Y-41851009D01*
X261531904Y-41851009D02*
X261627142Y-41898628D01*
X261627142Y-41898628D02*
X262008094Y-41898628D01*
X260579523Y-41708152D02*
X260579523Y-42374819D01*
X260817618Y-41327200D02*
X261055713Y-42041485D01*
X261055713Y-42041485D02*
X260436666Y-42041485D01*
%TO.C,C1*%
X277166666Y-49109580D02*
X277214285Y-49157200D01*
X277214285Y-49157200D02*
X277357142Y-49204819D01*
X277357142Y-49204819D02*
X277452380Y-49204819D01*
X277452380Y-49204819D02*
X277595237Y-49157200D01*
X277595237Y-49157200D02*
X277690475Y-49061961D01*
X277690475Y-49061961D02*
X277738094Y-48966723D01*
X277738094Y-48966723D02*
X277785713Y-48776247D01*
X277785713Y-48776247D02*
X277785713Y-48633390D01*
X277785713Y-48633390D02*
X277738094Y-48442914D01*
X277738094Y-48442914D02*
X277690475Y-48347676D01*
X277690475Y-48347676D02*
X277595237Y-48252438D01*
X277595237Y-48252438D02*
X277452380Y-48204819D01*
X277452380Y-48204819D02*
X277357142Y-48204819D01*
X277357142Y-48204819D02*
X277214285Y-48252438D01*
X277214285Y-48252438D02*
X277166666Y-48300057D01*
X276214285Y-49204819D02*
X276785713Y-49204819D01*
X276499999Y-49204819D02*
X276499999Y-48204819D01*
X276499999Y-48204819D02*
X276595237Y-48347676D01*
X276595237Y-48347676D02*
X276690475Y-48442914D01*
X276690475Y-48442914D02*
X276785713Y-48490533D01*
%TO.C,J2*%
X261815833Y-41274819D02*
X261815833Y-41989104D01*
X261815833Y-41989104D02*
X261863452Y-42131961D01*
X261863452Y-42131961D02*
X261958690Y-42227200D01*
X261958690Y-42227200D02*
X262101547Y-42274819D01*
X262101547Y-42274819D02*
X262196785Y-42274819D01*
X261387261Y-41370057D02*
X261339642Y-41322438D01*
X261339642Y-41322438D02*
X261244404Y-41274819D01*
X261244404Y-41274819D02*
X261006309Y-41274819D01*
X261006309Y-41274819D02*
X260911071Y-41322438D01*
X260911071Y-41322438D02*
X260863452Y-41370057D01*
X260863452Y-41370057D02*
X260815833Y-41465295D01*
X260815833Y-41465295D02*
X260815833Y-41560533D01*
X260815833Y-41560533D02*
X260863452Y-41703390D01*
X260863452Y-41703390D02*
X261434880Y-42274819D01*
X261434880Y-42274819D02*
X260815833Y-42274819D01*
%TO.C,R3*%
X289546666Y-63084819D02*
X289879999Y-62608628D01*
X290118094Y-63084819D02*
X290118094Y-62084819D01*
X290118094Y-62084819D02*
X289737142Y-62084819D01*
X289737142Y-62084819D02*
X289641904Y-62132438D01*
X289641904Y-62132438D02*
X289594285Y-62180057D01*
X289594285Y-62180057D02*
X289546666Y-62275295D01*
X289546666Y-62275295D02*
X289546666Y-62418152D01*
X289546666Y-62418152D02*
X289594285Y-62513390D01*
X289594285Y-62513390D02*
X289641904Y-62561009D01*
X289641904Y-62561009D02*
X289737142Y-62608628D01*
X289737142Y-62608628D02*
X290118094Y-62608628D01*
X289213332Y-62084819D02*
X288594285Y-62084819D01*
X288594285Y-62084819D02*
X288927618Y-62465771D01*
X288927618Y-62465771D02*
X288784761Y-62465771D01*
X288784761Y-62465771D02*
X288689523Y-62513390D01*
X288689523Y-62513390D02*
X288641904Y-62561009D01*
X288641904Y-62561009D02*
X288594285Y-62656247D01*
X288594285Y-62656247D02*
X288594285Y-62894342D01*
X288594285Y-62894342D02*
X288641904Y-62989580D01*
X288641904Y-62989580D02*
X288689523Y-63037200D01*
X288689523Y-63037200D02*
X288784761Y-63084819D01*
X288784761Y-63084819D02*
X289070475Y-63084819D01*
X289070475Y-63084819D02*
X289165713Y-63037200D01*
X289165713Y-63037200D02*
X289213332Y-62989580D01*
%TO.C,C6*%
X283916666Y-132109580D02*
X283964285Y-132157200D01*
X283964285Y-132157200D02*
X284107142Y-132204819D01*
X284107142Y-132204819D02*
X284202380Y-132204819D01*
X284202380Y-132204819D02*
X284345237Y-132157200D01*
X284345237Y-132157200D02*
X284440475Y-132061961D01*
X284440475Y-132061961D02*
X284488094Y-131966723D01*
X284488094Y-131966723D02*
X284535713Y-131776247D01*
X284535713Y-131776247D02*
X284535713Y-131633390D01*
X284535713Y-131633390D02*
X284488094Y-131442914D01*
X284488094Y-131442914D02*
X284440475Y-131347676D01*
X284440475Y-131347676D02*
X284345237Y-131252438D01*
X284345237Y-131252438D02*
X284202380Y-131204819D01*
X284202380Y-131204819D02*
X284107142Y-131204819D01*
X284107142Y-131204819D02*
X283964285Y-131252438D01*
X283964285Y-131252438D02*
X283916666Y-131300057D01*
X283059523Y-131204819D02*
X283249999Y-131204819D01*
X283249999Y-131204819D02*
X283345237Y-131252438D01*
X283345237Y-131252438D02*
X283392856Y-131300057D01*
X283392856Y-131300057D02*
X283488094Y-131442914D01*
X283488094Y-131442914D02*
X283535713Y-131633390D01*
X283535713Y-131633390D02*
X283535713Y-132014342D01*
X283535713Y-132014342D02*
X283488094Y-132109580D01*
X283488094Y-132109580D02*
X283440475Y-132157200D01*
X283440475Y-132157200D02*
X283345237Y-132204819D01*
X283345237Y-132204819D02*
X283154761Y-132204819D01*
X283154761Y-132204819D02*
X283059523Y-132157200D01*
X283059523Y-132157200D02*
X283011904Y-132109580D01*
X283011904Y-132109580D02*
X282964285Y-132014342D01*
X282964285Y-132014342D02*
X282964285Y-131776247D01*
X282964285Y-131776247D02*
X283011904Y-131681009D01*
X283011904Y-131681009D02*
X283059523Y-131633390D01*
X283059523Y-131633390D02*
X283154761Y-131585771D01*
X283154761Y-131585771D02*
X283345237Y-131585771D01*
X283345237Y-131585771D02*
X283440475Y-131633390D01*
X283440475Y-131633390D02*
X283488094Y-131681009D01*
X283488094Y-131681009D02*
X283535713Y-131776247D01*
%TO.C,Y1*%
X289503628Y-75523809D02*
X289979819Y-75523809D01*
X288979819Y-75190476D02*
X289503628Y-75523809D01*
X289503628Y-75523809D02*
X288979819Y-75857142D01*
X289979819Y-76714285D02*
X289979819Y-76142857D01*
X289979819Y-76428571D02*
X288979819Y-76428571D01*
X288979819Y-76428571D02*
X289122676Y-76333333D01*
X289122676Y-76333333D02*
X289217914Y-76238095D01*
X289217914Y-76238095D02*
X289265533Y-76142857D01*
%TO.C,R1*%
X297166666Y-66084819D02*
X297499999Y-65608628D01*
X297738094Y-66084819D02*
X297738094Y-65084819D01*
X297738094Y-65084819D02*
X297357142Y-65084819D01*
X297357142Y-65084819D02*
X297261904Y-65132438D01*
X297261904Y-65132438D02*
X297214285Y-65180057D01*
X297214285Y-65180057D02*
X297166666Y-65275295D01*
X297166666Y-65275295D02*
X297166666Y-65418152D01*
X297166666Y-65418152D02*
X297214285Y-65513390D01*
X297214285Y-65513390D02*
X297261904Y-65561009D01*
X297261904Y-65561009D02*
X297357142Y-65608628D01*
X297357142Y-65608628D02*
X297738094Y-65608628D01*
X296214285Y-66084819D02*
X296785713Y-66084819D01*
X296499999Y-66084819D02*
X296499999Y-65084819D01*
X296499999Y-65084819D02*
X296595237Y-65227676D01*
X296595237Y-65227676D02*
X296690475Y-65322914D01*
X296690475Y-65322914D02*
X296785713Y-65370533D01*
%TO.C,D1*%
X313924819Y-49681905D02*
X312924819Y-49681905D01*
X312924819Y-49681905D02*
X312924819Y-49920000D01*
X312924819Y-49920000D02*
X312972438Y-50062857D01*
X312972438Y-50062857D02*
X313067676Y-50158095D01*
X313067676Y-50158095D02*
X313162914Y-50205714D01*
X313162914Y-50205714D02*
X313353390Y-50253333D01*
X313353390Y-50253333D02*
X313496247Y-50253333D01*
X313496247Y-50253333D02*
X313686723Y-50205714D01*
X313686723Y-50205714D02*
X313781961Y-50158095D01*
X313781961Y-50158095D02*
X313877200Y-50062857D01*
X313877200Y-50062857D02*
X313924819Y-49920000D01*
X313924819Y-49920000D02*
X313924819Y-49681905D01*
X313924819Y-51205714D02*
X313924819Y-50634286D01*
X313924819Y-50920000D02*
X312924819Y-50920000D01*
X312924819Y-50920000D02*
X313067676Y-50824762D01*
X313067676Y-50824762D02*
X313162914Y-50729524D01*
X313162914Y-50729524D02*
X313210533Y-50634286D01*
X313554819Y-55238095D02*
X312554819Y-55238095D01*
X313554819Y-55809523D02*
X312983390Y-55380952D01*
X312554819Y-55809523D02*
X313126247Y-55238095D01*
%TO.C,C3*%
X287166666Y-67109580D02*
X287214285Y-67157200D01*
X287214285Y-67157200D02*
X287357142Y-67204819D01*
X287357142Y-67204819D02*
X287452380Y-67204819D01*
X287452380Y-67204819D02*
X287595237Y-67157200D01*
X287595237Y-67157200D02*
X287690475Y-67061961D01*
X287690475Y-67061961D02*
X287738094Y-66966723D01*
X287738094Y-66966723D02*
X287785713Y-66776247D01*
X287785713Y-66776247D02*
X287785713Y-66633390D01*
X287785713Y-66633390D02*
X287738094Y-66442914D01*
X287738094Y-66442914D02*
X287690475Y-66347676D01*
X287690475Y-66347676D02*
X287595237Y-66252438D01*
X287595237Y-66252438D02*
X287452380Y-66204819D01*
X287452380Y-66204819D02*
X287357142Y-66204819D01*
X287357142Y-66204819D02*
X287214285Y-66252438D01*
X287214285Y-66252438D02*
X287166666Y-66300057D01*
X286833332Y-66204819D02*
X286214285Y-66204819D01*
X286214285Y-66204819D02*
X286547618Y-66585771D01*
X286547618Y-66585771D02*
X286404761Y-66585771D01*
X286404761Y-66585771D02*
X286309523Y-66633390D01*
X286309523Y-66633390D02*
X286261904Y-66681009D01*
X286261904Y-66681009D02*
X286214285Y-66776247D01*
X286214285Y-66776247D02*
X286214285Y-67014342D01*
X286214285Y-67014342D02*
X286261904Y-67109580D01*
X286261904Y-67109580D02*
X286309523Y-67157200D01*
X286309523Y-67157200D02*
X286404761Y-67204819D01*
X286404761Y-67204819D02*
X286690475Y-67204819D01*
X286690475Y-67204819D02*
X286785713Y-67157200D01*
X286785713Y-67157200D02*
X286833332Y-67109580D01*
%TO.C,U2*%
X272761904Y-118104819D02*
X272761904Y-118914342D01*
X272761904Y-118914342D02*
X272714285Y-119009580D01*
X272714285Y-119009580D02*
X272666666Y-119057200D01*
X272666666Y-119057200D02*
X272571428Y-119104819D01*
X272571428Y-119104819D02*
X272380952Y-119104819D01*
X272380952Y-119104819D02*
X272285714Y-119057200D01*
X272285714Y-119057200D02*
X272238095Y-119009580D01*
X272238095Y-119009580D02*
X272190476Y-118914342D01*
X272190476Y-118914342D02*
X272190476Y-118104819D01*
X271761904Y-118200057D02*
X271714285Y-118152438D01*
X271714285Y-118152438D02*
X271619047Y-118104819D01*
X271619047Y-118104819D02*
X271380952Y-118104819D01*
X271380952Y-118104819D02*
X271285714Y-118152438D01*
X271285714Y-118152438D02*
X271238095Y-118200057D01*
X271238095Y-118200057D02*
X271190476Y-118295295D01*
X271190476Y-118295295D02*
X271190476Y-118390533D01*
X271190476Y-118390533D02*
X271238095Y-118533390D01*
X271238095Y-118533390D02*
X271809523Y-119104819D01*
X271809523Y-119104819D02*
X271190476Y-119104819D01*
%TO.C,J3*%
X277333333Y-40354819D02*
X277333333Y-41069104D01*
X277333333Y-41069104D02*
X277380952Y-41211961D01*
X277380952Y-41211961D02*
X277476190Y-41307200D01*
X277476190Y-41307200D02*
X277619047Y-41354819D01*
X277619047Y-41354819D02*
X277714285Y-41354819D01*
X276952380Y-40354819D02*
X276333333Y-40354819D01*
X276333333Y-40354819D02*
X276666666Y-40735771D01*
X276666666Y-40735771D02*
X276523809Y-40735771D01*
X276523809Y-40735771D02*
X276428571Y-40783390D01*
X276428571Y-40783390D02*
X276380952Y-40831009D01*
X276380952Y-40831009D02*
X276333333Y-40926247D01*
X276333333Y-40926247D02*
X276333333Y-41164342D01*
X276333333Y-41164342D02*
X276380952Y-41259580D01*
X276380952Y-41259580D02*
X276428571Y-41307200D01*
X276428571Y-41307200D02*
X276523809Y-41354819D01*
X276523809Y-41354819D02*
X276809523Y-41354819D01*
X276809523Y-41354819D02*
X276904761Y-41307200D01*
X276904761Y-41307200D02*
X276952380Y-41259580D01*
%TO.C,RN1*%
X263054819Y-80739523D02*
X262578628Y-80406190D01*
X263054819Y-80168095D02*
X262054819Y-80168095D01*
X262054819Y-80168095D02*
X262054819Y-80549047D01*
X262054819Y-80549047D02*
X262102438Y-80644285D01*
X262102438Y-80644285D02*
X262150057Y-80691904D01*
X262150057Y-80691904D02*
X262245295Y-80739523D01*
X262245295Y-80739523D02*
X262388152Y-80739523D01*
X262388152Y-80739523D02*
X262483390Y-80691904D01*
X262483390Y-80691904D02*
X262531009Y-80644285D01*
X262531009Y-80644285D02*
X262578628Y-80549047D01*
X262578628Y-80549047D02*
X262578628Y-80168095D01*
X263054819Y-81168095D02*
X262054819Y-81168095D01*
X262054819Y-81168095D02*
X263054819Y-81739523D01*
X263054819Y-81739523D02*
X262054819Y-81739523D01*
X263054819Y-82739523D02*
X263054819Y-82168095D01*
X263054819Y-82453809D02*
X262054819Y-82453809D01*
X262054819Y-82453809D02*
X262197676Y-82358571D01*
X262197676Y-82358571D02*
X262292914Y-82263333D01*
X262292914Y-82263333D02*
X262340533Y-82168095D01*
%TO.C,U3*%
X277776904Y-51624819D02*
X277776904Y-52434342D01*
X277776904Y-52434342D02*
X277729285Y-52529580D01*
X277729285Y-52529580D02*
X277681666Y-52577200D01*
X277681666Y-52577200D02*
X277586428Y-52624819D01*
X277586428Y-52624819D02*
X277395952Y-52624819D01*
X277395952Y-52624819D02*
X277300714Y-52577200D01*
X277300714Y-52577200D02*
X277253095Y-52529580D01*
X277253095Y-52529580D02*
X277205476Y-52434342D01*
X277205476Y-52434342D02*
X277205476Y-51624819D01*
X276824523Y-51624819D02*
X276205476Y-51624819D01*
X276205476Y-51624819D02*
X276538809Y-52005771D01*
X276538809Y-52005771D02*
X276395952Y-52005771D01*
X276395952Y-52005771D02*
X276300714Y-52053390D01*
X276300714Y-52053390D02*
X276253095Y-52101009D01*
X276253095Y-52101009D02*
X276205476Y-52196247D01*
X276205476Y-52196247D02*
X276205476Y-52434342D01*
X276205476Y-52434342D02*
X276253095Y-52529580D01*
X276253095Y-52529580D02*
X276300714Y-52577200D01*
X276300714Y-52577200D02*
X276395952Y-52624819D01*
X276395952Y-52624819D02*
X276681666Y-52624819D01*
X276681666Y-52624819D02*
X276776904Y-52577200D01*
X276776904Y-52577200D02*
X276824523Y-52529580D01*
%TO.C,C7*%
X283916666Y-120109580D02*
X283964285Y-120157200D01*
X283964285Y-120157200D02*
X284107142Y-120204819D01*
X284107142Y-120204819D02*
X284202380Y-120204819D01*
X284202380Y-120204819D02*
X284345237Y-120157200D01*
X284345237Y-120157200D02*
X284440475Y-120061961D01*
X284440475Y-120061961D02*
X284488094Y-119966723D01*
X284488094Y-119966723D02*
X284535713Y-119776247D01*
X284535713Y-119776247D02*
X284535713Y-119633390D01*
X284535713Y-119633390D02*
X284488094Y-119442914D01*
X284488094Y-119442914D02*
X284440475Y-119347676D01*
X284440475Y-119347676D02*
X284345237Y-119252438D01*
X284345237Y-119252438D02*
X284202380Y-119204819D01*
X284202380Y-119204819D02*
X284107142Y-119204819D01*
X284107142Y-119204819D02*
X283964285Y-119252438D01*
X283964285Y-119252438D02*
X283916666Y-119300057D01*
X283583332Y-119204819D02*
X282916666Y-119204819D01*
X282916666Y-119204819D02*
X283345237Y-120204819D01*
%TO.C,R2*%
X289546666Y-60084819D02*
X289879999Y-59608628D01*
X290118094Y-60084819D02*
X290118094Y-59084819D01*
X290118094Y-59084819D02*
X289737142Y-59084819D01*
X289737142Y-59084819D02*
X289641904Y-59132438D01*
X289641904Y-59132438D02*
X289594285Y-59180057D01*
X289594285Y-59180057D02*
X289546666Y-59275295D01*
X289546666Y-59275295D02*
X289546666Y-59418152D01*
X289546666Y-59418152D02*
X289594285Y-59513390D01*
X289594285Y-59513390D02*
X289641904Y-59561009D01*
X289641904Y-59561009D02*
X289737142Y-59608628D01*
X289737142Y-59608628D02*
X290118094Y-59608628D01*
X289165713Y-59180057D02*
X289118094Y-59132438D01*
X289118094Y-59132438D02*
X289022856Y-59084819D01*
X289022856Y-59084819D02*
X288784761Y-59084819D01*
X288784761Y-59084819D02*
X288689523Y-59132438D01*
X288689523Y-59132438D02*
X288641904Y-59180057D01*
X288641904Y-59180057D02*
X288594285Y-59275295D01*
X288594285Y-59275295D02*
X288594285Y-59370533D01*
X288594285Y-59370533D02*
X288641904Y-59513390D01*
X288641904Y-59513390D02*
X289213332Y-60084819D01*
X289213332Y-60084819D02*
X288594285Y-60084819D01*
%TO.C,C2*%
X277166666Y-112109580D02*
X277214285Y-112157200D01*
X277214285Y-112157200D02*
X277357142Y-112204819D01*
X277357142Y-112204819D02*
X277452380Y-112204819D01*
X277452380Y-112204819D02*
X277595237Y-112157200D01*
X277595237Y-112157200D02*
X277690475Y-112061961D01*
X277690475Y-112061961D02*
X277738094Y-111966723D01*
X277738094Y-111966723D02*
X277785713Y-111776247D01*
X277785713Y-111776247D02*
X277785713Y-111633390D01*
X277785713Y-111633390D02*
X277738094Y-111442914D01*
X277738094Y-111442914D02*
X277690475Y-111347676D01*
X277690475Y-111347676D02*
X277595237Y-111252438D01*
X277595237Y-111252438D02*
X277452380Y-111204819D01*
X277452380Y-111204819D02*
X277357142Y-111204819D01*
X277357142Y-111204819D02*
X277214285Y-111252438D01*
X277214285Y-111252438D02*
X277166666Y-111300057D01*
X276785713Y-111300057D02*
X276738094Y-111252438D01*
X276738094Y-111252438D02*
X276642856Y-111204819D01*
X276642856Y-111204819D02*
X276404761Y-111204819D01*
X276404761Y-111204819D02*
X276309523Y-111252438D01*
X276309523Y-111252438D02*
X276261904Y-111300057D01*
X276261904Y-111300057D02*
X276214285Y-111395295D01*
X276214285Y-111395295D02*
X276214285Y-111490533D01*
X276214285Y-111490533D02*
X276261904Y-111633390D01*
X276261904Y-111633390D02*
X276833332Y-112204819D01*
X276833332Y-112204819D02*
X276214285Y-112204819D01*
%TO.C,U1*%
X277751904Y-90249819D02*
X277751904Y-91059342D01*
X277751904Y-91059342D02*
X277704285Y-91154580D01*
X277704285Y-91154580D02*
X277656666Y-91202200D01*
X277656666Y-91202200D02*
X277561428Y-91249819D01*
X277561428Y-91249819D02*
X277370952Y-91249819D01*
X277370952Y-91249819D02*
X277275714Y-91202200D01*
X277275714Y-91202200D02*
X277228095Y-91154580D01*
X277228095Y-91154580D02*
X277180476Y-91059342D01*
X277180476Y-91059342D02*
X277180476Y-90249819D01*
X276180476Y-91249819D02*
X276751904Y-91249819D01*
X276466190Y-91249819D02*
X276466190Y-90249819D01*
X276466190Y-90249819D02*
X276561428Y-90392676D01*
X276561428Y-90392676D02*
X276656666Y-90487914D01*
X276656666Y-90487914D02*
X276751904Y-90535533D01*
%TO.C,C5*%
X271666666Y-146609580D02*
X271714285Y-146657200D01*
X271714285Y-146657200D02*
X271857142Y-146704819D01*
X271857142Y-146704819D02*
X271952380Y-146704819D01*
X271952380Y-146704819D02*
X272095237Y-146657200D01*
X272095237Y-146657200D02*
X272190475Y-146561961D01*
X272190475Y-146561961D02*
X272238094Y-146466723D01*
X272238094Y-146466723D02*
X272285713Y-146276247D01*
X272285713Y-146276247D02*
X272285713Y-146133390D01*
X272285713Y-146133390D02*
X272238094Y-145942914D01*
X272238094Y-145942914D02*
X272190475Y-145847676D01*
X272190475Y-145847676D02*
X272095237Y-145752438D01*
X272095237Y-145752438D02*
X271952380Y-145704819D01*
X271952380Y-145704819D02*
X271857142Y-145704819D01*
X271857142Y-145704819D02*
X271714285Y-145752438D01*
X271714285Y-145752438D02*
X271666666Y-145800057D01*
X270761904Y-145704819D02*
X271238094Y-145704819D01*
X271238094Y-145704819D02*
X271285713Y-146181009D01*
X271285713Y-146181009D02*
X271238094Y-146133390D01*
X271238094Y-146133390D02*
X271142856Y-146085771D01*
X271142856Y-146085771D02*
X270904761Y-146085771D01*
X270904761Y-146085771D02*
X270809523Y-146133390D01*
X270809523Y-146133390D02*
X270761904Y-146181009D01*
X270761904Y-146181009D02*
X270714285Y-146276247D01*
X270714285Y-146276247D02*
X270714285Y-146514342D01*
X270714285Y-146514342D02*
X270761904Y-146609580D01*
X270761904Y-146609580D02*
X270809523Y-146657200D01*
X270809523Y-146657200D02*
X270904761Y-146704819D01*
X270904761Y-146704819D02*
X271142856Y-146704819D01*
X271142856Y-146704819D02*
X271238094Y-146657200D01*
X271238094Y-146657200D02*
X271285713Y-146609580D01*
%TO.C,C4*%
X287166666Y-81109580D02*
X287214285Y-81157200D01*
X287214285Y-81157200D02*
X287357142Y-81204819D01*
X287357142Y-81204819D02*
X287452380Y-81204819D01*
X287452380Y-81204819D02*
X287595237Y-81157200D01*
X287595237Y-81157200D02*
X287690475Y-81061961D01*
X287690475Y-81061961D02*
X287738094Y-80966723D01*
X287738094Y-80966723D02*
X287785713Y-80776247D01*
X287785713Y-80776247D02*
X287785713Y-80633390D01*
X287785713Y-80633390D02*
X287738094Y-80442914D01*
X287738094Y-80442914D02*
X287690475Y-80347676D01*
X287690475Y-80347676D02*
X287595237Y-80252438D01*
X287595237Y-80252438D02*
X287452380Y-80204819D01*
X287452380Y-80204819D02*
X287357142Y-80204819D01*
X287357142Y-80204819D02*
X287214285Y-80252438D01*
X287214285Y-80252438D02*
X287166666Y-80300057D01*
X286309523Y-80538152D02*
X286309523Y-81204819D01*
X286547618Y-80157200D02*
X286785713Y-80871485D01*
X286785713Y-80871485D02*
X286166666Y-80871485D01*
D13*
%TO.C,J4*%
X317430000Y-177080000D02*
X317430000Y-170130000D01*
X309720000Y-151920000D02*
X309720000Y-184240000D01*
X320130000Y-162500000D02*
X320130000Y-163500000D01*
X317430000Y-170130000D02*
X317430000Y-170130000D01*
X309720000Y-184240000D02*
X318740000Y-184240000D01*
X318740000Y-166030000D02*
X317430000Y-166030000D01*
X311030000Y-159080000D02*
X311030000Y-177080000D01*
X320130000Y-163500000D02*
X319130000Y-163000000D01*
X317430000Y-170130000D02*
X318740000Y-170130000D01*
X319130000Y-163000000D02*
X320130000Y-162500000D01*
X317430000Y-166030000D02*
X317430000Y-159080000D01*
X311030000Y-177080000D02*
X317430000Y-177080000D01*
X318740000Y-151920000D02*
X309720000Y-151920000D01*
X318740000Y-184240000D02*
X318740000Y-151920000D01*
X317430000Y-159080000D02*
X311030000Y-159080000D01*
%TO.C,J5*%
X317430000Y-107530000D02*
X317430000Y-100580000D01*
X317430000Y-111630000D02*
X317430000Y-111630000D01*
X317430000Y-111630000D02*
X318740000Y-111630000D01*
X317430000Y-118580000D02*
X317430000Y-111630000D01*
X309720000Y-93420000D02*
X309720000Y-125740000D01*
X318740000Y-125740000D02*
X318740000Y-93420000D01*
X318740000Y-107530000D02*
X317430000Y-107530000D01*
X309720000Y-125740000D02*
X318740000Y-125740000D01*
X318740000Y-93420000D02*
X309720000Y-93420000D01*
X317430000Y-100580000D02*
X311030000Y-100580000D01*
X311030000Y-118580000D02*
X317430000Y-118580000D01*
X320130000Y-104000000D02*
X320130000Y-105000000D01*
X311030000Y-100580000D02*
X311030000Y-118580000D01*
X320130000Y-105000000D02*
X319130000Y-104500000D01*
X319130000Y-104500000D02*
X320130000Y-104000000D01*
%TO.C,D18*%
X315470000Y-47700000D02*
X315470000Y-53140000D01*
X312530000Y-53140000D02*
X312530000Y-47700000D01*
X312530000Y-47700000D02*
X315470000Y-47700000D01*
X315470000Y-52120000D02*
X312530000Y-52120000D01*
X315470000Y-52240000D02*
X312530000Y-52240000D01*
X315470000Y-52360000D02*
X312530000Y-52360000D01*
X314000000Y-46680000D02*
X314000000Y-47700000D01*
X315470000Y-53140000D02*
X312530000Y-53140000D01*
X314000000Y-54160000D02*
X314000000Y-53140000D01*
%TO.C,J1*%
X319482500Y-60890000D02*
X319482500Y-73110000D01*
X319482500Y-60890000D02*
X311512500Y-60890000D01*
X302162500Y-68750000D02*
X302162500Y-67750000D01*
X302162500Y-67750000D02*
X302662500Y-68250000D01*
X302862500Y-60890000D02*
X306612500Y-60890000D01*
X302662500Y-68250000D02*
X302162500Y-68750000D01*
X319482500Y-73110000D02*
X311512500Y-73110000D01*
X302862500Y-73110000D02*
X306612500Y-73110000D01*
X302862500Y-60890000D02*
X302862500Y-73110000D01*
%TO.C,R4*%
X260920000Y-40000000D02*
X261540000Y-40000000D01*
X260920000Y-40000000D02*
G75*
G03*
X260920000Y-40000000I-920000J0D01*
G01*
%TO.C,C1*%
X280620000Y-52120000D02*
X273380000Y-52120000D01*
X280620000Y-49880000D02*
X280620000Y-52120000D01*
X280620000Y-49880000D02*
X273380000Y-49880000D01*
X273380000Y-49880000D02*
X273380000Y-52120000D01*
%TO.C,J2*%
X264732500Y-61990000D02*
X264732500Y-55050000D01*
X264732500Y-55050000D02*
X266042500Y-55050000D01*
X264732500Y-55050000D02*
X264732500Y-55050000D01*
X266432500Y-47920000D02*
X267432500Y-47420000D01*
X264732500Y-50950000D02*
X264732500Y-44010000D01*
X264732500Y-44010000D02*
X258232500Y-44010000D01*
X256922500Y-63290000D02*
X266042500Y-63290000D01*
X266042500Y-63290000D02*
X266042500Y-42710000D01*
X258232500Y-44010000D02*
X258232500Y-61990000D01*
X266042500Y-50950000D02*
X264732500Y-50950000D01*
X256922500Y-42710000D02*
X256922500Y-63290000D01*
X267432500Y-47420000D02*
X267432500Y-48420000D01*
X258232500Y-61990000D02*
X264732500Y-61990000D01*
X267432500Y-48420000D02*
X266432500Y-47920000D01*
X266042500Y-42710000D02*
X256922500Y-42710000D01*
%TO.C,R3*%
X292650000Y-66040000D02*
X292650000Y-66370000D01*
X292650000Y-63960000D02*
X292650000Y-63630000D01*
X286110000Y-63630000D02*
X286110000Y-63960000D01*
X292650000Y-66370000D02*
X286110000Y-66370000D01*
X292650000Y-63630000D02*
X286110000Y-63630000D01*
X286110000Y-66370000D02*
X286110000Y-66040000D01*
%TO.C,C6*%
X280869000Y-134093000D02*
X280869000Y-139907000D01*
X281029000Y-133945000D02*
X281029000Y-140055000D01*
X281909000Y-133353000D02*
X281909000Y-135960000D01*
X282909000Y-133006000D02*
X282909000Y-135960000D01*
X283190000Y-138040000D02*
X283190000Y-141042000D01*
X281949000Y-133334000D02*
X281949000Y-135960000D01*
X283150000Y-132963000D02*
X283150000Y-135960000D01*
X281509000Y-138040000D02*
X281509000Y-140418000D01*
X282469000Y-133123000D02*
X282469000Y-135960000D01*
X281189000Y-133811000D02*
X281189000Y-140189000D01*
X280709000Y-134259000D02*
X280709000Y-139741000D01*
X282229000Y-133210000D02*
X282229000Y-135960000D01*
X280149000Y-135036000D02*
X280149000Y-138964000D01*
X282869000Y-138040000D02*
X282869000Y-140985000D01*
X282269000Y-138040000D02*
X282269000Y-140805000D01*
X281469000Y-133608000D02*
X281469000Y-135960000D01*
X283550000Y-132924000D02*
X283550000Y-141076000D01*
X282989000Y-138040000D02*
X282989000Y-141010000D01*
X282549000Y-133098000D02*
X282549000Y-135960000D01*
X281749000Y-133438000D02*
X281749000Y-135960000D01*
X282589000Y-133086000D02*
X282589000Y-135960000D01*
X283470000Y-138040000D02*
X283470000Y-141071000D01*
X282429000Y-138040000D02*
X282429000Y-140863000D01*
X282149000Y-138040000D02*
X282149000Y-140757000D01*
X281949000Y-138040000D02*
X281949000Y-140666000D01*
X282029000Y-138040000D02*
X282029000Y-140704000D01*
X281669000Y-133483000D02*
X281669000Y-135960000D01*
X283710000Y-132920000D02*
X283710000Y-141080000D01*
X281989000Y-133314000D02*
X281989000Y-135960000D01*
X281309000Y-133720000D02*
X281309000Y-140280000D01*
X282229000Y-138040000D02*
X282229000Y-140790000D01*
X283310000Y-132943000D02*
X283310000Y-135960000D01*
X282509000Y-133111000D02*
X282509000Y-135960000D01*
X282149000Y-133243000D02*
X282149000Y-135960000D01*
X283029000Y-138040000D02*
X283029000Y-141017000D01*
X280509000Y-134495000D02*
X280509000Y-139505000D01*
X282629000Y-133075000D02*
X282629000Y-135960000D01*
X282109000Y-138040000D02*
X282109000Y-140740000D01*
X279709000Y-136232000D02*
X279709000Y-137768000D01*
X283510000Y-138040000D02*
X283510000Y-141074000D01*
X280989000Y-133981000D02*
X280989000Y-140019000D01*
X281509000Y-133582000D02*
X281509000Y-135960000D01*
X279869000Y-135654000D02*
X279869000Y-138346000D01*
X281349000Y-133691000D02*
X281349000Y-140309000D01*
X281709000Y-138040000D02*
X281709000Y-140540000D01*
X281789000Y-138040000D02*
X281789000Y-140584000D01*
X281629000Y-138040000D02*
X281629000Y-140493000D01*
X283110000Y-138040000D02*
X283110000Y-141030000D01*
X282709000Y-138040000D02*
X282709000Y-140947000D01*
X282549000Y-138040000D02*
X282549000Y-140902000D01*
X281829000Y-138040000D02*
X281829000Y-140606000D01*
X281749000Y-138040000D02*
X281749000Y-140562000D01*
X282309000Y-133179000D02*
X282309000Y-135960000D01*
X279669000Y-136467000D02*
X279669000Y-137533000D01*
X280429000Y-134600000D02*
X280429000Y-139400000D01*
X280349000Y-134713000D02*
X280349000Y-139287000D01*
X280949000Y-134017000D02*
X280949000Y-139983000D01*
X281149000Y-133844000D02*
X281149000Y-140156000D01*
X280229000Y-134898000D02*
X280229000Y-139102000D01*
X282389000Y-138040000D02*
X282389000Y-140850000D01*
X279909000Y-135547000D02*
X279909000Y-138453000D01*
X282189000Y-133226000D02*
X282189000Y-135960000D01*
X280629000Y-134349000D02*
X280629000Y-139651000D01*
X288159698Y-134685000D02*
X287359698Y-134685000D01*
X282309000Y-138040000D02*
X282309000Y-140821000D01*
X281549000Y-138040000D02*
X281549000Y-140444000D01*
X282669000Y-138040000D02*
X282669000Y-140936000D01*
X282989000Y-132990000D02*
X282989000Y-135960000D01*
X280669000Y-134303000D02*
X280669000Y-139697000D01*
X283470000Y-132929000D02*
X283470000Y-135960000D01*
X281909000Y-138040000D02*
X281909000Y-140647000D01*
X281389000Y-133662000D02*
X281389000Y-140338000D01*
X280749000Y-134216000D02*
X280749000Y-139784000D01*
X283750000Y-132920000D02*
X283750000Y-141080000D01*
X283390000Y-132935000D02*
X283390000Y-135960000D01*
X282429000Y-133137000D02*
X282429000Y-135960000D01*
X282509000Y-138040000D02*
X282509000Y-140889000D01*
X280389000Y-134655000D02*
X280389000Y-139345000D01*
X283029000Y-132983000D02*
X283029000Y-135960000D01*
X281869000Y-138040000D02*
X281869000Y-140627000D01*
X283630000Y-132921000D02*
X283630000Y-141079000D01*
X282749000Y-133043000D02*
X282749000Y-135960000D01*
X279789000Y-135902000D02*
X279789000Y-138098000D01*
X283350000Y-138040000D02*
X283350000Y-141061000D01*
X281829000Y-133394000D02*
X281829000Y-135960000D01*
X280829000Y-134133000D02*
X280829000Y-139867000D01*
X280589000Y-134396000D02*
X280589000Y-139604000D01*
X279749000Y-136052000D02*
X279749000Y-137948000D01*
X283430000Y-138040000D02*
X283430000Y-141068000D01*
X283230000Y-138040000D02*
X283230000Y-141048000D01*
X282069000Y-138040000D02*
X282069000Y-140722000D01*
X279949000Y-135448000D02*
X279949000Y-138552000D01*
X282709000Y-133053000D02*
X282709000Y-135960000D01*
X281269000Y-133750000D02*
X281269000Y-140250000D01*
X281789000Y-133416000D02*
X281789000Y-135960000D01*
X283070000Y-132976000D02*
X283070000Y-135960000D01*
X281109000Y-133876000D02*
X281109000Y-140124000D01*
X283670000Y-132920000D02*
X283670000Y-141080000D01*
X282949000Y-132998000D02*
X282949000Y-135960000D01*
X280189000Y-134966000D02*
X280189000Y-139034000D01*
X281709000Y-133460000D02*
X281709000Y-135960000D01*
X283070000Y-138040000D02*
X283070000Y-141024000D01*
X281589000Y-133531000D02*
X281589000Y-135960000D01*
X281429000Y-133635000D02*
X281429000Y-140365000D01*
X281069000Y-133910000D02*
X281069000Y-140090000D01*
X283110000Y-132970000D02*
X283110000Y-135960000D01*
X282909000Y-138040000D02*
X282909000Y-140994000D01*
X282829000Y-133024000D02*
X282829000Y-135960000D01*
X283270000Y-138040000D02*
X283270000Y-141052000D01*
X283510000Y-132926000D02*
X283510000Y-135960000D01*
X282669000Y-133064000D02*
X282669000Y-135960000D01*
X282109000Y-133260000D02*
X282109000Y-135960000D01*
X283190000Y-132958000D02*
X283190000Y-135960000D01*
X280549000Y-134444000D02*
X280549000Y-139556000D01*
X283350000Y-132939000D02*
X283350000Y-135960000D01*
X283590000Y-132923000D02*
X283590000Y-141077000D01*
X280269000Y-134834000D02*
X280269000Y-139166000D01*
X282389000Y-133150000D02*
X282389000Y-135960000D01*
X282469000Y-138040000D02*
X282469000Y-140877000D01*
X283230000Y-132952000D02*
X283230000Y-135960000D01*
X282789000Y-138040000D02*
X282789000Y-140967000D01*
X287759698Y-134285000D02*
X287759698Y-135085000D01*
X282869000Y-133015000D02*
X282869000Y-135960000D01*
X279829000Y-135771000D02*
X279829000Y-138229000D01*
X283390000Y-138040000D02*
X283390000Y-141065000D01*
X281549000Y-133556000D02*
X281549000Y-135960000D01*
X281629000Y-133507000D02*
X281629000Y-135960000D01*
X281469000Y-138040000D02*
X281469000Y-140392000D01*
X282829000Y-138040000D02*
X282829000Y-140976000D01*
X282629000Y-138040000D02*
X282629000Y-140925000D01*
X282589000Y-138040000D02*
X282589000Y-140914000D01*
X280109000Y-135110000D02*
X280109000Y-138890000D01*
X281589000Y-138040000D02*
X281589000Y-140469000D01*
X281229000Y-133780000D02*
X281229000Y-140220000D01*
X280789000Y-134174000D02*
X280789000Y-139826000D01*
X283270000Y-132948000D02*
X283270000Y-135960000D01*
X280309000Y-134772000D02*
X280309000Y-139228000D01*
X283310000Y-138040000D02*
X283310000Y-141057000D01*
X280909000Y-134055000D02*
X280909000Y-139945000D01*
X282189000Y-138040000D02*
X282189000Y-140774000D01*
X279989000Y-135355000D02*
X279989000Y-138645000D01*
X282349000Y-133165000D02*
X282349000Y-135960000D01*
X282269000Y-133195000D02*
X282269000Y-135960000D01*
X282949000Y-138040000D02*
X282949000Y-141002000D01*
X281669000Y-138040000D02*
X281669000Y-140517000D01*
X282789000Y-133033000D02*
X282789000Y-135960000D01*
X282069000Y-133278000D02*
X282069000Y-135960000D01*
X282349000Y-138040000D02*
X282349000Y-140835000D01*
X282029000Y-133296000D02*
X282029000Y-135960000D01*
X283430000Y-132932000D02*
X283430000Y-135960000D01*
X281869000Y-133373000D02*
X281869000Y-135960000D01*
X282749000Y-138040000D02*
X282749000Y-140957000D01*
X280029000Y-135269000D02*
X280029000Y-138731000D01*
X281989000Y-138040000D02*
X281989000Y-140686000D01*
X280069000Y-135187000D02*
X280069000Y-138813000D01*
X280469000Y-134546000D02*
X280469000Y-139454000D01*
X283150000Y-138040000D02*
X283150000Y-141037000D01*
X287870000Y-137000000D02*
G75*
G03*
X287870000Y-137000000I-4120000J0D01*
G01*
%TO.C,Y1*%
X283475000Y-79125000D02*
X283475000Y-72875000D01*
X288525000Y-79125000D02*
X288525000Y-72875000D01*
X288525000Y-72875000D02*
G75*
G03*
X283475000Y-72875000I-2525000J0D01*
G01*
X283475000Y-79125000D02*
G75*
G03*
X288525000Y-79125000I2525000J0D01*
G01*
%TO.C,R1*%
X300270000Y-66960000D02*
X300270000Y-66630000D01*
X293730000Y-66630000D02*
X293730000Y-66960000D01*
X300270000Y-66630000D02*
X293730000Y-66630000D01*
X300270000Y-69040000D02*
X300270000Y-69370000D01*
X293730000Y-69370000D02*
X293730000Y-69040000D01*
X300270000Y-69370000D02*
X293730000Y-69370000D01*
%TO.C,D1*%
X312470000Y-53140000D02*
X309530000Y-53140000D01*
X309530000Y-53140000D02*
X309530000Y-47700000D01*
X311000000Y-54160000D02*
X311000000Y-53140000D01*
X312470000Y-52120000D02*
X309530000Y-52120000D01*
X312470000Y-52240000D02*
X309530000Y-52240000D01*
X309530000Y-47700000D02*
X312470000Y-47700000D01*
X312470000Y-52360000D02*
X309530000Y-52360000D01*
X312470000Y-47700000D02*
X312470000Y-53140000D01*
X311000000Y-46680000D02*
X311000000Y-47700000D01*
%TO.C,C3*%
X290620000Y-70120000D02*
X283380000Y-70120000D01*
X290620000Y-67880000D02*
X290620000Y-70120000D01*
X283380000Y-67880000D02*
X283380000Y-70120000D01*
X290620000Y-67880000D02*
X283380000Y-67880000D01*
%TO.C,U2*%
X277120000Y-119650000D02*
X277120000Y-135540000D01*
X272000000Y-135540000D02*
X272000000Y-138080000D01*
X266880000Y-119650000D02*
X266880000Y-135540000D01*
X274540000Y-135540000D02*
X274540000Y-138080000D01*
X277120000Y-135540000D02*
X266880000Y-135540000D01*
X277120000Y-119650000D02*
X266880000Y-119650000D01*
X269460000Y-135540000D02*
X269460000Y-138080000D01*
%TO.C,J3*%
X270640000Y-44510000D02*
X271640000Y-44510000D01*
X270640000Y-41990000D02*
X283360000Y-41990000D01*
X271140000Y-42490000D02*
X271140000Y-43700000D01*
X282860000Y-42490000D02*
X271140000Y-42490000D01*
X283360000Y-46010000D02*
X270640000Y-46010000D01*
X282860000Y-43700000D02*
X282860000Y-42490000D01*
X270640000Y-46010000D02*
X270640000Y-41990000D01*
X283360000Y-41990000D02*
X283360000Y-46010000D01*
X283360000Y-43700000D02*
X282860000Y-43700000D01*
X271640000Y-44510000D02*
X271640000Y-46010000D01*
X283660000Y-46310000D02*
X281160000Y-46310000D01*
X282360000Y-44510000D02*
X282360000Y-46010000D01*
X283660000Y-43810000D02*
X283660000Y-46310000D01*
X283360000Y-44510000D02*
X282360000Y-44510000D01*
X271140000Y-43700000D02*
X270640000Y-43700000D01*
%TO.C,RN1*%
X263600000Y-68560000D02*
X266400000Y-68560000D01*
X263600000Y-91760000D02*
X263600000Y-68560000D01*
X266400000Y-68560000D02*
X266400000Y-91760000D01*
X266400000Y-91760000D02*
X263600000Y-91760000D01*
X263600000Y-71270000D02*
X266400000Y-71270000D01*
%TO.C,U3*%
X274765000Y-88850000D02*
X274765000Y-53170000D01*
X279265000Y-88850000D02*
X274765000Y-88850000D01*
X278015000Y-53170000D02*
X279265000Y-53170000D01*
X279265000Y-53170000D02*
X279265000Y-88850000D01*
X274765000Y-53170000D02*
X276015000Y-53170000D01*
X276015000Y-53170000D02*
G75*
G03*
X278015000Y-53170000I1000000J0D01*
G01*
%TO.C,C7*%
X281189000Y-121811000D02*
X281189000Y-128189000D01*
X283390000Y-120935000D02*
X283390000Y-123960000D01*
X283470000Y-120929000D02*
X283470000Y-123960000D01*
X280309000Y-122772000D02*
X280309000Y-127228000D01*
X280109000Y-123110000D02*
X280109000Y-126890000D01*
X283310000Y-126040000D02*
X283310000Y-129057000D01*
X281949000Y-121334000D02*
X281949000Y-123960000D01*
X281829000Y-121394000D02*
X281829000Y-123960000D01*
X282349000Y-126040000D02*
X282349000Y-128835000D01*
X281709000Y-121460000D02*
X281709000Y-123960000D01*
X283070000Y-126040000D02*
X283070000Y-129024000D01*
X281869000Y-121373000D02*
X281869000Y-123960000D01*
X282789000Y-126040000D02*
X282789000Y-128967000D01*
X281989000Y-121314000D02*
X281989000Y-123960000D01*
X281629000Y-126040000D02*
X281629000Y-128493000D01*
X282949000Y-126040000D02*
X282949000Y-129002000D01*
X282069000Y-126040000D02*
X282069000Y-128722000D01*
X283510000Y-126040000D02*
X283510000Y-129074000D01*
X282189000Y-126040000D02*
X282189000Y-128774000D01*
X282989000Y-120990000D02*
X282989000Y-123960000D01*
X283150000Y-120963000D02*
X283150000Y-123960000D01*
X282429000Y-126040000D02*
X282429000Y-128863000D01*
X280909000Y-122055000D02*
X280909000Y-127945000D01*
X283470000Y-126040000D02*
X283470000Y-129071000D01*
X280429000Y-122600000D02*
X280429000Y-127400000D01*
X281229000Y-121780000D02*
X281229000Y-128220000D01*
X282709000Y-121053000D02*
X282709000Y-123960000D01*
X281469000Y-126040000D02*
X281469000Y-128392000D01*
X280709000Y-122259000D02*
X280709000Y-127741000D01*
X279669000Y-124467000D02*
X279669000Y-125533000D01*
X283430000Y-120932000D02*
X283430000Y-123960000D01*
X280949000Y-122017000D02*
X280949000Y-127983000D01*
X281749000Y-126040000D02*
X281749000Y-128562000D01*
X283350000Y-120939000D02*
X283350000Y-123960000D01*
X280229000Y-122898000D02*
X280229000Y-127102000D01*
X282589000Y-126040000D02*
X282589000Y-128914000D01*
X279709000Y-124232000D02*
X279709000Y-125768000D01*
X283230000Y-120952000D02*
X283230000Y-123960000D01*
X280469000Y-122546000D02*
X280469000Y-127454000D01*
X280869000Y-122093000D02*
X280869000Y-127907000D01*
X281109000Y-121876000D02*
X281109000Y-128124000D01*
X283270000Y-120948000D02*
X283270000Y-123960000D01*
X280389000Y-122655000D02*
X280389000Y-127345000D01*
X281789000Y-121416000D02*
X281789000Y-123960000D01*
X281709000Y-126040000D02*
X281709000Y-128540000D01*
X283350000Y-126040000D02*
X283350000Y-129061000D01*
X282789000Y-121033000D02*
X282789000Y-123960000D01*
X283310000Y-120943000D02*
X283310000Y-123960000D01*
X283190000Y-120958000D02*
X283190000Y-123960000D01*
X283190000Y-126040000D02*
X283190000Y-129042000D01*
X283029000Y-126040000D02*
X283029000Y-129017000D01*
X282669000Y-126040000D02*
X282669000Y-128936000D01*
X281389000Y-121662000D02*
X281389000Y-128338000D01*
X280549000Y-122444000D02*
X280549000Y-127556000D01*
X280509000Y-122495000D02*
X280509000Y-127505000D01*
X282589000Y-121086000D02*
X282589000Y-123960000D01*
X281149000Y-121844000D02*
X281149000Y-128156000D01*
X282149000Y-126040000D02*
X282149000Y-128757000D01*
X282989000Y-126040000D02*
X282989000Y-129010000D01*
X281549000Y-126040000D02*
X281549000Y-128444000D01*
X281789000Y-126040000D02*
X281789000Y-128584000D01*
X283070000Y-120976000D02*
X283070000Y-123960000D01*
X282909000Y-121006000D02*
X282909000Y-123960000D01*
X287759698Y-122285000D02*
X287759698Y-123085000D01*
X279789000Y-123902000D02*
X279789000Y-126098000D01*
X282389000Y-126040000D02*
X282389000Y-128850000D01*
X283110000Y-126040000D02*
X283110000Y-129030000D01*
X280749000Y-122216000D02*
X280749000Y-127784000D01*
X282509000Y-126040000D02*
X282509000Y-128889000D01*
X282029000Y-126040000D02*
X282029000Y-128704000D01*
X281549000Y-121556000D02*
X281549000Y-123960000D01*
X281069000Y-121910000D02*
X281069000Y-128090000D01*
X282829000Y-121024000D02*
X282829000Y-123960000D01*
X282349000Y-121165000D02*
X282349000Y-123960000D01*
X283230000Y-126040000D02*
X283230000Y-129048000D01*
X280789000Y-122174000D02*
X280789000Y-127826000D01*
X283630000Y-120921000D02*
X283630000Y-129079000D01*
X283510000Y-120926000D02*
X283510000Y-123960000D01*
X282269000Y-126040000D02*
X282269000Y-128805000D01*
X279949000Y-123448000D02*
X279949000Y-126552000D01*
X282269000Y-121195000D02*
X282269000Y-123960000D01*
X281669000Y-126040000D02*
X281669000Y-128517000D01*
X282829000Y-126040000D02*
X282829000Y-128976000D01*
X283150000Y-126040000D02*
X283150000Y-129037000D01*
X282189000Y-121226000D02*
X282189000Y-123960000D01*
X281589000Y-126040000D02*
X281589000Y-128469000D01*
X282229000Y-126040000D02*
X282229000Y-128790000D01*
X282229000Y-121210000D02*
X282229000Y-123960000D01*
X283029000Y-120983000D02*
X283029000Y-123960000D01*
X282709000Y-126040000D02*
X282709000Y-128947000D01*
X281429000Y-121635000D02*
X281429000Y-128365000D01*
X282949000Y-120998000D02*
X282949000Y-123960000D01*
X283590000Y-120923000D02*
X283590000Y-129077000D01*
X282389000Y-121150000D02*
X282389000Y-123960000D01*
X281269000Y-121750000D02*
X281269000Y-128250000D01*
X281869000Y-126040000D02*
X281869000Y-128627000D01*
X280829000Y-122133000D02*
X280829000Y-127867000D01*
X282429000Y-121137000D02*
X282429000Y-123960000D01*
X283390000Y-126040000D02*
X283390000Y-129065000D01*
X280189000Y-122966000D02*
X280189000Y-127034000D01*
X282869000Y-121015000D02*
X282869000Y-123960000D01*
X281669000Y-121483000D02*
X281669000Y-123960000D01*
X283110000Y-120970000D02*
X283110000Y-123960000D01*
X281309000Y-121720000D02*
X281309000Y-128280000D01*
X282509000Y-121111000D02*
X282509000Y-123960000D01*
X281029000Y-121945000D02*
X281029000Y-128055000D01*
X279749000Y-124052000D02*
X279749000Y-125948000D01*
X282469000Y-126040000D02*
X282469000Y-128877000D01*
X280029000Y-123269000D02*
X280029000Y-126731000D01*
X279829000Y-123771000D02*
X279829000Y-126229000D01*
X283750000Y-120920000D02*
X283750000Y-129080000D01*
X282109000Y-121260000D02*
X282109000Y-123960000D01*
X282629000Y-126040000D02*
X282629000Y-128925000D01*
X282029000Y-121296000D02*
X282029000Y-123960000D01*
X281509000Y-126040000D02*
X281509000Y-128418000D01*
X281989000Y-126040000D02*
X281989000Y-128686000D01*
X280989000Y-121981000D02*
X280989000Y-128019000D01*
X282629000Y-121075000D02*
X282629000Y-123960000D01*
X281749000Y-121438000D02*
X281749000Y-123960000D01*
X280669000Y-122303000D02*
X280669000Y-127697000D01*
X281909000Y-126040000D02*
X281909000Y-128647000D01*
X280349000Y-122713000D02*
X280349000Y-127287000D01*
X280589000Y-122396000D02*
X280589000Y-127604000D01*
X283710000Y-120920000D02*
X283710000Y-129080000D01*
X282549000Y-121098000D02*
X282549000Y-123960000D01*
X280149000Y-123036000D02*
X280149000Y-126964000D01*
X282469000Y-121123000D02*
X282469000Y-123960000D01*
X282069000Y-121278000D02*
X282069000Y-123960000D01*
X281469000Y-121608000D02*
X281469000Y-123960000D01*
X282869000Y-126040000D02*
X282869000Y-128985000D01*
X283550000Y-120924000D02*
X283550000Y-129076000D01*
X282909000Y-126040000D02*
X282909000Y-128994000D01*
X283670000Y-120920000D02*
X283670000Y-129080000D01*
X279989000Y-123355000D02*
X279989000Y-126645000D01*
X282109000Y-126040000D02*
X282109000Y-128740000D01*
X282749000Y-126040000D02*
X282749000Y-128957000D01*
X281909000Y-121353000D02*
X281909000Y-123960000D01*
X282749000Y-121043000D02*
X282749000Y-123960000D01*
X282669000Y-121064000D02*
X282669000Y-123960000D01*
X283270000Y-126040000D02*
X283270000Y-129052000D01*
X281629000Y-121507000D02*
X281629000Y-123960000D01*
X281509000Y-121582000D02*
X281509000Y-123960000D01*
X279909000Y-123547000D02*
X279909000Y-126453000D01*
X283430000Y-126040000D02*
X283430000Y-129068000D01*
X288159698Y-122685000D02*
X287359698Y-122685000D01*
X282309000Y-121179000D02*
X282309000Y-123960000D01*
X280069000Y-123187000D02*
X280069000Y-126813000D01*
X282549000Y-126040000D02*
X282549000Y-128902000D01*
X281349000Y-121691000D02*
X281349000Y-128309000D01*
X281829000Y-126040000D02*
X281829000Y-128606000D01*
X281589000Y-121531000D02*
X281589000Y-123960000D01*
X281949000Y-126040000D02*
X281949000Y-128666000D01*
X279869000Y-123654000D02*
X279869000Y-126346000D01*
X280269000Y-122834000D02*
X280269000Y-127166000D01*
X280629000Y-122349000D02*
X280629000Y-127651000D01*
X282149000Y-121243000D02*
X282149000Y-123960000D01*
X282309000Y-126040000D02*
X282309000Y-128821000D01*
X287870000Y-125000000D02*
G75*
G03*
X287870000Y-125000000I-4120000J0D01*
G01*
%TO.C,R2*%
X292650000Y-60960000D02*
X292650000Y-60630000D01*
X286110000Y-60630000D02*
X286110000Y-60960000D01*
X292650000Y-63040000D02*
X292650000Y-63370000D01*
X292650000Y-63370000D02*
X286110000Y-63370000D01*
X286110000Y-63370000D02*
X286110000Y-63040000D01*
X292650000Y-60630000D02*
X286110000Y-60630000D01*
%TO.C,C2*%
X273380000Y-112880000D02*
X273380000Y-115120000D01*
X280620000Y-112880000D02*
X273380000Y-112880000D01*
X280620000Y-112880000D02*
X280620000Y-115120000D01*
X280620000Y-115120000D02*
X273380000Y-115120000D01*
%TO.C,U1*%
X271740000Y-91735000D02*
X282240000Y-91735000D01*
X274740000Y-91795000D02*
X275990000Y-91795000D01*
X271740000Y-112295000D02*
X271740000Y-91735000D01*
X282240000Y-91735000D02*
X282240000Y-112295000D01*
X277990000Y-91795000D02*
X279240000Y-91795000D01*
X274740000Y-112235000D02*
X274740000Y-91795000D01*
X282240000Y-112295000D02*
X271740000Y-112295000D01*
X279240000Y-91795000D02*
X279240000Y-112235000D01*
X279240000Y-112235000D02*
X274740000Y-112235000D01*
X275990000Y-91795000D02*
G75*
G03*
X277990000Y-91795000I1000000J0D01*
G01*
%TO.C,C5*%
X267880000Y-142880000D02*
X275120000Y-142880000D01*
X267880000Y-145120000D02*
X275120000Y-145120000D01*
X275120000Y-145120000D02*
X275120000Y-142880000D01*
X267880000Y-145120000D02*
X267880000Y-142880000D01*
%TO.C,C4*%
X290620000Y-84120000D02*
X283380000Y-84120000D01*
X290620000Y-81880000D02*
X290620000Y-84120000D01*
X290620000Y-81880000D02*
X283380000Y-81880000D01*
X283380000Y-81880000D02*
X283380000Y-84120000D01*
%TD*%
M02*
