M48
; DRILL file {KiCad 7.0.5} date Sun Sep 10 17:56:07 2023
; FORMAT={-:-/ absolute / inch / decimal}
; #@! TF.CreationDate,2023-09-10T17:56:07+02:00
; #@! TF.GenerationSoftware,Kicad,Pcbnew,7.0.5
; #@! TF.FileFunction,Plated,1,2,PTH
FMAT,2
INCH
; #@! TA.AperFunction,Plated,PTH,ViaDrill
T1C0.0157
; #@! TA.AperFunction,Plated,PTH,ComponentDrill
T2C0.0276
; #@! TA.AperFunction,Plated,PTH,ComponentDrill
T3C0.0315
; #@! TA.AperFunction,Plated,PTH,ComponentDrill
T4C0.0374
; #@! TA.AperFunction,Plated,PTH,ComponentDrill
T5C0.0394
; #@! TA.AperFunction,Plated,PTH,ComponentDrill
T6C0.0433
; #@! TA.AperFunction,Plated,PTH,ComponentDrill
T7C0.0472
; #@! TA.AperFunction,Plated,PTH,ComponentDrill
T8C0.0591
; #@! TA.AperFunction,Plated,PTH,ComponentDrill
T9C0.0787
; #@! TA.AperFunction,Plated,PTH,ComponentDrill
T10C0.0906
; #@! TA.AperFunction,Plated,PTH,ComponentDrill
T11C0.1260
%
G90
G05
T1
X2.1354Y-2.7906
X2.2746Y-3.7402
X2.3425Y-1.9291
X2.3819Y-2.7165
X2.9331Y-2.7953
X3.2283Y-4.8425
X3.2283Y-5.4921
X3.7116Y-1.3081
X3.7116Y-1.9577
X3.7205Y-1.1417
X3.7687Y-2.6969
X3.7962Y-4.0325
X3.8718Y-3.4584
X3.8947Y-3.9203
X3.9961Y-3.7992
X4.1339Y-3.9764
X4.1732Y-5.0197
X4.1732Y-6.0039
X4.2126Y-4.8622
X4.5472Y-2.2638
X4.5669Y-1.4764
X4.9016Y-1.122
X4.9016Y-1.2795
X4.9242Y-3.9203
X4.9803Y-2.6969
X5.0Y-7.185
X5.0529Y-1.9156
X5.0984Y-1.0039
X5.7087Y-1.1614
X5.7262Y-1.9461
X5.7283Y-2.0866
X5.7734Y-2.674
X5.8691Y-4.0325
X5.9449Y-3.7378
X5.9449Y-7.3622
X6.3976Y-4.8031
X6.4567Y-2.0866
X6.4764Y-6.378
X6.4764Y-7.1457
X6.4793Y-4.7077
X6.5354Y-3.2087
X6.5354Y-3.8976
X6.5354Y-6.2402
X6.6339Y-1.1417
X6.6732Y-7.0866
X6.7323Y-3.8386
X6.8307Y-3.5844
X7.2244Y-4.2323
X7.2244Y-7.3622
X7.2529Y-5.5709
X7.2638Y-3.9961
X7.6378Y-3.4449
X7.6969Y-3.3661
X7.7165Y-3.8976
X7.7362Y-1.2992
X8.8189Y-0.6589
X8.8386Y-4.2323
X8.8976Y-3.3071
X8.9961Y-2.9921
X9.102Y-1.8776
X9.2005Y-4.2022
X9.7244Y-3.2716
X9.7785Y-3.2392
X9.8611Y-1.2784
X10.0Y-6.3386
X10.1677Y-3.3559
X10.2165Y-2.7559
X10.2165Y-2.9528
X10.2165Y-3.9391
X10.4194Y-1.8898
X10.4835Y-4.3221
X10.5854Y-1.9406
X10.5854Y-3.6821
X10.6354Y-1.8406
X10.6354Y-2.8406
X10.6354Y-3.0457
X10.6354Y-4.1906
X10.8354Y-6.1406
X10.8446Y-3.1406
X10.8854Y-3.6506
X10.9354Y-4.4906
X10.9646Y-2.8937
X10.9646Y-2.9528
X10.9646Y-3.3465
X10.9843Y-3.248
X11.1354Y-2.4906
X11.1854Y-3.3406
X11.1854Y-3.7906
X11.1854Y-3.9406
X11.1854Y-4.4406
X11.2854Y-6.8906
X11.3854Y-4.0906
X11.3976Y-2.6575
X11.5157Y-2.9134
X11.5157Y-3.0906
X11.7354Y-2.7406
X12.0354Y-6.1406
X12.3354Y-3.1406
T2
X10.2362Y-1.5748
X10.3362Y-1.5748
T3
X10.4331Y-2.7559
X10.4331Y-2.8559
X10.4331Y-2.9559
X10.4331Y-3.0559
X10.4331Y-3.1559
X10.4331Y-3.2559
X10.4331Y-3.3559
X10.4331Y-3.4559
X10.4331Y-3.5559
X10.5906Y-5.6693
X10.7551Y-3.6663
X10.7551Y-3.7663
X10.7551Y-3.8663
X10.7551Y-3.9663
X10.7551Y-4.0663
X10.7551Y-4.1663
X10.7551Y-4.2663
X10.7551Y-4.3663
X10.7561Y-2.1457
X10.7561Y-2.2457
X10.7561Y-2.3457
X10.7561Y-2.4457
X10.7561Y-2.5457
X10.7561Y-2.6457
X10.7561Y-2.7457
X10.7561Y-2.8457
X10.7561Y-2.9457
X10.7561Y-3.0457
X10.7561Y-3.1457
X10.7561Y-3.2457
X10.7561Y-3.3457
X10.7561Y-3.4457
X10.7874Y-5.6693
X10.8071Y-2.0079
X10.8071Y-4.4882
X11.0039Y-2.0079
X11.0039Y-4.4882
X11.0551Y-3.6663
X11.0551Y-3.7663
X11.0551Y-3.8663
X11.0551Y-3.9663
X11.0551Y-4.0663
X11.0551Y-4.1663
X11.0551Y-4.2663
X11.0551Y-4.3663
X11.0561Y-2.1457
X11.0561Y-2.2457
X11.0561Y-2.3457
X11.0561Y-2.4457
X11.0561Y-2.5457
X11.0561Y-2.6457
X11.0561Y-2.7457
X11.0561Y-2.8457
X11.0561Y-2.9457
X11.0561Y-3.0457
X11.0561Y-3.1457
X11.0561Y-3.2457
X11.0561Y-3.3457
X11.0561Y-3.4457
X11.122Y-4.9213
X11.122Y-5.3937
X11.2008Y-2.7165
X11.2008Y-3.2677
X11.2205Y-4.9213
X11.2205Y-5.3937
X11.2429Y-2.4409
X11.2429Y-2.5591
X11.2598Y-2.8957
X11.2598Y-3.0886
X11.3976Y-2.7165
X11.3976Y-3.2677
X11.5429Y-2.4409
X11.5429Y-2.5591
X11.5429Y-2.6772
X11.8429Y-2.6772
T4
X10.7579Y-1.7205
X10.8563Y-1.7205
X10.9547Y-1.7205
X11.0531Y-1.7205
X11.9769Y-2.5886
X11.9769Y-2.687
X12.0556Y-2.5886
X12.0556Y-2.687
T5
X10.2446Y-1.8866
X10.2446Y-1.9866
X10.2446Y-2.0866
X10.2446Y-2.1866
X10.2446Y-2.2866
X10.3446Y-1.8866
X10.3446Y-1.9866
X10.3446Y-2.0866
X10.3446Y-2.1866
X10.3446Y-2.2866
X12.3213Y-4.1142
X12.3213Y-4.2142
X12.3213Y-4.3142
X12.3213Y-4.4142
X12.3213Y-4.5142
X12.3213Y-6.4173
X12.3213Y-6.5173
X12.3213Y-6.6173
X12.3213Y-6.7173
X12.3213Y-6.8173
X12.4213Y-4.1142
X12.4213Y-4.2142
X12.4213Y-4.3142
X12.4213Y-4.4142
X12.4213Y-4.5142
X12.4213Y-6.4173
X12.4213Y-6.5173
X12.4213Y-6.6173
X12.4213Y-6.7173
X12.4213Y-6.8173
T6
X2.2047Y-0.5874
X2.2047Y-0.9874
X2.2409Y-1.2205
X2.2409Y-2.0079
X2.2409Y-2.7953
X2.2409Y-3.9764
X2.2409Y-5.9449
X2.2409Y-7.126
X2.2441Y-4.9606
X2.6409Y-1.2205
X2.6409Y-2.0079
X2.6409Y-2.7953
X2.6409Y-3.9764
X2.6409Y-5.9449
X2.6409Y-7.126
X2.6441Y-4.9606
X2.9921Y-0.5874
X2.9921Y-0.9874
X3.0283Y-1.2205
X3.0283Y-2.0079
X3.0283Y-2.7953
X3.2252Y-3.9764
X3.2252Y-4.9606
X3.2252Y-5.9449
X3.4283Y-1.2205
X3.4283Y-2.0079
X3.4283Y-2.7953
X3.6252Y-3.9764
X3.6252Y-4.9606
X3.6252Y-5.9449
X3.7795Y-0.5874
X3.7795Y-0.9874
X3.8157Y-1.2205
X3.8157Y-2.0079
X3.8157Y-2.7953
X4.2094Y-3.9764
X4.2094Y-4.7638
X4.2094Y-5.5512
X4.2094Y-6.3386
X4.2094Y-7.126
X4.2157Y-1.2205
X4.2157Y-2.0079
X4.2157Y-2.7953
X4.6094Y-3.9764
X4.6094Y-4.7638
X4.6094Y-5.5512
X4.6094Y-6.3386
X4.6094Y-7.126
X4.9606Y-0.5874
X4.9606Y-0.9874
X4.9969Y-1.2205
X4.9969Y-2.0079
X4.9969Y-2.7953
X4.9969Y-3.9764
X4.9969Y-4.7638
X4.9969Y-5.5512
X4.9969Y-6.3386
X5.3969Y-1.2205
X5.3969Y-2.0079
X5.3969Y-2.7953
X5.3969Y-3.9764
X5.3969Y-4.7638
X5.3969Y-5.5512
X5.3969Y-6.3386
X5.748Y-0.5843
X5.748Y-0.9843
X5.7843Y-1.2205
X5.7843Y-2.0079
X5.7843Y-2.7953
X5.7843Y-3.9764
X5.7843Y-4.7638
X5.7843Y-5.5512
X5.7843Y-6.3386
X6.178Y-7.126
X6.1843Y-1.2205
X6.1843Y-2.0079
X6.1843Y-2.7953
X6.1843Y-3.9764
X6.1843Y-4.7638
X6.1843Y-5.5512
X6.1843Y-6.3386
X6.5354Y-0.5874
X6.5354Y-0.9874
X6.5717Y-1.2205
X6.5717Y-2.0079
X6.5717Y-2.7953
X6.5717Y-3.9764
X6.5717Y-4.7638
X6.5717Y-5.5512
X6.5717Y-6.3386
X6.578Y-7.126
X6.9717Y-1.2205
X6.9717Y-2.0079
X6.9717Y-2.7953
X6.9717Y-3.9764
X6.9717Y-4.7638
X6.9717Y-5.5512
X6.9717Y-6.3386
X7.7528Y-1.6142
X7.7528Y-2.7953
X7.7528Y-3.9764
X7.7921Y-1.1417
X8.1465Y-6.3386
X8.1528Y-1.6142
X8.1528Y-2.7953
X8.1528Y-3.9764
X8.1921Y-1.1417
X8.5465Y-6.3386
X8.8976Y-0.5874
X8.8976Y-0.9874
X8.9339Y-1.2205
X8.9339Y-2.0079
X8.9339Y-2.7953
X8.9339Y-3.9764
X8.9339Y-5.5512
X8.9339Y-6.2992
X8.9339Y-7.126
X9.3339Y-1.2205
X9.3339Y-2.0079
X9.3339Y-2.7953
X9.3339Y-3.9764
X9.3339Y-5.5512
X9.3339Y-6.2992
X9.3339Y-7.126
X9.7213Y-2.7953
X9.7213Y-3.9764
X9.7213Y-6.3386
X9.9575Y-1.1417
X10.1213Y-2.7953
X10.1213Y-3.9764
X10.1213Y-6.3386
X10.3575Y-1.1417
X10.6087Y-5.4815
X10.7087Y-5.4815
X10.7449Y-1.1417
X10.8087Y-5.4815
X11.1449Y-1.1417
X11.4929Y-1.6142
X11.5323Y-1.1417
X11.8929Y-1.6142
X11.9323Y-1.1417
X12.2441Y-1.785
X12.2441Y-2.185
X12.3622Y-1.785
X12.3622Y-2.185
T7
X11.5894Y-3.002
X11.737Y-3.002
X11.737Y-6.4469
X11.885Y-3.002
X11.885Y-6.4469
X12.0327Y-3.002
T8
X2.4091Y-0.6874
X2.4091Y-1.4748
X2.4091Y-2.2622
X2.4091Y-3.0496
X2.4091Y-4.2307
X2.4091Y-5.215
X2.4091Y-6.1992
X2.4091Y-7.3803
X2.6591Y-0.5874
X2.6591Y-1.3748
X2.6591Y-2.1622
X2.6591Y-2.9496
X2.6591Y-4.1307
X2.6591Y-5.115
X2.6591Y-6.0992
X2.6591Y-7.2803
X3.1965Y-0.6874
X3.1965Y-1.4748
X3.1965Y-2.2622
X3.1965Y-3.0496
X3.3933Y-4.2307
X3.3933Y-5.215
X3.3933Y-6.1992
X3.4465Y-0.5874
X3.4465Y-1.3748
X3.4465Y-2.1622
X3.4465Y-2.9496
X3.6433Y-4.1307
X3.6433Y-5.115
X3.6433Y-6.0992
X3.9839Y-0.6874
X3.9839Y-1.4748
X3.9839Y-2.2622
X3.9839Y-3.0496
X4.2339Y-0.5874
X4.2339Y-1.3748
X4.2339Y-2.1622
X4.2339Y-2.9496
X4.3776Y-4.2307
X4.3776Y-5.0181
X4.3776Y-5.8055
X4.3776Y-6.5929
X4.3776Y-7.3803
X4.6276Y-4.1307
X4.6276Y-4.9181
X4.6276Y-5.7055
X4.6276Y-6.4929
X4.6276Y-7.2803
X5.165Y-0.6874
X5.165Y-1.4748
X5.165Y-2.2622
X5.165Y-3.0496
X5.165Y-4.2307
X5.165Y-5.0181
X5.165Y-5.8055
X5.165Y-6.5929
X5.415Y-0.5874
X5.415Y-1.3748
X5.415Y-2.1622
X5.415Y-2.9496
X5.415Y-4.1307
X5.415Y-4.9181
X5.415Y-5.7055
X5.415Y-6.4929
X5.9524Y-0.6874
X5.9524Y-1.4748
X5.9524Y-2.2622
X5.9524Y-3.0496
X5.9524Y-4.2307
X5.9524Y-5.0181
X5.9524Y-5.8055
X5.9524Y-6.5929
X6.2024Y-0.5874
X6.2024Y-1.3748
X6.2024Y-2.1622
X6.2024Y-2.9496
X6.2024Y-4.1307
X6.2024Y-4.9181
X6.2024Y-5.7055
X6.2024Y-6.4929
X6.3461Y-7.3803
X6.5961Y-7.2803
X6.7398Y-0.6874
X6.7398Y-1.4748
X6.7398Y-2.2622
X6.7398Y-3.0496
X6.7398Y-4.2307
X6.7398Y-5.0181
X6.7398Y-5.8055
X6.7398Y-6.5929
X6.9898Y-0.5874
X6.9898Y-1.3748
X6.9898Y-2.1622
X6.9898Y-2.9496
X6.9898Y-4.1307
X6.9898Y-4.9181
X6.9898Y-5.7055
X6.9898Y-6.4929
X7.9209Y-0.6874
X7.9209Y-1.8685
X7.9209Y-3.0496
X7.9209Y-4.2307
X8.1709Y-0.5874
X8.1709Y-1.7685
X8.1709Y-2.9496
X8.1709Y-4.1307
X8.3146Y-6.5929
X8.5646Y-6.4929
X9.102Y-0.6874
X9.102Y-1.4748
X9.102Y-2.2622
X9.102Y-3.0496
X9.102Y-4.2307
X9.102Y-5.8055
X9.102Y-6.5929
X9.102Y-7.3803
X9.352Y-0.5874
X9.352Y-1.3748
X9.352Y-2.1622
X9.352Y-2.9496
X9.352Y-4.1307
X9.352Y-5.7055
X9.352Y-6.4929
X9.352Y-7.2803
X9.8894Y-3.0496
X9.8894Y-4.2307
X9.8894Y-6.5929
X10.0862Y-0.6874
X10.1394Y-2.9496
X10.1394Y-4.1307
X10.1394Y-6.4929
X10.3362Y-0.5874
X10.8736Y-0.6874
X11.1236Y-0.5874
X11.6579Y-0.6874
X11.661Y-1.8685
X11.9079Y-0.5874
X11.911Y-1.7685
T9
X11.811Y-3.7067
X11.811Y-5.7421
T10
X12.1682Y-2.4016
X12.1682Y-2.874
T11
X1.7717Y-0.7874
X1.7717Y-5.315
X1.7717Y-7.4803
X7.4803Y-0.7874
X7.4803Y-5.315
X7.4803Y-7.4803
X12.4016Y-0.7874
X12.4016Y-5.315
X12.4016Y-7.4803
T0
M30
