%TF.GenerationSoftware,KiCad,Pcbnew,7.0.5*%
%TF.CreationDate,2023-07-04T22:58:31+02:00*%
%TF.ProjectId,CMD_Board,434d445f-426f-4617-9264-2e6b69636164,rev?*%
%TF.SameCoordinates,Original*%
%TF.FileFunction,Copper,L2,Bot*%
%TF.FilePolarity,Positive*%
%FSLAX46Y46*%
G04 Gerber Fmt 4.6, Leading zero omitted, Abs format (unit mm)*
G04 Created by KiCad (PCBNEW 7.0.5) date 2023-07-04 22:58:31*
%MOMM*%
%LPD*%
G01*
G04 APERTURE LIST*
G04 Aperture macros list*
%AMRoundRect*
0 Rectangle with rounded corners*
0 $1 Rounding radius*
0 $2 $3 $4 $5 $6 $7 $8 $9 X,Y pos of 4 corners*
0 Add a 4 corners polygon primitive as box body*
4,1,4,$2,$3,$4,$5,$6,$7,$8,$9,$2,$3,0*
0 Add four circle primitives for the rounded corners*
1,1,$1+$1,$2,$3*
1,1,$1+$1,$4,$5*
1,1,$1+$1,$6,$7*
1,1,$1+$1,$8,$9*
0 Add four rect primitives between the rounded corners*
20,1,$1+$1,$2,$3,$4,$5,0*
20,1,$1+$1,$4,$5,$6,$7,0*
20,1,$1+$1,$6,$7,$8,$9,0*
20,1,$1+$1,$8,$9,$2,$3,0*%
G04 Aperture macros list end*
%TA.AperFunction,ComponentPad*%
%ADD10R,2.200000X2.200000*%
%TD*%
%TA.AperFunction,ComponentPad*%
%ADD11O,2.200000X2.200000*%
%TD*%
%TA.AperFunction,ComponentPad*%
%ADD12C,2.500000*%
%TD*%
%TA.AperFunction,ComponentPad*%
%ADD13C,5.600000*%
%TD*%
%TA.AperFunction,ComponentPad*%
%ADD14C,2.200000*%
%TD*%
%TA.AperFunction,ComponentPad*%
%ADD15C,4.000000*%
%TD*%
%TA.AperFunction,ComponentPad*%
%ADD16RoundRect,0.250000X0.600000X0.600000X-0.600000X0.600000X-0.600000X-0.600000X0.600000X-0.600000X0*%
%TD*%
%TA.AperFunction,ComponentPad*%
%ADD17C,1.700000*%
%TD*%
%TA.AperFunction,ComponentPad*%
%ADD18R,1.600000X1.600000*%
%TD*%
%TA.AperFunction,ComponentPad*%
%ADD19C,1.600000*%
%TD*%
%TA.AperFunction,ComponentPad*%
%ADD20C,1.400000*%
%TD*%
%TA.AperFunction,ComponentPad*%
%ADD21O,1.400000X1.400000*%
%TD*%
%TA.AperFunction,ComponentPad*%
%ADD22O,1.600000X1.600000*%
%TD*%
%TA.AperFunction,ComponentPad*%
%ADD23C,1.500000*%
%TD*%
%TA.AperFunction,ComponentPad*%
%ADD24R,1.905000X2.000000*%
%TD*%
%TA.AperFunction,ComponentPad*%
%ADD25O,1.905000X2.000000*%
%TD*%
%TA.AperFunction,ComponentPad*%
%ADD26RoundRect,0.250000X0.600000X0.725000X-0.600000X0.725000X-0.600000X-0.725000X0.600000X-0.725000X0*%
%TD*%
%TA.AperFunction,ComponentPad*%
%ADD27O,1.700000X1.950000*%
%TD*%
%TA.AperFunction,ComponentPad*%
%ADD28R,2.400000X1.600000*%
%TD*%
%TA.AperFunction,ComponentPad*%
%ADD29O,2.400000X1.600000*%
%TD*%
%TA.AperFunction,ViaPad*%
%ADD30C,0.800000*%
%TD*%
%TA.AperFunction,Conductor*%
%ADD31C,0.250000*%
%TD*%
%TA.AperFunction,Conductor*%
%ADD32C,0.200000*%
%TD*%
G04 APERTURE END LIST*
D10*
%TO.P,D58,1,K*%
%TO.N,MATRIX_8*%
X106920000Y-181000000D03*
D11*
%TO.P,D58,2,A*%
%TO.N,Net-(D58-Pad2)*%
X117080000Y-181000000D03*
%TD*%
D10*
%TO.P,D70,1,K*%
%TO.N,MATRIX_7*%
X246920000Y-161000000D03*
D11*
%TO.P,D70,2,A*%
%TO.N,Net-(D70-Pad2)*%
X257080000Y-161000000D03*
%TD*%
D12*
%TO.P,SW14,1,1*%
%TO.N,MATRIX_E*%
X151190000Y-17460000D03*
%TO.P,SW14,2,2*%
%TO.N,Net-(D15-Pad2)*%
X157540000Y-14920000D03*
%TD*%
%TO.P,SW11,1,1*%
%TO.N,MATRIX_E*%
X81190000Y-77460000D03*
%TO.P,SW11,2,2*%
%TO.N,Net-(D12-Pad2)*%
X87540000Y-74920000D03*
%TD*%
%TO.P,SW25,1,1*%
%TO.N,MATRIX_F*%
X201190000Y-17460000D03*
%TO.P,SW25,2,2*%
%TO.N,Net-(D27-Pad2)*%
X207540000Y-14920000D03*
%TD*%
D13*
%TO.P,H2,1,1*%
%TO.N,GND*%
X315000000Y-135000000D03*
%TD*%
D12*
%TO.P,SW56,1,1*%
%TO.N,MATRIX_D*%
X111190000Y-187460000D03*
%TO.P,SW56,2,2*%
%TO.N,Net-(D58-Pad2)*%
X117540000Y-184920000D03*
%TD*%
D10*
%TO.P,D71,1,K*%
%TO.N,MATRIX_8*%
X226920000Y-181000000D03*
D11*
%TO.P,D71,2,A*%
%TO.N,Net-(D71-Pad2)*%
X237080000Y-181000000D03*
%TD*%
D10*
%TO.P,D44,1,K*%
%TO.N,MATRIX_2*%
X106920000Y-141000000D03*
D11*
%TO.P,D44,2,A*%
%TO.N,Net-(D44-Pad2)*%
X117080000Y-141000000D03*
%TD*%
D10*
%TO.P,D42,1,K*%
%TO.N,MATRIX_8*%
X106920000Y-101000000D03*
D11*
%TO.P,D42,2,A*%
%TO.N,Net-(D42-Pad2)*%
X117080000Y-101000000D03*
%TD*%
D12*
%TO.P,SW54,1,1*%
%TO.N,MATRIX_D*%
X171190000Y-147460000D03*
%TO.P,SW54,2,2*%
%TO.N,Net-(D56-Pad2)*%
X177540000Y-144920000D03*
%TD*%
%TO.P,SW6,1,1*%
%TO.N,MATRIX_A*%
X101190000Y-37460000D03*
%TO.P,SW6,2,2*%
%TO.N,Net-(D7-Pad2)*%
X107540000Y-34920000D03*
%TD*%
D10*
%TO.P,D14,1,K*%
%TO.N,ICSP_MISO*%
X126000000Y-25080000D03*
D11*
%TO.P,D14,2,A*%
%TO.N,Net-(D14-Pad2)*%
X126000000Y-14920000D03*
%TD*%
D12*
%TO.P,SW52,1,1*%
%TO.N,MATRIX_D*%
X171190000Y-107460000D03*
%TO.P,SW52,2,2*%
%TO.N,Net-(D54-Pad2)*%
X177540000Y-104920000D03*
%TD*%
%TO.P,SW20,1,1*%
%TO.N,MATRIX_B*%
X151190000Y-57460000D03*
%TO.P,SW20,2,2*%
%TO.N,Net-(D22-Pad2)*%
X157540000Y-54920000D03*
%TD*%
%TO.P,SW12,1,1*%
%TO.N,MATRIX_E*%
X101190000Y-77460000D03*
%TO.P,SW12,2,2*%
%TO.N,Net-(D13-Pad2)*%
X107540000Y-74920000D03*
%TD*%
%TO.P,SW35,1,1*%
%TO.N,MATRIX_G*%
X61190000Y-157460000D03*
%TO.P,SW35,2,2*%
%TO.N,Net-(D37-Pad2)*%
X67540000Y-154920000D03*
%TD*%
D10*
%TO.P,D21,1,K*%
%TO.N,MATRIX_3*%
X126920000Y-51000000D03*
D11*
%TO.P,D21,2,A*%
%TO.N,Net-(D21-Pad2)*%
X137080000Y-51000000D03*
%TD*%
D12*
%TO.P,SW19,1,1*%
%TO.N,MATRIX_B*%
X131190000Y-57460000D03*
%TO.P,SW19,2,2*%
%TO.N,Net-(D21-Pad2)*%
X137540000Y-54920000D03*
%TD*%
D10*
%TO.P,D40,1,K*%
%TO.N,ICSP_SCK*%
X81920000Y-151000000D03*
D11*
%TO.P,D40,2,A*%
%TO.N,Net-(D40-Pad2)*%
X92080000Y-151000000D03*
%TD*%
D12*
%TO.P,SW28,1,1*%
%TO.N,MATRIX_F*%
X231190000Y-17460000D03*
%TO.P,SW28,2,2*%
%TO.N,Net-(D30-Pad2)*%
X237540000Y-14920000D03*
%TD*%
%TO.P,SW26,1,1*%
%TO.N,MATRIX_F*%
X201190000Y-47460000D03*
%TO.P,SW26,2,2*%
%TO.N,Net-(D28-Pad2)*%
X207540000Y-44920000D03*
%TD*%
%TO.P,SW13,1,1*%
%TO.N,MATRIX_E*%
X131190000Y-17460000D03*
%TO.P,SW13,2,2*%
%TO.N,Net-(D14-Pad2)*%
X137540000Y-14920000D03*
%TD*%
D10*
%TO.P,D68,1,K*%
%TO.N,ICSP_MISO*%
X206920000Y-161000000D03*
D11*
%TO.P,D68,2,A*%
%TO.N,Net-(D68-Pad2)*%
X217080000Y-161000000D03*
%TD*%
D10*
%TO.P,D17,1,K*%
%TO.N,MATRIX_8*%
X126920000Y-31000000D03*
D11*
%TO.P,D17,2,A*%
%TO.N,Net-(D17-Pad2)*%
X137080000Y-31000000D03*
%TD*%
D10*
%TO.P,D56,1,K*%
%TO.N,ICSP_SCK*%
X166920000Y-141000000D03*
D11*
%TO.P,D56,2,A*%
%TO.N,Net-(D56-Pad2)*%
X177080000Y-141000000D03*
%TD*%
D12*
%TO.P,SW32,1,1*%
%TO.N,MATRIX_F*%
X251190000Y-77460000D03*
%TO.P,SW32,2,2*%
%TO.N,Net-(D34-Pad2)*%
X257540000Y-74920000D03*
%TD*%
%TO.P,SW1,1,1*%
%TO.N,MATRIX_A*%
X61190000Y-17460000D03*
%TO.P,SW1,2,2*%
%TO.N,Net-(D2-Pad2)*%
X67540000Y-14920000D03*
%TD*%
D10*
%TO.P,D49,1,K*%
%TO.N,MATRIX_7*%
X126920000Y-161000000D03*
D11*
%TO.P,D49,2,A*%
%TO.N,Net-(D49-Pad2)*%
X137080000Y-161000000D03*
%TD*%
D12*
%TO.P,SW3,1,1*%
%TO.N,MATRIX_A*%
X101190000Y-17460000D03*
%TO.P,SW3,2,2*%
%TO.N,Net-(D4-Pad2)*%
X107540000Y-14920000D03*
%TD*%
D10*
%TO.P,D60,1,K*%
%TO.N,MATRIX_2*%
X196920000Y-101000000D03*
D11*
%TO.P,D60,2,A*%
%TO.N,Net-(D60-Pad2)*%
X207080000Y-101000000D03*
%TD*%
D12*
%TO.P,SW24,1,1*%
%TO.N,MATRIX_B*%
X171190000Y-77460000D03*
%TO.P,SW24,2,2*%
%TO.N,Net-(D26-Pad2)*%
X177540000Y-74920000D03*
%TD*%
D10*
%TO.P,D29,1,K*%
%TO.N,MATRIX_3*%
X196920000Y-71000000D03*
D11*
%TO.P,D29,2,A*%
%TO.N,Net-(D29-Pad2)*%
X207080000Y-71000000D03*
%TD*%
D12*
%TO.P,SW60,1,1*%
%TO.N,MATRIX_I*%
X251190000Y-107460000D03*
%TO.P,SW60,2,2*%
%TO.N,Net-(D62-Pad2)*%
X257540000Y-104920000D03*
%TD*%
D10*
%TO.P,D23,1,K*%
%TO.N,ICSP_MISO*%
X166920000Y-51000000D03*
D11*
%TO.P,D23,2,A*%
%TO.N,Net-(D23-Pad2)*%
X177080000Y-51000000D03*
%TD*%
D10*
%TO.P,D52,1,K*%
%TO.N,MATRIX_2*%
X146920000Y-141000000D03*
D11*
%TO.P,D52,2,A*%
%TO.N,Net-(D52-Pad2)*%
X157080000Y-141000000D03*
%TD*%
D12*
%TO.P,SW68,1,1*%
%TO.N,MATRIX_H*%
X251190000Y-167460000D03*
%TO.P,SW68,2,2*%
%TO.N,Net-(D70-Pad2)*%
X257540000Y-164920000D03*
%TD*%
D10*
%TO.P,D30,1,K*%
%TO.N,ICSP_MOSI*%
X226000000Y-25080000D03*
D11*
%TO.P,D30,2,A*%
%TO.N,Net-(D30-Pad2)*%
X226000000Y-14920000D03*
%TD*%
D12*
%TO.P,SW69,1,1*%
%TO.N,MATRIX_H*%
X231190000Y-187460000D03*
%TO.P,SW69,2,2*%
%TO.N,Net-(D71-Pad2)*%
X237540000Y-184920000D03*
%TD*%
D13*
%TO.P,H5,1,1*%
%TO.N,GND*%
X190000000Y-190000000D03*
%TD*%
D10*
%TO.P,D27,1,K*%
%TO.N,MATRIX_1*%
X197920000Y-29000000D03*
D11*
%TO.P,D27,2,A*%
%TO.N,Net-(D27-Pad2)*%
X208080000Y-29000000D03*
%TD*%
D10*
%TO.P,D31,1,K*%
%TO.N,ICSP_MISO*%
X226920000Y-31000000D03*
D11*
%TO.P,D31,2,A*%
%TO.N,Net-(D31-Pad2)*%
X237080000Y-31000000D03*
%TD*%
D12*
%TO.P,SW57,1,1*%
%TO.N,MATRIX_I*%
X161190000Y-187460000D03*
%TO.P,SW57,2,2*%
%TO.N,Net-(D59-Pad2)*%
X167540000Y-184920000D03*
%TD*%
D10*
%TO.P,D62,1,K*%
%TO.N,ICSP_MOSI*%
X246920000Y-101000000D03*
D11*
%TO.P,D62,2,A*%
%TO.N,Net-(D62-Pad2)*%
X257080000Y-101000000D03*
%TD*%
D12*
%TO.P,SW4,1,1*%
%TO.N,MATRIX_A*%
X61190000Y-37460000D03*
%TO.P,SW4,2,2*%
%TO.N,Net-(D5-Pad2)*%
X67540000Y-34920000D03*
%TD*%
%TO.P,SW51,1,1*%
%TO.N,MATRIX_D*%
X151190000Y-167460000D03*
%TO.P,SW51,2,2*%
%TO.N,Net-(D53-Pad2)*%
X157540000Y-164920000D03*
%TD*%
%TO.P,SW34,1,1*%
%TO.N,MATRIX_G*%
X61190000Y-132460000D03*
%TO.P,SW34,2,2*%
%TO.N,Net-(D36-Pad2)*%
X67540000Y-129920000D03*
%TD*%
D10*
%TO.P,D67,1,K*%
%TO.N,ICSP_MOSI*%
X291920000Y-41000000D03*
D11*
%TO.P,D67,2,A*%
%TO.N,Net-(D67-Pad2)*%
X302080000Y-41000000D03*
%TD*%
D12*
%TO.P,SW66,1,1*%
%TO.N,MATRIX_H*%
X211190000Y-167460000D03*
%TO.P,SW66,2,2*%
%TO.N,Net-(D68-Pad2)*%
X217540000Y-164920000D03*
%TD*%
D10*
%TO.P,D22,1,K*%
%TO.N,ICSP_MOSI*%
X146920000Y-51000000D03*
D11*
%TO.P,D22,2,A*%
%TO.N,Net-(D22-Pad2)*%
X157080000Y-51000000D03*
%TD*%
D12*
%TO.P,SW16,1,1*%
%TO.N,MATRIX_E*%
X131190000Y-37460000D03*
%TO.P,SW16,2,2*%
%TO.N,Net-(D17-Pad2)*%
X137540000Y-34920000D03*
%TD*%
D10*
%TO.P,D9,1,K*%
%TO.N,MATRIX_8*%
X76920000Y-51000000D03*
D11*
%TO.P,D9,2,A*%
%TO.N,Net-(D9-Pad2)*%
X87080000Y-51000000D03*
%TD*%
D12*
%TO.P,SW22,1,1*%
%TO.N,MATRIX_B*%
X131190000Y-77460000D03*
%TO.P,SW22,2,2*%
%TO.N,Net-(D24-Pad2)*%
X137540000Y-74920000D03*
%TD*%
%TO.P,SW17,1,1*%
%TO.N,MATRIX_B*%
X151190000Y-37460000D03*
%TO.P,SW17,2,2*%
%TO.N,Net-(D19-Pad2)*%
X157540000Y-34920000D03*
%TD*%
D13*
%TO.P,H3,1,1*%
%TO.N,GND*%
X190000000Y-135000000D03*
%TD*%
D12*
%TO.P,SW50,1,1*%
%TO.N,MATRIX_D*%
X151190000Y-147460000D03*
%TO.P,SW50,2,2*%
%TO.N,Net-(D52-Pad2)*%
X157540000Y-144920000D03*
%TD*%
%TO.P,SW42,1,1*%
%TO.N,MATRIX_C*%
X111190000Y-147460000D03*
%TO.P,SW42,2,2*%
%TO.N,Net-(D44-Pad2)*%
X117540000Y-144920000D03*
%TD*%
%TO.P,SW65,1,1*%
%TO.N,MATRIX_H*%
X296190000Y-47460000D03*
%TO.P,SW65,2,2*%
%TO.N,Net-(D67-Pad2)*%
X302540000Y-44920000D03*
%TD*%
D10*
%TO.P,D69,1,K*%
%TO.N,ICSP_SCK*%
X226920000Y-160000000D03*
D11*
%TO.P,D69,2,A*%
%TO.N,Net-(D69-Pad2)*%
X237080000Y-160000000D03*
%TD*%
D12*
%TO.P,SW33,1,1*%
%TO.N,MATRIX_G*%
X61190000Y-107460000D03*
%TO.P,SW33,2,2*%
%TO.N,Net-(D35-Pad2)*%
X67540000Y-104920000D03*
%TD*%
D10*
%TO.P,D6,1,K*%
%TO.N,ICSP_MISO*%
X76920000Y-31000000D03*
D11*
%TO.P,D6,2,A*%
%TO.N,Net-(D6-Pad2)*%
X87080000Y-31000000D03*
%TD*%
D12*
%TO.P,SW53,1,1*%
%TO.N,MATRIX_D*%
X171190000Y-127460000D03*
%TO.P,SW53,2,2*%
%TO.N,Net-(D55-Pad2)*%
X177540000Y-124920000D03*
%TD*%
%TO.P,SW23,1,1*%
%TO.N,MATRIX_B*%
X151190000Y-77460000D03*
%TO.P,SW23,2,2*%
%TO.N,Net-(D25-Pad2)*%
X157540000Y-74920000D03*
%TD*%
D10*
%TO.P,D59,1,K*%
%TO.N,MATRIX_1*%
X156920000Y-181000000D03*
D11*
%TO.P,D59,2,A*%
%TO.N,Net-(D59-Pad2)*%
X167080000Y-181000000D03*
%TD*%
D10*
%TO.P,D13,1,K*%
%TO.N,ICSP_MOSI*%
X96920000Y-71000000D03*
D11*
%TO.P,D13,2,A*%
%TO.N,Net-(D13-Pad2)*%
X107080000Y-71000000D03*
%TD*%
D12*
%TO.P,SW58,1,1*%
%TO.N,MATRIX_I*%
X201190000Y-107460000D03*
%TO.P,SW58,2,2*%
%TO.N,Net-(D60-Pad2)*%
X207540000Y-104920000D03*
%TD*%
%TO.P,SW29,1,1*%
%TO.N,MATRIX_F*%
X231190000Y-37460000D03*
%TO.P,SW29,2,2*%
%TO.N,Net-(D31-Pad2)*%
X237540000Y-34920000D03*
%TD*%
%TO.P,SW36,1,1*%
%TO.N,MATRIX_G*%
X86190000Y-107460000D03*
%TO.P,SW36,2,2*%
%TO.N,Net-(D38-Pad2)*%
X92540000Y-104920000D03*
%TD*%
%TO.P,SW49,1,1*%
%TO.N,MATRIX_D*%
X151190000Y-127460000D03*
%TO.P,SW49,2,2*%
%TO.N,Net-(D51-Pad2)*%
X157540000Y-124920000D03*
%TD*%
%TO.P,SW45,1,1*%
%TO.N,MATRIX_C*%
X131190000Y-127460000D03*
%TO.P,SW45,2,2*%
%TO.N,Net-(D47-Pad2)*%
X137540000Y-124920000D03*
%TD*%
D10*
%TO.P,D51,1,K*%
%TO.N,MATRIX_1*%
X146920000Y-121000000D03*
D11*
%TO.P,D51,2,A*%
%TO.N,Net-(D51-Pad2)*%
X157080000Y-121000000D03*
%TD*%
D12*
%TO.P,SW37,1,1*%
%TO.N,MATRIX_G*%
X86190000Y-132460000D03*
%TO.P,SW37,2,2*%
%TO.N,Net-(D39-Pad2)*%
X92540000Y-129920000D03*
%TD*%
D10*
%TO.P,D8,1,K*%
%TO.N,MATRIX_7*%
X56920000Y-51000000D03*
D11*
%TO.P,D8,2,A*%
%TO.N,Net-(D8-Pad2)*%
X67080000Y-51000000D03*
%TD*%
D12*
%TO.P,SW9,1,1*%
%TO.N,MATRIX_E*%
X101190000Y-57460000D03*
%TO.P,SW9,2,2*%
%TO.N,Net-(D10-Pad2)*%
X107540000Y-54920000D03*
%TD*%
%TO.P,SW55,1,1*%
%TO.N,MATRIX_D*%
X171190000Y-167460000D03*
%TO.P,SW55,2,2*%
%TO.N,Net-(D57-Pad2)*%
X177540000Y-164920000D03*
%TD*%
D10*
%TO.P,D45,1,K*%
%TO.N,MATRIX_3*%
X106920000Y-161000000D03*
D11*
%TO.P,D45,2,A*%
%TO.N,Net-(D45-Pad2)*%
X117080000Y-161000000D03*
%TD*%
D10*
%TO.P,D63,1,K*%
%TO.N,ICSP_MISO*%
X252920000Y-29000000D03*
D11*
%TO.P,D63,2,A*%
%TO.N,Net-(D63-Pad2)*%
X263080000Y-29000000D03*
%TD*%
D10*
%TO.P,D47,1,K*%
%TO.N,ICSP_MISO*%
X126920000Y-121000000D03*
D11*
%TO.P,D47,2,A*%
%TO.N,Net-(D47-Pad2)*%
X137080000Y-121000000D03*
%TD*%
D10*
%TO.P,D5,1,K*%
%TO.N,ICSP_MOSI*%
X56920000Y-31000000D03*
D11*
%TO.P,D5,2,A*%
%TO.N,Net-(D5-Pad2)*%
X67080000Y-31000000D03*
%TD*%
D10*
%TO.P,D53,1,K*%
%TO.N,MATRIX_3*%
X146920000Y-161000000D03*
D11*
%TO.P,D53,2,A*%
%TO.N,Net-(D53-Pad2)*%
X157080000Y-161000000D03*
%TD*%
D12*
%TO.P,SW15,1,1*%
%TO.N,MATRIX_E*%
X171190000Y-17460000D03*
%TO.P,SW15,2,2*%
%TO.N,Net-(D16-Pad2)*%
X177540000Y-14920000D03*
%TD*%
D10*
%TO.P,D7,1,K*%
%TO.N,ICSP_SCK*%
X96920000Y-31000000D03*
D11*
%TO.P,D7,2,A*%
%TO.N,Net-(D7-Pad2)*%
X107080000Y-31000000D03*
%TD*%
D10*
%TO.P,D26,1,K*%
%TO.N,MATRIX_8*%
X166920000Y-71000000D03*
D11*
%TO.P,D26,2,A*%
%TO.N,Net-(D26-Pad2)*%
X177080000Y-71000000D03*
%TD*%
D12*
%TO.P,SW63,1,1*%
%TO.N,MATRIX_H*%
X231190000Y-147460000D03*
%TO.P,SW63,2,2*%
%TO.N,Net-(D65-Pad2)*%
X237540000Y-144920000D03*
%TD*%
%TO.P,SW8,1,1*%
%TO.N,MATRIX_A*%
X81190000Y-57460000D03*
%TO.P,SW8,2,2*%
%TO.N,Net-(D9-Pad2)*%
X87540000Y-54920000D03*
%TD*%
%TO.P,SW18,1,1*%
%TO.N,MATRIX_B*%
X171190000Y-37460000D03*
%TO.P,SW18,2,2*%
%TO.N,Net-(D20-Pad2)*%
X177540000Y-34920000D03*
%TD*%
D13*
%TO.P,H2,1,1*%
%TO.N,GND*%
X190000000Y-20000000D03*
%TD*%
D10*
%TO.P,D32,1,K*%
%TO.N,ICSP_SCK*%
X226920000Y-51000000D03*
D11*
%TO.P,D32,2,A*%
%TO.N,Net-(D32-Pad2)*%
X237080000Y-51000000D03*
%TD*%
D13*
%TO.P,H1,1,1*%
%TO.N,GND*%
X45000000Y-135000000D03*
%TD*%
D10*
%TO.P,D41,1,K*%
%TO.N,MATRIX_7*%
X56920000Y-181000000D03*
D11*
%TO.P,D41,2,A*%
%TO.N,Net-(D41-Pad2)*%
X67080000Y-181000000D03*
%TD*%
D12*
%TO.P,SW62,1,1*%
%TO.N,MATRIX_H*%
X276190000Y-17460000D03*
%TO.P,SW62,2,2*%
%TO.N,Net-(D64-Pad2)*%
X282540000Y-14920000D03*
%TD*%
%TO.P,SW47,1,1*%
%TO.N,MATRIX_C*%
X131190000Y-167460000D03*
%TO.P,SW47,2,2*%
%TO.N,Net-(D49-Pad2)*%
X137540000Y-164920000D03*
%TD*%
D10*
%TO.P,D66,1,K*%
%TO.N,MATRIX_3*%
X292920000Y-29000000D03*
D11*
%TO.P,D66,2,A*%
%TO.N,Net-(D66-Pad2)*%
X303080000Y-29000000D03*
%TD*%
D13*
%TO.P,H4,1,1*%
%TO.N,GND*%
X45000000Y-20000000D03*
%TD*%
D10*
%TO.P,D28,1,K*%
%TO.N,MATRIX_2*%
X196920000Y-41000000D03*
D11*
%TO.P,D28,2,A*%
%TO.N,Net-(D28-Pad2)*%
X207080000Y-41000000D03*
%TD*%
D12*
%TO.P,SW61,1,1*%
%TO.N,MATRIX_I*%
X256190000Y-17460000D03*
%TO.P,SW61,2,2*%
%TO.N,Net-(D63-Pad2)*%
X262540000Y-14920000D03*
%TD*%
D10*
%TO.P,D57,1,K*%
%TO.N,MATRIX_7*%
X166920000Y-161000000D03*
D11*
%TO.P,D57,2,A*%
%TO.N,Net-(D57-Pad2)*%
X177080000Y-161000000D03*
%TD*%
D10*
%TO.P,D46,1,K*%
%TO.N,ICSP_MOSI*%
X126920000Y-101000000D03*
D11*
%TO.P,D46,2,A*%
%TO.N,Net-(D46-Pad2)*%
X137080000Y-101000000D03*
%TD*%
D10*
%TO.P,D64,1,K*%
%TO.N,MATRIX_1*%
X272920000Y-29000000D03*
D11*
%TO.P,D64,2,A*%
%TO.N,Net-(D64-Pad2)*%
X283080000Y-29000000D03*
%TD*%
D10*
%TO.P,D4,1,K*%
%TO.N,MATRIX_3*%
X96000000Y-25080000D03*
D11*
%TO.P,D4,2,A*%
%TO.N,Net-(D4-Pad2)*%
X96000000Y-14920000D03*
%TD*%
D12*
%TO.P,SW43,1,1*%
%TO.N,MATRIX_C*%
X111190000Y-167460000D03*
%TO.P,SW43,2,2*%
%TO.N,Net-(D45-Pad2)*%
X117540000Y-164920000D03*
%TD*%
D10*
%TO.P,D65,1,K*%
%TO.N,MATRIX_2*%
X226920000Y-141000000D03*
D11*
%TO.P,D65,2,A*%
%TO.N,Net-(D65-Pad2)*%
X237080000Y-141000000D03*
%TD*%
D10*
%TO.P,D24,1,K*%
%TO.N,ICSP_SCK*%
X126920000Y-71000000D03*
D11*
%TO.P,D24,2,A*%
%TO.N,Net-(D24-Pad2)*%
X137080000Y-71000000D03*
%TD*%
D12*
%TO.P,SW27,1,1*%
%TO.N,MATRIX_F*%
X201190000Y-77460000D03*
%TO.P,SW27,2,2*%
%TO.N,Net-(D29-Pad2)*%
X207540000Y-74920000D03*
%TD*%
D10*
%TO.P,D35,1,K*%
%TO.N,MATRIX_1*%
X56920000Y-101000000D03*
D11*
%TO.P,D35,2,A*%
%TO.N,Net-(D35-Pad2)*%
X67080000Y-101000000D03*
%TD*%
D12*
%TO.P,SW40,1,1*%
%TO.N,MATRIX_G*%
X111190000Y-107460000D03*
%TO.P,SW40,2,2*%
%TO.N,Net-(D42-Pad2)*%
X117540000Y-104920000D03*
%TD*%
D13*
%TO.P,H6,1,1*%
%TO.N,GND*%
X45000000Y-190000000D03*
%TD*%
D10*
%TO.P,D43,1,K*%
%TO.N,MATRIX_1*%
X106920000Y-121000000D03*
D11*
%TO.P,D43,2,A*%
%TO.N,Net-(D43-Pad2)*%
X117080000Y-121000000D03*
%TD*%
D10*
%TO.P,D12,1,K*%
%TO.N,MATRIX_3*%
X76920000Y-71000000D03*
D11*
%TO.P,D12,2,A*%
%TO.N,Net-(D12-Pad2)*%
X87080000Y-71000000D03*
%TD*%
D12*
%TO.P,SW31,1,1*%
%TO.N,MATRIX_F*%
X231190000Y-77460000D03*
%TO.P,SW31,2,2*%
%TO.N,Net-(D33-Pad2)*%
X237540000Y-74920000D03*
%TD*%
D13*
%TO.P,H2,1,1*%
%TO.N,GND*%
X315000000Y-190000000D03*
%TD*%
D12*
%TO.P,SW64,1,1*%
%TO.N,MATRIX_H*%
X296110000Y-17460000D03*
%TO.P,SW64,2,2*%
%TO.N,Net-(D66-Pad2)*%
X302460000Y-14920000D03*
%TD*%
D10*
%TO.P,D20,1,K*%
%TO.N,MATRIX_2*%
X166920000Y-31000000D03*
D11*
%TO.P,D20,2,A*%
%TO.N,Net-(D20-Pad2)*%
X177080000Y-31000000D03*
%TD*%
D13*
%TO.P,H2,1,1*%
%TO.N,GND*%
X315000000Y-20000000D03*
%TD*%
D10*
%TO.P,D33,1,K*%
%TO.N,MATRIX_7*%
X226920000Y-71000000D03*
D11*
%TO.P,D33,2,A*%
%TO.N,Net-(D33-Pad2)*%
X237080000Y-71000000D03*
%TD*%
D10*
%TO.P,D34,1,K*%
%TO.N,MATRIX_8*%
X246920000Y-71000000D03*
D11*
%TO.P,D34,2,A*%
%TO.N,Net-(D34-Pad2)*%
X257080000Y-71000000D03*
%TD*%
D10*
%TO.P,D55,1,K*%
%TO.N,ICSP_MISO*%
X166920000Y-121000000D03*
D11*
%TO.P,D55,2,A*%
%TO.N,Net-(D55-Pad2)*%
X177080000Y-121000000D03*
%TD*%
D12*
%TO.P,SW10,1,1*%
%TO.N,MATRIX_E*%
X61190000Y-77460000D03*
%TO.P,SW10,2,2*%
%TO.N,Net-(D11-Pad2)*%
X67540000Y-74920000D03*
%TD*%
D10*
%TO.P,D2,1,K*%
%TO.N,MATRIX_1*%
X56000000Y-25080000D03*
D11*
%TO.P,D2,2,A*%
%TO.N,Net-(D2-Pad2)*%
X56000000Y-14920000D03*
%TD*%
D10*
%TO.P,D15,1,K*%
%TO.N,ICSP_SCK*%
X146000000Y-25000000D03*
D11*
%TO.P,D15,2,A*%
%TO.N,Net-(D15-Pad2)*%
X146000000Y-14840000D03*
%TD*%
D10*
%TO.P,D36,1,K*%
%TO.N,MATRIX_2*%
X57000000Y-126000000D03*
D11*
%TO.P,D36,2,A*%
%TO.N,Net-(D36-Pad2)*%
X67160000Y-126000000D03*
%TD*%
D10*
%TO.P,D10,1,K*%
%TO.N,MATRIX_1*%
X96920000Y-51000000D03*
D11*
%TO.P,D10,2,A*%
%TO.N,Net-(D10-Pad2)*%
X107080000Y-51000000D03*
%TD*%
D12*
%TO.P,SW7,1,1*%
%TO.N,MATRIX_A*%
X61190000Y-57460000D03*
%TO.P,SW7,2,2*%
%TO.N,Net-(D8-Pad2)*%
X67540000Y-54920000D03*
%TD*%
%TO.P,SW38,1,1*%
%TO.N,MATRIX_G*%
X86190000Y-157460000D03*
%TO.P,SW38,2,2*%
%TO.N,Net-(D40-Pad2)*%
X92540000Y-154920000D03*
%TD*%
D10*
%TO.P,D50,1,K*%
%TO.N,MATRIX_8*%
X146920000Y-101000000D03*
D11*
%TO.P,D50,2,A*%
%TO.N,Net-(D50-Pad2)*%
X157080000Y-101000000D03*
%TD*%
D10*
%TO.P,D19,1,K*%
%TO.N,MATRIX_1*%
X146920000Y-31000000D03*
D11*
%TO.P,D19,2,A*%
%TO.N,Net-(D19-Pad2)*%
X157080000Y-31000000D03*
%TD*%
D12*
%TO.P,SW30,1,1*%
%TO.N,MATRIX_F*%
X231190000Y-57460000D03*
%TO.P,SW30,2,2*%
%TO.N,Net-(D32-Pad2)*%
X237540000Y-54920000D03*
%TD*%
%TO.P,SW21,1,1*%
%TO.N,MATRIX_B*%
X171190000Y-57460000D03*
%TO.P,SW21,2,2*%
%TO.N,Net-(D23-Pad2)*%
X177540000Y-54920000D03*
%TD*%
D10*
%TO.P,D38,1,K*%
%TO.N,ICSP_MOSI*%
X81920000Y-101000000D03*
D11*
%TO.P,D38,2,A*%
%TO.N,Net-(D38-Pad2)*%
X92080000Y-101000000D03*
%TD*%
D10*
%TO.P,D48,1,K*%
%TO.N,ICSP_SCK*%
X126920000Y-141000000D03*
D11*
%TO.P,D48,2,A*%
%TO.N,Net-(D48-Pad2)*%
X137080000Y-141000000D03*
%TD*%
D12*
%TO.P,SW67,1,1*%
%TO.N,MATRIX_H*%
X231190000Y-167460000D03*
%TO.P,SW67,2,2*%
%TO.N,Net-(D69-Pad2)*%
X237540000Y-164920000D03*
%TD*%
D10*
%TO.P,D3,1,K*%
%TO.N,MATRIX_2*%
X76000000Y-25080000D03*
D11*
%TO.P,D3,2,A*%
%TO.N,Net-(D3-Pad2)*%
X76000000Y-14920000D03*
%TD*%
D10*
%TO.P,D54,1,K*%
%TO.N,ICSP_MOSI*%
X166920000Y-101000000D03*
D11*
%TO.P,D54,2,A*%
%TO.N,Net-(D54-Pad2)*%
X177080000Y-101000000D03*
%TD*%
D10*
%TO.P,D11,1,K*%
%TO.N,MATRIX_2*%
X56920000Y-71000000D03*
D11*
%TO.P,D11,2,A*%
%TO.N,Net-(D11-Pad2)*%
X67080000Y-71000000D03*
%TD*%
D10*
%TO.P,D37,1,K*%
%TO.N,MATRIX_3*%
X56920000Y-151000000D03*
D11*
%TO.P,D37,2,A*%
%TO.N,Net-(D37-Pad2)*%
X67080000Y-151000000D03*
%TD*%
D12*
%TO.P,SW46,1,1*%
%TO.N,MATRIX_C*%
X131190000Y-147460000D03*
%TO.P,SW46,2,2*%
%TO.N,Net-(D48-Pad2)*%
X137540000Y-144920000D03*
%TD*%
%TO.P,SW41,1,1*%
%TO.N,MATRIX_C*%
X111190000Y-127460000D03*
%TO.P,SW41,2,2*%
%TO.N,Net-(D43-Pad2)*%
X117540000Y-124920000D03*
%TD*%
%TO.P,SW5,1,1*%
%TO.N,MATRIX_A*%
X81190000Y-37460000D03*
%TO.P,SW5,2,2*%
%TO.N,Net-(D6-Pad2)*%
X87540000Y-34920000D03*
%TD*%
D10*
%TO.P,D25,1,K*%
%TO.N,MATRIX_7*%
X146920000Y-71000000D03*
D11*
%TO.P,D25,2,A*%
%TO.N,Net-(D25-Pad2)*%
X157080000Y-71000000D03*
%TD*%
D10*
%TO.P,D61,1,K*%
%TO.N,MATRIX_3*%
X226920000Y-101000000D03*
D11*
%TO.P,D61,2,A*%
%TO.N,Net-(D61-Pad2)*%
X237080000Y-101000000D03*
%TD*%
D14*
%TO.P,RV1,1,1*%
%TO.N,GND*%
X298120000Y-76250000D03*
%TO.P,RV1,2,2*%
%TO.N,ANALOG_1*%
X294370000Y-76250000D03*
%TO.P,RV1,3,3*%
%TO.N,+5VA*%
X298120000Y-163750000D03*
%TO.P,RV1,4*%
%TO.N,N/C*%
X301880000Y-76250000D03*
%TO.P,RV1,5*%
X305630000Y-76250000D03*
%TO.P,RV1,6*%
X301880000Y-163750000D03*
D15*
%TO.P,RV1,G*%
X300000000Y-94150000D03*
X300000000Y-145850000D03*
%TD*%
D12*
%TO.P,SW44,1,1*%
%TO.N,MATRIX_C*%
X131190000Y-107460000D03*
%TO.P,SW44,2,2*%
%TO.N,Net-(D46-Pad2)*%
X137540000Y-104920000D03*
%TD*%
D10*
%TO.P,D39,1,K*%
%TO.N,ICSP_MISO*%
X81920000Y-126000000D03*
D11*
%TO.P,D39,2,A*%
%TO.N,Net-(D39-Pad2)*%
X92080000Y-126000000D03*
%TD*%
D12*
%TO.P,SW39,1,1*%
%TO.N,MATRIX_G*%
X61190000Y-187460000D03*
%TO.P,SW39,2,2*%
%TO.N,Net-(D41-Pad2)*%
X67540000Y-184920000D03*
%TD*%
%TO.P,SW48,1,1*%
%TO.N,MATRIX_C*%
X151190000Y-107460000D03*
%TO.P,SW48,2,2*%
%TO.N,Net-(D50-Pad2)*%
X157540000Y-104920000D03*
%TD*%
D10*
%TO.P,D16,1,K*%
%TO.N,MATRIX_7*%
X166000000Y-25080000D03*
D11*
%TO.P,D16,2,A*%
%TO.N,Net-(D16-Pad2)*%
X166000000Y-14920000D03*
%TD*%
D12*
%TO.P,SW59,1,1*%
%TO.N,MATRIX_I*%
X231190000Y-107460000D03*
%TO.P,SW59,2,2*%
%TO.N,Net-(D61-Pad2)*%
X237540000Y-104920000D03*
%TD*%
%TO.P,SW2,1,1*%
%TO.N,MATRIX_A*%
X81190000Y-17460000D03*
%TO.P,SW2,2,2*%
%TO.N,Net-(D3-Pad2)*%
X87540000Y-14920000D03*
%TD*%
D16*
%TO.P,J4,1,Pin_1*%
%TO.N,+12V*%
X315500000Y-163000000D03*
D17*
%TO.P,J4,2,Pin_2*%
%TO.N,GND*%
X312960000Y-163000000D03*
%TO.P,J4,3,Pin_3*%
%TO.N,+12V*%
X315500000Y-165540000D03*
%TO.P,J4,4,Pin_4*%
%TO.N,GND*%
X312960000Y-165540000D03*
%TO.P,J4,5,Pin_5*%
%TO.N,+5V*%
X315500000Y-168080000D03*
%TO.P,J4,6,Pin_6*%
%TO.N,GND*%
X312960000Y-168080000D03*
%TO.P,J4,7,Pin_7*%
%TO.N,+5V*%
X315500000Y-170620000D03*
%TO.P,J4,8,Pin_8*%
%TO.N,GND*%
X312960000Y-170620000D03*
%TO.P,J4,9,Pin_9*%
%TO.N,+5V*%
X315500000Y-173160000D03*
%TO.P,J4,10,Pin_10*%
%TO.N,GND*%
X312960000Y-173160000D03*
%TD*%
D16*
%TO.P,J5,1,Pin_1*%
%TO.N,+5VA*%
X315500000Y-104500000D03*
D17*
%TO.P,J5,2,Pin_2*%
%TO.N,ANALOG_2*%
X312960000Y-104500000D03*
%TO.P,J5,3,Pin_3*%
%TO.N,unconnected-(J5-Pad3)*%
X315500000Y-107040000D03*
%TO.P,J5,4,Pin_4*%
%TO.N,MATRIX_I*%
X312960000Y-107040000D03*
%TO.P,J5,5,Pin_5*%
%TO.N,unconnected-(J5-Pad5)*%
X315500000Y-109580000D03*
%TO.P,J5,6,Pin_6*%
%TO.N,ICSP_SCK*%
X312960000Y-109580000D03*
%TO.P,J5,7,Pin_7*%
%TO.N,unconnected-(J5-Pad7)*%
X315500000Y-112120000D03*
%TO.P,J5,8,Pin_8*%
%TO.N,MATRIX_7*%
X312960000Y-112120000D03*
%TO.P,J5,9,Pin_9*%
%TO.N,MATRIX_8*%
X315500000Y-114660000D03*
%TO.P,J5,10,Pin_10*%
%TO.N,GND*%
X312960000Y-114660000D03*
%TD*%
D10*
%TO.P,D18,1,K*%
%TO.N,/#USB_D+*%
X314000000Y-55500000D03*
D11*
%TO.P,D18,2,A*%
%TO.N,GND*%
X314000000Y-45340000D03*
%TD*%
D18*
%TO.P,J1,1,VBUS*%
%TO.N,unconnected-(J1-Pad1)*%
X304212500Y-68250000D03*
D19*
%TO.P,J1,2,D-*%
%TO.N,/#USB_D-*%
X304212500Y-65750000D03*
%TO.P,J1,3,D+*%
%TO.N,/#USB_D+*%
X306212500Y-65750000D03*
%TO.P,J1,4,GND*%
%TO.N,GND*%
X306212500Y-68250000D03*
D15*
%TO.P,J1,5,Shield*%
X309072500Y-73000000D03*
X309072500Y-61000000D03*
%TD*%
D20*
%TO.P,R4,1*%
%TO.N,+5V*%
X260000000Y-40000000D03*
D21*
%TO.P,R4,2*%
%TO.N,~{RESET}*%
X262540000Y-40000000D03*
%TD*%
D19*
%TO.P,C1,1*%
%TO.N,+5V*%
X279500000Y-51000000D03*
%TO.P,C1,2*%
%TO.N,GND*%
X274500000Y-51000000D03*
%TD*%
D16*
%TO.P,J2,1,Pin_1*%
%TO.N,ICSP_MOSI*%
X262752500Y-47920000D03*
D17*
%TO.P,J2,2,Pin_2*%
%TO.N,+5V*%
X260212500Y-47920000D03*
%TO.P,J2,3,Pin_3*%
%TO.N,unconnected-(J2-Pad3)*%
X262752500Y-50460000D03*
%TO.P,J2,4,Pin_4*%
%TO.N,GND*%
X260212500Y-50460000D03*
%TO.P,J2,5,Pin_5*%
%TO.N,~{RESET}*%
X262752500Y-53000000D03*
%TO.P,J2,6,Pin_6*%
%TO.N,GND*%
X260212500Y-53000000D03*
%TO.P,J2,7,Pin_7*%
%TO.N,ICSP_SCK*%
X262752500Y-55540000D03*
%TO.P,J2,8,Pin_8*%
%TO.N,GND*%
X260212500Y-55540000D03*
%TO.P,J2,9,Pin_9*%
%TO.N,ICSP_MISO*%
X262752500Y-58080000D03*
%TO.P,J2,10,Pin_10*%
%TO.N,GND*%
X260212500Y-58080000D03*
%TD*%
D19*
%TO.P,R3,1*%
%TO.N,/#USB_D-*%
X293190000Y-65000000D03*
D22*
%TO.P,R3,2*%
%TO.N,USB_D-*%
X285570000Y-65000000D03*
%TD*%
D18*
%TO.P,C6,1*%
%TO.N,+5VA*%
X285000000Y-137000000D03*
D19*
%TO.P,C6,2*%
%TO.N,GND*%
X282500000Y-137000000D03*
%TD*%
D23*
%TO.P,Y1,1,1*%
%TO.N,Net-(C4-Pad2)*%
X286000000Y-78450000D03*
%TO.P,Y1,2,2*%
%TO.N,Net-(C3-Pad2)*%
X286000000Y-73550000D03*
%TD*%
D19*
%TO.P,R1,1*%
%TO.N,/#USB_D+*%
X300810000Y-68000000D03*
D22*
%TO.P,R1,2*%
%TO.N,USB_INT{slash}SER*%
X293190000Y-68000000D03*
%TD*%
D10*
%TO.P,D1,1,K*%
%TO.N,/#USB_D-*%
X311000000Y-55500000D03*
D11*
%TO.P,D1,2,A*%
%TO.N,GND*%
X311000000Y-45340000D03*
%TD*%
D19*
%TO.P,C3,1*%
%TO.N,GND*%
X289500000Y-69000000D03*
%TO.P,C3,2*%
%TO.N,Net-(C3-Pad2)*%
X284500000Y-69000000D03*
%TD*%
D24*
%TO.P,U2,1,IN*%
%TO.N,+12V*%
X274540000Y-139230000D03*
D25*
%TO.P,U2,2,GND*%
%TO.N,GND*%
X272000000Y-139230000D03*
%TO.P,U2,3,OUT*%
%TO.N,+5VA*%
X269460000Y-139230000D03*
%TD*%
D26*
%TO.P,J3,1,Pin_1*%
%TO.N,RS232_RX*%
X280750000Y-43700000D03*
D27*
%TO.P,J3,2,Pin_2*%
%TO.N,~{RESET}*%
X278250000Y-43700000D03*
%TO.P,J3,3,Pin_3*%
%TO.N,RS232_TX*%
X275750000Y-43700000D03*
%TO.P,J3,4,Pin_4*%
%TO.N,GND*%
X273250000Y-43700000D03*
%TD*%
D18*
%TO.P,RN1,1,common*%
%TO.N,GND*%
X265000000Y-70000000D03*
D22*
%TO.P,RN1,2,R1*%
%TO.N,MATRIX_8*%
X265000000Y-72540000D03*
%TO.P,RN1,3,R2*%
%TO.N,MATRIX_7*%
X265000000Y-75080000D03*
%TO.P,RN1,4,R3*%
%TO.N,ICSP_SCK*%
X265000000Y-77620000D03*
%TO.P,RN1,5,R4*%
%TO.N,ICSP_MISO*%
X265000000Y-80160000D03*
%TO.P,RN1,6,R5*%
%TO.N,ICSP_MOSI*%
X265000000Y-82700000D03*
%TO.P,RN1,7,R6*%
%TO.N,MATRIX_3*%
X265000000Y-85240000D03*
%TO.P,RN1,8,R7*%
%TO.N,MATRIX_2*%
X265000000Y-87780000D03*
%TO.P,RN1,9,R8*%
%TO.N,MATRIX_1*%
X265000000Y-90320000D03*
%TD*%
D28*
%TO.P,U3,1,PC6/~{RESET}*%
%TO.N,~{RESET}*%
X280825000Y-54500000D03*
D29*
%TO.P,U3,2,PD0*%
%TO.N,RS232_RX*%
X280825000Y-57040000D03*
%TO.P,U3,3,PD1*%
%TO.N,RS232_TX*%
X280825000Y-59580000D03*
%TO.P,U3,4,PD2*%
%TO.N,USB_D+*%
X280825000Y-62120000D03*
%TO.P,U3,5,PD3*%
%TO.N,USB_D-*%
X280825000Y-64660000D03*
%TO.P,U3,6,PD4*%
%TO.N,USB_INT*%
X280825000Y-67200000D03*
%TO.P,U3,7,VCC*%
%TO.N,+5V*%
X280825000Y-69740000D03*
%TO.P,U3,8,GND*%
%TO.N,GND*%
X280825000Y-72280000D03*
%TO.P,U3,9,PB6/XTAL1*%
%TO.N,Net-(C3-Pad2)*%
X280825000Y-74820000D03*
%TO.P,U3,10,PB7/XTAL2*%
%TO.N,Net-(C4-Pad2)*%
X280825000Y-77360000D03*
%TO.P,U3,11,PD5*%
%TO.N,unconnected-(U3-Pad11)*%
X280825000Y-79900000D03*
%TO.P,U3,12,PD6*%
%TO.N,MATRIX_7*%
X280825000Y-82440000D03*
%TO.P,U3,13,PD7*%
%TO.N,MATRIX_8*%
X280825000Y-84980000D03*
%TO.P,U3,14,PB0*%
%TO.N,MATRIX_1*%
X280825000Y-87520000D03*
%TO.P,U3,15,PB1*%
%TO.N,MATRIX_2*%
X273205000Y-87520000D03*
%TO.P,U3,16,PB2*%
%TO.N,MATRIX_3*%
X273205000Y-84980000D03*
%TO.P,U3,17,PB3*%
%TO.N,ICSP_MOSI*%
X273205000Y-82440000D03*
%TO.P,U3,18,PB4*%
%TO.N,ICSP_MISO*%
X273205000Y-79900000D03*
%TO.P,U3,19,PB5*%
%TO.N,ICSP_SCK*%
X273205000Y-77360000D03*
%TO.P,U3,20,AVCC*%
%TO.N,+5VA*%
X273205000Y-74820000D03*
%TO.P,U3,21,AREF*%
X273205000Y-72280000D03*
%TO.P,U3,22,AGND*%
%TO.N,GND*%
X273205000Y-69740000D03*
%TO.P,U3,23,PC0*%
%TO.N,ANALOG_1*%
X273205000Y-67200000D03*
%TO.P,U3,24,PC1*%
%TO.N,ANALOG_2*%
X273205000Y-64660000D03*
%TO.P,U3,25,PC2*%
%TO.N,SER_CLK*%
X273205000Y-62120000D03*
%TO.P,U3,26,PC3*%
%TO.N,SER_DATA*%
X273205000Y-59580000D03*
%TO.P,U3,27,PC4*%
%TO.N,SER_LATCH*%
X273205000Y-57040000D03*
%TO.P,U3,28,PC5*%
%TO.N,unconnected-(U3-Pad28)*%
X273205000Y-54500000D03*
%TD*%
D18*
%TO.P,C7,1*%
%TO.N,+5V*%
X285000000Y-125000000D03*
D19*
%TO.P,C7,2*%
%TO.N,GND*%
X282500000Y-125000000D03*
%TD*%
%TO.P,R2,1*%
%TO.N,/#USB_D+*%
X293190000Y-62000000D03*
D22*
%TO.P,R2,2*%
%TO.N,USB_D+*%
X285570000Y-62000000D03*
%TD*%
D19*
%TO.P,C2,1*%
%TO.N,+5V*%
X279500000Y-114000000D03*
%TO.P,C2,2*%
%TO.N,GND*%
X274500000Y-114000000D03*
%TD*%
D28*
%TO.P,U1,1,QB*%
%TO.N,MATRIX_B*%
X280800000Y-93125000D03*
D29*
%TO.P,U1,2,QC*%
%TO.N,MATRIX_C*%
X280800000Y-95665000D03*
%TO.P,U1,3,QD*%
%TO.N,MATRIX_D*%
X280800000Y-98205000D03*
%TO.P,U1,4,QE*%
%TO.N,MATRIX_E*%
X280800000Y-100745000D03*
%TO.P,U1,5,QF*%
%TO.N,MATRIX_F*%
X280800000Y-103285000D03*
%TO.P,U1,6,QG*%
%TO.N,MATRIX_G*%
X280800000Y-105825000D03*
%TO.P,U1,7,QH*%
%TO.N,MATRIX_H*%
X280800000Y-108365000D03*
%TO.P,U1,8,GND*%
%TO.N,GND*%
X280800000Y-110905000D03*
%TO.P,U1,9,QH'*%
%TO.N,MATRIX_I*%
X273180000Y-110905000D03*
%TO.P,U1,10,~{SRCLR}*%
%TO.N,+5V*%
X273180000Y-108365000D03*
%TO.P,U1,11,SRCLK*%
%TO.N,SER_CLK*%
X273180000Y-105825000D03*
%TO.P,U1,12,RCLK*%
%TO.N,SER_LATCH*%
X273180000Y-103285000D03*
%TO.P,U1,13,~{OE}*%
%TO.N,GND*%
X273180000Y-100745000D03*
%TO.P,U1,14,SER*%
%TO.N,SER_DATA*%
X273180000Y-98205000D03*
%TO.P,U1,15,QA*%
%TO.N,MATRIX_A*%
X273180000Y-95665000D03*
%TO.P,U1,16,VCC*%
%TO.N,+5V*%
X273180000Y-93125000D03*
%TD*%
D19*
%TO.P,C5,1*%
%TO.N,+5VA*%
X269000000Y-144000000D03*
%TO.P,C5,2*%
%TO.N,GND*%
X274000000Y-144000000D03*
%TD*%
%TO.P,C4,1*%
%TO.N,GND*%
X289500000Y-83000000D03*
%TO.P,C4,2*%
%TO.N,Net-(C4-Pad2)*%
X284500000Y-83000000D03*
%TD*%
D30*
%TO.N,MATRIX_1*%
X145445494Y-49431868D03*
X98924511Y-99575489D03*
X162500000Y-122000000D03*
X98344511Y-87844511D03*
X105000000Y-101000000D03*
X59500000Y-49000000D03*
X107000000Y-123500000D03*
%TO.N,MATRIX_2*%
X196500000Y-33000000D03*
X194000000Y-87500000D03*
X184500000Y-101500000D03*
X74500000Y-71000000D03*
X106000000Y-127500000D03*
X184224500Y-141500000D03*
%TO.N,MATRIX_A*%
X57775500Y-95000000D03*
%TO.N,MATRIX_3*%
X250472299Y-32472299D03*
X195500000Y-85500000D03*
X95724500Y-68500000D03*
X196000000Y-99000000D03*
X126500000Y-68500000D03*
X60500000Y-69000000D03*
X106000000Y-152500000D03*
X258260000Y-85240000D03*
%TO.N,+5VA*%
X292500000Y-74000000D03*
%TO.N,MATRIX_B*%
X173500000Y-91044500D03*
%TO.N,MATRIX_7*%
X259500000Y-75000000D03*
X278500000Y-75000000D03*
X164000000Y-53000000D03*
X127000000Y-182500000D03*
X259500000Y-70000000D03*
X146645020Y-67920000D03*
X164500000Y-181500000D03*
X279000000Y-82500000D03*
X254000000Y-161000000D03*
X145500000Y-53000000D03*
%TO.N,MATRIX_8*%
X278500000Y-73500000D03*
X125075489Y-99575489D03*
X94275500Y-33224500D03*
X278500000Y-85000000D03*
X94275500Y-49724500D03*
X166000000Y-99000000D03*
X169500000Y-180000000D03*
%TO.N,ICSP_MOSI*%
X94500000Y-29000000D03*
X96424511Y-102424511D03*
X247000000Y-83099021D03*
X264651511Y-48000000D03*
X149075489Y-102424511D03*
X226000000Y-84000000D03*
%TO.N,ANALOG_1*%
X289500000Y-67500000D03*
%TO.N,ICSP_MISO*%
X168500000Y-29000000D03*
X124500000Y-32500000D03*
X124500000Y-28500000D03*
X248374521Y-82275500D03*
X164575489Y-119575489D03*
X82000000Y-123000000D03*
X164500000Y-162000000D03*
X166000000Y-81500000D03*
%TO.N,ICSP_SCK*%
X228500000Y-76000000D03*
X129500000Y-25500000D03*
X166000000Y-158500000D03*
X145000000Y-29500000D03*
X128344511Y-48655489D03*
X82000000Y-139500000D03*
%TO.N,MATRIX_C*%
X151000000Y-94940500D03*
%TO.N,MATRIX_E*%
X101500000Y-96500000D03*
X116000000Y-37500000D03*
X115500000Y-57500000D03*
%TO.N,MATRIX_F*%
X259500000Y-100054020D03*
X231190000Y-47690000D03*
X251190000Y-77460000D03*
%TO.N,MATRIX_D*%
X171000000Y-97500000D03*
X151000000Y-187000000D03*
%TO.N,MATRIX_I*%
X224500000Y-107500000D03*
X183500000Y-107500000D03*
X224000000Y-16735500D03*
X183500000Y-187000000D03*
%TO.N,MATRIX_H*%
X266280480Y-109780480D03*
X233692185Y-106735500D03*
%TO.N,SER_CLK*%
X275454020Y-62000000D03*
%TD*%
D31*
%TO.N,Net-(C3-Pad2)*%
X286000000Y-70500000D02*
X284500000Y-69000000D01*
X286000000Y-73550000D02*
X286000000Y-70500000D01*
%TO.N,MATRIX_1*%
X105000000Y-101000000D02*
X105000000Y-119080000D01*
X98344511Y-98995489D02*
X98924511Y-99575489D01*
X145445494Y-49431868D02*
X146920000Y-47957362D01*
X146920000Y-47957362D02*
X146920000Y-31000000D01*
X156920000Y-181000000D02*
X162500000Y-175420000D01*
X107000000Y-123500000D02*
X106920000Y-123420000D01*
X105000000Y-119080000D02*
X106920000Y-121000000D01*
X58344511Y-47844511D02*
X59500000Y-49000000D01*
X98344511Y-52424511D02*
X98344511Y-87844511D01*
X98344511Y-87844511D02*
X98344511Y-98995489D01*
X56000000Y-25080000D02*
X58344511Y-27424511D01*
X58344511Y-27424511D02*
X58344511Y-47844511D01*
X96920000Y-51000000D02*
X98344511Y-52424511D01*
X162500000Y-175420000D02*
X162500000Y-122000000D01*
X106920000Y-123420000D02*
X106920000Y-121000000D01*
%TO.N,MATRIX_2*%
X183949520Y-141225020D02*
X183949520Y-112000000D01*
X194500000Y-87000000D02*
X194500000Y-43420000D01*
X196500000Y-33000000D02*
X196920000Y-33420000D01*
X75495489Y-70004511D02*
X74500000Y-71000000D01*
X76000000Y-25080000D02*
X75495489Y-25584511D01*
X194500000Y-98580000D02*
X194500000Y-87000000D01*
X184224511Y-101775489D02*
X184500000Y-101500000D01*
X184224511Y-111725009D02*
X184224511Y-101775489D01*
X75495489Y-25584511D02*
X75495489Y-70004511D01*
X194000000Y-87500000D02*
X194500000Y-87000000D01*
X183949520Y-112000000D02*
X184224511Y-111725009D01*
X106000000Y-127500000D02*
X106920000Y-128420000D01*
X196920000Y-33420000D02*
X196920000Y-41000000D01*
X106920000Y-128420000D02*
X106920000Y-141000000D01*
X184224500Y-141500000D02*
X183949520Y-141225020D01*
X194500000Y-43420000D02*
X196920000Y-41000000D01*
X196920000Y-101000000D02*
X194500000Y-98580000D01*
%TO.N,MATRIX_A*%
X59422234Y-57460000D02*
X61190000Y-57460000D01*
X61190000Y-17460000D02*
X61190000Y-37460000D01*
X55495489Y-92719989D02*
X55495489Y-61386745D01*
X61190000Y-37460000D02*
X61190000Y-57460000D01*
X55495489Y-61386745D02*
X59422234Y-57460000D01*
X57775500Y-95000000D02*
X55495489Y-92719989D01*
%TO.N,Net-(D5-Pad2)*%
X67540000Y-31460000D02*
X67080000Y-31000000D01*
X67540000Y-34920000D02*
X67540000Y-31460000D01*
%TO.N,MATRIX_3*%
X250472299Y-32472299D02*
X250472299Y-71336582D01*
X95495489Y-68270989D02*
X95724500Y-68500000D01*
X195000000Y-86000000D02*
X195000000Y-74500000D01*
X250472299Y-71336582D02*
X258000000Y-78864283D01*
X126500000Y-68500000D02*
X126920000Y-68080000D01*
X195000000Y-74500000D02*
X196920000Y-72580000D01*
X196000000Y-99000000D02*
X195000000Y-98000000D01*
X106920000Y-153420000D02*
X106920000Y-161000000D01*
X258000000Y-78864283D02*
X258000000Y-84980000D01*
X96000000Y-25080000D02*
X95495489Y-25584511D01*
X195000000Y-98000000D02*
X195000000Y-86000000D01*
X106000000Y-152500000D02*
X106920000Y-153420000D01*
X195500000Y-85500000D02*
X195000000Y-86000000D01*
X58500000Y-149420000D02*
X58500000Y-71000000D01*
X126920000Y-68080000D02*
X126920000Y-51000000D01*
X258000000Y-84980000D02*
X258260000Y-85240000D01*
X56920000Y-151000000D02*
X58500000Y-149420000D01*
X58500000Y-71000000D02*
X60500000Y-69000000D01*
X95495489Y-25584511D02*
X95495489Y-68270989D01*
X196920000Y-72580000D02*
X196920000Y-71000000D01*
%TO.N,Net-(C4-Pad2)*%
X286000000Y-78450000D02*
X286000000Y-81500000D01*
X286000000Y-81500000D02*
X284500000Y-83000000D01*
%TO.N,Net-(D9-Pad2)*%
X87540000Y-54920000D02*
X87540000Y-51460000D01*
X87540000Y-51460000D02*
X87080000Y-51000000D01*
%TO.N,Net-(D10-Pad2)*%
X107540000Y-51460000D02*
X107080000Y-51000000D01*
X107540000Y-54920000D02*
X107540000Y-51460000D01*
%TO.N,+5VA*%
X292500000Y-158130000D02*
X298120000Y-163750000D01*
X292500000Y-74000000D02*
X292500000Y-137000000D01*
X292500000Y-137000000D02*
X292500000Y-158130000D01*
X285000000Y-137000000D02*
X292500000Y-137000000D01*
D32*
%TO.N,/#USB_D-*%
X304212500Y-65750000D02*
X304212500Y-62607999D01*
X304212500Y-62607999D02*
X311000000Y-55820499D01*
X311000000Y-55820499D02*
X311000000Y-55500000D01*
D31*
%TO.N,MATRIX_B*%
X171190000Y-88734500D02*
X171190000Y-77460000D01*
X171190000Y-37460000D02*
X171190000Y-77460000D01*
X173500000Y-91044500D02*
X171190000Y-88734500D01*
%TO.N,MATRIX_7*%
X259500000Y-78500000D02*
X258830479Y-79169521D01*
X278500000Y-75000000D02*
X278500000Y-82000000D01*
X260249521Y-85749521D02*
X260249521Y-108063388D01*
X258830479Y-84330479D02*
X260249521Y-85749521D01*
X166920000Y-179080000D02*
X166920000Y-161000000D01*
X260249521Y-108063388D02*
X257000000Y-111312909D01*
X145500000Y-53000000D02*
X146920000Y-54420000D01*
X146920000Y-54420000D02*
X146920000Y-71000000D01*
X165495489Y-25584511D02*
X165495489Y-51504511D01*
X165495489Y-51504511D02*
X164000000Y-53000000D01*
X257000000Y-111312909D02*
X257000000Y-158000000D01*
X126920000Y-182420000D02*
X127000000Y-182500000D01*
X259500000Y-70000000D02*
X259500000Y-75000000D01*
X259500000Y-75000000D02*
X259500000Y-78500000D01*
X278500000Y-82000000D02*
X279000000Y-82500000D01*
X164500000Y-181500000D02*
X166920000Y-179080000D01*
X126920000Y-161000000D02*
X126920000Y-182420000D01*
X258830479Y-79169521D02*
X258830479Y-84330479D01*
X166000000Y-25080000D02*
X165495489Y-25584511D01*
X257000000Y-158000000D02*
X254000000Y-161000000D01*
%TO.N,MATRIX_8*%
X277775489Y-74224511D02*
X277775489Y-84275489D01*
X278500000Y-73500000D02*
X277775489Y-74224511D01*
X168670479Y-99830479D02*
X166920000Y-98080000D01*
X277775489Y-84275489D02*
X278500000Y-85000000D01*
X166920000Y-71000000D02*
X166920000Y-98080000D01*
X166920000Y-98080000D02*
X166000000Y-99000000D01*
X168670479Y-179170479D02*
X168670479Y-99830479D01*
X125495489Y-32424511D02*
X125495489Y-99155489D01*
X125495489Y-99155489D02*
X125075489Y-99575489D01*
X169500000Y-180000000D02*
X168670479Y-179170479D01*
X126920000Y-31000000D02*
X125495489Y-32424511D01*
X94275500Y-49724500D02*
X94275500Y-33224500D01*
%TO.N,ICSP_MOSI*%
X225495489Y-83495489D02*
X226000000Y-84000000D01*
X225495489Y-25584511D02*
X225495489Y-83495489D01*
X95000000Y-69080000D02*
X95000000Y-29500000D01*
X148670479Y-76329521D02*
X148670479Y-101170479D01*
X266500000Y-77500000D02*
X266500000Y-81200000D01*
X263651540Y-60186197D02*
X263651540Y-75321840D01*
X265495489Y-76495489D02*
X266500000Y-77500000D01*
X96920000Y-71000000D02*
X96920000Y-101929022D01*
X264376531Y-48274980D02*
X264376531Y-59461207D01*
X226000000Y-25080000D02*
X225495489Y-25584511D01*
X266500000Y-81200000D02*
X265000000Y-82700000D01*
X147369520Y-68369520D02*
X149000000Y-70000000D01*
X96920000Y-71000000D02*
X95000000Y-69080000D01*
X149075489Y-101575489D02*
X149075489Y-102424511D01*
X148670479Y-101170479D02*
X149075489Y-101575489D01*
X264825189Y-76495489D02*
X265495489Y-76495489D01*
X264376531Y-59461207D02*
X263651540Y-60186197D01*
X263651540Y-75321840D02*
X264825189Y-76495489D01*
X146920000Y-51000000D02*
X147369520Y-51449520D01*
X147369520Y-51449520D02*
X147369520Y-68369520D01*
X247000000Y-83099021D02*
X246920000Y-83179021D01*
X264651511Y-48000000D02*
X264376531Y-48274980D01*
X149000000Y-76000000D02*
X148670479Y-76329521D01*
X96920000Y-101929022D02*
X96424511Y-102424511D01*
X95000000Y-29500000D02*
X94500000Y-29000000D01*
X149000000Y-70000000D02*
X149000000Y-76000000D01*
X246920000Y-83179021D02*
X246920000Y-101000000D01*
%TO.N,Net-(D7-Pad2)*%
X107540000Y-34920000D02*
X107540000Y-31460000D01*
X107540000Y-31460000D02*
X107080000Y-31000000D01*
%TO.N,Net-(D8-Pad2)*%
X67540000Y-54920000D02*
X67540000Y-51460000D01*
X67540000Y-51460000D02*
X67080000Y-51000000D01*
%TO.N,GND*%
X289500000Y-83000000D02*
X289500000Y-69000000D01*
%TO.N,+5V*%
X260212500Y-47920000D02*
X260212500Y-40212500D01*
X260212500Y-40212500D02*
X260000000Y-40000000D01*
%TO.N,ANALOG_1*%
X294370000Y-72279700D02*
X289590300Y-67500000D01*
X289590300Y-67500000D02*
X289500000Y-67500000D01*
X294370000Y-76250000D02*
X294370000Y-72279700D01*
%TO.N,ICSP_MISO*%
X164500000Y-162000000D02*
X164500000Y-119650978D01*
X248670479Y-33249521D02*
X248670479Y-81979542D01*
X164500000Y-119650978D02*
X164575489Y-119575489D01*
X165275489Y-119355489D02*
X165275489Y-81224511D01*
X124500000Y-32500000D02*
X124500000Y-28500000D01*
X165275489Y-81224511D02*
X165500000Y-81000000D01*
X248670479Y-81979542D02*
X248374521Y-82275500D01*
X81920000Y-123080000D02*
X81920000Y-126000000D01*
X165500000Y-79509022D02*
X165495489Y-79504511D01*
X166000000Y-81500000D02*
X165495489Y-80995489D01*
X124500000Y-28500000D02*
X124500000Y-26580000D01*
X262752500Y-77912500D02*
X265000000Y-80160000D01*
X165495489Y-79504511D02*
X165495489Y-52424511D01*
X165495489Y-52424511D02*
X166920000Y-51000000D01*
X82000000Y-123000000D02*
X81920000Y-123080000D01*
X252920000Y-29000000D02*
X248670479Y-33249521D01*
X166920000Y-121000000D02*
X165275489Y-119355489D01*
X262752500Y-58080000D02*
X262752500Y-77912500D01*
X124500000Y-26580000D02*
X126000000Y-25080000D01*
X166920000Y-51000000D02*
X168500000Y-49420000D01*
X165495489Y-80995489D02*
X165495489Y-79504511D01*
X165500000Y-81000000D02*
X165500000Y-79509022D01*
X168500000Y-49420000D02*
X168500000Y-29000000D01*
%TO.N,ICSP_SCK*%
X228500000Y-76000000D02*
X228500000Y-52580000D01*
X263620000Y-77620000D02*
X265000000Y-77620000D01*
X126920000Y-71000000D02*
X128344511Y-69575489D01*
X228500000Y-52580000D02*
X226920000Y-51000000D01*
X263927011Y-59275009D02*
X263202020Y-60000000D01*
X126920000Y-71000000D02*
X128344511Y-72424511D01*
X263202020Y-77202020D02*
X263620000Y-77620000D01*
X128344511Y-26655489D02*
X129500000Y-25500000D01*
X128344511Y-48655489D02*
X128344511Y-26655489D01*
X128344511Y-69575489D02*
X128344511Y-48655489D01*
X146000000Y-28500000D02*
X146000000Y-25000000D01*
X128344511Y-139575489D02*
X126920000Y-141000000D01*
X263927011Y-56714511D02*
X263927011Y-59275009D01*
X82000000Y-139500000D02*
X81920000Y-139580000D01*
X145000000Y-29500000D02*
X146000000Y-28500000D01*
X262752500Y-55540000D02*
X263927011Y-56714511D01*
X166000000Y-158500000D02*
X166920000Y-157580000D01*
X166920000Y-157580000D02*
X166920000Y-141000000D01*
X128344511Y-72424511D02*
X128344511Y-139575489D01*
X81920000Y-139580000D02*
X81920000Y-151000000D01*
X263202020Y-60000000D02*
X263202020Y-77202020D01*
D32*
%TO.N,/#USB_D+*%
X307574501Y-65750000D02*
X314000000Y-59324501D01*
X306212500Y-65750000D02*
X307574501Y-65750000D01*
X314000000Y-59324501D02*
X314000000Y-55500000D01*
D31*
%TO.N,Net-(D70-Pad2)*%
X257540000Y-161460000D02*
X257080000Y-161000000D01*
X257540000Y-164920000D02*
X257540000Y-161460000D01*
%TO.N,Net-(D6-Pad2)*%
X87540000Y-34920000D02*
X87540000Y-31460000D01*
X87540000Y-31460000D02*
X87080000Y-31000000D01*
%TO.N,Net-(D11-Pad2)*%
X67540000Y-74920000D02*
X67540000Y-71460000D01*
X67540000Y-71460000D02*
X67080000Y-71000000D01*
%TO.N,Net-(D12-Pad2)*%
X87540000Y-71460000D02*
X87080000Y-71000000D01*
X87540000Y-74920000D02*
X87540000Y-71460000D01*
%TO.N,Net-(D17-Pad2)*%
X137540000Y-34920000D02*
X137540000Y-31460000D01*
X137540000Y-31460000D02*
X137080000Y-31000000D01*
%TO.N,Net-(D13-Pad2)*%
X107540000Y-74920000D02*
X107540000Y-71460000D01*
X107540000Y-71460000D02*
X107080000Y-71000000D01*
%TO.N,MATRIX_C*%
X151000000Y-94940500D02*
X151190000Y-95130500D01*
X131190000Y-167460000D02*
X131190000Y-107460000D01*
X151190000Y-95130500D02*
X151190000Y-107460000D01*
%TO.N,Net-(D19-Pad2)*%
X157540000Y-31460000D02*
X157080000Y-31000000D01*
X157540000Y-34920000D02*
X157540000Y-31460000D01*
%TO.N,Net-(D20-Pad2)*%
X177540000Y-31460000D02*
X177080000Y-31000000D01*
X177540000Y-34920000D02*
X177540000Y-31460000D01*
%TO.N,Net-(D71-Pad2)*%
X237540000Y-181460000D02*
X237080000Y-181000000D01*
X237540000Y-184920000D02*
X237540000Y-181460000D01*
%TO.N,Net-(D21-Pad2)*%
X137540000Y-54920000D02*
X137540000Y-51460000D01*
X137540000Y-51460000D02*
X137080000Y-51000000D01*
%TO.N,Net-(D22-Pad2)*%
X157540000Y-54920000D02*
X157540000Y-51460000D01*
X157540000Y-51460000D02*
X157080000Y-51000000D01*
%TO.N,Net-(D23-Pad2)*%
X177540000Y-51460000D02*
X177080000Y-51000000D01*
X177540000Y-54920000D02*
X177540000Y-51460000D01*
%TO.N,Net-(D24-Pad2)*%
X137540000Y-74920000D02*
X137540000Y-71460000D01*
X137540000Y-71460000D02*
X137080000Y-71000000D01*
%TO.N,Net-(D25-Pad2)*%
X157540000Y-74920000D02*
X157540000Y-71460000D01*
X157540000Y-71460000D02*
X157080000Y-71000000D01*
%TO.N,Net-(D26-Pad2)*%
X177540000Y-74920000D02*
X177540000Y-71460000D01*
X177540000Y-71460000D02*
X177080000Y-71000000D01*
%TO.N,Net-(D27-Pad2)*%
X208080000Y-15460000D02*
X207540000Y-14920000D01*
X208080000Y-29000000D02*
X208080000Y-15460000D01*
%TO.N,Net-(D28-Pad2)*%
X207540000Y-44920000D02*
X207540000Y-41460000D01*
X207540000Y-41460000D02*
X207080000Y-41000000D01*
%TO.N,Net-(D29-Pad2)*%
X207540000Y-74920000D02*
X207540000Y-71460000D01*
X207540000Y-71460000D02*
X207080000Y-71000000D01*
%TO.N,Net-(D31-Pad2)*%
X237540000Y-31460000D02*
X237080000Y-31000000D01*
X237540000Y-34920000D02*
X237540000Y-31460000D01*
%TO.N,Net-(D32-Pad2)*%
X237540000Y-54920000D02*
X237540000Y-51460000D01*
X237540000Y-51460000D02*
X237080000Y-51000000D01*
%TO.N,Net-(D33-Pad2)*%
X237540000Y-74920000D02*
X237540000Y-71460000D01*
X237540000Y-71460000D02*
X237080000Y-71000000D01*
%TO.N,Net-(D34-Pad2)*%
X257540000Y-71460000D02*
X257080000Y-71000000D01*
X257540000Y-74920000D02*
X257540000Y-71460000D01*
%TO.N,Net-(D35-Pad2)*%
X67540000Y-104920000D02*
X67540000Y-101460000D01*
X67540000Y-101460000D02*
X67080000Y-101000000D01*
%TO.N,Net-(D36-Pad2)*%
X67540000Y-129920000D02*
X67540000Y-126380000D01*
X67540000Y-126380000D02*
X67160000Y-126000000D01*
%TO.N,Net-(D37-Pad2)*%
X67540000Y-151460000D02*
X67080000Y-151000000D01*
X67540000Y-154920000D02*
X67540000Y-151460000D01*
%TO.N,Net-(D38-Pad2)*%
X92540000Y-104920000D02*
X92540000Y-101460000D01*
X92540000Y-101460000D02*
X92080000Y-101000000D01*
%TO.N,Net-(D39-Pad2)*%
X92540000Y-126460000D02*
X92080000Y-126000000D01*
X92540000Y-129920000D02*
X92540000Y-126460000D01*
%TO.N,Net-(D40-Pad2)*%
X92540000Y-154920000D02*
X92540000Y-151460000D01*
X92540000Y-151460000D02*
X92080000Y-151000000D01*
%TO.N,Net-(D41-Pad2)*%
X67540000Y-184920000D02*
X67540000Y-181460000D01*
X67540000Y-181460000D02*
X67080000Y-181000000D01*
%TO.N,Net-(D42-Pad2)*%
X117540000Y-101460000D02*
X117080000Y-101000000D01*
X117540000Y-104920000D02*
X117540000Y-101460000D01*
%TO.N,Net-(D43-Pad2)*%
X117540000Y-124920000D02*
X117540000Y-121460000D01*
X117540000Y-121460000D02*
X117080000Y-121000000D01*
%TO.N,Net-(D44-Pad2)*%
X117540000Y-144920000D02*
X117540000Y-141460000D01*
X117540000Y-141460000D02*
X117080000Y-141000000D01*
%TO.N,Net-(D45-Pad2)*%
X117540000Y-164920000D02*
X117540000Y-161460000D01*
X117540000Y-161460000D02*
X117080000Y-161000000D01*
%TO.N,Net-(D46-Pad2)*%
X137540000Y-104920000D02*
X137540000Y-101460000D01*
X137540000Y-101460000D02*
X137080000Y-101000000D01*
%TO.N,Net-(D47-Pad2)*%
X137540000Y-124920000D02*
X137540000Y-121460000D01*
X137540000Y-121460000D02*
X137080000Y-121000000D01*
%TO.N,Net-(D48-Pad2)*%
X137540000Y-141460000D02*
X137080000Y-141000000D01*
X137540000Y-144920000D02*
X137540000Y-141460000D01*
%TO.N,Net-(D49-Pad2)*%
X137540000Y-161460000D02*
X137080000Y-161000000D01*
X137540000Y-164920000D02*
X137540000Y-161460000D01*
%TO.N,Net-(D50-Pad2)*%
X157540000Y-104920000D02*
X157540000Y-101460000D01*
X157540000Y-101460000D02*
X157080000Y-101000000D01*
%TO.N,Net-(D51-Pad2)*%
X157540000Y-124920000D02*
X157540000Y-121460000D01*
X157540000Y-121460000D02*
X157080000Y-121000000D01*
%TO.N,Net-(D52-Pad2)*%
X157540000Y-141460000D02*
X157080000Y-141000000D01*
X157540000Y-144920000D02*
X157540000Y-141460000D01*
%TO.N,Net-(D53-Pad2)*%
X157540000Y-164920000D02*
X157540000Y-161460000D01*
X157540000Y-161460000D02*
X157080000Y-161000000D01*
%TO.N,Net-(D54-Pad2)*%
X177540000Y-104920000D02*
X177540000Y-101460000D01*
X177540000Y-101460000D02*
X177080000Y-101000000D01*
%TO.N,Net-(D55-Pad2)*%
X177540000Y-124920000D02*
X177540000Y-121460000D01*
X177540000Y-121460000D02*
X177080000Y-121000000D01*
%TO.N,Net-(D56-Pad2)*%
X177540000Y-141460000D02*
X177080000Y-141000000D01*
X177540000Y-144920000D02*
X177540000Y-141460000D01*
%TO.N,Net-(D57-Pad2)*%
X177540000Y-164920000D02*
X177540000Y-161460000D01*
X177540000Y-161460000D02*
X177080000Y-161000000D01*
%TO.N,Net-(D58-Pad2)*%
X117540000Y-181460000D02*
X117080000Y-181000000D01*
X117540000Y-184920000D02*
X117540000Y-181460000D01*
%TO.N,Net-(D59-Pad2)*%
X167540000Y-184920000D02*
X167540000Y-181460000D01*
X167540000Y-181460000D02*
X167080000Y-181000000D01*
%TO.N,Net-(D60-Pad2)*%
X207540000Y-101460000D02*
X207080000Y-101000000D01*
X207540000Y-104920000D02*
X207540000Y-101460000D01*
%TO.N,Net-(D61-Pad2)*%
X237540000Y-104920000D02*
X237540000Y-101460000D01*
X237540000Y-101460000D02*
X237080000Y-101000000D01*
%TO.N,Net-(D62-Pad2)*%
X257540000Y-101460000D02*
X257080000Y-101000000D01*
X257540000Y-104920000D02*
X257540000Y-101460000D01*
%TO.N,Net-(D63-Pad2)*%
X263080000Y-29000000D02*
X263080000Y-15460000D01*
X263080000Y-15460000D02*
X262540000Y-14920000D01*
%TO.N,Net-(D64-Pad2)*%
X283080000Y-29000000D02*
X283080000Y-15460000D01*
X283080000Y-15460000D02*
X282540000Y-14920000D01*
%TO.N,Net-(D65-Pad2)*%
X237540000Y-144920000D02*
X237540000Y-141460000D01*
X237540000Y-141460000D02*
X237080000Y-141000000D01*
%TO.N,Net-(D66-Pad2)*%
X303080000Y-15540000D02*
X302460000Y-14920000D01*
X303080000Y-29000000D02*
X303080000Y-15540000D01*
%TO.N,Net-(D67-Pad2)*%
X302540000Y-41460000D02*
X302080000Y-41000000D01*
X302540000Y-44920000D02*
X302540000Y-41460000D01*
%TO.N,Net-(D68-Pad2)*%
X217540000Y-164920000D02*
X217540000Y-161460000D01*
X217540000Y-161460000D02*
X217080000Y-161000000D01*
%TO.N,Net-(D69-Pad2)*%
X237540000Y-164920000D02*
X237540000Y-160460000D01*
X237540000Y-160460000D02*
X237080000Y-160000000D01*
%TO.N,~{RESET}*%
X278250000Y-43700000D02*
X278250000Y-51925000D01*
X263927011Y-41387011D02*
X262540000Y-40000000D01*
X278250000Y-51925000D02*
X280825000Y-54500000D01*
X262752500Y-53000000D02*
X263927011Y-51825489D01*
X263927011Y-51825489D02*
X263927011Y-41387011D01*
%TO.N,RS232_RX*%
X280750000Y-43700000D02*
X282349511Y-45299511D01*
X282349511Y-45299511D02*
X282349511Y-55515489D01*
X282349511Y-55515489D02*
X280825000Y-57040000D01*
%TO.N,RS232_TX*%
X275750000Y-54505000D02*
X280825000Y-59580000D01*
X275750000Y-43700000D02*
X275750000Y-54505000D01*
%TO.N,MATRIX_E*%
X116000000Y-57000000D02*
X115500000Y-57500000D01*
X131190000Y-17460000D02*
X131190000Y-37460000D01*
X116000000Y-37500000D02*
X116000000Y-57000000D01*
X101500000Y-96500000D02*
X101190000Y-96190000D01*
X101190000Y-96190000D02*
X101190000Y-77460000D01*
X101190000Y-57460000D02*
X101190000Y-77460000D01*
%TO.N,MATRIX_F*%
X257374521Y-78874521D02*
X255960000Y-77460000D01*
X255960000Y-77460000D02*
X251190000Y-77460000D01*
X259500000Y-100054020D02*
X257374521Y-97928541D01*
X231190000Y-17460000D02*
X231190000Y-47690000D01*
X257374521Y-97928541D02*
X257374521Y-78874521D01*
X231190000Y-47690000D02*
X231190000Y-77460000D01*
%TO.N,MATRIX_G*%
X61190000Y-187460000D02*
X61190000Y-107460000D01*
%TO.N,MATRIX_D*%
X171190000Y-107460000D02*
X171190000Y-167460000D01*
X171000000Y-97500000D02*
X171190000Y-97690000D01*
X151000000Y-187000000D02*
X151190000Y-186810000D01*
X151190000Y-186810000D02*
X151190000Y-167460000D01*
X171190000Y-97690000D02*
X171190000Y-107460000D01*
%TO.N,MATRIX_I*%
X312920000Y-107000000D02*
X312960000Y-107040000D01*
X183500000Y-187000000D02*
X183500000Y-107500000D01*
X224000000Y-107000000D02*
X224500000Y-107500000D01*
X224000000Y-16735500D02*
X224000000Y-107000000D01*
%TO.N,MATRIX_H*%
X276190000Y-38973978D02*
X267000000Y-48163978D01*
X233692185Y-107184511D02*
X233692185Y-106735500D01*
X267000000Y-109060960D02*
X266280480Y-109780480D01*
X267000000Y-48163978D02*
X267000000Y-109060960D01*
X232764511Y-108112185D02*
X233692185Y-107184511D01*
X231190000Y-109686696D02*
X231190000Y-147460000D01*
X276190000Y-17460000D02*
X276190000Y-38973978D01*
X232764511Y-108112185D02*
X231190000Y-109686696D01*
X231190000Y-147460000D02*
X231190000Y-187460000D01*
X296110000Y-17460000D02*
X296110000Y-47380000D01*
X296110000Y-47380000D02*
X296190000Y-47460000D01*
%TO.N,SER_CLK*%
X275179040Y-65000000D02*
X275179040Y-62274980D01*
X273180000Y-105825000D02*
X274704520Y-104300480D01*
X275179040Y-100500000D02*
X275179040Y-65000000D01*
X275179040Y-102230000D02*
X275179040Y-100500000D01*
X274704520Y-102704520D02*
X275179040Y-102230000D01*
X274704520Y-104300480D02*
X274704520Y-102704520D01*
X275179040Y-62274980D02*
X275454020Y-62000000D01*
%TO.N,SER_LATCH*%
X273180000Y-103285000D02*
X274729520Y-101735480D01*
X274729520Y-101735480D02*
X274729520Y-58564520D01*
X274729520Y-58564520D02*
X273205000Y-57040000D01*
%TO.N,SER_DATA*%
X271655480Y-96680480D02*
X271655480Y-59844520D01*
X271655480Y-59844520D02*
X272000000Y-59500000D01*
X273180000Y-98205000D02*
X271655480Y-96680480D01*
X272080000Y-59580000D02*
X273205000Y-59580000D01*
X272000000Y-59500000D02*
X272080000Y-59580000D01*
%TD*%
M02*
