M48
; DRILL file {KiCad (6.0.4)} date Thu Feb  9 14:30:45 2023
; FORMAT={-:-/ absolute / inch / decimal}
; #@! TF.CreationDate,2023-02-09T14:30:45+01:00
; #@! TF.GenerationSoftware,Kicad,Pcbnew,(6.0.4)
; #@! TF.FileFunction,Plated,1,2,PTH
FMAT,2
INCH
; #@! TA.AperFunction,Plated,PTH,ViaDrill
T1C0.0157
; #@! TA.AperFunction,Plated,PTH,ComponentDrill
T2C0.0276
; #@! TA.AperFunction,Plated,PTH,ComponentDrill
T3C0.0315
; #@! TA.AperFunction,Plated,PTH,ComponentDrill
T4C0.0374
; #@! TA.AperFunction,Plated,PTH,ComponentDrill
T5C0.0394
; #@! TA.AperFunction,Plated,PTH,ComponentDrill
T6C0.0433
; #@! TA.AperFunction,Plated,PTH,ComponentDrill
T7C0.0906
; #@! TA.AperFunction,Plated,PTH,ComponentDrill
T8C0.1260
%
G90
G05
T1
X1.9094Y-5.6806
X2.1457Y-5.5217
X2.3228Y-5.5118
X2.3228Y-5.8465
X2.47Y-5.475
X2.505Y-5.405
X2.54Y-5.4335
X2.6181Y-4.9508
X2.6339Y-5.7441
X2.6378Y-5.4724
X2.6811Y-5.9134
X2.689Y-6.3622
X2.7165Y-5.4724
X2.7817Y-5.1933
X2.905Y-5.48
X2.93Y-5.04
X2.97Y-5.185
X2.9865Y-5.0665
X3.14Y-5.48
X3.2Y-5.055
X3.265Y-6.07
X3.315Y-4.998
X3.355Y-5.055
X3.405Y-5.0265
X3.425Y-5.7139
X3.4646Y-5.7726
X3.4744Y-5.5077
X3.51Y-5.03
X3.625Y-4.81
X3.685Y-5.4683
X3.7054Y-5.5854
X3.765Y-4.88
X3.905Y-4.6496
X3.9409Y-4.91
X3.9586Y-5.315
X3.9609Y-4.9439
X4.252Y-4.7343
X4.252Y-4.8327
X4.285Y-5.34
X4.305Y-4.685
X4.3335Y-5.205
X4.498Y-5.8139
X5.3543Y-5.748
X5.56Y-5.86
T2
X2.0276Y-5.7354
X2.0276Y-5.8354
T3
X1.9094Y-5.374
X1.9094Y-5.5709
X2.026Y-5.323
X2.026Y-5.623
X2.126Y-5.323
X2.126Y-5.623
X2.226Y-5.323
X2.226Y-5.623
X2.326Y-5.323
X2.326Y-5.623
X2.426Y-5.323
X2.426Y-5.623
X2.526Y-5.323
X2.526Y-5.623
X2.626Y-5.323
X2.626Y-5.623
X2.628Y-5.128
X2.726Y-5.323
X2.726Y-5.623
X2.728Y-5.128
X2.7756Y-5.9941
X2.7756Y-6.1909
X2.7776Y-5.8268
X2.826Y-5.323
X2.826Y-5.623
X2.828Y-5.128
X2.926Y-5.323
X2.926Y-5.623
X2.928Y-5.128
X2.9705Y-5.8268
X2.9724Y-5.9941
X2.9724Y-6.1909
X3.026Y-5.323
X3.026Y-5.623
X3.028Y-5.128
X3.126Y-5.323
X3.126Y-5.623
X3.128Y-5.128
X3.226Y-5.323
X3.226Y-5.623
X3.228Y-5.128
X3.326Y-5.323
X3.326Y-5.623
X3.328Y-5.128
X3.428Y-5.128
X3.7667Y-5.2411
X3.7667Y-5.3411
X3.7667Y-5.4411
X3.7667Y-5.5411
X3.7667Y-5.6411
X3.7667Y-5.7411
X3.7667Y-5.8411
X3.7667Y-5.9411
X3.8681Y-5.128
X4.065Y-5.128
X4.1667Y-5.2411
X4.1667Y-5.3411
X4.1667Y-5.4411
X4.1667Y-5.5411
X4.1667Y-5.6411
X4.1667Y-5.7411
X4.1667Y-5.8411
X4.1667Y-5.9411
X4.498Y-5.3248
X4.498Y-5.7087
X4.5965Y-5.3248
X4.5965Y-5.7087
X4.8425Y-5.2756
X4.8425Y-5.6756
X4.9606Y-5.2756
X4.9606Y-5.6756
X5.1181Y-5.2756
X5.1181Y-5.5756
X5.187Y-6.4764
X5.2362Y-5.2756
X5.2362Y-5.5756
X5.3543Y-5.2756
X5.3543Y-5.5756
X5.3839Y-6.4764
T4
X4.9705Y-5.0113
X4.9705Y-5.0901
X5.0689Y-5.0113
X5.0689Y-5.0901
X5.5217Y-4.626
X5.6201Y-4.626
X5.7185Y-4.626
X5.8169Y-4.626
T5
X1.8965Y-6.2485
X1.8965Y-6.3485
X1.9965Y-6.2485
X1.9965Y-6.3485
X2.0965Y-6.2485
X2.0965Y-6.3485
X2.126Y-4.7244
X2.126Y-4.8244
X2.1965Y-6.2485
X2.1965Y-6.3485
X2.226Y-4.7244
X2.226Y-4.8244
X2.2965Y-6.2485
X2.2965Y-6.3485
X2.326Y-4.7244
X2.326Y-4.8244
X2.426Y-4.7244
X2.426Y-4.8244
X2.526Y-4.7244
X2.526Y-4.8244
X2.626Y-4.7244
X2.626Y-4.8244
X2.726Y-4.7244
X2.726Y-4.8244
X2.826Y-4.7244
X2.826Y-4.8244
X2.926Y-4.7244
X2.926Y-4.8244
X3.026Y-4.7244
X3.026Y-4.8244
X3.126Y-4.7244
X3.126Y-4.8244
X3.226Y-4.7244
X3.226Y-4.8244
X3.326Y-4.7244
X3.326Y-4.8244
X3.426Y-4.7244
X3.426Y-4.8244
X3.526Y-4.7244
X3.526Y-4.8244
X5.7776Y-5.6988
X5.7776Y-5.7988
X5.7776Y-5.8988
X5.7776Y-5.9988
X5.7776Y-6.0988
X5.8776Y-5.6988
X5.8776Y-5.7988
X5.8776Y-5.8988
X5.8776Y-5.9988
X5.8776Y-6.0988
T6
X5.3831Y-6.1008
X5.3831Y-6.2008
X5.3831Y-6.3008
T7
X4.7835Y-4.8987
X5.2559Y-4.8987
T8
X1.5748Y-5.1181
X1.5748Y-5.9055
X4.3307Y-6.2992
X5.9055Y-5.1181
T0
M30
