%TF.GenerationSoftware,KiCad,Pcbnew,(6.0.4)*%
%TF.CreationDate,2023-02-09T14:30:41+01:00*%
%TF.ProjectId,Processor_Board,50726f63-6573-4736-9f72-5f426f617264,rev?*%
%TF.SameCoordinates,Original*%
%TF.FileFunction,Legend,Top*%
%TF.FilePolarity,Positive*%
%FSLAX46Y46*%
G04 Gerber Fmt 4.6, Leading zero omitted, Abs format (unit mm)*
G04 Created by KiCad (PCBNEW (6.0.4)) date 2023-02-09 14:30:41*
%MOMM*%
%LPD*%
G01*
G04 APERTURE LIST*
%ADD10C,0.150000*%
%ADD11C,0.300000*%
%ADD12C,0.200000*%
%ADD13C,0.120000*%
G04 APERTURE END LIST*
D10*
X84214285Y-156952380D02*
X84547619Y-157952380D01*
X84880952Y-156952380D01*
X85738095Y-157952380D02*
X85166666Y-157952380D01*
X85452380Y-157952380D02*
X85452380Y-156952380D01*
X85357142Y-157095238D01*
X85261904Y-157190476D01*
X85166666Y-157238095D01*
X86166666Y-157857142D02*
X86214285Y-157904761D01*
X86166666Y-157952380D01*
X86119047Y-157904761D01*
X86166666Y-157857142D01*
X86166666Y-157952380D01*
X86833333Y-156952380D02*
X86928571Y-156952380D01*
X87023809Y-157000000D01*
X87071428Y-157047619D01*
X87119047Y-157142857D01*
X87166666Y-157333333D01*
X87166666Y-157571428D01*
X87119047Y-157761904D01*
X87071428Y-157857142D01*
X87023809Y-157904761D01*
X86928571Y-157952380D01*
X86833333Y-157952380D01*
X86738095Y-157904761D01*
X86690476Y-157857142D01*
X86642857Y-157761904D01*
X86595238Y-157571428D01*
X86595238Y-157333333D01*
X86642857Y-157142857D01*
X86690476Y-157047619D01*
X86738095Y-157000000D01*
X86833333Y-156952380D01*
X88309523Y-157047619D02*
X88357142Y-157000000D01*
X88452380Y-156952380D01*
X88690476Y-156952380D01*
X88785714Y-157000000D01*
X88833333Y-157047619D01*
X88880952Y-157142857D01*
X88880952Y-157238095D01*
X88833333Y-157380952D01*
X88261904Y-157952380D01*
X88880952Y-157952380D01*
X89500000Y-156952380D02*
X89595238Y-156952380D01*
X89690476Y-157000000D01*
X89738095Y-157047619D01*
X89785714Y-157142857D01*
X89833333Y-157333333D01*
X89833333Y-157571428D01*
X89785714Y-157761904D01*
X89738095Y-157857142D01*
X89690476Y-157904761D01*
X89595238Y-157952380D01*
X89500000Y-157952380D01*
X89404761Y-157904761D01*
X89357142Y-157857142D01*
X89309523Y-157761904D01*
X89261904Y-157571428D01*
X89261904Y-157333333D01*
X89309523Y-157142857D01*
X89357142Y-157047619D01*
X89404761Y-157000000D01*
X89500000Y-156952380D01*
X90214285Y-157047619D02*
X90261904Y-157000000D01*
X90357142Y-156952380D01*
X90595238Y-156952380D01*
X90690476Y-157000000D01*
X90738095Y-157047619D01*
X90785714Y-157142857D01*
X90785714Y-157238095D01*
X90738095Y-157380952D01*
X90166666Y-157952380D01*
X90785714Y-157952380D01*
X91119047Y-156952380D02*
X91738095Y-156952380D01*
X91404761Y-157333333D01*
X91547619Y-157333333D01*
X91642857Y-157380952D01*
X91690476Y-157428571D01*
X91738095Y-157523809D01*
X91738095Y-157761904D01*
X91690476Y-157857142D01*
X91642857Y-157904761D01*
X91547619Y-157952380D01*
X91261904Y-157952380D01*
X91166666Y-157904761D01*
X91119047Y-157857142D01*
X92880952Y-156904761D02*
X92023809Y-158190476D01*
X93404761Y-156952380D02*
X93500000Y-156952380D01*
X93595238Y-157000000D01*
X93642857Y-157047619D01*
X93690476Y-157142857D01*
X93738095Y-157333333D01*
X93738095Y-157571428D01*
X93690476Y-157761904D01*
X93642857Y-157857142D01*
X93595238Y-157904761D01*
X93500000Y-157952380D01*
X93404761Y-157952380D01*
X93309523Y-157904761D01*
X93261904Y-157857142D01*
X93214285Y-157761904D01*
X93166666Y-157571428D01*
X93166666Y-157333333D01*
X93214285Y-157142857D01*
X93261904Y-157047619D01*
X93309523Y-157000000D01*
X93404761Y-156952380D01*
X94119047Y-157047619D02*
X94166666Y-157000000D01*
X94261904Y-156952380D01*
X94499999Y-156952380D01*
X94595238Y-157000000D01*
X94642857Y-157047619D01*
X94690476Y-157142857D01*
X94690476Y-157238095D01*
X94642857Y-157380952D01*
X94071428Y-157952380D01*
X94690476Y-157952380D01*
D11*
X122857142Y-131178571D02*
X122857142Y-132392857D01*
X122928571Y-132535714D01*
X123000000Y-132607142D01*
X123142857Y-132678571D01*
X123428571Y-132678571D01*
X123571428Y-132607142D01*
X123642857Y-132535714D01*
X123714285Y-132392857D01*
X123714285Y-131178571D01*
X124357142Y-132607142D02*
X124571428Y-132678571D01*
X124928571Y-132678571D01*
X125071428Y-132607142D01*
X125142857Y-132535714D01*
X125214285Y-132392857D01*
X125214285Y-132250000D01*
X125142857Y-132107142D01*
X125071428Y-132035714D01*
X124928571Y-131964285D01*
X124642857Y-131892857D01*
X124500000Y-131821428D01*
X124428571Y-131750000D01*
X124357142Y-131607142D01*
X124357142Y-131464285D01*
X124428571Y-131321428D01*
X124500000Y-131250000D01*
X124642857Y-131178571D01*
X125000000Y-131178571D01*
X125214285Y-131250000D01*
X126357142Y-131892857D02*
X126571428Y-131964285D01*
X126642857Y-132035714D01*
X126714285Y-132178571D01*
X126714285Y-132392857D01*
X126642857Y-132535714D01*
X126571428Y-132607142D01*
X126428571Y-132678571D01*
X125857142Y-132678571D01*
X125857142Y-131178571D01*
X126357142Y-131178571D01*
X126500000Y-131250000D01*
X126571428Y-131321428D01*
X126642857Y-131464285D01*
X126642857Y-131607142D01*
X126571428Y-131750000D01*
X126500000Y-131821428D01*
X126357142Y-131892857D01*
X125857142Y-131892857D01*
X127357142Y-132107142D02*
X128500000Y-132107142D01*
X129214285Y-132678571D02*
X129214285Y-131178571D01*
X129714285Y-132250000D01*
X130214285Y-131178571D01*
X130214285Y-132678571D01*
X130928571Y-132678571D02*
X130928571Y-131178571D01*
X131642857Y-132678571D02*
X131642857Y-131178571D01*
X132000000Y-131178571D01*
X132214285Y-131250000D01*
X132357142Y-131392857D01*
X132428571Y-131535714D01*
X132500000Y-131821428D01*
X132500000Y-132035714D01*
X132428571Y-132321428D01*
X132357142Y-132464285D01*
X132214285Y-132607142D01*
X132000000Y-132678571D01*
X131642857Y-132678571D01*
X133142857Y-132678571D02*
X133142857Y-131178571D01*
X85166666Y-155654761D02*
X85166666Y-153654761D01*
X85166666Y-155559523D02*
X84976190Y-155654761D01*
X84595238Y-155654761D01*
X84404761Y-155559523D01*
X84309523Y-155464285D01*
X84214285Y-155273809D01*
X84214285Y-154702380D01*
X84309523Y-154511904D01*
X84404761Y-154416666D01*
X84595238Y-154321428D01*
X84976190Y-154321428D01*
X85166666Y-154416666D01*
X86119047Y-155654761D02*
X86119047Y-154321428D01*
X86119047Y-153654761D02*
X86023809Y-153750000D01*
X86119047Y-153845238D01*
X86214285Y-153750000D01*
X86119047Y-153654761D01*
X86119047Y-153845238D01*
X86880952Y-154321428D02*
X87357142Y-155654761D01*
X87833333Y-154321428D02*
X87357142Y-155654761D01*
X87166666Y-156130952D01*
X87071428Y-156226190D01*
X86880952Y-156321428D01*
X88595238Y-155654761D02*
X88595238Y-153654761D01*
X89261904Y-155083333D01*
X89928571Y-153654761D01*
X89928571Y-155654761D01*
X90785714Y-155083333D02*
X91738095Y-155083333D01*
X90595238Y-155654761D02*
X91261904Y-153654761D01*
X91928571Y-155654761D01*
X92595238Y-154892857D02*
X94119047Y-154892857D01*
X95071428Y-155654761D02*
X95071428Y-153654761D01*
X96023809Y-154321428D02*
X96023809Y-155654761D01*
X96023809Y-154511904D02*
X96119047Y-154416666D01*
X96309523Y-154321428D01*
X96595238Y-154321428D01*
X96785714Y-154416666D01*
X96880952Y-154607142D01*
X96880952Y-155654761D01*
X97547619Y-154321428D02*
X98309523Y-154321428D01*
X97833333Y-153654761D02*
X97833333Y-155369047D01*
X97928571Y-155559523D01*
X98119047Y-155654761D01*
X98309523Y-155654761D01*
X99738095Y-155559523D02*
X99547619Y-155654761D01*
X99166666Y-155654761D01*
X98976190Y-155559523D01*
X98880952Y-155369047D01*
X98880952Y-154607142D01*
X98976190Y-154416666D01*
X99166666Y-154321428D01*
X99547619Y-154321428D01*
X99738095Y-154416666D01*
X99833333Y-154607142D01*
X99833333Y-154797619D01*
X98880952Y-154988095D01*
X100690476Y-155654761D02*
X100690476Y-154321428D01*
X100690476Y-154702380D02*
X100785714Y-154511904D01*
X100880952Y-154416666D01*
X101071428Y-154321428D01*
X101261904Y-154321428D01*
X101642857Y-154321428D02*
X102404761Y-154321428D01*
X101928571Y-155654761D02*
X101928571Y-153940476D01*
X102023809Y-153750000D01*
X102214285Y-153654761D01*
X102404761Y-153654761D01*
X103928571Y-155654761D02*
X103928571Y-154607142D01*
X103833333Y-154416666D01*
X103642857Y-154321428D01*
X103261904Y-154321428D01*
X103071428Y-154416666D01*
X103928571Y-155559523D02*
X103738095Y-155654761D01*
X103261904Y-155654761D01*
X103071428Y-155559523D01*
X102976190Y-155369047D01*
X102976190Y-155178571D01*
X103071428Y-154988095D01*
X103261904Y-154892857D01*
X103738095Y-154892857D01*
X103928571Y-154797619D01*
X105738095Y-155559523D02*
X105547619Y-155654761D01*
X105166666Y-155654761D01*
X104976190Y-155559523D01*
X104880952Y-155464285D01*
X104785714Y-155273809D01*
X104785714Y-154702380D01*
X104880952Y-154511904D01*
X104976190Y-154416666D01*
X105166666Y-154321428D01*
X105547619Y-154321428D01*
X105738095Y-154416666D01*
X107357142Y-155559523D02*
X107166666Y-155654761D01*
X106785714Y-155654761D01*
X106595238Y-155559523D01*
X106500000Y-155369047D01*
X106500000Y-154607142D01*
X106595238Y-154416666D01*
X106785714Y-154321428D01*
X107166666Y-154321428D01*
X107357142Y-154416666D01*
X107452380Y-154607142D01*
X107452380Y-154797619D01*
X106500000Y-154988095D01*
X108309523Y-154892857D02*
X109833333Y-154892857D01*
X111928571Y-155464285D02*
X111833333Y-155559523D01*
X111547619Y-155654761D01*
X111357142Y-155654761D01*
X111071428Y-155559523D01*
X110880952Y-155369047D01*
X110785714Y-155178571D01*
X110690476Y-154797619D01*
X110690476Y-154511904D01*
X110785714Y-154130952D01*
X110880952Y-153940476D01*
X111071428Y-153750000D01*
X111357142Y-153654761D01*
X111547619Y-153654761D01*
X111833333Y-153750000D01*
X111928571Y-153845238D01*
X113642857Y-155654761D02*
X113642857Y-154607142D01*
X113547619Y-154416666D01*
X113357142Y-154321428D01*
X112976190Y-154321428D01*
X112785714Y-154416666D01*
X113642857Y-155559523D02*
X113452380Y-155654761D01*
X112976190Y-155654761D01*
X112785714Y-155559523D01*
X112690476Y-155369047D01*
X112690476Y-155178571D01*
X112785714Y-154988095D01*
X112976190Y-154892857D01*
X113452380Y-154892857D01*
X113642857Y-154797619D01*
X114595238Y-155654761D02*
X114595238Y-154321428D01*
X114595238Y-154702380D02*
X114690476Y-154511904D01*
X114785714Y-154416666D01*
X114976190Y-154321428D01*
X115166666Y-154321428D01*
X116690476Y-155654761D02*
X116690476Y-153654761D01*
X116690476Y-155559523D02*
X116500000Y-155654761D01*
X116119047Y-155654761D01*
X115928571Y-155559523D01*
X115833333Y-155464285D01*
X115738095Y-155273809D01*
X115738095Y-154702380D01*
X115833333Y-154511904D01*
X115928571Y-154416666D01*
X116119047Y-154321428D01*
X116500000Y-154321428D01*
X116690476Y-154416666D01*
X142821428Y-122535714D02*
X142750000Y-122607142D01*
X142535714Y-122678571D01*
X142392857Y-122678571D01*
X142178571Y-122607142D01*
X142035714Y-122464285D01*
X141964285Y-122321428D01*
X141892857Y-122035714D01*
X141892857Y-121821428D01*
X141964285Y-121535714D01*
X142035714Y-121392857D01*
X142178571Y-121250000D01*
X142392857Y-121178571D01*
X142535714Y-121178571D01*
X142750000Y-121250000D01*
X142821428Y-121321428D01*
X143750000Y-121178571D02*
X144035714Y-121178571D01*
X144178571Y-121250000D01*
X144321428Y-121392857D01*
X144392857Y-121678571D01*
X144392857Y-122178571D01*
X144321428Y-122464285D01*
X144178571Y-122607142D01*
X144035714Y-122678571D01*
X143750000Y-122678571D01*
X143607142Y-122607142D01*
X143464285Y-122464285D01*
X143392857Y-122178571D01*
X143392857Y-121678571D01*
X143464285Y-121392857D01*
X143607142Y-121250000D01*
X143750000Y-121178571D01*
X145035714Y-122678571D02*
X145035714Y-121178571D01*
X145535714Y-122250000D01*
X146035714Y-121178571D01*
X146035714Y-122678571D01*
D12*
X80319047Y-161985714D02*
X80509523Y-162652380D01*
X80700000Y-162176190D01*
X80890476Y-162652380D01*
X81080952Y-161985714D01*
X81366666Y-161985714D02*
X81557142Y-162652380D01*
X81747619Y-162176190D01*
X81938095Y-162652380D01*
X82128571Y-161985714D01*
X82414285Y-161985714D02*
X82604761Y-162652380D01*
X82795238Y-162176190D01*
X82985714Y-162652380D01*
X83176190Y-161985714D01*
X83557142Y-162557142D02*
X83604761Y-162604761D01*
X83557142Y-162652380D01*
X83509523Y-162604761D01*
X83557142Y-162557142D01*
X83557142Y-162652380D01*
X84461904Y-162652380D02*
X84461904Y-161652380D01*
X84461904Y-162604761D02*
X84366666Y-162652380D01*
X84176190Y-162652380D01*
X84080952Y-162604761D01*
X84033333Y-162557142D01*
X83985714Y-162461904D01*
X83985714Y-162176190D01*
X84033333Y-162080952D01*
X84080952Y-162033333D01*
X84176190Y-161985714D01*
X84366666Y-161985714D01*
X84461904Y-162033333D01*
X85319047Y-162604761D02*
X85223809Y-162652380D01*
X85033333Y-162652380D01*
X84938095Y-162604761D01*
X84890476Y-162509523D01*
X84890476Y-162128571D01*
X84938095Y-162033333D01*
X85033333Y-161985714D01*
X85223809Y-161985714D01*
X85319047Y-162033333D01*
X85366666Y-162128571D01*
X85366666Y-162223809D01*
X84890476Y-162319047D01*
X85795238Y-161985714D02*
X85795238Y-162652380D01*
X85795238Y-162080952D02*
X85842857Y-162033333D01*
X85938095Y-161985714D01*
X86080952Y-161985714D01*
X86176190Y-162033333D01*
X86223809Y-162128571D01*
X86223809Y-162652380D01*
X86700000Y-161985714D02*
X86700000Y-162652380D01*
X86700000Y-162080952D02*
X86747619Y-162033333D01*
X86842857Y-161985714D01*
X86985714Y-161985714D01*
X87080952Y-162033333D01*
X87128571Y-162128571D01*
X87128571Y-162652380D01*
X87604761Y-162652380D02*
X87604761Y-161985714D01*
X87604761Y-161652380D02*
X87557142Y-161700000D01*
X87604761Y-161747619D01*
X87652380Y-161700000D01*
X87604761Y-161652380D01*
X87604761Y-161747619D01*
X88033333Y-162604761D02*
X88128571Y-162652380D01*
X88319047Y-162652380D01*
X88414285Y-162604761D01*
X88461904Y-162509523D01*
X88461904Y-162461904D01*
X88414285Y-162366666D01*
X88319047Y-162319047D01*
X88176190Y-162319047D01*
X88080952Y-162271428D01*
X88033333Y-162176190D01*
X88033333Y-162128571D01*
X88080952Y-162033333D01*
X88176190Y-161985714D01*
X88319047Y-161985714D01*
X88414285Y-162033333D01*
X89319047Y-161985714D02*
X89319047Y-162795238D01*
X89271428Y-162890476D01*
X89223809Y-162938095D01*
X89128571Y-162985714D01*
X88985714Y-162985714D01*
X88890476Y-162938095D01*
X89319047Y-162604761D02*
X89223809Y-162652380D01*
X89033333Y-162652380D01*
X88938095Y-162604761D01*
X88890476Y-162557142D01*
X88842857Y-162461904D01*
X88842857Y-162176190D01*
X88890476Y-162080952D01*
X88938095Y-162033333D01*
X89033333Y-161985714D01*
X89223809Y-161985714D01*
X89319047Y-162033333D01*
X90223809Y-161985714D02*
X90223809Y-162652380D01*
X89795238Y-161985714D02*
X89795238Y-162509523D01*
X89842857Y-162604761D01*
X89938095Y-162652380D01*
X90080952Y-162652380D01*
X90176190Y-162604761D01*
X90223809Y-162557142D01*
X90700000Y-161985714D02*
X90700000Y-162652380D01*
X90700000Y-162080952D02*
X90747619Y-162033333D01*
X90842857Y-161985714D01*
X90985714Y-161985714D01*
X91080952Y-162033333D01*
X91128571Y-162128571D01*
X91128571Y-162652380D01*
X91604761Y-162652380D02*
X91604761Y-161985714D01*
X91604761Y-161652380D02*
X91557142Y-161700000D01*
X91604761Y-161747619D01*
X91652380Y-161700000D01*
X91604761Y-161652380D01*
X91604761Y-161747619D01*
X92509523Y-162652380D02*
X92509523Y-162128571D01*
X92461904Y-162033333D01*
X92366666Y-161985714D01*
X92176190Y-161985714D01*
X92080952Y-162033333D01*
X92509523Y-162604761D02*
X92414285Y-162652380D01*
X92176190Y-162652380D01*
X92080952Y-162604761D01*
X92033333Y-162509523D01*
X92033333Y-162414285D01*
X92080952Y-162319047D01*
X92176190Y-162271428D01*
X92414285Y-162271428D01*
X92509523Y-162223809D01*
X92985714Y-162557142D02*
X93033333Y-162604761D01*
X92985714Y-162652380D01*
X92938095Y-162604761D01*
X92985714Y-162557142D01*
X92985714Y-162652380D01*
X93890476Y-162652380D02*
X93890476Y-161652380D01*
X93890476Y-162604761D02*
X93795238Y-162652380D01*
X93604761Y-162652380D01*
X93509523Y-162604761D01*
X93461904Y-162557142D01*
X93414285Y-162461904D01*
X93414285Y-162176190D01*
X93461904Y-162080952D01*
X93509523Y-162033333D01*
X93604761Y-161985714D01*
X93795238Y-161985714D01*
X93890476Y-162033333D01*
X94747619Y-162604761D02*
X94652380Y-162652380D01*
X94461904Y-162652380D01*
X94366666Y-162604761D01*
X94319047Y-162509523D01*
X94319047Y-162128571D01*
X94366666Y-162033333D01*
X94461904Y-161985714D01*
X94652380Y-161985714D01*
X94747619Y-162033333D01*
X94795238Y-162128571D01*
X94795238Y-162223809D01*
X94319047Y-162319047D01*
X96223809Y-162985714D02*
X96223809Y-161557142D01*
X97652380Y-161747619D02*
X97700000Y-161700000D01*
X97795238Y-161652380D01*
X98033333Y-161652380D01*
X98128571Y-161700000D01*
X98176190Y-161747619D01*
X98223809Y-161842857D01*
X98223809Y-161938095D01*
X98176190Y-162080952D01*
X97604761Y-162652380D01*
X98223809Y-162652380D01*
X98842857Y-161652380D02*
X98938095Y-161652380D01*
X99033333Y-161700000D01*
X99080952Y-161747619D01*
X99128571Y-161842857D01*
X99176190Y-162033333D01*
X99176190Y-162271428D01*
X99128571Y-162461904D01*
X99080952Y-162557142D01*
X99033333Y-162604761D01*
X98938095Y-162652380D01*
X98842857Y-162652380D01*
X98747619Y-162604761D01*
X98700000Y-162557142D01*
X98652380Y-162461904D01*
X98604761Y-162271428D01*
X98604761Y-162033333D01*
X98652380Y-161842857D01*
X98700000Y-161747619D01*
X98747619Y-161700000D01*
X98842857Y-161652380D01*
X99557142Y-161747619D02*
X99604761Y-161700000D01*
X99700000Y-161652380D01*
X99938095Y-161652380D01*
X100033333Y-161700000D01*
X100080952Y-161747619D01*
X100128571Y-161842857D01*
X100128571Y-161938095D01*
X100080952Y-162080952D01*
X99509523Y-162652380D01*
X100128571Y-162652380D01*
X100461904Y-161652380D02*
X101080952Y-161652380D01*
X100747619Y-162033333D01*
X100890476Y-162033333D01*
X100985714Y-162080952D01*
X101033333Y-162128571D01*
X101080952Y-162223809D01*
X101080952Y-162461904D01*
X101033333Y-162557142D01*
X100985714Y-162604761D01*
X100890476Y-162652380D01*
X100604761Y-162652380D01*
X100509523Y-162604761D01*
X100461904Y-162557142D01*
X102223809Y-161604761D02*
X101366666Y-162890476D01*
X102747619Y-161652380D02*
X102842857Y-161652380D01*
X102938095Y-161700000D01*
X102985714Y-161747619D01*
X103033333Y-161842857D01*
X103080952Y-162033333D01*
X103080952Y-162271428D01*
X103033333Y-162461904D01*
X102985714Y-162557142D01*
X102938095Y-162604761D01*
X102842857Y-162652380D01*
X102747619Y-162652380D01*
X102652380Y-162604761D01*
X102604761Y-162557142D01*
X102557142Y-162461904D01*
X102509523Y-162271428D01*
X102509523Y-162033333D01*
X102557142Y-161842857D01*
X102604761Y-161747619D01*
X102652380Y-161700000D01*
X102747619Y-161652380D01*
X103461904Y-161747619D02*
X103509523Y-161700000D01*
X103604761Y-161652380D01*
X103842857Y-161652380D01*
X103938095Y-161700000D01*
X103985714Y-161747619D01*
X104033333Y-161842857D01*
X104033333Y-161938095D01*
X103985714Y-162080952D01*
X103414285Y-162652380D01*
X104033333Y-162652380D01*
D11*
X50785714Y-154678571D02*
X50785714Y-153178571D01*
X52357142Y-154535714D02*
X52285714Y-154607142D01*
X52071428Y-154678571D01*
X51928571Y-154678571D01*
X51714285Y-154607142D01*
X51571428Y-154464285D01*
X51500000Y-154321428D01*
X51428571Y-154035714D01*
X51428571Y-153821428D01*
X51500000Y-153535714D01*
X51571428Y-153392857D01*
X51714285Y-153250000D01*
X51928571Y-153178571D01*
X52071428Y-153178571D01*
X52285714Y-153250000D01*
X52357142Y-153321428D01*
X52928571Y-154607142D02*
X53142857Y-154678571D01*
X53500000Y-154678571D01*
X53642857Y-154607142D01*
X53714285Y-154535714D01*
X53785714Y-154392857D01*
X53785714Y-154250000D01*
X53714285Y-154107142D01*
X53642857Y-154035714D01*
X53500000Y-153964285D01*
X53214285Y-153892857D01*
X53071428Y-153821428D01*
X53000000Y-153750000D01*
X52928571Y-153607142D01*
X52928571Y-153464285D01*
X53000000Y-153321428D01*
X53071428Y-153250000D01*
X53214285Y-153178571D01*
X53571428Y-153178571D01*
X53785714Y-153250000D01*
X54428571Y-154678571D02*
X54428571Y-153178571D01*
X55000000Y-153178571D01*
X55142857Y-153250000D01*
X55214285Y-153321428D01*
X55285714Y-153464285D01*
X55285714Y-153678571D01*
X55214285Y-153821428D01*
X55142857Y-153892857D01*
X55000000Y-153964285D01*
X54428571Y-153964285D01*
X142678571Y-158464285D02*
X141178571Y-158464285D01*
X141178571Y-157892857D01*
X141250000Y-157750000D01*
X141321428Y-157678571D01*
X141464285Y-157607142D01*
X141678571Y-157607142D01*
X141821428Y-157678571D01*
X141892857Y-157750000D01*
X141964285Y-157892857D01*
X141964285Y-158464285D01*
X141178571Y-156678571D02*
X141178571Y-156392857D01*
X141250000Y-156250000D01*
X141392857Y-156107142D01*
X141678571Y-156035714D01*
X142178571Y-156035714D01*
X142464285Y-156107142D01*
X142607142Y-156250000D01*
X142678571Y-156392857D01*
X142678571Y-156678571D01*
X142607142Y-156821428D01*
X142464285Y-156964285D01*
X142178571Y-157035714D01*
X141678571Y-157035714D01*
X141392857Y-156964285D01*
X141250000Y-156821428D01*
X141178571Y-156678571D01*
X141178571Y-155535714D02*
X142678571Y-155178571D01*
X141607142Y-154892857D01*
X142678571Y-154607142D01*
X141178571Y-154250000D01*
X141892857Y-153678571D02*
X141892857Y-153178571D01*
X142678571Y-152964285D02*
X142678571Y-153678571D01*
X141178571Y-153678571D01*
X141178571Y-152964285D01*
X142678571Y-151464285D02*
X141964285Y-151964285D01*
X142678571Y-152321428D02*
X141178571Y-152321428D01*
X141178571Y-151750000D01*
X141250000Y-151607142D01*
X141321428Y-151535714D01*
X141464285Y-151464285D01*
X141678571Y-151464285D01*
X141821428Y-151535714D01*
X141892857Y-151607142D01*
X141964285Y-151750000D01*
X141964285Y-152321428D01*
D10*
%TO.C,C7*%
X115333333Y-130357142D02*
X115285714Y-130404761D01*
X115142857Y-130452380D01*
X115047619Y-130452380D01*
X114904761Y-130404761D01*
X114809523Y-130309523D01*
X114761904Y-130214285D01*
X114714285Y-130023809D01*
X114714285Y-129880952D01*
X114761904Y-129690476D01*
X114809523Y-129595238D01*
X114904761Y-129500000D01*
X115047619Y-129452380D01*
X115142857Y-129452380D01*
X115285714Y-129500000D01*
X115333333Y-129547619D01*
X115666666Y-129452380D02*
X116333333Y-129452380D01*
X115904761Y-130452380D01*
%TO.C,C6*%
X115333333Y-150607142D02*
X115285714Y-150654761D01*
X115142857Y-150702380D01*
X115047619Y-150702380D01*
X114904761Y-150654761D01*
X114809523Y-150559523D01*
X114761904Y-150464285D01*
X114714285Y-150273809D01*
X114714285Y-150130952D01*
X114761904Y-149940476D01*
X114809523Y-149845238D01*
X114904761Y-149750000D01*
X115047619Y-149702380D01*
X115142857Y-149702380D01*
X115285714Y-149750000D01*
X115333333Y-149797619D01*
X116190476Y-149702380D02*
X116000000Y-149702380D01*
X115904761Y-149750000D01*
X115857142Y-149797619D01*
X115761904Y-149940476D01*
X115714285Y-150130952D01*
X115714285Y-150511904D01*
X115761904Y-150607142D01*
X115809523Y-150654761D01*
X115904761Y-150702380D01*
X116095238Y-150702380D01*
X116190476Y-150654761D01*
X116238095Y-150607142D01*
X116285714Y-150511904D01*
X116285714Y-150273809D01*
X116238095Y-150178571D01*
X116190476Y-150130952D01*
X116095238Y-150083333D01*
X115904761Y-150083333D01*
X115809523Y-150130952D01*
X115761904Y-150178571D01*
X115714285Y-150273809D01*
%TO.C,J5*%
X151166666Y-117202380D02*
X151166666Y-117916666D01*
X151119047Y-118059523D01*
X151023809Y-118154761D01*
X150880952Y-118202380D01*
X150785714Y-118202380D01*
X152119047Y-117202380D02*
X151642857Y-117202380D01*
X151595238Y-117678571D01*
X151642857Y-117630952D01*
X151738095Y-117583333D01*
X151976190Y-117583333D01*
X152071428Y-117630952D01*
X152119047Y-117678571D01*
X152166666Y-117773809D01*
X152166666Y-118011904D01*
X152119047Y-118107142D01*
X152071428Y-118154761D01*
X151976190Y-118202380D01*
X151738095Y-118202380D01*
X151642857Y-118154761D01*
X151595238Y-118107142D01*
%TO.C,JP1*%
X53652380Y-149333333D02*
X54366666Y-149333333D01*
X54509523Y-149380952D01*
X54604761Y-149476190D01*
X54652380Y-149619047D01*
X54652380Y-149714285D01*
X54652380Y-148857142D02*
X53652380Y-148857142D01*
X53652380Y-148476190D01*
X53700000Y-148380952D01*
X53747619Y-148333333D01*
X53842857Y-148285714D01*
X53985714Y-148285714D01*
X54080952Y-148333333D01*
X54128571Y-148380952D01*
X54176190Y-148476190D01*
X54176190Y-148857142D01*
X54652380Y-147333333D02*
X54652380Y-147904761D01*
X54652380Y-147619047D02*
X53652380Y-147619047D01*
X53795238Y-147714285D01*
X53890476Y-147809523D01*
X53938095Y-147904761D01*
X56452380Y-150814285D02*
X56452380Y-151385714D01*
X56452380Y-151100000D02*
X55452380Y-151100000D01*
X55595238Y-151195238D01*
X55690476Y-151290476D01*
X55738095Y-151385714D01*
X55452380Y-146233333D02*
X55452380Y-145614285D01*
X55833333Y-145947619D01*
X55833333Y-145804761D01*
X55880952Y-145709523D01*
X55928571Y-145661904D01*
X56023809Y-145614285D01*
X56261904Y-145614285D01*
X56357142Y-145661904D01*
X56404761Y-145709523D01*
X56452380Y-145804761D01*
X56452380Y-146090476D01*
X56404761Y-146185714D01*
X56357142Y-146233333D01*
%TO.C,R2*%
X136452380Y-144366666D02*
X135976190Y-144700000D01*
X136452380Y-144938095D02*
X135452380Y-144938095D01*
X135452380Y-144557142D01*
X135500000Y-144461904D01*
X135547619Y-144414285D01*
X135642857Y-144366666D01*
X135785714Y-144366666D01*
X135880952Y-144414285D01*
X135928571Y-144461904D01*
X135976190Y-144557142D01*
X135976190Y-144938095D01*
X135547619Y-143985714D02*
X135500000Y-143938095D01*
X135452380Y-143842857D01*
X135452380Y-143604761D01*
X135500000Y-143509523D01*
X135547619Y-143461904D01*
X135642857Y-143414285D01*
X135738095Y-143414285D01*
X135880952Y-143461904D01*
X136452380Y-144033333D01*
X136452380Y-143414285D01*
%TO.C,H3*%
X113738095Y-160452380D02*
X113738095Y-159452380D01*
X113738095Y-159928571D02*
X114309523Y-159928571D01*
X114309523Y-160452380D02*
X114309523Y-159452380D01*
X114690476Y-159452380D02*
X115309523Y-159452380D01*
X114976190Y-159833333D01*
X115119047Y-159833333D01*
X115214285Y-159880952D01*
X115261904Y-159928571D01*
X115309523Y-160023809D01*
X115309523Y-160261904D01*
X115261904Y-160357142D01*
X115214285Y-160404761D01*
X115119047Y-160452380D01*
X114833333Y-160452380D01*
X114738095Y-160404761D01*
X114690476Y-160357142D01*
%TO.C,R1*%
X50032380Y-147116666D02*
X49556190Y-147450000D01*
X50032380Y-147688095D02*
X49032380Y-147688095D01*
X49032380Y-147307142D01*
X49080000Y-147211904D01*
X49127619Y-147164285D01*
X49222857Y-147116666D01*
X49365714Y-147116666D01*
X49460952Y-147164285D01*
X49508571Y-147211904D01*
X49556190Y-147307142D01*
X49556190Y-147688095D01*
X50032380Y-146164285D02*
X50032380Y-146735714D01*
X50032380Y-146450000D02*
X49032380Y-146450000D01*
X49175238Y-146545238D01*
X49270476Y-146640476D01*
X49318095Y-146735714D01*
%TO.C,D1*%
X122152380Y-143038095D02*
X121152380Y-143038095D01*
X121152380Y-142800000D01*
X121200000Y-142657142D01*
X121295238Y-142561904D01*
X121390476Y-142514285D01*
X121580952Y-142466666D01*
X121723809Y-142466666D01*
X121914285Y-142514285D01*
X122009523Y-142561904D01*
X122104761Y-142657142D01*
X122152380Y-142800000D01*
X122152380Y-143038095D01*
X122152380Y-141514285D02*
X122152380Y-142085714D01*
X122152380Y-141800000D02*
X121152380Y-141800000D01*
X121295238Y-141895238D01*
X121390476Y-141990476D01*
X121438095Y-142085714D01*
X124352380Y-135761904D02*
X123352380Y-135761904D01*
X124352380Y-135190476D02*
X123780952Y-135619047D01*
X123352380Y-135190476D02*
X123923809Y-135761904D01*
%TO.C,J1*%
X107482380Y-121603333D02*
X108196666Y-121603333D01*
X108339523Y-121650952D01*
X108434761Y-121746190D01*
X108482380Y-121889047D01*
X108482380Y-121984285D01*
X108482380Y-120603333D02*
X108482380Y-121174761D01*
X108482380Y-120889047D02*
X107482380Y-120889047D01*
X107625238Y-120984285D01*
X107720476Y-121079523D01*
X107768095Y-121174761D01*
%TO.C,U2*%
X115602380Y-158261904D02*
X116411904Y-158261904D01*
X116507142Y-158214285D01*
X116554761Y-158166666D01*
X116602380Y-158071428D01*
X116602380Y-157880952D01*
X116554761Y-157785714D01*
X116507142Y-157738095D01*
X116411904Y-157690476D01*
X115602380Y-157690476D01*
X115697619Y-157261904D02*
X115650000Y-157214285D01*
X115602380Y-157119047D01*
X115602380Y-156880952D01*
X115650000Y-156785714D01*
X115697619Y-156738095D01*
X115792857Y-156690476D01*
X115888095Y-156690476D01*
X116030952Y-156738095D01*
X116602380Y-157309523D01*
X116602380Y-156690476D01*
%TO.C,J3*%
X41522380Y-160315833D02*
X42236666Y-160315833D01*
X42379523Y-160363452D01*
X42474761Y-160458690D01*
X42522380Y-160601547D01*
X42522380Y-160696785D01*
X41522380Y-159934880D02*
X41522380Y-159315833D01*
X41903333Y-159649166D01*
X41903333Y-159506309D01*
X41950952Y-159411071D01*
X41998571Y-159363452D01*
X42093809Y-159315833D01*
X42331904Y-159315833D01*
X42427142Y-159363452D01*
X42474761Y-159411071D01*
X42522380Y-159506309D01*
X42522380Y-159792023D01*
X42474761Y-159887261D01*
X42427142Y-159934880D01*
%TO.C,H4*%
X39238095Y-146652380D02*
X39238095Y-145652380D01*
X39238095Y-146128571D02*
X39809523Y-146128571D01*
X39809523Y-146652380D02*
X39809523Y-145652380D01*
X40714285Y-145985714D02*
X40714285Y-146652380D01*
X40476190Y-145604761D02*
X40238095Y-146319047D01*
X40857142Y-146319047D01*
%TO.C,C4*%
X46607142Y-139166666D02*
X46654761Y-139214285D01*
X46702380Y-139357142D01*
X46702380Y-139452380D01*
X46654761Y-139595238D01*
X46559523Y-139690476D01*
X46464285Y-139738095D01*
X46273809Y-139785714D01*
X46130952Y-139785714D01*
X45940476Y-139738095D01*
X45845238Y-139690476D01*
X45750000Y-139595238D01*
X45702380Y-139452380D01*
X45702380Y-139357142D01*
X45750000Y-139214285D01*
X45797619Y-139166666D01*
X46035714Y-138309523D02*
X46702380Y-138309523D01*
X45654761Y-138547619D02*
X46369047Y-138785714D01*
X46369047Y-138166666D01*
%TO.C,RN1*%
X77489523Y-128302380D02*
X77156190Y-127826190D01*
X76918095Y-128302380D02*
X76918095Y-127302380D01*
X77299047Y-127302380D01*
X77394285Y-127350000D01*
X77441904Y-127397619D01*
X77489523Y-127492857D01*
X77489523Y-127635714D01*
X77441904Y-127730952D01*
X77394285Y-127778571D01*
X77299047Y-127826190D01*
X76918095Y-127826190D01*
X77918095Y-128302380D02*
X77918095Y-127302380D01*
X78489523Y-128302380D01*
X78489523Y-127302380D01*
X79489523Y-128302380D02*
X78918095Y-128302380D01*
X79203809Y-128302380D02*
X79203809Y-127302380D01*
X79108571Y-127445238D01*
X79013333Y-127540476D01*
X78918095Y-127588095D01*
%TO.C,C5*%
X134083333Y-162607142D02*
X134035714Y-162654761D01*
X133892857Y-162702380D01*
X133797619Y-162702380D01*
X133654761Y-162654761D01*
X133559523Y-162559523D01*
X133511904Y-162464285D01*
X133464285Y-162273809D01*
X133464285Y-162130952D01*
X133511904Y-161940476D01*
X133559523Y-161845238D01*
X133654761Y-161750000D01*
X133797619Y-161702380D01*
X133892857Y-161702380D01*
X134035714Y-161750000D01*
X134083333Y-161797619D01*
X134988095Y-161702380D02*
X134511904Y-161702380D01*
X134464285Y-162178571D01*
X134511904Y-162130952D01*
X134607142Y-162083333D01*
X134845238Y-162083333D01*
X134940476Y-162130952D01*
X134988095Y-162178571D01*
X135035714Y-162273809D01*
X135035714Y-162511904D01*
X134988095Y-162607142D01*
X134940476Y-162654761D01*
X134845238Y-162702380D01*
X134607142Y-162702380D01*
X134511904Y-162654761D01*
X134464285Y-162607142D01*
%TO.C,H1*%
X39238095Y-126652380D02*
X39238095Y-125652380D01*
X39238095Y-126128571D02*
X39809523Y-126128571D01*
X39809523Y-126652380D02*
X39809523Y-125652380D01*
X40809523Y-126652380D02*
X40238095Y-126652380D01*
X40523809Y-126652380D02*
X40523809Y-125652380D01*
X40428571Y-125795238D01*
X40333333Y-125890476D01*
X40238095Y-125938095D01*
%TO.C,Y1*%
X72523809Y-151501190D02*
X72523809Y-151977380D01*
X72190476Y-150977380D02*
X72523809Y-151501190D01*
X72857142Y-150977380D01*
X73714285Y-151977380D02*
X73142857Y-151977380D01*
X73428571Y-151977380D02*
X73428571Y-150977380D01*
X73333333Y-151120238D01*
X73238095Y-151215476D01*
X73142857Y-151263095D01*
%TO.C,J4*%
X147686666Y-132232380D02*
X147686666Y-132946666D01*
X147639047Y-133089523D01*
X147543809Y-133184761D01*
X147400952Y-133232380D01*
X147305714Y-133232380D01*
X148591428Y-132565714D02*
X148591428Y-133232380D01*
X148353333Y-132184761D02*
X148115238Y-132899047D01*
X148734285Y-132899047D01*
%TO.C,J2*%
X118052380Y-122120833D02*
X118766666Y-122120833D01*
X118909523Y-122168452D01*
X119004761Y-122263690D01*
X119052380Y-122406547D01*
X119052380Y-122501785D01*
X118147619Y-121692261D02*
X118100000Y-121644642D01*
X118052380Y-121549404D01*
X118052380Y-121311309D01*
X118100000Y-121216071D01*
X118147619Y-121168452D01*
X118242857Y-121120833D01*
X118338095Y-121120833D01*
X118480952Y-121168452D01*
X119052380Y-121739880D01*
X119052380Y-121120833D01*
%TO.C,R3*%
X133552380Y-144366666D02*
X133076190Y-144700000D01*
X133552380Y-144938095D02*
X132552380Y-144938095D01*
X132552380Y-144557142D01*
X132600000Y-144461904D01*
X132647619Y-144414285D01*
X132742857Y-144366666D01*
X132885714Y-144366666D01*
X132980952Y-144414285D01*
X133028571Y-144461904D01*
X133076190Y-144557142D01*
X133076190Y-144938095D01*
X132552380Y-144033333D02*
X132552380Y-143414285D01*
X132933333Y-143747619D01*
X132933333Y-143604761D01*
X132980952Y-143509523D01*
X133028571Y-143461904D01*
X133123809Y-143414285D01*
X133361904Y-143414285D01*
X133457142Y-143461904D01*
X133504761Y-143509523D01*
X133552380Y-143604761D01*
X133552380Y-143890476D01*
X133504761Y-143985714D01*
X133457142Y-144033333D01*
%TO.C,C2*%
X68607142Y-154916666D02*
X68654761Y-154964285D01*
X68702380Y-155107142D01*
X68702380Y-155202380D01*
X68654761Y-155345238D01*
X68559523Y-155440476D01*
X68464285Y-155488095D01*
X68273809Y-155535714D01*
X68130952Y-155535714D01*
X67940476Y-155488095D01*
X67845238Y-155440476D01*
X67750000Y-155345238D01*
X67702380Y-155202380D01*
X67702380Y-155107142D01*
X67750000Y-154964285D01*
X67797619Y-154916666D01*
X67797619Y-154535714D02*
X67750000Y-154488095D01*
X67702380Y-154392857D01*
X67702380Y-154154761D01*
X67750000Y-154059523D01*
X67797619Y-154011904D01*
X67892857Y-153964285D01*
X67988095Y-153964285D01*
X68130952Y-154011904D01*
X68702380Y-154583333D01*
X68702380Y-153964285D01*
%TO.C,U3*%
X104938095Y-130152380D02*
X104938095Y-130961904D01*
X104985714Y-131057142D01*
X105033333Y-131104761D01*
X105128571Y-131152380D01*
X105319047Y-131152380D01*
X105414285Y-131104761D01*
X105461904Y-131057142D01*
X105509523Y-130961904D01*
X105509523Y-130152380D01*
X105890476Y-130152380D02*
X106509523Y-130152380D01*
X106176190Y-130533333D01*
X106319047Y-130533333D01*
X106414285Y-130580952D01*
X106461904Y-130628571D01*
X106509523Y-130723809D01*
X106509523Y-130961904D01*
X106461904Y-131057142D01*
X106414285Y-131104761D01*
X106319047Y-131152380D01*
X106033333Y-131152380D01*
X105938095Y-131104761D01*
X105890476Y-131057142D01*
%TO.C,C3*%
X73607142Y-154916666D02*
X73654761Y-154964285D01*
X73702380Y-155107142D01*
X73702380Y-155202380D01*
X73654761Y-155345238D01*
X73559523Y-155440476D01*
X73464285Y-155488095D01*
X73273809Y-155535714D01*
X73130952Y-155535714D01*
X72940476Y-155488095D01*
X72845238Y-155440476D01*
X72750000Y-155345238D01*
X72702380Y-155202380D01*
X72702380Y-155107142D01*
X72750000Y-154964285D01*
X72797619Y-154916666D01*
X72702380Y-154583333D02*
X72702380Y-153964285D01*
X73083333Y-154297619D01*
X73083333Y-154154761D01*
X73130952Y-154059523D01*
X73178571Y-154011904D01*
X73273809Y-153964285D01*
X73511904Y-153964285D01*
X73607142Y-154011904D01*
X73654761Y-154059523D01*
X73702380Y-154154761D01*
X73702380Y-154440476D01*
X73654761Y-154535714D01*
X73607142Y-154583333D01*
%TO.C,C1*%
X100633333Y-128657142D02*
X100585714Y-128704761D01*
X100442857Y-128752380D01*
X100347619Y-128752380D01*
X100204761Y-128704761D01*
X100109523Y-128609523D01*
X100061904Y-128514285D01*
X100014285Y-128323809D01*
X100014285Y-128180952D01*
X100061904Y-127990476D01*
X100109523Y-127895238D01*
X100204761Y-127800000D01*
X100347619Y-127752380D01*
X100442857Y-127752380D01*
X100585714Y-127800000D01*
X100633333Y-127847619D01*
X101585714Y-128752380D02*
X101014285Y-128752380D01*
X101300000Y-128752380D02*
X101300000Y-127752380D01*
X101204761Y-127895238D01*
X101109523Y-127990476D01*
X101014285Y-128038095D01*
%TO.C,H2*%
X149238095Y-126652380D02*
X149238095Y-125652380D01*
X149238095Y-126128571D02*
X149809523Y-126128571D01*
X149809523Y-126652380D02*
X149809523Y-125652380D01*
X150238095Y-125747619D02*
X150285714Y-125700000D01*
X150380952Y-125652380D01*
X150619047Y-125652380D01*
X150714285Y-125700000D01*
X150761904Y-125747619D01*
X150809523Y-125842857D01*
X150809523Y-125938095D01*
X150761904Y-126080952D01*
X150190476Y-126652380D01*
X150809523Y-126652380D01*
%TO.C,R4*%
X130452380Y-144366666D02*
X129976190Y-144700000D01*
X130452380Y-144938095D02*
X129452380Y-144938095D01*
X129452380Y-144557142D01*
X129500000Y-144461904D01*
X129547619Y-144414285D01*
X129642857Y-144366666D01*
X129785714Y-144366666D01*
X129880952Y-144414285D01*
X129928571Y-144461904D01*
X129976190Y-144557142D01*
X129976190Y-144938095D01*
X129785714Y-143509523D02*
X130452380Y-143509523D01*
X129404761Y-143747619D02*
X130119047Y-143985714D01*
X130119047Y-143366666D01*
%TO.C,D2*%
X124952380Y-143038095D02*
X123952380Y-143038095D01*
X123952380Y-142800000D01*
X124000000Y-142657142D01*
X124095238Y-142561904D01*
X124190476Y-142514285D01*
X124380952Y-142466666D01*
X124523809Y-142466666D01*
X124714285Y-142514285D01*
X124809523Y-142561904D01*
X124904761Y-142657142D01*
X124952380Y-142800000D01*
X124952380Y-143038095D01*
X124047619Y-142085714D02*
X124000000Y-142038095D01*
X123952380Y-141942857D01*
X123952380Y-141704761D01*
X124000000Y-141609523D01*
X124047619Y-141561904D01*
X124142857Y-141514285D01*
X124238095Y-141514285D01*
X124380952Y-141561904D01*
X124952380Y-142133333D01*
X124952380Y-141514285D01*
X127352380Y-135661904D02*
X126352380Y-135661904D01*
X127352380Y-135090476D02*
X126780952Y-135519047D01*
X126352380Y-135090476D02*
X126923809Y-135661904D01*
%TO.C,U1*%
X48582380Y-135061904D02*
X49391904Y-135061904D01*
X49487142Y-135014285D01*
X49534761Y-134966666D01*
X49582380Y-134871428D01*
X49582380Y-134680952D01*
X49534761Y-134585714D01*
X49487142Y-134538095D01*
X49391904Y-134490476D01*
X48582380Y-134490476D01*
X49582380Y-133490476D02*
X49582380Y-134061904D01*
X49582380Y-133776190D02*
X48582380Y-133776190D01*
X48725238Y-133871428D01*
X48820476Y-133966666D01*
X48868095Y-134061904D01*
D13*
%TO.C,C7*%
X119541000Y-134482000D02*
X119541000Y-136018000D01*
X111490302Y-132535000D02*
X111490302Y-133335000D01*
X119421000Y-134021000D02*
X119421000Y-136479000D01*
X116501000Y-131293000D02*
X116501000Y-134210000D01*
X117541000Y-131710000D02*
X117541000Y-134210000D01*
X116901000Y-131415000D02*
X116901000Y-134210000D01*
X118301000Y-132267000D02*
X118301000Y-138233000D01*
X116261000Y-136290000D02*
X116261000Y-139260000D01*
X116861000Y-131400000D02*
X116861000Y-134210000D01*
X116981000Y-131445000D02*
X116981000Y-134210000D01*
X118781000Y-132796000D02*
X118781000Y-137704000D01*
X118901000Y-132963000D02*
X118901000Y-137537000D01*
X118981000Y-133084000D02*
X118981000Y-137416000D01*
X117701000Y-131806000D02*
X117701000Y-134210000D01*
X115860000Y-136290000D02*
X115860000Y-139315000D01*
X116581000Y-131314000D02*
X116581000Y-134210000D01*
X119261000Y-133605000D02*
X119261000Y-136895000D01*
X116301000Y-131248000D02*
X116301000Y-134210000D01*
X115740000Y-131176000D02*
X115740000Y-134210000D01*
X117421000Y-131644000D02*
X117421000Y-134210000D01*
X117421000Y-136290000D02*
X117421000Y-138856000D01*
X118741000Y-132745000D02*
X118741000Y-137755000D01*
X116341000Y-131256000D02*
X116341000Y-134210000D01*
X117381000Y-136290000D02*
X117381000Y-138877000D01*
X117181000Y-136290000D02*
X117181000Y-138972000D01*
X118261000Y-132231000D02*
X118261000Y-138269000D01*
X117461000Y-131666000D02*
X117461000Y-134210000D01*
X117501000Y-131688000D02*
X117501000Y-134210000D01*
X115660000Y-131173000D02*
X115660000Y-139327000D01*
X116421000Y-136290000D02*
X116421000Y-139226000D01*
X116901000Y-136290000D02*
X116901000Y-139085000D01*
X116781000Y-131373000D02*
X116781000Y-134210000D01*
X116140000Y-131220000D02*
X116140000Y-134210000D01*
X118101000Y-132094000D02*
X118101000Y-138406000D01*
X116501000Y-136290000D02*
X116501000Y-139207000D01*
X116100000Y-136290000D02*
X116100000Y-139287000D01*
X115940000Y-136290000D02*
X115940000Y-139307000D01*
X119301000Y-133698000D02*
X119301000Y-136802000D01*
X116301000Y-136290000D02*
X116301000Y-139252000D01*
X118021000Y-132030000D02*
X118021000Y-138470000D01*
X115780000Y-136290000D02*
X115780000Y-139321000D01*
X119141000Y-133360000D02*
X119141000Y-137140000D01*
X115980000Y-131198000D02*
X115980000Y-134210000D01*
X118541000Y-132509000D02*
X118541000Y-137991000D01*
X118461000Y-132424000D02*
X118461000Y-138076000D01*
X117661000Y-131781000D02*
X117661000Y-134210000D01*
X119341000Y-133797000D02*
X119341000Y-136703000D01*
X117941000Y-131970000D02*
X117941000Y-138530000D01*
X118221000Y-132195000D02*
X118221000Y-138305000D01*
X119381000Y-133904000D02*
X119381000Y-136596000D01*
X118181000Y-132160000D02*
X118181000Y-138340000D01*
X117181000Y-131528000D02*
X117181000Y-134210000D01*
X116381000Y-131265000D02*
X116381000Y-134210000D01*
X117101000Y-131493000D02*
X117101000Y-134210000D01*
X115780000Y-131179000D02*
X115780000Y-134210000D01*
X119501000Y-134302000D02*
X119501000Y-136198000D01*
X116261000Y-131240000D02*
X116261000Y-134210000D01*
X116661000Y-131336000D02*
X116661000Y-134210000D01*
X116221000Y-136290000D02*
X116221000Y-139267000D01*
X116060000Y-131208000D02*
X116060000Y-134210000D01*
X115540000Y-131170000D02*
X115540000Y-139330000D01*
X117501000Y-136290000D02*
X117501000Y-138812000D01*
X115740000Y-136290000D02*
X115740000Y-139324000D01*
X118141000Y-132126000D02*
X118141000Y-138374000D01*
X117021000Y-131460000D02*
X117021000Y-134210000D01*
X117661000Y-136290000D02*
X117661000Y-138719000D01*
X118621000Y-132599000D02*
X118621000Y-137901000D01*
X115500000Y-131170000D02*
X115500000Y-139330000D01*
X116941000Y-131429000D02*
X116941000Y-134210000D01*
X117581000Y-136290000D02*
X117581000Y-138767000D01*
X115980000Y-136290000D02*
X115980000Y-139302000D01*
X117821000Y-131885000D02*
X117821000Y-138615000D01*
X116461000Y-136290000D02*
X116461000Y-139217000D01*
X117221000Y-131546000D02*
X117221000Y-134210000D01*
X116060000Y-136290000D02*
X116060000Y-139292000D01*
X117861000Y-131912000D02*
X117861000Y-138588000D01*
X115700000Y-131174000D02*
X115700000Y-139326000D01*
X117341000Y-131603000D02*
X117341000Y-134210000D01*
X117901000Y-131941000D02*
X117901000Y-138559000D01*
X116621000Y-136290000D02*
X116621000Y-139175000D01*
X116821000Y-131387000D02*
X116821000Y-134210000D01*
X118661000Y-132646000D02*
X118661000Y-137854000D01*
X116221000Y-131233000D02*
X116221000Y-134210000D01*
X117701000Y-136290000D02*
X117701000Y-138694000D01*
X116701000Y-136290000D02*
X116701000Y-139152000D01*
X118061000Y-132061000D02*
X118061000Y-138439000D01*
X116981000Y-136290000D02*
X116981000Y-139055000D01*
X115820000Y-131182000D02*
X115820000Y-134210000D01*
X119021000Y-133148000D02*
X119021000Y-137352000D01*
X117621000Y-136290000D02*
X117621000Y-138743000D01*
X117261000Y-131564000D02*
X117261000Y-134210000D01*
X115940000Y-131193000D02*
X115940000Y-134210000D01*
X116781000Y-136290000D02*
X116781000Y-139127000D01*
X116180000Y-131226000D02*
X116180000Y-134210000D01*
X119061000Y-133216000D02*
X119061000Y-137284000D01*
X117581000Y-131733000D02*
X117581000Y-134210000D01*
X115900000Y-131189000D02*
X115900000Y-134210000D01*
X117101000Y-136290000D02*
X117101000Y-139007000D01*
X117341000Y-136290000D02*
X117341000Y-138897000D01*
X119581000Y-134717000D02*
X119581000Y-135783000D01*
X116941000Y-136290000D02*
X116941000Y-139071000D01*
X117381000Y-131623000D02*
X117381000Y-134210000D01*
X117981000Y-132000000D02*
X117981000Y-138500000D01*
X116100000Y-131213000D02*
X116100000Y-134210000D01*
X116741000Y-136290000D02*
X116741000Y-139139000D01*
X117221000Y-136290000D02*
X117221000Y-138954000D01*
X118861000Y-132905000D02*
X118861000Y-137595000D01*
X117061000Y-131476000D02*
X117061000Y-134210000D01*
X118381000Y-132343000D02*
X118381000Y-138157000D01*
X118581000Y-132553000D02*
X118581000Y-137947000D01*
X116541000Y-136290000D02*
X116541000Y-139197000D01*
X117461000Y-136290000D02*
X117461000Y-138834000D01*
X116381000Y-136290000D02*
X116381000Y-139235000D01*
X115860000Y-131185000D02*
X115860000Y-134210000D01*
X119101000Y-133286000D02*
X119101000Y-137214000D01*
X116621000Y-131325000D02*
X116621000Y-134210000D01*
X116741000Y-131361000D02*
X116741000Y-134210000D01*
X118341000Y-132305000D02*
X118341000Y-138195000D01*
X117781000Y-136290000D02*
X117781000Y-138642000D01*
X118701000Y-132694000D02*
X118701000Y-137806000D01*
X117301000Y-131584000D02*
X117301000Y-134210000D01*
X117141000Y-131510000D02*
X117141000Y-134210000D01*
X116701000Y-131348000D02*
X116701000Y-134210000D01*
X115820000Y-136290000D02*
X115820000Y-139318000D01*
X116341000Y-136290000D02*
X116341000Y-139244000D01*
X116421000Y-131274000D02*
X116421000Y-134210000D01*
X116020000Y-136290000D02*
X116020000Y-139298000D01*
X116861000Y-136290000D02*
X116861000Y-139100000D01*
X118941000Y-133022000D02*
X118941000Y-137478000D01*
X116020000Y-131202000D02*
X116020000Y-134210000D01*
X117141000Y-136290000D02*
X117141000Y-138990000D01*
X116821000Y-136290000D02*
X116821000Y-139113000D01*
X116461000Y-131283000D02*
X116461000Y-134210000D01*
X116661000Y-136290000D02*
X116661000Y-139164000D01*
X117261000Y-136290000D02*
X117261000Y-138936000D01*
X119461000Y-134152000D02*
X119461000Y-136348000D01*
X117781000Y-131858000D02*
X117781000Y-134210000D01*
X119181000Y-133437000D02*
X119181000Y-137063000D01*
X111090302Y-132935000D02*
X111890302Y-132935000D01*
X117621000Y-131757000D02*
X117621000Y-134210000D01*
X115620000Y-131171000D02*
X115620000Y-139329000D01*
X117541000Y-136290000D02*
X117541000Y-138790000D01*
X117741000Y-136290000D02*
X117741000Y-138668000D01*
X115900000Y-136290000D02*
X115900000Y-139311000D01*
X117301000Y-136290000D02*
X117301000Y-138916000D01*
X116140000Y-136290000D02*
X116140000Y-139280000D01*
X115580000Y-131170000D02*
X115580000Y-139330000D01*
X116581000Y-136290000D02*
X116581000Y-139186000D01*
X118421000Y-132383000D02*
X118421000Y-138117000D01*
X118501000Y-132466000D02*
X118501000Y-138034000D01*
X116541000Y-131303000D02*
X116541000Y-134210000D01*
X118821000Y-132850000D02*
X118821000Y-137650000D01*
X117061000Y-136290000D02*
X117061000Y-139024000D01*
X116180000Y-136290000D02*
X116180000Y-139274000D01*
X117741000Y-131832000D02*
X117741000Y-134210000D01*
X119221000Y-133519000D02*
X119221000Y-136981000D01*
X117021000Y-136290000D02*
X117021000Y-139040000D01*
X119620000Y-135250000D02*
G75*
G03*
X119620000Y-135250000I-4120000J0D01*
G01*
%TO.C,C6*%
X119541000Y-144232000D02*
X119541000Y-145768000D01*
X111490302Y-142285000D02*
X111490302Y-143085000D01*
X119421000Y-143771000D02*
X119421000Y-146229000D01*
X116501000Y-141043000D02*
X116501000Y-143960000D01*
X117541000Y-141460000D02*
X117541000Y-143960000D01*
X116901000Y-141165000D02*
X116901000Y-143960000D01*
X118301000Y-142017000D02*
X118301000Y-147983000D01*
X116261000Y-146040000D02*
X116261000Y-149010000D01*
X116861000Y-141150000D02*
X116861000Y-143960000D01*
X116981000Y-141195000D02*
X116981000Y-143960000D01*
X118781000Y-142546000D02*
X118781000Y-147454000D01*
X118901000Y-142713000D02*
X118901000Y-147287000D01*
X118981000Y-142834000D02*
X118981000Y-147166000D01*
X117701000Y-141556000D02*
X117701000Y-143960000D01*
X115860000Y-146040000D02*
X115860000Y-149065000D01*
X116581000Y-141064000D02*
X116581000Y-143960000D01*
X119261000Y-143355000D02*
X119261000Y-146645000D01*
X116301000Y-140998000D02*
X116301000Y-143960000D01*
X115740000Y-140926000D02*
X115740000Y-143960000D01*
X117421000Y-141394000D02*
X117421000Y-143960000D01*
X117421000Y-146040000D02*
X117421000Y-148606000D01*
X118741000Y-142495000D02*
X118741000Y-147505000D01*
X116341000Y-141006000D02*
X116341000Y-143960000D01*
X117381000Y-146040000D02*
X117381000Y-148627000D01*
X117181000Y-146040000D02*
X117181000Y-148722000D01*
X118261000Y-141981000D02*
X118261000Y-148019000D01*
X117461000Y-141416000D02*
X117461000Y-143960000D01*
X117501000Y-141438000D02*
X117501000Y-143960000D01*
X115660000Y-140923000D02*
X115660000Y-149077000D01*
X116421000Y-146040000D02*
X116421000Y-148976000D01*
X116901000Y-146040000D02*
X116901000Y-148835000D01*
X116781000Y-141123000D02*
X116781000Y-143960000D01*
X116140000Y-140970000D02*
X116140000Y-143960000D01*
X118101000Y-141844000D02*
X118101000Y-148156000D01*
X116501000Y-146040000D02*
X116501000Y-148957000D01*
X116100000Y-146040000D02*
X116100000Y-149037000D01*
X115940000Y-146040000D02*
X115940000Y-149057000D01*
X119301000Y-143448000D02*
X119301000Y-146552000D01*
X116301000Y-146040000D02*
X116301000Y-149002000D01*
X118021000Y-141780000D02*
X118021000Y-148220000D01*
X115780000Y-146040000D02*
X115780000Y-149071000D01*
X119141000Y-143110000D02*
X119141000Y-146890000D01*
X115980000Y-140948000D02*
X115980000Y-143960000D01*
X118541000Y-142259000D02*
X118541000Y-147741000D01*
X118461000Y-142174000D02*
X118461000Y-147826000D01*
X117661000Y-141531000D02*
X117661000Y-143960000D01*
X119341000Y-143547000D02*
X119341000Y-146453000D01*
X117941000Y-141720000D02*
X117941000Y-148280000D01*
X118221000Y-141945000D02*
X118221000Y-148055000D01*
X119381000Y-143654000D02*
X119381000Y-146346000D01*
X118181000Y-141910000D02*
X118181000Y-148090000D01*
X117181000Y-141278000D02*
X117181000Y-143960000D01*
X116381000Y-141015000D02*
X116381000Y-143960000D01*
X117101000Y-141243000D02*
X117101000Y-143960000D01*
X115780000Y-140929000D02*
X115780000Y-143960000D01*
X119501000Y-144052000D02*
X119501000Y-145948000D01*
X116261000Y-140990000D02*
X116261000Y-143960000D01*
X116661000Y-141086000D02*
X116661000Y-143960000D01*
X116221000Y-146040000D02*
X116221000Y-149017000D01*
X116060000Y-140958000D02*
X116060000Y-143960000D01*
X115540000Y-140920000D02*
X115540000Y-149080000D01*
X117501000Y-146040000D02*
X117501000Y-148562000D01*
X115740000Y-146040000D02*
X115740000Y-149074000D01*
X118141000Y-141876000D02*
X118141000Y-148124000D01*
X117021000Y-141210000D02*
X117021000Y-143960000D01*
X117661000Y-146040000D02*
X117661000Y-148469000D01*
X118621000Y-142349000D02*
X118621000Y-147651000D01*
X115500000Y-140920000D02*
X115500000Y-149080000D01*
X116941000Y-141179000D02*
X116941000Y-143960000D01*
X117581000Y-146040000D02*
X117581000Y-148517000D01*
X115980000Y-146040000D02*
X115980000Y-149052000D01*
X117821000Y-141635000D02*
X117821000Y-148365000D01*
X116461000Y-146040000D02*
X116461000Y-148967000D01*
X117221000Y-141296000D02*
X117221000Y-143960000D01*
X116060000Y-146040000D02*
X116060000Y-149042000D01*
X117861000Y-141662000D02*
X117861000Y-148338000D01*
X115700000Y-140924000D02*
X115700000Y-149076000D01*
X117341000Y-141353000D02*
X117341000Y-143960000D01*
X117901000Y-141691000D02*
X117901000Y-148309000D01*
X116621000Y-146040000D02*
X116621000Y-148925000D01*
X116821000Y-141137000D02*
X116821000Y-143960000D01*
X118661000Y-142396000D02*
X118661000Y-147604000D01*
X116221000Y-140983000D02*
X116221000Y-143960000D01*
X117701000Y-146040000D02*
X117701000Y-148444000D01*
X116701000Y-146040000D02*
X116701000Y-148902000D01*
X118061000Y-141811000D02*
X118061000Y-148189000D01*
X116981000Y-146040000D02*
X116981000Y-148805000D01*
X115820000Y-140932000D02*
X115820000Y-143960000D01*
X119021000Y-142898000D02*
X119021000Y-147102000D01*
X117621000Y-146040000D02*
X117621000Y-148493000D01*
X117261000Y-141314000D02*
X117261000Y-143960000D01*
X115940000Y-140943000D02*
X115940000Y-143960000D01*
X116781000Y-146040000D02*
X116781000Y-148877000D01*
X116180000Y-140976000D02*
X116180000Y-143960000D01*
X119061000Y-142966000D02*
X119061000Y-147034000D01*
X117581000Y-141483000D02*
X117581000Y-143960000D01*
X115900000Y-140939000D02*
X115900000Y-143960000D01*
X117101000Y-146040000D02*
X117101000Y-148757000D01*
X117341000Y-146040000D02*
X117341000Y-148647000D01*
X119581000Y-144467000D02*
X119581000Y-145533000D01*
X116941000Y-146040000D02*
X116941000Y-148821000D01*
X117381000Y-141373000D02*
X117381000Y-143960000D01*
X117981000Y-141750000D02*
X117981000Y-148250000D01*
X116100000Y-140963000D02*
X116100000Y-143960000D01*
X116741000Y-146040000D02*
X116741000Y-148889000D01*
X117221000Y-146040000D02*
X117221000Y-148704000D01*
X118861000Y-142655000D02*
X118861000Y-147345000D01*
X117061000Y-141226000D02*
X117061000Y-143960000D01*
X118381000Y-142093000D02*
X118381000Y-147907000D01*
X118581000Y-142303000D02*
X118581000Y-147697000D01*
X116541000Y-146040000D02*
X116541000Y-148947000D01*
X117461000Y-146040000D02*
X117461000Y-148584000D01*
X116381000Y-146040000D02*
X116381000Y-148985000D01*
X115860000Y-140935000D02*
X115860000Y-143960000D01*
X119101000Y-143036000D02*
X119101000Y-146964000D01*
X116621000Y-141075000D02*
X116621000Y-143960000D01*
X116741000Y-141111000D02*
X116741000Y-143960000D01*
X118341000Y-142055000D02*
X118341000Y-147945000D01*
X117781000Y-146040000D02*
X117781000Y-148392000D01*
X118701000Y-142444000D02*
X118701000Y-147556000D01*
X117301000Y-141334000D02*
X117301000Y-143960000D01*
X117141000Y-141260000D02*
X117141000Y-143960000D01*
X116701000Y-141098000D02*
X116701000Y-143960000D01*
X115820000Y-146040000D02*
X115820000Y-149068000D01*
X116341000Y-146040000D02*
X116341000Y-148994000D01*
X116421000Y-141024000D02*
X116421000Y-143960000D01*
X116020000Y-146040000D02*
X116020000Y-149048000D01*
X116861000Y-146040000D02*
X116861000Y-148850000D01*
X118941000Y-142772000D02*
X118941000Y-147228000D01*
X116020000Y-140952000D02*
X116020000Y-143960000D01*
X117141000Y-146040000D02*
X117141000Y-148740000D01*
X116821000Y-146040000D02*
X116821000Y-148863000D01*
X116461000Y-141033000D02*
X116461000Y-143960000D01*
X116661000Y-146040000D02*
X116661000Y-148914000D01*
X117261000Y-146040000D02*
X117261000Y-148686000D01*
X119461000Y-143902000D02*
X119461000Y-146098000D01*
X117781000Y-141608000D02*
X117781000Y-143960000D01*
X119181000Y-143187000D02*
X119181000Y-146813000D01*
X111090302Y-142685000D02*
X111890302Y-142685000D01*
X117621000Y-141507000D02*
X117621000Y-143960000D01*
X115620000Y-140921000D02*
X115620000Y-149079000D01*
X117541000Y-146040000D02*
X117541000Y-148540000D01*
X117741000Y-146040000D02*
X117741000Y-148418000D01*
X115900000Y-146040000D02*
X115900000Y-149061000D01*
X117301000Y-146040000D02*
X117301000Y-148666000D01*
X116140000Y-146040000D02*
X116140000Y-149030000D01*
X115580000Y-140920000D02*
X115580000Y-149080000D01*
X116581000Y-146040000D02*
X116581000Y-148936000D01*
X118421000Y-142133000D02*
X118421000Y-147867000D01*
X118501000Y-142216000D02*
X118501000Y-147784000D01*
X116541000Y-141053000D02*
X116541000Y-143960000D01*
X118821000Y-142600000D02*
X118821000Y-147400000D01*
X117061000Y-146040000D02*
X117061000Y-148774000D01*
X116180000Y-146040000D02*
X116180000Y-149024000D01*
X117741000Y-141582000D02*
X117741000Y-143960000D01*
X119221000Y-143269000D02*
X119221000Y-146731000D01*
X117021000Y-146040000D02*
X117021000Y-148790000D01*
X119620000Y-145000000D02*
G75*
G03*
X119620000Y-145000000I-4120000J0D01*
G01*
%TO.C,J5*%
X137640000Y-115790000D02*
X137640000Y-119810000D01*
X150360000Y-115790000D02*
X137640000Y-115790000D01*
X150360000Y-118310000D02*
X149360000Y-118310000D01*
X149860000Y-116290000D02*
X149860000Y-117500000D01*
X137640000Y-118310000D02*
X138640000Y-118310000D01*
X138140000Y-117500000D02*
X138140000Y-116290000D01*
X149360000Y-118310000D02*
X149360000Y-119810000D01*
X149860000Y-117500000D02*
X150360000Y-117500000D01*
X138140000Y-116290000D02*
X149860000Y-116290000D01*
X138640000Y-118310000D02*
X138640000Y-119810000D01*
X150360000Y-119810000D02*
X150360000Y-115790000D01*
X137640000Y-117500000D02*
X138140000Y-117500000D01*
X137340000Y-117610000D02*
X137340000Y-120110000D01*
X137640000Y-119810000D02*
X150360000Y-119810000D01*
X137340000Y-120110000D02*
X139840000Y-120110000D01*
%TO.C,JP1*%
X57000000Y-150550000D02*
X55000000Y-150550000D01*
X55000000Y-146450000D02*
X57000000Y-146450000D01*
X55000000Y-150550000D02*
X55000000Y-146450000D01*
X57000000Y-146450000D02*
X57000000Y-150550000D01*
%TO.C,R2*%
X137040000Y-134540000D02*
X137370000Y-134540000D01*
X137370000Y-134540000D02*
X137370000Y-141080000D01*
X137370000Y-141080000D02*
X137040000Y-141080000D01*
X134630000Y-141080000D02*
X134960000Y-141080000D01*
X134630000Y-134540000D02*
X134630000Y-141080000D01*
X134960000Y-134540000D02*
X134630000Y-134540000D01*
%TO.C,R1*%
X51500000Y-147300000D02*
X51500000Y-146680000D01*
X52420000Y-148220000D02*
G75*
G03*
X52420000Y-148220000I-920000J0D01*
G01*
%TO.C,D1*%
X121880000Y-141200000D02*
X124120000Y-141200000D01*
X124120000Y-141200000D02*
X124120000Y-136960000D01*
X123000000Y-143120000D02*
X123000000Y-141200000D01*
X124120000Y-137680000D02*
X121880000Y-137680000D01*
X124120000Y-137800000D02*
X121880000Y-137800000D01*
X121880000Y-136960000D02*
X121880000Y-141200000D01*
X124120000Y-136960000D02*
X121880000Y-136960000D01*
X124120000Y-137560000D02*
X121880000Y-137560000D01*
X123000000Y-135040000D02*
X123000000Y-136960000D01*
%TO.C,J1*%
X69730000Y-118070000D02*
X69730000Y-116760000D01*
X36420000Y-123580000D02*
X42920000Y-123580000D01*
X42920000Y-116760000D02*
X100640000Y-116760000D01*
X100640000Y-118960000D02*
X107140000Y-118960000D01*
X89060000Y-115370000D02*
X89560000Y-116370000D01*
X107140000Y-123580000D02*
X100640000Y-123580000D01*
X69730000Y-118070000D02*
X69730000Y-118070000D01*
X93480000Y-124470000D02*
X50080000Y-124470000D01*
X90060000Y-115370000D02*
X89060000Y-115370000D01*
X50080000Y-124470000D02*
X50080000Y-118070000D01*
X107140000Y-118960000D02*
X107140000Y-123580000D01*
X73830000Y-116760000D02*
X73830000Y-118070000D01*
X42920000Y-125780000D02*
X42920000Y-116760000D01*
X93480000Y-118070000D02*
X93480000Y-124470000D01*
X36420000Y-118960000D02*
X36420000Y-123580000D01*
X100640000Y-125780000D02*
X42920000Y-125780000D01*
X50080000Y-118070000D02*
X69730000Y-118070000D01*
X73830000Y-118070000D02*
X93480000Y-118070000D01*
X42920000Y-118960000D02*
X36420000Y-118960000D01*
X100640000Y-116760000D02*
X100640000Y-125780000D01*
X89560000Y-116370000D02*
X90060000Y-115370000D01*
%TO.C,U2*%
X117150000Y-162620000D02*
X117150000Y-152380000D01*
X133040000Y-157500000D02*
X135580000Y-157500000D01*
X133040000Y-162620000D02*
X133040000Y-152380000D01*
X117150000Y-152380000D02*
X133040000Y-152380000D01*
X133040000Y-154960000D02*
X135580000Y-154960000D01*
X133040000Y-160040000D02*
X135580000Y-160040000D01*
X117150000Y-162620000D02*
X133040000Y-162620000D01*
%TO.C,J3*%
X51200000Y-164542500D02*
X51200000Y-163232500D01*
X44260000Y-156732500D02*
X62240000Y-156732500D01*
X42960000Y-164542500D02*
X42960000Y-155422500D01*
X48670000Y-165932500D02*
X48170000Y-164932500D01*
X51200000Y-163232500D02*
X44260000Y-163232500D01*
X48170000Y-164932500D02*
X47670000Y-165932500D01*
X55300000Y-163232500D02*
X55300000Y-164542500D01*
X42960000Y-155422500D02*
X63540000Y-155422500D01*
X47670000Y-165932500D02*
X48670000Y-165932500D01*
X62240000Y-156732500D02*
X62240000Y-163232500D01*
X62240000Y-163232500D02*
X55300000Y-163232500D01*
X63540000Y-155422500D02*
X63540000Y-164542500D01*
X44260000Y-163232500D02*
X44260000Y-156732500D01*
X55300000Y-163232500D02*
X55300000Y-163232500D01*
X63540000Y-164542500D02*
X42960000Y-164542500D01*
%TO.C,C4*%
X47380000Y-135380000D02*
X49620000Y-135380000D01*
X49620000Y-142620000D02*
X49620000Y-135380000D01*
X47380000Y-142620000D02*
X47380000Y-135380000D01*
X47380000Y-142620000D02*
X49620000Y-142620000D01*
%TO.C,RN1*%
X65310000Y-131650000D02*
X88510000Y-131650000D01*
X88510000Y-128850000D02*
X65310000Y-128850000D01*
X88510000Y-131650000D02*
X88510000Y-128850000D01*
X68020000Y-128850000D02*
X68020000Y-131650000D01*
X65310000Y-128850000D02*
X65310000Y-131650000D01*
%TO.C,C5*%
X130630000Y-163380000D02*
X130630000Y-165620000D01*
X130630000Y-163380000D02*
X137870000Y-163380000D01*
X130630000Y-165620000D02*
X137870000Y-165620000D01*
X137870000Y-163380000D02*
X137870000Y-165620000D01*
%TO.C,Y1*%
X76125000Y-150525000D02*
X69875000Y-150525000D01*
X76125000Y-145475000D02*
X69875000Y-145475000D01*
X69875000Y-145475000D02*
G75*
G03*
X69875000Y-150525000I0J-2525000D01*
G01*
X76125000Y-150525000D02*
G75*
G03*
X76125000Y-145475000I0J2525000D01*
G01*
%TO.C,J4*%
X152530000Y-165990000D02*
X143510000Y-165990000D01*
X144820000Y-140830000D02*
X151220000Y-140830000D01*
X144820000Y-158830000D02*
X144820000Y-151880000D01*
X142120000Y-144250000D02*
X142120000Y-145250000D01*
X142120000Y-145250000D02*
X143120000Y-144750000D01*
X143120000Y-144750000D02*
X142120000Y-144250000D01*
X151220000Y-158830000D02*
X144820000Y-158830000D01*
X143510000Y-165990000D02*
X143510000Y-133670000D01*
X143510000Y-133670000D02*
X152530000Y-133670000D01*
X144820000Y-151880000D02*
X144820000Y-151880000D01*
X143510000Y-147780000D02*
X144820000Y-147780000D01*
X152530000Y-133670000D02*
X152530000Y-165990000D01*
X151220000Y-140830000D02*
X151220000Y-158830000D01*
X144820000Y-147780000D02*
X144820000Y-140830000D01*
X144820000Y-151880000D02*
X143510000Y-151880000D01*
%TO.C,J2*%
X121390000Y-130637500D02*
X121390000Y-126887500D01*
X133610000Y-130637500D02*
X133610000Y-126887500D01*
X133610000Y-130637500D02*
X121390000Y-130637500D01*
X125750000Y-131337500D02*
X126750000Y-131337500D01*
X121390000Y-114017500D02*
X121390000Y-121987500D01*
X126750000Y-131337500D02*
X126250000Y-130837500D01*
X133610000Y-114017500D02*
X133610000Y-121987500D01*
X133610000Y-114017500D02*
X121390000Y-114017500D01*
X126250000Y-130837500D02*
X125750000Y-131337500D01*
%TO.C,R3*%
X134370000Y-141080000D02*
X134040000Y-141080000D01*
X131630000Y-141080000D02*
X131960000Y-141080000D01*
X131630000Y-134540000D02*
X131630000Y-141080000D01*
X134370000Y-134540000D02*
X134370000Y-141080000D01*
X134040000Y-134540000D02*
X134370000Y-134540000D01*
X131960000Y-134540000D02*
X131630000Y-134540000D01*
%TO.C,C2*%
X69380000Y-158370000D02*
X71620000Y-158370000D01*
X71620000Y-158370000D02*
X71620000Y-151130000D01*
X69380000Y-158370000D02*
X69380000Y-151130000D01*
X69380000Y-151130000D02*
X71620000Y-151130000D01*
%TO.C,U3*%
X97520000Y-131795000D02*
X97520000Y-152235000D01*
X103990000Y-131795000D02*
X101755000Y-131795000D01*
X99755000Y-131795000D02*
X97520000Y-131795000D01*
X97520000Y-152235000D02*
X103990000Y-152235000D01*
X103990000Y-152235000D02*
X103990000Y-131795000D01*
X99755000Y-131795000D02*
G75*
G03*
X101755000Y-131795000I1000000J0D01*
G01*
%TO.C,C3*%
X76620000Y-158370000D02*
X76620000Y-151130000D01*
X74380000Y-158370000D02*
X74380000Y-151130000D01*
X74380000Y-158370000D02*
X76620000Y-158370000D01*
X74380000Y-151130000D02*
X76620000Y-151130000D01*
%TO.C,C1*%
X104370000Y-129130000D02*
X97130000Y-129130000D01*
X104370000Y-131370000D02*
X97130000Y-131370000D01*
X97130000Y-131370000D02*
X97130000Y-129130000D01*
X104370000Y-131370000D02*
X104370000Y-129130000D01*
%TO.C,R4*%
X128630000Y-141080000D02*
X128960000Y-141080000D01*
X128630000Y-134540000D02*
X128630000Y-141080000D01*
X131040000Y-134540000D02*
X131370000Y-134540000D01*
X131370000Y-141080000D02*
X131040000Y-141080000D01*
X128960000Y-134540000D02*
X128630000Y-134540000D01*
X131370000Y-134540000D02*
X131370000Y-141080000D01*
%TO.C,D2*%
X127120000Y-141200000D02*
X127120000Y-136960000D01*
X126000000Y-143120000D02*
X126000000Y-141200000D01*
X124880000Y-141200000D02*
X127120000Y-141200000D01*
X127120000Y-136960000D02*
X124880000Y-136960000D01*
X124880000Y-136960000D02*
X124880000Y-141200000D01*
X127120000Y-137560000D02*
X124880000Y-137560000D01*
X127120000Y-137680000D02*
X124880000Y-137680000D01*
X126000000Y-135040000D02*
X126000000Y-136960000D01*
X127120000Y-137800000D02*
X124880000Y-137800000D01*
%TO.C,U1*%
X50130000Y-140015000D02*
X50130000Y-141265000D01*
X85810000Y-141265000D02*
X85810000Y-136765000D01*
X85810000Y-136765000D02*
X50130000Y-136765000D01*
X50130000Y-141265000D02*
X85810000Y-141265000D01*
X50130000Y-136765000D02*
X50130000Y-138015000D01*
X50130000Y-140015000D02*
G75*
G03*
X50130000Y-138015000I0J1000000D01*
G01*
%TD*%
M02*
