M48
; DRILL file {KiCad 7.0.5} date Mon Jul  3 18:55:40 2023
; FORMAT={-:-/ absolute / inch / decimal}
; #@! TF.CreationDate,2023-07-03T18:55:40+02:00
; #@! TF.GenerationSoftware,Kicad,Pcbnew,7.0.5
; #@! TF.FileFunction,Plated,1,2,PTH
FMAT,2
INCH
; #@! TA.AperFunction,Plated,PTH,ViaDrill
T1C0.0157
; #@! TA.AperFunction,Plated,PTH,ComponentDrill
T2C0.0276
; #@! TA.AperFunction,Plated,PTH,ComponentDrill
T3C0.0315
; #@! TA.AperFunction,Plated,PTH,ComponentDrill
T4C0.0374
; #@! TA.AperFunction,Plated,PTH,ComponentDrill
T5C0.0394
; #@! TA.AperFunction,Plated,PTH,ComponentDrill
T6C0.0433
; #@! TA.AperFunction,Plated,PTH,ComponentDrill
T7C0.0906
; #@! TA.AperFunction,Plated,PTH,ComponentDrill
T8C0.1260
%
G90
G05
T1
X1.43Y-2.26
X1.43Y-2.98
X1.53Y-2.78
X1.53Y-2.28
X1.63Y-2.2985
X1.63Y-2.7561
X1.73Y-2.7384
X1.75Y-2.3162
X1.83Y-2.1844
X1.83Y-2.2415
X1.83Y-2.7738
X1.8331Y-3.7431
X1.88Y-2.9636
X2.01Y-3.44
X2.03Y-3.797
X2.1005Y-3.4685
X2.18Y-3.4862
X2.2015Y-3.74
X2.2028Y-2.4
X2.2028Y-2.88
X2.54Y-3.58
X2.5572Y-3.7485
X2.5869Y-3.5324
X2.6159Y-3.5059
X2.65Y-3.4862
X2.68Y-3.41
X2.7Y-3.563
X2.73Y-3.44
X2.7567Y-2.7207
X2.7941Y-2.7384
X2.7969Y-2.9183
X2.8272Y-2.9435
X2.8328Y-2.7561
X2.87Y-2.9459
X2.8738Y-2.7501
X2.8915Y-2.7861
X2.9156Y-2.5009
X2.92Y-2.2985
X2.92Y-2.54
X2.92Y-2.82
X2.95Y-2.57
X2.95Y-2.6094
X2.9762Y-2.3173
X2.9859Y-2.5502
X3.04Y-2.27
X3.14Y-3.76
X3.33Y-3.6462
X3.4268Y-3.6285
X3.88Y-2.93
X3.93Y-2.36
X3.93Y-3.21
X3.97Y-3.19
X4.07Y-3.2185
X4.08Y-2.33
X4.12Y-2.93
X4.12Y-3.19
X4.13Y-2.33
X4.1738Y-3.2438
X4.19Y-2.12
X4.27Y-3.15
X4.2706Y-3.2588
X4.3325Y-1.88
X4.38Y-3.1785
X4.3895Y-2.05
X4.47Y-1.66
X4.48Y-3.1962
X4.6Y-3.2765
X4.61Y-1.66
X4.61Y-2.34
X4.6306Y-2.3773
X4.6306Y-2.73
X4.6306Y-3.13
X4.6315Y-2.22
X4.6395Y-3.2018
X4.6483Y-2.7676
X4.6485Y-2.42
X4.6504Y-3.164
X4.6822Y-2.1401
X4.92Y-2.8511
X4.92Y-3.06
X4.92Y-3.25
X4.92Y-3.5
X5.4685Y-1.84
X5.4862Y-1.8783
X5.5438Y-2.0842
X5.56Y-3.4685
X5.5615Y-2.0478
X5.5615Y-2.8796
X5.5615Y-2.98
X5.59Y-2.02
X5.6Y-3.07
X5.61Y-3.22
X5.73Y-1.8685
X5.86Y-2.53
X5.94Y-1.59
X5.96Y-2.85
T2
X1.3Y-3.562
X1.3Y-3.662
X4.79Y-3.3
X4.79Y-3.4
T3
X1.2992Y-2.0866
X1.2992Y-2.2835
X1.2992Y-2.5591
X1.2992Y-2.7559
X1.43Y-2.0866
X1.43Y-2.3866
X1.43Y-2.58
X1.43Y-2.88
X1.43Y-3.36
X1.43Y-3.66
X1.53Y-2.0866
X1.53Y-2.3866
X1.53Y-2.58
X1.53Y-2.88
X1.53Y-3.36
X1.53Y-3.66
X1.63Y-2.0866
X1.63Y-2.3866
X1.63Y-2.58
X1.63Y-2.88
X1.63Y-3.36
X1.63Y-3.66
X1.73Y-2.0866
X1.73Y-2.3866
X1.73Y-2.58
X1.73Y-2.88
X1.73Y-3.36
X1.73Y-3.66
X1.83Y-2.0866
X1.83Y-2.3866
X1.83Y-2.58
X1.83Y-2.88
X1.83Y-3.36
X1.83Y-3.66
X1.92Y-4.4
X1.92Y-4.49
X1.9291Y-3.79
X1.9291Y-4.09
X1.93Y-2.0866
X1.93Y-2.3866
X1.93Y-2.58
X1.93Y-2.88
X1.93Y-3.36
X1.93Y-3.66
X2.03Y-2.0866
X2.03Y-2.3866
X2.03Y-2.58
X2.03Y-2.88
X2.03Y-3.24
X2.03Y-3.36
X2.03Y-3.66
X2.03Y-4.18
X2.03Y-4.3
X2.0416Y-4.03
X2.13Y-2.0866
X2.13Y-2.3866
X2.13Y-2.58
X2.13Y-2.88
X2.13Y-3.36
X2.13Y-3.66
X2.187Y-3.8583
X2.2269Y-3.24
X2.23Y-3.36
X2.23Y-3.66
X2.2384Y-4.03
X2.32Y-4.4
X2.32Y-4.49
X2.33Y-3.36
X2.33Y-3.66
X2.33Y-4.18
X2.33Y-4.3
X2.3316Y-4.03
X2.3799Y-3.8583
X2.4213Y-1.7066
X2.4213Y-1.805
X2.43Y-3.36
X2.43Y-3.66
X2.5284Y-4.03
X2.53Y-3.36
X2.53Y-3.66
X2.63Y-3.36
X2.63Y-3.66
X2.73Y-3.36
X2.73Y-3.66
X3.8706Y-3.38
X3.88Y-1.6716
X3.88Y-1.8684
X3.9546Y-3.71
X3.9706Y-3.38
X4.0094Y-1.5602
X4.0094Y-1.9602
X4.053Y-3.71
X4.0706Y-3.38
X4.1094Y-1.5602
X4.1094Y-1.9602
X4.1706Y-3.38
X4.2094Y-1.5602
X4.2094Y-1.9602
X4.2706Y-3.38
X4.3094Y-1.5602
X4.3094Y-1.9602
X4.31Y-3.6016
X4.31Y-3.7984
X4.3706Y-3.38
X4.4094Y-1.5602
X4.4094Y-1.9602
X4.4706Y-3.38
X4.5094Y-1.5602
X4.5094Y-1.9602
X4.5706Y-3.38
X4.6094Y-1.5602
X4.6094Y-1.9602
X4.6706Y-3.38
X4.7094Y-1.5602
X4.7094Y-1.9602
X5.3706Y-2.0796
X5.3706Y-2.1796
X5.3706Y-2.2796
X5.3706Y-2.3796
X5.3706Y-2.4796
X5.3706Y-2.5796
X5.3706Y-2.6796
X5.3706Y-2.7796
X5.3706Y-2.8796
X5.3706Y-2.9796
X5.3706Y-3.0796
X5.3706Y-3.1796
X5.3706Y-3.2796
X5.3706Y-3.3796
X5.6706Y-2.0796
X5.6706Y-2.1796
X5.6706Y-2.2796
X5.6706Y-2.3796
X5.6706Y-2.4796
X5.6706Y-2.5796
X5.6706Y-2.6796
X5.6706Y-2.7796
X5.6706Y-2.8796
X5.6706Y-2.9796
X5.6706Y-3.0796
X5.6706Y-3.1796
X5.6706Y-3.2796
X5.6706Y-3.3796
X5.85Y-2.4235
X5.85Y-2.6165
X6.03Y-2.2616
X6.03Y-2.4584
X6.03Y-2.5616
X6.03Y-2.7584
T4
X1.7239Y-4.1634
X1.7239Y-4.2618
X1.8027Y-4.1634
X1.8027Y-4.2618
X2.5124Y-4.4282
X2.6108Y-4.4282
X2.7092Y-4.4282
X2.8076Y-4.4282
T5
X3.1268Y-3.4532
X3.1268Y-3.5532
X3.1276Y-2.1654
X3.1276Y-2.2654
X3.1276Y-2.5787
X3.1276Y-2.6787
X3.1276Y-2.9921
X3.1276Y-3.0921
X3.2268Y-3.4532
X3.2268Y-3.5532
X3.2276Y-2.1654
X3.2276Y-2.2654
X3.2276Y-2.5787
X3.2276Y-2.6787
X3.2276Y-2.9921
X3.2276Y-3.0921
X3.3268Y-3.4532
X3.3268Y-3.5532
X3.3276Y-2.1654
X3.3276Y-2.2654
X3.3276Y-2.5787
X3.3276Y-2.6787
X3.3276Y-2.9921
X3.3276Y-3.0921
X3.4268Y-3.4532
X3.4268Y-3.5532
X3.4276Y-2.1654
X3.4276Y-2.2654
X3.4276Y-2.5787
X3.4276Y-2.6787
X3.4276Y-2.9921
X3.4276Y-3.0921
X3.5268Y-3.4532
X3.5268Y-3.5532
X3.5276Y-2.1654
X3.5276Y-2.2654
X3.5276Y-2.5787
X3.5276Y-2.6787
X3.5276Y-2.9921
X3.5276Y-3.0921
X3.6276Y-2.1654
X3.6276Y-2.2654
X3.6276Y-2.5787
X3.6276Y-2.6787
X3.6276Y-2.9921
X3.6276Y-3.0921
X3.7276Y-2.1654
X3.7276Y-2.2654
X3.7276Y-2.5787
X3.7276Y-2.6787
X3.7276Y-2.9921
X3.7276Y-3.0921
X3.8276Y-2.1654
X3.8276Y-2.2654
X3.8276Y-2.5787
X3.8276Y-2.6787
X3.8276Y-2.9921
X3.8276Y-3.0921
X3.9276Y-2.1654
X3.9276Y-2.2654
X3.9276Y-2.5787
X3.9276Y-2.6787
X3.9276Y-2.9921
X3.9276Y-3.0921
X4.0276Y-2.1654
X4.0276Y-2.2654
X4.0276Y-2.5787
X4.0276Y-2.6787
X4.0276Y-2.9921
X4.0276Y-3.0921
X4.1276Y-2.1654
X4.1276Y-2.2654
X4.1276Y-2.5787
X4.1276Y-2.6787
X4.1276Y-2.9921
X4.1276Y-3.0921
X4.2276Y-2.1654
X4.2276Y-2.2654
X4.2276Y-2.5787
X4.2276Y-2.6787
X4.2276Y-2.9921
X4.2276Y-3.0921
X4.3276Y-2.1654
X4.3276Y-2.2654
X4.3276Y-2.5787
X4.3276Y-2.6787
X4.3276Y-2.9921
X4.3276Y-3.0921
X4.4276Y-2.1654
X4.4276Y-2.2654
X4.4276Y-2.5787
X4.4276Y-2.6787
X4.4276Y-2.9921
X4.4276Y-3.0921
X4.5276Y-2.1654
X4.5276Y-2.2654
X4.5276Y-2.5787
X4.5276Y-2.6787
X4.5276Y-2.9921
X4.5276Y-3.0921
X5.44Y-1.67
X5.44Y-1.77
X5.54Y-1.67
X5.54Y-1.77
X5.64Y-1.67
X5.64Y-1.77
X5.74Y-1.67
X5.74Y-1.77
X5.84Y-1.67
X5.84Y-1.77
X5.87Y-3.67
X5.87Y-3.77
X5.87Y-3.87
X5.87Y-3.97
X5.87Y-4.07
X5.97Y-3.67
X5.97Y-3.77
X5.97Y-3.87
X5.97Y-3.97
X5.97Y-4.07
T6
X2.0169Y-1.652
X2.0169Y-1.752
X2.0169Y-1.852
T7
X1.6113Y-3.9764
X1.6113Y-4.4488
T8
X1.378Y-3.1496
X3.1496Y-1.7717
X3.1496Y-4.3307
X4.9213Y-1.7717
X5.5118Y-4.3307
T0
M30
