%TF.GenerationSoftware,KiCad,Pcbnew,7.0.5*%
%TF.CreationDate,2023-07-03T18:55:41+02:00*%
%TF.ProjectId,Processor_Board,50726f63-6573-4736-9f72-5f426f617264,rev?*%
%TF.SameCoordinates,Original*%
%TF.FileFunction,Drillmap*%
%TF.FilePolarity,Positive*%
%FSLAX45Y45*%
G04 Gerber Fmt 4.5, Leading zero omitted, Abs format (unit mm)*
G04 Created by KiCad (PCBNEW 7.0.5) date 2023-07-03 18:55:41*
%MOMM*%
%LPD*%
G01*
G04 APERTURE LIST*
%ADD10C,0.100000*%
%ADD11C,0.200000*%
%ADD12C,0.350000*%
G04 APERTURE END LIST*
D10*
X2992000Y-3803800D02*
X15500000Y-3803800D01*
X15500000Y-11570800D01*
X2992000Y-11570800D01*
X2992000Y-3803800D01*
D11*
D12*
X3282000Y-4275000D02*
X3632000Y-4625000D01*
X3632000Y-4275000D02*
X3282000Y-4625000D01*
D11*
X3247777Y-11887284D02*
X3247777Y-11687284D01*
X3247777Y-11687284D02*
X3295396Y-11687284D01*
X3295396Y-11687284D02*
X3323967Y-11696808D01*
X3323967Y-11696808D02*
X3343015Y-11715855D01*
X3343015Y-11715855D02*
X3352539Y-11734903D01*
X3352539Y-11734903D02*
X3362062Y-11772998D01*
X3362062Y-11772998D02*
X3362062Y-11801569D01*
X3362062Y-11801569D02*
X3352539Y-11839665D01*
X3352539Y-11839665D02*
X3343015Y-11858712D01*
X3343015Y-11858712D02*
X3323967Y-11877760D01*
X3323967Y-11877760D02*
X3295396Y-11887284D01*
X3295396Y-11887284D02*
X3247777Y-11887284D01*
X3447777Y-11887284D02*
X3447777Y-11753950D01*
X3447777Y-11792046D02*
X3457301Y-11772998D01*
X3457301Y-11772998D02*
X3466824Y-11763474D01*
X3466824Y-11763474D02*
X3485872Y-11753950D01*
X3485872Y-11753950D02*
X3504920Y-11753950D01*
X3571586Y-11887284D02*
X3571586Y-11753950D01*
X3571586Y-11687284D02*
X3562062Y-11696808D01*
X3562062Y-11696808D02*
X3571586Y-11706331D01*
X3571586Y-11706331D02*
X3581110Y-11696808D01*
X3581110Y-11696808D02*
X3571586Y-11687284D01*
X3571586Y-11687284D02*
X3571586Y-11706331D01*
X3695396Y-11887284D02*
X3676348Y-11877760D01*
X3676348Y-11877760D02*
X3666824Y-11858712D01*
X3666824Y-11858712D02*
X3666824Y-11687284D01*
X3800158Y-11887284D02*
X3781110Y-11877760D01*
X3781110Y-11877760D02*
X3771586Y-11858712D01*
X3771586Y-11858712D02*
X3771586Y-11687284D01*
X4028729Y-11887284D02*
X4028729Y-11687284D01*
X4028729Y-11687284D02*
X4095396Y-11830141D01*
X4095396Y-11830141D02*
X4162062Y-11687284D01*
X4162062Y-11687284D02*
X4162062Y-11887284D01*
X4343015Y-11887284D02*
X4343015Y-11782522D01*
X4343015Y-11782522D02*
X4333491Y-11763474D01*
X4333491Y-11763474D02*
X4314444Y-11753950D01*
X4314444Y-11753950D02*
X4276348Y-11753950D01*
X4276348Y-11753950D02*
X4257301Y-11763474D01*
X4343015Y-11877760D02*
X4323967Y-11887284D01*
X4323967Y-11887284D02*
X4276348Y-11887284D01*
X4276348Y-11887284D02*
X4257301Y-11877760D01*
X4257301Y-11877760D02*
X4247777Y-11858712D01*
X4247777Y-11858712D02*
X4247777Y-11839665D01*
X4247777Y-11839665D02*
X4257301Y-11820617D01*
X4257301Y-11820617D02*
X4276348Y-11811093D01*
X4276348Y-11811093D02*
X4323967Y-11811093D01*
X4323967Y-11811093D02*
X4343015Y-11801569D01*
X4438253Y-11753950D02*
X4438253Y-11953950D01*
X4438253Y-11763474D02*
X4457301Y-11753950D01*
X4457301Y-11753950D02*
X4495396Y-11753950D01*
X4495396Y-11753950D02*
X4514444Y-11763474D01*
X4514444Y-11763474D02*
X4523967Y-11772998D01*
X4523967Y-11772998D02*
X4533491Y-11792046D01*
X4533491Y-11792046D02*
X4533491Y-11849188D01*
X4533491Y-11849188D02*
X4523967Y-11868236D01*
X4523967Y-11868236D02*
X4514444Y-11877760D01*
X4514444Y-11877760D02*
X4495396Y-11887284D01*
X4495396Y-11887284D02*
X4457301Y-11887284D01*
X4457301Y-11887284D02*
X4438253Y-11877760D01*
X4619205Y-11868236D02*
X4628729Y-11877760D01*
X4628729Y-11877760D02*
X4619205Y-11887284D01*
X4619205Y-11887284D02*
X4609682Y-11877760D01*
X4609682Y-11877760D02*
X4619205Y-11868236D01*
X4619205Y-11868236D02*
X4619205Y-11887284D01*
X4619205Y-11763474D02*
X4628729Y-11772998D01*
X4628729Y-11772998D02*
X4619205Y-11782522D01*
X4619205Y-11782522D02*
X4609682Y-11772998D01*
X4609682Y-11772998D02*
X4619205Y-11763474D01*
X4619205Y-11763474D02*
X4619205Y-11782522D01*
X2787000Y-12115800D02*
X2987000Y-12315800D01*
X2987000Y-12115800D02*
X2787000Y-12315800D01*
X3228729Y-12107284D02*
X3352539Y-12107284D01*
X3352539Y-12107284D02*
X3285872Y-12183474D01*
X3285872Y-12183474D02*
X3314443Y-12183474D01*
X3314443Y-12183474D02*
X3333491Y-12192998D01*
X3333491Y-12192998D02*
X3343015Y-12202522D01*
X3343015Y-12202522D02*
X3352539Y-12221569D01*
X3352539Y-12221569D02*
X3352539Y-12269188D01*
X3352539Y-12269188D02*
X3343015Y-12288236D01*
X3343015Y-12288236D02*
X3333491Y-12297760D01*
X3333491Y-12297760D02*
X3314443Y-12307284D01*
X3314443Y-12307284D02*
X3257301Y-12307284D01*
X3257301Y-12307284D02*
X3238253Y-12297760D01*
X3238253Y-12297760D02*
X3228729Y-12288236D01*
X3438253Y-12288236D02*
X3447777Y-12297760D01*
X3447777Y-12297760D02*
X3438253Y-12307284D01*
X3438253Y-12307284D02*
X3428729Y-12297760D01*
X3428729Y-12297760D02*
X3438253Y-12288236D01*
X3438253Y-12288236D02*
X3438253Y-12307284D01*
X3628729Y-12107284D02*
X3533491Y-12107284D01*
X3533491Y-12107284D02*
X3523967Y-12202522D01*
X3523967Y-12202522D02*
X3533491Y-12192998D01*
X3533491Y-12192998D02*
X3552539Y-12183474D01*
X3552539Y-12183474D02*
X3600158Y-12183474D01*
X3600158Y-12183474D02*
X3619205Y-12192998D01*
X3619205Y-12192998D02*
X3628729Y-12202522D01*
X3628729Y-12202522D02*
X3638253Y-12221569D01*
X3638253Y-12221569D02*
X3638253Y-12269188D01*
X3638253Y-12269188D02*
X3628729Y-12288236D01*
X3628729Y-12288236D02*
X3619205Y-12297760D01*
X3619205Y-12297760D02*
X3600158Y-12307284D01*
X3600158Y-12307284D02*
X3552539Y-12307284D01*
X3552539Y-12307284D02*
X3533491Y-12297760D01*
X3533491Y-12297760D02*
X3523967Y-12288236D01*
X3762062Y-12107284D02*
X3781110Y-12107284D01*
X3781110Y-12107284D02*
X3800158Y-12116808D01*
X3800158Y-12116808D02*
X3809682Y-12126331D01*
X3809682Y-12126331D02*
X3819205Y-12145379D01*
X3819205Y-12145379D02*
X3828729Y-12183474D01*
X3828729Y-12183474D02*
X3828729Y-12231093D01*
X3828729Y-12231093D02*
X3819205Y-12269188D01*
X3819205Y-12269188D02*
X3809682Y-12288236D01*
X3809682Y-12288236D02*
X3800158Y-12297760D01*
X3800158Y-12297760D02*
X3781110Y-12307284D01*
X3781110Y-12307284D02*
X3762062Y-12307284D01*
X3762062Y-12307284D02*
X3743015Y-12297760D01*
X3743015Y-12297760D02*
X3733491Y-12288236D01*
X3733491Y-12288236D02*
X3723967Y-12269188D01*
X3723967Y-12269188D02*
X3714443Y-12231093D01*
X3714443Y-12231093D02*
X3714443Y-12183474D01*
X3714443Y-12183474D02*
X3723967Y-12145379D01*
X3723967Y-12145379D02*
X3733491Y-12126331D01*
X3733491Y-12126331D02*
X3743015Y-12116808D01*
X3743015Y-12116808D02*
X3762062Y-12107284D01*
X3952539Y-12107284D02*
X3971586Y-12107284D01*
X3971586Y-12107284D02*
X3990634Y-12116808D01*
X3990634Y-12116808D02*
X4000158Y-12126331D01*
X4000158Y-12126331D02*
X4009682Y-12145379D01*
X4009682Y-12145379D02*
X4019205Y-12183474D01*
X4019205Y-12183474D02*
X4019205Y-12231093D01*
X4019205Y-12231093D02*
X4009682Y-12269188D01*
X4009682Y-12269188D02*
X4000158Y-12288236D01*
X4000158Y-12288236D02*
X3990634Y-12297760D01*
X3990634Y-12297760D02*
X3971586Y-12307284D01*
X3971586Y-12307284D02*
X3952539Y-12307284D01*
X3952539Y-12307284D02*
X3933491Y-12297760D01*
X3933491Y-12297760D02*
X3923967Y-12288236D01*
X3923967Y-12288236D02*
X3914443Y-12269188D01*
X3914443Y-12269188D02*
X3904920Y-12231093D01*
X3904920Y-12231093D02*
X3904920Y-12183474D01*
X3904920Y-12183474D02*
X3914443Y-12145379D01*
X3914443Y-12145379D02*
X3923967Y-12126331D01*
X3923967Y-12126331D02*
X3933491Y-12116808D01*
X3933491Y-12116808D02*
X3952539Y-12107284D01*
X4104920Y-12307284D02*
X4104920Y-12173950D01*
X4104920Y-12192998D02*
X4114443Y-12183474D01*
X4114443Y-12183474D02*
X4133491Y-12173950D01*
X4133491Y-12173950D02*
X4162063Y-12173950D01*
X4162063Y-12173950D02*
X4181110Y-12183474D01*
X4181110Y-12183474D02*
X4190634Y-12202522D01*
X4190634Y-12202522D02*
X4190634Y-12307284D01*
X4190634Y-12202522D02*
X4200158Y-12183474D01*
X4200158Y-12183474D02*
X4219205Y-12173950D01*
X4219205Y-12173950D02*
X4247777Y-12173950D01*
X4247777Y-12173950D02*
X4266825Y-12183474D01*
X4266825Y-12183474D02*
X4276348Y-12202522D01*
X4276348Y-12202522D02*
X4276348Y-12307284D01*
X4371586Y-12307284D02*
X4371586Y-12173950D01*
X4371586Y-12192998D02*
X4381110Y-12183474D01*
X4381110Y-12183474D02*
X4400158Y-12173950D01*
X4400158Y-12173950D02*
X4428729Y-12173950D01*
X4428729Y-12173950D02*
X4447777Y-12183474D01*
X4447777Y-12183474D02*
X4457301Y-12202522D01*
X4457301Y-12202522D02*
X4457301Y-12307284D01*
X4457301Y-12202522D02*
X4466825Y-12183474D01*
X4466825Y-12183474D02*
X4485872Y-12173950D01*
X4485872Y-12173950D02*
X4514444Y-12173950D01*
X4514444Y-12173950D02*
X4533491Y-12183474D01*
X4533491Y-12183474D02*
X4543015Y-12202522D01*
X4543015Y-12202522D02*
X4543015Y-12307284D01*
X4933491Y-12097760D02*
X4762063Y-12354903D01*
X5190634Y-12107284D02*
X5209682Y-12107284D01*
X5209682Y-12107284D02*
X5228729Y-12116808D01*
X5228729Y-12116808D02*
X5238253Y-12126331D01*
X5238253Y-12126331D02*
X5247777Y-12145379D01*
X5247777Y-12145379D02*
X5257301Y-12183474D01*
X5257301Y-12183474D02*
X5257301Y-12231093D01*
X5257301Y-12231093D02*
X5247777Y-12269188D01*
X5247777Y-12269188D02*
X5238253Y-12288236D01*
X5238253Y-12288236D02*
X5228729Y-12297760D01*
X5228729Y-12297760D02*
X5209682Y-12307284D01*
X5209682Y-12307284D02*
X5190634Y-12307284D01*
X5190634Y-12307284D02*
X5171587Y-12297760D01*
X5171587Y-12297760D02*
X5162063Y-12288236D01*
X5162063Y-12288236D02*
X5152539Y-12269188D01*
X5152539Y-12269188D02*
X5143015Y-12231093D01*
X5143015Y-12231093D02*
X5143015Y-12183474D01*
X5143015Y-12183474D02*
X5152539Y-12145379D01*
X5152539Y-12145379D02*
X5162063Y-12126331D01*
X5162063Y-12126331D02*
X5171587Y-12116808D01*
X5171587Y-12116808D02*
X5190634Y-12107284D01*
X5343015Y-12288236D02*
X5352539Y-12297760D01*
X5352539Y-12297760D02*
X5343015Y-12307284D01*
X5343015Y-12307284D02*
X5333491Y-12297760D01*
X5333491Y-12297760D02*
X5343015Y-12288236D01*
X5343015Y-12288236D02*
X5343015Y-12307284D01*
X5543015Y-12307284D02*
X5428729Y-12307284D01*
X5485872Y-12307284D02*
X5485872Y-12107284D01*
X5485872Y-12107284D02*
X5466825Y-12135855D01*
X5466825Y-12135855D02*
X5447777Y-12154903D01*
X5447777Y-12154903D02*
X5428729Y-12164427D01*
X5609682Y-12107284D02*
X5733491Y-12107284D01*
X5733491Y-12107284D02*
X5666825Y-12183474D01*
X5666825Y-12183474D02*
X5695396Y-12183474D01*
X5695396Y-12183474D02*
X5714444Y-12192998D01*
X5714444Y-12192998D02*
X5723967Y-12202522D01*
X5723967Y-12202522D02*
X5733491Y-12221569D01*
X5733491Y-12221569D02*
X5733491Y-12269188D01*
X5733491Y-12269188D02*
X5723967Y-12288236D01*
X5723967Y-12288236D02*
X5714444Y-12297760D01*
X5714444Y-12297760D02*
X5695396Y-12307284D01*
X5695396Y-12307284D02*
X5638253Y-12307284D01*
X5638253Y-12307284D02*
X5619206Y-12297760D01*
X5619206Y-12297760D02*
X5609682Y-12288236D01*
X5800158Y-12107284D02*
X5933491Y-12107284D01*
X5933491Y-12107284D02*
X5847777Y-12307284D01*
X6038253Y-12192998D02*
X6019206Y-12183474D01*
X6019206Y-12183474D02*
X6009682Y-12173950D01*
X6009682Y-12173950D02*
X6000158Y-12154903D01*
X6000158Y-12154903D02*
X6000158Y-12145379D01*
X6000158Y-12145379D02*
X6009682Y-12126331D01*
X6009682Y-12126331D02*
X6019206Y-12116808D01*
X6019206Y-12116808D02*
X6038253Y-12107284D01*
X6038253Y-12107284D02*
X6076348Y-12107284D01*
X6076348Y-12107284D02*
X6095396Y-12116808D01*
X6095396Y-12116808D02*
X6104920Y-12126331D01*
X6104920Y-12126331D02*
X6114444Y-12145379D01*
X6114444Y-12145379D02*
X6114444Y-12154903D01*
X6114444Y-12154903D02*
X6104920Y-12173950D01*
X6104920Y-12173950D02*
X6095396Y-12183474D01*
X6095396Y-12183474D02*
X6076348Y-12192998D01*
X6076348Y-12192998D02*
X6038253Y-12192998D01*
X6038253Y-12192998D02*
X6019206Y-12202522D01*
X6019206Y-12202522D02*
X6009682Y-12212046D01*
X6009682Y-12212046D02*
X6000158Y-12231093D01*
X6000158Y-12231093D02*
X6000158Y-12269188D01*
X6000158Y-12269188D02*
X6009682Y-12288236D01*
X6009682Y-12288236D02*
X6019206Y-12297760D01*
X6019206Y-12297760D02*
X6038253Y-12307284D01*
X6038253Y-12307284D02*
X6076348Y-12307284D01*
X6076348Y-12307284D02*
X6095396Y-12297760D01*
X6095396Y-12297760D02*
X6104920Y-12288236D01*
X6104920Y-12288236D02*
X6114444Y-12269188D01*
X6114444Y-12269188D02*
X6114444Y-12231093D01*
X6114444Y-12231093D02*
X6104920Y-12212046D01*
X6104920Y-12212046D02*
X6095396Y-12202522D01*
X6095396Y-12202522D02*
X6076348Y-12192998D01*
X6190634Y-12107284D02*
X6190634Y-12145379D01*
X6266825Y-12107284D02*
X6266825Y-12145379D01*
X6562063Y-12383474D02*
X6552539Y-12373950D01*
X6552539Y-12373950D02*
X6533491Y-12345379D01*
X6533491Y-12345379D02*
X6523968Y-12326331D01*
X6523968Y-12326331D02*
X6514444Y-12297760D01*
X6514444Y-12297760D02*
X6504920Y-12250141D01*
X6504920Y-12250141D02*
X6504920Y-12212046D01*
X6504920Y-12212046D02*
X6514444Y-12164427D01*
X6514444Y-12164427D02*
X6523968Y-12135855D01*
X6523968Y-12135855D02*
X6533491Y-12116808D01*
X6533491Y-12116808D02*
X6552539Y-12088236D01*
X6552539Y-12088236D02*
X6562063Y-12078712D01*
X6743015Y-12307284D02*
X6628729Y-12307284D01*
X6685872Y-12307284D02*
X6685872Y-12107284D01*
X6685872Y-12107284D02*
X6666825Y-12135855D01*
X6666825Y-12135855D02*
X6647777Y-12154903D01*
X6647777Y-12154903D02*
X6628729Y-12164427D01*
X6981110Y-12307284D02*
X6981110Y-12107284D01*
X7066825Y-12307284D02*
X7066825Y-12202522D01*
X7066825Y-12202522D02*
X7057301Y-12183474D01*
X7057301Y-12183474D02*
X7038253Y-12173950D01*
X7038253Y-12173950D02*
X7009682Y-12173950D01*
X7009682Y-12173950D02*
X6990634Y-12183474D01*
X6990634Y-12183474D02*
X6981110Y-12192998D01*
X7190634Y-12307284D02*
X7171587Y-12297760D01*
X7171587Y-12297760D02*
X7162063Y-12288236D01*
X7162063Y-12288236D02*
X7152539Y-12269188D01*
X7152539Y-12269188D02*
X7152539Y-12212046D01*
X7152539Y-12212046D02*
X7162063Y-12192998D01*
X7162063Y-12192998D02*
X7171587Y-12183474D01*
X7171587Y-12183474D02*
X7190634Y-12173950D01*
X7190634Y-12173950D02*
X7219206Y-12173950D01*
X7219206Y-12173950D02*
X7238253Y-12183474D01*
X7238253Y-12183474D02*
X7247777Y-12192998D01*
X7247777Y-12192998D02*
X7257301Y-12212046D01*
X7257301Y-12212046D02*
X7257301Y-12269188D01*
X7257301Y-12269188D02*
X7247777Y-12288236D01*
X7247777Y-12288236D02*
X7238253Y-12297760D01*
X7238253Y-12297760D02*
X7219206Y-12307284D01*
X7219206Y-12307284D02*
X7190634Y-12307284D01*
X7371587Y-12307284D02*
X7352539Y-12297760D01*
X7352539Y-12297760D02*
X7343015Y-12278712D01*
X7343015Y-12278712D02*
X7343015Y-12107284D01*
X7523968Y-12297760D02*
X7504920Y-12307284D01*
X7504920Y-12307284D02*
X7466825Y-12307284D01*
X7466825Y-12307284D02*
X7447777Y-12297760D01*
X7447777Y-12297760D02*
X7438253Y-12278712D01*
X7438253Y-12278712D02*
X7438253Y-12202522D01*
X7438253Y-12202522D02*
X7447777Y-12183474D01*
X7447777Y-12183474D02*
X7466825Y-12173950D01*
X7466825Y-12173950D02*
X7504920Y-12173950D01*
X7504920Y-12173950D02*
X7523968Y-12183474D01*
X7523968Y-12183474D02*
X7533491Y-12202522D01*
X7533491Y-12202522D02*
X7533491Y-12221569D01*
X7533491Y-12221569D02*
X7438253Y-12240617D01*
X7600158Y-12383474D02*
X7609682Y-12373950D01*
X7609682Y-12373950D02*
X7628730Y-12345379D01*
X7628730Y-12345379D02*
X7638253Y-12326331D01*
X7638253Y-12326331D02*
X7647777Y-12297760D01*
X7647777Y-12297760D02*
X7657301Y-12250141D01*
X7657301Y-12250141D02*
X7657301Y-12212046D01*
X7657301Y-12212046D02*
X7647777Y-12164427D01*
X7647777Y-12164427D02*
X7638253Y-12135855D01*
X7638253Y-12135855D02*
X7628730Y-12116808D01*
X7628730Y-12116808D02*
X7609682Y-12088236D01*
X7609682Y-12088236D02*
X7600158Y-12078712D01*
X7962063Y-12383474D02*
X7952539Y-12373950D01*
X7952539Y-12373950D02*
X7933491Y-12345379D01*
X7933491Y-12345379D02*
X7923968Y-12326331D01*
X7923968Y-12326331D02*
X7914444Y-12297760D01*
X7914444Y-12297760D02*
X7904920Y-12250141D01*
X7904920Y-12250141D02*
X7904920Y-12212046D01*
X7904920Y-12212046D02*
X7914444Y-12164427D01*
X7914444Y-12164427D02*
X7923968Y-12135855D01*
X7923968Y-12135855D02*
X7933491Y-12116808D01*
X7933491Y-12116808D02*
X7952539Y-12088236D01*
X7952539Y-12088236D02*
X7962063Y-12078712D01*
X8038253Y-12173950D02*
X8038253Y-12307284D01*
X8038253Y-12192998D02*
X8047777Y-12183474D01*
X8047777Y-12183474D02*
X8066825Y-12173950D01*
X8066825Y-12173950D02*
X8095396Y-12173950D01*
X8095396Y-12173950D02*
X8114444Y-12183474D01*
X8114444Y-12183474D02*
X8123968Y-12202522D01*
X8123968Y-12202522D02*
X8123968Y-12307284D01*
X8247777Y-12307284D02*
X8228730Y-12297760D01*
X8228730Y-12297760D02*
X8219206Y-12288236D01*
X8219206Y-12288236D02*
X8209682Y-12269188D01*
X8209682Y-12269188D02*
X8209682Y-12212046D01*
X8209682Y-12212046D02*
X8219206Y-12192998D01*
X8219206Y-12192998D02*
X8228730Y-12183474D01*
X8228730Y-12183474D02*
X8247777Y-12173950D01*
X8247777Y-12173950D02*
X8276349Y-12173950D01*
X8276349Y-12173950D02*
X8295396Y-12183474D01*
X8295396Y-12183474D02*
X8304920Y-12192998D01*
X8304920Y-12192998D02*
X8314444Y-12212046D01*
X8314444Y-12212046D02*
X8314444Y-12269188D01*
X8314444Y-12269188D02*
X8304920Y-12288236D01*
X8304920Y-12288236D02*
X8295396Y-12297760D01*
X8295396Y-12297760D02*
X8276349Y-12307284D01*
X8276349Y-12307284D02*
X8247777Y-12307284D01*
X8371587Y-12173950D02*
X8447777Y-12173950D01*
X8400158Y-12107284D02*
X8400158Y-12278712D01*
X8400158Y-12278712D02*
X8409682Y-12297760D01*
X8409682Y-12297760D02*
X8428730Y-12307284D01*
X8428730Y-12307284D02*
X8447777Y-12307284D01*
X8666825Y-12173950D02*
X8666825Y-12373950D01*
X8666825Y-12183474D02*
X8685873Y-12173950D01*
X8685873Y-12173950D02*
X8723968Y-12173950D01*
X8723968Y-12173950D02*
X8743015Y-12183474D01*
X8743015Y-12183474D02*
X8752539Y-12192998D01*
X8752539Y-12192998D02*
X8762063Y-12212046D01*
X8762063Y-12212046D02*
X8762063Y-12269188D01*
X8762063Y-12269188D02*
X8752539Y-12288236D01*
X8752539Y-12288236D02*
X8743015Y-12297760D01*
X8743015Y-12297760D02*
X8723968Y-12307284D01*
X8723968Y-12307284D02*
X8685873Y-12307284D01*
X8685873Y-12307284D02*
X8666825Y-12297760D01*
X8876349Y-12307284D02*
X8857301Y-12297760D01*
X8857301Y-12297760D02*
X8847777Y-12278712D01*
X8847777Y-12278712D02*
X8847777Y-12107284D01*
X9038254Y-12307284D02*
X9038254Y-12202522D01*
X9038254Y-12202522D02*
X9028730Y-12183474D01*
X9028730Y-12183474D02*
X9009682Y-12173950D01*
X9009682Y-12173950D02*
X8971587Y-12173950D01*
X8971587Y-12173950D02*
X8952539Y-12183474D01*
X9038254Y-12297760D02*
X9019206Y-12307284D01*
X9019206Y-12307284D02*
X8971587Y-12307284D01*
X8971587Y-12307284D02*
X8952539Y-12297760D01*
X8952539Y-12297760D02*
X8943015Y-12278712D01*
X8943015Y-12278712D02*
X8943015Y-12259665D01*
X8943015Y-12259665D02*
X8952539Y-12240617D01*
X8952539Y-12240617D02*
X8971587Y-12231093D01*
X8971587Y-12231093D02*
X9019206Y-12231093D01*
X9019206Y-12231093D02*
X9038254Y-12221569D01*
X9104920Y-12173950D02*
X9181111Y-12173950D01*
X9133492Y-12107284D02*
X9133492Y-12278712D01*
X9133492Y-12278712D02*
X9143015Y-12297760D01*
X9143015Y-12297760D02*
X9162063Y-12307284D01*
X9162063Y-12307284D02*
X9181111Y-12307284D01*
X9323968Y-12297760D02*
X9304920Y-12307284D01*
X9304920Y-12307284D02*
X9266825Y-12307284D01*
X9266825Y-12307284D02*
X9247777Y-12297760D01*
X9247777Y-12297760D02*
X9238254Y-12278712D01*
X9238254Y-12278712D02*
X9238254Y-12202522D01*
X9238254Y-12202522D02*
X9247777Y-12183474D01*
X9247777Y-12183474D02*
X9266825Y-12173950D01*
X9266825Y-12173950D02*
X9304920Y-12173950D01*
X9304920Y-12173950D02*
X9323968Y-12183474D01*
X9323968Y-12183474D02*
X9333492Y-12202522D01*
X9333492Y-12202522D02*
X9333492Y-12221569D01*
X9333492Y-12221569D02*
X9238254Y-12240617D01*
X9504920Y-12307284D02*
X9504920Y-12107284D01*
X9504920Y-12297760D02*
X9485873Y-12307284D01*
X9485873Y-12307284D02*
X9447777Y-12307284D01*
X9447777Y-12307284D02*
X9428730Y-12297760D01*
X9428730Y-12297760D02*
X9419206Y-12288236D01*
X9419206Y-12288236D02*
X9409682Y-12269188D01*
X9409682Y-12269188D02*
X9409682Y-12212046D01*
X9409682Y-12212046D02*
X9419206Y-12192998D01*
X9419206Y-12192998D02*
X9428730Y-12183474D01*
X9428730Y-12183474D02*
X9447777Y-12173950D01*
X9447777Y-12173950D02*
X9485873Y-12173950D01*
X9485873Y-12173950D02*
X9504920Y-12183474D01*
X9581111Y-12383474D02*
X9590635Y-12373950D01*
X9590635Y-12373950D02*
X9609682Y-12345379D01*
X9609682Y-12345379D02*
X9619206Y-12326331D01*
X9619206Y-12326331D02*
X9628730Y-12297760D01*
X9628730Y-12297760D02*
X9638254Y-12250141D01*
X9638254Y-12250141D02*
X9638254Y-12212046D01*
X9638254Y-12212046D02*
X9628730Y-12164427D01*
X9628730Y-12164427D02*
X9619206Y-12135855D01*
X9619206Y-12135855D02*
X9609682Y-12116808D01*
X9609682Y-12116808D02*
X9590635Y-12088236D01*
X9590635Y-12088236D02*
X9581111Y-12078712D01*
M02*
