%TF.GenerationSoftware,KiCad,Pcbnew,7.0.5*%
%TF.CreationDate,2023-07-03T18:55:37+02:00*%
%TF.ProjectId,Processor_Board,50726f63-6573-4736-9f72-5f426f617264,rev?*%
%TF.SameCoordinates,Original*%
%TF.FileFunction,Legend,Top*%
%TF.FilePolarity,Positive*%
%FSLAX46Y46*%
G04 Gerber Fmt 4.6, Leading zero omitted, Abs format (unit mm)*
G04 Created by KiCad (PCBNEW 7.0.5) date 2023-07-03 18:55:37*
%MOMM*%
%LPD*%
G01*
G04 APERTURE LIST*
%ADD10C,0.150000*%
%ADD11C,0.300000*%
%ADD12C,0.200000*%
%ADD13C,0.120000*%
G04 APERTURE END LIST*
D10*
X103172286Y-106134819D02*
X103505619Y-107134819D01*
X103505619Y-107134819D02*
X103838952Y-106134819D01*
X104696095Y-107134819D02*
X104124667Y-107134819D01*
X104410381Y-107134819D02*
X104410381Y-106134819D01*
X104410381Y-106134819D02*
X104315143Y-106277676D01*
X104315143Y-106277676D02*
X104219905Y-106372914D01*
X104219905Y-106372914D02*
X104124667Y-106420533D01*
X105124667Y-107039580D02*
X105172286Y-107087200D01*
X105172286Y-107087200D02*
X105124667Y-107134819D01*
X105124667Y-107134819D02*
X105077048Y-107087200D01*
X105077048Y-107087200D02*
X105124667Y-107039580D01*
X105124667Y-107039580D02*
X105124667Y-107134819D01*
X106124666Y-107134819D02*
X105553238Y-107134819D01*
X105838952Y-107134819D02*
X105838952Y-106134819D01*
X105838952Y-106134819D02*
X105743714Y-106277676D01*
X105743714Y-106277676D02*
X105648476Y-106372914D01*
X105648476Y-106372914D02*
X105553238Y-106420533D01*
X107267524Y-106230057D02*
X107315143Y-106182438D01*
X107315143Y-106182438D02*
X107410381Y-106134819D01*
X107410381Y-106134819D02*
X107648476Y-106134819D01*
X107648476Y-106134819D02*
X107743714Y-106182438D01*
X107743714Y-106182438D02*
X107791333Y-106230057D01*
X107791333Y-106230057D02*
X107838952Y-106325295D01*
X107838952Y-106325295D02*
X107838952Y-106420533D01*
X107838952Y-106420533D02*
X107791333Y-106563390D01*
X107791333Y-106563390D02*
X107219905Y-107134819D01*
X107219905Y-107134819D02*
X107838952Y-107134819D01*
X108458000Y-106134819D02*
X108553238Y-106134819D01*
X108553238Y-106134819D02*
X108648476Y-106182438D01*
X108648476Y-106182438D02*
X108696095Y-106230057D01*
X108696095Y-106230057D02*
X108743714Y-106325295D01*
X108743714Y-106325295D02*
X108791333Y-106515771D01*
X108791333Y-106515771D02*
X108791333Y-106753866D01*
X108791333Y-106753866D02*
X108743714Y-106944342D01*
X108743714Y-106944342D02*
X108696095Y-107039580D01*
X108696095Y-107039580D02*
X108648476Y-107087200D01*
X108648476Y-107087200D02*
X108553238Y-107134819D01*
X108553238Y-107134819D02*
X108458000Y-107134819D01*
X108458000Y-107134819D02*
X108362762Y-107087200D01*
X108362762Y-107087200D02*
X108315143Y-107039580D01*
X108315143Y-107039580D02*
X108267524Y-106944342D01*
X108267524Y-106944342D02*
X108219905Y-106753866D01*
X108219905Y-106753866D02*
X108219905Y-106515771D01*
X108219905Y-106515771D02*
X108267524Y-106325295D01*
X108267524Y-106325295D02*
X108315143Y-106230057D01*
X108315143Y-106230057D02*
X108362762Y-106182438D01*
X108362762Y-106182438D02*
X108458000Y-106134819D01*
X109172286Y-106230057D02*
X109219905Y-106182438D01*
X109219905Y-106182438D02*
X109315143Y-106134819D01*
X109315143Y-106134819D02*
X109553238Y-106134819D01*
X109553238Y-106134819D02*
X109648476Y-106182438D01*
X109648476Y-106182438D02*
X109696095Y-106230057D01*
X109696095Y-106230057D02*
X109743714Y-106325295D01*
X109743714Y-106325295D02*
X109743714Y-106420533D01*
X109743714Y-106420533D02*
X109696095Y-106563390D01*
X109696095Y-106563390D02*
X109124667Y-107134819D01*
X109124667Y-107134819D02*
X109743714Y-107134819D01*
X110077048Y-106134819D02*
X110696095Y-106134819D01*
X110696095Y-106134819D02*
X110362762Y-106515771D01*
X110362762Y-106515771D02*
X110505619Y-106515771D01*
X110505619Y-106515771D02*
X110600857Y-106563390D01*
X110600857Y-106563390D02*
X110648476Y-106611009D01*
X110648476Y-106611009D02*
X110696095Y-106706247D01*
X110696095Y-106706247D02*
X110696095Y-106944342D01*
X110696095Y-106944342D02*
X110648476Y-107039580D01*
X110648476Y-107039580D02*
X110600857Y-107087200D01*
X110600857Y-107087200D02*
X110505619Y-107134819D01*
X110505619Y-107134819D02*
X110219905Y-107134819D01*
X110219905Y-107134819D02*
X110124667Y-107087200D01*
X110124667Y-107087200D02*
X110077048Y-107039580D01*
X111838952Y-106087200D02*
X110981810Y-107372914D01*
X112362762Y-106134819D02*
X112458000Y-106134819D01*
X112458000Y-106134819D02*
X112553238Y-106182438D01*
X112553238Y-106182438D02*
X112600857Y-106230057D01*
X112600857Y-106230057D02*
X112648476Y-106325295D01*
X112648476Y-106325295D02*
X112696095Y-106515771D01*
X112696095Y-106515771D02*
X112696095Y-106753866D01*
X112696095Y-106753866D02*
X112648476Y-106944342D01*
X112648476Y-106944342D02*
X112600857Y-107039580D01*
X112600857Y-107039580D02*
X112553238Y-107087200D01*
X112553238Y-107087200D02*
X112458000Y-107134819D01*
X112458000Y-107134819D02*
X112362762Y-107134819D01*
X112362762Y-107134819D02*
X112267524Y-107087200D01*
X112267524Y-107087200D02*
X112219905Y-107039580D01*
X112219905Y-107039580D02*
X112172286Y-106944342D01*
X112172286Y-106944342D02*
X112124667Y-106753866D01*
X112124667Y-106753866D02*
X112124667Y-106515771D01*
X112124667Y-106515771D02*
X112172286Y-106325295D01*
X112172286Y-106325295D02*
X112219905Y-106230057D01*
X112219905Y-106230057D02*
X112267524Y-106182438D01*
X112267524Y-106182438D02*
X112362762Y-106134819D01*
X113077048Y-106230057D02*
X113124667Y-106182438D01*
X113124667Y-106182438D02*
X113219905Y-106134819D01*
X113219905Y-106134819D02*
X113458000Y-106134819D01*
X113458000Y-106134819D02*
X113553238Y-106182438D01*
X113553238Y-106182438D02*
X113600857Y-106230057D01*
X113600857Y-106230057D02*
X113648476Y-106325295D01*
X113648476Y-106325295D02*
X113648476Y-106420533D01*
X113648476Y-106420533D02*
X113600857Y-106563390D01*
X113600857Y-106563390D02*
X113029429Y-107134819D01*
X113029429Y-107134819D02*
X113648476Y-107134819D01*
D11*
X104124666Y-104839638D02*
X104124666Y-102839638D01*
X104124666Y-104744400D02*
X103934190Y-104839638D01*
X103934190Y-104839638D02*
X103553237Y-104839638D01*
X103553237Y-104839638D02*
X103362761Y-104744400D01*
X103362761Y-104744400D02*
X103267523Y-104649161D01*
X103267523Y-104649161D02*
X103172285Y-104458685D01*
X103172285Y-104458685D02*
X103172285Y-103887257D01*
X103172285Y-103887257D02*
X103267523Y-103696780D01*
X103267523Y-103696780D02*
X103362761Y-103601542D01*
X103362761Y-103601542D02*
X103553237Y-103506304D01*
X103553237Y-103506304D02*
X103934190Y-103506304D01*
X103934190Y-103506304D02*
X104124666Y-103601542D01*
X105077047Y-104839638D02*
X105077047Y-103506304D01*
X105077047Y-102839638D02*
X104981809Y-102934876D01*
X104981809Y-102934876D02*
X105077047Y-103030114D01*
X105077047Y-103030114D02*
X105172285Y-102934876D01*
X105172285Y-102934876D02*
X105077047Y-102839638D01*
X105077047Y-102839638D02*
X105077047Y-103030114D01*
X105838952Y-103506304D02*
X106315142Y-104839638D01*
X106791333Y-103506304D02*
X106315142Y-104839638D01*
X106315142Y-104839638D02*
X106124666Y-105315828D01*
X106124666Y-105315828D02*
X106029428Y-105411066D01*
X106029428Y-105411066D02*
X105838952Y-105506304D01*
X107553238Y-104839638D02*
X107553238Y-102839638D01*
X107553238Y-102839638D02*
X108219905Y-104268209D01*
X108219905Y-104268209D02*
X108886571Y-102839638D01*
X108886571Y-102839638D02*
X108886571Y-104839638D01*
X109743714Y-104268209D02*
X110696095Y-104268209D01*
X109553238Y-104839638D02*
X110219904Y-102839638D01*
X110219904Y-102839638D02*
X110886571Y-104839638D01*
X111553238Y-104077733D02*
X113077048Y-104077733D01*
X114029428Y-104839638D02*
X114029428Y-102839638D01*
X114981809Y-103506304D02*
X114981809Y-104839638D01*
X114981809Y-103696780D02*
X115077047Y-103601542D01*
X115077047Y-103601542D02*
X115267523Y-103506304D01*
X115267523Y-103506304D02*
X115553238Y-103506304D01*
X115553238Y-103506304D02*
X115743714Y-103601542D01*
X115743714Y-103601542D02*
X115838952Y-103792019D01*
X115838952Y-103792019D02*
X115838952Y-104839638D01*
X116505619Y-103506304D02*
X117267523Y-103506304D01*
X116791333Y-102839638D02*
X116791333Y-104553923D01*
X116791333Y-104553923D02*
X116886571Y-104744400D01*
X116886571Y-104744400D02*
X117077047Y-104839638D01*
X117077047Y-104839638D02*
X117267523Y-104839638D01*
X118696095Y-104744400D02*
X118505619Y-104839638D01*
X118505619Y-104839638D02*
X118124666Y-104839638D01*
X118124666Y-104839638D02*
X117934190Y-104744400D01*
X117934190Y-104744400D02*
X117838952Y-104553923D01*
X117838952Y-104553923D02*
X117838952Y-103792019D01*
X117838952Y-103792019D02*
X117934190Y-103601542D01*
X117934190Y-103601542D02*
X118124666Y-103506304D01*
X118124666Y-103506304D02*
X118505619Y-103506304D01*
X118505619Y-103506304D02*
X118696095Y-103601542D01*
X118696095Y-103601542D02*
X118791333Y-103792019D01*
X118791333Y-103792019D02*
X118791333Y-103982495D01*
X118791333Y-103982495D02*
X117838952Y-104172971D01*
X119648476Y-104839638D02*
X119648476Y-103506304D01*
X119648476Y-103887257D02*
X119743714Y-103696780D01*
X119743714Y-103696780D02*
X119838952Y-103601542D01*
X119838952Y-103601542D02*
X120029428Y-103506304D01*
X120029428Y-103506304D02*
X120219905Y-103506304D01*
X120600857Y-103506304D02*
X121362761Y-103506304D01*
X120886571Y-104839638D02*
X120886571Y-103125352D01*
X120886571Y-103125352D02*
X120981809Y-102934876D01*
X120981809Y-102934876D02*
X121172285Y-102839638D01*
X121172285Y-102839638D02*
X121362761Y-102839638D01*
X122886571Y-104839638D02*
X122886571Y-103792019D01*
X122886571Y-103792019D02*
X122791333Y-103601542D01*
X122791333Y-103601542D02*
X122600857Y-103506304D01*
X122600857Y-103506304D02*
X122219904Y-103506304D01*
X122219904Y-103506304D02*
X122029428Y-103601542D01*
X122886571Y-104744400D02*
X122696095Y-104839638D01*
X122696095Y-104839638D02*
X122219904Y-104839638D01*
X122219904Y-104839638D02*
X122029428Y-104744400D01*
X122029428Y-104744400D02*
X121934190Y-104553923D01*
X121934190Y-104553923D02*
X121934190Y-104363447D01*
X121934190Y-104363447D02*
X122029428Y-104172971D01*
X122029428Y-104172971D02*
X122219904Y-104077733D01*
X122219904Y-104077733D02*
X122696095Y-104077733D01*
X122696095Y-104077733D02*
X122886571Y-103982495D01*
X124696095Y-104744400D02*
X124505619Y-104839638D01*
X124505619Y-104839638D02*
X124124666Y-104839638D01*
X124124666Y-104839638D02*
X123934190Y-104744400D01*
X123934190Y-104744400D02*
X123838952Y-104649161D01*
X123838952Y-104649161D02*
X123743714Y-104458685D01*
X123743714Y-104458685D02*
X123743714Y-103887257D01*
X123743714Y-103887257D02*
X123838952Y-103696780D01*
X123838952Y-103696780D02*
X123934190Y-103601542D01*
X123934190Y-103601542D02*
X124124666Y-103506304D01*
X124124666Y-103506304D02*
X124505619Y-103506304D01*
X124505619Y-103506304D02*
X124696095Y-103601542D01*
X126315143Y-104744400D02*
X126124667Y-104839638D01*
X126124667Y-104839638D02*
X125743714Y-104839638D01*
X125743714Y-104839638D02*
X125553238Y-104744400D01*
X125553238Y-104744400D02*
X125458000Y-104553923D01*
X125458000Y-104553923D02*
X125458000Y-103792019D01*
X125458000Y-103792019D02*
X125553238Y-103601542D01*
X125553238Y-103601542D02*
X125743714Y-103506304D01*
X125743714Y-103506304D02*
X126124667Y-103506304D01*
X126124667Y-103506304D02*
X126315143Y-103601542D01*
X126315143Y-103601542D02*
X126410381Y-103792019D01*
X126410381Y-103792019D02*
X126410381Y-103982495D01*
X126410381Y-103982495D02*
X125458000Y-104172971D01*
X127267524Y-104077733D02*
X128791334Y-104077733D01*
X130886571Y-104649161D02*
X130791333Y-104744400D01*
X130791333Y-104744400D02*
X130505619Y-104839638D01*
X130505619Y-104839638D02*
X130315143Y-104839638D01*
X130315143Y-104839638D02*
X130029428Y-104744400D01*
X130029428Y-104744400D02*
X129838952Y-104553923D01*
X129838952Y-104553923D02*
X129743714Y-104363447D01*
X129743714Y-104363447D02*
X129648476Y-103982495D01*
X129648476Y-103982495D02*
X129648476Y-103696780D01*
X129648476Y-103696780D02*
X129743714Y-103315828D01*
X129743714Y-103315828D02*
X129838952Y-103125352D01*
X129838952Y-103125352D02*
X130029428Y-102934876D01*
X130029428Y-102934876D02*
X130315143Y-102839638D01*
X130315143Y-102839638D02*
X130505619Y-102839638D01*
X130505619Y-102839638D02*
X130791333Y-102934876D01*
X130791333Y-102934876D02*
X130886571Y-103030114D01*
X132600857Y-104839638D02*
X132600857Y-103792019D01*
X132600857Y-103792019D02*
X132505619Y-103601542D01*
X132505619Y-103601542D02*
X132315143Y-103506304D01*
X132315143Y-103506304D02*
X131934190Y-103506304D01*
X131934190Y-103506304D02*
X131743714Y-103601542D01*
X132600857Y-104744400D02*
X132410381Y-104839638D01*
X132410381Y-104839638D02*
X131934190Y-104839638D01*
X131934190Y-104839638D02*
X131743714Y-104744400D01*
X131743714Y-104744400D02*
X131648476Y-104553923D01*
X131648476Y-104553923D02*
X131648476Y-104363447D01*
X131648476Y-104363447D02*
X131743714Y-104172971D01*
X131743714Y-104172971D02*
X131934190Y-104077733D01*
X131934190Y-104077733D02*
X132410381Y-104077733D01*
X132410381Y-104077733D02*
X132600857Y-103982495D01*
X133553238Y-104839638D02*
X133553238Y-103506304D01*
X133553238Y-103887257D02*
X133648476Y-103696780D01*
X133648476Y-103696780D02*
X133743714Y-103601542D01*
X133743714Y-103601542D02*
X133934190Y-103506304D01*
X133934190Y-103506304D02*
X134124667Y-103506304D01*
X135648476Y-104839638D02*
X135648476Y-102839638D01*
X135648476Y-104744400D02*
X135458000Y-104839638D01*
X135458000Y-104839638D02*
X135077047Y-104839638D01*
X135077047Y-104839638D02*
X134886571Y-104744400D01*
X134886571Y-104744400D02*
X134791333Y-104649161D01*
X134791333Y-104649161D02*
X134696095Y-104458685D01*
X134696095Y-104458685D02*
X134696095Y-103887257D01*
X134696095Y-103887257D02*
X134791333Y-103696780D01*
X134791333Y-103696780D02*
X134886571Y-103601542D01*
X134886571Y-103601542D02*
X135077047Y-103506304D01*
X135077047Y-103506304D02*
X135458000Y-103506304D01*
X135458000Y-103506304D02*
X135648476Y-103601542D01*
D12*
X103257048Y-108145552D02*
X103447524Y-108812219D01*
X103447524Y-108812219D02*
X103638000Y-108336028D01*
X103638000Y-108336028D02*
X103828476Y-108812219D01*
X103828476Y-108812219D02*
X104018952Y-108145552D01*
X104304667Y-108145552D02*
X104495143Y-108812219D01*
X104495143Y-108812219D02*
X104685619Y-108336028D01*
X104685619Y-108336028D02*
X104876095Y-108812219D01*
X104876095Y-108812219D02*
X105066571Y-108145552D01*
X105352286Y-108145552D02*
X105542762Y-108812219D01*
X105542762Y-108812219D02*
X105733238Y-108336028D01*
X105733238Y-108336028D02*
X105923714Y-108812219D01*
X105923714Y-108812219D02*
X106114190Y-108145552D01*
X106495143Y-108716980D02*
X106542762Y-108764600D01*
X106542762Y-108764600D02*
X106495143Y-108812219D01*
X106495143Y-108812219D02*
X106447524Y-108764600D01*
X106447524Y-108764600D02*
X106495143Y-108716980D01*
X106495143Y-108716980D02*
X106495143Y-108812219D01*
X107399904Y-108812219D02*
X107399904Y-107812219D01*
X107399904Y-108764600D02*
X107304666Y-108812219D01*
X107304666Y-108812219D02*
X107114190Y-108812219D01*
X107114190Y-108812219D02*
X107018952Y-108764600D01*
X107018952Y-108764600D02*
X106971333Y-108716980D01*
X106971333Y-108716980D02*
X106923714Y-108621742D01*
X106923714Y-108621742D02*
X106923714Y-108336028D01*
X106923714Y-108336028D02*
X106971333Y-108240790D01*
X106971333Y-108240790D02*
X107018952Y-108193171D01*
X107018952Y-108193171D02*
X107114190Y-108145552D01*
X107114190Y-108145552D02*
X107304666Y-108145552D01*
X107304666Y-108145552D02*
X107399904Y-108193171D01*
X108257047Y-108764600D02*
X108161809Y-108812219D01*
X108161809Y-108812219D02*
X107971333Y-108812219D01*
X107971333Y-108812219D02*
X107876095Y-108764600D01*
X107876095Y-108764600D02*
X107828476Y-108669361D01*
X107828476Y-108669361D02*
X107828476Y-108288409D01*
X107828476Y-108288409D02*
X107876095Y-108193171D01*
X107876095Y-108193171D02*
X107971333Y-108145552D01*
X107971333Y-108145552D02*
X108161809Y-108145552D01*
X108161809Y-108145552D02*
X108257047Y-108193171D01*
X108257047Y-108193171D02*
X108304666Y-108288409D01*
X108304666Y-108288409D02*
X108304666Y-108383647D01*
X108304666Y-108383647D02*
X107828476Y-108478885D01*
X108733238Y-108145552D02*
X108733238Y-108812219D01*
X108733238Y-108240790D02*
X108780857Y-108193171D01*
X108780857Y-108193171D02*
X108876095Y-108145552D01*
X108876095Y-108145552D02*
X109018952Y-108145552D01*
X109018952Y-108145552D02*
X109114190Y-108193171D01*
X109114190Y-108193171D02*
X109161809Y-108288409D01*
X109161809Y-108288409D02*
X109161809Y-108812219D01*
X109638000Y-108145552D02*
X109638000Y-108812219D01*
X109638000Y-108240790D02*
X109685619Y-108193171D01*
X109685619Y-108193171D02*
X109780857Y-108145552D01*
X109780857Y-108145552D02*
X109923714Y-108145552D01*
X109923714Y-108145552D02*
X110018952Y-108193171D01*
X110018952Y-108193171D02*
X110066571Y-108288409D01*
X110066571Y-108288409D02*
X110066571Y-108812219D01*
X110542762Y-108812219D02*
X110542762Y-108145552D01*
X110542762Y-107812219D02*
X110495143Y-107859838D01*
X110495143Y-107859838D02*
X110542762Y-107907457D01*
X110542762Y-107907457D02*
X110590381Y-107859838D01*
X110590381Y-107859838D02*
X110542762Y-107812219D01*
X110542762Y-107812219D02*
X110542762Y-107907457D01*
X110971333Y-108764600D02*
X111066571Y-108812219D01*
X111066571Y-108812219D02*
X111257047Y-108812219D01*
X111257047Y-108812219D02*
X111352285Y-108764600D01*
X111352285Y-108764600D02*
X111399904Y-108669361D01*
X111399904Y-108669361D02*
X111399904Y-108621742D01*
X111399904Y-108621742D02*
X111352285Y-108526504D01*
X111352285Y-108526504D02*
X111257047Y-108478885D01*
X111257047Y-108478885D02*
X111114190Y-108478885D01*
X111114190Y-108478885D02*
X111018952Y-108431266D01*
X111018952Y-108431266D02*
X110971333Y-108336028D01*
X110971333Y-108336028D02*
X110971333Y-108288409D01*
X110971333Y-108288409D02*
X111018952Y-108193171D01*
X111018952Y-108193171D02*
X111114190Y-108145552D01*
X111114190Y-108145552D02*
X111257047Y-108145552D01*
X111257047Y-108145552D02*
X111352285Y-108193171D01*
X112257047Y-108145552D02*
X112257047Y-108955076D01*
X112257047Y-108955076D02*
X112209428Y-109050314D01*
X112209428Y-109050314D02*
X112161809Y-109097933D01*
X112161809Y-109097933D02*
X112066571Y-109145552D01*
X112066571Y-109145552D02*
X111923714Y-109145552D01*
X111923714Y-109145552D02*
X111828476Y-109097933D01*
X112257047Y-108764600D02*
X112161809Y-108812219D01*
X112161809Y-108812219D02*
X111971333Y-108812219D01*
X111971333Y-108812219D02*
X111876095Y-108764600D01*
X111876095Y-108764600D02*
X111828476Y-108716980D01*
X111828476Y-108716980D02*
X111780857Y-108621742D01*
X111780857Y-108621742D02*
X111780857Y-108336028D01*
X111780857Y-108336028D02*
X111828476Y-108240790D01*
X111828476Y-108240790D02*
X111876095Y-108193171D01*
X111876095Y-108193171D02*
X111971333Y-108145552D01*
X111971333Y-108145552D02*
X112161809Y-108145552D01*
X112161809Y-108145552D02*
X112257047Y-108193171D01*
X113161809Y-108145552D02*
X113161809Y-108812219D01*
X112733238Y-108145552D02*
X112733238Y-108669361D01*
X112733238Y-108669361D02*
X112780857Y-108764600D01*
X112780857Y-108764600D02*
X112876095Y-108812219D01*
X112876095Y-108812219D02*
X113018952Y-108812219D01*
X113018952Y-108812219D02*
X113114190Y-108764600D01*
X113114190Y-108764600D02*
X113161809Y-108716980D01*
X113638000Y-108145552D02*
X113638000Y-108812219D01*
X113638000Y-108240790D02*
X113685619Y-108193171D01*
X113685619Y-108193171D02*
X113780857Y-108145552D01*
X113780857Y-108145552D02*
X113923714Y-108145552D01*
X113923714Y-108145552D02*
X114018952Y-108193171D01*
X114018952Y-108193171D02*
X114066571Y-108288409D01*
X114066571Y-108288409D02*
X114066571Y-108812219D01*
X114542762Y-108812219D02*
X114542762Y-108145552D01*
X114542762Y-107812219D02*
X114495143Y-107859838D01*
X114495143Y-107859838D02*
X114542762Y-107907457D01*
X114542762Y-107907457D02*
X114590381Y-107859838D01*
X114590381Y-107859838D02*
X114542762Y-107812219D01*
X114542762Y-107812219D02*
X114542762Y-107907457D01*
X115447523Y-108812219D02*
X115447523Y-108288409D01*
X115447523Y-108288409D02*
X115399904Y-108193171D01*
X115399904Y-108193171D02*
X115304666Y-108145552D01*
X115304666Y-108145552D02*
X115114190Y-108145552D01*
X115114190Y-108145552D02*
X115018952Y-108193171D01*
X115447523Y-108764600D02*
X115352285Y-108812219D01*
X115352285Y-108812219D02*
X115114190Y-108812219D01*
X115114190Y-108812219D02*
X115018952Y-108764600D01*
X115018952Y-108764600D02*
X114971333Y-108669361D01*
X114971333Y-108669361D02*
X114971333Y-108574123D01*
X114971333Y-108574123D02*
X115018952Y-108478885D01*
X115018952Y-108478885D02*
X115114190Y-108431266D01*
X115114190Y-108431266D02*
X115352285Y-108431266D01*
X115352285Y-108431266D02*
X115447523Y-108383647D01*
X115923714Y-108716980D02*
X115971333Y-108764600D01*
X115971333Y-108764600D02*
X115923714Y-108812219D01*
X115923714Y-108812219D02*
X115876095Y-108764600D01*
X115876095Y-108764600D02*
X115923714Y-108716980D01*
X115923714Y-108716980D02*
X115923714Y-108812219D01*
X116828475Y-108812219D02*
X116828475Y-107812219D01*
X116828475Y-108764600D02*
X116733237Y-108812219D01*
X116733237Y-108812219D02*
X116542761Y-108812219D01*
X116542761Y-108812219D02*
X116447523Y-108764600D01*
X116447523Y-108764600D02*
X116399904Y-108716980D01*
X116399904Y-108716980D02*
X116352285Y-108621742D01*
X116352285Y-108621742D02*
X116352285Y-108336028D01*
X116352285Y-108336028D02*
X116399904Y-108240790D01*
X116399904Y-108240790D02*
X116447523Y-108193171D01*
X116447523Y-108193171D02*
X116542761Y-108145552D01*
X116542761Y-108145552D02*
X116733237Y-108145552D01*
X116733237Y-108145552D02*
X116828475Y-108193171D01*
X117685618Y-108764600D02*
X117590380Y-108812219D01*
X117590380Y-108812219D02*
X117399904Y-108812219D01*
X117399904Y-108812219D02*
X117304666Y-108764600D01*
X117304666Y-108764600D02*
X117257047Y-108669361D01*
X117257047Y-108669361D02*
X117257047Y-108288409D01*
X117257047Y-108288409D02*
X117304666Y-108193171D01*
X117304666Y-108193171D02*
X117399904Y-108145552D01*
X117399904Y-108145552D02*
X117590380Y-108145552D01*
X117590380Y-108145552D02*
X117685618Y-108193171D01*
X117685618Y-108193171D02*
X117733237Y-108288409D01*
X117733237Y-108288409D02*
X117733237Y-108383647D01*
X117733237Y-108383647D02*
X117257047Y-108478885D01*
X119161809Y-109145552D02*
X119161809Y-107716980D01*
X120590381Y-107907457D02*
X120638000Y-107859838D01*
X120638000Y-107859838D02*
X120733238Y-107812219D01*
X120733238Y-107812219D02*
X120971333Y-107812219D01*
X120971333Y-107812219D02*
X121066571Y-107859838D01*
X121066571Y-107859838D02*
X121114190Y-107907457D01*
X121114190Y-107907457D02*
X121161809Y-108002695D01*
X121161809Y-108002695D02*
X121161809Y-108097933D01*
X121161809Y-108097933D02*
X121114190Y-108240790D01*
X121114190Y-108240790D02*
X120542762Y-108812219D01*
X120542762Y-108812219D02*
X121161809Y-108812219D01*
X121780857Y-107812219D02*
X121876095Y-107812219D01*
X121876095Y-107812219D02*
X121971333Y-107859838D01*
X121971333Y-107859838D02*
X122018952Y-107907457D01*
X122018952Y-107907457D02*
X122066571Y-108002695D01*
X122066571Y-108002695D02*
X122114190Y-108193171D01*
X122114190Y-108193171D02*
X122114190Y-108431266D01*
X122114190Y-108431266D02*
X122066571Y-108621742D01*
X122066571Y-108621742D02*
X122018952Y-108716980D01*
X122018952Y-108716980D02*
X121971333Y-108764600D01*
X121971333Y-108764600D02*
X121876095Y-108812219D01*
X121876095Y-108812219D02*
X121780857Y-108812219D01*
X121780857Y-108812219D02*
X121685619Y-108764600D01*
X121685619Y-108764600D02*
X121638000Y-108716980D01*
X121638000Y-108716980D02*
X121590381Y-108621742D01*
X121590381Y-108621742D02*
X121542762Y-108431266D01*
X121542762Y-108431266D02*
X121542762Y-108193171D01*
X121542762Y-108193171D02*
X121590381Y-108002695D01*
X121590381Y-108002695D02*
X121638000Y-107907457D01*
X121638000Y-107907457D02*
X121685619Y-107859838D01*
X121685619Y-107859838D02*
X121780857Y-107812219D01*
X122495143Y-107907457D02*
X122542762Y-107859838D01*
X122542762Y-107859838D02*
X122638000Y-107812219D01*
X122638000Y-107812219D02*
X122876095Y-107812219D01*
X122876095Y-107812219D02*
X122971333Y-107859838D01*
X122971333Y-107859838D02*
X123018952Y-107907457D01*
X123018952Y-107907457D02*
X123066571Y-108002695D01*
X123066571Y-108002695D02*
X123066571Y-108097933D01*
X123066571Y-108097933D02*
X123018952Y-108240790D01*
X123018952Y-108240790D02*
X122447524Y-108812219D01*
X122447524Y-108812219D02*
X123066571Y-108812219D01*
X123399905Y-107812219D02*
X124018952Y-107812219D01*
X124018952Y-107812219D02*
X123685619Y-108193171D01*
X123685619Y-108193171D02*
X123828476Y-108193171D01*
X123828476Y-108193171D02*
X123923714Y-108240790D01*
X123923714Y-108240790D02*
X123971333Y-108288409D01*
X123971333Y-108288409D02*
X124018952Y-108383647D01*
X124018952Y-108383647D02*
X124018952Y-108621742D01*
X124018952Y-108621742D02*
X123971333Y-108716980D01*
X123971333Y-108716980D02*
X123923714Y-108764600D01*
X123923714Y-108764600D02*
X123828476Y-108812219D01*
X123828476Y-108812219D02*
X123542762Y-108812219D01*
X123542762Y-108812219D02*
X123447524Y-108764600D01*
X123447524Y-108764600D02*
X123399905Y-108716980D01*
X125161809Y-107764600D02*
X124304667Y-109050314D01*
X125685619Y-107812219D02*
X125780857Y-107812219D01*
X125780857Y-107812219D02*
X125876095Y-107859838D01*
X125876095Y-107859838D02*
X125923714Y-107907457D01*
X125923714Y-107907457D02*
X125971333Y-108002695D01*
X125971333Y-108002695D02*
X126018952Y-108193171D01*
X126018952Y-108193171D02*
X126018952Y-108431266D01*
X126018952Y-108431266D02*
X125971333Y-108621742D01*
X125971333Y-108621742D02*
X125923714Y-108716980D01*
X125923714Y-108716980D02*
X125876095Y-108764600D01*
X125876095Y-108764600D02*
X125780857Y-108812219D01*
X125780857Y-108812219D02*
X125685619Y-108812219D01*
X125685619Y-108812219D02*
X125590381Y-108764600D01*
X125590381Y-108764600D02*
X125542762Y-108716980D01*
X125542762Y-108716980D02*
X125495143Y-108621742D01*
X125495143Y-108621742D02*
X125447524Y-108431266D01*
X125447524Y-108431266D02*
X125447524Y-108193171D01*
X125447524Y-108193171D02*
X125495143Y-108002695D01*
X125495143Y-108002695D02*
X125542762Y-107907457D01*
X125542762Y-107907457D02*
X125590381Y-107859838D01*
X125590381Y-107859838D02*
X125685619Y-107812219D01*
X126399905Y-107907457D02*
X126447524Y-107859838D01*
X126447524Y-107859838D02*
X126542762Y-107812219D01*
X126542762Y-107812219D02*
X126780857Y-107812219D01*
X126780857Y-107812219D02*
X126876095Y-107859838D01*
X126876095Y-107859838D02*
X126923714Y-107907457D01*
X126923714Y-107907457D02*
X126971333Y-108002695D01*
X126971333Y-108002695D02*
X126971333Y-108097933D01*
X126971333Y-108097933D02*
X126923714Y-108240790D01*
X126923714Y-108240790D02*
X126352286Y-108812219D01*
X126352286Y-108812219D02*
X126971333Y-108812219D01*
D10*
%TO.C,R2*%
X124040819Y-85256666D02*
X123564628Y-85589999D01*
X124040819Y-85828094D02*
X123040819Y-85828094D01*
X123040819Y-85828094D02*
X123040819Y-85447142D01*
X123040819Y-85447142D02*
X123088438Y-85351904D01*
X123088438Y-85351904D02*
X123136057Y-85304285D01*
X123136057Y-85304285D02*
X123231295Y-85256666D01*
X123231295Y-85256666D02*
X123374152Y-85256666D01*
X123374152Y-85256666D02*
X123469390Y-85304285D01*
X123469390Y-85304285D02*
X123517009Y-85351904D01*
X123517009Y-85351904D02*
X123564628Y-85447142D01*
X123564628Y-85447142D02*
X123564628Y-85828094D01*
X123136057Y-84875713D02*
X123088438Y-84828094D01*
X123088438Y-84828094D02*
X123040819Y-84732856D01*
X123040819Y-84732856D02*
X123040819Y-84494761D01*
X123040819Y-84494761D02*
X123088438Y-84399523D01*
X123088438Y-84399523D02*
X123136057Y-84351904D01*
X123136057Y-84351904D02*
X123231295Y-84304285D01*
X123231295Y-84304285D02*
X123326533Y-84304285D01*
X123326533Y-84304285D02*
X123469390Y-84351904D01*
X123469390Y-84351904D02*
X124040819Y-84923332D01*
X124040819Y-84923332D02*
X124040819Y-84304285D01*
%TO.C,J8*%
X67230666Y-109130819D02*
X67230666Y-109845104D01*
X67230666Y-109845104D02*
X67183047Y-109987961D01*
X67183047Y-109987961D02*
X67087809Y-110083200D01*
X67087809Y-110083200D02*
X66944952Y-110130819D01*
X66944952Y-110130819D02*
X66849714Y-110130819D01*
X67849714Y-109559390D02*
X67754476Y-109511771D01*
X67754476Y-109511771D02*
X67706857Y-109464152D01*
X67706857Y-109464152D02*
X67659238Y-109368914D01*
X67659238Y-109368914D02*
X67659238Y-109321295D01*
X67659238Y-109321295D02*
X67706857Y-109226057D01*
X67706857Y-109226057D02*
X67754476Y-109178438D01*
X67754476Y-109178438D02*
X67849714Y-109130819D01*
X67849714Y-109130819D02*
X68040190Y-109130819D01*
X68040190Y-109130819D02*
X68135428Y-109178438D01*
X68135428Y-109178438D02*
X68183047Y-109226057D01*
X68183047Y-109226057D02*
X68230666Y-109321295D01*
X68230666Y-109321295D02*
X68230666Y-109368914D01*
X68230666Y-109368914D02*
X68183047Y-109464152D01*
X68183047Y-109464152D02*
X68135428Y-109511771D01*
X68135428Y-109511771D02*
X68040190Y-109559390D01*
X68040190Y-109559390D02*
X67849714Y-109559390D01*
X67849714Y-109559390D02*
X67754476Y-109607009D01*
X67754476Y-109607009D02*
X67706857Y-109654628D01*
X67706857Y-109654628D02*
X67659238Y-109749866D01*
X67659238Y-109749866D02*
X67659238Y-109940342D01*
X67659238Y-109940342D02*
X67706857Y-110035580D01*
X67706857Y-110035580D02*
X67754476Y-110083200D01*
X67754476Y-110083200D02*
X67849714Y-110130819D01*
X67849714Y-110130819D02*
X68040190Y-110130819D01*
X68040190Y-110130819D02*
X68135428Y-110083200D01*
X68135428Y-110083200D02*
X68183047Y-110035580D01*
X68183047Y-110035580D02*
X68230666Y-109940342D01*
X68230666Y-109940342D02*
X68230666Y-109749866D01*
X68230666Y-109749866D02*
X68183047Y-109654628D01*
X68183047Y-109654628D02*
X68135428Y-109607009D01*
X68135428Y-109607009D02*
X68040190Y-109559390D01*
%TO.C,H3*%
X83738095Y-45454819D02*
X83738095Y-44454819D01*
X83738095Y-44931009D02*
X84309523Y-44931009D01*
X84309523Y-45454819D02*
X84309523Y-44454819D01*
X84690476Y-44454819D02*
X85309523Y-44454819D01*
X85309523Y-44454819D02*
X84976190Y-44835771D01*
X84976190Y-44835771D02*
X85119047Y-44835771D01*
X85119047Y-44835771D02*
X85214285Y-44883390D01*
X85214285Y-44883390D02*
X85261904Y-44931009D01*
X85261904Y-44931009D02*
X85309523Y-45026247D01*
X85309523Y-45026247D02*
X85309523Y-45264342D01*
X85309523Y-45264342D02*
X85261904Y-45359580D01*
X85261904Y-45359580D02*
X85214285Y-45407200D01*
X85214285Y-45407200D02*
X85119047Y-45454819D01*
X85119047Y-45454819D02*
X84833333Y-45454819D01*
X84833333Y-45454819D02*
X84738095Y-45407200D01*
X84738095Y-45407200D02*
X84690476Y-45359580D01*
%TO.C,C10*%
X67109580Y-45240206D02*
X67157200Y-45287825D01*
X67157200Y-45287825D02*
X67204819Y-45430682D01*
X67204819Y-45430682D02*
X67204819Y-45525920D01*
X67204819Y-45525920D02*
X67157200Y-45668777D01*
X67157200Y-45668777D02*
X67061961Y-45764015D01*
X67061961Y-45764015D02*
X66966723Y-45811634D01*
X66966723Y-45811634D02*
X66776247Y-45859253D01*
X66776247Y-45859253D02*
X66633390Y-45859253D01*
X66633390Y-45859253D02*
X66442914Y-45811634D01*
X66442914Y-45811634D02*
X66347676Y-45764015D01*
X66347676Y-45764015D02*
X66252438Y-45668777D01*
X66252438Y-45668777D02*
X66204819Y-45525920D01*
X66204819Y-45525920D02*
X66204819Y-45430682D01*
X66204819Y-45430682D02*
X66252438Y-45287825D01*
X66252438Y-45287825D02*
X66300057Y-45240206D01*
X67204819Y-44287825D02*
X67204819Y-44859253D01*
X67204819Y-44573539D02*
X66204819Y-44573539D01*
X66204819Y-44573539D02*
X66347676Y-44668777D01*
X66347676Y-44668777D02*
X66442914Y-44764015D01*
X66442914Y-44764015D02*
X66490533Y-44859253D01*
X66204819Y-43668777D02*
X66204819Y-43573539D01*
X66204819Y-43573539D02*
X66252438Y-43478301D01*
X66252438Y-43478301D02*
X66300057Y-43430682D01*
X66300057Y-43430682D02*
X66395295Y-43383063D01*
X66395295Y-43383063D02*
X66585771Y-43335444D01*
X66585771Y-43335444D02*
X66823866Y-43335444D01*
X66823866Y-43335444D02*
X67014342Y-43383063D01*
X67014342Y-43383063D02*
X67109580Y-43430682D01*
X67109580Y-43430682D02*
X67157200Y-43478301D01*
X67157200Y-43478301D02*
X67204819Y-43573539D01*
X67204819Y-43573539D02*
X67204819Y-43668777D01*
X67204819Y-43668777D02*
X67157200Y-43764015D01*
X67157200Y-43764015D02*
X67109580Y-43811634D01*
X67109580Y-43811634D02*
X67014342Y-43859253D01*
X67014342Y-43859253D02*
X66823866Y-43906872D01*
X66823866Y-43906872D02*
X66585771Y-43906872D01*
X66585771Y-43906872D02*
X66395295Y-43859253D01*
X66395295Y-43859253D02*
X66300057Y-43811634D01*
X66300057Y-43811634D02*
X66252438Y-43764015D01*
X66252438Y-43764015D02*
X66204819Y-43668777D01*
%TO.C,D1*%
X56329905Y-115800819D02*
X56329905Y-114800819D01*
X56329905Y-114800819D02*
X56568000Y-114800819D01*
X56568000Y-114800819D02*
X56710857Y-114848438D01*
X56710857Y-114848438D02*
X56806095Y-114943676D01*
X56806095Y-114943676D02*
X56853714Y-115038914D01*
X56853714Y-115038914D02*
X56901333Y-115229390D01*
X56901333Y-115229390D02*
X56901333Y-115372247D01*
X56901333Y-115372247D02*
X56853714Y-115562723D01*
X56853714Y-115562723D02*
X56806095Y-115657961D01*
X56806095Y-115657961D02*
X56710857Y-115753200D01*
X56710857Y-115753200D02*
X56568000Y-115800819D01*
X56568000Y-115800819D02*
X56329905Y-115800819D01*
X57853714Y-115800819D02*
X57282286Y-115800819D01*
X57568000Y-115800819D02*
X57568000Y-114800819D01*
X57568000Y-114800819D02*
X57472762Y-114943676D01*
X57472762Y-114943676D02*
X57377524Y-115038914D01*
X57377524Y-115038914D02*
X57282286Y-115086533D01*
X50006095Y-113600819D02*
X50006095Y-112600819D01*
X50577523Y-113600819D02*
X50148952Y-113029390D01*
X50577523Y-112600819D02*
X50006095Y-113172247D01*
%TO.C,C9*%
X35609580Y-55666666D02*
X35657200Y-55714285D01*
X35657200Y-55714285D02*
X35704819Y-55857142D01*
X35704819Y-55857142D02*
X35704819Y-55952380D01*
X35704819Y-55952380D02*
X35657200Y-56095237D01*
X35657200Y-56095237D02*
X35561961Y-56190475D01*
X35561961Y-56190475D02*
X35466723Y-56238094D01*
X35466723Y-56238094D02*
X35276247Y-56285713D01*
X35276247Y-56285713D02*
X35133390Y-56285713D01*
X35133390Y-56285713D02*
X34942914Y-56238094D01*
X34942914Y-56238094D02*
X34847676Y-56190475D01*
X34847676Y-56190475D02*
X34752438Y-56095237D01*
X34752438Y-56095237D02*
X34704819Y-55952380D01*
X34704819Y-55952380D02*
X34704819Y-55857142D01*
X34704819Y-55857142D02*
X34752438Y-55714285D01*
X34752438Y-55714285D02*
X34800057Y-55666666D01*
X35704819Y-55190475D02*
X35704819Y-54999999D01*
X35704819Y-54999999D02*
X35657200Y-54904761D01*
X35657200Y-54904761D02*
X35609580Y-54857142D01*
X35609580Y-54857142D02*
X35466723Y-54761904D01*
X35466723Y-54761904D02*
X35276247Y-54714285D01*
X35276247Y-54714285D02*
X34895295Y-54714285D01*
X34895295Y-54714285D02*
X34800057Y-54761904D01*
X34800057Y-54761904D02*
X34752438Y-54809523D01*
X34752438Y-54809523D02*
X34704819Y-54904761D01*
X34704819Y-54904761D02*
X34704819Y-55095237D01*
X34704819Y-55095237D02*
X34752438Y-55190475D01*
X34752438Y-55190475D02*
X34800057Y-55238094D01*
X34800057Y-55238094D02*
X34895295Y-55285713D01*
X34895295Y-55285713D02*
X35133390Y-55285713D01*
X35133390Y-55285713D02*
X35228628Y-55238094D01*
X35228628Y-55238094D02*
X35276247Y-55190475D01*
X35276247Y-55190475D02*
X35323866Y-55095237D01*
X35323866Y-55095237D02*
X35323866Y-54904761D01*
X35323866Y-54904761D02*
X35276247Y-54809523D01*
X35276247Y-54809523D02*
X35228628Y-54761904D01*
X35228628Y-54761904D02*
X35133390Y-54714285D01*
%TO.C,J1*%
X132924819Y-77603333D02*
X133639104Y-77603333D01*
X133639104Y-77603333D02*
X133781961Y-77650952D01*
X133781961Y-77650952D02*
X133877200Y-77746190D01*
X133877200Y-77746190D02*
X133924819Y-77889047D01*
X133924819Y-77889047D02*
X133924819Y-77984285D01*
X133924819Y-76603333D02*
X133924819Y-77174761D01*
X133924819Y-76889047D02*
X132924819Y-76889047D01*
X132924819Y-76889047D02*
X133067676Y-76984285D01*
X133067676Y-76984285D02*
X133162914Y-77079523D01*
X133162914Y-77079523D02*
X133210533Y-77174761D01*
%TO.C,U2*%
X33446819Y-70103904D02*
X34256342Y-70103904D01*
X34256342Y-70103904D02*
X34351580Y-70056285D01*
X34351580Y-70056285D02*
X34399200Y-70008666D01*
X34399200Y-70008666D02*
X34446819Y-69913428D01*
X34446819Y-69913428D02*
X34446819Y-69722952D01*
X34446819Y-69722952D02*
X34399200Y-69627714D01*
X34399200Y-69627714D02*
X34351580Y-69580095D01*
X34351580Y-69580095D02*
X34256342Y-69532476D01*
X34256342Y-69532476D02*
X33446819Y-69532476D01*
X33542057Y-69103904D02*
X33494438Y-69056285D01*
X33494438Y-69056285D02*
X33446819Y-68961047D01*
X33446819Y-68961047D02*
X33446819Y-68722952D01*
X33446819Y-68722952D02*
X33494438Y-68627714D01*
X33494438Y-68627714D02*
X33542057Y-68580095D01*
X33542057Y-68580095D02*
X33637295Y-68532476D01*
X33637295Y-68532476D02*
X33732533Y-68532476D01*
X33732533Y-68532476D02*
X33875390Y-68580095D01*
X33875390Y-68580095D02*
X34446819Y-69151523D01*
X34446819Y-69151523D02*
X34446819Y-68532476D01*
%TO.C,J3*%
X132924819Y-56603333D02*
X133639104Y-56603333D01*
X133639104Y-56603333D02*
X133781961Y-56650952D01*
X133781961Y-56650952D02*
X133877200Y-56746190D01*
X133877200Y-56746190D02*
X133924819Y-56889047D01*
X133924819Y-56889047D02*
X133924819Y-56984285D01*
X132924819Y-56222380D02*
X132924819Y-55603333D01*
X132924819Y-55603333D02*
X133305771Y-55936666D01*
X133305771Y-55936666D02*
X133305771Y-55793809D01*
X133305771Y-55793809D02*
X133353390Y-55698571D01*
X133353390Y-55698571D02*
X133401009Y-55650952D01*
X133401009Y-55650952D02*
X133496247Y-55603333D01*
X133496247Y-55603333D02*
X133734342Y-55603333D01*
X133734342Y-55603333D02*
X133829580Y-55650952D01*
X133829580Y-55650952D02*
X133877200Y-55698571D01*
X133877200Y-55698571D02*
X133924819Y-55793809D01*
X133924819Y-55793809D02*
X133924819Y-56079523D01*
X133924819Y-56079523D02*
X133877200Y-56174761D01*
X133877200Y-56174761D02*
X133829580Y-56222380D01*
%TO.C,R5*%
X55205333Y-104256819D02*
X54872000Y-103780628D01*
X54633905Y-104256819D02*
X54633905Y-103256819D01*
X54633905Y-103256819D02*
X55014857Y-103256819D01*
X55014857Y-103256819D02*
X55110095Y-103304438D01*
X55110095Y-103304438D02*
X55157714Y-103352057D01*
X55157714Y-103352057D02*
X55205333Y-103447295D01*
X55205333Y-103447295D02*
X55205333Y-103590152D01*
X55205333Y-103590152D02*
X55157714Y-103685390D01*
X55157714Y-103685390D02*
X55110095Y-103733009D01*
X55110095Y-103733009D02*
X55014857Y-103780628D01*
X55014857Y-103780628D02*
X54633905Y-103780628D01*
X56110095Y-103256819D02*
X55633905Y-103256819D01*
X55633905Y-103256819D02*
X55586286Y-103733009D01*
X55586286Y-103733009D02*
X55633905Y-103685390D01*
X55633905Y-103685390D02*
X55729143Y-103637771D01*
X55729143Y-103637771D02*
X55967238Y-103637771D01*
X55967238Y-103637771D02*
X56062476Y-103685390D01*
X56062476Y-103685390D02*
X56110095Y-103733009D01*
X56110095Y-103733009D02*
X56157714Y-103828247D01*
X56157714Y-103828247D02*
X56157714Y-104066342D01*
X56157714Y-104066342D02*
X56110095Y-104161580D01*
X56110095Y-104161580D02*
X56062476Y-104209200D01*
X56062476Y-104209200D02*
X55967238Y-104256819D01*
X55967238Y-104256819D02*
X55729143Y-104256819D01*
X55729143Y-104256819D02*
X55633905Y-104209200D01*
X55633905Y-104209200D02*
X55586286Y-104161580D01*
%TO.C,H4*%
X124238095Y-41654819D02*
X124238095Y-40654819D01*
X124238095Y-41131009D02*
X124809523Y-41131009D01*
X124809523Y-41654819D02*
X124809523Y-40654819D01*
X125714285Y-40988152D02*
X125714285Y-41654819D01*
X125476190Y-40607200D02*
X125238095Y-41321485D01*
X125238095Y-41321485D02*
X125857142Y-41321485D01*
%TO.C,C6*%
X61555333Y-100471580D02*
X61507714Y-100519200D01*
X61507714Y-100519200D02*
X61364857Y-100566819D01*
X61364857Y-100566819D02*
X61269619Y-100566819D01*
X61269619Y-100566819D02*
X61126762Y-100519200D01*
X61126762Y-100519200D02*
X61031524Y-100423961D01*
X61031524Y-100423961D02*
X60983905Y-100328723D01*
X60983905Y-100328723D02*
X60936286Y-100138247D01*
X60936286Y-100138247D02*
X60936286Y-99995390D01*
X60936286Y-99995390D02*
X60983905Y-99804914D01*
X60983905Y-99804914D02*
X61031524Y-99709676D01*
X61031524Y-99709676D02*
X61126762Y-99614438D01*
X61126762Y-99614438D02*
X61269619Y-99566819D01*
X61269619Y-99566819D02*
X61364857Y-99566819D01*
X61364857Y-99566819D02*
X61507714Y-99614438D01*
X61507714Y-99614438D02*
X61555333Y-99662057D01*
X62412476Y-99566819D02*
X62222000Y-99566819D01*
X62222000Y-99566819D02*
X62126762Y-99614438D01*
X62126762Y-99614438D02*
X62079143Y-99662057D01*
X62079143Y-99662057D02*
X61983905Y-99804914D01*
X61983905Y-99804914D02*
X61936286Y-99995390D01*
X61936286Y-99995390D02*
X61936286Y-100376342D01*
X61936286Y-100376342D02*
X61983905Y-100471580D01*
X61983905Y-100471580D02*
X62031524Y-100519200D01*
X62031524Y-100519200D02*
X62126762Y-100566819D01*
X62126762Y-100566819D02*
X62317238Y-100566819D01*
X62317238Y-100566819D02*
X62412476Y-100519200D01*
X62412476Y-100519200D02*
X62460095Y-100471580D01*
X62460095Y-100471580D02*
X62507714Y-100376342D01*
X62507714Y-100376342D02*
X62507714Y-100138247D01*
X62507714Y-100138247D02*
X62460095Y-100043009D01*
X62460095Y-100043009D02*
X62412476Y-99995390D01*
X62412476Y-99995390D02*
X62317238Y-99947771D01*
X62317238Y-99947771D02*
X62126762Y-99947771D01*
X62126762Y-99947771D02*
X62031524Y-99995390D01*
X62031524Y-99995390D02*
X61983905Y-100043009D01*
X61983905Y-100043009D02*
X61936286Y-100138247D01*
%TO.C,U4*%
X121403819Y-45470904D02*
X122213342Y-45470904D01*
X122213342Y-45470904D02*
X122308580Y-45423285D01*
X122308580Y-45423285D02*
X122356200Y-45375666D01*
X122356200Y-45375666D02*
X122403819Y-45280428D01*
X122403819Y-45280428D02*
X122403819Y-45089952D01*
X122403819Y-45089952D02*
X122356200Y-44994714D01*
X122356200Y-44994714D02*
X122308580Y-44947095D01*
X122308580Y-44947095D02*
X122213342Y-44899476D01*
X122213342Y-44899476D02*
X121403819Y-44899476D01*
X121737152Y-43994714D02*
X122403819Y-43994714D01*
X121356200Y-44232809D02*
X122070485Y-44470904D01*
X122070485Y-44470904D02*
X122070485Y-43851857D01*
%TO.C,C4*%
X53895333Y-84905580D02*
X53847714Y-84953200D01*
X53847714Y-84953200D02*
X53704857Y-85000819D01*
X53704857Y-85000819D02*
X53609619Y-85000819D01*
X53609619Y-85000819D02*
X53466762Y-84953200D01*
X53466762Y-84953200D02*
X53371524Y-84857961D01*
X53371524Y-84857961D02*
X53323905Y-84762723D01*
X53323905Y-84762723D02*
X53276286Y-84572247D01*
X53276286Y-84572247D02*
X53276286Y-84429390D01*
X53276286Y-84429390D02*
X53323905Y-84238914D01*
X53323905Y-84238914D02*
X53371524Y-84143676D01*
X53371524Y-84143676D02*
X53466762Y-84048438D01*
X53466762Y-84048438D02*
X53609619Y-84000819D01*
X53609619Y-84000819D02*
X53704857Y-84000819D01*
X53704857Y-84000819D02*
X53847714Y-84048438D01*
X53847714Y-84048438D02*
X53895333Y-84096057D01*
X54752476Y-84334152D02*
X54752476Y-85000819D01*
X54514381Y-83953200D02*
X54276286Y-84667485D01*
X54276286Y-84667485D02*
X54895333Y-84667485D01*
%TO.C,J6*%
X150034666Y-80702819D02*
X150034666Y-81417104D01*
X150034666Y-81417104D02*
X149987047Y-81559961D01*
X149987047Y-81559961D02*
X149891809Y-81655200D01*
X149891809Y-81655200D02*
X149748952Y-81702819D01*
X149748952Y-81702819D02*
X149653714Y-81702819D01*
X150939428Y-80702819D02*
X150748952Y-80702819D01*
X150748952Y-80702819D02*
X150653714Y-80750438D01*
X150653714Y-80750438D02*
X150606095Y-80798057D01*
X150606095Y-80798057D02*
X150510857Y-80940914D01*
X150510857Y-80940914D02*
X150463238Y-81131390D01*
X150463238Y-81131390D02*
X150463238Y-81512342D01*
X150463238Y-81512342D02*
X150510857Y-81607580D01*
X150510857Y-81607580D02*
X150558476Y-81655200D01*
X150558476Y-81655200D02*
X150653714Y-81702819D01*
X150653714Y-81702819D02*
X150844190Y-81702819D01*
X150844190Y-81702819D02*
X150939428Y-81655200D01*
X150939428Y-81655200D02*
X150987047Y-81607580D01*
X150987047Y-81607580D02*
X151034666Y-81512342D01*
X151034666Y-81512342D02*
X151034666Y-81274247D01*
X151034666Y-81274247D02*
X150987047Y-81179009D01*
X150987047Y-81179009D02*
X150939428Y-81131390D01*
X150939428Y-81131390D02*
X150844190Y-81083771D01*
X150844190Y-81083771D02*
X150653714Y-81083771D01*
X150653714Y-81083771D02*
X150558476Y-81131390D01*
X150558476Y-81131390D02*
X150510857Y-81179009D01*
X150510857Y-81179009D02*
X150463238Y-81274247D01*
%TO.C,RN1*%
X106512523Y-88706819D02*
X106179190Y-88230628D01*
X105941095Y-88706819D02*
X105941095Y-87706819D01*
X105941095Y-87706819D02*
X106322047Y-87706819D01*
X106322047Y-87706819D02*
X106417285Y-87754438D01*
X106417285Y-87754438D02*
X106464904Y-87802057D01*
X106464904Y-87802057D02*
X106512523Y-87897295D01*
X106512523Y-87897295D02*
X106512523Y-88040152D01*
X106512523Y-88040152D02*
X106464904Y-88135390D01*
X106464904Y-88135390D02*
X106417285Y-88183009D01*
X106417285Y-88183009D02*
X106322047Y-88230628D01*
X106322047Y-88230628D02*
X105941095Y-88230628D01*
X106941095Y-88706819D02*
X106941095Y-87706819D01*
X106941095Y-87706819D02*
X107512523Y-88706819D01*
X107512523Y-88706819D02*
X107512523Y-87706819D01*
X108512523Y-88706819D02*
X107941095Y-88706819D01*
X108226809Y-88706819D02*
X108226809Y-87706819D01*
X108226809Y-87706819D02*
X108131571Y-87849676D01*
X108131571Y-87849676D02*
X108036333Y-87944914D01*
X108036333Y-87944914D02*
X107941095Y-87992533D01*
%TO.C,C5*%
X54189333Y-104971580D02*
X54141714Y-105019200D01*
X54141714Y-105019200D02*
X53998857Y-105066819D01*
X53998857Y-105066819D02*
X53903619Y-105066819D01*
X53903619Y-105066819D02*
X53760762Y-105019200D01*
X53760762Y-105019200D02*
X53665524Y-104923961D01*
X53665524Y-104923961D02*
X53617905Y-104828723D01*
X53617905Y-104828723D02*
X53570286Y-104638247D01*
X53570286Y-104638247D02*
X53570286Y-104495390D01*
X53570286Y-104495390D02*
X53617905Y-104304914D01*
X53617905Y-104304914D02*
X53665524Y-104209676D01*
X53665524Y-104209676D02*
X53760762Y-104114438D01*
X53760762Y-104114438D02*
X53903619Y-104066819D01*
X53903619Y-104066819D02*
X53998857Y-104066819D01*
X53998857Y-104066819D02*
X54141714Y-104114438D01*
X54141714Y-104114438D02*
X54189333Y-104162057D01*
X55094095Y-104066819D02*
X54617905Y-104066819D01*
X54617905Y-104066819D02*
X54570286Y-104543009D01*
X54570286Y-104543009D02*
X54617905Y-104495390D01*
X54617905Y-104495390D02*
X54713143Y-104447771D01*
X54713143Y-104447771D02*
X54951238Y-104447771D01*
X54951238Y-104447771D02*
X55046476Y-104495390D01*
X55046476Y-104495390D02*
X55094095Y-104543009D01*
X55094095Y-104543009D02*
X55141714Y-104638247D01*
X55141714Y-104638247D02*
X55141714Y-104876342D01*
X55141714Y-104876342D02*
X55094095Y-104971580D01*
X55094095Y-104971580D02*
X55046476Y-105019200D01*
X55046476Y-105019200D02*
X54951238Y-105066819D01*
X54951238Y-105066819D02*
X54713143Y-105066819D01*
X54713143Y-105066819D02*
X54617905Y-105019200D01*
X54617905Y-105019200D02*
X54570286Y-104971580D01*
%TO.C,Y2*%
X57523809Y-101503628D02*
X57523809Y-101979819D01*
X57190476Y-100979819D02*
X57523809Y-101503628D01*
X57523809Y-101503628D02*
X57857142Y-100979819D01*
X58142857Y-101075057D02*
X58190476Y-101027438D01*
X58190476Y-101027438D02*
X58285714Y-100979819D01*
X58285714Y-100979819D02*
X58523809Y-100979819D01*
X58523809Y-100979819D02*
X58619047Y-101027438D01*
X58619047Y-101027438D02*
X58666666Y-101075057D01*
X58666666Y-101075057D02*
X58714285Y-101170295D01*
X58714285Y-101170295D02*
X58714285Y-101265533D01*
X58714285Y-101265533D02*
X58666666Y-101408390D01*
X58666666Y-101408390D02*
X58095238Y-101979819D01*
X58095238Y-101979819D02*
X58714285Y-101979819D01*
%TO.C,H1*%
X79238095Y-106654819D02*
X79238095Y-105654819D01*
X79238095Y-106131009D02*
X79809523Y-106131009D01*
X79809523Y-106654819D02*
X79809523Y-105654819D01*
X80809523Y-106654819D02*
X80238095Y-106654819D01*
X80523809Y-106654819D02*
X80523809Y-105654819D01*
X80523809Y-105654819D02*
X80428571Y-105797676D01*
X80428571Y-105797676D02*
X80333333Y-105892914D01*
X80333333Y-105892914D02*
X80238095Y-105940533D01*
%TO.C,C8*%
X107583580Y-94146666D02*
X107631200Y-94194285D01*
X107631200Y-94194285D02*
X107678819Y-94337142D01*
X107678819Y-94337142D02*
X107678819Y-94432380D01*
X107678819Y-94432380D02*
X107631200Y-94575237D01*
X107631200Y-94575237D02*
X107535961Y-94670475D01*
X107535961Y-94670475D02*
X107440723Y-94718094D01*
X107440723Y-94718094D02*
X107250247Y-94765713D01*
X107250247Y-94765713D02*
X107107390Y-94765713D01*
X107107390Y-94765713D02*
X106916914Y-94718094D01*
X106916914Y-94718094D02*
X106821676Y-94670475D01*
X106821676Y-94670475D02*
X106726438Y-94575237D01*
X106726438Y-94575237D02*
X106678819Y-94432380D01*
X106678819Y-94432380D02*
X106678819Y-94337142D01*
X106678819Y-94337142D02*
X106726438Y-94194285D01*
X106726438Y-94194285D02*
X106774057Y-94146666D01*
X107107390Y-93575237D02*
X107059771Y-93670475D01*
X107059771Y-93670475D02*
X107012152Y-93718094D01*
X107012152Y-93718094D02*
X106916914Y-93765713D01*
X106916914Y-93765713D02*
X106869295Y-93765713D01*
X106869295Y-93765713D02*
X106774057Y-93718094D01*
X106774057Y-93718094D02*
X106726438Y-93670475D01*
X106726438Y-93670475D02*
X106678819Y-93575237D01*
X106678819Y-93575237D02*
X106678819Y-93384761D01*
X106678819Y-93384761D02*
X106726438Y-93289523D01*
X106726438Y-93289523D02*
X106774057Y-93241904D01*
X106774057Y-93241904D02*
X106869295Y-93194285D01*
X106869295Y-93194285D02*
X106916914Y-93194285D01*
X106916914Y-93194285D02*
X107012152Y-93241904D01*
X107012152Y-93241904D02*
X107059771Y-93289523D01*
X107059771Y-93289523D02*
X107107390Y-93384761D01*
X107107390Y-93384761D02*
X107107390Y-93575237D01*
X107107390Y-93575237D02*
X107155009Y-93670475D01*
X107155009Y-93670475D02*
X107202628Y-93718094D01*
X107202628Y-93718094D02*
X107297866Y-93765713D01*
X107297866Y-93765713D02*
X107488342Y-93765713D01*
X107488342Y-93765713D02*
X107583580Y-93718094D01*
X107583580Y-93718094D02*
X107631200Y-93670475D01*
X107631200Y-93670475D02*
X107678819Y-93575237D01*
X107678819Y-93575237D02*
X107678819Y-93384761D01*
X107678819Y-93384761D02*
X107631200Y-93289523D01*
X107631200Y-93289523D02*
X107583580Y-93241904D01*
X107583580Y-93241904D02*
X107488342Y-93194285D01*
X107488342Y-93194285D02*
X107297866Y-93194285D01*
X107297866Y-93194285D02*
X107202628Y-93241904D01*
X107202628Y-93241904D02*
X107155009Y-93289523D01*
X107155009Y-93289523D02*
X107107390Y-93384761D01*
%TO.C,Y1*%
X152093628Y-64484190D02*
X152569819Y-64484190D01*
X151569819Y-64817523D02*
X152093628Y-64484190D01*
X152093628Y-64484190D02*
X151569819Y-64150857D01*
X152569819Y-63293714D02*
X152569819Y-63865142D01*
X152569819Y-63579428D02*
X151569819Y-63579428D01*
X151569819Y-63579428D02*
X151712676Y-63674666D01*
X151712676Y-63674666D02*
X151807914Y-63769904D01*
X151807914Y-63769904D02*
X151855533Y-63865142D01*
%TO.C,J4*%
X72774819Y-89315833D02*
X73489104Y-89315833D01*
X73489104Y-89315833D02*
X73631961Y-89363452D01*
X73631961Y-89363452D02*
X73727200Y-89458690D01*
X73727200Y-89458690D02*
X73774819Y-89601547D01*
X73774819Y-89601547D02*
X73774819Y-89696785D01*
X73108152Y-88411071D02*
X73774819Y-88411071D01*
X72727200Y-88649166D02*
X73441485Y-88887261D01*
X73441485Y-88887261D02*
X73441485Y-88268214D01*
%TO.C,H5*%
X34238095Y-76654819D02*
X34238095Y-75654819D01*
X34238095Y-76131009D02*
X34809523Y-76131009D01*
X34809523Y-76654819D02*
X34809523Y-75654819D01*
X35761904Y-75654819D02*
X35285714Y-75654819D01*
X35285714Y-75654819D02*
X35238095Y-76131009D01*
X35238095Y-76131009D02*
X35285714Y-76083390D01*
X35285714Y-76083390D02*
X35380952Y-76035771D01*
X35380952Y-76035771D02*
X35619047Y-76035771D01*
X35619047Y-76035771D02*
X35714285Y-76083390D01*
X35714285Y-76083390D02*
X35761904Y-76131009D01*
X35761904Y-76131009D02*
X35809523Y-76226247D01*
X35809523Y-76226247D02*
X35809523Y-76464342D01*
X35809523Y-76464342D02*
X35761904Y-76559580D01*
X35761904Y-76559580D02*
X35714285Y-76607200D01*
X35714285Y-76607200D02*
X35619047Y-76654819D01*
X35619047Y-76654819D02*
X35380952Y-76654819D01*
X35380952Y-76654819D02*
X35285714Y-76607200D01*
X35285714Y-76607200D02*
X35238095Y-76559580D01*
%TO.C,J2*%
X132924819Y-67103333D02*
X133639104Y-67103333D01*
X133639104Y-67103333D02*
X133781961Y-67150952D01*
X133781961Y-67150952D02*
X133877200Y-67246190D01*
X133877200Y-67246190D02*
X133924819Y-67389047D01*
X133924819Y-67389047D02*
X133924819Y-67484285D01*
X133020057Y-66674761D02*
X132972438Y-66627142D01*
X132972438Y-66627142D02*
X132924819Y-66531904D01*
X132924819Y-66531904D02*
X132924819Y-66293809D01*
X132924819Y-66293809D02*
X132972438Y-66198571D01*
X132972438Y-66198571D02*
X133020057Y-66150952D01*
X133020057Y-66150952D02*
X133115295Y-66103333D01*
X133115295Y-66103333D02*
X133210533Y-66103333D01*
X133210533Y-66103333D02*
X133353390Y-66150952D01*
X133353390Y-66150952D02*
X133924819Y-66722380D01*
X133924819Y-66722380D02*
X133924819Y-66103333D01*
%TO.C,R3*%
X35394819Y-91910666D02*
X34918628Y-92243999D01*
X35394819Y-92482094D02*
X34394819Y-92482094D01*
X34394819Y-92482094D02*
X34394819Y-92101142D01*
X34394819Y-92101142D02*
X34442438Y-92005904D01*
X34442438Y-92005904D02*
X34490057Y-91958285D01*
X34490057Y-91958285D02*
X34585295Y-91910666D01*
X34585295Y-91910666D02*
X34728152Y-91910666D01*
X34728152Y-91910666D02*
X34823390Y-91958285D01*
X34823390Y-91958285D02*
X34871009Y-92005904D01*
X34871009Y-92005904D02*
X34918628Y-92101142D01*
X34918628Y-92101142D02*
X34918628Y-92482094D01*
X34394819Y-91577332D02*
X34394819Y-90958285D01*
X34394819Y-90958285D02*
X34775771Y-91291618D01*
X34775771Y-91291618D02*
X34775771Y-91148761D01*
X34775771Y-91148761D02*
X34823390Y-91053523D01*
X34823390Y-91053523D02*
X34871009Y-91005904D01*
X34871009Y-91005904D02*
X34966247Y-90958285D01*
X34966247Y-90958285D02*
X35204342Y-90958285D01*
X35204342Y-90958285D02*
X35299580Y-91005904D01*
X35299580Y-91005904D02*
X35347200Y-91053523D01*
X35347200Y-91053523D02*
X35394819Y-91148761D01*
X35394819Y-91148761D02*
X35394819Y-91434475D01*
X35394819Y-91434475D02*
X35347200Y-91529713D01*
X35347200Y-91529713D02*
X35299580Y-91577332D01*
%TO.C,J7*%
X37954166Y-115354819D02*
X37954166Y-116069104D01*
X37954166Y-116069104D02*
X37906547Y-116211961D01*
X37906547Y-116211961D02*
X37811309Y-116307200D01*
X37811309Y-116307200D02*
X37668452Y-116354819D01*
X37668452Y-116354819D02*
X37573214Y-116354819D01*
X38335119Y-115354819D02*
X39001785Y-115354819D01*
X39001785Y-115354819D02*
X38573214Y-116354819D01*
%TO.C,C2*%
X151271580Y-60110666D02*
X151319200Y-60158285D01*
X151319200Y-60158285D02*
X151366819Y-60301142D01*
X151366819Y-60301142D02*
X151366819Y-60396380D01*
X151366819Y-60396380D02*
X151319200Y-60539237D01*
X151319200Y-60539237D02*
X151223961Y-60634475D01*
X151223961Y-60634475D02*
X151128723Y-60682094D01*
X151128723Y-60682094D02*
X150938247Y-60729713D01*
X150938247Y-60729713D02*
X150795390Y-60729713D01*
X150795390Y-60729713D02*
X150604914Y-60682094D01*
X150604914Y-60682094D02*
X150509676Y-60634475D01*
X150509676Y-60634475D02*
X150414438Y-60539237D01*
X150414438Y-60539237D02*
X150366819Y-60396380D01*
X150366819Y-60396380D02*
X150366819Y-60301142D01*
X150366819Y-60301142D02*
X150414438Y-60158285D01*
X150414438Y-60158285D02*
X150462057Y-60110666D01*
X150462057Y-59729713D02*
X150414438Y-59682094D01*
X150414438Y-59682094D02*
X150366819Y-59586856D01*
X150366819Y-59586856D02*
X150366819Y-59348761D01*
X150366819Y-59348761D02*
X150414438Y-59253523D01*
X150414438Y-59253523D02*
X150462057Y-59205904D01*
X150462057Y-59205904D02*
X150557295Y-59158285D01*
X150557295Y-59158285D02*
X150652533Y-59158285D01*
X150652533Y-59158285D02*
X150795390Y-59205904D01*
X150795390Y-59205904D02*
X151366819Y-59777332D01*
X151366819Y-59777332D02*
X151366819Y-59158285D01*
%TO.C,U3*%
X33446819Y-57571904D02*
X34256342Y-57571904D01*
X34256342Y-57571904D02*
X34351580Y-57524285D01*
X34351580Y-57524285D02*
X34399200Y-57476666D01*
X34399200Y-57476666D02*
X34446819Y-57381428D01*
X34446819Y-57381428D02*
X34446819Y-57190952D01*
X34446819Y-57190952D02*
X34399200Y-57095714D01*
X34399200Y-57095714D02*
X34351580Y-57048095D01*
X34351580Y-57048095D02*
X34256342Y-57000476D01*
X34256342Y-57000476D02*
X33446819Y-57000476D01*
X33446819Y-56619523D02*
X33446819Y-56000476D01*
X33446819Y-56000476D02*
X33827771Y-56333809D01*
X33827771Y-56333809D02*
X33827771Y-56190952D01*
X33827771Y-56190952D02*
X33875390Y-56095714D01*
X33875390Y-56095714D02*
X33923009Y-56048095D01*
X33923009Y-56048095D02*
X34018247Y-56000476D01*
X34018247Y-56000476D02*
X34256342Y-56000476D01*
X34256342Y-56000476D02*
X34351580Y-56048095D01*
X34351580Y-56048095D02*
X34399200Y-56095714D01*
X34399200Y-56095714D02*
X34446819Y-56190952D01*
X34446819Y-56190952D02*
X34446819Y-56476666D01*
X34446819Y-56476666D02*
X34399200Y-56571904D01*
X34399200Y-56571904D02*
X34351580Y-56619523D01*
%TO.C,U5*%
X33446819Y-89915904D02*
X34256342Y-89915904D01*
X34256342Y-89915904D02*
X34351580Y-89868285D01*
X34351580Y-89868285D02*
X34399200Y-89820666D01*
X34399200Y-89820666D02*
X34446819Y-89725428D01*
X34446819Y-89725428D02*
X34446819Y-89534952D01*
X34446819Y-89534952D02*
X34399200Y-89439714D01*
X34399200Y-89439714D02*
X34351580Y-89392095D01*
X34351580Y-89392095D02*
X34256342Y-89344476D01*
X34256342Y-89344476D02*
X33446819Y-89344476D01*
X33446819Y-88392095D02*
X33446819Y-88868285D01*
X33446819Y-88868285D02*
X33923009Y-88915904D01*
X33923009Y-88915904D02*
X33875390Y-88868285D01*
X33875390Y-88868285D02*
X33827771Y-88773047D01*
X33827771Y-88773047D02*
X33827771Y-88534952D01*
X33827771Y-88534952D02*
X33875390Y-88439714D01*
X33875390Y-88439714D02*
X33923009Y-88392095D01*
X33923009Y-88392095D02*
X34018247Y-88344476D01*
X34018247Y-88344476D02*
X34256342Y-88344476D01*
X34256342Y-88344476D02*
X34351580Y-88392095D01*
X34351580Y-88392095D02*
X34399200Y-88439714D01*
X34399200Y-88439714D02*
X34446819Y-88534952D01*
X34446819Y-88534952D02*
X34446819Y-88773047D01*
X34446819Y-88773047D02*
X34399200Y-88868285D01*
X34399200Y-88868285D02*
X34351580Y-88915904D01*
%TO.C,C3*%
X35609580Y-67666666D02*
X35657200Y-67714285D01*
X35657200Y-67714285D02*
X35704819Y-67857142D01*
X35704819Y-67857142D02*
X35704819Y-67952380D01*
X35704819Y-67952380D02*
X35657200Y-68095237D01*
X35657200Y-68095237D02*
X35561961Y-68190475D01*
X35561961Y-68190475D02*
X35466723Y-68238094D01*
X35466723Y-68238094D02*
X35276247Y-68285713D01*
X35276247Y-68285713D02*
X35133390Y-68285713D01*
X35133390Y-68285713D02*
X34942914Y-68238094D01*
X34942914Y-68238094D02*
X34847676Y-68190475D01*
X34847676Y-68190475D02*
X34752438Y-68095237D01*
X34752438Y-68095237D02*
X34704819Y-67952380D01*
X34704819Y-67952380D02*
X34704819Y-67857142D01*
X34704819Y-67857142D02*
X34752438Y-67714285D01*
X34752438Y-67714285D02*
X34800057Y-67666666D01*
X34704819Y-67333332D02*
X34704819Y-66714285D01*
X34704819Y-66714285D02*
X35085771Y-67047618D01*
X35085771Y-67047618D02*
X35085771Y-66904761D01*
X35085771Y-66904761D02*
X35133390Y-66809523D01*
X35133390Y-66809523D02*
X35181009Y-66761904D01*
X35181009Y-66761904D02*
X35276247Y-66714285D01*
X35276247Y-66714285D02*
X35514342Y-66714285D01*
X35514342Y-66714285D02*
X35609580Y-66761904D01*
X35609580Y-66761904D02*
X35657200Y-66809523D01*
X35657200Y-66809523D02*
X35704819Y-66904761D01*
X35704819Y-66904761D02*
X35704819Y-67190475D01*
X35704819Y-67190475D02*
X35657200Y-67285713D01*
X35657200Y-67285713D02*
X35609580Y-67333332D01*
%TO.C,R6*%
X55205333Y-107304819D02*
X54872000Y-106828628D01*
X54633905Y-107304819D02*
X54633905Y-106304819D01*
X54633905Y-106304819D02*
X55014857Y-106304819D01*
X55014857Y-106304819D02*
X55110095Y-106352438D01*
X55110095Y-106352438D02*
X55157714Y-106400057D01*
X55157714Y-106400057D02*
X55205333Y-106495295D01*
X55205333Y-106495295D02*
X55205333Y-106638152D01*
X55205333Y-106638152D02*
X55157714Y-106733390D01*
X55157714Y-106733390D02*
X55110095Y-106781009D01*
X55110095Y-106781009D02*
X55014857Y-106828628D01*
X55014857Y-106828628D02*
X54633905Y-106828628D01*
X56062476Y-106304819D02*
X55872000Y-106304819D01*
X55872000Y-106304819D02*
X55776762Y-106352438D01*
X55776762Y-106352438D02*
X55729143Y-106400057D01*
X55729143Y-106400057D02*
X55633905Y-106542914D01*
X55633905Y-106542914D02*
X55586286Y-106733390D01*
X55586286Y-106733390D02*
X55586286Y-107114342D01*
X55586286Y-107114342D02*
X55633905Y-107209580D01*
X55633905Y-107209580D02*
X55681524Y-107257200D01*
X55681524Y-107257200D02*
X55776762Y-107304819D01*
X55776762Y-107304819D02*
X55967238Y-107304819D01*
X55967238Y-107304819D02*
X56062476Y-107257200D01*
X56062476Y-107257200D02*
X56110095Y-107209580D01*
X56110095Y-107209580D02*
X56157714Y-107114342D01*
X56157714Y-107114342D02*
X56157714Y-106876247D01*
X56157714Y-106876247D02*
X56110095Y-106781009D01*
X56110095Y-106781009D02*
X56062476Y-106733390D01*
X56062476Y-106733390D02*
X55967238Y-106685771D01*
X55967238Y-106685771D02*
X55776762Y-106685771D01*
X55776762Y-106685771D02*
X55681524Y-106733390D01*
X55681524Y-106733390D02*
X55633905Y-106781009D01*
X55633905Y-106781009D02*
X55586286Y-106876247D01*
%TO.C,J5*%
X131530819Y-44021333D02*
X132245104Y-44021333D01*
X132245104Y-44021333D02*
X132387961Y-44068952D01*
X132387961Y-44068952D02*
X132483200Y-44164190D01*
X132483200Y-44164190D02*
X132530819Y-44307047D01*
X132530819Y-44307047D02*
X132530819Y-44402285D01*
X131530819Y-43068952D02*
X131530819Y-43545142D01*
X131530819Y-43545142D02*
X132007009Y-43592761D01*
X132007009Y-43592761D02*
X131959390Y-43545142D01*
X131959390Y-43545142D02*
X131911771Y-43449904D01*
X131911771Y-43449904D02*
X131911771Y-43211809D01*
X131911771Y-43211809D02*
X131959390Y-43116571D01*
X131959390Y-43116571D02*
X132007009Y-43068952D01*
X132007009Y-43068952D02*
X132102247Y-43021333D01*
X132102247Y-43021333D02*
X132340342Y-43021333D01*
X132340342Y-43021333D02*
X132435580Y-43068952D01*
X132435580Y-43068952D02*
X132483200Y-43116571D01*
X132483200Y-43116571D02*
X132530819Y-43211809D01*
X132530819Y-43211809D02*
X132530819Y-43449904D01*
X132530819Y-43449904D02*
X132483200Y-43545142D01*
X132483200Y-43545142D02*
X132435580Y-43592761D01*
%TO.C,C11*%
X101054491Y-89343580D02*
X101006872Y-89391200D01*
X101006872Y-89391200D02*
X100864015Y-89438819D01*
X100864015Y-89438819D02*
X100768777Y-89438819D01*
X100768777Y-89438819D02*
X100625920Y-89391200D01*
X100625920Y-89391200D02*
X100530682Y-89295961D01*
X100530682Y-89295961D02*
X100483063Y-89200723D01*
X100483063Y-89200723D02*
X100435444Y-89010247D01*
X100435444Y-89010247D02*
X100435444Y-88867390D01*
X100435444Y-88867390D02*
X100483063Y-88676914D01*
X100483063Y-88676914D02*
X100530682Y-88581676D01*
X100530682Y-88581676D02*
X100625920Y-88486438D01*
X100625920Y-88486438D02*
X100768777Y-88438819D01*
X100768777Y-88438819D02*
X100864015Y-88438819D01*
X100864015Y-88438819D02*
X101006872Y-88486438D01*
X101006872Y-88486438D02*
X101054491Y-88534057D01*
X102006872Y-89438819D02*
X101435444Y-89438819D01*
X101721158Y-89438819D02*
X101721158Y-88438819D01*
X101721158Y-88438819D02*
X101625920Y-88581676D01*
X101625920Y-88581676D02*
X101530682Y-88676914D01*
X101530682Y-88676914D02*
X101435444Y-88724533D01*
X102959253Y-89438819D02*
X102387825Y-89438819D01*
X102673539Y-89438819D02*
X102673539Y-88438819D01*
X102673539Y-88438819D02*
X102578301Y-88581676D01*
X102578301Y-88581676D02*
X102483063Y-88676914D01*
X102483063Y-88676914D02*
X102387825Y-88724533D01*
%TO.C,C1*%
X151571580Y-67680666D02*
X151619200Y-67728285D01*
X151619200Y-67728285D02*
X151666819Y-67871142D01*
X151666819Y-67871142D02*
X151666819Y-67966380D01*
X151666819Y-67966380D02*
X151619200Y-68109237D01*
X151619200Y-68109237D02*
X151523961Y-68204475D01*
X151523961Y-68204475D02*
X151428723Y-68252094D01*
X151428723Y-68252094D02*
X151238247Y-68299713D01*
X151238247Y-68299713D02*
X151095390Y-68299713D01*
X151095390Y-68299713D02*
X150904914Y-68252094D01*
X150904914Y-68252094D02*
X150809676Y-68204475D01*
X150809676Y-68204475D02*
X150714438Y-68109237D01*
X150714438Y-68109237D02*
X150666819Y-67966380D01*
X150666819Y-67966380D02*
X150666819Y-67871142D01*
X150666819Y-67871142D02*
X150714438Y-67728285D01*
X150714438Y-67728285D02*
X150762057Y-67680666D01*
X151666819Y-66728285D02*
X151666819Y-67299713D01*
X151666819Y-67013999D02*
X150666819Y-67013999D01*
X150666819Y-67013999D02*
X150809676Y-67109237D01*
X150809676Y-67109237D02*
X150904914Y-67204475D01*
X150904914Y-67204475D02*
X150952533Y-67299713D01*
%TO.C,H2*%
X139238095Y-106654819D02*
X139238095Y-105654819D01*
X139238095Y-106131009D02*
X139809523Y-106131009D01*
X139809523Y-106654819D02*
X139809523Y-105654819D01*
X140238095Y-105750057D02*
X140285714Y-105702438D01*
X140285714Y-105702438D02*
X140380952Y-105654819D01*
X140380952Y-105654819D02*
X140619047Y-105654819D01*
X140619047Y-105654819D02*
X140714285Y-105702438D01*
X140714285Y-105702438D02*
X140761904Y-105750057D01*
X140761904Y-105750057D02*
X140809523Y-105845295D01*
X140809523Y-105845295D02*
X140809523Y-105940533D01*
X140809523Y-105940533D02*
X140761904Y-106083390D01*
X140761904Y-106083390D02*
X140190476Y-106654819D01*
X140190476Y-106654819D02*
X140809523Y-106654819D01*
%TO.C,R4*%
X49454819Y-93852666D02*
X48978628Y-94185999D01*
X49454819Y-94424094D02*
X48454819Y-94424094D01*
X48454819Y-94424094D02*
X48454819Y-94043142D01*
X48454819Y-94043142D02*
X48502438Y-93947904D01*
X48502438Y-93947904D02*
X48550057Y-93900285D01*
X48550057Y-93900285D02*
X48645295Y-93852666D01*
X48645295Y-93852666D02*
X48788152Y-93852666D01*
X48788152Y-93852666D02*
X48883390Y-93900285D01*
X48883390Y-93900285D02*
X48931009Y-93947904D01*
X48931009Y-93947904D02*
X48978628Y-94043142D01*
X48978628Y-94043142D02*
X48978628Y-94424094D01*
X48788152Y-92995523D02*
X49454819Y-92995523D01*
X48407200Y-93233618D02*
X49121485Y-93471713D01*
X49121485Y-93471713D02*
X49121485Y-92852666D01*
%TO.C,U6*%
X30104819Y-45261904D02*
X30914342Y-45261904D01*
X30914342Y-45261904D02*
X31009580Y-45214285D01*
X31009580Y-45214285D02*
X31057200Y-45166666D01*
X31057200Y-45166666D02*
X31104819Y-45071428D01*
X31104819Y-45071428D02*
X31104819Y-44880952D01*
X31104819Y-44880952D02*
X31057200Y-44785714D01*
X31057200Y-44785714D02*
X31009580Y-44738095D01*
X31009580Y-44738095D02*
X30914342Y-44690476D01*
X30914342Y-44690476D02*
X30104819Y-44690476D01*
X30104819Y-43785714D02*
X30104819Y-43976190D01*
X30104819Y-43976190D02*
X30152438Y-44071428D01*
X30152438Y-44071428D02*
X30200057Y-44119047D01*
X30200057Y-44119047D02*
X30342914Y-44214285D01*
X30342914Y-44214285D02*
X30533390Y-44261904D01*
X30533390Y-44261904D02*
X30914342Y-44261904D01*
X30914342Y-44261904D02*
X31009580Y-44214285D01*
X31009580Y-44214285D02*
X31057200Y-44166666D01*
X31057200Y-44166666D02*
X31104819Y-44071428D01*
X31104819Y-44071428D02*
X31104819Y-43880952D01*
X31104819Y-43880952D02*
X31057200Y-43785714D01*
X31057200Y-43785714D02*
X31009580Y-43738095D01*
X31009580Y-43738095D02*
X30914342Y-43690476D01*
X30914342Y-43690476D02*
X30676247Y-43690476D01*
X30676247Y-43690476D02*
X30581009Y-43738095D01*
X30581009Y-43738095D02*
X30533390Y-43785714D01*
X30533390Y-43785714D02*
X30485771Y-43880952D01*
X30485771Y-43880952D02*
X30485771Y-44071428D01*
X30485771Y-44071428D02*
X30533390Y-44166666D01*
X30533390Y-44166666D02*
X30581009Y-44214285D01*
X30581009Y-44214285D02*
X30676247Y-44261904D01*
%TO.C,D2*%
X56329905Y-113714819D02*
X56329905Y-112714819D01*
X56329905Y-112714819D02*
X56568000Y-112714819D01*
X56568000Y-112714819D02*
X56710857Y-112762438D01*
X56710857Y-112762438D02*
X56806095Y-112857676D01*
X56806095Y-112857676D02*
X56853714Y-112952914D01*
X56853714Y-112952914D02*
X56901333Y-113143390D01*
X56901333Y-113143390D02*
X56901333Y-113286247D01*
X56901333Y-113286247D02*
X56853714Y-113476723D01*
X56853714Y-113476723D02*
X56806095Y-113571961D01*
X56806095Y-113571961D02*
X56710857Y-113667200D01*
X56710857Y-113667200D02*
X56568000Y-113714819D01*
X56568000Y-113714819D02*
X56329905Y-113714819D01*
X57282286Y-112810057D02*
X57329905Y-112762438D01*
X57329905Y-112762438D02*
X57425143Y-112714819D01*
X57425143Y-112714819D02*
X57663238Y-112714819D01*
X57663238Y-112714819D02*
X57758476Y-112762438D01*
X57758476Y-112762438D02*
X57806095Y-112810057D01*
X57806095Y-112810057D02*
X57853714Y-112905295D01*
X57853714Y-112905295D02*
X57853714Y-113000533D01*
X57853714Y-113000533D02*
X57806095Y-113143390D01*
X57806095Y-113143390D02*
X57234667Y-113714819D01*
X57234667Y-113714819D02*
X57853714Y-113714819D01*
X49906095Y-111314819D02*
X49906095Y-110314819D01*
X50477523Y-111314819D02*
X50048952Y-110743390D01*
X50477523Y-110314819D02*
X49906095Y-110886247D01*
%TO.C,U1*%
X134746095Y-87626819D02*
X134746095Y-88436342D01*
X134746095Y-88436342D02*
X134793714Y-88531580D01*
X134793714Y-88531580D02*
X134841333Y-88579200D01*
X134841333Y-88579200D02*
X134936571Y-88626819D01*
X134936571Y-88626819D02*
X135127047Y-88626819D01*
X135127047Y-88626819D02*
X135222285Y-88579200D01*
X135222285Y-88579200D02*
X135269904Y-88531580D01*
X135269904Y-88531580D02*
X135317523Y-88436342D01*
X135317523Y-88436342D02*
X135317523Y-87626819D01*
X136317523Y-88626819D02*
X135746095Y-88626819D01*
X136031809Y-88626819D02*
X136031809Y-87626819D01*
X136031809Y-87626819D02*
X135936571Y-87769676D01*
X135936571Y-87769676D02*
X135841333Y-87864914D01*
X135841333Y-87864914D02*
X135746095Y-87912533D01*
%TO.C,C7*%
X96661580Y-45124666D02*
X96709200Y-45172285D01*
X96709200Y-45172285D02*
X96756819Y-45315142D01*
X96756819Y-45315142D02*
X96756819Y-45410380D01*
X96756819Y-45410380D02*
X96709200Y-45553237D01*
X96709200Y-45553237D02*
X96613961Y-45648475D01*
X96613961Y-45648475D02*
X96518723Y-45696094D01*
X96518723Y-45696094D02*
X96328247Y-45743713D01*
X96328247Y-45743713D02*
X96185390Y-45743713D01*
X96185390Y-45743713D02*
X95994914Y-45696094D01*
X95994914Y-45696094D02*
X95899676Y-45648475D01*
X95899676Y-45648475D02*
X95804438Y-45553237D01*
X95804438Y-45553237D02*
X95756819Y-45410380D01*
X95756819Y-45410380D02*
X95756819Y-45315142D01*
X95756819Y-45315142D02*
X95804438Y-45172285D01*
X95804438Y-45172285D02*
X95852057Y-45124666D01*
X95756819Y-44791332D02*
X95756819Y-44124666D01*
X95756819Y-44124666D02*
X96756819Y-44553237D01*
D13*
%TO.C,R2*%
X121666000Y-84740000D02*
X121666000Y-85360000D01*
X122586000Y-83820000D02*
G75*
G03*
X122586000Y-83820000I-920000J0D01*
G01*
%TO.C,J8*%
X61204000Y-113286000D02*
X62204000Y-113286000D01*
X61704000Y-111266000D02*
X73424000Y-111266000D01*
X73424000Y-111266000D02*
X73424000Y-112476000D01*
X61204000Y-110766000D02*
X61204000Y-114786000D01*
X73424000Y-112476000D02*
X73924000Y-112476000D01*
X73924000Y-113286000D02*
X72924000Y-113286000D01*
X60904000Y-115086000D02*
X63404000Y-115086000D01*
X73924000Y-114786000D02*
X73924000Y-110766000D01*
X73924000Y-110766000D02*
X61204000Y-110766000D01*
X61204000Y-114786000D02*
X73924000Y-114786000D01*
X61204000Y-112476000D02*
X61704000Y-112476000D01*
X72924000Y-113286000D02*
X72924000Y-114786000D01*
X62204000Y-113286000D02*
X62204000Y-114786000D01*
X60904000Y-112586000D02*
X60904000Y-115086000D01*
X61704000Y-112476000D02*
X61704000Y-111266000D01*
%TO.C,C10*%
X60460000Y-45998349D02*
X57665000Y-45998349D01*
X65017000Y-46678349D02*
X62540000Y-46678349D01*
X65502000Y-45398349D02*
X62540000Y-45398349D01*
X65530000Y-45237349D02*
X62540000Y-45237349D01*
X60460000Y-46678349D02*
X57983000Y-46678349D01*
X60460000Y-46318349D02*
X57796000Y-46318349D01*
X64969000Y-46758349D02*
X62540000Y-46758349D01*
X65542000Y-45157349D02*
X62540000Y-45157349D01*
X60460000Y-45237349D02*
X57470000Y-45237349D01*
X60460000Y-46798349D02*
X58056000Y-46798349D01*
X65579000Y-44717349D02*
X57421000Y-44717349D01*
X64780000Y-47038349D02*
X58220000Y-47038349D01*
X60460000Y-46358349D02*
X57814000Y-46358349D01*
X60460000Y-46718349D02*
X58007000Y-46718349D01*
X60460000Y-44957349D02*
X57435000Y-44957349D01*
X62268000Y-48638349D02*
X60732000Y-48638349D01*
X60460000Y-46518349D02*
X57894000Y-46518349D01*
X64367000Y-47518349D02*
X58633000Y-47518349D01*
X64056000Y-47798349D02*
X58944000Y-47798349D01*
X60460000Y-45117349D02*
X57452000Y-45117349D01*
X60460000Y-46278349D02*
X57778000Y-46278349D01*
X65576000Y-44797349D02*
X57424000Y-44797349D01*
X64689000Y-47158349D02*
X58311000Y-47158349D01*
X65040000Y-46638349D02*
X62540000Y-46638349D01*
X64284000Y-47598349D02*
X58716000Y-47598349D01*
X65571000Y-44877349D02*
X62540000Y-44877349D01*
X64656000Y-47198349D02*
X58344000Y-47198349D01*
X65106000Y-46518349D02*
X62540000Y-46518349D01*
X65510000Y-45358349D02*
X62540000Y-45358349D01*
X60460000Y-45277349D02*
X57476000Y-45277349D01*
X62598000Y-48558349D02*
X60402000Y-48558349D01*
X60460000Y-45358349D02*
X57490000Y-45358349D01*
X65476000Y-45518349D02*
X62540000Y-45518349D01*
X65565000Y-44957349D02*
X62540000Y-44957349D01*
X64445000Y-47438349D02*
X58555000Y-47438349D01*
X65552000Y-45077349D02*
X62540000Y-45077349D01*
X63231000Y-48318349D02*
X59769000Y-48318349D01*
X65084000Y-46558349D02*
X62540000Y-46558349D01*
X65389000Y-45838349D02*
X62540000Y-45838349D01*
X65335000Y-45998349D02*
X62540000Y-45998349D01*
X65485000Y-45478349D02*
X62540000Y-45478349D01*
X65377000Y-45878349D02*
X62540000Y-45878349D01*
X60460000Y-45838349D02*
X57611000Y-45838349D01*
X60460000Y-46198349D02*
X57743000Y-46198349D01*
X60460000Y-46638349D02*
X57960000Y-46638349D01*
X64197000Y-47678349D02*
X58803000Y-47678349D01*
X60460000Y-46478349D02*
X57873000Y-46478349D01*
X60460000Y-46438349D02*
X57853000Y-46438349D01*
X60460000Y-45638349D02*
X57553000Y-45638349D01*
X65457000Y-45598349D02*
X62540000Y-45598349D01*
X60460000Y-45197349D02*
X57463000Y-45197349D01*
X65127000Y-46478349D02*
X62540000Y-46478349D01*
X65274000Y-46158349D02*
X62540000Y-46158349D01*
X60460000Y-45157349D02*
X57458000Y-45157349D01*
X60460000Y-46598349D02*
X57938000Y-46598349D01*
X63534000Y-48158349D02*
X59466000Y-48158349D01*
X65494000Y-45438349D02*
X62540000Y-45438349D01*
X65257000Y-46198349D02*
X62540000Y-46198349D01*
X65561000Y-44997349D02*
X62540000Y-44997349D01*
X60460000Y-45438349D02*
X57506000Y-45438349D01*
X65363000Y-45918349D02*
X62540000Y-45918349D01*
X64624000Y-47238349D02*
X58376000Y-47238349D01*
X65166000Y-46398349D02*
X62540000Y-46398349D01*
X65204000Y-46318349D02*
X62540000Y-46318349D01*
X65305000Y-46078349D02*
X62540000Y-46078349D01*
X65467000Y-45558349D02*
X62540000Y-45558349D01*
X60460000Y-45878349D02*
X57623000Y-45878349D01*
X65290000Y-46118349D02*
X62540000Y-46118349D01*
X60460000Y-46398349D02*
X57834000Y-46398349D01*
X60460000Y-45478349D02*
X57515000Y-45478349D01*
X65062000Y-46598349D02*
X62540000Y-46598349D01*
X64241000Y-47638349D02*
X58759000Y-47638349D01*
X63052000Y-48398349D02*
X59948000Y-48398349D01*
X64483000Y-47398349D02*
X58517000Y-47398349D01*
X60460000Y-46038349D02*
X57679000Y-46038349D01*
X60460000Y-45558349D02*
X57533000Y-45558349D01*
X65524000Y-45277349D02*
X62540000Y-45277349D01*
X60460000Y-46158349D02*
X57726000Y-46158349D01*
X60460000Y-45518349D02*
X57524000Y-45518349D01*
X65580000Y-44597349D02*
X57420000Y-44597349D01*
X60460000Y-45398349D02*
X57498000Y-45398349D01*
X60460000Y-45798349D02*
X57598000Y-45798349D01*
X65447000Y-45638349D02*
X62540000Y-45638349D01*
X63464000Y-48198349D02*
X59536000Y-48198349D01*
X63787000Y-47998349D02*
X59213000Y-47998349D01*
X64993000Y-46718349D02*
X62540000Y-46718349D01*
X62033000Y-48678349D02*
X60967000Y-48678349D01*
X64918000Y-46838349D02*
X62540000Y-46838349D01*
X65580000Y-44637349D02*
X57420000Y-44637349D01*
X60460000Y-44837349D02*
X57426000Y-44837349D01*
X64326000Y-47558349D02*
X58674000Y-47558349D01*
X63954000Y-47878349D02*
X59046000Y-47878349D01*
X60460000Y-46078349D02*
X57695000Y-46078349D01*
X65350000Y-45958349D02*
X62540000Y-45958349D01*
X65517000Y-45318349D02*
X62540000Y-45318349D01*
X62448000Y-48598349D02*
X60552000Y-48598349D01*
X60460000Y-46758349D02*
X58031000Y-46758349D01*
X62846000Y-48478349D02*
X60154000Y-48478349D01*
X60460000Y-45718349D02*
X57575000Y-45718349D01*
X64005000Y-47838349D02*
X58995000Y-47838349D01*
X60460000Y-45318349D02*
X57483000Y-45318349D01*
X64407000Y-47478349D02*
X58593000Y-47478349D01*
X60460000Y-44917349D02*
X57432000Y-44917349D01*
X62729000Y-48518349D02*
X60271000Y-48518349D01*
X60460000Y-44877349D02*
X57429000Y-44877349D01*
X65568000Y-44917349D02*
X62540000Y-44917349D01*
X62953000Y-48438349D02*
X60047000Y-48438349D01*
X64838000Y-46958349D02*
X58162000Y-46958349D01*
X60460000Y-44997349D02*
X57439000Y-44997349D01*
X63728000Y-48038349D02*
X59272000Y-48038349D01*
X63900000Y-47918349D02*
X59100000Y-47918349D01*
X60460000Y-45758349D02*
X57586000Y-45758349D01*
X64750000Y-47078349D02*
X58250000Y-47078349D01*
X64892000Y-46878349D02*
X62540000Y-46878349D01*
X60460000Y-45598349D02*
X57543000Y-45598349D01*
X60460000Y-45678349D02*
X57564000Y-45678349D01*
X63666000Y-48078349D02*
X59334000Y-48078349D01*
X64590000Y-47278349D02*
X58410000Y-47278349D01*
X65425000Y-45718349D02*
X62540000Y-45718349D01*
X65222000Y-46278349D02*
X62540000Y-46278349D01*
X60460000Y-45077349D02*
X57448000Y-45077349D01*
X65186000Y-46358349D02*
X62540000Y-46358349D01*
X65436000Y-45678349D02*
X62540000Y-45678349D01*
X63390000Y-48238349D02*
X59610000Y-48238349D01*
X65548000Y-45117349D02*
X62540000Y-45117349D01*
X64555000Y-47318349D02*
X58445000Y-47318349D01*
X60460000Y-46878349D02*
X58108000Y-46878349D01*
X60460000Y-45918349D02*
X57637000Y-45918349D01*
X65557000Y-45037349D02*
X62540000Y-45037349D01*
X65414000Y-45758349D02*
X62540000Y-45758349D01*
X64944000Y-46798349D02*
X62540000Y-46798349D01*
X65240000Y-46238349D02*
X62540000Y-46238349D01*
X60460000Y-46838349D02*
X58082000Y-46838349D01*
X65577000Y-44757349D02*
X57423000Y-44757349D01*
X63145000Y-48358349D02*
X59855000Y-48358349D01*
X65402000Y-45798349D02*
X62540000Y-45798349D01*
X63602000Y-48118349D02*
X59398000Y-48118349D01*
X60460000Y-45958349D02*
X57650000Y-45958349D01*
X65321000Y-46038349D02*
X62540000Y-46038349D01*
X64519000Y-47358349D02*
X58481000Y-47358349D01*
X65580000Y-44677349D02*
X57420000Y-44677349D01*
X63313000Y-48278349D02*
X59687000Y-48278349D01*
X64865000Y-46918349D02*
X58135000Y-46918349D01*
X60460000Y-46558349D02*
X57916000Y-46558349D01*
X64215000Y-40587651D02*
X63415000Y-40587651D01*
X60460000Y-45037349D02*
X57443000Y-45037349D01*
X64104000Y-47758349D02*
X58896000Y-47758349D01*
X60460000Y-46238349D02*
X57760000Y-46238349D01*
X64809000Y-46998349D02*
X58191000Y-46998349D01*
X63815000Y-40187651D02*
X63815000Y-40987651D01*
X65147000Y-46438349D02*
X62540000Y-46438349D01*
X65537000Y-45197349D02*
X62540000Y-45197349D01*
X64720000Y-47118349D02*
X58280000Y-47118349D01*
X60460000Y-46118349D02*
X57710000Y-46118349D01*
X65574000Y-44837349D02*
X62540000Y-44837349D01*
X63845000Y-47958349D02*
X59155000Y-47958349D01*
X64151000Y-47718349D02*
X58849000Y-47718349D01*
X65620000Y-44597349D02*
G75*
G03*
X65620000Y-44597349I-4120000J0D01*
G01*
%TO.C,D1*%
X55968000Y-115166000D02*
X55968000Y-112926000D01*
X55968000Y-112926000D02*
X51728000Y-112926000D01*
X57888000Y-114046000D02*
X55968000Y-114046000D01*
X52448000Y-112926000D02*
X52448000Y-115166000D01*
X52568000Y-112926000D02*
X52568000Y-115166000D01*
X51728000Y-115166000D02*
X55968000Y-115166000D01*
X51728000Y-112926000D02*
X51728000Y-115166000D01*
X52328000Y-112926000D02*
X52328000Y-115166000D01*
X49808000Y-114046000D02*
X51728000Y-114046000D01*
%TO.C,C9*%
X34120000Y-51880000D02*
X34120000Y-59120000D01*
X34120000Y-51880000D02*
X31880000Y-51880000D01*
X31880000Y-51880000D02*
X31880000Y-59120000D01*
X34120000Y-59120000D02*
X31880000Y-59120000D01*
%TO.C,J1*%
X95170000Y-74070000D02*
X95170000Y-72760000D01*
X61860000Y-79580000D02*
X68360000Y-79580000D01*
X68360000Y-72760000D02*
X126080000Y-72760000D01*
X126080000Y-74960000D02*
X132580000Y-74960000D01*
X114500000Y-71370000D02*
X115000000Y-72370000D01*
X132580000Y-79580000D02*
X126080000Y-79580000D01*
X95170000Y-74070000D02*
X95170000Y-74070000D01*
X118920000Y-80470000D02*
X75520000Y-80470000D01*
X115500000Y-71370000D02*
X114500000Y-71370000D01*
X75520000Y-80470000D02*
X75520000Y-74070000D01*
X132580000Y-74960000D02*
X132580000Y-79580000D01*
X99270000Y-72760000D02*
X99270000Y-74070000D01*
X68360000Y-81780000D02*
X68360000Y-72760000D01*
X118920000Y-74070000D02*
X118920000Y-80470000D01*
X61860000Y-74960000D02*
X61860000Y-79580000D01*
X126080000Y-81780000D02*
X68360000Y-81780000D01*
X75520000Y-74070000D02*
X95170000Y-74070000D01*
X99270000Y-74070000D02*
X118920000Y-74070000D01*
X68360000Y-74960000D02*
X61860000Y-74960000D01*
X126080000Y-72760000D02*
X126080000Y-81780000D01*
X115000000Y-72370000D02*
X115500000Y-71370000D01*
%TO.C,U2*%
X34992000Y-71592000D02*
X55432000Y-71592000D01*
X34992000Y-67092000D02*
X34992000Y-68342000D01*
X55432000Y-71592000D02*
X55432000Y-67092000D01*
X34992000Y-70342000D02*
X34992000Y-71592000D01*
X55432000Y-67092000D02*
X34992000Y-67092000D01*
X34992000Y-70342000D02*
G75*
G03*
X34992000Y-68342000I0J1000000D01*
G01*
%TO.C,J3*%
X95170000Y-53070000D02*
X95170000Y-51760000D01*
X132580000Y-58580000D02*
X126080000Y-58580000D01*
X61860000Y-53960000D02*
X61860000Y-58580000D01*
X126080000Y-53960000D02*
X132580000Y-53960000D01*
X114500000Y-50370000D02*
X115000000Y-51370000D01*
X132580000Y-53960000D02*
X132580000Y-58580000D01*
X115500000Y-50370000D02*
X114500000Y-50370000D01*
X61860000Y-58580000D02*
X68360000Y-58580000D01*
X68360000Y-60780000D02*
X68360000Y-51760000D01*
X126080000Y-51760000D02*
X126080000Y-60780000D01*
X75520000Y-59470000D02*
X75520000Y-53070000D01*
X118920000Y-59470000D02*
X75520000Y-59470000D01*
X115000000Y-51370000D02*
X115500000Y-50370000D01*
X99270000Y-51760000D02*
X99270000Y-53070000D01*
X126080000Y-60780000D02*
X68360000Y-60780000D01*
X75520000Y-53070000D02*
X95170000Y-53070000D01*
X68360000Y-51760000D02*
X126080000Y-51760000D01*
X118920000Y-53070000D02*
X118920000Y-59470000D01*
X99270000Y-53070000D02*
X118920000Y-53070000D01*
X68360000Y-53960000D02*
X61860000Y-53960000D01*
X95170000Y-53070000D02*
X95170000Y-53070000D01*
%TO.C,R5*%
X52102000Y-107212000D02*
X52102000Y-107542000D01*
X58642000Y-107542000D02*
X58642000Y-107212000D01*
X52102000Y-104802000D02*
X58642000Y-104802000D01*
X52102000Y-105132000D02*
X52102000Y-104802000D01*
X52102000Y-107542000D02*
X58642000Y-107542000D01*
X58642000Y-104802000D02*
X58642000Y-105132000D01*
%TO.C,C6*%
X58102000Y-101242000D02*
X58102000Y-103482000D01*
X65342000Y-101242000D02*
X65342000Y-103482000D01*
X58102000Y-101242000D02*
X65342000Y-101242000D01*
X58102000Y-103482000D02*
X65342000Y-103482000D01*
%TO.C,U4*%
X120949000Y-47944000D02*
X120949000Y-45709000D01*
X120949000Y-41474000D02*
X100509000Y-41474000D01*
X120949000Y-43709000D02*
X120949000Y-41474000D01*
X100509000Y-41474000D02*
X100509000Y-47944000D01*
X100509000Y-47944000D02*
X120949000Y-47944000D01*
X120949000Y-43709000D02*
G75*
G03*
X120949000Y-45709000I0J-1000000D01*
G01*
%TO.C,C4*%
X50442000Y-83416000D02*
X50442000Y-81176000D01*
X57682000Y-81176000D02*
X50442000Y-81176000D01*
X57682000Y-83416000D02*
X50442000Y-83416000D01*
X57682000Y-83416000D02*
X57682000Y-81176000D01*
%TO.C,J6*%
X144468000Y-92718000D02*
X144468000Y-93718000D01*
X147168000Y-89298000D02*
X153568000Y-89298000D01*
X147168000Y-100348000D02*
X147168000Y-100348000D01*
X147168000Y-100348000D02*
X145858000Y-100348000D01*
X153568000Y-107298000D02*
X147168000Y-107298000D01*
X154878000Y-114458000D02*
X145858000Y-114458000D01*
X153568000Y-89298000D02*
X153568000Y-107298000D01*
X144468000Y-93718000D02*
X145468000Y-93218000D01*
X147168000Y-96248000D02*
X147168000Y-89298000D01*
X145468000Y-93218000D02*
X144468000Y-92718000D01*
X147168000Y-107298000D02*
X147168000Y-100348000D01*
X145858000Y-82138000D02*
X154878000Y-82138000D01*
X154878000Y-82138000D02*
X154878000Y-114458000D01*
X145858000Y-114458000D02*
X145858000Y-82138000D01*
X145858000Y-96248000D02*
X147168000Y-96248000D01*
%TO.C,RN1*%
X120073000Y-84452000D02*
X96873000Y-84452000D01*
X96873000Y-87252000D02*
X120073000Y-87252000D01*
X96873000Y-84452000D02*
X96873000Y-87252000D01*
X117363000Y-87252000D02*
X117363000Y-84452000D01*
X120073000Y-87252000D02*
X120073000Y-84452000D01*
%TO.C,C5*%
X57976000Y-103482000D02*
X57976000Y-101242000D01*
X57976000Y-103482000D02*
X50736000Y-103482000D01*
X57976000Y-101242000D02*
X50736000Y-101242000D01*
X50736000Y-103482000D02*
X50736000Y-101242000D01*
%TO.C,Y2*%
X61125000Y-100525000D02*
X54875000Y-100525000D01*
X61125000Y-95475000D02*
X54875000Y-95475000D01*
X54875000Y-95475000D02*
G75*
G03*
X54875000Y-100525000I0J-2525000D01*
G01*
X61125000Y-100525000D02*
G75*
G03*
X61125000Y-95475000I0J2525000D01*
G01*
%TO.C,C8*%
X110594000Y-97600000D02*
X110594000Y-90360000D01*
X108354000Y-97600000D02*
X108354000Y-90360000D01*
X108354000Y-97600000D02*
X110594000Y-97600000D01*
X108354000Y-90360000D02*
X110594000Y-90360000D01*
%TO.C,Y1*%
X151115000Y-60883000D02*
X151115000Y-67133000D01*
X146065000Y-60883000D02*
X146065000Y-67133000D01*
X146065000Y-67133000D02*
G75*
G03*
X151115000Y-67133000I2525000J0D01*
G01*
X151115000Y-60883000D02*
G75*
G03*
X146065000Y-60883000I-2525000J0D01*
G01*
%TO.C,J4*%
X74210000Y-93542500D02*
X74210000Y-84422500D01*
X86550000Y-92232500D02*
X86550000Y-93542500D01*
X93490000Y-92232500D02*
X86550000Y-92232500D01*
X94790000Y-93542500D02*
X74210000Y-93542500D01*
X82450000Y-92232500D02*
X75510000Y-92232500D01*
X79420000Y-93932500D02*
X78920000Y-94932500D01*
X75510000Y-92232500D02*
X75510000Y-85732500D01*
X93490000Y-85732500D02*
X93490000Y-92232500D01*
X78920000Y-94932500D02*
X79920000Y-94932500D01*
X79920000Y-94932500D02*
X79420000Y-93932500D01*
X94790000Y-84422500D02*
X94790000Y-93542500D01*
X74210000Y-84422500D02*
X94790000Y-84422500D01*
X75510000Y-85732500D02*
X93490000Y-85732500D01*
X86550000Y-92232500D02*
X86550000Y-92232500D01*
X82450000Y-93542500D02*
X82450000Y-92232500D01*
%TO.C,J2*%
X61860000Y-64460000D02*
X61860000Y-69080000D01*
X118920000Y-63570000D02*
X118920000Y-69970000D01*
X132580000Y-69080000D02*
X126080000Y-69080000D01*
X99270000Y-62260000D02*
X99270000Y-63570000D01*
X115500000Y-60870000D02*
X114500000Y-60870000D01*
X68360000Y-62260000D02*
X126080000Y-62260000D01*
X75520000Y-69970000D02*
X75520000Y-63570000D01*
X95170000Y-63570000D02*
X95170000Y-63570000D01*
X99270000Y-63570000D02*
X118920000Y-63570000D01*
X114500000Y-60870000D02*
X115000000Y-61870000D01*
X68360000Y-71280000D02*
X68360000Y-62260000D01*
X126080000Y-64460000D02*
X132580000Y-64460000D01*
X75520000Y-63570000D02*
X95170000Y-63570000D01*
X118920000Y-69970000D02*
X75520000Y-69970000D01*
X115000000Y-61870000D02*
X115500000Y-60870000D01*
X126080000Y-62260000D02*
X126080000Y-71280000D01*
X61860000Y-69080000D02*
X68360000Y-69080000D01*
X126080000Y-71280000D02*
X68360000Y-71280000D01*
X68360000Y-64460000D02*
X61860000Y-64460000D01*
X95170000Y-63570000D02*
X95170000Y-62260000D01*
X132580000Y-64460000D02*
X132580000Y-69080000D01*
%TO.C,R3*%
X33020000Y-91394000D02*
X33020000Y-92014000D01*
X33940000Y-90474000D02*
G75*
G03*
X33940000Y-90474000I-920000J0D01*
G01*
%TO.C,J7*%
X47137500Y-100890000D02*
X47137500Y-113110000D01*
X30517500Y-113110000D02*
X38487500Y-113110000D01*
X30517500Y-100890000D02*
X38487500Y-100890000D01*
X30517500Y-100890000D02*
X30517500Y-113110000D01*
X47837500Y-107750000D02*
X47337500Y-108250000D01*
X47837500Y-108750000D02*
X47837500Y-107750000D01*
X47137500Y-113110000D02*
X43387500Y-113110000D01*
X47337500Y-108250000D02*
X47837500Y-108750000D01*
X47137500Y-100890000D02*
X43387500Y-100890000D01*
%TO.C,C2*%
X152042000Y-63564000D02*
X154282000Y-63564000D01*
X154282000Y-63564000D02*
X154282000Y-56324000D01*
X152042000Y-63564000D02*
X152042000Y-56324000D01*
X152042000Y-56324000D02*
X154282000Y-56324000D01*
%TO.C,U3*%
X55432000Y-59060000D02*
X55432000Y-54560000D01*
X55432000Y-54560000D02*
X34992000Y-54560000D01*
X34992000Y-57810000D02*
X34992000Y-59060000D01*
X34992000Y-54560000D02*
X34992000Y-55810000D01*
X34992000Y-59060000D02*
X55432000Y-59060000D01*
X34992000Y-57810000D02*
G75*
G03*
X34992000Y-55810000I0J1000000D01*
G01*
%TO.C,U5*%
X34992000Y-90154000D02*
X34992000Y-91404000D01*
X70672000Y-86904000D02*
X34992000Y-86904000D01*
X34992000Y-91404000D02*
X70672000Y-91404000D01*
X70672000Y-91404000D02*
X70672000Y-86904000D01*
X34992000Y-86904000D02*
X34992000Y-88154000D01*
X34992000Y-90154000D02*
G75*
G03*
X34992000Y-88154000I0J1000000D01*
G01*
%TO.C,C3*%
X31880000Y-63880000D02*
X31880000Y-71120000D01*
X34120000Y-63880000D02*
X34120000Y-71120000D01*
X34120000Y-63880000D02*
X31880000Y-63880000D01*
X34120000Y-71120000D02*
X31880000Y-71120000D01*
%TO.C,R6*%
X52102000Y-110260000D02*
X52102000Y-110590000D01*
X52102000Y-110590000D02*
X58642000Y-110590000D01*
X58642000Y-110590000D02*
X58642000Y-110260000D01*
X52102000Y-108180000D02*
X52102000Y-107850000D01*
X52102000Y-107850000D02*
X58642000Y-107850000D01*
X58642000Y-107850000D02*
X58642000Y-108180000D01*
%TO.C,J5*%
X132966000Y-48248000D02*
X132966000Y-39128000D01*
X145306000Y-46938000D02*
X145306000Y-46938000D01*
X153546000Y-39128000D02*
X153546000Y-48248000D01*
X137676000Y-49638000D02*
X138676000Y-49638000D01*
X134266000Y-40438000D02*
X152246000Y-40438000D01*
X153546000Y-48248000D02*
X132966000Y-48248000D01*
X152246000Y-46938000D02*
X145306000Y-46938000D01*
X141206000Y-46938000D02*
X134266000Y-46938000D01*
X138676000Y-49638000D02*
X138176000Y-48638000D01*
X132966000Y-39128000D02*
X153546000Y-39128000D01*
X145306000Y-46938000D02*
X145306000Y-48248000D01*
X134266000Y-46938000D02*
X134266000Y-40438000D01*
X138176000Y-48638000D02*
X137676000Y-49638000D01*
X152246000Y-40438000D02*
X152246000Y-46938000D01*
X141206000Y-48248000D02*
X141206000Y-46938000D01*
%TO.C,C11*%
X105378349Y-92421000D02*
X105378349Y-96047000D01*
X103378349Y-95274000D02*
X103378349Y-97956000D01*
X102458349Y-90224000D02*
X102458349Y-93194000D01*
X102017349Y-90166000D02*
X102017349Y-93194000D01*
X101777349Y-90154000D02*
X101777349Y-98314000D01*
X102938349Y-95274000D02*
X102938349Y-98123000D01*
X103938349Y-95274000D02*
X103938349Y-97652000D01*
X104138349Y-90954000D02*
X104138349Y-97514000D01*
X103658349Y-90650000D02*
X103658349Y-93194000D01*
X104618349Y-91367000D02*
X104618349Y-97101000D01*
X103338349Y-90494000D02*
X103338349Y-93194000D01*
X102137349Y-95274000D02*
X102137349Y-98291000D01*
X104778349Y-91537000D02*
X104778349Y-96931000D01*
X105018349Y-91834000D02*
X105018349Y-96634000D01*
X104418349Y-91179000D02*
X104418349Y-97289000D01*
X102137349Y-90177000D02*
X102137349Y-93194000D01*
X103898349Y-95274000D02*
X103898349Y-97678000D01*
X103098349Y-90399000D02*
X103098349Y-93194000D01*
X102658349Y-90267000D02*
X102658349Y-93194000D01*
X101977349Y-90163000D02*
X101977349Y-93194000D01*
X104698349Y-91450000D02*
X104698349Y-97018000D01*
X103618349Y-95274000D02*
X103618349Y-97840000D01*
X105778349Y-93701000D02*
X105778349Y-94767000D01*
X103098349Y-95274000D02*
X103098349Y-98069000D01*
X104058349Y-90896000D02*
X104058349Y-97572000D01*
X103138349Y-90413000D02*
X103138349Y-93194000D01*
X103818349Y-95274000D02*
X103818349Y-97727000D01*
X101817349Y-90155000D02*
X101817349Y-98313000D01*
X102658349Y-95274000D02*
X102658349Y-98201000D01*
X103858349Y-90765000D02*
X103858349Y-93194000D01*
X105698349Y-93286000D02*
X105698349Y-95182000D01*
X103978349Y-95274000D02*
X103978349Y-97626000D01*
X102377349Y-90210000D02*
X102377349Y-93194000D01*
X102017349Y-95274000D02*
X102017349Y-98302000D01*
X104938349Y-91729000D02*
X104938349Y-96739000D01*
X104178349Y-90984000D02*
X104178349Y-97484000D01*
X101697349Y-90154000D02*
X101697349Y-98314000D01*
X105218349Y-92132000D02*
X105218349Y-96336000D01*
X105578349Y-92888000D02*
X105578349Y-95580000D01*
X97687651Y-91519000D02*
X97687651Y-92319000D01*
X102858349Y-90320000D02*
X102858349Y-93194000D01*
X103498349Y-95274000D02*
X103498349Y-97900000D01*
X102738349Y-95274000D02*
X102738349Y-98181000D01*
X102538349Y-95274000D02*
X102538349Y-98228000D01*
X103418349Y-95274000D02*
X103418349Y-97938000D01*
X102818349Y-95274000D02*
X102818349Y-98159000D01*
X102177349Y-95274000D02*
X102177349Y-98286000D01*
X102618349Y-95274000D02*
X102618349Y-98210000D01*
X103298349Y-90477000D02*
X103298349Y-93194000D01*
X102738349Y-90287000D02*
X102738349Y-93194000D01*
X103858349Y-95274000D02*
X103858349Y-97703000D01*
X101897349Y-90158000D02*
X101897349Y-98310000D01*
X102778349Y-90298000D02*
X102778349Y-93194000D01*
X103538349Y-95274000D02*
X103538349Y-97881000D01*
X102057349Y-95274000D02*
X102057349Y-98299000D01*
X105738349Y-93466000D02*
X105738349Y-95002000D01*
X103898349Y-90790000D02*
X103898349Y-93194000D01*
X102898349Y-95274000D02*
X102898349Y-98136000D01*
X103018349Y-95274000D02*
X103018349Y-98097000D01*
X103578349Y-95274000D02*
X103578349Y-97861000D01*
X102097349Y-90173000D02*
X102097349Y-93194000D01*
X105098349Y-91947000D02*
X105098349Y-96521000D01*
X103218349Y-90444000D02*
X103218349Y-93194000D01*
X97287651Y-91919000D02*
X98087651Y-91919000D01*
X102057349Y-90169000D02*
X102057349Y-93194000D01*
X104538349Y-91289000D02*
X104538349Y-97179000D01*
X103578349Y-90607000D02*
X103578349Y-93194000D01*
X103178349Y-95274000D02*
X103178349Y-98039000D01*
X103338349Y-95274000D02*
X103338349Y-97974000D01*
X102778349Y-95274000D02*
X102778349Y-98170000D01*
X103058349Y-95274000D02*
X103058349Y-98084000D01*
X103018349Y-90371000D02*
X103018349Y-93194000D01*
X101737349Y-90154000D02*
X101737349Y-98314000D01*
X104298349Y-91078000D02*
X104298349Y-97390000D01*
X105258349Y-92200000D02*
X105258349Y-96268000D01*
X102578349Y-95274000D02*
X102578349Y-98219000D01*
X103458349Y-90548000D02*
X103458349Y-93194000D01*
X101937349Y-90160000D02*
X101937349Y-93194000D01*
X103658349Y-95274000D02*
X103658349Y-97818000D01*
X102177349Y-90182000D02*
X102177349Y-93194000D01*
X103458349Y-95274000D02*
X103458349Y-97920000D01*
X103938349Y-90816000D02*
X103938349Y-93194000D01*
X104738349Y-91493000D02*
X104738349Y-96975000D01*
X103498349Y-90568000D02*
X103498349Y-93194000D01*
X104378349Y-91144000D02*
X104378349Y-97324000D01*
X102858349Y-95274000D02*
X102858349Y-98148000D01*
X102618349Y-90258000D02*
X102618349Y-93194000D01*
X102297349Y-90197000D02*
X102297349Y-93194000D01*
X102217349Y-90186000D02*
X102217349Y-93194000D01*
X103738349Y-90694000D02*
X103738349Y-93194000D01*
X102458349Y-95274000D02*
X102458349Y-98244000D01*
X104578349Y-91327000D02*
X104578349Y-97141000D01*
X102818349Y-90309000D02*
X102818349Y-93194000D01*
X105338349Y-92344000D02*
X105338349Y-96124000D01*
X104098349Y-90925000D02*
X104098349Y-97543000D01*
X104978349Y-91780000D02*
X104978349Y-96688000D01*
X105058349Y-91889000D02*
X105058349Y-96579000D01*
X103778349Y-95274000D02*
X103778349Y-97751000D01*
X102418349Y-95274000D02*
X102418349Y-98251000D01*
X102698349Y-95274000D02*
X102698349Y-98191000D01*
X104818349Y-91583000D02*
X104818349Y-96885000D01*
X103378349Y-90512000D02*
X103378349Y-93194000D01*
X102978349Y-95274000D02*
X102978349Y-98111000D01*
X102257349Y-90192000D02*
X102257349Y-93194000D01*
X103138349Y-95274000D02*
X103138349Y-98055000D01*
X104218349Y-91014000D02*
X104218349Y-97454000D01*
X102698349Y-90277000D02*
X102698349Y-93194000D01*
X104498349Y-91251000D02*
X104498349Y-97217000D01*
X102257349Y-95274000D02*
X102257349Y-98276000D01*
X104458349Y-91215000D02*
X104458349Y-97253000D01*
X102498349Y-90232000D02*
X102498349Y-93194000D01*
X105418349Y-92503000D02*
X105418349Y-95965000D01*
X103258349Y-90460000D02*
X103258349Y-93194000D01*
X102097349Y-95274000D02*
X102097349Y-98295000D01*
X102538349Y-90240000D02*
X102538349Y-93194000D01*
X104258349Y-91045000D02*
X104258349Y-97423000D01*
X101937349Y-95274000D02*
X101937349Y-98308000D01*
X103258349Y-95274000D02*
X103258349Y-98008000D01*
X105178349Y-92068000D02*
X105178349Y-96400000D01*
X103298349Y-95274000D02*
X103298349Y-97991000D01*
X104858349Y-91630000D02*
X104858349Y-96838000D01*
X104898349Y-91678000D02*
X104898349Y-96790000D01*
X102297349Y-95274000D02*
X102297349Y-98271000D01*
X102377349Y-95274000D02*
X102377349Y-98258000D01*
X105618349Y-93005000D02*
X105618349Y-95463000D01*
X105658349Y-93136000D02*
X105658349Y-95332000D01*
X102578349Y-90249000D02*
X102578349Y-93194000D01*
X103818349Y-90741000D02*
X103818349Y-93194000D01*
X103778349Y-90717000D02*
X103778349Y-93194000D01*
X102337349Y-90204000D02*
X102337349Y-93194000D01*
X103418349Y-90530000D02*
X103418349Y-93194000D01*
X103618349Y-90628000D02*
X103618349Y-93194000D01*
X103178349Y-90429000D02*
X103178349Y-93194000D01*
X101857349Y-90157000D02*
X101857349Y-98311000D01*
X103538349Y-90587000D02*
X103538349Y-93194000D01*
X102337349Y-95274000D02*
X102337349Y-98264000D01*
X102938349Y-90345000D02*
X102938349Y-93194000D01*
X102978349Y-90357000D02*
X102978349Y-93194000D01*
X104658349Y-91408000D02*
X104658349Y-97060000D01*
X103698349Y-90672000D02*
X103698349Y-93194000D01*
X102418349Y-90217000D02*
X102418349Y-93194000D01*
X102898349Y-90332000D02*
X102898349Y-93194000D01*
X103738349Y-95274000D02*
X103738349Y-97774000D01*
X104018349Y-90869000D02*
X104018349Y-97599000D01*
X103218349Y-95274000D02*
X103218349Y-98024000D01*
X101977349Y-95274000D02*
X101977349Y-98305000D01*
X102217349Y-95274000D02*
X102217349Y-98282000D01*
X102498349Y-95274000D02*
X102498349Y-98236000D01*
X103698349Y-95274000D02*
X103698349Y-97796000D01*
X104338349Y-91110000D02*
X104338349Y-97358000D01*
X103058349Y-90384000D02*
X103058349Y-93194000D01*
X105498349Y-92682000D02*
X105498349Y-95786000D01*
X105538349Y-92781000D02*
X105538349Y-95687000D01*
X103978349Y-90842000D02*
X103978349Y-93194000D01*
X105138349Y-92006000D02*
X105138349Y-96462000D01*
X105458349Y-92589000D02*
X105458349Y-95879000D01*
X105298349Y-92270000D02*
X105298349Y-96198000D01*
X105817349Y-94234000D02*
G75*
G03*
X105817349Y-94234000I-4120000J0D01*
G01*
%TO.C,C1*%
X152042000Y-63944000D02*
X152042000Y-71184000D01*
X154282000Y-63944000D02*
X154282000Y-71184000D01*
X154282000Y-71184000D02*
X152042000Y-71184000D01*
X154282000Y-63944000D02*
X152042000Y-63944000D01*
%TO.C,R4*%
X50370000Y-96806000D02*
X50040000Y-96806000D01*
X50370000Y-103346000D02*
X50370000Y-96806000D01*
X47960000Y-103346000D02*
X47630000Y-103346000D01*
X47630000Y-96806000D02*
X47960000Y-96806000D01*
X50040000Y-103346000D02*
X50370000Y-103346000D01*
X47630000Y-103346000D02*
X47630000Y-96806000D01*
%TO.C,U6*%
X47540000Y-44500000D02*
X50080000Y-44500000D01*
X31650000Y-49620000D02*
X31650000Y-39380000D01*
X31650000Y-39380000D02*
X47540000Y-39380000D01*
X31650000Y-49620000D02*
X47540000Y-49620000D01*
X47540000Y-47040000D02*
X50080000Y-47040000D01*
X47540000Y-49620000D02*
X47540000Y-39380000D01*
X47540000Y-41960000D02*
X50080000Y-41960000D01*
%TO.C,D2*%
X55968000Y-110640000D02*
X51728000Y-110640000D01*
X57888000Y-111760000D02*
X55968000Y-111760000D01*
X55968000Y-112880000D02*
X55968000Y-110640000D01*
X51728000Y-110640000D02*
X51728000Y-112880000D01*
X51728000Y-112880000D02*
X55968000Y-112880000D01*
X52328000Y-110640000D02*
X52328000Y-112880000D01*
X52448000Y-110640000D02*
X52448000Y-112880000D01*
X49808000Y-111760000D02*
X51728000Y-111760000D01*
X52568000Y-110640000D02*
X52568000Y-112880000D01*
%TO.C,U1*%
X141223000Y-87172000D02*
X142473000Y-87172000D01*
X142473000Y-51492000D02*
X137973000Y-51492000D01*
X137973000Y-51492000D02*
X137973000Y-87172000D01*
X142473000Y-87172000D02*
X142473000Y-51492000D01*
X137973000Y-87172000D02*
X139223000Y-87172000D01*
X141223000Y-87172000D02*
G75*
G03*
X139223000Y-87172000I-1000000J0D01*
G01*
%TO.C,C7*%
X97432000Y-41338000D02*
X99672000Y-41338000D01*
X97432000Y-48578000D02*
X97432000Y-41338000D01*
X97432000Y-48578000D02*
X99672000Y-48578000D01*
X99672000Y-48578000D02*
X99672000Y-41338000D01*
%TD*%
M02*
