%TF.GenerationSoftware,KiCad,Pcbnew,7.0.5*%
%TF.CreationDate,2023-07-03T18:50:33+02:00*%
%TF.ProjectId,Master_Board,4d617374-6572-45f4-926f-6172642e6b69,rev?*%
%TF.SameCoordinates,Original*%
%TF.FileFunction,Legend,Top*%
%TF.FilePolarity,Positive*%
%FSLAX46Y46*%
G04 Gerber Fmt 4.6, Leading zero omitted, Abs format (unit mm)*
G04 Created by KiCad (PCBNEW 7.0.5) date 2023-07-03 18:50:33*
%MOMM*%
%LPD*%
G01*
G04 APERTURE LIST*
%ADD10C,0.300000*%
%ADD11C,0.150000*%
%ADD12C,0.120000*%
G04 APERTURE END LIST*
D10*
X26249999Y-165678328D02*
X26249999Y-164178328D01*
X26249999Y-164178328D02*
X26749999Y-165249757D01*
X26749999Y-165249757D02*
X27249999Y-164178328D01*
X27249999Y-164178328D02*
X27249999Y-165678328D01*
X28607143Y-165678328D02*
X28607143Y-164892614D01*
X28607143Y-164892614D02*
X28535714Y-164749757D01*
X28535714Y-164749757D02*
X28392857Y-164678328D01*
X28392857Y-164678328D02*
X28107143Y-164678328D01*
X28107143Y-164678328D02*
X27964285Y-164749757D01*
X28607143Y-165606900D02*
X28464285Y-165678328D01*
X28464285Y-165678328D02*
X28107143Y-165678328D01*
X28107143Y-165678328D02*
X27964285Y-165606900D01*
X27964285Y-165606900D02*
X27892857Y-165464042D01*
X27892857Y-165464042D02*
X27892857Y-165321185D01*
X27892857Y-165321185D02*
X27964285Y-165178328D01*
X27964285Y-165178328D02*
X28107143Y-165106900D01*
X28107143Y-165106900D02*
X28464285Y-165106900D01*
X28464285Y-165106900D02*
X28607143Y-165035471D01*
X29250000Y-165606900D02*
X29392857Y-165678328D01*
X29392857Y-165678328D02*
X29678571Y-165678328D01*
X29678571Y-165678328D02*
X29821428Y-165606900D01*
X29821428Y-165606900D02*
X29892857Y-165464042D01*
X29892857Y-165464042D02*
X29892857Y-165392614D01*
X29892857Y-165392614D02*
X29821428Y-165249757D01*
X29821428Y-165249757D02*
X29678571Y-165178328D01*
X29678571Y-165178328D02*
X29464286Y-165178328D01*
X29464286Y-165178328D02*
X29321428Y-165106900D01*
X29321428Y-165106900D02*
X29250000Y-164964042D01*
X29250000Y-164964042D02*
X29250000Y-164892614D01*
X29250000Y-164892614D02*
X29321428Y-164749757D01*
X29321428Y-164749757D02*
X29464286Y-164678328D01*
X29464286Y-164678328D02*
X29678571Y-164678328D01*
X29678571Y-164678328D02*
X29821428Y-164749757D01*
X30321429Y-164678328D02*
X30892857Y-164678328D01*
X30535714Y-164178328D02*
X30535714Y-165464042D01*
X30535714Y-165464042D02*
X30607143Y-165606900D01*
X30607143Y-165606900D02*
X30750000Y-165678328D01*
X30750000Y-165678328D02*
X30892857Y-165678328D01*
X31964286Y-165606900D02*
X31821429Y-165678328D01*
X31821429Y-165678328D02*
X31535715Y-165678328D01*
X31535715Y-165678328D02*
X31392857Y-165606900D01*
X31392857Y-165606900D02*
X31321429Y-165464042D01*
X31321429Y-165464042D02*
X31321429Y-164892614D01*
X31321429Y-164892614D02*
X31392857Y-164749757D01*
X31392857Y-164749757D02*
X31535715Y-164678328D01*
X31535715Y-164678328D02*
X31821429Y-164678328D01*
X31821429Y-164678328D02*
X31964286Y-164749757D01*
X31964286Y-164749757D02*
X32035715Y-164892614D01*
X32035715Y-164892614D02*
X32035715Y-165035471D01*
X32035715Y-165035471D02*
X31321429Y-165178328D01*
X32678571Y-165678328D02*
X32678571Y-164678328D01*
X32678571Y-164964042D02*
X32750000Y-164821185D01*
X32750000Y-164821185D02*
X32821429Y-164749757D01*
X32821429Y-164749757D02*
X32964286Y-164678328D01*
X32964286Y-164678328D02*
X33107143Y-164678328D01*
X33607142Y-165106900D02*
X34750000Y-165106900D01*
X35321428Y-164178328D02*
X35678571Y-165678328D01*
X35678571Y-165678328D02*
X35964285Y-164606900D01*
X35964285Y-164606900D02*
X36250000Y-165678328D01*
X36250000Y-165678328D02*
X36607143Y-164178328D01*
X37178571Y-165678328D02*
X37178571Y-164678328D01*
X37178571Y-164178328D02*
X37107143Y-164249757D01*
X37107143Y-164249757D02*
X37178571Y-164321185D01*
X37178571Y-164321185D02*
X37250000Y-164249757D01*
X37250000Y-164249757D02*
X37178571Y-164178328D01*
X37178571Y-164178328D02*
X37178571Y-164321185D01*
X37892857Y-164678328D02*
X37892857Y-165678328D01*
X37892857Y-164821185D02*
X37964286Y-164749757D01*
X37964286Y-164749757D02*
X38107143Y-164678328D01*
X38107143Y-164678328D02*
X38321429Y-164678328D01*
X38321429Y-164678328D02*
X38464286Y-164749757D01*
X38464286Y-164749757D02*
X38535715Y-164892614D01*
X38535715Y-164892614D02*
X38535715Y-165678328D01*
X39892858Y-164678328D02*
X39892858Y-165892614D01*
X39892858Y-165892614D02*
X39821429Y-166035471D01*
X39821429Y-166035471D02*
X39750000Y-166106900D01*
X39750000Y-166106900D02*
X39607143Y-166178328D01*
X39607143Y-166178328D02*
X39392858Y-166178328D01*
X39392858Y-166178328D02*
X39250000Y-166106900D01*
X39892858Y-165606900D02*
X39750000Y-165678328D01*
X39750000Y-165678328D02*
X39464286Y-165678328D01*
X39464286Y-165678328D02*
X39321429Y-165606900D01*
X39321429Y-165606900D02*
X39250000Y-165535471D01*
X39250000Y-165535471D02*
X39178572Y-165392614D01*
X39178572Y-165392614D02*
X39178572Y-164964042D01*
X39178572Y-164964042D02*
X39250000Y-164821185D01*
X39250000Y-164821185D02*
X39321429Y-164749757D01*
X39321429Y-164749757D02*
X39464286Y-164678328D01*
X39464286Y-164678328D02*
X39750000Y-164678328D01*
X39750000Y-164678328D02*
X39892858Y-164749757D01*
X41535715Y-164178328D02*
X42035715Y-165678328D01*
X42035715Y-165678328D02*
X42535715Y-164178328D01*
X43821429Y-165678328D02*
X42964286Y-165678328D01*
X43392857Y-165678328D02*
X43392857Y-164178328D01*
X43392857Y-164178328D02*
X43250000Y-164392614D01*
X43250000Y-164392614D02*
X43107143Y-164535471D01*
X43107143Y-164535471D02*
X42964286Y-164606900D01*
X17178571Y-167078328D02*
X17464286Y-168078328D01*
X17464286Y-168078328D02*
X17750000Y-167364042D01*
X17750000Y-167364042D02*
X18035714Y-168078328D01*
X18035714Y-168078328D02*
X18321428Y-167078328D01*
X18750000Y-167078328D02*
X19035715Y-168078328D01*
X19035715Y-168078328D02*
X19321429Y-167364042D01*
X19321429Y-167364042D02*
X19607143Y-168078328D01*
X19607143Y-168078328D02*
X19892857Y-167078328D01*
X20321429Y-167078328D02*
X20607144Y-168078328D01*
X20607144Y-168078328D02*
X20892858Y-167364042D01*
X20892858Y-167364042D02*
X21178572Y-168078328D01*
X21178572Y-168078328D02*
X21464286Y-167078328D01*
X22035715Y-167935471D02*
X22107144Y-168006900D01*
X22107144Y-168006900D02*
X22035715Y-168078328D01*
X22035715Y-168078328D02*
X21964287Y-168006900D01*
X21964287Y-168006900D02*
X22035715Y-167935471D01*
X22035715Y-167935471D02*
X22035715Y-168078328D01*
X23392859Y-168078328D02*
X23392859Y-166578328D01*
X23392859Y-168006900D02*
X23250001Y-168078328D01*
X23250001Y-168078328D02*
X22964287Y-168078328D01*
X22964287Y-168078328D02*
X22821430Y-168006900D01*
X22821430Y-168006900D02*
X22750001Y-167935471D01*
X22750001Y-167935471D02*
X22678573Y-167792614D01*
X22678573Y-167792614D02*
X22678573Y-167364042D01*
X22678573Y-167364042D02*
X22750001Y-167221185D01*
X22750001Y-167221185D02*
X22821430Y-167149757D01*
X22821430Y-167149757D02*
X22964287Y-167078328D01*
X22964287Y-167078328D02*
X23250001Y-167078328D01*
X23250001Y-167078328D02*
X23392859Y-167149757D01*
X24678573Y-168006900D02*
X24535716Y-168078328D01*
X24535716Y-168078328D02*
X24250002Y-168078328D01*
X24250002Y-168078328D02*
X24107144Y-168006900D01*
X24107144Y-168006900D02*
X24035716Y-167864042D01*
X24035716Y-167864042D02*
X24035716Y-167292614D01*
X24035716Y-167292614D02*
X24107144Y-167149757D01*
X24107144Y-167149757D02*
X24250002Y-167078328D01*
X24250002Y-167078328D02*
X24535716Y-167078328D01*
X24535716Y-167078328D02*
X24678573Y-167149757D01*
X24678573Y-167149757D02*
X24750002Y-167292614D01*
X24750002Y-167292614D02*
X24750002Y-167435471D01*
X24750002Y-167435471D02*
X24035716Y-167578328D01*
X25392858Y-167078328D02*
X25392858Y-168078328D01*
X25392858Y-167221185D02*
X25464287Y-167149757D01*
X25464287Y-167149757D02*
X25607144Y-167078328D01*
X25607144Y-167078328D02*
X25821430Y-167078328D01*
X25821430Y-167078328D02*
X25964287Y-167149757D01*
X25964287Y-167149757D02*
X26035716Y-167292614D01*
X26035716Y-167292614D02*
X26035716Y-168078328D01*
X26750001Y-167078328D02*
X26750001Y-168078328D01*
X26750001Y-167221185D02*
X26821430Y-167149757D01*
X26821430Y-167149757D02*
X26964287Y-167078328D01*
X26964287Y-167078328D02*
X27178573Y-167078328D01*
X27178573Y-167078328D02*
X27321430Y-167149757D01*
X27321430Y-167149757D02*
X27392859Y-167292614D01*
X27392859Y-167292614D02*
X27392859Y-168078328D01*
X28107144Y-168078328D02*
X28107144Y-167078328D01*
X28107144Y-166578328D02*
X28035716Y-166649757D01*
X28035716Y-166649757D02*
X28107144Y-166721185D01*
X28107144Y-166721185D02*
X28178573Y-166649757D01*
X28178573Y-166649757D02*
X28107144Y-166578328D01*
X28107144Y-166578328D02*
X28107144Y-166721185D01*
X28750002Y-168006900D02*
X28892859Y-168078328D01*
X28892859Y-168078328D02*
X29178573Y-168078328D01*
X29178573Y-168078328D02*
X29321430Y-168006900D01*
X29321430Y-168006900D02*
X29392859Y-167864042D01*
X29392859Y-167864042D02*
X29392859Y-167792614D01*
X29392859Y-167792614D02*
X29321430Y-167649757D01*
X29321430Y-167649757D02*
X29178573Y-167578328D01*
X29178573Y-167578328D02*
X28964288Y-167578328D01*
X28964288Y-167578328D02*
X28821430Y-167506900D01*
X28821430Y-167506900D02*
X28750002Y-167364042D01*
X28750002Y-167364042D02*
X28750002Y-167292614D01*
X28750002Y-167292614D02*
X28821430Y-167149757D01*
X28821430Y-167149757D02*
X28964288Y-167078328D01*
X28964288Y-167078328D02*
X29178573Y-167078328D01*
X29178573Y-167078328D02*
X29321430Y-167149757D01*
X30678574Y-167078328D02*
X30678574Y-168292614D01*
X30678574Y-168292614D02*
X30607145Y-168435471D01*
X30607145Y-168435471D02*
X30535716Y-168506900D01*
X30535716Y-168506900D02*
X30392859Y-168578328D01*
X30392859Y-168578328D02*
X30178574Y-168578328D01*
X30178574Y-168578328D02*
X30035716Y-168506900D01*
X30678574Y-168006900D02*
X30535716Y-168078328D01*
X30535716Y-168078328D02*
X30250002Y-168078328D01*
X30250002Y-168078328D02*
X30107145Y-168006900D01*
X30107145Y-168006900D02*
X30035716Y-167935471D01*
X30035716Y-167935471D02*
X29964288Y-167792614D01*
X29964288Y-167792614D02*
X29964288Y-167364042D01*
X29964288Y-167364042D02*
X30035716Y-167221185D01*
X30035716Y-167221185D02*
X30107145Y-167149757D01*
X30107145Y-167149757D02*
X30250002Y-167078328D01*
X30250002Y-167078328D02*
X30535716Y-167078328D01*
X30535716Y-167078328D02*
X30678574Y-167149757D01*
X32035717Y-167078328D02*
X32035717Y-168078328D01*
X31392859Y-167078328D02*
X31392859Y-167864042D01*
X31392859Y-167864042D02*
X31464288Y-168006900D01*
X31464288Y-168006900D02*
X31607145Y-168078328D01*
X31607145Y-168078328D02*
X31821431Y-168078328D01*
X31821431Y-168078328D02*
X31964288Y-168006900D01*
X31964288Y-168006900D02*
X32035717Y-167935471D01*
X32750002Y-167078328D02*
X32750002Y-168078328D01*
X32750002Y-167221185D02*
X32821431Y-167149757D01*
X32821431Y-167149757D02*
X32964288Y-167078328D01*
X32964288Y-167078328D02*
X33178574Y-167078328D01*
X33178574Y-167078328D02*
X33321431Y-167149757D01*
X33321431Y-167149757D02*
X33392860Y-167292614D01*
X33392860Y-167292614D02*
X33392860Y-168078328D01*
X34107145Y-168078328D02*
X34107145Y-167078328D01*
X34107145Y-166578328D02*
X34035717Y-166649757D01*
X34035717Y-166649757D02*
X34107145Y-166721185D01*
X34107145Y-166721185D02*
X34178574Y-166649757D01*
X34178574Y-166649757D02*
X34107145Y-166578328D01*
X34107145Y-166578328D02*
X34107145Y-166721185D01*
X35464289Y-168078328D02*
X35464289Y-167292614D01*
X35464289Y-167292614D02*
X35392860Y-167149757D01*
X35392860Y-167149757D02*
X35250003Y-167078328D01*
X35250003Y-167078328D02*
X34964289Y-167078328D01*
X34964289Y-167078328D02*
X34821431Y-167149757D01*
X35464289Y-168006900D02*
X35321431Y-168078328D01*
X35321431Y-168078328D02*
X34964289Y-168078328D01*
X34964289Y-168078328D02*
X34821431Y-168006900D01*
X34821431Y-168006900D02*
X34750003Y-167864042D01*
X34750003Y-167864042D02*
X34750003Y-167721185D01*
X34750003Y-167721185D02*
X34821431Y-167578328D01*
X34821431Y-167578328D02*
X34964289Y-167506900D01*
X34964289Y-167506900D02*
X35321431Y-167506900D01*
X35321431Y-167506900D02*
X35464289Y-167435471D01*
X36178574Y-167935471D02*
X36250003Y-168006900D01*
X36250003Y-168006900D02*
X36178574Y-168078328D01*
X36178574Y-168078328D02*
X36107146Y-168006900D01*
X36107146Y-168006900D02*
X36178574Y-167935471D01*
X36178574Y-167935471D02*
X36178574Y-168078328D01*
X37535718Y-168078328D02*
X37535718Y-166578328D01*
X37535718Y-168006900D02*
X37392860Y-168078328D01*
X37392860Y-168078328D02*
X37107146Y-168078328D01*
X37107146Y-168078328D02*
X36964289Y-168006900D01*
X36964289Y-168006900D02*
X36892860Y-167935471D01*
X36892860Y-167935471D02*
X36821432Y-167792614D01*
X36821432Y-167792614D02*
X36821432Y-167364042D01*
X36821432Y-167364042D02*
X36892860Y-167221185D01*
X36892860Y-167221185D02*
X36964289Y-167149757D01*
X36964289Y-167149757D02*
X37107146Y-167078328D01*
X37107146Y-167078328D02*
X37392860Y-167078328D01*
X37392860Y-167078328D02*
X37535718Y-167149757D01*
X38821432Y-168006900D02*
X38678575Y-168078328D01*
X38678575Y-168078328D02*
X38392861Y-168078328D01*
X38392861Y-168078328D02*
X38250003Y-168006900D01*
X38250003Y-168006900D02*
X38178575Y-167864042D01*
X38178575Y-167864042D02*
X38178575Y-167292614D01*
X38178575Y-167292614D02*
X38250003Y-167149757D01*
X38250003Y-167149757D02*
X38392861Y-167078328D01*
X38392861Y-167078328D02*
X38678575Y-167078328D01*
X38678575Y-167078328D02*
X38821432Y-167149757D01*
X38821432Y-167149757D02*
X38892861Y-167292614D01*
X38892861Y-167292614D02*
X38892861Y-167435471D01*
X38892861Y-167435471D02*
X38178575Y-167578328D01*
X41035717Y-168578328D02*
X41035717Y-166435471D01*
X43178574Y-166721185D02*
X43250002Y-166649757D01*
X43250002Y-166649757D02*
X43392860Y-166578328D01*
X43392860Y-166578328D02*
X43750002Y-166578328D01*
X43750002Y-166578328D02*
X43892860Y-166649757D01*
X43892860Y-166649757D02*
X43964288Y-166721185D01*
X43964288Y-166721185D02*
X44035717Y-166864042D01*
X44035717Y-166864042D02*
X44035717Y-167006900D01*
X44035717Y-167006900D02*
X43964288Y-167221185D01*
X43964288Y-167221185D02*
X43107145Y-168078328D01*
X43107145Y-168078328D02*
X44035717Y-168078328D01*
X44964288Y-166578328D02*
X45107145Y-166578328D01*
X45107145Y-166578328D02*
X45250002Y-166649757D01*
X45250002Y-166649757D02*
X45321431Y-166721185D01*
X45321431Y-166721185D02*
X45392859Y-166864042D01*
X45392859Y-166864042D02*
X45464288Y-167149757D01*
X45464288Y-167149757D02*
X45464288Y-167506900D01*
X45464288Y-167506900D02*
X45392859Y-167792614D01*
X45392859Y-167792614D02*
X45321431Y-167935471D01*
X45321431Y-167935471D02*
X45250002Y-168006900D01*
X45250002Y-168006900D02*
X45107145Y-168078328D01*
X45107145Y-168078328D02*
X44964288Y-168078328D01*
X44964288Y-168078328D02*
X44821431Y-168006900D01*
X44821431Y-168006900D02*
X44750002Y-167935471D01*
X44750002Y-167935471D02*
X44678573Y-167792614D01*
X44678573Y-167792614D02*
X44607145Y-167506900D01*
X44607145Y-167506900D02*
X44607145Y-167149757D01*
X44607145Y-167149757D02*
X44678573Y-166864042D01*
X44678573Y-166864042D02*
X44750002Y-166721185D01*
X44750002Y-166721185D02*
X44821431Y-166649757D01*
X44821431Y-166649757D02*
X44964288Y-166578328D01*
X46035716Y-166721185D02*
X46107144Y-166649757D01*
X46107144Y-166649757D02*
X46250002Y-166578328D01*
X46250002Y-166578328D02*
X46607144Y-166578328D01*
X46607144Y-166578328D02*
X46750002Y-166649757D01*
X46750002Y-166649757D02*
X46821430Y-166721185D01*
X46821430Y-166721185D02*
X46892859Y-166864042D01*
X46892859Y-166864042D02*
X46892859Y-167006900D01*
X46892859Y-167006900D02*
X46821430Y-167221185D01*
X46821430Y-167221185D02*
X45964287Y-168078328D01*
X45964287Y-168078328D02*
X46892859Y-168078328D01*
X47392858Y-166578328D02*
X48321430Y-166578328D01*
X48321430Y-166578328D02*
X47821430Y-167149757D01*
X47821430Y-167149757D02*
X48035715Y-167149757D01*
X48035715Y-167149757D02*
X48178573Y-167221185D01*
X48178573Y-167221185D02*
X48250001Y-167292614D01*
X48250001Y-167292614D02*
X48321430Y-167435471D01*
X48321430Y-167435471D02*
X48321430Y-167792614D01*
X48321430Y-167792614D02*
X48250001Y-167935471D01*
X48250001Y-167935471D02*
X48178573Y-168006900D01*
X48178573Y-168006900D02*
X48035715Y-168078328D01*
X48035715Y-168078328D02*
X47607144Y-168078328D01*
X47607144Y-168078328D02*
X47464287Y-168006900D01*
X47464287Y-168006900D02*
X47392858Y-167935471D01*
X50035715Y-166506900D02*
X48750001Y-168435471D01*
X50821430Y-166578328D02*
X50964287Y-166578328D01*
X50964287Y-166578328D02*
X51107144Y-166649757D01*
X51107144Y-166649757D02*
X51178573Y-166721185D01*
X51178573Y-166721185D02*
X51250001Y-166864042D01*
X51250001Y-166864042D02*
X51321430Y-167149757D01*
X51321430Y-167149757D02*
X51321430Y-167506900D01*
X51321430Y-167506900D02*
X51250001Y-167792614D01*
X51250001Y-167792614D02*
X51178573Y-167935471D01*
X51178573Y-167935471D02*
X51107144Y-168006900D01*
X51107144Y-168006900D02*
X50964287Y-168078328D01*
X50964287Y-168078328D02*
X50821430Y-168078328D01*
X50821430Y-168078328D02*
X50678573Y-168006900D01*
X50678573Y-168006900D02*
X50607144Y-167935471D01*
X50607144Y-167935471D02*
X50535715Y-167792614D01*
X50535715Y-167792614D02*
X50464287Y-167506900D01*
X50464287Y-167506900D02*
X50464287Y-167149757D01*
X50464287Y-167149757D02*
X50535715Y-166864042D01*
X50535715Y-166864042D02*
X50607144Y-166721185D01*
X50607144Y-166721185D02*
X50678573Y-166649757D01*
X50678573Y-166649757D02*
X50821430Y-166578328D01*
X51892858Y-166721185D02*
X51964286Y-166649757D01*
X51964286Y-166649757D02*
X52107144Y-166578328D01*
X52107144Y-166578328D02*
X52464286Y-166578328D01*
X52464286Y-166578328D02*
X52607144Y-166649757D01*
X52607144Y-166649757D02*
X52678572Y-166721185D01*
X52678572Y-166721185D02*
X52750001Y-166864042D01*
X52750001Y-166864042D02*
X52750001Y-167006900D01*
X52750001Y-167006900D02*
X52678572Y-167221185D01*
X52678572Y-167221185D02*
X51821429Y-168078328D01*
X51821429Y-168078328D02*
X52750001Y-168078328D01*
D11*
%TO.C,SW2*%
X68666667Y-162407200D02*
X68809524Y-162454819D01*
X68809524Y-162454819D02*
X69047619Y-162454819D01*
X69047619Y-162454819D02*
X69142857Y-162407200D01*
X69142857Y-162407200D02*
X69190476Y-162359580D01*
X69190476Y-162359580D02*
X69238095Y-162264342D01*
X69238095Y-162264342D02*
X69238095Y-162169104D01*
X69238095Y-162169104D02*
X69190476Y-162073866D01*
X69190476Y-162073866D02*
X69142857Y-162026247D01*
X69142857Y-162026247D02*
X69047619Y-161978628D01*
X69047619Y-161978628D02*
X68857143Y-161931009D01*
X68857143Y-161931009D02*
X68761905Y-161883390D01*
X68761905Y-161883390D02*
X68714286Y-161835771D01*
X68714286Y-161835771D02*
X68666667Y-161740533D01*
X68666667Y-161740533D02*
X68666667Y-161645295D01*
X68666667Y-161645295D02*
X68714286Y-161550057D01*
X68714286Y-161550057D02*
X68761905Y-161502438D01*
X68761905Y-161502438D02*
X68857143Y-161454819D01*
X68857143Y-161454819D02*
X69095238Y-161454819D01*
X69095238Y-161454819D02*
X69238095Y-161502438D01*
X69571429Y-161454819D02*
X69809524Y-162454819D01*
X69809524Y-162454819D02*
X70000000Y-161740533D01*
X70000000Y-161740533D02*
X70190476Y-162454819D01*
X70190476Y-162454819D02*
X70428572Y-161454819D01*
X70761905Y-161550057D02*
X70809524Y-161502438D01*
X70809524Y-161502438D02*
X70904762Y-161454819D01*
X70904762Y-161454819D02*
X71142857Y-161454819D01*
X71142857Y-161454819D02*
X71238095Y-161502438D01*
X71238095Y-161502438D02*
X71285714Y-161550057D01*
X71285714Y-161550057D02*
X71333333Y-161645295D01*
X71333333Y-161645295D02*
X71333333Y-161740533D01*
X71333333Y-161740533D02*
X71285714Y-161883390D01*
X71285714Y-161883390D02*
X70714286Y-162454819D01*
X70714286Y-162454819D02*
X71333333Y-162454819D01*
%TO.C,REF\u002A\u002A*%
X68666666Y-188454819D02*
X68333333Y-187978628D01*
X68095238Y-188454819D02*
X68095238Y-187454819D01*
X68095238Y-187454819D02*
X68476190Y-187454819D01*
X68476190Y-187454819D02*
X68571428Y-187502438D01*
X68571428Y-187502438D02*
X68619047Y-187550057D01*
X68619047Y-187550057D02*
X68666666Y-187645295D01*
X68666666Y-187645295D02*
X68666666Y-187788152D01*
X68666666Y-187788152D02*
X68619047Y-187883390D01*
X68619047Y-187883390D02*
X68571428Y-187931009D01*
X68571428Y-187931009D02*
X68476190Y-187978628D01*
X68476190Y-187978628D02*
X68095238Y-187978628D01*
X69095238Y-187931009D02*
X69428571Y-187931009D01*
X69571428Y-188454819D02*
X69095238Y-188454819D01*
X69095238Y-188454819D02*
X69095238Y-187454819D01*
X69095238Y-187454819D02*
X69571428Y-187454819D01*
X70333333Y-187931009D02*
X70000000Y-187931009D01*
X70000000Y-188454819D02*
X70000000Y-187454819D01*
X70000000Y-187454819D02*
X70476190Y-187454819D01*
X71000000Y-187454819D02*
X71000000Y-187692914D01*
X70761905Y-187597676D02*
X71000000Y-187692914D01*
X71000000Y-187692914D02*
X71238095Y-187597676D01*
X70857143Y-187883390D02*
X71000000Y-187692914D01*
X71000000Y-187692914D02*
X71142857Y-187883390D01*
X71761905Y-187454819D02*
X71761905Y-187692914D01*
X71523810Y-187597676D02*
X71761905Y-187692914D01*
X71761905Y-187692914D02*
X72000000Y-187597676D01*
X71619048Y-187883390D02*
X71761905Y-187692914D01*
X71761905Y-187692914D02*
X71904762Y-187883390D01*
%TO.C,SW7*%
X33666667Y-77407200D02*
X33809524Y-77454819D01*
X33809524Y-77454819D02*
X34047619Y-77454819D01*
X34047619Y-77454819D02*
X34142857Y-77407200D01*
X34142857Y-77407200D02*
X34190476Y-77359580D01*
X34190476Y-77359580D02*
X34238095Y-77264342D01*
X34238095Y-77264342D02*
X34238095Y-77169104D01*
X34238095Y-77169104D02*
X34190476Y-77073866D01*
X34190476Y-77073866D02*
X34142857Y-77026247D01*
X34142857Y-77026247D02*
X34047619Y-76978628D01*
X34047619Y-76978628D02*
X33857143Y-76931009D01*
X33857143Y-76931009D02*
X33761905Y-76883390D01*
X33761905Y-76883390D02*
X33714286Y-76835771D01*
X33714286Y-76835771D02*
X33666667Y-76740533D01*
X33666667Y-76740533D02*
X33666667Y-76645295D01*
X33666667Y-76645295D02*
X33714286Y-76550057D01*
X33714286Y-76550057D02*
X33761905Y-76502438D01*
X33761905Y-76502438D02*
X33857143Y-76454819D01*
X33857143Y-76454819D02*
X34095238Y-76454819D01*
X34095238Y-76454819D02*
X34238095Y-76502438D01*
X34571429Y-76454819D02*
X34809524Y-77454819D01*
X34809524Y-77454819D02*
X35000000Y-76740533D01*
X35000000Y-76740533D02*
X35190476Y-77454819D01*
X35190476Y-77454819D02*
X35428572Y-76454819D01*
X35714286Y-76454819D02*
X36380952Y-76454819D01*
X36380952Y-76454819D02*
X35952381Y-77454819D01*
%TO.C,SW5*%
X33666667Y-32407200D02*
X33809524Y-32454819D01*
X33809524Y-32454819D02*
X34047619Y-32454819D01*
X34047619Y-32454819D02*
X34142857Y-32407200D01*
X34142857Y-32407200D02*
X34190476Y-32359580D01*
X34190476Y-32359580D02*
X34238095Y-32264342D01*
X34238095Y-32264342D02*
X34238095Y-32169104D01*
X34238095Y-32169104D02*
X34190476Y-32073866D01*
X34190476Y-32073866D02*
X34142857Y-32026247D01*
X34142857Y-32026247D02*
X34047619Y-31978628D01*
X34047619Y-31978628D02*
X33857143Y-31931009D01*
X33857143Y-31931009D02*
X33761905Y-31883390D01*
X33761905Y-31883390D02*
X33714286Y-31835771D01*
X33714286Y-31835771D02*
X33666667Y-31740533D01*
X33666667Y-31740533D02*
X33666667Y-31645295D01*
X33666667Y-31645295D02*
X33714286Y-31550057D01*
X33714286Y-31550057D02*
X33761905Y-31502438D01*
X33761905Y-31502438D02*
X33857143Y-31454819D01*
X33857143Y-31454819D02*
X34095238Y-31454819D01*
X34095238Y-31454819D02*
X34238095Y-31502438D01*
X34571429Y-31454819D02*
X34809524Y-32454819D01*
X34809524Y-32454819D02*
X35000000Y-31740533D01*
X35000000Y-31740533D02*
X35190476Y-32454819D01*
X35190476Y-32454819D02*
X35428572Y-31454819D01*
X36285714Y-31454819D02*
X35809524Y-31454819D01*
X35809524Y-31454819D02*
X35761905Y-31931009D01*
X35761905Y-31931009D02*
X35809524Y-31883390D01*
X35809524Y-31883390D02*
X35904762Y-31835771D01*
X35904762Y-31835771D02*
X36142857Y-31835771D01*
X36142857Y-31835771D02*
X36238095Y-31883390D01*
X36238095Y-31883390D02*
X36285714Y-31931009D01*
X36285714Y-31931009D02*
X36333333Y-32026247D01*
X36333333Y-32026247D02*
X36333333Y-32264342D01*
X36333333Y-32264342D02*
X36285714Y-32359580D01*
X36285714Y-32359580D02*
X36238095Y-32407200D01*
X36238095Y-32407200D02*
X36142857Y-32454819D01*
X36142857Y-32454819D02*
X35904762Y-32454819D01*
X35904762Y-32454819D02*
X35809524Y-32407200D01*
X35809524Y-32407200D02*
X35761905Y-32359580D01*
%TO.C,D10*%
X30705714Y-138984819D02*
X30705714Y-137984819D01*
X30705714Y-137984819D02*
X30943809Y-137984819D01*
X30943809Y-137984819D02*
X31086666Y-138032438D01*
X31086666Y-138032438D02*
X31181904Y-138127676D01*
X31181904Y-138127676D02*
X31229523Y-138222914D01*
X31229523Y-138222914D02*
X31277142Y-138413390D01*
X31277142Y-138413390D02*
X31277142Y-138556247D01*
X31277142Y-138556247D02*
X31229523Y-138746723D01*
X31229523Y-138746723D02*
X31181904Y-138841961D01*
X31181904Y-138841961D02*
X31086666Y-138937200D01*
X31086666Y-138937200D02*
X30943809Y-138984819D01*
X30943809Y-138984819D02*
X30705714Y-138984819D01*
X32229523Y-138984819D02*
X31658095Y-138984819D01*
X31943809Y-138984819D02*
X31943809Y-137984819D01*
X31943809Y-137984819D02*
X31848571Y-138127676D01*
X31848571Y-138127676D02*
X31753333Y-138222914D01*
X31753333Y-138222914D02*
X31658095Y-138270533D01*
X32848571Y-137984819D02*
X32943809Y-137984819D01*
X32943809Y-137984819D02*
X33039047Y-138032438D01*
X33039047Y-138032438D02*
X33086666Y-138080057D01*
X33086666Y-138080057D02*
X33134285Y-138175295D01*
X33134285Y-138175295D02*
X33181904Y-138365771D01*
X33181904Y-138365771D02*
X33181904Y-138603866D01*
X33181904Y-138603866D02*
X33134285Y-138794342D01*
X33134285Y-138794342D02*
X33086666Y-138889580D01*
X33086666Y-138889580D02*
X33039047Y-138937200D01*
X33039047Y-138937200D02*
X32943809Y-138984819D01*
X32943809Y-138984819D02*
X32848571Y-138984819D01*
X32848571Y-138984819D02*
X32753333Y-138937200D01*
X32753333Y-138937200D02*
X32705714Y-138889580D01*
X32705714Y-138889580D02*
X32658095Y-138794342D01*
X32658095Y-138794342D02*
X32610476Y-138603866D01*
X32610476Y-138603866D02*
X32610476Y-138365771D01*
X32610476Y-138365771D02*
X32658095Y-138175295D01*
X32658095Y-138175295D02*
X32705714Y-138080057D01*
X32705714Y-138080057D02*
X32753333Y-138032438D01*
X32753333Y-138032438D02*
X32848571Y-137984819D01*
X26578095Y-139354819D02*
X26578095Y-138354819D01*
X27149523Y-139354819D02*
X26720952Y-138783390D01*
X27149523Y-138354819D02*
X26578095Y-138926247D01*
%TO.C,RV2*%
X80154761Y-72704819D02*
X79821428Y-72228628D01*
X79583333Y-72704819D02*
X79583333Y-71704819D01*
X79583333Y-71704819D02*
X79964285Y-71704819D01*
X79964285Y-71704819D02*
X80059523Y-71752438D01*
X80059523Y-71752438D02*
X80107142Y-71800057D01*
X80107142Y-71800057D02*
X80154761Y-71895295D01*
X80154761Y-71895295D02*
X80154761Y-72038152D01*
X80154761Y-72038152D02*
X80107142Y-72133390D01*
X80107142Y-72133390D02*
X80059523Y-72181009D01*
X80059523Y-72181009D02*
X79964285Y-72228628D01*
X79964285Y-72228628D02*
X79583333Y-72228628D01*
X80440476Y-71704819D02*
X80773809Y-72704819D01*
X80773809Y-72704819D02*
X81107142Y-71704819D01*
X81392857Y-71800057D02*
X81440476Y-71752438D01*
X81440476Y-71752438D02*
X81535714Y-71704819D01*
X81535714Y-71704819D02*
X81773809Y-71704819D01*
X81773809Y-71704819D02*
X81869047Y-71752438D01*
X81869047Y-71752438D02*
X81916666Y-71800057D01*
X81916666Y-71800057D02*
X81964285Y-71895295D01*
X81964285Y-71895295D02*
X81964285Y-71990533D01*
X81964285Y-71990533D02*
X81916666Y-72133390D01*
X81916666Y-72133390D02*
X81345238Y-72704819D01*
X81345238Y-72704819D02*
X81964285Y-72704819D01*
%TO.C,SW8*%
X33666667Y-97407200D02*
X33809524Y-97454819D01*
X33809524Y-97454819D02*
X34047619Y-97454819D01*
X34047619Y-97454819D02*
X34142857Y-97407200D01*
X34142857Y-97407200D02*
X34190476Y-97359580D01*
X34190476Y-97359580D02*
X34238095Y-97264342D01*
X34238095Y-97264342D02*
X34238095Y-97169104D01*
X34238095Y-97169104D02*
X34190476Y-97073866D01*
X34190476Y-97073866D02*
X34142857Y-97026247D01*
X34142857Y-97026247D02*
X34047619Y-96978628D01*
X34047619Y-96978628D02*
X33857143Y-96931009D01*
X33857143Y-96931009D02*
X33761905Y-96883390D01*
X33761905Y-96883390D02*
X33714286Y-96835771D01*
X33714286Y-96835771D02*
X33666667Y-96740533D01*
X33666667Y-96740533D02*
X33666667Y-96645295D01*
X33666667Y-96645295D02*
X33714286Y-96550057D01*
X33714286Y-96550057D02*
X33761905Y-96502438D01*
X33761905Y-96502438D02*
X33857143Y-96454819D01*
X33857143Y-96454819D02*
X34095238Y-96454819D01*
X34095238Y-96454819D02*
X34238095Y-96502438D01*
X34571429Y-96454819D02*
X34809524Y-97454819D01*
X34809524Y-97454819D02*
X35000000Y-96740533D01*
X35000000Y-96740533D02*
X35190476Y-97454819D01*
X35190476Y-97454819D02*
X35428572Y-96454819D01*
X35952381Y-96883390D02*
X35857143Y-96835771D01*
X35857143Y-96835771D02*
X35809524Y-96788152D01*
X35809524Y-96788152D02*
X35761905Y-96692914D01*
X35761905Y-96692914D02*
X35761905Y-96645295D01*
X35761905Y-96645295D02*
X35809524Y-96550057D01*
X35809524Y-96550057D02*
X35857143Y-96502438D01*
X35857143Y-96502438D02*
X35952381Y-96454819D01*
X35952381Y-96454819D02*
X36142857Y-96454819D01*
X36142857Y-96454819D02*
X36238095Y-96502438D01*
X36238095Y-96502438D02*
X36285714Y-96550057D01*
X36285714Y-96550057D02*
X36333333Y-96645295D01*
X36333333Y-96645295D02*
X36333333Y-96692914D01*
X36333333Y-96692914D02*
X36285714Y-96788152D01*
X36285714Y-96788152D02*
X36238095Y-96835771D01*
X36238095Y-96835771D02*
X36142857Y-96883390D01*
X36142857Y-96883390D02*
X35952381Y-96883390D01*
X35952381Y-96883390D02*
X35857143Y-96931009D01*
X35857143Y-96931009D02*
X35809524Y-96978628D01*
X35809524Y-96978628D02*
X35761905Y-97073866D01*
X35761905Y-97073866D02*
X35761905Y-97264342D01*
X35761905Y-97264342D02*
X35809524Y-97359580D01*
X35809524Y-97359580D02*
X35857143Y-97407200D01*
X35857143Y-97407200D02*
X35952381Y-97454819D01*
X35952381Y-97454819D02*
X36142857Y-97454819D01*
X36142857Y-97454819D02*
X36238095Y-97407200D01*
X36238095Y-97407200D02*
X36285714Y-97359580D01*
X36285714Y-97359580D02*
X36333333Y-97264342D01*
X36333333Y-97264342D02*
X36333333Y-97073866D01*
X36333333Y-97073866D02*
X36285714Y-96978628D01*
X36285714Y-96978628D02*
X36238095Y-96931009D01*
X36238095Y-96931009D02*
X36142857Y-96883390D01*
%TO.C,H5*%
X94238095Y-186654819D02*
X94238095Y-185654819D01*
X94238095Y-186131009D02*
X94809523Y-186131009D01*
X94809523Y-186654819D02*
X94809523Y-185654819D01*
X95761904Y-185654819D02*
X95285714Y-185654819D01*
X95285714Y-185654819D02*
X95238095Y-186131009D01*
X95238095Y-186131009D02*
X95285714Y-186083390D01*
X95285714Y-186083390D02*
X95380952Y-186035771D01*
X95380952Y-186035771D02*
X95619047Y-186035771D01*
X95619047Y-186035771D02*
X95714285Y-186083390D01*
X95714285Y-186083390D02*
X95761904Y-186131009D01*
X95761904Y-186131009D02*
X95809523Y-186226247D01*
X95809523Y-186226247D02*
X95809523Y-186464342D01*
X95809523Y-186464342D02*
X95761904Y-186559580D01*
X95761904Y-186559580D02*
X95714285Y-186607200D01*
X95714285Y-186607200D02*
X95619047Y-186654819D01*
X95619047Y-186654819D02*
X95380952Y-186654819D01*
X95380952Y-186654819D02*
X95285714Y-186607200D01*
X95285714Y-186607200D02*
X95238095Y-186559580D01*
%TO.C,D3*%
X66261905Y-178984819D02*
X66261905Y-177984819D01*
X66261905Y-177984819D02*
X66500000Y-177984819D01*
X66500000Y-177984819D02*
X66642857Y-178032438D01*
X66642857Y-178032438D02*
X66738095Y-178127676D01*
X66738095Y-178127676D02*
X66785714Y-178222914D01*
X66785714Y-178222914D02*
X66833333Y-178413390D01*
X66833333Y-178413390D02*
X66833333Y-178556247D01*
X66833333Y-178556247D02*
X66785714Y-178746723D01*
X66785714Y-178746723D02*
X66738095Y-178841961D01*
X66738095Y-178841961D02*
X66642857Y-178937200D01*
X66642857Y-178937200D02*
X66500000Y-178984819D01*
X66500000Y-178984819D02*
X66261905Y-178984819D01*
X67166667Y-177984819D02*
X67785714Y-177984819D01*
X67785714Y-177984819D02*
X67452381Y-178365771D01*
X67452381Y-178365771D02*
X67595238Y-178365771D01*
X67595238Y-178365771D02*
X67690476Y-178413390D01*
X67690476Y-178413390D02*
X67738095Y-178461009D01*
X67738095Y-178461009D02*
X67785714Y-178556247D01*
X67785714Y-178556247D02*
X67785714Y-178794342D01*
X67785714Y-178794342D02*
X67738095Y-178889580D01*
X67738095Y-178889580D02*
X67690476Y-178937200D01*
X67690476Y-178937200D02*
X67595238Y-178984819D01*
X67595238Y-178984819D02*
X67309524Y-178984819D01*
X67309524Y-178984819D02*
X67214286Y-178937200D01*
X67214286Y-178937200D02*
X67166667Y-178889580D01*
X61658095Y-179354819D02*
X61658095Y-178354819D01*
X62229523Y-179354819D02*
X61800952Y-178783390D01*
X62229523Y-178354819D02*
X61658095Y-178926247D01*
%TO.C,SW10*%
X33190476Y-142407200D02*
X33333333Y-142454819D01*
X33333333Y-142454819D02*
X33571428Y-142454819D01*
X33571428Y-142454819D02*
X33666666Y-142407200D01*
X33666666Y-142407200D02*
X33714285Y-142359580D01*
X33714285Y-142359580D02*
X33761904Y-142264342D01*
X33761904Y-142264342D02*
X33761904Y-142169104D01*
X33761904Y-142169104D02*
X33714285Y-142073866D01*
X33714285Y-142073866D02*
X33666666Y-142026247D01*
X33666666Y-142026247D02*
X33571428Y-141978628D01*
X33571428Y-141978628D02*
X33380952Y-141931009D01*
X33380952Y-141931009D02*
X33285714Y-141883390D01*
X33285714Y-141883390D02*
X33238095Y-141835771D01*
X33238095Y-141835771D02*
X33190476Y-141740533D01*
X33190476Y-141740533D02*
X33190476Y-141645295D01*
X33190476Y-141645295D02*
X33238095Y-141550057D01*
X33238095Y-141550057D02*
X33285714Y-141502438D01*
X33285714Y-141502438D02*
X33380952Y-141454819D01*
X33380952Y-141454819D02*
X33619047Y-141454819D01*
X33619047Y-141454819D02*
X33761904Y-141502438D01*
X34095238Y-141454819D02*
X34333333Y-142454819D01*
X34333333Y-142454819D02*
X34523809Y-141740533D01*
X34523809Y-141740533D02*
X34714285Y-142454819D01*
X34714285Y-142454819D02*
X34952381Y-141454819D01*
X35857142Y-142454819D02*
X35285714Y-142454819D01*
X35571428Y-142454819D02*
X35571428Y-141454819D01*
X35571428Y-141454819D02*
X35476190Y-141597676D01*
X35476190Y-141597676D02*
X35380952Y-141692914D01*
X35380952Y-141692914D02*
X35285714Y-141740533D01*
X36476190Y-141454819D02*
X36571428Y-141454819D01*
X36571428Y-141454819D02*
X36666666Y-141502438D01*
X36666666Y-141502438D02*
X36714285Y-141550057D01*
X36714285Y-141550057D02*
X36761904Y-141645295D01*
X36761904Y-141645295D02*
X36809523Y-141835771D01*
X36809523Y-141835771D02*
X36809523Y-142073866D01*
X36809523Y-142073866D02*
X36761904Y-142264342D01*
X36761904Y-142264342D02*
X36714285Y-142359580D01*
X36714285Y-142359580D02*
X36666666Y-142407200D01*
X36666666Y-142407200D02*
X36571428Y-142454819D01*
X36571428Y-142454819D02*
X36476190Y-142454819D01*
X36476190Y-142454819D02*
X36380952Y-142407200D01*
X36380952Y-142407200D02*
X36333333Y-142359580D01*
X36333333Y-142359580D02*
X36285714Y-142264342D01*
X36285714Y-142264342D02*
X36238095Y-142073866D01*
X36238095Y-142073866D02*
X36238095Y-141835771D01*
X36238095Y-141835771D02*
X36285714Y-141645295D01*
X36285714Y-141645295D02*
X36333333Y-141550057D01*
X36333333Y-141550057D02*
X36380952Y-141502438D01*
X36380952Y-141502438D02*
X36476190Y-141454819D01*
%TO.C,REF\u002A\u002A*%
X68586666Y-148454819D02*
X68253333Y-147978628D01*
X68015238Y-148454819D02*
X68015238Y-147454819D01*
X68015238Y-147454819D02*
X68396190Y-147454819D01*
X68396190Y-147454819D02*
X68491428Y-147502438D01*
X68491428Y-147502438D02*
X68539047Y-147550057D01*
X68539047Y-147550057D02*
X68586666Y-147645295D01*
X68586666Y-147645295D02*
X68586666Y-147788152D01*
X68586666Y-147788152D02*
X68539047Y-147883390D01*
X68539047Y-147883390D02*
X68491428Y-147931009D01*
X68491428Y-147931009D02*
X68396190Y-147978628D01*
X68396190Y-147978628D02*
X68015238Y-147978628D01*
X69015238Y-147931009D02*
X69348571Y-147931009D01*
X69491428Y-148454819D02*
X69015238Y-148454819D01*
X69015238Y-148454819D02*
X69015238Y-147454819D01*
X69015238Y-147454819D02*
X69491428Y-147454819D01*
X70253333Y-147931009D02*
X69920000Y-147931009D01*
X69920000Y-148454819D02*
X69920000Y-147454819D01*
X69920000Y-147454819D02*
X70396190Y-147454819D01*
X70920000Y-147454819D02*
X70920000Y-147692914D01*
X70681905Y-147597676D02*
X70920000Y-147692914D01*
X70920000Y-147692914D02*
X71158095Y-147597676D01*
X70777143Y-147883390D02*
X70920000Y-147692914D01*
X70920000Y-147692914D02*
X71062857Y-147883390D01*
X71681905Y-147454819D02*
X71681905Y-147692914D01*
X71443810Y-147597676D02*
X71681905Y-147692914D01*
X71681905Y-147692914D02*
X71920000Y-147597676D01*
X71539048Y-147883390D02*
X71681905Y-147692914D01*
X71681905Y-147692914D02*
X71824762Y-147883390D01*
%TO.C,D8*%
X31181905Y-93984819D02*
X31181905Y-92984819D01*
X31181905Y-92984819D02*
X31420000Y-92984819D01*
X31420000Y-92984819D02*
X31562857Y-93032438D01*
X31562857Y-93032438D02*
X31658095Y-93127676D01*
X31658095Y-93127676D02*
X31705714Y-93222914D01*
X31705714Y-93222914D02*
X31753333Y-93413390D01*
X31753333Y-93413390D02*
X31753333Y-93556247D01*
X31753333Y-93556247D02*
X31705714Y-93746723D01*
X31705714Y-93746723D02*
X31658095Y-93841961D01*
X31658095Y-93841961D02*
X31562857Y-93937200D01*
X31562857Y-93937200D02*
X31420000Y-93984819D01*
X31420000Y-93984819D02*
X31181905Y-93984819D01*
X32324762Y-93413390D02*
X32229524Y-93365771D01*
X32229524Y-93365771D02*
X32181905Y-93318152D01*
X32181905Y-93318152D02*
X32134286Y-93222914D01*
X32134286Y-93222914D02*
X32134286Y-93175295D01*
X32134286Y-93175295D02*
X32181905Y-93080057D01*
X32181905Y-93080057D02*
X32229524Y-93032438D01*
X32229524Y-93032438D02*
X32324762Y-92984819D01*
X32324762Y-92984819D02*
X32515238Y-92984819D01*
X32515238Y-92984819D02*
X32610476Y-93032438D01*
X32610476Y-93032438D02*
X32658095Y-93080057D01*
X32658095Y-93080057D02*
X32705714Y-93175295D01*
X32705714Y-93175295D02*
X32705714Y-93222914D01*
X32705714Y-93222914D02*
X32658095Y-93318152D01*
X32658095Y-93318152D02*
X32610476Y-93365771D01*
X32610476Y-93365771D02*
X32515238Y-93413390D01*
X32515238Y-93413390D02*
X32324762Y-93413390D01*
X32324762Y-93413390D02*
X32229524Y-93461009D01*
X32229524Y-93461009D02*
X32181905Y-93508628D01*
X32181905Y-93508628D02*
X32134286Y-93603866D01*
X32134286Y-93603866D02*
X32134286Y-93794342D01*
X32134286Y-93794342D02*
X32181905Y-93889580D01*
X32181905Y-93889580D02*
X32229524Y-93937200D01*
X32229524Y-93937200D02*
X32324762Y-93984819D01*
X32324762Y-93984819D02*
X32515238Y-93984819D01*
X32515238Y-93984819D02*
X32610476Y-93937200D01*
X32610476Y-93937200D02*
X32658095Y-93889580D01*
X32658095Y-93889580D02*
X32705714Y-93794342D01*
X32705714Y-93794342D02*
X32705714Y-93603866D01*
X32705714Y-93603866D02*
X32658095Y-93508628D01*
X32658095Y-93508628D02*
X32610476Y-93461009D01*
X32610476Y-93461009D02*
X32515238Y-93413390D01*
X26578095Y-94354819D02*
X26578095Y-93354819D01*
X27149523Y-94354819D02*
X26720952Y-93783390D01*
X27149523Y-93354819D02*
X26578095Y-93926247D01*
%TO.C,SW6*%
X33666667Y-52407200D02*
X33809524Y-52454819D01*
X33809524Y-52454819D02*
X34047619Y-52454819D01*
X34047619Y-52454819D02*
X34142857Y-52407200D01*
X34142857Y-52407200D02*
X34190476Y-52359580D01*
X34190476Y-52359580D02*
X34238095Y-52264342D01*
X34238095Y-52264342D02*
X34238095Y-52169104D01*
X34238095Y-52169104D02*
X34190476Y-52073866D01*
X34190476Y-52073866D02*
X34142857Y-52026247D01*
X34142857Y-52026247D02*
X34047619Y-51978628D01*
X34047619Y-51978628D02*
X33857143Y-51931009D01*
X33857143Y-51931009D02*
X33761905Y-51883390D01*
X33761905Y-51883390D02*
X33714286Y-51835771D01*
X33714286Y-51835771D02*
X33666667Y-51740533D01*
X33666667Y-51740533D02*
X33666667Y-51645295D01*
X33666667Y-51645295D02*
X33714286Y-51550057D01*
X33714286Y-51550057D02*
X33761905Y-51502438D01*
X33761905Y-51502438D02*
X33857143Y-51454819D01*
X33857143Y-51454819D02*
X34095238Y-51454819D01*
X34095238Y-51454819D02*
X34238095Y-51502438D01*
X34571429Y-51454819D02*
X34809524Y-52454819D01*
X34809524Y-52454819D02*
X35000000Y-51740533D01*
X35000000Y-51740533D02*
X35190476Y-52454819D01*
X35190476Y-52454819D02*
X35428572Y-51454819D01*
X36238095Y-51454819D02*
X36047619Y-51454819D01*
X36047619Y-51454819D02*
X35952381Y-51502438D01*
X35952381Y-51502438D02*
X35904762Y-51550057D01*
X35904762Y-51550057D02*
X35809524Y-51692914D01*
X35809524Y-51692914D02*
X35761905Y-51883390D01*
X35761905Y-51883390D02*
X35761905Y-52264342D01*
X35761905Y-52264342D02*
X35809524Y-52359580D01*
X35809524Y-52359580D02*
X35857143Y-52407200D01*
X35857143Y-52407200D02*
X35952381Y-52454819D01*
X35952381Y-52454819D02*
X36142857Y-52454819D01*
X36142857Y-52454819D02*
X36238095Y-52407200D01*
X36238095Y-52407200D02*
X36285714Y-52359580D01*
X36285714Y-52359580D02*
X36333333Y-52264342D01*
X36333333Y-52264342D02*
X36333333Y-52026247D01*
X36333333Y-52026247D02*
X36285714Y-51931009D01*
X36285714Y-51931009D02*
X36238095Y-51883390D01*
X36238095Y-51883390D02*
X36142857Y-51835771D01*
X36142857Y-51835771D02*
X35952381Y-51835771D01*
X35952381Y-51835771D02*
X35857143Y-51883390D01*
X35857143Y-51883390D02*
X35809524Y-51931009D01*
X35809524Y-51931009D02*
X35761905Y-52026247D01*
%TO.C,H3*%
X94238095Y-131654819D02*
X94238095Y-130654819D01*
X94238095Y-131131009D02*
X94809523Y-131131009D01*
X94809523Y-131654819D02*
X94809523Y-130654819D01*
X95190476Y-130654819D02*
X95809523Y-130654819D01*
X95809523Y-130654819D02*
X95476190Y-131035771D01*
X95476190Y-131035771D02*
X95619047Y-131035771D01*
X95619047Y-131035771D02*
X95714285Y-131083390D01*
X95714285Y-131083390D02*
X95761904Y-131131009D01*
X95761904Y-131131009D02*
X95809523Y-131226247D01*
X95809523Y-131226247D02*
X95809523Y-131464342D01*
X95809523Y-131464342D02*
X95761904Y-131559580D01*
X95761904Y-131559580D02*
X95714285Y-131607200D01*
X95714285Y-131607200D02*
X95619047Y-131654819D01*
X95619047Y-131654819D02*
X95333333Y-131654819D01*
X95333333Y-131654819D02*
X95238095Y-131607200D01*
X95238095Y-131607200D02*
X95190476Y-131559580D01*
%TO.C,SW1*%
X68586667Y-142407200D02*
X68729524Y-142454819D01*
X68729524Y-142454819D02*
X68967619Y-142454819D01*
X68967619Y-142454819D02*
X69062857Y-142407200D01*
X69062857Y-142407200D02*
X69110476Y-142359580D01*
X69110476Y-142359580D02*
X69158095Y-142264342D01*
X69158095Y-142264342D02*
X69158095Y-142169104D01*
X69158095Y-142169104D02*
X69110476Y-142073866D01*
X69110476Y-142073866D02*
X69062857Y-142026247D01*
X69062857Y-142026247D02*
X68967619Y-141978628D01*
X68967619Y-141978628D02*
X68777143Y-141931009D01*
X68777143Y-141931009D02*
X68681905Y-141883390D01*
X68681905Y-141883390D02*
X68634286Y-141835771D01*
X68634286Y-141835771D02*
X68586667Y-141740533D01*
X68586667Y-141740533D02*
X68586667Y-141645295D01*
X68586667Y-141645295D02*
X68634286Y-141550057D01*
X68634286Y-141550057D02*
X68681905Y-141502438D01*
X68681905Y-141502438D02*
X68777143Y-141454819D01*
X68777143Y-141454819D02*
X69015238Y-141454819D01*
X69015238Y-141454819D02*
X69158095Y-141502438D01*
X69491429Y-141454819D02*
X69729524Y-142454819D01*
X69729524Y-142454819D02*
X69920000Y-141740533D01*
X69920000Y-141740533D02*
X70110476Y-142454819D01*
X70110476Y-142454819D02*
X70348572Y-141454819D01*
X71253333Y-142454819D02*
X70681905Y-142454819D01*
X70967619Y-142454819D02*
X70967619Y-141454819D01*
X70967619Y-141454819D02*
X70872381Y-141597676D01*
X70872381Y-141597676D02*
X70777143Y-141692914D01*
X70777143Y-141692914D02*
X70681905Y-141740533D01*
%TO.C,REF\u002A\u002A*%
X68666666Y-168454819D02*
X68333333Y-167978628D01*
X68095238Y-168454819D02*
X68095238Y-167454819D01*
X68095238Y-167454819D02*
X68476190Y-167454819D01*
X68476190Y-167454819D02*
X68571428Y-167502438D01*
X68571428Y-167502438D02*
X68619047Y-167550057D01*
X68619047Y-167550057D02*
X68666666Y-167645295D01*
X68666666Y-167645295D02*
X68666666Y-167788152D01*
X68666666Y-167788152D02*
X68619047Y-167883390D01*
X68619047Y-167883390D02*
X68571428Y-167931009D01*
X68571428Y-167931009D02*
X68476190Y-167978628D01*
X68476190Y-167978628D02*
X68095238Y-167978628D01*
X69095238Y-167931009D02*
X69428571Y-167931009D01*
X69571428Y-168454819D02*
X69095238Y-168454819D01*
X69095238Y-168454819D02*
X69095238Y-167454819D01*
X69095238Y-167454819D02*
X69571428Y-167454819D01*
X70333333Y-167931009D02*
X70000000Y-167931009D01*
X70000000Y-168454819D02*
X70000000Y-167454819D01*
X70000000Y-167454819D02*
X70476190Y-167454819D01*
X71000000Y-167454819D02*
X71000000Y-167692914D01*
X70761905Y-167597676D02*
X71000000Y-167692914D01*
X71000000Y-167692914D02*
X71238095Y-167597676D01*
X70857143Y-167883390D02*
X71000000Y-167692914D01*
X71000000Y-167692914D02*
X71142857Y-167883390D01*
X71761905Y-167454819D02*
X71761905Y-167692914D01*
X71523810Y-167597676D02*
X71761905Y-167692914D01*
X71761905Y-167692914D02*
X72000000Y-167597676D01*
X71619048Y-167883390D02*
X71761905Y-167692914D01*
X71761905Y-167692914D02*
X71904762Y-167883390D01*
%TO.C,D1*%
X69181905Y-138984819D02*
X69181905Y-137984819D01*
X69181905Y-137984819D02*
X69420000Y-137984819D01*
X69420000Y-137984819D02*
X69562857Y-138032438D01*
X69562857Y-138032438D02*
X69658095Y-138127676D01*
X69658095Y-138127676D02*
X69705714Y-138222914D01*
X69705714Y-138222914D02*
X69753333Y-138413390D01*
X69753333Y-138413390D02*
X69753333Y-138556247D01*
X69753333Y-138556247D02*
X69705714Y-138746723D01*
X69705714Y-138746723D02*
X69658095Y-138841961D01*
X69658095Y-138841961D02*
X69562857Y-138937200D01*
X69562857Y-138937200D02*
X69420000Y-138984819D01*
X69420000Y-138984819D02*
X69181905Y-138984819D01*
X70705714Y-138984819D02*
X70134286Y-138984819D01*
X70420000Y-138984819D02*
X70420000Y-137984819D01*
X70420000Y-137984819D02*
X70324762Y-138127676D01*
X70324762Y-138127676D02*
X70229524Y-138222914D01*
X70229524Y-138222914D02*
X70134286Y-138270533D01*
X64578095Y-139354819D02*
X64578095Y-138354819D01*
X65149523Y-139354819D02*
X64720952Y-138783390D01*
X65149523Y-138354819D02*
X64578095Y-138926247D01*
%TO.C,SW9*%
X33666667Y-122407200D02*
X33809524Y-122454819D01*
X33809524Y-122454819D02*
X34047619Y-122454819D01*
X34047619Y-122454819D02*
X34142857Y-122407200D01*
X34142857Y-122407200D02*
X34190476Y-122359580D01*
X34190476Y-122359580D02*
X34238095Y-122264342D01*
X34238095Y-122264342D02*
X34238095Y-122169104D01*
X34238095Y-122169104D02*
X34190476Y-122073866D01*
X34190476Y-122073866D02*
X34142857Y-122026247D01*
X34142857Y-122026247D02*
X34047619Y-121978628D01*
X34047619Y-121978628D02*
X33857143Y-121931009D01*
X33857143Y-121931009D02*
X33761905Y-121883390D01*
X33761905Y-121883390D02*
X33714286Y-121835771D01*
X33714286Y-121835771D02*
X33666667Y-121740533D01*
X33666667Y-121740533D02*
X33666667Y-121645295D01*
X33666667Y-121645295D02*
X33714286Y-121550057D01*
X33714286Y-121550057D02*
X33761905Y-121502438D01*
X33761905Y-121502438D02*
X33857143Y-121454819D01*
X33857143Y-121454819D02*
X34095238Y-121454819D01*
X34095238Y-121454819D02*
X34238095Y-121502438D01*
X34571429Y-121454819D02*
X34809524Y-122454819D01*
X34809524Y-122454819D02*
X35000000Y-121740533D01*
X35000000Y-121740533D02*
X35190476Y-122454819D01*
X35190476Y-122454819D02*
X35428572Y-121454819D01*
X35857143Y-122454819D02*
X36047619Y-122454819D01*
X36047619Y-122454819D02*
X36142857Y-122407200D01*
X36142857Y-122407200D02*
X36190476Y-122359580D01*
X36190476Y-122359580D02*
X36285714Y-122216723D01*
X36285714Y-122216723D02*
X36333333Y-122026247D01*
X36333333Y-122026247D02*
X36333333Y-121645295D01*
X36333333Y-121645295D02*
X36285714Y-121550057D01*
X36285714Y-121550057D02*
X36238095Y-121502438D01*
X36238095Y-121502438D02*
X36142857Y-121454819D01*
X36142857Y-121454819D02*
X35952381Y-121454819D01*
X35952381Y-121454819D02*
X35857143Y-121502438D01*
X35857143Y-121502438D02*
X35809524Y-121550057D01*
X35809524Y-121550057D02*
X35761905Y-121645295D01*
X35761905Y-121645295D02*
X35761905Y-121883390D01*
X35761905Y-121883390D02*
X35809524Y-121978628D01*
X35809524Y-121978628D02*
X35857143Y-122026247D01*
X35857143Y-122026247D02*
X35952381Y-122073866D01*
X35952381Y-122073866D02*
X36142857Y-122073866D01*
X36142857Y-122073866D02*
X36238095Y-122026247D01*
X36238095Y-122026247D02*
X36285714Y-121978628D01*
X36285714Y-121978628D02*
X36333333Y-121883390D01*
%TO.C,RV1*%
X60154761Y-72704819D02*
X59821428Y-72228628D01*
X59583333Y-72704819D02*
X59583333Y-71704819D01*
X59583333Y-71704819D02*
X59964285Y-71704819D01*
X59964285Y-71704819D02*
X60059523Y-71752438D01*
X60059523Y-71752438D02*
X60107142Y-71800057D01*
X60107142Y-71800057D02*
X60154761Y-71895295D01*
X60154761Y-71895295D02*
X60154761Y-72038152D01*
X60154761Y-72038152D02*
X60107142Y-72133390D01*
X60107142Y-72133390D02*
X60059523Y-72181009D01*
X60059523Y-72181009D02*
X59964285Y-72228628D01*
X59964285Y-72228628D02*
X59583333Y-72228628D01*
X60440476Y-71704819D02*
X60773809Y-72704819D01*
X60773809Y-72704819D02*
X61107142Y-71704819D01*
X61964285Y-72704819D02*
X61392857Y-72704819D01*
X61678571Y-72704819D02*
X61678571Y-71704819D01*
X61678571Y-71704819D02*
X61583333Y-71847676D01*
X61583333Y-71847676D02*
X61488095Y-71942914D01*
X61488095Y-71942914D02*
X61392857Y-71990533D01*
%TO.C,H2*%
X94238095Y-16654819D02*
X94238095Y-15654819D01*
X94238095Y-16131009D02*
X94809523Y-16131009D01*
X94809523Y-16654819D02*
X94809523Y-15654819D01*
X95238095Y-15750057D02*
X95285714Y-15702438D01*
X95285714Y-15702438D02*
X95380952Y-15654819D01*
X95380952Y-15654819D02*
X95619047Y-15654819D01*
X95619047Y-15654819D02*
X95714285Y-15702438D01*
X95714285Y-15702438D02*
X95761904Y-15750057D01*
X95761904Y-15750057D02*
X95809523Y-15845295D01*
X95809523Y-15845295D02*
X95809523Y-15940533D01*
X95809523Y-15940533D02*
X95761904Y-16083390D01*
X95761904Y-16083390D02*
X95190476Y-16654819D01*
X95190476Y-16654819D02*
X95809523Y-16654819D01*
%TO.C,H1*%
X19238095Y-131654819D02*
X19238095Y-130654819D01*
X19238095Y-131131009D02*
X19809523Y-131131009D01*
X19809523Y-131654819D02*
X19809523Y-130654819D01*
X20809523Y-131654819D02*
X20238095Y-131654819D01*
X20523809Y-131654819D02*
X20523809Y-130654819D01*
X20523809Y-130654819D02*
X20428571Y-130797676D01*
X20428571Y-130797676D02*
X20333333Y-130892914D01*
X20333333Y-130892914D02*
X20238095Y-130940533D01*
%TO.C,H4*%
X19238095Y-16654819D02*
X19238095Y-15654819D01*
X19238095Y-16131009D02*
X19809523Y-16131009D01*
X19809523Y-16654819D02*
X19809523Y-15654819D01*
X20714285Y-15988152D02*
X20714285Y-16654819D01*
X20476190Y-15607200D02*
X20238095Y-16321485D01*
X20238095Y-16321485D02*
X20857142Y-16321485D01*
%TO.C,D7*%
X31181905Y-73984819D02*
X31181905Y-72984819D01*
X31181905Y-72984819D02*
X31420000Y-72984819D01*
X31420000Y-72984819D02*
X31562857Y-73032438D01*
X31562857Y-73032438D02*
X31658095Y-73127676D01*
X31658095Y-73127676D02*
X31705714Y-73222914D01*
X31705714Y-73222914D02*
X31753333Y-73413390D01*
X31753333Y-73413390D02*
X31753333Y-73556247D01*
X31753333Y-73556247D02*
X31705714Y-73746723D01*
X31705714Y-73746723D02*
X31658095Y-73841961D01*
X31658095Y-73841961D02*
X31562857Y-73937200D01*
X31562857Y-73937200D02*
X31420000Y-73984819D01*
X31420000Y-73984819D02*
X31181905Y-73984819D01*
X32086667Y-72984819D02*
X32753333Y-72984819D01*
X32753333Y-72984819D02*
X32324762Y-73984819D01*
X26578095Y-74354819D02*
X26578095Y-73354819D01*
X27149523Y-74354819D02*
X26720952Y-73783390D01*
X27149523Y-73354819D02*
X26578095Y-73926247D01*
%TO.C,H6*%
X19238095Y-186654819D02*
X19238095Y-185654819D01*
X19238095Y-186131009D02*
X19809523Y-186131009D01*
X19809523Y-186654819D02*
X19809523Y-185654819D01*
X20714285Y-185654819D02*
X20523809Y-185654819D01*
X20523809Y-185654819D02*
X20428571Y-185702438D01*
X20428571Y-185702438D02*
X20380952Y-185750057D01*
X20380952Y-185750057D02*
X20285714Y-185892914D01*
X20285714Y-185892914D02*
X20238095Y-186083390D01*
X20238095Y-186083390D02*
X20238095Y-186464342D01*
X20238095Y-186464342D02*
X20285714Y-186559580D01*
X20285714Y-186559580D02*
X20333333Y-186607200D01*
X20333333Y-186607200D02*
X20428571Y-186654819D01*
X20428571Y-186654819D02*
X20619047Y-186654819D01*
X20619047Y-186654819D02*
X20714285Y-186607200D01*
X20714285Y-186607200D02*
X20761904Y-186559580D01*
X20761904Y-186559580D02*
X20809523Y-186464342D01*
X20809523Y-186464342D02*
X20809523Y-186226247D01*
X20809523Y-186226247D02*
X20761904Y-186131009D01*
X20761904Y-186131009D02*
X20714285Y-186083390D01*
X20714285Y-186083390D02*
X20619047Y-186035771D01*
X20619047Y-186035771D02*
X20428571Y-186035771D01*
X20428571Y-186035771D02*
X20333333Y-186083390D01*
X20333333Y-186083390D02*
X20285714Y-186131009D01*
X20285714Y-186131009D02*
X20238095Y-186226247D01*
%TO.C,D2*%
X66181905Y-158984819D02*
X66181905Y-157984819D01*
X66181905Y-157984819D02*
X66420000Y-157984819D01*
X66420000Y-157984819D02*
X66562857Y-158032438D01*
X66562857Y-158032438D02*
X66658095Y-158127676D01*
X66658095Y-158127676D02*
X66705714Y-158222914D01*
X66705714Y-158222914D02*
X66753333Y-158413390D01*
X66753333Y-158413390D02*
X66753333Y-158556247D01*
X66753333Y-158556247D02*
X66705714Y-158746723D01*
X66705714Y-158746723D02*
X66658095Y-158841961D01*
X66658095Y-158841961D02*
X66562857Y-158937200D01*
X66562857Y-158937200D02*
X66420000Y-158984819D01*
X66420000Y-158984819D02*
X66181905Y-158984819D01*
X67134286Y-158080057D02*
X67181905Y-158032438D01*
X67181905Y-158032438D02*
X67277143Y-157984819D01*
X67277143Y-157984819D02*
X67515238Y-157984819D01*
X67515238Y-157984819D02*
X67610476Y-158032438D01*
X67610476Y-158032438D02*
X67658095Y-158080057D01*
X67658095Y-158080057D02*
X67705714Y-158175295D01*
X67705714Y-158175295D02*
X67705714Y-158270533D01*
X67705714Y-158270533D02*
X67658095Y-158413390D01*
X67658095Y-158413390D02*
X67086667Y-158984819D01*
X67086667Y-158984819D02*
X67705714Y-158984819D01*
X61578095Y-159354819D02*
X61578095Y-158354819D01*
X62149523Y-159354819D02*
X61720952Y-158783390D01*
X62149523Y-158354819D02*
X61578095Y-158926247D01*
%TO.C,D9*%
X31181905Y-118984819D02*
X31181905Y-117984819D01*
X31181905Y-117984819D02*
X31420000Y-117984819D01*
X31420000Y-117984819D02*
X31562857Y-118032438D01*
X31562857Y-118032438D02*
X31658095Y-118127676D01*
X31658095Y-118127676D02*
X31705714Y-118222914D01*
X31705714Y-118222914D02*
X31753333Y-118413390D01*
X31753333Y-118413390D02*
X31753333Y-118556247D01*
X31753333Y-118556247D02*
X31705714Y-118746723D01*
X31705714Y-118746723D02*
X31658095Y-118841961D01*
X31658095Y-118841961D02*
X31562857Y-118937200D01*
X31562857Y-118937200D02*
X31420000Y-118984819D01*
X31420000Y-118984819D02*
X31181905Y-118984819D01*
X32229524Y-118984819D02*
X32420000Y-118984819D01*
X32420000Y-118984819D02*
X32515238Y-118937200D01*
X32515238Y-118937200D02*
X32562857Y-118889580D01*
X32562857Y-118889580D02*
X32658095Y-118746723D01*
X32658095Y-118746723D02*
X32705714Y-118556247D01*
X32705714Y-118556247D02*
X32705714Y-118175295D01*
X32705714Y-118175295D02*
X32658095Y-118080057D01*
X32658095Y-118080057D02*
X32610476Y-118032438D01*
X32610476Y-118032438D02*
X32515238Y-117984819D01*
X32515238Y-117984819D02*
X32324762Y-117984819D01*
X32324762Y-117984819D02*
X32229524Y-118032438D01*
X32229524Y-118032438D02*
X32181905Y-118080057D01*
X32181905Y-118080057D02*
X32134286Y-118175295D01*
X32134286Y-118175295D02*
X32134286Y-118413390D01*
X32134286Y-118413390D02*
X32181905Y-118508628D01*
X32181905Y-118508628D02*
X32229524Y-118556247D01*
X32229524Y-118556247D02*
X32324762Y-118603866D01*
X32324762Y-118603866D02*
X32515238Y-118603866D01*
X32515238Y-118603866D02*
X32610476Y-118556247D01*
X32610476Y-118556247D02*
X32658095Y-118508628D01*
X32658095Y-118508628D02*
X32705714Y-118413390D01*
X26578095Y-119354819D02*
X26578095Y-118354819D01*
X27149523Y-119354819D02*
X26720952Y-118783390D01*
X27149523Y-118354819D02*
X26578095Y-118926247D01*
%TO.C,D6*%
X31181905Y-48984819D02*
X31181905Y-47984819D01*
X31181905Y-47984819D02*
X31420000Y-47984819D01*
X31420000Y-47984819D02*
X31562857Y-48032438D01*
X31562857Y-48032438D02*
X31658095Y-48127676D01*
X31658095Y-48127676D02*
X31705714Y-48222914D01*
X31705714Y-48222914D02*
X31753333Y-48413390D01*
X31753333Y-48413390D02*
X31753333Y-48556247D01*
X31753333Y-48556247D02*
X31705714Y-48746723D01*
X31705714Y-48746723D02*
X31658095Y-48841961D01*
X31658095Y-48841961D02*
X31562857Y-48937200D01*
X31562857Y-48937200D02*
X31420000Y-48984819D01*
X31420000Y-48984819D02*
X31181905Y-48984819D01*
X32610476Y-47984819D02*
X32420000Y-47984819D01*
X32420000Y-47984819D02*
X32324762Y-48032438D01*
X32324762Y-48032438D02*
X32277143Y-48080057D01*
X32277143Y-48080057D02*
X32181905Y-48222914D01*
X32181905Y-48222914D02*
X32134286Y-48413390D01*
X32134286Y-48413390D02*
X32134286Y-48794342D01*
X32134286Y-48794342D02*
X32181905Y-48889580D01*
X32181905Y-48889580D02*
X32229524Y-48937200D01*
X32229524Y-48937200D02*
X32324762Y-48984819D01*
X32324762Y-48984819D02*
X32515238Y-48984819D01*
X32515238Y-48984819D02*
X32610476Y-48937200D01*
X32610476Y-48937200D02*
X32658095Y-48889580D01*
X32658095Y-48889580D02*
X32705714Y-48794342D01*
X32705714Y-48794342D02*
X32705714Y-48556247D01*
X32705714Y-48556247D02*
X32658095Y-48461009D01*
X32658095Y-48461009D02*
X32610476Y-48413390D01*
X32610476Y-48413390D02*
X32515238Y-48365771D01*
X32515238Y-48365771D02*
X32324762Y-48365771D01*
X32324762Y-48365771D02*
X32229524Y-48413390D01*
X32229524Y-48413390D02*
X32181905Y-48461009D01*
X32181905Y-48461009D02*
X32134286Y-48556247D01*
X26578095Y-49354819D02*
X26578095Y-48354819D01*
X27149523Y-49354819D02*
X26720952Y-48783390D01*
X27149523Y-48354819D02*
X26578095Y-48926247D01*
%TO.C,SW3*%
X68666667Y-182407200D02*
X68809524Y-182454819D01*
X68809524Y-182454819D02*
X69047619Y-182454819D01*
X69047619Y-182454819D02*
X69142857Y-182407200D01*
X69142857Y-182407200D02*
X69190476Y-182359580D01*
X69190476Y-182359580D02*
X69238095Y-182264342D01*
X69238095Y-182264342D02*
X69238095Y-182169104D01*
X69238095Y-182169104D02*
X69190476Y-182073866D01*
X69190476Y-182073866D02*
X69142857Y-182026247D01*
X69142857Y-182026247D02*
X69047619Y-181978628D01*
X69047619Y-181978628D02*
X68857143Y-181931009D01*
X68857143Y-181931009D02*
X68761905Y-181883390D01*
X68761905Y-181883390D02*
X68714286Y-181835771D01*
X68714286Y-181835771D02*
X68666667Y-181740533D01*
X68666667Y-181740533D02*
X68666667Y-181645295D01*
X68666667Y-181645295D02*
X68714286Y-181550057D01*
X68714286Y-181550057D02*
X68761905Y-181502438D01*
X68761905Y-181502438D02*
X68857143Y-181454819D01*
X68857143Y-181454819D02*
X69095238Y-181454819D01*
X69095238Y-181454819D02*
X69238095Y-181502438D01*
X69571429Y-181454819D02*
X69809524Y-182454819D01*
X69809524Y-182454819D02*
X70000000Y-181740533D01*
X70000000Y-181740533D02*
X70190476Y-182454819D01*
X70190476Y-182454819D02*
X70428572Y-181454819D01*
X70714286Y-181454819D02*
X71333333Y-181454819D01*
X71333333Y-181454819D02*
X71000000Y-181835771D01*
X71000000Y-181835771D02*
X71142857Y-181835771D01*
X71142857Y-181835771D02*
X71238095Y-181883390D01*
X71238095Y-181883390D02*
X71285714Y-181931009D01*
X71285714Y-181931009D02*
X71333333Y-182026247D01*
X71333333Y-182026247D02*
X71333333Y-182264342D01*
X71333333Y-182264342D02*
X71285714Y-182359580D01*
X71285714Y-182359580D02*
X71238095Y-182407200D01*
X71238095Y-182407200D02*
X71142857Y-182454819D01*
X71142857Y-182454819D02*
X70857143Y-182454819D01*
X70857143Y-182454819D02*
X70761905Y-182407200D01*
X70761905Y-182407200D02*
X70714286Y-182359580D01*
%TO.C,D5*%
X31181905Y-28984819D02*
X31181905Y-27984819D01*
X31181905Y-27984819D02*
X31420000Y-27984819D01*
X31420000Y-27984819D02*
X31562857Y-28032438D01*
X31562857Y-28032438D02*
X31658095Y-28127676D01*
X31658095Y-28127676D02*
X31705714Y-28222914D01*
X31705714Y-28222914D02*
X31753333Y-28413390D01*
X31753333Y-28413390D02*
X31753333Y-28556247D01*
X31753333Y-28556247D02*
X31705714Y-28746723D01*
X31705714Y-28746723D02*
X31658095Y-28841961D01*
X31658095Y-28841961D02*
X31562857Y-28937200D01*
X31562857Y-28937200D02*
X31420000Y-28984819D01*
X31420000Y-28984819D02*
X31181905Y-28984819D01*
X32658095Y-27984819D02*
X32181905Y-27984819D01*
X32181905Y-27984819D02*
X32134286Y-28461009D01*
X32134286Y-28461009D02*
X32181905Y-28413390D01*
X32181905Y-28413390D02*
X32277143Y-28365771D01*
X32277143Y-28365771D02*
X32515238Y-28365771D01*
X32515238Y-28365771D02*
X32610476Y-28413390D01*
X32610476Y-28413390D02*
X32658095Y-28461009D01*
X32658095Y-28461009D02*
X32705714Y-28556247D01*
X32705714Y-28556247D02*
X32705714Y-28794342D01*
X32705714Y-28794342D02*
X32658095Y-28889580D01*
X32658095Y-28889580D02*
X32610476Y-28937200D01*
X32610476Y-28937200D02*
X32515238Y-28984819D01*
X32515238Y-28984819D02*
X32277143Y-28984819D01*
X32277143Y-28984819D02*
X32181905Y-28937200D01*
X32181905Y-28937200D02*
X32134286Y-28889580D01*
X26578095Y-29354819D02*
X26578095Y-28354819D01*
X27149523Y-29354819D02*
X26720952Y-28783390D01*
X27149523Y-28354819D02*
X26578095Y-28926247D01*
D12*
%TO.C,SW2*%
X62900000Y-162900000D02*
X62900000Y-177100000D01*
X77100000Y-177100000D02*
X77100000Y-162900000D01*
X77100000Y-162900000D02*
X62900000Y-162900000D01*
X62900000Y-177100000D02*
X77100000Y-177100000D01*
%TO.C,SW7*%
X27900000Y-77900000D02*
X27900000Y-92100000D01*
X42100000Y-77900000D02*
X27900000Y-77900000D01*
X27900000Y-92100000D02*
X42100000Y-92100000D01*
X42100000Y-92100000D02*
X42100000Y-77900000D01*
%TO.C,SW5*%
X42100000Y-47100000D02*
X42100000Y-32900000D01*
X27900000Y-47100000D02*
X42100000Y-47100000D01*
X27900000Y-32900000D02*
X27900000Y-47100000D01*
X42100000Y-32900000D02*
X27900000Y-32900000D01*
%TO.C,D10*%
X35660000Y-141000000D02*
X34640000Y-141000000D01*
X34640000Y-142470000D02*
X34640000Y-139530000D01*
X34640000Y-139530000D02*
X29200000Y-139530000D01*
X29200000Y-139530000D02*
X29200000Y-142470000D01*
X29980000Y-139530000D02*
X29980000Y-142470000D01*
X30220000Y-139530000D02*
X30220000Y-142470000D01*
X30100000Y-139530000D02*
X30100000Y-142470000D01*
X29200000Y-142470000D02*
X34640000Y-142470000D01*
X28180000Y-141000000D02*
X29200000Y-141000000D01*
%TO.C,RV2*%
X72000000Y-11000000D02*
X88000000Y-11000000D01*
X79000000Y-20000000D02*
X79000000Y-130000000D01*
X72000000Y-139000000D02*
X88000000Y-139000000D01*
X81000000Y-20000000D02*
X81000000Y-130000000D01*
X72000000Y-139000000D02*
X72000000Y-11000000D01*
X79000000Y-130000000D02*
X81000000Y-130000000D01*
X88000000Y-11000000D02*
X88000000Y-139000000D01*
X79000000Y-20000000D02*
X81000000Y-20000000D01*
%TO.C,SW8*%
X27900000Y-112100000D02*
X42100000Y-112100000D01*
X27900000Y-97900000D02*
X27900000Y-112100000D01*
X42100000Y-112100000D02*
X42100000Y-97900000D01*
X42100000Y-97900000D02*
X27900000Y-97900000D01*
%TO.C,D3*%
X65300000Y-179530000D02*
X65300000Y-182470000D01*
X65180000Y-179530000D02*
X65180000Y-182470000D01*
X69720000Y-182470000D02*
X69720000Y-179530000D01*
X63260000Y-181000000D02*
X64280000Y-181000000D01*
X70740000Y-181000000D02*
X69720000Y-181000000D01*
X65060000Y-179530000D02*
X65060000Y-182470000D01*
X69720000Y-179530000D02*
X64280000Y-179530000D01*
X64280000Y-179530000D02*
X64280000Y-182470000D01*
X64280000Y-182470000D02*
X69720000Y-182470000D01*
%TO.C,SW10*%
X27900000Y-142900000D02*
X27900000Y-157100000D01*
X27900000Y-157100000D02*
X42100000Y-157100000D01*
X42100000Y-157100000D02*
X42100000Y-142900000D01*
X42100000Y-142900000D02*
X27900000Y-142900000D01*
%TO.C,D8*%
X30100000Y-94530000D02*
X30100000Y-97470000D01*
X30220000Y-94530000D02*
X30220000Y-97470000D01*
X29980000Y-94530000D02*
X29980000Y-97470000D01*
X29200000Y-97470000D02*
X34640000Y-97470000D01*
X34640000Y-94530000D02*
X29200000Y-94530000D01*
X29200000Y-94530000D02*
X29200000Y-97470000D01*
X28180000Y-96000000D02*
X29200000Y-96000000D01*
X35660000Y-96000000D02*
X34640000Y-96000000D01*
X34640000Y-97470000D02*
X34640000Y-94530000D01*
%TO.C,SW6*%
X27900000Y-67100000D02*
X42100000Y-67100000D01*
X42100000Y-52900000D02*
X27900000Y-52900000D01*
X42100000Y-67100000D02*
X42100000Y-52900000D01*
X27900000Y-52900000D02*
X27900000Y-67100000D01*
%TO.C,SW1*%
X62820000Y-157100000D02*
X77020000Y-157100000D01*
X62820000Y-142900000D02*
X62820000Y-157100000D01*
X77020000Y-157100000D02*
X77020000Y-142900000D01*
X77020000Y-142900000D02*
X62820000Y-142900000D01*
%TO.C,D1*%
X67200000Y-142470000D02*
X72640000Y-142470000D01*
X67200000Y-139530000D02*
X67200000Y-142470000D01*
X72640000Y-142470000D02*
X72640000Y-139530000D01*
X72640000Y-139530000D02*
X67200000Y-139530000D01*
X68220000Y-139530000D02*
X68220000Y-142470000D01*
X66180000Y-141000000D02*
X67200000Y-141000000D01*
X67980000Y-139530000D02*
X67980000Y-142470000D01*
X73660000Y-141000000D02*
X72640000Y-141000000D01*
X68100000Y-139530000D02*
X68100000Y-142470000D01*
%TO.C,SW9*%
X27900000Y-122900000D02*
X27900000Y-137100000D01*
X27900000Y-137100000D02*
X42100000Y-137100000D01*
X42100000Y-122900000D02*
X27900000Y-122900000D01*
X42100000Y-137100000D02*
X42100000Y-122900000D01*
%TO.C,RV1*%
X59000000Y-20000000D02*
X59000000Y-130000000D01*
X61000000Y-20000000D02*
X61000000Y-130000000D01*
X59000000Y-130000000D02*
X61000000Y-130000000D01*
X59000000Y-20000000D02*
X61000000Y-20000000D01*
X52000000Y-139000000D02*
X52000000Y-11000000D01*
X68000000Y-11000000D02*
X68000000Y-139000000D01*
X52000000Y-11000000D02*
X68000000Y-11000000D01*
X52000000Y-139000000D02*
X68000000Y-139000000D01*
%TO.C,D7*%
X29200000Y-77470000D02*
X34640000Y-77470000D01*
X34640000Y-77470000D02*
X34640000Y-74530000D01*
X30220000Y-74530000D02*
X30220000Y-77470000D01*
X28180000Y-76000000D02*
X29200000Y-76000000D01*
X29200000Y-74530000D02*
X29200000Y-77470000D01*
X30100000Y-74530000D02*
X30100000Y-77470000D01*
X29980000Y-74530000D02*
X29980000Y-77470000D01*
X34640000Y-74530000D02*
X29200000Y-74530000D01*
X35660000Y-76000000D02*
X34640000Y-76000000D01*
%TO.C,D2*%
X65220000Y-159530000D02*
X65220000Y-162470000D01*
X63180000Y-161000000D02*
X64200000Y-161000000D01*
X64200000Y-162470000D02*
X69640000Y-162470000D01*
X65100000Y-159530000D02*
X65100000Y-162470000D01*
X69640000Y-159530000D02*
X64200000Y-159530000D01*
X64980000Y-159530000D02*
X64980000Y-162470000D01*
X69640000Y-162470000D02*
X69640000Y-159530000D01*
X64200000Y-159530000D02*
X64200000Y-162470000D01*
X70660000Y-161000000D02*
X69640000Y-161000000D01*
%TO.C,D9*%
X29980000Y-119530000D02*
X29980000Y-122470000D01*
X29200000Y-119530000D02*
X29200000Y-122470000D01*
X35660000Y-121000000D02*
X34640000Y-121000000D01*
X28180000Y-121000000D02*
X29200000Y-121000000D01*
X34640000Y-122470000D02*
X34640000Y-119530000D01*
X29200000Y-122470000D02*
X34640000Y-122470000D01*
X30100000Y-119530000D02*
X30100000Y-122470000D01*
X30220000Y-119530000D02*
X30220000Y-122470000D01*
X34640000Y-119530000D02*
X29200000Y-119530000D01*
%TO.C,D6*%
X34640000Y-49530000D02*
X29200000Y-49530000D01*
X29980000Y-49530000D02*
X29980000Y-52470000D01*
X29200000Y-49530000D02*
X29200000Y-52470000D01*
X30220000Y-49530000D02*
X30220000Y-52470000D01*
X29200000Y-52470000D02*
X34640000Y-52470000D01*
X30100000Y-49530000D02*
X30100000Y-52470000D01*
X34640000Y-52470000D02*
X34640000Y-49530000D01*
X28180000Y-51000000D02*
X29200000Y-51000000D01*
X35660000Y-51000000D02*
X34640000Y-51000000D01*
%TO.C,SW3*%
X62900000Y-197100000D02*
X77100000Y-197100000D01*
X62900000Y-182900000D02*
X62900000Y-197100000D01*
X77100000Y-197100000D02*
X77100000Y-182900000D01*
X77100000Y-182900000D02*
X62900000Y-182900000D01*
%TO.C,D5*%
X30100000Y-29530000D02*
X30100000Y-32470000D01*
X29200000Y-32470000D02*
X34640000Y-32470000D01*
X29200000Y-29530000D02*
X29200000Y-32470000D01*
X29980000Y-29530000D02*
X29980000Y-32470000D01*
X34640000Y-32470000D02*
X34640000Y-29530000D01*
X34640000Y-29530000D02*
X29200000Y-29530000D01*
X28180000Y-31000000D02*
X29200000Y-31000000D01*
X30220000Y-29530000D02*
X30220000Y-32470000D01*
X35660000Y-31000000D02*
X34640000Y-31000000D01*
%TD*%
M02*
