M48
; DRILL file {KiCad 7.0.5} date Mon Jul  3 18:50:36 2023
; FORMAT={-:-/ absolute / inch / decimal}
; #@! TF.CreationDate,2023-07-03T18:50:36+02:00
; #@! TF.GenerationSoftware,Kicad,Pcbnew,7.0.5
; #@! TF.FileFunction,NonPlated,1,2,NPTH
FMAT,2
INCH
; #@! TA.AperFunction,NonPlated,NPTH,ComponentDrill
T1C0.0689
; #@! TA.AperFunction,NonPlated,NPTH,ComponentDrill
T2C0.1200
; #@! TA.AperFunction,NonPlated,NPTH,ComponentDrill
T3C0.1570
; #@! TA.AperFunction,NonPlated,NPTH,ComponentDrill
T4C0.1575
%
G90
G05
T1
X1.178Y-1.5748
X1.178Y-2.3622
X1.178Y-3.3465
X1.178Y-4.1339
X1.178Y-5.1181
X1.178Y-5.9055
X1.578Y-1.5748
X1.578Y-2.3622
X1.578Y-3.3465
X1.578Y-4.1339
X1.578Y-5.1181
X1.578Y-5.9055
X2.5528Y-5.9055
X2.5559Y-6.6929
X2.5559Y-7.4803
X2.9528Y-5.9055
X2.9559Y-6.6929
X2.9559Y-7.4803
T2
X2.2828Y-5.6305
X2.2859Y-6.4179
X2.2859Y-7.2053
X3.2228Y-5.6305
X3.2259Y-6.4179
X3.2259Y-7.2053
T3
X2.2828Y-6.2293
X2.2859Y-7.0167
X2.2859Y-7.8041
X3.2228Y-6.2293
X3.2259Y-7.0167
X3.2259Y-7.8041
T4
X1.378Y-1.5748
X1.378Y-2.3622
X1.378Y-3.3465
X1.378Y-4.1339
X1.378Y-5.1181
X1.378Y-5.9055
X2.7528Y-5.9055
X2.7559Y-6.6929
X2.7559Y-7.4803
T0
M30
