%TF.GenerationSoftware,KiCad,Pcbnew,7.0.5*%
%TF.CreationDate,2023-07-03T18:50:37+02:00*%
%TF.ProjectId,Master_Board,4d617374-6572-45f4-926f-6172642e6b69,rev?*%
%TF.SameCoordinates,Original*%
%TF.FileFunction,Drillmap*%
%TF.FilePolarity,Positive*%
%FSLAX45Y45*%
G04 Gerber Fmt 4.5, Leading zero omitted, Abs format (unit mm)*
G04 Created by KiCad (PCBNEW 7.0.5) date 2023-07-03 18:50:37*
%MOMM*%
%LPD*%
G01*
G04 APERTURE LIST*
%ADD10C,0.100000*%
%ADD11C,0.200000*%
%ADD12C,0.040000*%
%ADD13C,0.110000*%
%ADD14C,0.120000*%
%ADD15C,0.150000*%
%ADD16C,0.320000*%
G04 APERTURE END LIST*
D10*
X8900000Y-800000D02*
X5100000Y-800000D01*
X4700000Y-1200000D02*
X1500000Y-1200000D01*
X5100000Y-800000D02*
X4700000Y-1200000D01*
X8650000Y-20075000D02*
X5350000Y-20075000D01*
X1500000Y-1200000D02*
X1500000Y-19800000D01*
X10000000Y-19800000D02*
X8925000Y-19800000D01*
X5075000Y-19800000D02*
X1500000Y-19800000D01*
X9300000Y-1200000D02*
X8900000Y-800000D01*
X5350000Y-20075000D02*
X5075000Y-19800000D01*
X10000000Y-1200000D02*
X9300000Y-1200000D01*
X10000000Y-19800000D02*
X10000000Y-1200000D01*
X8925000Y-19800000D02*
X8650000Y-20075000D01*
D11*
D12*
X3980000Y-9280000D02*
X4020000Y-9320000D01*
X4020000Y-9280000D02*
X3980000Y-9320000D01*
X4180000Y-13780000D02*
X4220000Y-13820000D01*
X4220000Y-13780000D02*
X4180000Y-13820000D01*
X4366580Y-14620560D02*
X4406580Y-14660560D01*
X4406580Y-14620560D02*
X4366580Y-14660560D01*
X4747580Y-12009999D02*
X4787580Y-12049999D01*
X4787580Y-12009999D02*
X4747580Y-12049999D01*
X5644200Y-10025700D02*
X5684200Y-10065700D01*
X5684200Y-10025700D02*
X5644200Y-10065700D01*
X7102160Y-12054951D02*
X7142160Y-12094951D01*
X7142160Y-12054951D02*
X7102160Y-12094951D01*
X7429820Y-10209901D02*
X7469820Y-10249901D01*
X7469820Y-10209901D02*
X7429820Y-10249901D01*
X8763083Y-12009999D02*
X8803083Y-12049999D01*
X8803083Y-12009999D02*
X8763083Y-12049999D01*
X8777230Y-7480620D02*
X8817230Y-7520620D01*
X8817230Y-7480620D02*
X8777230Y-7520620D01*
X8835631Y-12078750D02*
X8875631Y-12118750D01*
X8875631Y-12078750D02*
X8835631Y-12118750D01*
X8836980Y-9789480D02*
X8876980Y-9829480D01*
X8876980Y-9789480D02*
X8836980Y-9829480D01*
X8849680Y-3858580D02*
X8889680Y-3898580D01*
X8889680Y-3858580D02*
X8849680Y-3898580D01*
X8849680Y-5849940D02*
X8889680Y-5889940D01*
X8889680Y-5849940D02*
X8849680Y-5889940D01*
X8857300Y-11951020D02*
X8897300Y-11991020D01*
X8897300Y-11951020D02*
X8857300Y-11991020D01*
X8887780Y-8298450D02*
X8927780Y-8338450D01*
X8927780Y-8298450D02*
X8887780Y-8338450D01*
X8925880Y-8496620D02*
X8965880Y-8536620D01*
X8965880Y-8496620D02*
X8925880Y-8536620D01*
X8976680Y-7993700D02*
X9016680Y-8033700D01*
X9016680Y-7993700D02*
X8976680Y-8033700D01*
X8982727Y-7893933D02*
X9022727Y-7933933D01*
X9022727Y-7893933D02*
X8982727Y-7933933D01*
X9030020Y-7732080D02*
X9070020Y-7772080D01*
X9070020Y-7732080D02*
X9030020Y-7772080D01*
X9811010Y-8791260D02*
X9851010Y-8831260D01*
X9851010Y-8791260D02*
X9811010Y-8831260D01*
X9814880Y-14658660D02*
X9854880Y-14698660D01*
X9854880Y-14658660D02*
X9814880Y-14698660D01*
X9883459Y-14579920D02*
X9923459Y-14619920D01*
X9923459Y-14579920D02*
X9883459Y-14619920D01*
D10*
X9296000Y-7500000D02*
G75*
G03*
X9296000Y-7500000I-50000J0D01*
G01*
X9296000Y-7754000D02*
G75*
G03*
X9296000Y-7754000I-50000J0D01*
G01*
X9296000Y-8008000D02*
G75*
G03*
X9296000Y-8008000I-50000J0D01*
G01*
X9296000Y-8262000D02*
G75*
G03*
X9296000Y-8262000I-50000J0D01*
G01*
X9296000Y-8516000D02*
G75*
G03*
X9296000Y-8516000I-50000J0D01*
G01*
X9296000Y-8770000D02*
G75*
G03*
X9296000Y-8770000I-50000J0D01*
G01*
X9296000Y-9024000D02*
G75*
G03*
X9296000Y-9024000I-50000J0D01*
G01*
X9296000Y-9278000D02*
G75*
G03*
X9296000Y-9278000I-50000J0D01*
G01*
X9296000Y-9532000D02*
G75*
G03*
X9296000Y-9532000I-50000J0D01*
G01*
X9296000Y-9786000D02*
G75*
G03*
X9296000Y-9786000I-50000J0D01*
G01*
X9296000Y-10040000D02*
G75*
G03*
X9296000Y-10040000I-50000J0D01*
G01*
X9296000Y-10294000D02*
G75*
G03*
X9296000Y-10294000I-50000J0D01*
G01*
X9296000Y-10548000D02*
G75*
G03*
X9296000Y-10548000I-50000J0D01*
G01*
X9296000Y-10802000D02*
G75*
G03*
X9296000Y-10802000I-50000J0D01*
G01*
X9296000Y-11056000D02*
G75*
G03*
X9296000Y-11056000I-50000J0D01*
G01*
X9550000Y-7500000D02*
G75*
G03*
X9550000Y-7500000I-50000J0D01*
G01*
X9550000Y-7754000D02*
G75*
G03*
X9550000Y-7754000I-50000J0D01*
G01*
X9550000Y-8008000D02*
G75*
G03*
X9550000Y-8008000I-50000J0D01*
G01*
X9550000Y-8262000D02*
G75*
G03*
X9550000Y-8262000I-50000J0D01*
G01*
X9550000Y-8516000D02*
G75*
G03*
X9550000Y-8516000I-50000J0D01*
G01*
X9550000Y-8770000D02*
G75*
G03*
X9550000Y-8770000I-50000J0D01*
G01*
X9550000Y-9024000D02*
G75*
G03*
X9550000Y-9024000I-50000J0D01*
G01*
X9550000Y-9278000D02*
G75*
G03*
X9550000Y-9278000I-50000J0D01*
G01*
X9550000Y-9532000D02*
G75*
G03*
X9550000Y-9532000I-50000J0D01*
G01*
X9550000Y-9786000D02*
G75*
G03*
X9550000Y-9786000I-50000J0D01*
G01*
X9550000Y-10040000D02*
G75*
G03*
X9550000Y-10040000I-50000J0D01*
G01*
X9550000Y-10294000D02*
G75*
G03*
X9550000Y-10294000I-50000J0D01*
G01*
X9550000Y-10548000D02*
G75*
G03*
X9550000Y-10548000I-50000J0D01*
G01*
X9550000Y-10802000D02*
G75*
G03*
X9550000Y-10802000I-50000J0D01*
G01*
X9550000Y-11056000D02*
G75*
G03*
X9550000Y-11056000I-50000J0D01*
G01*
D13*
X2684000Y-3045000D02*
X2684000Y-3155000D01*
X2629000Y-3100000D02*
X2739000Y-3100000D01*
X2684000Y-5045000D02*
X2684000Y-5155000D01*
X2629000Y-5100000D02*
X2739000Y-5100000D01*
X2684000Y-7545000D02*
X2684000Y-7655000D01*
X2629000Y-7600000D02*
X2739000Y-7600000D01*
X2684000Y-9545000D02*
X2684000Y-9655000D01*
X2629000Y-9600000D02*
X2739000Y-9600000D01*
X2684000Y-12045000D02*
X2684000Y-12155000D01*
X2629000Y-12100000D02*
X2739000Y-12100000D01*
X2684000Y-14045000D02*
X2684000Y-14155000D01*
X2629000Y-14100000D02*
X2739000Y-14100000D01*
X3700000Y-3045000D02*
X3700000Y-3155000D01*
X3645000Y-3100000D02*
X3755000Y-3100000D01*
X3700000Y-5045000D02*
X3700000Y-5155000D01*
X3645000Y-5100000D02*
X3755000Y-5100000D01*
X3700000Y-7545000D02*
X3700000Y-7655000D01*
X3645000Y-7600000D02*
X3755000Y-7600000D01*
X3700000Y-9545000D02*
X3700000Y-9655000D01*
X3645000Y-9600000D02*
X3755000Y-9600000D01*
X3700000Y-12045000D02*
X3700000Y-12155000D01*
X3645000Y-12100000D02*
X3755000Y-12100000D01*
X3700000Y-14045000D02*
X3700000Y-14155000D01*
X3645000Y-14100000D02*
X3755000Y-14100000D01*
X6184000Y-16045000D02*
X6184000Y-16155000D01*
X6129000Y-16100000D02*
X6239000Y-16100000D01*
X6192000Y-18045000D02*
X6192000Y-18155000D01*
X6137000Y-18100000D02*
X6247000Y-18100000D01*
X6484000Y-14045000D02*
X6484000Y-14155000D01*
X6429000Y-14100000D02*
X6539000Y-14100000D01*
X7200000Y-16045000D02*
X7200000Y-16155000D01*
X7145000Y-16100000D02*
X7255000Y-16100000D01*
X7208000Y-18045000D02*
X7208000Y-18155000D01*
X7153000Y-18100000D02*
X7263000Y-18100000D01*
X7500000Y-14045000D02*
X7500000Y-14155000D01*
X7445000Y-14100000D02*
X7555000Y-14100000D01*
D14*
X5479427Y-1167427D02*
X5479427Y-1082573D01*
X5394573Y-1082573D01*
X5394573Y-1167427D01*
X5479427Y-1167427D01*
X5854427Y-1167427D02*
X5854427Y-1082573D01*
X5769573Y-1082573D01*
X5769573Y-1167427D01*
X5854427Y-1167427D01*
X5854427Y-13917427D02*
X5854427Y-13832573D01*
X5769573Y-13832573D01*
X5769573Y-13917427D01*
X5854427Y-13917427D01*
X6230427Y-1167427D02*
X6230427Y-1082573D01*
X6145573Y-1082573D01*
X6145573Y-1167427D01*
X6230427Y-1167427D01*
X6230427Y-13917427D02*
X6230427Y-13832573D01*
X6145573Y-13832573D01*
X6145573Y-13917427D01*
X6230427Y-13917427D01*
X6605427Y-1167427D02*
X6605427Y-1082573D01*
X6520573Y-1082573D01*
X6520573Y-1167427D01*
X6605427Y-1167427D01*
X7479427Y-1167427D02*
X7479427Y-1082573D01*
X7394573Y-1082573D01*
X7394573Y-1167427D01*
X7479427Y-1167427D01*
X7854427Y-1167427D02*
X7854427Y-1082573D01*
X7769573Y-1082573D01*
X7769573Y-1167427D01*
X7854427Y-1167427D01*
X7854427Y-13917427D02*
X7854427Y-13832573D01*
X7769573Y-13832573D01*
X7769573Y-13917427D01*
X7854427Y-13917427D01*
X8230427Y-1167427D02*
X8230427Y-1082573D01*
X8145573Y-1082573D01*
X8145573Y-1167427D01*
X8230427Y-1167427D01*
X8230427Y-13917427D02*
X8230427Y-13832573D01*
X8145573Y-13832573D01*
X8145573Y-13917427D01*
X8230427Y-13917427D01*
X8605427Y-1167427D02*
X8605427Y-1082573D01*
X8520573Y-1082573D01*
X8520573Y-1167427D01*
X8605427Y-1167427D01*
D15*
X3119000Y-3821000D02*
X3194000Y-3746000D01*
X3119000Y-3671000D01*
X3044000Y-3746000D01*
X3119000Y-3821000D01*
X3119000Y-5821000D02*
X3194000Y-5746000D01*
X3119000Y-5671000D01*
X3044000Y-5746000D01*
X3119000Y-5821000D01*
X3119000Y-8321000D02*
X3194000Y-8246000D01*
X3119000Y-8171000D01*
X3044000Y-8246000D01*
X3119000Y-8321000D01*
X3119000Y-10321000D02*
X3194000Y-10246000D01*
X3119000Y-10171000D01*
X3044000Y-10246000D01*
X3119000Y-10321000D01*
X3119000Y-12821000D02*
X3194000Y-12746000D01*
X3119000Y-12671000D01*
X3044000Y-12746000D01*
X3119000Y-12821000D01*
X3119000Y-14821000D02*
X3194000Y-14746000D01*
X3119000Y-14671000D01*
X3044000Y-14746000D01*
X3119000Y-14821000D01*
X3754000Y-3567000D02*
X3829000Y-3492000D01*
X3754000Y-3417000D01*
X3679000Y-3492000D01*
X3754000Y-3567000D01*
X3754000Y-5567000D02*
X3829000Y-5492000D01*
X3754000Y-5417000D01*
X3679000Y-5492000D01*
X3754000Y-5567000D01*
X3754000Y-8067000D02*
X3829000Y-7992000D01*
X3754000Y-7917000D01*
X3679000Y-7992000D01*
X3754000Y-8067000D01*
X3754000Y-10067000D02*
X3829000Y-9992000D01*
X3754000Y-9917000D01*
X3679000Y-9992000D01*
X3754000Y-10067000D01*
X3754000Y-12567000D02*
X3829000Y-12492000D01*
X3754000Y-12417000D01*
X3679000Y-12492000D01*
X3754000Y-12567000D01*
X3754000Y-14567000D02*
X3829000Y-14492000D01*
X3754000Y-14417000D01*
X3679000Y-14492000D01*
X3754000Y-14567000D01*
X6611000Y-14821000D02*
X6686000Y-14746000D01*
X6611000Y-14671000D01*
X6536000Y-14746000D01*
X6611000Y-14821000D01*
X6619000Y-16821000D02*
X6694000Y-16746000D01*
X6619000Y-16671000D01*
X6544000Y-16746000D01*
X6619000Y-16821000D01*
X6619000Y-18821000D02*
X6694000Y-18746000D01*
X6619000Y-18671000D01*
X6544000Y-18746000D01*
X6619000Y-18821000D01*
X7246000Y-14567000D02*
X7321000Y-14492000D01*
X7246000Y-14417000D01*
X7171000Y-14492000D01*
X7246000Y-14567000D01*
X7254000Y-16567000D02*
X7329000Y-16492000D01*
X7254000Y-16417000D01*
X7179000Y-16492000D01*
X7254000Y-16567000D01*
X7254000Y-18567000D02*
X7329000Y-18492000D01*
X7254000Y-18417000D01*
X7179000Y-18492000D01*
X7254000Y-18567000D01*
D11*
X5900000Y-3275000D02*
X6100000Y-3475000D01*
X6100000Y-3275000D02*
X5900000Y-3475000D01*
X6100000Y-3375000D02*
G75*
G03*
X6100000Y-3375000I-100000J0D01*
G01*
X5900000Y-11525000D02*
X6100000Y-11725000D01*
X6100000Y-11525000D02*
X5900000Y-11725000D01*
X6100000Y-11625000D02*
G75*
G03*
X6100000Y-11625000I-100000J0D01*
G01*
X7900000Y-3275000D02*
X8100000Y-3475000D01*
X8100000Y-3275000D02*
X7900000Y-3475000D01*
X8100000Y-3375000D02*
G75*
G03*
X8100000Y-3375000I-100000J0D01*
G01*
X7900000Y-11525000D02*
X8100000Y-11725000D01*
X8100000Y-11525000D02*
X7900000Y-11725000D01*
X8100000Y-11625000D02*
G75*
G03*
X8100000Y-11625000I-100000J0D01*
G01*
D16*
X1840000Y-1840000D02*
X2160000Y-2160000D01*
X2160000Y-1840000D02*
X1840000Y-2160000D01*
X2000000Y-1840000D02*
X2000000Y-2160000D01*
X1840000Y-2000000D02*
X2160000Y-2000000D01*
X1840000Y-13340000D02*
X2160000Y-13660000D01*
X2160000Y-13340000D02*
X1840000Y-13660000D01*
X2000000Y-13340000D02*
X2000000Y-13660000D01*
X1840000Y-13500000D02*
X2160000Y-13500000D01*
X1840000Y-18840000D02*
X2160000Y-19160000D01*
X2160000Y-18840000D02*
X1840000Y-19160000D01*
X2000000Y-18840000D02*
X2000000Y-19160000D01*
X1840000Y-19000000D02*
X2160000Y-19000000D01*
X9340000Y-1840000D02*
X9660000Y-2160000D01*
X9660000Y-1840000D02*
X9340000Y-2160000D01*
X9500000Y-1840000D02*
X9500000Y-2160000D01*
X9340000Y-2000000D02*
X9660000Y-2000000D01*
X9340000Y-13340000D02*
X9660000Y-13660000D01*
X9660000Y-13340000D02*
X9340000Y-13660000D01*
X9500000Y-13340000D02*
X9500000Y-13660000D01*
X9340000Y-13500000D02*
X9660000Y-13500000D01*
X9340000Y-18840000D02*
X9660000Y-19160000D01*
X9660000Y-18840000D02*
X9340000Y-19160000D01*
X9500000Y-18840000D02*
X9500000Y-19160000D01*
X9340000Y-19000000D02*
X9660000Y-19000000D01*
D11*
X1755777Y-20391484D02*
X1755777Y-20191484D01*
X1755777Y-20191484D02*
X1803396Y-20191484D01*
X1803396Y-20191484D02*
X1831967Y-20201008D01*
X1831967Y-20201008D02*
X1851015Y-20220055D01*
X1851015Y-20220055D02*
X1860539Y-20239103D01*
X1860539Y-20239103D02*
X1870062Y-20277198D01*
X1870062Y-20277198D02*
X1870062Y-20305770D01*
X1870062Y-20305770D02*
X1860539Y-20343865D01*
X1860539Y-20343865D02*
X1851015Y-20362912D01*
X1851015Y-20362912D02*
X1831967Y-20381960D01*
X1831967Y-20381960D02*
X1803396Y-20391484D01*
X1803396Y-20391484D02*
X1755777Y-20391484D01*
X1955777Y-20391484D02*
X1955777Y-20258150D01*
X1955777Y-20296246D02*
X1965301Y-20277198D01*
X1965301Y-20277198D02*
X1974824Y-20267674D01*
X1974824Y-20267674D02*
X1993872Y-20258150D01*
X1993872Y-20258150D02*
X2012920Y-20258150D01*
X2079586Y-20391484D02*
X2079586Y-20258150D01*
X2079586Y-20191484D02*
X2070062Y-20201008D01*
X2070062Y-20201008D02*
X2079586Y-20210531D01*
X2079586Y-20210531D02*
X2089110Y-20201008D01*
X2089110Y-20201008D02*
X2079586Y-20191484D01*
X2079586Y-20191484D02*
X2079586Y-20210531D01*
X2203396Y-20391484D02*
X2184348Y-20381960D01*
X2184348Y-20381960D02*
X2174824Y-20362912D01*
X2174824Y-20362912D02*
X2174824Y-20191484D01*
X2308158Y-20391484D02*
X2289110Y-20381960D01*
X2289110Y-20381960D02*
X2279586Y-20362912D01*
X2279586Y-20362912D02*
X2279586Y-20191484D01*
X2536729Y-20391484D02*
X2536729Y-20191484D01*
X2536729Y-20191484D02*
X2603396Y-20334341D01*
X2603396Y-20334341D02*
X2670063Y-20191484D01*
X2670063Y-20191484D02*
X2670063Y-20391484D01*
X2851015Y-20391484D02*
X2851015Y-20286722D01*
X2851015Y-20286722D02*
X2841491Y-20267674D01*
X2841491Y-20267674D02*
X2822443Y-20258150D01*
X2822443Y-20258150D02*
X2784348Y-20258150D01*
X2784348Y-20258150D02*
X2765301Y-20267674D01*
X2851015Y-20381960D02*
X2831967Y-20391484D01*
X2831967Y-20391484D02*
X2784348Y-20391484D01*
X2784348Y-20391484D02*
X2765301Y-20381960D01*
X2765301Y-20381960D02*
X2755777Y-20362912D01*
X2755777Y-20362912D02*
X2755777Y-20343865D01*
X2755777Y-20343865D02*
X2765301Y-20324817D01*
X2765301Y-20324817D02*
X2784348Y-20315293D01*
X2784348Y-20315293D02*
X2831967Y-20315293D01*
X2831967Y-20315293D02*
X2851015Y-20305770D01*
X2946253Y-20258150D02*
X2946253Y-20458150D01*
X2946253Y-20267674D02*
X2965301Y-20258150D01*
X2965301Y-20258150D02*
X3003396Y-20258150D01*
X3003396Y-20258150D02*
X3022443Y-20267674D01*
X3022443Y-20267674D02*
X3031967Y-20277198D01*
X3031967Y-20277198D02*
X3041491Y-20296246D01*
X3041491Y-20296246D02*
X3041491Y-20353389D01*
X3041491Y-20353389D02*
X3031967Y-20372436D01*
X3031967Y-20372436D02*
X3022443Y-20381960D01*
X3022443Y-20381960D02*
X3003396Y-20391484D01*
X3003396Y-20391484D02*
X2965301Y-20391484D01*
X2965301Y-20391484D02*
X2946253Y-20381960D01*
X3127205Y-20372436D02*
X3136729Y-20381960D01*
X3136729Y-20381960D02*
X3127205Y-20391484D01*
X3127205Y-20391484D02*
X3117682Y-20381960D01*
X3117682Y-20381960D02*
X3127205Y-20372436D01*
X3127205Y-20372436D02*
X3127205Y-20391484D01*
X3127205Y-20267674D02*
X3136729Y-20277198D01*
X3136729Y-20277198D02*
X3127205Y-20286722D01*
X3127205Y-20286722D02*
X3117682Y-20277198D01*
X3117682Y-20277198D02*
X3127205Y-20267674D01*
X3127205Y-20267674D02*
X3127205Y-20286722D01*
D12*
X1455000Y-20700000D02*
X1495000Y-20740000D01*
X1495000Y-20700000D02*
X1455000Y-20740000D01*
D11*
X1793872Y-20611484D02*
X1812920Y-20611484D01*
X1812920Y-20611484D02*
X1831967Y-20621008D01*
X1831967Y-20621008D02*
X1841491Y-20630531D01*
X1841491Y-20630531D02*
X1851015Y-20649579D01*
X1851015Y-20649579D02*
X1860539Y-20687674D01*
X1860539Y-20687674D02*
X1860539Y-20735293D01*
X1860539Y-20735293D02*
X1851015Y-20773389D01*
X1851015Y-20773389D02*
X1841491Y-20792436D01*
X1841491Y-20792436D02*
X1831967Y-20801960D01*
X1831967Y-20801960D02*
X1812920Y-20811484D01*
X1812920Y-20811484D02*
X1793872Y-20811484D01*
X1793872Y-20811484D02*
X1774824Y-20801960D01*
X1774824Y-20801960D02*
X1765301Y-20792436D01*
X1765301Y-20792436D02*
X1755777Y-20773389D01*
X1755777Y-20773389D02*
X1746253Y-20735293D01*
X1746253Y-20735293D02*
X1746253Y-20687674D01*
X1746253Y-20687674D02*
X1755777Y-20649579D01*
X1755777Y-20649579D02*
X1765301Y-20630531D01*
X1765301Y-20630531D02*
X1774824Y-20621008D01*
X1774824Y-20621008D02*
X1793872Y-20611484D01*
X1946253Y-20792436D02*
X1955777Y-20801960D01*
X1955777Y-20801960D02*
X1946253Y-20811484D01*
X1946253Y-20811484D02*
X1936729Y-20801960D01*
X1936729Y-20801960D02*
X1946253Y-20792436D01*
X1946253Y-20792436D02*
X1946253Y-20811484D01*
X2127205Y-20678150D02*
X2127205Y-20811484D01*
X2079586Y-20601960D02*
X2031967Y-20744817D01*
X2031967Y-20744817D02*
X2155777Y-20744817D01*
X2270063Y-20611484D02*
X2289110Y-20611484D01*
X2289110Y-20611484D02*
X2308158Y-20621008D01*
X2308158Y-20621008D02*
X2317682Y-20630531D01*
X2317682Y-20630531D02*
X2327205Y-20649579D01*
X2327205Y-20649579D02*
X2336729Y-20687674D01*
X2336729Y-20687674D02*
X2336729Y-20735293D01*
X2336729Y-20735293D02*
X2327205Y-20773389D01*
X2327205Y-20773389D02*
X2317682Y-20792436D01*
X2317682Y-20792436D02*
X2308158Y-20801960D01*
X2308158Y-20801960D02*
X2289110Y-20811484D01*
X2289110Y-20811484D02*
X2270063Y-20811484D01*
X2270063Y-20811484D02*
X2251015Y-20801960D01*
X2251015Y-20801960D02*
X2241491Y-20792436D01*
X2241491Y-20792436D02*
X2231967Y-20773389D01*
X2231967Y-20773389D02*
X2222444Y-20735293D01*
X2222444Y-20735293D02*
X2222444Y-20687674D01*
X2222444Y-20687674D02*
X2231967Y-20649579D01*
X2231967Y-20649579D02*
X2241491Y-20630531D01*
X2241491Y-20630531D02*
X2251015Y-20621008D01*
X2251015Y-20621008D02*
X2270063Y-20611484D01*
X2460539Y-20611484D02*
X2479586Y-20611484D01*
X2479586Y-20611484D02*
X2498634Y-20621008D01*
X2498634Y-20621008D02*
X2508158Y-20630531D01*
X2508158Y-20630531D02*
X2517682Y-20649579D01*
X2517682Y-20649579D02*
X2527205Y-20687674D01*
X2527205Y-20687674D02*
X2527205Y-20735293D01*
X2527205Y-20735293D02*
X2517682Y-20773389D01*
X2517682Y-20773389D02*
X2508158Y-20792436D01*
X2508158Y-20792436D02*
X2498634Y-20801960D01*
X2498634Y-20801960D02*
X2479586Y-20811484D01*
X2479586Y-20811484D02*
X2460539Y-20811484D01*
X2460539Y-20811484D02*
X2441491Y-20801960D01*
X2441491Y-20801960D02*
X2431967Y-20792436D01*
X2431967Y-20792436D02*
X2422444Y-20773389D01*
X2422444Y-20773389D02*
X2412920Y-20735293D01*
X2412920Y-20735293D02*
X2412920Y-20687674D01*
X2412920Y-20687674D02*
X2422444Y-20649579D01*
X2422444Y-20649579D02*
X2431967Y-20630531D01*
X2431967Y-20630531D02*
X2441491Y-20621008D01*
X2441491Y-20621008D02*
X2460539Y-20611484D01*
X2612920Y-20811484D02*
X2612920Y-20678150D01*
X2612920Y-20697198D02*
X2622444Y-20687674D01*
X2622444Y-20687674D02*
X2641491Y-20678150D01*
X2641491Y-20678150D02*
X2670063Y-20678150D01*
X2670063Y-20678150D02*
X2689110Y-20687674D01*
X2689110Y-20687674D02*
X2698634Y-20706722D01*
X2698634Y-20706722D02*
X2698634Y-20811484D01*
X2698634Y-20706722D02*
X2708158Y-20687674D01*
X2708158Y-20687674D02*
X2727205Y-20678150D01*
X2727205Y-20678150D02*
X2755777Y-20678150D01*
X2755777Y-20678150D02*
X2774825Y-20687674D01*
X2774825Y-20687674D02*
X2784348Y-20706722D01*
X2784348Y-20706722D02*
X2784348Y-20811484D01*
X2879586Y-20811484D02*
X2879586Y-20678150D01*
X2879586Y-20697198D02*
X2889110Y-20687674D01*
X2889110Y-20687674D02*
X2908158Y-20678150D01*
X2908158Y-20678150D02*
X2936729Y-20678150D01*
X2936729Y-20678150D02*
X2955777Y-20687674D01*
X2955777Y-20687674D02*
X2965301Y-20706722D01*
X2965301Y-20706722D02*
X2965301Y-20811484D01*
X2965301Y-20706722D02*
X2974824Y-20687674D01*
X2974824Y-20687674D02*
X2993872Y-20678150D01*
X2993872Y-20678150D02*
X3022443Y-20678150D01*
X3022443Y-20678150D02*
X3041491Y-20687674D01*
X3041491Y-20687674D02*
X3051015Y-20706722D01*
X3051015Y-20706722D02*
X3051015Y-20811484D01*
X3441491Y-20601960D02*
X3270063Y-20859103D01*
X3698634Y-20611484D02*
X3717682Y-20611484D01*
X3717682Y-20611484D02*
X3736729Y-20621008D01*
X3736729Y-20621008D02*
X3746253Y-20630531D01*
X3746253Y-20630531D02*
X3755777Y-20649579D01*
X3755777Y-20649579D02*
X3765301Y-20687674D01*
X3765301Y-20687674D02*
X3765301Y-20735293D01*
X3765301Y-20735293D02*
X3755777Y-20773389D01*
X3755777Y-20773389D02*
X3746253Y-20792436D01*
X3746253Y-20792436D02*
X3736729Y-20801960D01*
X3736729Y-20801960D02*
X3717682Y-20811484D01*
X3717682Y-20811484D02*
X3698634Y-20811484D01*
X3698634Y-20811484D02*
X3679586Y-20801960D01*
X3679586Y-20801960D02*
X3670063Y-20792436D01*
X3670063Y-20792436D02*
X3660539Y-20773389D01*
X3660539Y-20773389D02*
X3651015Y-20735293D01*
X3651015Y-20735293D02*
X3651015Y-20687674D01*
X3651015Y-20687674D02*
X3660539Y-20649579D01*
X3660539Y-20649579D02*
X3670063Y-20630531D01*
X3670063Y-20630531D02*
X3679586Y-20621008D01*
X3679586Y-20621008D02*
X3698634Y-20611484D01*
X3851015Y-20792436D02*
X3860539Y-20801960D01*
X3860539Y-20801960D02*
X3851015Y-20811484D01*
X3851015Y-20811484D02*
X3841491Y-20801960D01*
X3841491Y-20801960D02*
X3851015Y-20792436D01*
X3851015Y-20792436D02*
X3851015Y-20811484D01*
X3984348Y-20611484D02*
X4003396Y-20611484D01*
X4003396Y-20611484D02*
X4022444Y-20621008D01*
X4022444Y-20621008D02*
X4031967Y-20630531D01*
X4031967Y-20630531D02*
X4041491Y-20649579D01*
X4041491Y-20649579D02*
X4051015Y-20687674D01*
X4051015Y-20687674D02*
X4051015Y-20735293D01*
X4051015Y-20735293D02*
X4041491Y-20773389D01*
X4041491Y-20773389D02*
X4031967Y-20792436D01*
X4031967Y-20792436D02*
X4022444Y-20801960D01*
X4022444Y-20801960D02*
X4003396Y-20811484D01*
X4003396Y-20811484D02*
X3984348Y-20811484D01*
X3984348Y-20811484D02*
X3965301Y-20801960D01*
X3965301Y-20801960D02*
X3955777Y-20792436D01*
X3955777Y-20792436D02*
X3946253Y-20773389D01*
X3946253Y-20773389D02*
X3936729Y-20735293D01*
X3936729Y-20735293D02*
X3936729Y-20687674D01*
X3936729Y-20687674D02*
X3946253Y-20649579D01*
X3946253Y-20649579D02*
X3955777Y-20630531D01*
X3955777Y-20630531D02*
X3965301Y-20621008D01*
X3965301Y-20621008D02*
X3984348Y-20611484D01*
X4241491Y-20811484D02*
X4127206Y-20811484D01*
X4184348Y-20811484D02*
X4184348Y-20611484D01*
X4184348Y-20611484D02*
X4165301Y-20640055D01*
X4165301Y-20640055D02*
X4146253Y-20659103D01*
X4146253Y-20659103D02*
X4127206Y-20668627D01*
X4422444Y-20611484D02*
X4327206Y-20611484D01*
X4327206Y-20611484D02*
X4317682Y-20706722D01*
X4317682Y-20706722D02*
X4327206Y-20697198D01*
X4327206Y-20697198D02*
X4346253Y-20687674D01*
X4346253Y-20687674D02*
X4393872Y-20687674D01*
X4393872Y-20687674D02*
X4412920Y-20697198D01*
X4412920Y-20697198D02*
X4422444Y-20706722D01*
X4422444Y-20706722D02*
X4431968Y-20725770D01*
X4431968Y-20725770D02*
X4431968Y-20773389D01*
X4431968Y-20773389D02*
X4422444Y-20792436D01*
X4422444Y-20792436D02*
X4412920Y-20801960D01*
X4412920Y-20801960D02*
X4393872Y-20811484D01*
X4393872Y-20811484D02*
X4346253Y-20811484D01*
X4346253Y-20811484D02*
X4327206Y-20801960D01*
X4327206Y-20801960D02*
X4317682Y-20792436D01*
X4498634Y-20611484D02*
X4631968Y-20611484D01*
X4631968Y-20611484D02*
X4546253Y-20811484D01*
X4698634Y-20611484D02*
X4698634Y-20649579D01*
X4774825Y-20611484D02*
X4774825Y-20649579D01*
X5070063Y-20887674D02*
X5060539Y-20878150D01*
X5060539Y-20878150D02*
X5041491Y-20849579D01*
X5041491Y-20849579D02*
X5031968Y-20830531D01*
X5031968Y-20830531D02*
X5022444Y-20801960D01*
X5022444Y-20801960D02*
X5012920Y-20754341D01*
X5012920Y-20754341D02*
X5012920Y-20716246D01*
X5012920Y-20716246D02*
X5022444Y-20668627D01*
X5022444Y-20668627D02*
X5031968Y-20640055D01*
X5031968Y-20640055D02*
X5041491Y-20621008D01*
X5041491Y-20621008D02*
X5060539Y-20592436D01*
X5060539Y-20592436D02*
X5070063Y-20582912D01*
X5136730Y-20630531D02*
X5146253Y-20621008D01*
X5146253Y-20621008D02*
X5165301Y-20611484D01*
X5165301Y-20611484D02*
X5212920Y-20611484D01*
X5212920Y-20611484D02*
X5231968Y-20621008D01*
X5231968Y-20621008D02*
X5241491Y-20630531D01*
X5241491Y-20630531D02*
X5251015Y-20649579D01*
X5251015Y-20649579D02*
X5251015Y-20668627D01*
X5251015Y-20668627D02*
X5241491Y-20697198D01*
X5241491Y-20697198D02*
X5127206Y-20811484D01*
X5127206Y-20811484D02*
X5251015Y-20811484D01*
X5327206Y-20630531D02*
X5336730Y-20621008D01*
X5336730Y-20621008D02*
X5355777Y-20611484D01*
X5355777Y-20611484D02*
X5403396Y-20611484D01*
X5403396Y-20611484D02*
X5422444Y-20621008D01*
X5422444Y-20621008D02*
X5431968Y-20630531D01*
X5431968Y-20630531D02*
X5441491Y-20649579D01*
X5441491Y-20649579D02*
X5441491Y-20668627D01*
X5441491Y-20668627D02*
X5431968Y-20697198D01*
X5431968Y-20697198D02*
X5317682Y-20811484D01*
X5317682Y-20811484D02*
X5441491Y-20811484D01*
X5679587Y-20811484D02*
X5679587Y-20611484D01*
X5765301Y-20811484D02*
X5765301Y-20706722D01*
X5765301Y-20706722D02*
X5755777Y-20687674D01*
X5755777Y-20687674D02*
X5736730Y-20678150D01*
X5736730Y-20678150D02*
X5708158Y-20678150D01*
X5708158Y-20678150D02*
X5689110Y-20687674D01*
X5689110Y-20687674D02*
X5679587Y-20697198D01*
X5889110Y-20811484D02*
X5870063Y-20801960D01*
X5870063Y-20801960D02*
X5860539Y-20792436D01*
X5860539Y-20792436D02*
X5851015Y-20773389D01*
X5851015Y-20773389D02*
X5851015Y-20716246D01*
X5851015Y-20716246D02*
X5860539Y-20697198D01*
X5860539Y-20697198D02*
X5870063Y-20687674D01*
X5870063Y-20687674D02*
X5889110Y-20678150D01*
X5889110Y-20678150D02*
X5917682Y-20678150D01*
X5917682Y-20678150D02*
X5936730Y-20687674D01*
X5936730Y-20687674D02*
X5946253Y-20697198D01*
X5946253Y-20697198D02*
X5955777Y-20716246D01*
X5955777Y-20716246D02*
X5955777Y-20773389D01*
X5955777Y-20773389D02*
X5946253Y-20792436D01*
X5946253Y-20792436D02*
X5936730Y-20801960D01*
X5936730Y-20801960D02*
X5917682Y-20811484D01*
X5917682Y-20811484D02*
X5889110Y-20811484D01*
X6070063Y-20811484D02*
X6051015Y-20801960D01*
X6051015Y-20801960D02*
X6041491Y-20782912D01*
X6041491Y-20782912D02*
X6041491Y-20611484D01*
X6222444Y-20801960D02*
X6203396Y-20811484D01*
X6203396Y-20811484D02*
X6165301Y-20811484D01*
X6165301Y-20811484D02*
X6146253Y-20801960D01*
X6146253Y-20801960D02*
X6136730Y-20782912D01*
X6136730Y-20782912D02*
X6136730Y-20706722D01*
X6136730Y-20706722D02*
X6146253Y-20687674D01*
X6146253Y-20687674D02*
X6165301Y-20678150D01*
X6165301Y-20678150D02*
X6203396Y-20678150D01*
X6203396Y-20678150D02*
X6222444Y-20687674D01*
X6222444Y-20687674D02*
X6231968Y-20706722D01*
X6231968Y-20706722D02*
X6231968Y-20725770D01*
X6231968Y-20725770D02*
X6136730Y-20744817D01*
X6308158Y-20801960D02*
X6327206Y-20811484D01*
X6327206Y-20811484D02*
X6365301Y-20811484D01*
X6365301Y-20811484D02*
X6384349Y-20801960D01*
X6384349Y-20801960D02*
X6393872Y-20782912D01*
X6393872Y-20782912D02*
X6393872Y-20773389D01*
X6393872Y-20773389D02*
X6384349Y-20754341D01*
X6384349Y-20754341D02*
X6365301Y-20744817D01*
X6365301Y-20744817D02*
X6336730Y-20744817D01*
X6336730Y-20744817D02*
X6317682Y-20735293D01*
X6317682Y-20735293D02*
X6308158Y-20716246D01*
X6308158Y-20716246D02*
X6308158Y-20706722D01*
X6308158Y-20706722D02*
X6317682Y-20687674D01*
X6317682Y-20687674D02*
X6336730Y-20678150D01*
X6336730Y-20678150D02*
X6365301Y-20678150D01*
X6365301Y-20678150D02*
X6384349Y-20687674D01*
X6460539Y-20887674D02*
X6470063Y-20878150D01*
X6470063Y-20878150D02*
X6489111Y-20849579D01*
X6489111Y-20849579D02*
X6498634Y-20830531D01*
X6498634Y-20830531D02*
X6508158Y-20801960D01*
X6508158Y-20801960D02*
X6517682Y-20754341D01*
X6517682Y-20754341D02*
X6517682Y-20716246D01*
X6517682Y-20716246D02*
X6508158Y-20668627D01*
X6508158Y-20668627D02*
X6498634Y-20640055D01*
X6498634Y-20640055D02*
X6489111Y-20621008D01*
X6489111Y-20621008D02*
X6470063Y-20592436D01*
X6470063Y-20592436D02*
X6460539Y-20582912D01*
D10*
X1495000Y-20984000D02*
G75*
G03*
X1495000Y-20984000I-50000J0D01*
G01*
D11*
X1860539Y-21075484D02*
X1746253Y-21075484D01*
X1803396Y-21075484D02*
X1803396Y-20875484D01*
X1803396Y-20875484D02*
X1784348Y-20904055D01*
X1784348Y-20904055D02*
X1765301Y-20923103D01*
X1765301Y-20923103D02*
X1746253Y-20932627D01*
X1946253Y-21056436D02*
X1955777Y-21065960D01*
X1955777Y-21065960D02*
X1946253Y-21075484D01*
X1946253Y-21075484D02*
X1936729Y-21065960D01*
X1936729Y-21065960D02*
X1946253Y-21056436D01*
X1946253Y-21056436D02*
X1946253Y-21075484D01*
X2079586Y-20875484D02*
X2098634Y-20875484D01*
X2098634Y-20875484D02*
X2117682Y-20885008D01*
X2117682Y-20885008D02*
X2127205Y-20894531D01*
X2127205Y-20894531D02*
X2136729Y-20913579D01*
X2136729Y-20913579D02*
X2146253Y-20951674D01*
X2146253Y-20951674D02*
X2146253Y-20999293D01*
X2146253Y-20999293D02*
X2136729Y-21037389D01*
X2136729Y-21037389D02*
X2127205Y-21056436D01*
X2127205Y-21056436D02*
X2117682Y-21065960D01*
X2117682Y-21065960D02*
X2098634Y-21075484D01*
X2098634Y-21075484D02*
X2079586Y-21075484D01*
X2079586Y-21075484D02*
X2060539Y-21065960D01*
X2060539Y-21065960D02*
X2051015Y-21056436D01*
X2051015Y-21056436D02*
X2041491Y-21037389D01*
X2041491Y-21037389D02*
X2031967Y-20999293D01*
X2031967Y-20999293D02*
X2031967Y-20951674D01*
X2031967Y-20951674D02*
X2041491Y-20913579D01*
X2041491Y-20913579D02*
X2051015Y-20894531D01*
X2051015Y-20894531D02*
X2060539Y-20885008D01*
X2060539Y-20885008D02*
X2079586Y-20875484D01*
X2270063Y-20875484D02*
X2289110Y-20875484D01*
X2289110Y-20875484D02*
X2308158Y-20885008D01*
X2308158Y-20885008D02*
X2317682Y-20894531D01*
X2317682Y-20894531D02*
X2327205Y-20913579D01*
X2327205Y-20913579D02*
X2336729Y-20951674D01*
X2336729Y-20951674D02*
X2336729Y-20999293D01*
X2336729Y-20999293D02*
X2327205Y-21037389D01*
X2327205Y-21037389D02*
X2317682Y-21056436D01*
X2317682Y-21056436D02*
X2308158Y-21065960D01*
X2308158Y-21065960D02*
X2289110Y-21075484D01*
X2289110Y-21075484D02*
X2270063Y-21075484D01*
X2270063Y-21075484D02*
X2251015Y-21065960D01*
X2251015Y-21065960D02*
X2241491Y-21056436D01*
X2241491Y-21056436D02*
X2231967Y-21037389D01*
X2231967Y-21037389D02*
X2222444Y-20999293D01*
X2222444Y-20999293D02*
X2222444Y-20951674D01*
X2222444Y-20951674D02*
X2231967Y-20913579D01*
X2231967Y-20913579D02*
X2241491Y-20894531D01*
X2241491Y-20894531D02*
X2251015Y-20885008D01*
X2251015Y-20885008D02*
X2270063Y-20875484D01*
X2460539Y-20875484D02*
X2479586Y-20875484D01*
X2479586Y-20875484D02*
X2498634Y-20885008D01*
X2498634Y-20885008D02*
X2508158Y-20894531D01*
X2508158Y-20894531D02*
X2517682Y-20913579D01*
X2517682Y-20913579D02*
X2527205Y-20951674D01*
X2527205Y-20951674D02*
X2527205Y-20999293D01*
X2527205Y-20999293D02*
X2517682Y-21037389D01*
X2517682Y-21037389D02*
X2508158Y-21056436D01*
X2508158Y-21056436D02*
X2498634Y-21065960D01*
X2498634Y-21065960D02*
X2479586Y-21075484D01*
X2479586Y-21075484D02*
X2460539Y-21075484D01*
X2460539Y-21075484D02*
X2441491Y-21065960D01*
X2441491Y-21065960D02*
X2431967Y-21056436D01*
X2431967Y-21056436D02*
X2422444Y-21037389D01*
X2422444Y-21037389D02*
X2412920Y-20999293D01*
X2412920Y-20999293D02*
X2412920Y-20951674D01*
X2412920Y-20951674D02*
X2422444Y-20913579D01*
X2422444Y-20913579D02*
X2431967Y-20894531D01*
X2431967Y-20894531D02*
X2441491Y-20885008D01*
X2441491Y-20885008D02*
X2460539Y-20875484D01*
X2612920Y-21075484D02*
X2612920Y-20942150D01*
X2612920Y-20961198D02*
X2622444Y-20951674D01*
X2622444Y-20951674D02*
X2641491Y-20942150D01*
X2641491Y-20942150D02*
X2670063Y-20942150D01*
X2670063Y-20942150D02*
X2689110Y-20951674D01*
X2689110Y-20951674D02*
X2698634Y-20970722D01*
X2698634Y-20970722D02*
X2698634Y-21075484D01*
X2698634Y-20970722D02*
X2708158Y-20951674D01*
X2708158Y-20951674D02*
X2727205Y-20942150D01*
X2727205Y-20942150D02*
X2755777Y-20942150D01*
X2755777Y-20942150D02*
X2774825Y-20951674D01*
X2774825Y-20951674D02*
X2784348Y-20970722D01*
X2784348Y-20970722D02*
X2784348Y-21075484D01*
X2879586Y-21075484D02*
X2879586Y-20942150D01*
X2879586Y-20961198D02*
X2889110Y-20951674D01*
X2889110Y-20951674D02*
X2908158Y-20942150D01*
X2908158Y-20942150D02*
X2936729Y-20942150D01*
X2936729Y-20942150D02*
X2955777Y-20951674D01*
X2955777Y-20951674D02*
X2965301Y-20970722D01*
X2965301Y-20970722D02*
X2965301Y-21075484D01*
X2965301Y-20970722D02*
X2974824Y-20951674D01*
X2974824Y-20951674D02*
X2993872Y-20942150D01*
X2993872Y-20942150D02*
X3022443Y-20942150D01*
X3022443Y-20942150D02*
X3041491Y-20951674D01*
X3041491Y-20951674D02*
X3051015Y-20970722D01*
X3051015Y-20970722D02*
X3051015Y-21075484D01*
X3441491Y-20865960D02*
X3270063Y-21123103D01*
X3698634Y-20875484D02*
X3717682Y-20875484D01*
X3717682Y-20875484D02*
X3736729Y-20885008D01*
X3736729Y-20885008D02*
X3746253Y-20894531D01*
X3746253Y-20894531D02*
X3755777Y-20913579D01*
X3755777Y-20913579D02*
X3765301Y-20951674D01*
X3765301Y-20951674D02*
X3765301Y-20999293D01*
X3765301Y-20999293D02*
X3755777Y-21037389D01*
X3755777Y-21037389D02*
X3746253Y-21056436D01*
X3746253Y-21056436D02*
X3736729Y-21065960D01*
X3736729Y-21065960D02*
X3717682Y-21075484D01*
X3717682Y-21075484D02*
X3698634Y-21075484D01*
X3698634Y-21075484D02*
X3679586Y-21065960D01*
X3679586Y-21065960D02*
X3670063Y-21056436D01*
X3670063Y-21056436D02*
X3660539Y-21037389D01*
X3660539Y-21037389D02*
X3651015Y-20999293D01*
X3651015Y-20999293D02*
X3651015Y-20951674D01*
X3651015Y-20951674D02*
X3660539Y-20913579D01*
X3660539Y-20913579D02*
X3670063Y-20894531D01*
X3670063Y-20894531D02*
X3679586Y-20885008D01*
X3679586Y-20885008D02*
X3698634Y-20875484D01*
X3851015Y-21056436D02*
X3860539Y-21065960D01*
X3860539Y-21065960D02*
X3851015Y-21075484D01*
X3851015Y-21075484D02*
X3841491Y-21065960D01*
X3841491Y-21065960D02*
X3851015Y-21056436D01*
X3851015Y-21056436D02*
X3851015Y-21075484D01*
X3984348Y-20875484D02*
X4003396Y-20875484D01*
X4003396Y-20875484D02*
X4022444Y-20885008D01*
X4022444Y-20885008D02*
X4031967Y-20894531D01*
X4031967Y-20894531D02*
X4041491Y-20913579D01*
X4041491Y-20913579D02*
X4051015Y-20951674D01*
X4051015Y-20951674D02*
X4051015Y-20999293D01*
X4051015Y-20999293D02*
X4041491Y-21037389D01*
X4041491Y-21037389D02*
X4031967Y-21056436D01*
X4031967Y-21056436D02*
X4022444Y-21065960D01*
X4022444Y-21065960D02*
X4003396Y-21075484D01*
X4003396Y-21075484D02*
X3984348Y-21075484D01*
X3984348Y-21075484D02*
X3965301Y-21065960D01*
X3965301Y-21065960D02*
X3955777Y-21056436D01*
X3955777Y-21056436D02*
X3946253Y-21037389D01*
X3946253Y-21037389D02*
X3936729Y-20999293D01*
X3936729Y-20999293D02*
X3936729Y-20951674D01*
X3936729Y-20951674D02*
X3946253Y-20913579D01*
X3946253Y-20913579D02*
X3955777Y-20894531D01*
X3955777Y-20894531D02*
X3965301Y-20885008D01*
X3965301Y-20885008D02*
X3984348Y-20875484D01*
X4117682Y-20875484D02*
X4241491Y-20875484D01*
X4241491Y-20875484D02*
X4174825Y-20951674D01*
X4174825Y-20951674D02*
X4203396Y-20951674D01*
X4203396Y-20951674D02*
X4222444Y-20961198D01*
X4222444Y-20961198D02*
X4231968Y-20970722D01*
X4231968Y-20970722D02*
X4241491Y-20989770D01*
X4241491Y-20989770D02*
X4241491Y-21037389D01*
X4241491Y-21037389D02*
X4231968Y-21056436D01*
X4231968Y-21056436D02*
X4222444Y-21065960D01*
X4222444Y-21065960D02*
X4203396Y-21075484D01*
X4203396Y-21075484D02*
X4146253Y-21075484D01*
X4146253Y-21075484D02*
X4127206Y-21065960D01*
X4127206Y-21065960D02*
X4117682Y-21056436D01*
X4336729Y-21075484D02*
X4374825Y-21075484D01*
X4374825Y-21075484D02*
X4393872Y-21065960D01*
X4393872Y-21065960D02*
X4403396Y-21056436D01*
X4403396Y-21056436D02*
X4422444Y-21027865D01*
X4422444Y-21027865D02*
X4431968Y-20989770D01*
X4431968Y-20989770D02*
X4431968Y-20913579D01*
X4431968Y-20913579D02*
X4422444Y-20894531D01*
X4422444Y-20894531D02*
X4412920Y-20885008D01*
X4412920Y-20885008D02*
X4393872Y-20875484D01*
X4393872Y-20875484D02*
X4355777Y-20875484D01*
X4355777Y-20875484D02*
X4336729Y-20885008D01*
X4336729Y-20885008D02*
X4327206Y-20894531D01*
X4327206Y-20894531D02*
X4317682Y-20913579D01*
X4317682Y-20913579D02*
X4317682Y-20961198D01*
X4317682Y-20961198D02*
X4327206Y-20980246D01*
X4327206Y-20980246D02*
X4336729Y-20989770D01*
X4336729Y-20989770D02*
X4355777Y-20999293D01*
X4355777Y-20999293D02*
X4393872Y-20999293D01*
X4393872Y-20999293D02*
X4412920Y-20989770D01*
X4412920Y-20989770D02*
X4422444Y-20980246D01*
X4422444Y-20980246D02*
X4431968Y-20961198D01*
X4603396Y-20942150D02*
X4603396Y-21075484D01*
X4555777Y-20865960D02*
X4508158Y-21008817D01*
X4508158Y-21008817D02*
X4631968Y-21008817D01*
X4698634Y-20875484D02*
X4698634Y-20913579D01*
X4774825Y-20875484D02*
X4774825Y-20913579D01*
X5070063Y-21151674D02*
X5060539Y-21142150D01*
X5060539Y-21142150D02*
X5041491Y-21113579D01*
X5041491Y-21113579D02*
X5031968Y-21094531D01*
X5031968Y-21094531D02*
X5022444Y-21065960D01*
X5022444Y-21065960D02*
X5012920Y-21018341D01*
X5012920Y-21018341D02*
X5012920Y-20980246D01*
X5012920Y-20980246D02*
X5022444Y-20932627D01*
X5022444Y-20932627D02*
X5031968Y-20904055D01*
X5031968Y-20904055D02*
X5041491Y-20885008D01*
X5041491Y-20885008D02*
X5060539Y-20856436D01*
X5060539Y-20856436D02*
X5070063Y-20846912D01*
X5127206Y-20875484D02*
X5251015Y-20875484D01*
X5251015Y-20875484D02*
X5184349Y-20951674D01*
X5184349Y-20951674D02*
X5212920Y-20951674D01*
X5212920Y-20951674D02*
X5231968Y-20961198D01*
X5231968Y-20961198D02*
X5241491Y-20970722D01*
X5241491Y-20970722D02*
X5251015Y-20989770D01*
X5251015Y-20989770D02*
X5251015Y-21037389D01*
X5251015Y-21037389D02*
X5241491Y-21056436D01*
X5241491Y-21056436D02*
X5231968Y-21065960D01*
X5231968Y-21065960D02*
X5212920Y-21075484D01*
X5212920Y-21075484D02*
X5155777Y-21075484D01*
X5155777Y-21075484D02*
X5136730Y-21065960D01*
X5136730Y-21065960D02*
X5127206Y-21056436D01*
X5374825Y-20875484D02*
X5393872Y-20875484D01*
X5393872Y-20875484D02*
X5412920Y-20885008D01*
X5412920Y-20885008D02*
X5422444Y-20894531D01*
X5422444Y-20894531D02*
X5431968Y-20913579D01*
X5431968Y-20913579D02*
X5441491Y-20951674D01*
X5441491Y-20951674D02*
X5441491Y-20999293D01*
X5441491Y-20999293D02*
X5431968Y-21037389D01*
X5431968Y-21037389D02*
X5422444Y-21056436D01*
X5422444Y-21056436D02*
X5412920Y-21065960D01*
X5412920Y-21065960D02*
X5393872Y-21075484D01*
X5393872Y-21075484D02*
X5374825Y-21075484D01*
X5374825Y-21075484D02*
X5355777Y-21065960D01*
X5355777Y-21065960D02*
X5346253Y-21056436D01*
X5346253Y-21056436D02*
X5336730Y-21037389D01*
X5336730Y-21037389D02*
X5327206Y-20999293D01*
X5327206Y-20999293D02*
X5327206Y-20951674D01*
X5327206Y-20951674D02*
X5336730Y-20913579D01*
X5336730Y-20913579D02*
X5346253Y-20894531D01*
X5346253Y-20894531D02*
X5355777Y-20885008D01*
X5355777Y-20885008D02*
X5374825Y-20875484D01*
X5679587Y-21075484D02*
X5679587Y-20875484D01*
X5765301Y-21075484D02*
X5765301Y-20970722D01*
X5765301Y-20970722D02*
X5755777Y-20951674D01*
X5755777Y-20951674D02*
X5736730Y-20942150D01*
X5736730Y-20942150D02*
X5708158Y-20942150D01*
X5708158Y-20942150D02*
X5689110Y-20951674D01*
X5689110Y-20951674D02*
X5679587Y-20961198D01*
X5889110Y-21075484D02*
X5870063Y-21065960D01*
X5870063Y-21065960D02*
X5860539Y-21056436D01*
X5860539Y-21056436D02*
X5851015Y-21037389D01*
X5851015Y-21037389D02*
X5851015Y-20980246D01*
X5851015Y-20980246D02*
X5860539Y-20961198D01*
X5860539Y-20961198D02*
X5870063Y-20951674D01*
X5870063Y-20951674D02*
X5889110Y-20942150D01*
X5889110Y-20942150D02*
X5917682Y-20942150D01*
X5917682Y-20942150D02*
X5936730Y-20951674D01*
X5936730Y-20951674D02*
X5946253Y-20961198D01*
X5946253Y-20961198D02*
X5955777Y-20980246D01*
X5955777Y-20980246D02*
X5955777Y-21037389D01*
X5955777Y-21037389D02*
X5946253Y-21056436D01*
X5946253Y-21056436D02*
X5936730Y-21065960D01*
X5936730Y-21065960D02*
X5917682Y-21075484D01*
X5917682Y-21075484D02*
X5889110Y-21075484D01*
X6070063Y-21075484D02*
X6051015Y-21065960D01*
X6051015Y-21065960D02*
X6041491Y-21046912D01*
X6041491Y-21046912D02*
X6041491Y-20875484D01*
X6222444Y-21065960D02*
X6203396Y-21075484D01*
X6203396Y-21075484D02*
X6165301Y-21075484D01*
X6165301Y-21075484D02*
X6146253Y-21065960D01*
X6146253Y-21065960D02*
X6136730Y-21046912D01*
X6136730Y-21046912D02*
X6136730Y-20970722D01*
X6136730Y-20970722D02*
X6146253Y-20951674D01*
X6146253Y-20951674D02*
X6165301Y-20942150D01*
X6165301Y-20942150D02*
X6203396Y-20942150D01*
X6203396Y-20942150D02*
X6222444Y-20951674D01*
X6222444Y-20951674D02*
X6231968Y-20970722D01*
X6231968Y-20970722D02*
X6231968Y-20989770D01*
X6231968Y-20989770D02*
X6136730Y-21008817D01*
X6308158Y-21065960D02*
X6327206Y-21075484D01*
X6327206Y-21075484D02*
X6365301Y-21075484D01*
X6365301Y-21075484D02*
X6384349Y-21065960D01*
X6384349Y-21065960D02*
X6393872Y-21046912D01*
X6393872Y-21046912D02*
X6393872Y-21037389D01*
X6393872Y-21037389D02*
X6384349Y-21018341D01*
X6384349Y-21018341D02*
X6365301Y-21008817D01*
X6365301Y-21008817D02*
X6336730Y-21008817D01*
X6336730Y-21008817D02*
X6317682Y-20999293D01*
X6317682Y-20999293D02*
X6308158Y-20980246D01*
X6308158Y-20980246D02*
X6308158Y-20970722D01*
X6308158Y-20970722D02*
X6317682Y-20951674D01*
X6317682Y-20951674D02*
X6336730Y-20942150D01*
X6336730Y-20942150D02*
X6365301Y-20942150D01*
X6365301Y-20942150D02*
X6384349Y-20951674D01*
X6460539Y-21151674D02*
X6470063Y-21142150D01*
X6470063Y-21142150D02*
X6489111Y-21113579D01*
X6489111Y-21113579D02*
X6498634Y-21094531D01*
X6498634Y-21094531D02*
X6508158Y-21065960D01*
X6508158Y-21065960D02*
X6517682Y-21018341D01*
X6517682Y-21018341D02*
X6517682Y-20980246D01*
X6517682Y-20980246D02*
X6508158Y-20932627D01*
X6508158Y-20932627D02*
X6498634Y-20904055D01*
X6498634Y-20904055D02*
X6489111Y-20885008D01*
X6489111Y-20885008D02*
X6470063Y-20856436D01*
X6470063Y-20856436D02*
X6460539Y-20846912D01*
D13*
X1440000Y-21193000D02*
X1440000Y-21303000D01*
X1385000Y-21248000D02*
X1495000Y-21248000D01*
D11*
X1860539Y-21339484D02*
X1746253Y-21339484D01*
X1803396Y-21339484D02*
X1803396Y-21139484D01*
X1803396Y-21139484D02*
X1784348Y-21168055D01*
X1784348Y-21168055D02*
X1765301Y-21187103D01*
X1765301Y-21187103D02*
X1746253Y-21196627D01*
X1946253Y-21320436D02*
X1955777Y-21329960D01*
X1955777Y-21329960D02*
X1946253Y-21339484D01*
X1946253Y-21339484D02*
X1936729Y-21329960D01*
X1936729Y-21329960D02*
X1946253Y-21320436D01*
X1946253Y-21320436D02*
X1946253Y-21339484D01*
X2146253Y-21339484D02*
X2031967Y-21339484D01*
X2089110Y-21339484D02*
X2089110Y-21139484D01*
X2089110Y-21139484D02*
X2070062Y-21168055D01*
X2070062Y-21168055D02*
X2051015Y-21187103D01*
X2051015Y-21187103D02*
X2031967Y-21196627D01*
X2270063Y-21139484D02*
X2289110Y-21139484D01*
X2289110Y-21139484D02*
X2308158Y-21149008D01*
X2308158Y-21149008D02*
X2317682Y-21158531D01*
X2317682Y-21158531D02*
X2327205Y-21177579D01*
X2327205Y-21177579D02*
X2336729Y-21215674D01*
X2336729Y-21215674D02*
X2336729Y-21263293D01*
X2336729Y-21263293D02*
X2327205Y-21301389D01*
X2327205Y-21301389D02*
X2317682Y-21320436D01*
X2317682Y-21320436D02*
X2308158Y-21329960D01*
X2308158Y-21329960D02*
X2289110Y-21339484D01*
X2289110Y-21339484D02*
X2270063Y-21339484D01*
X2270063Y-21339484D02*
X2251015Y-21329960D01*
X2251015Y-21329960D02*
X2241491Y-21320436D01*
X2241491Y-21320436D02*
X2231967Y-21301389D01*
X2231967Y-21301389D02*
X2222444Y-21263293D01*
X2222444Y-21263293D02*
X2222444Y-21215674D01*
X2222444Y-21215674D02*
X2231967Y-21177579D01*
X2231967Y-21177579D02*
X2241491Y-21158531D01*
X2241491Y-21158531D02*
X2251015Y-21149008D01*
X2251015Y-21149008D02*
X2270063Y-21139484D01*
X2460539Y-21139484D02*
X2479586Y-21139484D01*
X2479586Y-21139484D02*
X2498634Y-21149008D01*
X2498634Y-21149008D02*
X2508158Y-21158531D01*
X2508158Y-21158531D02*
X2517682Y-21177579D01*
X2517682Y-21177579D02*
X2527205Y-21215674D01*
X2527205Y-21215674D02*
X2527205Y-21263293D01*
X2527205Y-21263293D02*
X2517682Y-21301389D01*
X2517682Y-21301389D02*
X2508158Y-21320436D01*
X2508158Y-21320436D02*
X2498634Y-21329960D01*
X2498634Y-21329960D02*
X2479586Y-21339484D01*
X2479586Y-21339484D02*
X2460539Y-21339484D01*
X2460539Y-21339484D02*
X2441491Y-21329960D01*
X2441491Y-21329960D02*
X2431967Y-21320436D01*
X2431967Y-21320436D02*
X2422444Y-21301389D01*
X2422444Y-21301389D02*
X2412920Y-21263293D01*
X2412920Y-21263293D02*
X2412920Y-21215674D01*
X2412920Y-21215674D02*
X2422444Y-21177579D01*
X2422444Y-21177579D02*
X2431967Y-21158531D01*
X2431967Y-21158531D02*
X2441491Y-21149008D01*
X2441491Y-21149008D02*
X2460539Y-21139484D01*
X2612920Y-21339484D02*
X2612920Y-21206150D01*
X2612920Y-21225198D02*
X2622444Y-21215674D01*
X2622444Y-21215674D02*
X2641491Y-21206150D01*
X2641491Y-21206150D02*
X2670063Y-21206150D01*
X2670063Y-21206150D02*
X2689110Y-21215674D01*
X2689110Y-21215674D02*
X2698634Y-21234722D01*
X2698634Y-21234722D02*
X2698634Y-21339484D01*
X2698634Y-21234722D02*
X2708158Y-21215674D01*
X2708158Y-21215674D02*
X2727205Y-21206150D01*
X2727205Y-21206150D02*
X2755777Y-21206150D01*
X2755777Y-21206150D02*
X2774825Y-21215674D01*
X2774825Y-21215674D02*
X2784348Y-21234722D01*
X2784348Y-21234722D02*
X2784348Y-21339484D01*
X2879586Y-21339484D02*
X2879586Y-21206150D01*
X2879586Y-21225198D02*
X2889110Y-21215674D01*
X2889110Y-21215674D02*
X2908158Y-21206150D01*
X2908158Y-21206150D02*
X2936729Y-21206150D01*
X2936729Y-21206150D02*
X2955777Y-21215674D01*
X2955777Y-21215674D02*
X2965301Y-21234722D01*
X2965301Y-21234722D02*
X2965301Y-21339484D01*
X2965301Y-21234722D02*
X2974824Y-21215674D01*
X2974824Y-21215674D02*
X2993872Y-21206150D01*
X2993872Y-21206150D02*
X3022443Y-21206150D01*
X3022443Y-21206150D02*
X3041491Y-21215674D01*
X3041491Y-21215674D02*
X3051015Y-21234722D01*
X3051015Y-21234722D02*
X3051015Y-21339484D01*
X3441491Y-21129960D02*
X3270063Y-21387103D01*
X3698634Y-21139484D02*
X3717682Y-21139484D01*
X3717682Y-21139484D02*
X3736729Y-21149008D01*
X3736729Y-21149008D02*
X3746253Y-21158531D01*
X3746253Y-21158531D02*
X3755777Y-21177579D01*
X3755777Y-21177579D02*
X3765301Y-21215674D01*
X3765301Y-21215674D02*
X3765301Y-21263293D01*
X3765301Y-21263293D02*
X3755777Y-21301389D01*
X3755777Y-21301389D02*
X3746253Y-21320436D01*
X3746253Y-21320436D02*
X3736729Y-21329960D01*
X3736729Y-21329960D02*
X3717682Y-21339484D01*
X3717682Y-21339484D02*
X3698634Y-21339484D01*
X3698634Y-21339484D02*
X3679586Y-21329960D01*
X3679586Y-21329960D02*
X3670063Y-21320436D01*
X3670063Y-21320436D02*
X3660539Y-21301389D01*
X3660539Y-21301389D02*
X3651015Y-21263293D01*
X3651015Y-21263293D02*
X3651015Y-21215674D01*
X3651015Y-21215674D02*
X3660539Y-21177579D01*
X3660539Y-21177579D02*
X3670063Y-21158531D01*
X3670063Y-21158531D02*
X3679586Y-21149008D01*
X3679586Y-21149008D02*
X3698634Y-21139484D01*
X3851015Y-21320436D02*
X3860539Y-21329960D01*
X3860539Y-21329960D02*
X3851015Y-21339484D01*
X3851015Y-21339484D02*
X3841491Y-21329960D01*
X3841491Y-21329960D02*
X3851015Y-21320436D01*
X3851015Y-21320436D02*
X3851015Y-21339484D01*
X3984348Y-21139484D02*
X4003396Y-21139484D01*
X4003396Y-21139484D02*
X4022444Y-21149008D01*
X4022444Y-21149008D02*
X4031967Y-21158531D01*
X4031967Y-21158531D02*
X4041491Y-21177579D01*
X4041491Y-21177579D02*
X4051015Y-21215674D01*
X4051015Y-21215674D02*
X4051015Y-21263293D01*
X4051015Y-21263293D02*
X4041491Y-21301389D01*
X4041491Y-21301389D02*
X4031967Y-21320436D01*
X4031967Y-21320436D02*
X4022444Y-21329960D01*
X4022444Y-21329960D02*
X4003396Y-21339484D01*
X4003396Y-21339484D02*
X3984348Y-21339484D01*
X3984348Y-21339484D02*
X3965301Y-21329960D01*
X3965301Y-21329960D02*
X3955777Y-21320436D01*
X3955777Y-21320436D02*
X3946253Y-21301389D01*
X3946253Y-21301389D02*
X3936729Y-21263293D01*
X3936729Y-21263293D02*
X3936729Y-21215674D01*
X3936729Y-21215674D02*
X3946253Y-21177579D01*
X3946253Y-21177579D02*
X3955777Y-21158531D01*
X3955777Y-21158531D02*
X3965301Y-21149008D01*
X3965301Y-21149008D02*
X3984348Y-21139484D01*
X4222444Y-21206150D02*
X4222444Y-21339484D01*
X4174825Y-21129960D02*
X4127206Y-21272817D01*
X4127206Y-21272817D02*
X4251015Y-21272817D01*
X4308158Y-21139484D02*
X4431968Y-21139484D01*
X4431968Y-21139484D02*
X4365301Y-21215674D01*
X4365301Y-21215674D02*
X4393872Y-21215674D01*
X4393872Y-21215674D02*
X4412920Y-21225198D01*
X4412920Y-21225198D02*
X4422444Y-21234722D01*
X4422444Y-21234722D02*
X4431968Y-21253770D01*
X4431968Y-21253770D02*
X4431968Y-21301389D01*
X4431968Y-21301389D02*
X4422444Y-21320436D01*
X4422444Y-21320436D02*
X4412920Y-21329960D01*
X4412920Y-21329960D02*
X4393872Y-21339484D01*
X4393872Y-21339484D02*
X4336729Y-21339484D01*
X4336729Y-21339484D02*
X4317682Y-21329960D01*
X4317682Y-21329960D02*
X4308158Y-21320436D01*
X4498634Y-21139484D02*
X4622444Y-21139484D01*
X4622444Y-21139484D02*
X4555777Y-21215674D01*
X4555777Y-21215674D02*
X4584349Y-21215674D01*
X4584349Y-21215674D02*
X4603396Y-21225198D01*
X4603396Y-21225198D02*
X4612920Y-21234722D01*
X4612920Y-21234722D02*
X4622444Y-21253770D01*
X4622444Y-21253770D02*
X4622444Y-21301389D01*
X4622444Y-21301389D02*
X4612920Y-21320436D01*
X4612920Y-21320436D02*
X4603396Y-21329960D01*
X4603396Y-21329960D02*
X4584349Y-21339484D01*
X4584349Y-21339484D02*
X4527206Y-21339484D01*
X4527206Y-21339484D02*
X4508158Y-21329960D01*
X4508158Y-21329960D02*
X4498634Y-21320436D01*
X4698634Y-21139484D02*
X4698634Y-21177579D01*
X4774825Y-21139484D02*
X4774825Y-21177579D01*
X5070063Y-21415674D02*
X5060539Y-21406150D01*
X5060539Y-21406150D02*
X5041491Y-21377579D01*
X5041491Y-21377579D02*
X5031968Y-21358531D01*
X5031968Y-21358531D02*
X5022444Y-21329960D01*
X5022444Y-21329960D02*
X5012920Y-21282341D01*
X5012920Y-21282341D02*
X5012920Y-21244246D01*
X5012920Y-21244246D02*
X5022444Y-21196627D01*
X5022444Y-21196627D02*
X5031968Y-21168055D01*
X5031968Y-21168055D02*
X5041491Y-21149008D01*
X5041491Y-21149008D02*
X5060539Y-21120436D01*
X5060539Y-21120436D02*
X5070063Y-21110912D01*
X5251015Y-21339484D02*
X5136730Y-21339484D01*
X5193872Y-21339484D02*
X5193872Y-21139484D01*
X5193872Y-21139484D02*
X5174825Y-21168055D01*
X5174825Y-21168055D02*
X5155777Y-21187103D01*
X5155777Y-21187103D02*
X5136730Y-21196627D01*
X5365301Y-21225198D02*
X5346253Y-21215674D01*
X5346253Y-21215674D02*
X5336730Y-21206150D01*
X5336730Y-21206150D02*
X5327206Y-21187103D01*
X5327206Y-21187103D02*
X5327206Y-21177579D01*
X5327206Y-21177579D02*
X5336730Y-21158531D01*
X5336730Y-21158531D02*
X5346253Y-21149008D01*
X5346253Y-21149008D02*
X5365301Y-21139484D01*
X5365301Y-21139484D02*
X5403396Y-21139484D01*
X5403396Y-21139484D02*
X5422444Y-21149008D01*
X5422444Y-21149008D02*
X5431968Y-21158531D01*
X5431968Y-21158531D02*
X5441491Y-21177579D01*
X5441491Y-21177579D02*
X5441491Y-21187103D01*
X5441491Y-21187103D02*
X5431968Y-21206150D01*
X5431968Y-21206150D02*
X5422444Y-21215674D01*
X5422444Y-21215674D02*
X5403396Y-21225198D01*
X5403396Y-21225198D02*
X5365301Y-21225198D01*
X5365301Y-21225198D02*
X5346253Y-21234722D01*
X5346253Y-21234722D02*
X5336730Y-21244246D01*
X5336730Y-21244246D02*
X5327206Y-21263293D01*
X5327206Y-21263293D02*
X5327206Y-21301389D01*
X5327206Y-21301389D02*
X5336730Y-21320436D01*
X5336730Y-21320436D02*
X5346253Y-21329960D01*
X5346253Y-21329960D02*
X5365301Y-21339484D01*
X5365301Y-21339484D02*
X5403396Y-21339484D01*
X5403396Y-21339484D02*
X5422444Y-21329960D01*
X5422444Y-21329960D02*
X5431968Y-21320436D01*
X5431968Y-21320436D02*
X5441491Y-21301389D01*
X5441491Y-21301389D02*
X5441491Y-21263293D01*
X5441491Y-21263293D02*
X5431968Y-21244246D01*
X5431968Y-21244246D02*
X5422444Y-21234722D01*
X5422444Y-21234722D02*
X5403396Y-21225198D01*
X5679587Y-21339484D02*
X5679587Y-21139484D01*
X5765301Y-21339484D02*
X5765301Y-21234722D01*
X5765301Y-21234722D02*
X5755777Y-21215674D01*
X5755777Y-21215674D02*
X5736730Y-21206150D01*
X5736730Y-21206150D02*
X5708158Y-21206150D01*
X5708158Y-21206150D02*
X5689110Y-21215674D01*
X5689110Y-21215674D02*
X5679587Y-21225198D01*
X5889110Y-21339484D02*
X5870063Y-21329960D01*
X5870063Y-21329960D02*
X5860539Y-21320436D01*
X5860539Y-21320436D02*
X5851015Y-21301389D01*
X5851015Y-21301389D02*
X5851015Y-21244246D01*
X5851015Y-21244246D02*
X5860539Y-21225198D01*
X5860539Y-21225198D02*
X5870063Y-21215674D01*
X5870063Y-21215674D02*
X5889110Y-21206150D01*
X5889110Y-21206150D02*
X5917682Y-21206150D01*
X5917682Y-21206150D02*
X5936730Y-21215674D01*
X5936730Y-21215674D02*
X5946253Y-21225198D01*
X5946253Y-21225198D02*
X5955777Y-21244246D01*
X5955777Y-21244246D02*
X5955777Y-21301389D01*
X5955777Y-21301389D02*
X5946253Y-21320436D01*
X5946253Y-21320436D02*
X5936730Y-21329960D01*
X5936730Y-21329960D02*
X5917682Y-21339484D01*
X5917682Y-21339484D02*
X5889110Y-21339484D01*
X6070063Y-21339484D02*
X6051015Y-21329960D01*
X6051015Y-21329960D02*
X6041491Y-21310912D01*
X6041491Y-21310912D02*
X6041491Y-21139484D01*
X6222444Y-21329960D02*
X6203396Y-21339484D01*
X6203396Y-21339484D02*
X6165301Y-21339484D01*
X6165301Y-21339484D02*
X6146253Y-21329960D01*
X6146253Y-21329960D02*
X6136730Y-21310912D01*
X6136730Y-21310912D02*
X6136730Y-21234722D01*
X6136730Y-21234722D02*
X6146253Y-21215674D01*
X6146253Y-21215674D02*
X6165301Y-21206150D01*
X6165301Y-21206150D02*
X6203396Y-21206150D01*
X6203396Y-21206150D02*
X6222444Y-21215674D01*
X6222444Y-21215674D02*
X6231968Y-21234722D01*
X6231968Y-21234722D02*
X6231968Y-21253770D01*
X6231968Y-21253770D02*
X6136730Y-21272817D01*
X6308158Y-21329960D02*
X6327206Y-21339484D01*
X6327206Y-21339484D02*
X6365301Y-21339484D01*
X6365301Y-21339484D02*
X6384349Y-21329960D01*
X6384349Y-21329960D02*
X6393872Y-21310912D01*
X6393872Y-21310912D02*
X6393872Y-21301389D01*
X6393872Y-21301389D02*
X6384349Y-21282341D01*
X6384349Y-21282341D02*
X6365301Y-21272817D01*
X6365301Y-21272817D02*
X6336730Y-21272817D01*
X6336730Y-21272817D02*
X6317682Y-21263293D01*
X6317682Y-21263293D02*
X6308158Y-21244246D01*
X6308158Y-21244246D02*
X6308158Y-21234722D01*
X6308158Y-21234722D02*
X6317682Y-21215674D01*
X6317682Y-21215674D02*
X6336730Y-21206150D01*
X6336730Y-21206150D02*
X6365301Y-21206150D01*
X6365301Y-21206150D02*
X6384349Y-21215674D01*
X6460539Y-21415674D02*
X6470063Y-21406150D01*
X6470063Y-21406150D02*
X6489111Y-21377579D01*
X6489111Y-21377579D02*
X6498634Y-21358531D01*
X6498634Y-21358531D02*
X6508158Y-21329960D01*
X6508158Y-21329960D02*
X6517682Y-21282341D01*
X6517682Y-21282341D02*
X6517682Y-21244246D01*
X6517682Y-21244246D02*
X6508158Y-21196627D01*
X6508158Y-21196627D02*
X6498634Y-21168055D01*
X6498634Y-21168055D02*
X6489111Y-21149008D01*
X6489111Y-21149008D02*
X6470063Y-21120436D01*
X6470063Y-21120436D02*
X6460539Y-21110912D01*
D14*
X1477427Y-21554427D02*
X1477427Y-21469573D01*
X1392573Y-21469573D01*
X1392573Y-21554427D01*
X1477427Y-21554427D01*
D11*
X1860539Y-21603484D02*
X1746253Y-21603484D01*
X1803396Y-21603484D02*
X1803396Y-21403484D01*
X1803396Y-21403484D02*
X1784348Y-21432055D01*
X1784348Y-21432055D02*
X1765301Y-21451103D01*
X1765301Y-21451103D02*
X1746253Y-21460627D01*
X1946253Y-21584436D02*
X1955777Y-21593960D01*
X1955777Y-21593960D02*
X1946253Y-21603484D01*
X1946253Y-21603484D02*
X1936729Y-21593960D01*
X1936729Y-21593960D02*
X1946253Y-21584436D01*
X1946253Y-21584436D02*
X1946253Y-21603484D01*
X2031967Y-21422531D02*
X2041491Y-21413008D01*
X2041491Y-21413008D02*
X2060539Y-21403484D01*
X2060539Y-21403484D02*
X2108158Y-21403484D01*
X2108158Y-21403484D02*
X2127205Y-21413008D01*
X2127205Y-21413008D02*
X2136729Y-21422531D01*
X2136729Y-21422531D02*
X2146253Y-21441579D01*
X2146253Y-21441579D02*
X2146253Y-21460627D01*
X2146253Y-21460627D02*
X2136729Y-21489198D01*
X2136729Y-21489198D02*
X2022443Y-21603484D01*
X2022443Y-21603484D02*
X2146253Y-21603484D01*
X2270063Y-21403484D02*
X2289110Y-21403484D01*
X2289110Y-21403484D02*
X2308158Y-21413008D01*
X2308158Y-21413008D02*
X2317682Y-21422531D01*
X2317682Y-21422531D02*
X2327205Y-21441579D01*
X2327205Y-21441579D02*
X2336729Y-21479674D01*
X2336729Y-21479674D02*
X2336729Y-21527293D01*
X2336729Y-21527293D02*
X2327205Y-21565389D01*
X2327205Y-21565389D02*
X2317682Y-21584436D01*
X2317682Y-21584436D02*
X2308158Y-21593960D01*
X2308158Y-21593960D02*
X2289110Y-21603484D01*
X2289110Y-21603484D02*
X2270063Y-21603484D01*
X2270063Y-21603484D02*
X2251015Y-21593960D01*
X2251015Y-21593960D02*
X2241491Y-21584436D01*
X2241491Y-21584436D02*
X2231967Y-21565389D01*
X2231967Y-21565389D02*
X2222444Y-21527293D01*
X2222444Y-21527293D02*
X2222444Y-21479674D01*
X2222444Y-21479674D02*
X2231967Y-21441579D01*
X2231967Y-21441579D02*
X2241491Y-21422531D01*
X2241491Y-21422531D02*
X2251015Y-21413008D01*
X2251015Y-21413008D02*
X2270063Y-21403484D01*
X2460539Y-21403484D02*
X2479586Y-21403484D01*
X2479586Y-21403484D02*
X2498634Y-21413008D01*
X2498634Y-21413008D02*
X2508158Y-21422531D01*
X2508158Y-21422531D02*
X2517682Y-21441579D01*
X2517682Y-21441579D02*
X2527205Y-21479674D01*
X2527205Y-21479674D02*
X2527205Y-21527293D01*
X2527205Y-21527293D02*
X2517682Y-21565389D01*
X2517682Y-21565389D02*
X2508158Y-21584436D01*
X2508158Y-21584436D02*
X2498634Y-21593960D01*
X2498634Y-21593960D02*
X2479586Y-21603484D01*
X2479586Y-21603484D02*
X2460539Y-21603484D01*
X2460539Y-21603484D02*
X2441491Y-21593960D01*
X2441491Y-21593960D02*
X2431967Y-21584436D01*
X2431967Y-21584436D02*
X2422444Y-21565389D01*
X2422444Y-21565389D02*
X2412920Y-21527293D01*
X2412920Y-21527293D02*
X2412920Y-21479674D01*
X2412920Y-21479674D02*
X2422444Y-21441579D01*
X2422444Y-21441579D02*
X2431967Y-21422531D01*
X2431967Y-21422531D02*
X2441491Y-21413008D01*
X2441491Y-21413008D02*
X2460539Y-21403484D01*
X2612920Y-21603484D02*
X2612920Y-21470150D01*
X2612920Y-21489198D02*
X2622444Y-21479674D01*
X2622444Y-21479674D02*
X2641491Y-21470150D01*
X2641491Y-21470150D02*
X2670063Y-21470150D01*
X2670063Y-21470150D02*
X2689110Y-21479674D01*
X2689110Y-21479674D02*
X2698634Y-21498722D01*
X2698634Y-21498722D02*
X2698634Y-21603484D01*
X2698634Y-21498722D02*
X2708158Y-21479674D01*
X2708158Y-21479674D02*
X2727205Y-21470150D01*
X2727205Y-21470150D02*
X2755777Y-21470150D01*
X2755777Y-21470150D02*
X2774825Y-21479674D01*
X2774825Y-21479674D02*
X2784348Y-21498722D01*
X2784348Y-21498722D02*
X2784348Y-21603484D01*
X2879586Y-21603484D02*
X2879586Y-21470150D01*
X2879586Y-21489198D02*
X2889110Y-21479674D01*
X2889110Y-21479674D02*
X2908158Y-21470150D01*
X2908158Y-21470150D02*
X2936729Y-21470150D01*
X2936729Y-21470150D02*
X2955777Y-21479674D01*
X2955777Y-21479674D02*
X2965301Y-21498722D01*
X2965301Y-21498722D02*
X2965301Y-21603484D01*
X2965301Y-21498722D02*
X2974824Y-21479674D01*
X2974824Y-21479674D02*
X2993872Y-21470150D01*
X2993872Y-21470150D02*
X3022443Y-21470150D01*
X3022443Y-21470150D02*
X3041491Y-21479674D01*
X3041491Y-21479674D02*
X3051015Y-21498722D01*
X3051015Y-21498722D02*
X3051015Y-21603484D01*
X3441491Y-21393960D02*
X3270063Y-21651103D01*
X3698634Y-21403484D02*
X3717682Y-21403484D01*
X3717682Y-21403484D02*
X3736729Y-21413008D01*
X3736729Y-21413008D02*
X3746253Y-21422531D01*
X3746253Y-21422531D02*
X3755777Y-21441579D01*
X3755777Y-21441579D02*
X3765301Y-21479674D01*
X3765301Y-21479674D02*
X3765301Y-21527293D01*
X3765301Y-21527293D02*
X3755777Y-21565389D01*
X3755777Y-21565389D02*
X3746253Y-21584436D01*
X3746253Y-21584436D02*
X3736729Y-21593960D01*
X3736729Y-21593960D02*
X3717682Y-21603484D01*
X3717682Y-21603484D02*
X3698634Y-21603484D01*
X3698634Y-21603484D02*
X3679586Y-21593960D01*
X3679586Y-21593960D02*
X3670063Y-21584436D01*
X3670063Y-21584436D02*
X3660539Y-21565389D01*
X3660539Y-21565389D02*
X3651015Y-21527293D01*
X3651015Y-21527293D02*
X3651015Y-21479674D01*
X3651015Y-21479674D02*
X3660539Y-21441579D01*
X3660539Y-21441579D02*
X3670063Y-21422531D01*
X3670063Y-21422531D02*
X3679586Y-21413008D01*
X3679586Y-21413008D02*
X3698634Y-21403484D01*
X3851015Y-21584436D02*
X3860539Y-21593960D01*
X3860539Y-21593960D02*
X3851015Y-21603484D01*
X3851015Y-21603484D02*
X3841491Y-21593960D01*
X3841491Y-21593960D02*
X3851015Y-21584436D01*
X3851015Y-21584436D02*
X3851015Y-21603484D01*
X3984348Y-21403484D02*
X4003396Y-21403484D01*
X4003396Y-21403484D02*
X4022444Y-21413008D01*
X4022444Y-21413008D02*
X4031967Y-21422531D01*
X4031967Y-21422531D02*
X4041491Y-21441579D01*
X4041491Y-21441579D02*
X4051015Y-21479674D01*
X4051015Y-21479674D02*
X4051015Y-21527293D01*
X4051015Y-21527293D02*
X4041491Y-21565389D01*
X4041491Y-21565389D02*
X4031967Y-21584436D01*
X4031967Y-21584436D02*
X4022444Y-21593960D01*
X4022444Y-21593960D02*
X4003396Y-21603484D01*
X4003396Y-21603484D02*
X3984348Y-21603484D01*
X3984348Y-21603484D02*
X3965301Y-21593960D01*
X3965301Y-21593960D02*
X3955777Y-21584436D01*
X3955777Y-21584436D02*
X3946253Y-21565389D01*
X3946253Y-21565389D02*
X3936729Y-21527293D01*
X3936729Y-21527293D02*
X3936729Y-21479674D01*
X3936729Y-21479674D02*
X3946253Y-21441579D01*
X3946253Y-21441579D02*
X3955777Y-21422531D01*
X3955777Y-21422531D02*
X3965301Y-21413008D01*
X3965301Y-21413008D02*
X3984348Y-21403484D01*
X4222444Y-21470150D02*
X4222444Y-21603484D01*
X4174825Y-21393960D02*
X4127206Y-21536817D01*
X4127206Y-21536817D02*
X4251015Y-21536817D01*
X4308158Y-21403484D02*
X4441491Y-21403484D01*
X4441491Y-21403484D02*
X4355777Y-21603484D01*
X4508158Y-21422531D02*
X4517682Y-21413008D01*
X4517682Y-21413008D02*
X4536729Y-21403484D01*
X4536729Y-21403484D02*
X4584349Y-21403484D01*
X4584349Y-21403484D02*
X4603396Y-21413008D01*
X4603396Y-21413008D02*
X4612920Y-21422531D01*
X4612920Y-21422531D02*
X4622444Y-21441579D01*
X4622444Y-21441579D02*
X4622444Y-21460627D01*
X4622444Y-21460627D02*
X4612920Y-21489198D01*
X4612920Y-21489198D02*
X4498634Y-21603484D01*
X4498634Y-21603484D02*
X4622444Y-21603484D01*
X4698634Y-21403484D02*
X4698634Y-21441579D01*
X4774825Y-21403484D02*
X4774825Y-21441579D01*
X5070063Y-21679674D02*
X5060539Y-21670150D01*
X5060539Y-21670150D02*
X5041491Y-21641579D01*
X5041491Y-21641579D02*
X5031968Y-21622531D01*
X5031968Y-21622531D02*
X5022444Y-21593960D01*
X5022444Y-21593960D02*
X5012920Y-21546341D01*
X5012920Y-21546341D02*
X5012920Y-21508246D01*
X5012920Y-21508246D02*
X5022444Y-21460627D01*
X5022444Y-21460627D02*
X5031968Y-21432055D01*
X5031968Y-21432055D02*
X5041491Y-21413008D01*
X5041491Y-21413008D02*
X5060539Y-21384436D01*
X5060539Y-21384436D02*
X5070063Y-21374912D01*
X5251015Y-21603484D02*
X5136730Y-21603484D01*
X5193872Y-21603484D02*
X5193872Y-21403484D01*
X5193872Y-21403484D02*
X5174825Y-21432055D01*
X5174825Y-21432055D02*
X5155777Y-21451103D01*
X5155777Y-21451103D02*
X5136730Y-21460627D01*
X5327206Y-21422531D02*
X5336730Y-21413008D01*
X5336730Y-21413008D02*
X5355777Y-21403484D01*
X5355777Y-21403484D02*
X5403396Y-21403484D01*
X5403396Y-21403484D02*
X5422444Y-21413008D01*
X5422444Y-21413008D02*
X5431968Y-21422531D01*
X5431968Y-21422531D02*
X5441491Y-21441579D01*
X5441491Y-21441579D02*
X5441491Y-21460627D01*
X5441491Y-21460627D02*
X5431968Y-21489198D01*
X5431968Y-21489198D02*
X5317682Y-21603484D01*
X5317682Y-21603484D02*
X5441491Y-21603484D01*
X5679587Y-21603484D02*
X5679587Y-21403484D01*
X5765301Y-21603484D02*
X5765301Y-21498722D01*
X5765301Y-21498722D02*
X5755777Y-21479674D01*
X5755777Y-21479674D02*
X5736730Y-21470150D01*
X5736730Y-21470150D02*
X5708158Y-21470150D01*
X5708158Y-21470150D02*
X5689110Y-21479674D01*
X5689110Y-21479674D02*
X5679587Y-21489198D01*
X5889110Y-21603484D02*
X5870063Y-21593960D01*
X5870063Y-21593960D02*
X5860539Y-21584436D01*
X5860539Y-21584436D02*
X5851015Y-21565389D01*
X5851015Y-21565389D02*
X5851015Y-21508246D01*
X5851015Y-21508246D02*
X5860539Y-21489198D01*
X5860539Y-21489198D02*
X5870063Y-21479674D01*
X5870063Y-21479674D02*
X5889110Y-21470150D01*
X5889110Y-21470150D02*
X5917682Y-21470150D01*
X5917682Y-21470150D02*
X5936730Y-21479674D01*
X5936730Y-21479674D02*
X5946253Y-21489198D01*
X5946253Y-21489198D02*
X5955777Y-21508246D01*
X5955777Y-21508246D02*
X5955777Y-21565389D01*
X5955777Y-21565389D02*
X5946253Y-21584436D01*
X5946253Y-21584436D02*
X5936730Y-21593960D01*
X5936730Y-21593960D02*
X5917682Y-21603484D01*
X5917682Y-21603484D02*
X5889110Y-21603484D01*
X6070063Y-21603484D02*
X6051015Y-21593960D01*
X6051015Y-21593960D02*
X6041491Y-21574912D01*
X6041491Y-21574912D02*
X6041491Y-21403484D01*
X6222444Y-21593960D02*
X6203396Y-21603484D01*
X6203396Y-21603484D02*
X6165301Y-21603484D01*
X6165301Y-21603484D02*
X6146253Y-21593960D01*
X6146253Y-21593960D02*
X6136730Y-21574912D01*
X6136730Y-21574912D02*
X6136730Y-21498722D01*
X6136730Y-21498722D02*
X6146253Y-21479674D01*
X6146253Y-21479674D02*
X6165301Y-21470150D01*
X6165301Y-21470150D02*
X6203396Y-21470150D01*
X6203396Y-21470150D02*
X6222444Y-21479674D01*
X6222444Y-21479674D02*
X6231968Y-21498722D01*
X6231968Y-21498722D02*
X6231968Y-21517770D01*
X6231968Y-21517770D02*
X6136730Y-21536817D01*
X6308158Y-21593960D02*
X6327206Y-21603484D01*
X6327206Y-21603484D02*
X6365301Y-21603484D01*
X6365301Y-21603484D02*
X6384349Y-21593960D01*
X6384349Y-21593960D02*
X6393872Y-21574912D01*
X6393872Y-21574912D02*
X6393872Y-21565389D01*
X6393872Y-21565389D02*
X6384349Y-21546341D01*
X6384349Y-21546341D02*
X6365301Y-21536817D01*
X6365301Y-21536817D02*
X6336730Y-21536817D01*
X6336730Y-21536817D02*
X6317682Y-21527293D01*
X6317682Y-21527293D02*
X6308158Y-21508246D01*
X6308158Y-21508246D02*
X6308158Y-21498722D01*
X6308158Y-21498722D02*
X6317682Y-21479674D01*
X6317682Y-21479674D02*
X6336730Y-21470150D01*
X6336730Y-21470150D02*
X6365301Y-21470150D01*
X6365301Y-21470150D02*
X6384349Y-21479674D01*
X6460539Y-21679674D02*
X6470063Y-21670150D01*
X6470063Y-21670150D02*
X6489111Y-21641579D01*
X6489111Y-21641579D02*
X6498634Y-21622531D01*
X6498634Y-21622531D02*
X6508158Y-21593960D01*
X6508158Y-21593960D02*
X6517682Y-21546341D01*
X6517682Y-21546341D02*
X6517682Y-21508246D01*
X6517682Y-21508246D02*
X6508158Y-21460627D01*
X6508158Y-21460627D02*
X6498634Y-21432055D01*
X6498634Y-21432055D02*
X6489111Y-21413008D01*
X6489111Y-21413008D02*
X6470063Y-21384436D01*
X6470063Y-21384436D02*
X6460539Y-21374912D01*
D15*
X1420000Y-21851000D02*
X1495000Y-21776000D01*
X1420000Y-21701000D01*
X1345000Y-21776000D01*
X1420000Y-21851000D01*
D11*
X1860539Y-21867484D02*
X1746253Y-21867484D01*
X1803396Y-21867484D02*
X1803396Y-21667484D01*
X1803396Y-21667484D02*
X1784348Y-21696055D01*
X1784348Y-21696055D02*
X1765301Y-21715103D01*
X1765301Y-21715103D02*
X1746253Y-21724627D01*
X1946253Y-21848436D02*
X1955777Y-21857960D01*
X1955777Y-21857960D02*
X1946253Y-21867484D01*
X1946253Y-21867484D02*
X1936729Y-21857960D01*
X1936729Y-21857960D02*
X1946253Y-21848436D01*
X1946253Y-21848436D02*
X1946253Y-21867484D01*
X2136729Y-21667484D02*
X2041491Y-21667484D01*
X2041491Y-21667484D02*
X2031967Y-21762722D01*
X2031967Y-21762722D02*
X2041491Y-21753198D01*
X2041491Y-21753198D02*
X2060539Y-21743674D01*
X2060539Y-21743674D02*
X2108158Y-21743674D01*
X2108158Y-21743674D02*
X2127205Y-21753198D01*
X2127205Y-21753198D02*
X2136729Y-21762722D01*
X2136729Y-21762722D02*
X2146253Y-21781770D01*
X2146253Y-21781770D02*
X2146253Y-21829389D01*
X2146253Y-21829389D02*
X2136729Y-21848436D01*
X2136729Y-21848436D02*
X2127205Y-21857960D01*
X2127205Y-21857960D02*
X2108158Y-21867484D01*
X2108158Y-21867484D02*
X2060539Y-21867484D01*
X2060539Y-21867484D02*
X2041491Y-21857960D01*
X2041491Y-21857960D02*
X2031967Y-21848436D01*
X2270063Y-21667484D02*
X2289110Y-21667484D01*
X2289110Y-21667484D02*
X2308158Y-21677008D01*
X2308158Y-21677008D02*
X2317682Y-21686531D01*
X2317682Y-21686531D02*
X2327205Y-21705579D01*
X2327205Y-21705579D02*
X2336729Y-21743674D01*
X2336729Y-21743674D02*
X2336729Y-21791293D01*
X2336729Y-21791293D02*
X2327205Y-21829389D01*
X2327205Y-21829389D02*
X2317682Y-21848436D01*
X2317682Y-21848436D02*
X2308158Y-21857960D01*
X2308158Y-21857960D02*
X2289110Y-21867484D01*
X2289110Y-21867484D02*
X2270063Y-21867484D01*
X2270063Y-21867484D02*
X2251015Y-21857960D01*
X2251015Y-21857960D02*
X2241491Y-21848436D01*
X2241491Y-21848436D02*
X2231967Y-21829389D01*
X2231967Y-21829389D02*
X2222444Y-21791293D01*
X2222444Y-21791293D02*
X2222444Y-21743674D01*
X2222444Y-21743674D02*
X2231967Y-21705579D01*
X2231967Y-21705579D02*
X2241491Y-21686531D01*
X2241491Y-21686531D02*
X2251015Y-21677008D01*
X2251015Y-21677008D02*
X2270063Y-21667484D01*
X2460539Y-21667484D02*
X2479586Y-21667484D01*
X2479586Y-21667484D02*
X2498634Y-21677008D01*
X2498634Y-21677008D02*
X2508158Y-21686531D01*
X2508158Y-21686531D02*
X2517682Y-21705579D01*
X2517682Y-21705579D02*
X2527205Y-21743674D01*
X2527205Y-21743674D02*
X2527205Y-21791293D01*
X2527205Y-21791293D02*
X2517682Y-21829389D01*
X2517682Y-21829389D02*
X2508158Y-21848436D01*
X2508158Y-21848436D02*
X2498634Y-21857960D01*
X2498634Y-21857960D02*
X2479586Y-21867484D01*
X2479586Y-21867484D02*
X2460539Y-21867484D01*
X2460539Y-21867484D02*
X2441491Y-21857960D01*
X2441491Y-21857960D02*
X2431967Y-21848436D01*
X2431967Y-21848436D02*
X2422444Y-21829389D01*
X2422444Y-21829389D02*
X2412920Y-21791293D01*
X2412920Y-21791293D02*
X2412920Y-21743674D01*
X2412920Y-21743674D02*
X2422444Y-21705579D01*
X2422444Y-21705579D02*
X2431967Y-21686531D01*
X2431967Y-21686531D02*
X2441491Y-21677008D01*
X2441491Y-21677008D02*
X2460539Y-21667484D01*
X2612920Y-21867484D02*
X2612920Y-21734150D01*
X2612920Y-21753198D02*
X2622444Y-21743674D01*
X2622444Y-21743674D02*
X2641491Y-21734150D01*
X2641491Y-21734150D02*
X2670063Y-21734150D01*
X2670063Y-21734150D02*
X2689110Y-21743674D01*
X2689110Y-21743674D02*
X2698634Y-21762722D01*
X2698634Y-21762722D02*
X2698634Y-21867484D01*
X2698634Y-21762722D02*
X2708158Y-21743674D01*
X2708158Y-21743674D02*
X2727205Y-21734150D01*
X2727205Y-21734150D02*
X2755777Y-21734150D01*
X2755777Y-21734150D02*
X2774825Y-21743674D01*
X2774825Y-21743674D02*
X2784348Y-21762722D01*
X2784348Y-21762722D02*
X2784348Y-21867484D01*
X2879586Y-21867484D02*
X2879586Y-21734150D01*
X2879586Y-21753198D02*
X2889110Y-21743674D01*
X2889110Y-21743674D02*
X2908158Y-21734150D01*
X2908158Y-21734150D02*
X2936729Y-21734150D01*
X2936729Y-21734150D02*
X2955777Y-21743674D01*
X2955777Y-21743674D02*
X2965301Y-21762722D01*
X2965301Y-21762722D02*
X2965301Y-21867484D01*
X2965301Y-21762722D02*
X2974824Y-21743674D01*
X2974824Y-21743674D02*
X2993872Y-21734150D01*
X2993872Y-21734150D02*
X3022443Y-21734150D01*
X3022443Y-21734150D02*
X3041491Y-21743674D01*
X3041491Y-21743674D02*
X3051015Y-21762722D01*
X3051015Y-21762722D02*
X3051015Y-21867484D01*
X3441491Y-21657960D02*
X3270063Y-21915103D01*
X3698634Y-21667484D02*
X3717682Y-21667484D01*
X3717682Y-21667484D02*
X3736729Y-21677008D01*
X3736729Y-21677008D02*
X3746253Y-21686531D01*
X3746253Y-21686531D02*
X3755777Y-21705579D01*
X3755777Y-21705579D02*
X3765301Y-21743674D01*
X3765301Y-21743674D02*
X3765301Y-21791293D01*
X3765301Y-21791293D02*
X3755777Y-21829389D01*
X3755777Y-21829389D02*
X3746253Y-21848436D01*
X3746253Y-21848436D02*
X3736729Y-21857960D01*
X3736729Y-21857960D02*
X3717682Y-21867484D01*
X3717682Y-21867484D02*
X3698634Y-21867484D01*
X3698634Y-21867484D02*
X3679586Y-21857960D01*
X3679586Y-21857960D02*
X3670063Y-21848436D01*
X3670063Y-21848436D02*
X3660539Y-21829389D01*
X3660539Y-21829389D02*
X3651015Y-21791293D01*
X3651015Y-21791293D02*
X3651015Y-21743674D01*
X3651015Y-21743674D02*
X3660539Y-21705579D01*
X3660539Y-21705579D02*
X3670063Y-21686531D01*
X3670063Y-21686531D02*
X3679586Y-21677008D01*
X3679586Y-21677008D02*
X3698634Y-21667484D01*
X3851015Y-21848436D02*
X3860539Y-21857960D01*
X3860539Y-21857960D02*
X3851015Y-21867484D01*
X3851015Y-21867484D02*
X3841491Y-21857960D01*
X3841491Y-21857960D02*
X3851015Y-21848436D01*
X3851015Y-21848436D02*
X3851015Y-21867484D01*
X3984348Y-21667484D02*
X4003396Y-21667484D01*
X4003396Y-21667484D02*
X4022444Y-21677008D01*
X4022444Y-21677008D02*
X4031967Y-21686531D01*
X4031967Y-21686531D02*
X4041491Y-21705579D01*
X4041491Y-21705579D02*
X4051015Y-21743674D01*
X4051015Y-21743674D02*
X4051015Y-21791293D01*
X4051015Y-21791293D02*
X4041491Y-21829389D01*
X4041491Y-21829389D02*
X4031967Y-21848436D01*
X4031967Y-21848436D02*
X4022444Y-21857960D01*
X4022444Y-21857960D02*
X4003396Y-21867484D01*
X4003396Y-21867484D02*
X3984348Y-21867484D01*
X3984348Y-21867484D02*
X3965301Y-21857960D01*
X3965301Y-21857960D02*
X3955777Y-21848436D01*
X3955777Y-21848436D02*
X3946253Y-21829389D01*
X3946253Y-21829389D02*
X3936729Y-21791293D01*
X3936729Y-21791293D02*
X3936729Y-21743674D01*
X3936729Y-21743674D02*
X3946253Y-21705579D01*
X3946253Y-21705579D02*
X3955777Y-21686531D01*
X3955777Y-21686531D02*
X3965301Y-21677008D01*
X3965301Y-21677008D02*
X3984348Y-21667484D01*
X4231968Y-21667484D02*
X4136729Y-21667484D01*
X4136729Y-21667484D02*
X4127206Y-21762722D01*
X4127206Y-21762722D02*
X4136729Y-21753198D01*
X4136729Y-21753198D02*
X4155777Y-21743674D01*
X4155777Y-21743674D02*
X4203396Y-21743674D01*
X4203396Y-21743674D02*
X4222444Y-21753198D01*
X4222444Y-21753198D02*
X4231968Y-21762722D01*
X4231968Y-21762722D02*
X4241491Y-21781770D01*
X4241491Y-21781770D02*
X4241491Y-21829389D01*
X4241491Y-21829389D02*
X4231968Y-21848436D01*
X4231968Y-21848436D02*
X4222444Y-21857960D01*
X4222444Y-21857960D02*
X4203396Y-21867484D01*
X4203396Y-21867484D02*
X4155777Y-21867484D01*
X4155777Y-21867484D02*
X4136729Y-21857960D01*
X4136729Y-21857960D02*
X4127206Y-21848436D01*
X4336729Y-21867484D02*
X4374825Y-21867484D01*
X4374825Y-21867484D02*
X4393872Y-21857960D01*
X4393872Y-21857960D02*
X4403396Y-21848436D01*
X4403396Y-21848436D02*
X4422444Y-21819865D01*
X4422444Y-21819865D02*
X4431968Y-21781770D01*
X4431968Y-21781770D02*
X4431968Y-21705579D01*
X4431968Y-21705579D02*
X4422444Y-21686531D01*
X4422444Y-21686531D02*
X4412920Y-21677008D01*
X4412920Y-21677008D02*
X4393872Y-21667484D01*
X4393872Y-21667484D02*
X4355777Y-21667484D01*
X4355777Y-21667484D02*
X4336729Y-21677008D01*
X4336729Y-21677008D02*
X4327206Y-21686531D01*
X4327206Y-21686531D02*
X4317682Y-21705579D01*
X4317682Y-21705579D02*
X4317682Y-21753198D01*
X4317682Y-21753198D02*
X4327206Y-21772246D01*
X4327206Y-21772246D02*
X4336729Y-21781770D01*
X4336729Y-21781770D02*
X4355777Y-21791293D01*
X4355777Y-21791293D02*
X4393872Y-21791293D01*
X4393872Y-21791293D02*
X4412920Y-21781770D01*
X4412920Y-21781770D02*
X4422444Y-21772246D01*
X4422444Y-21772246D02*
X4431968Y-21753198D01*
X4622444Y-21867484D02*
X4508158Y-21867484D01*
X4565301Y-21867484D02*
X4565301Y-21667484D01*
X4565301Y-21667484D02*
X4546253Y-21696055D01*
X4546253Y-21696055D02*
X4527206Y-21715103D01*
X4527206Y-21715103D02*
X4508158Y-21724627D01*
X4698634Y-21667484D02*
X4698634Y-21705579D01*
X4774825Y-21667484D02*
X4774825Y-21705579D01*
X5070063Y-21943674D02*
X5060539Y-21934150D01*
X5060539Y-21934150D02*
X5041491Y-21905579D01*
X5041491Y-21905579D02*
X5031968Y-21886531D01*
X5031968Y-21886531D02*
X5022444Y-21857960D01*
X5022444Y-21857960D02*
X5012920Y-21810341D01*
X5012920Y-21810341D02*
X5012920Y-21772246D01*
X5012920Y-21772246D02*
X5022444Y-21724627D01*
X5022444Y-21724627D02*
X5031968Y-21696055D01*
X5031968Y-21696055D02*
X5041491Y-21677008D01*
X5041491Y-21677008D02*
X5060539Y-21648436D01*
X5060539Y-21648436D02*
X5070063Y-21638912D01*
X5251015Y-21867484D02*
X5136730Y-21867484D01*
X5193872Y-21867484D02*
X5193872Y-21667484D01*
X5193872Y-21667484D02*
X5174825Y-21696055D01*
X5174825Y-21696055D02*
X5155777Y-21715103D01*
X5155777Y-21715103D02*
X5136730Y-21724627D01*
X5365301Y-21753198D02*
X5346253Y-21743674D01*
X5346253Y-21743674D02*
X5336730Y-21734150D01*
X5336730Y-21734150D02*
X5327206Y-21715103D01*
X5327206Y-21715103D02*
X5327206Y-21705579D01*
X5327206Y-21705579D02*
X5336730Y-21686531D01*
X5336730Y-21686531D02*
X5346253Y-21677008D01*
X5346253Y-21677008D02*
X5365301Y-21667484D01*
X5365301Y-21667484D02*
X5403396Y-21667484D01*
X5403396Y-21667484D02*
X5422444Y-21677008D01*
X5422444Y-21677008D02*
X5431968Y-21686531D01*
X5431968Y-21686531D02*
X5441491Y-21705579D01*
X5441491Y-21705579D02*
X5441491Y-21715103D01*
X5441491Y-21715103D02*
X5431968Y-21734150D01*
X5431968Y-21734150D02*
X5422444Y-21743674D01*
X5422444Y-21743674D02*
X5403396Y-21753198D01*
X5403396Y-21753198D02*
X5365301Y-21753198D01*
X5365301Y-21753198D02*
X5346253Y-21762722D01*
X5346253Y-21762722D02*
X5336730Y-21772246D01*
X5336730Y-21772246D02*
X5327206Y-21791293D01*
X5327206Y-21791293D02*
X5327206Y-21829389D01*
X5327206Y-21829389D02*
X5336730Y-21848436D01*
X5336730Y-21848436D02*
X5346253Y-21857960D01*
X5346253Y-21857960D02*
X5365301Y-21867484D01*
X5365301Y-21867484D02*
X5403396Y-21867484D01*
X5403396Y-21867484D02*
X5422444Y-21857960D01*
X5422444Y-21857960D02*
X5431968Y-21848436D01*
X5431968Y-21848436D02*
X5441491Y-21829389D01*
X5441491Y-21829389D02*
X5441491Y-21791293D01*
X5441491Y-21791293D02*
X5431968Y-21772246D01*
X5431968Y-21772246D02*
X5422444Y-21762722D01*
X5422444Y-21762722D02*
X5403396Y-21753198D01*
X5679587Y-21867484D02*
X5679587Y-21667484D01*
X5765301Y-21867484D02*
X5765301Y-21762722D01*
X5765301Y-21762722D02*
X5755777Y-21743674D01*
X5755777Y-21743674D02*
X5736730Y-21734150D01*
X5736730Y-21734150D02*
X5708158Y-21734150D01*
X5708158Y-21734150D02*
X5689110Y-21743674D01*
X5689110Y-21743674D02*
X5679587Y-21753198D01*
X5889110Y-21867484D02*
X5870063Y-21857960D01*
X5870063Y-21857960D02*
X5860539Y-21848436D01*
X5860539Y-21848436D02*
X5851015Y-21829389D01*
X5851015Y-21829389D02*
X5851015Y-21772246D01*
X5851015Y-21772246D02*
X5860539Y-21753198D01*
X5860539Y-21753198D02*
X5870063Y-21743674D01*
X5870063Y-21743674D02*
X5889110Y-21734150D01*
X5889110Y-21734150D02*
X5917682Y-21734150D01*
X5917682Y-21734150D02*
X5936730Y-21743674D01*
X5936730Y-21743674D02*
X5946253Y-21753198D01*
X5946253Y-21753198D02*
X5955777Y-21772246D01*
X5955777Y-21772246D02*
X5955777Y-21829389D01*
X5955777Y-21829389D02*
X5946253Y-21848436D01*
X5946253Y-21848436D02*
X5936730Y-21857960D01*
X5936730Y-21857960D02*
X5917682Y-21867484D01*
X5917682Y-21867484D02*
X5889110Y-21867484D01*
X6070063Y-21867484D02*
X6051015Y-21857960D01*
X6051015Y-21857960D02*
X6041491Y-21838912D01*
X6041491Y-21838912D02*
X6041491Y-21667484D01*
X6222444Y-21857960D02*
X6203396Y-21867484D01*
X6203396Y-21867484D02*
X6165301Y-21867484D01*
X6165301Y-21867484D02*
X6146253Y-21857960D01*
X6146253Y-21857960D02*
X6136730Y-21838912D01*
X6136730Y-21838912D02*
X6136730Y-21762722D01*
X6136730Y-21762722D02*
X6146253Y-21743674D01*
X6146253Y-21743674D02*
X6165301Y-21734150D01*
X6165301Y-21734150D02*
X6203396Y-21734150D01*
X6203396Y-21734150D02*
X6222444Y-21743674D01*
X6222444Y-21743674D02*
X6231968Y-21762722D01*
X6231968Y-21762722D02*
X6231968Y-21781770D01*
X6231968Y-21781770D02*
X6136730Y-21800817D01*
X6308158Y-21857960D02*
X6327206Y-21867484D01*
X6327206Y-21867484D02*
X6365301Y-21867484D01*
X6365301Y-21867484D02*
X6384349Y-21857960D01*
X6384349Y-21857960D02*
X6393872Y-21838912D01*
X6393872Y-21838912D02*
X6393872Y-21829389D01*
X6393872Y-21829389D02*
X6384349Y-21810341D01*
X6384349Y-21810341D02*
X6365301Y-21800817D01*
X6365301Y-21800817D02*
X6336730Y-21800817D01*
X6336730Y-21800817D02*
X6317682Y-21791293D01*
X6317682Y-21791293D02*
X6308158Y-21772246D01*
X6308158Y-21772246D02*
X6308158Y-21762722D01*
X6308158Y-21762722D02*
X6317682Y-21743674D01*
X6317682Y-21743674D02*
X6336730Y-21734150D01*
X6336730Y-21734150D02*
X6365301Y-21734150D01*
X6365301Y-21734150D02*
X6384349Y-21743674D01*
X6460539Y-21943674D02*
X6470063Y-21934150D01*
X6470063Y-21934150D02*
X6489111Y-21905579D01*
X6489111Y-21905579D02*
X6498634Y-21886531D01*
X6498634Y-21886531D02*
X6508158Y-21857960D01*
X6508158Y-21857960D02*
X6517682Y-21810341D01*
X6517682Y-21810341D02*
X6517682Y-21772246D01*
X6517682Y-21772246D02*
X6508158Y-21724627D01*
X6508158Y-21724627D02*
X6498634Y-21696055D01*
X6498634Y-21696055D02*
X6489111Y-21677008D01*
X6489111Y-21677008D02*
X6470063Y-21648436D01*
X6470063Y-21648436D02*
X6460539Y-21638912D01*
X1295000Y-21946000D02*
X1495000Y-22146000D01*
X1495000Y-21946000D02*
X1295000Y-22146000D01*
X1495000Y-22046000D02*
G75*
G03*
X1495000Y-22046000I-100000J0D01*
G01*
X1746253Y-21956531D02*
X1755777Y-21947008D01*
X1755777Y-21947008D02*
X1774824Y-21937484D01*
X1774824Y-21937484D02*
X1822443Y-21937484D01*
X1822443Y-21937484D02*
X1841491Y-21947008D01*
X1841491Y-21947008D02*
X1851015Y-21956531D01*
X1851015Y-21956531D02*
X1860539Y-21975579D01*
X1860539Y-21975579D02*
X1860539Y-21994627D01*
X1860539Y-21994627D02*
X1851015Y-22023198D01*
X1851015Y-22023198D02*
X1736729Y-22137484D01*
X1736729Y-22137484D02*
X1860539Y-22137484D01*
X1946253Y-22118436D02*
X1955777Y-22127960D01*
X1955777Y-22127960D02*
X1946253Y-22137484D01*
X1946253Y-22137484D02*
X1936729Y-22127960D01*
X1936729Y-22127960D02*
X1946253Y-22118436D01*
X1946253Y-22118436D02*
X1946253Y-22137484D01*
X2079586Y-21937484D02*
X2098634Y-21937484D01*
X2098634Y-21937484D02*
X2117682Y-21947008D01*
X2117682Y-21947008D02*
X2127205Y-21956531D01*
X2127205Y-21956531D02*
X2136729Y-21975579D01*
X2136729Y-21975579D02*
X2146253Y-22013674D01*
X2146253Y-22013674D02*
X2146253Y-22061293D01*
X2146253Y-22061293D02*
X2136729Y-22099389D01*
X2136729Y-22099389D02*
X2127205Y-22118436D01*
X2127205Y-22118436D02*
X2117682Y-22127960D01*
X2117682Y-22127960D02*
X2098634Y-22137484D01*
X2098634Y-22137484D02*
X2079586Y-22137484D01*
X2079586Y-22137484D02*
X2060539Y-22127960D01*
X2060539Y-22127960D02*
X2051015Y-22118436D01*
X2051015Y-22118436D02*
X2041491Y-22099389D01*
X2041491Y-22099389D02*
X2031967Y-22061293D01*
X2031967Y-22061293D02*
X2031967Y-22013674D01*
X2031967Y-22013674D02*
X2041491Y-21975579D01*
X2041491Y-21975579D02*
X2051015Y-21956531D01*
X2051015Y-21956531D02*
X2060539Y-21947008D01*
X2060539Y-21947008D02*
X2079586Y-21937484D01*
X2270063Y-21937484D02*
X2289110Y-21937484D01*
X2289110Y-21937484D02*
X2308158Y-21947008D01*
X2308158Y-21947008D02*
X2317682Y-21956531D01*
X2317682Y-21956531D02*
X2327205Y-21975579D01*
X2327205Y-21975579D02*
X2336729Y-22013674D01*
X2336729Y-22013674D02*
X2336729Y-22061293D01*
X2336729Y-22061293D02*
X2327205Y-22099389D01*
X2327205Y-22099389D02*
X2317682Y-22118436D01*
X2317682Y-22118436D02*
X2308158Y-22127960D01*
X2308158Y-22127960D02*
X2289110Y-22137484D01*
X2289110Y-22137484D02*
X2270063Y-22137484D01*
X2270063Y-22137484D02*
X2251015Y-22127960D01*
X2251015Y-22127960D02*
X2241491Y-22118436D01*
X2241491Y-22118436D02*
X2231967Y-22099389D01*
X2231967Y-22099389D02*
X2222444Y-22061293D01*
X2222444Y-22061293D02*
X2222444Y-22013674D01*
X2222444Y-22013674D02*
X2231967Y-21975579D01*
X2231967Y-21975579D02*
X2241491Y-21956531D01*
X2241491Y-21956531D02*
X2251015Y-21947008D01*
X2251015Y-21947008D02*
X2270063Y-21937484D01*
X2460539Y-21937484D02*
X2479586Y-21937484D01*
X2479586Y-21937484D02*
X2498634Y-21947008D01*
X2498634Y-21947008D02*
X2508158Y-21956531D01*
X2508158Y-21956531D02*
X2517682Y-21975579D01*
X2517682Y-21975579D02*
X2527205Y-22013674D01*
X2527205Y-22013674D02*
X2527205Y-22061293D01*
X2527205Y-22061293D02*
X2517682Y-22099389D01*
X2517682Y-22099389D02*
X2508158Y-22118436D01*
X2508158Y-22118436D02*
X2498634Y-22127960D01*
X2498634Y-22127960D02*
X2479586Y-22137484D01*
X2479586Y-22137484D02*
X2460539Y-22137484D01*
X2460539Y-22137484D02*
X2441491Y-22127960D01*
X2441491Y-22127960D02*
X2431967Y-22118436D01*
X2431967Y-22118436D02*
X2422444Y-22099389D01*
X2422444Y-22099389D02*
X2412920Y-22061293D01*
X2412920Y-22061293D02*
X2412920Y-22013674D01*
X2412920Y-22013674D02*
X2422444Y-21975579D01*
X2422444Y-21975579D02*
X2431967Y-21956531D01*
X2431967Y-21956531D02*
X2441491Y-21947008D01*
X2441491Y-21947008D02*
X2460539Y-21937484D01*
X2612920Y-22137484D02*
X2612920Y-22004150D01*
X2612920Y-22023198D02*
X2622444Y-22013674D01*
X2622444Y-22013674D02*
X2641491Y-22004150D01*
X2641491Y-22004150D02*
X2670063Y-22004150D01*
X2670063Y-22004150D02*
X2689110Y-22013674D01*
X2689110Y-22013674D02*
X2698634Y-22032722D01*
X2698634Y-22032722D02*
X2698634Y-22137484D01*
X2698634Y-22032722D02*
X2708158Y-22013674D01*
X2708158Y-22013674D02*
X2727205Y-22004150D01*
X2727205Y-22004150D02*
X2755777Y-22004150D01*
X2755777Y-22004150D02*
X2774825Y-22013674D01*
X2774825Y-22013674D02*
X2784348Y-22032722D01*
X2784348Y-22032722D02*
X2784348Y-22137484D01*
X2879586Y-22137484D02*
X2879586Y-22004150D01*
X2879586Y-22023198D02*
X2889110Y-22013674D01*
X2889110Y-22013674D02*
X2908158Y-22004150D01*
X2908158Y-22004150D02*
X2936729Y-22004150D01*
X2936729Y-22004150D02*
X2955777Y-22013674D01*
X2955777Y-22013674D02*
X2965301Y-22032722D01*
X2965301Y-22032722D02*
X2965301Y-22137484D01*
X2965301Y-22032722D02*
X2974824Y-22013674D01*
X2974824Y-22013674D02*
X2993872Y-22004150D01*
X2993872Y-22004150D02*
X3022443Y-22004150D01*
X3022443Y-22004150D02*
X3041491Y-22013674D01*
X3041491Y-22013674D02*
X3051015Y-22032722D01*
X3051015Y-22032722D02*
X3051015Y-22137484D01*
X3441491Y-21927960D02*
X3270063Y-22185103D01*
X3698634Y-21937484D02*
X3717682Y-21937484D01*
X3717682Y-21937484D02*
X3736729Y-21947008D01*
X3736729Y-21947008D02*
X3746253Y-21956531D01*
X3746253Y-21956531D02*
X3755777Y-21975579D01*
X3755777Y-21975579D02*
X3765301Y-22013674D01*
X3765301Y-22013674D02*
X3765301Y-22061293D01*
X3765301Y-22061293D02*
X3755777Y-22099389D01*
X3755777Y-22099389D02*
X3746253Y-22118436D01*
X3746253Y-22118436D02*
X3736729Y-22127960D01*
X3736729Y-22127960D02*
X3717682Y-22137484D01*
X3717682Y-22137484D02*
X3698634Y-22137484D01*
X3698634Y-22137484D02*
X3679586Y-22127960D01*
X3679586Y-22127960D02*
X3670063Y-22118436D01*
X3670063Y-22118436D02*
X3660539Y-22099389D01*
X3660539Y-22099389D02*
X3651015Y-22061293D01*
X3651015Y-22061293D02*
X3651015Y-22013674D01*
X3651015Y-22013674D02*
X3660539Y-21975579D01*
X3660539Y-21975579D02*
X3670063Y-21956531D01*
X3670063Y-21956531D02*
X3679586Y-21947008D01*
X3679586Y-21947008D02*
X3698634Y-21937484D01*
X3851015Y-22118436D02*
X3860539Y-22127960D01*
X3860539Y-22127960D02*
X3851015Y-22137484D01*
X3851015Y-22137484D02*
X3841491Y-22127960D01*
X3841491Y-22127960D02*
X3851015Y-22118436D01*
X3851015Y-22118436D02*
X3851015Y-22137484D01*
X3984348Y-21937484D02*
X4003396Y-21937484D01*
X4003396Y-21937484D02*
X4022444Y-21947008D01*
X4022444Y-21947008D02*
X4031967Y-21956531D01*
X4031967Y-21956531D02*
X4041491Y-21975579D01*
X4041491Y-21975579D02*
X4051015Y-22013674D01*
X4051015Y-22013674D02*
X4051015Y-22061293D01*
X4051015Y-22061293D02*
X4041491Y-22099389D01*
X4041491Y-22099389D02*
X4031967Y-22118436D01*
X4031967Y-22118436D02*
X4022444Y-22127960D01*
X4022444Y-22127960D02*
X4003396Y-22137484D01*
X4003396Y-22137484D02*
X3984348Y-22137484D01*
X3984348Y-22137484D02*
X3965301Y-22127960D01*
X3965301Y-22127960D02*
X3955777Y-22118436D01*
X3955777Y-22118436D02*
X3946253Y-22099389D01*
X3946253Y-22099389D02*
X3936729Y-22061293D01*
X3936729Y-22061293D02*
X3936729Y-22013674D01*
X3936729Y-22013674D02*
X3946253Y-21975579D01*
X3946253Y-21975579D02*
X3955777Y-21956531D01*
X3955777Y-21956531D02*
X3965301Y-21947008D01*
X3965301Y-21947008D02*
X3984348Y-21937484D01*
X4117682Y-21937484D02*
X4251015Y-21937484D01*
X4251015Y-21937484D02*
X4165301Y-22137484D01*
X4355777Y-22023198D02*
X4336729Y-22013674D01*
X4336729Y-22013674D02*
X4327206Y-22004150D01*
X4327206Y-22004150D02*
X4317682Y-21985103D01*
X4317682Y-21985103D02*
X4317682Y-21975579D01*
X4317682Y-21975579D02*
X4327206Y-21956531D01*
X4327206Y-21956531D02*
X4336729Y-21947008D01*
X4336729Y-21947008D02*
X4355777Y-21937484D01*
X4355777Y-21937484D02*
X4393872Y-21937484D01*
X4393872Y-21937484D02*
X4412920Y-21947008D01*
X4412920Y-21947008D02*
X4422444Y-21956531D01*
X4422444Y-21956531D02*
X4431968Y-21975579D01*
X4431968Y-21975579D02*
X4431968Y-21985103D01*
X4431968Y-21985103D02*
X4422444Y-22004150D01*
X4422444Y-22004150D02*
X4412920Y-22013674D01*
X4412920Y-22013674D02*
X4393872Y-22023198D01*
X4393872Y-22023198D02*
X4355777Y-22023198D01*
X4355777Y-22023198D02*
X4336729Y-22032722D01*
X4336729Y-22032722D02*
X4327206Y-22042246D01*
X4327206Y-22042246D02*
X4317682Y-22061293D01*
X4317682Y-22061293D02*
X4317682Y-22099389D01*
X4317682Y-22099389D02*
X4327206Y-22118436D01*
X4327206Y-22118436D02*
X4336729Y-22127960D01*
X4336729Y-22127960D02*
X4355777Y-22137484D01*
X4355777Y-22137484D02*
X4393872Y-22137484D01*
X4393872Y-22137484D02*
X4412920Y-22127960D01*
X4412920Y-22127960D02*
X4422444Y-22118436D01*
X4422444Y-22118436D02*
X4431968Y-22099389D01*
X4431968Y-22099389D02*
X4431968Y-22061293D01*
X4431968Y-22061293D02*
X4422444Y-22042246D01*
X4422444Y-22042246D02*
X4412920Y-22032722D01*
X4412920Y-22032722D02*
X4393872Y-22023198D01*
X4498634Y-21937484D02*
X4631968Y-21937484D01*
X4631968Y-21937484D02*
X4546253Y-22137484D01*
X4698634Y-21937484D02*
X4698634Y-21975579D01*
X4774825Y-21937484D02*
X4774825Y-21975579D01*
X5070063Y-22213674D02*
X5060539Y-22204150D01*
X5060539Y-22204150D02*
X5041491Y-22175579D01*
X5041491Y-22175579D02*
X5031968Y-22156531D01*
X5031968Y-22156531D02*
X5022444Y-22127960D01*
X5022444Y-22127960D02*
X5012920Y-22080341D01*
X5012920Y-22080341D02*
X5012920Y-22042246D01*
X5012920Y-22042246D02*
X5022444Y-21994627D01*
X5022444Y-21994627D02*
X5031968Y-21966055D01*
X5031968Y-21966055D02*
X5041491Y-21947008D01*
X5041491Y-21947008D02*
X5060539Y-21918436D01*
X5060539Y-21918436D02*
X5070063Y-21908912D01*
X5231968Y-22004150D02*
X5231968Y-22137484D01*
X5184349Y-21927960D02*
X5136730Y-22070817D01*
X5136730Y-22070817D02*
X5260539Y-22070817D01*
X5489111Y-22137484D02*
X5489111Y-21937484D01*
X5574825Y-22137484D02*
X5574825Y-22032722D01*
X5574825Y-22032722D02*
X5565301Y-22013674D01*
X5565301Y-22013674D02*
X5546253Y-22004150D01*
X5546253Y-22004150D02*
X5517682Y-22004150D01*
X5517682Y-22004150D02*
X5498634Y-22013674D01*
X5498634Y-22013674D02*
X5489111Y-22023198D01*
X5698634Y-22137484D02*
X5679587Y-22127960D01*
X5679587Y-22127960D02*
X5670063Y-22118436D01*
X5670063Y-22118436D02*
X5660539Y-22099389D01*
X5660539Y-22099389D02*
X5660539Y-22042246D01*
X5660539Y-22042246D02*
X5670063Y-22023198D01*
X5670063Y-22023198D02*
X5679587Y-22013674D01*
X5679587Y-22013674D02*
X5698634Y-22004150D01*
X5698634Y-22004150D02*
X5727206Y-22004150D01*
X5727206Y-22004150D02*
X5746253Y-22013674D01*
X5746253Y-22013674D02*
X5755777Y-22023198D01*
X5755777Y-22023198D02*
X5765301Y-22042246D01*
X5765301Y-22042246D02*
X5765301Y-22099389D01*
X5765301Y-22099389D02*
X5755777Y-22118436D01*
X5755777Y-22118436D02*
X5746253Y-22127960D01*
X5746253Y-22127960D02*
X5727206Y-22137484D01*
X5727206Y-22137484D02*
X5698634Y-22137484D01*
X5879587Y-22137484D02*
X5860539Y-22127960D01*
X5860539Y-22127960D02*
X5851015Y-22108912D01*
X5851015Y-22108912D02*
X5851015Y-21937484D01*
X6031968Y-22127960D02*
X6012920Y-22137484D01*
X6012920Y-22137484D02*
X5974825Y-22137484D01*
X5974825Y-22137484D02*
X5955777Y-22127960D01*
X5955777Y-22127960D02*
X5946253Y-22108912D01*
X5946253Y-22108912D02*
X5946253Y-22032722D01*
X5946253Y-22032722D02*
X5955777Y-22013674D01*
X5955777Y-22013674D02*
X5974825Y-22004150D01*
X5974825Y-22004150D02*
X6012920Y-22004150D01*
X6012920Y-22004150D02*
X6031968Y-22013674D01*
X6031968Y-22013674D02*
X6041491Y-22032722D01*
X6041491Y-22032722D02*
X6041491Y-22051770D01*
X6041491Y-22051770D02*
X5946253Y-22070817D01*
X6117682Y-22127960D02*
X6136730Y-22137484D01*
X6136730Y-22137484D02*
X6174825Y-22137484D01*
X6174825Y-22137484D02*
X6193872Y-22127960D01*
X6193872Y-22127960D02*
X6203396Y-22108912D01*
X6203396Y-22108912D02*
X6203396Y-22099389D01*
X6203396Y-22099389D02*
X6193872Y-22080341D01*
X6193872Y-22080341D02*
X6174825Y-22070817D01*
X6174825Y-22070817D02*
X6146253Y-22070817D01*
X6146253Y-22070817D02*
X6127206Y-22061293D01*
X6127206Y-22061293D02*
X6117682Y-22042246D01*
X6117682Y-22042246D02*
X6117682Y-22032722D01*
X6117682Y-22032722D02*
X6127206Y-22013674D01*
X6127206Y-22013674D02*
X6146253Y-22004150D01*
X6146253Y-22004150D02*
X6174825Y-22004150D01*
X6174825Y-22004150D02*
X6193872Y-22013674D01*
X6270063Y-22213674D02*
X6279587Y-22204150D01*
X6279587Y-22204150D02*
X6298634Y-22175579D01*
X6298634Y-22175579D02*
X6308158Y-22156531D01*
X6308158Y-22156531D02*
X6317682Y-22127960D01*
X6317682Y-22127960D02*
X6327206Y-22080341D01*
X6327206Y-22080341D02*
X6327206Y-22042246D01*
X6327206Y-22042246D02*
X6317682Y-21994627D01*
X6317682Y-21994627D02*
X6308158Y-21966055D01*
X6308158Y-21966055D02*
X6298634Y-21947008D01*
X6298634Y-21947008D02*
X6279587Y-21918436D01*
X6279587Y-21918436D02*
X6270063Y-21908912D01*
X1295000Y-22266000D02*
X1495000Y-22466000D01*
X1495000Y-22266000D02*
X1295000Y-22466000D01*
X1395000Y-22266000D02*
X1395000Y-22466000D01*
X1295000Y-22366000D02*
X1495000Y-22366000D01*
X1736729Y-22257484D02*
X1860539Y-22257484D01*
X1860539Y-22257484D02*
X1793872Y-22333674D01*
X1793872Y-22333674D02*
X1822443Y-22333674D01*
X1822443Y-22333674D02*
X1841491Y-22343198D01*
X1841491Y-22343198D02*
X1851015Y-22352722D01*
X1851015Y-22352722D02*
X1860539Y-22371769D01*
X1860539Y-22371769D02*
X1860539Y-22419388D01*
X1860539Y-22419388D02*
X1851015Y-22438436D01*
X1851015Y-22438436D02*
X1841491Y-22447960D01*
X1841491Y-22447960D02*
X1822443Y-22457484D01*
X1822443Y-22457484D02*
X1765301Y-22457484D01*
X1765301Y-22457484D02*
X1746253Y-22447960D01*
X1746253Y-22447960D02*
X1736729Y-22438436D01*
X1946253Y-22438436D02*
X1955777Y-22447960D01*
X1955777Y-22447960D02*
X1946253Y-22457484D01*
X1946253Y-22457484D02*
X1936729Y-22447960D01*
X1936729Y-22447960D02*
X1946253Y-22438436D01*
X1946253Y-22438436D02*
X1946253Y-22457484D01*
X2031967Y-22276531D02*
X2041491Y-22267008D01*
X2041491Y-22267008D02*
X2060539Y-22257484D01*
X2060539Y-22257484D02*
X2108158Y-22257484D01*
X2108158Y-22257484D02*
X2127205Y-22267008D01*
X2127205Y-22267008D02*
X2136729Y-22276531D01*
X2136729Y-22276531D02*
X2146253Y-22295579D01*
X2146253Y-22295579D02*
X2146253Y-22314627D01*
X2146253Y-22314627D02*
X2136729Y-22343198D01*
X2136729Y-22343198D02*
X2022443Y-22457484D01*
X2022443Y-22457484D02*
X2146253Y-22457484D01*
X2270063Y-22257484D02*
X2289110Y-22257484D01*
X2289110Y-22257484D02*
X2308158Y-22267008D01*
X2308158Y-22267008D02*
X2317682Y-22276531D01*
X2317682Y-22276531D02*
X2327205Y-22295579D01*
X2327205Y-22295579D02*
X2336729Y-22333674D01*
X2336729Y-22333674D02*
X2336729Y-22381293D01*
X2336729Y-22381293D02*
X2327205Y-22419388D01*
X2327205Y-22419388D02*
X2317682Y-22438436D01*
X2317682Y-22438436D02*
X2308158Y-22447960D01*
X2308158Y-22447960D02*
X2289110Y-22457484D01*
X2289110Y-22457484D02*
X2270063Y-22457484D01*
X2270063Y-22457484D02*
X2251015Y-22447960D01*
X2251015Y-22447960D02*
X2241491Y-22438436D01*
X2241491Y-22438436D02*
X2231967Y-22419388D01*
X2231967Y-22419388D02*
X2222444Y-22381293D01*
X2222444Y-22381293D02*
X2222444Y-22333674D01*
X2222444Y-22333674D02*
X2231967Y-22295579D01*
X2231967Y-22295579D02*
X2241491Y-22276531D01*
X2241491Y-22276531D02*
X2251015Y-22267008D01*
X2251015Y-22267008D02*
X2270063Y-22257484D01*
X2460539Y-22257484D02*
X2479586Y-22257484D01*
X2479586Y-22257484D02*
X2498634Y-22267008D01*
X2498634Y-22267008D02*
X2508158Y-22276531D01*
X2508158Y-22276531D02*
X2517682Y-22295579D01*
X2517682Y-22295579D02*
X2527205Y-22333674D01*
X2527205Y-22333674D02*
X2527205Y-22381293D01*
X2527205Y-22381293D02*
X2517682Y-22419388D01*
X2517682Y-22419388D02*
X2508158Y-22438436D01*
X2508158Y-22438436D02*
X2498634Y-22447960D01*
X2498634Y-22447960D02*
X2479586Y-22457484D01*
X2479586Y-22457484D02*
X2460539Y-22457484D01*
X2460539Y-22457484D02*
X2441491Y-22447960D01*
X2441491Y-22447960D02*
X2431967Y-22438436D01*
X2431967Y-22438436D02*
X2422444Y-22419388D01*
X2422444Y-22419388D02*
X2412920Y-22381293D01*
X2412920Y-22381293D02*
X2412920Y-22333674D01*
X2412920Y-22333674D02*
X2422444Y-22295579D01*
X2422444Y-22295579D02*
X2431967Y-22276531D01*
X2431967Y-22276531D02*
X2441491Y-22267008D01*
X2441491Y-22267008D02*
X2460539Y-22257484D01*
X2612920Y-22457484D02*
X2612920Y-22324150D01*
X2612920Y-22343198D02*
X2622444Y-22333674D01*
X2622444Y-22333674D02*
X2641491Y-22324150D01*
X2641491Y-22324150D02*
X2670063Y-22324150D01*
X2670063Y-22324150D02*
X2689110Y-22333674D01*
X2689110Y-22333674D02*
X2698634Y-22352722D01*
X2698634Y-22352722D02*
X2698634Y-22457484D01*
X2698634Y-22352722D02*
X2708158Y-22333674D01*
X2708158Y-22333674D02*
X2727205Y-22324150D01*
X2727205Y-22324150D02*
X2755777Y-22324150D01*
X2755777Y-22324150D02*
X2774825Y-22333674D01*
X2774825Y-22333674D02*
X2784348Y-22352722D01*
X2784348Y-22352722D02*
X2784348Y-22457484D01*
X2879586Y-22457484D02*
X2879586Y-22324150D01*
X2879586Y-22343198D02*
X2889110Y-22333674D01*
X2889110Y-22333674D02*
X2908158Y-22324150D01*
X2908158Y-22324150D02*
X2936729Y-22324150D01*
X2936729Y-22324150D02*
X2955777Y-22333674D01*
X2955777Y-22333674D02*
X2965301Y-22352722D01*
X2965301Y-22352722D02*
X2965301Y-22457484D01*
X2965301Y-22352722D02*
X2974824Y-22333674D01*
X2974824Y-22333674D02*
X2993872Y-22324150D01*
X2993872Y-22324150D02*
X3022443Y-22324150D01*
X3022443Y-22324150D02*
X3041491Y-22333674D01*
X3041491Y-22333674D02*
X3051015Y-22352722D01*
X3051015Y-22352722D02*
X3051015Y-22457484D01*
X3441491Y-22247960D02*
X3270063Y-22505103D01*
X3698634Y-22257484D02*
X3717682Y-22257484D01*
X3717682Y-22257484D02*
X3736729Y-22267008D01*
X3736729Y-22267008D02*
X3746253Y-22276531D01*
X3746253Y-22276531D02*
X3755777Y-22295579D01*
X3755777Y-22295579D02*
X3765301Y-22333674D01*
X3765301Y-22333674D02*
X3765301Y-22381293D01*
X3765301Y-22381293D02*
X3755777Y-22419388D01*
X3755777Y-22419388D02*
X3746253Y-22438436D01*
X3746253Y-22438436D02*
X3736729Y-22447960D01*
X3736729Y-22447960D02*
X3717682Y-22457484D01*
X3717682Y-22457484D02*
X3698634Y-22457484D01*
X3698634Y-22457484D02*
X3679586Y-22447960D01*
X3679586Y-22447960D02*
X3670063Y-22438436D01*
X3670063Y-22438436D02*
X3660539Y-22419388D01*
X3660539Y-22419388D02*
X3651015Y-22381293D01*
X3651015Y-22381293D02*
X3651015Y-22333674D01*
X3651015Y-22333674D02*
X3660539Y-22295579D01*
X3660539Y-22295579D02*
X3670063Y-22276531D01*
X3670063Y-22276531D02*
X3679586Y-22267008D01*
X3679586Y-22267008D02*
X3698634Y-22257484D01*
X3851015Y-22438436D02*
X3860539Y-22447960D01*
X3860539Y-22447960D02*
X3851015Y-22457484D01*
X3851015Y-22457484D02*
X3841491Y-22447960D01*
X3841491Y-22447960D02*
X3851015Y-22438436D01*
X3851015Y-22438436D02*
X3851015Y-22457484D01*
X4051015Y-22457484D02*
X3936729Y-22457484D01*
X3993872Y-22457484D02*
X3993872Y-22257484D01*
X3993872Y-22257484D02*
X3974825Y-22286055D01*
X3974825Y-22286055D02*
X3955777Y-22305103D01*
X3955777Y-22305103D02*
X3936729Y-22314627D01*
X4127206Y-22276531D02*
X4136729Y-22267008D01*
X4136729Y-22267008D02*
X4155777Y-22257484D01*
X4155777Y-22257484D02*
X4203396Y-22257484D01*
X4203396Y-22257484D02*
X4222444Y-22267008D01*
X4222444Y-22267008D02*
X4231968Y-22276531D01*
X4231968Y-22276531D02*
X4241491Y-22295579D01*
X4241491Y-22295579D02*
X4241491Y-22314627D01*
X4241491Y-22314627D02*
X4231968Y-22343198D01*
X4231968Y-22343198D02*
X4117682Y-22457484D01*
X4117682Y-22457484D02*
X4241491Y-22457484D01*
X4412920Y-22257484D02*
X4374825Y-22257484D01*
X4374825Y-22257484D02*
X4355777Y-22267008D01*
X4355777Y-22267008D02*
X4346253Y-22276531D01*
X4346253Y-22276531D02*
X4327206Y-22305103D01*
X4327206Y-22305103D02*
X4317682Y-22343198D01*
X4317682Y-22343198D02*
X4317682Y-22419388D01*
X4317682Y-22419388D02*
X4327206Y-22438436D01*
X4327206Y-22438436D02*
X4336729Y-22447960D01*
X4336729Y-22447960D02*
X4355777Y-22457484D01*
X4355777Y-22457484D02*
X4393872Y-22457484D01*
X4393872Y-22457484D02*
X4412920Y-22447960D01*
X4412920Y-22447960D02*
X4422444Y-22438436D01*
X4422444Y-22438436D02*
X4431968Y-22419388D01*
X4431968Y-22419388D02*
X4431968Y-22371769D01*
X4431968Y-22371769D02*
X4422444Y-22352722D01*
X4422444Y-22352722D02*
X4412920Y-22343198D01*
X4412920Y-22343198D02*
X4393872Y-22333674D01*
X4393872Y-22333674D02*
X4355777Y-22333674D01*
X4355777Y-22333674D02*
X4336729Y-22343198D01*
X4336729Y-22343198D02*
X4327206Y-22352722D01*
X4327206Y-22352722D02*
X4317682Y-22371769D01*
X4555777Y-22257484D02*
X4574825Y-22257484D01*
X4574825Y-22257484D02*
X4593872Y-22267008D01*
X4593872Y-22267008D02*
X4603396Y-22276531D01*
X4603396Y-22276531D02*
X4612920Y-22295579D01*
X4612920Y-22295579D02*
X4622444Y-22333674D01*
X4622444Y-22333674D02*
X4622444Y-22381293D01*
X4622444Y-22381293D02*
X4612920Y-22419388D01*
X4612920Y-22419388D02*
X4603396Y-22438436D01*
X4603396Y-22438436D02*
X4593872Y-22447960D01*
X4593872Y-22447960D02*
X4574825Y-22457484D01*
X4574825Y-22457484D02*
X4555777Y-22457484D01*
X4555777Y-22457484D02*
X4536729Y-22447960D01*
X4536729Y-22447960D02*
X4527206Y-22438436D01*
X4527206Y-22438436D02*
X4517682Y-22419388D01*
X4517682Y-22419388D02*
X4508158Y-22381293D01*
X4508158Y-22381293D02*
X4508158Y-22333674D01*
X4508158Y-22333674D02*
X4517682Y-22295579D01*
X4517682Y-22295579D02*
X4527206Y-22276531D01*
X4527206Y-22276531D02*
X4536729Y-22267008D01*
X4536729Y-22267008D02*
X4555777Y-22257484D01*
X4698634Y-22257484D02*
X4698634Y-22295579D01*
X4774825Y-22257484D02*
X4774825Y-22295579D01*
X5070063Y-22533674D02*
X5060539Y-22524150D01*
X5060539Y-22524150D02*
X5041491Y-22495579D01*
X5041491Y-22495579D02*
X5031968Y-22476531D01*
X5031968Y-22476531D02*
X5022444Y-22447960D01*
X5022444Y-22447960D02*
X5012920Y-22400341D01*
X5012920Y-22400341D02*
X5012920Y-22362246D01*
X5012920Y-22362246D02*
X5022444Y-22314627D01*
X5022444Y-22314627D02*
X5031968Y-22286055D01*
X5031968Y-22286055D02*
X5041491Y-22267008D01*
X5041491Y-22267008D02*
X5060539Y-22238436D01*
X5060539Y-22238436D02*
X5070063Y-22228912D01*
X5231968Y-22257484D02*
X5193872Y-22257484D01*
X5193872Y-22257484D02*
X5174825Y-22267008D01*
X5174825Y-22267008D02*
X5165301Y-22276531D01*
X5165301Y-22276531D02*
X5146253Y-22305103D01*
X5146253Y-22305103D02*
X5136730Y-22343198D01*
X5136730Y-22343198D02*
X5136730Y-22419388D01*
X5136730Y-22419388D02*
X5146253Y-22438436D01*
X5146253Y-22438436D02*
X5155777Y-22447960D01*
X5155777Y-22447960D02*
X5174825Y-22457484D01*
X5174825Y-22457484D02*
X5212920Y-22457484D01*
X5212920Y-22457484D02*
X5231968Y-22447960D01*
X5231968Y-22447960D02*
X5241491Y-22438436D01*
X5241491Y-22438436D02*
X5251015Y-22419388D01*
X5251015Y-22419388D02*
X5251015Y-22371769D01*
X5251015Y-22371769D02*
X5241491Y-22352722D01*
X5241491Y-22352722D02*
X5231968Y-22343198D01*
X5231968Y-22343198D02*
X5212920Y-22333674D01*
X5212920Y-22333674D02*
X5174825Y-22333674D01*
X5174825Y-22333674D02*
X5155777Y-22343198D01*
X5155777Y-22343198D02*
X5146253Y-22352722D01*
X5146253Y-22352722D02*
X5136730Y-22371769D01*
X5489111Y-22457484D02*
X5489111Y-22257484D01*
X5574825Y-22457484D02*
X5574825Y-22352722D01*
X5574825Y-22352722D02*
X5565301Y-22333674D01*
X5565301Y-22333674D02*
X5546253Y-22324150D01*
X5546253Y-22324150D02*
X5517682Y-22324150D01*
X5517682Y-22324150D02*
X5498634Y-22333674D01*
X5498634Y-22333674D02*
X5489111Y-22343198D01*
X5698634Y-22457484D02*
X5679587Y-22447960D01*
X5679587Y-22447960D02*
X5670063Y-22438436D01*
X5670063Y-22438436D02*
X5660539Y-22419388D01*
X5660539Y-22419388D02*
X5660539Y-22362246D01*
X5660539Y-22362246D02*
X5670063Y-22343198D01*
X5670063Y-22343198D02*
X5679587Y-22333674D01*
X5679587Y-22333674D02*
X5698634Y-22324150D01*
X5698634Y-22324150D02*
X5727206Y-22324150D01*
X5727206Y-22324150D02*
X5746253Y-22333674D01*
X5746253Y-22333674D02*
X5755777Y-22343198D01*
X5755777Y-22343198D02*
X5765301Y-22362246D01*
X5765301Y-22362246D02*
X5765301Y-22419388D01*
X5765301Y-22419388D02*
X5755777Y-22438436D01*
X5755777Y-22438436D02*
X5746253Y-22447960D01*
X5746253Y-22447960D02*
X5727206Y-22457484D01*
X5727206Y-22457484D02*
X5698634Y-22457484D01*
X5879587Y-22457484D02*
X5860539Y-22447960D01*
X5860539Y-22447960D02*
X5851015Y-22428912D01*
X5851015Y-22428912D02*
X5851015Y-22257484D01*
X6031968Y-22447960D02*
X6012920Y-22457484D01*
X6012920Y-22457484D02*
X5974825Y-22457484D01*
X5974825Y-22457484D02*
X5955777Y-22447960D01*
X5955777Y-22447960D02*
X5946253Y-22428912D01*
X5946253Y-22428912D02*
X5946253Y-22352722D01*
X5946253Y-22352722D02*
X5955777Y-22333674D01*
X5955777Y-22333674D02*
X5974825Y-22324150D01*
X5974825Y-22324150D02*
X6012920Y-22324150D01*
X6012920Y-22324150D02*
X6031968Y-22333674D01*
X6031968Y-22333674D02*
X6041491Y-22352722D01*
X6041491Y-22352722D02*
X6041491Y-22371769D01*
X6041491Y-22371769D02*
X5946253Y-22390817D01*
X6117682Y-22447960D02*
X6136730Y-22457484D01*
X6136730Y-22457484D02*
X6174825Y-22457484D01*
X6174825Y-22457484D02*
X6193872Y-22447960D01*
X6193872Y-22447960D02*
X6203396Y-22428912D01*
X6203396Y-22428912D02*
X6203396Y-22419388D01*
X6203396Y-22419388D02*
X6193872Y-22400341D01*
X6193872Y-22400341D02*
X6174825Y-22390817D01*
X6174825Y-22390817D02*
X6146253Y-22390817D01*
X6146253Y-22390817D02*
X6127206Y-22381293D01*
X6127206Y-22381293D02*
X6117682Y-22362246D01*
X6117682Y-22362246D02*
X6117682Y-22352722D01*
X6117682Y-22352722D02*
X6127206Y-22333674D01*
X6127206Y-22333674D02*
X6146253Y-22324150D01*
X6146253Y-22324150D02*
X6174825Y-22324150D01*
X6174825Y-22324150D02*
X6193872Y-22333674D01*
X6270063Y-22533674D02*
X6279587Y-22524150D01*
X6279587Y-22524150D02*
X6298634Y-22495579D01*
X6298634Y-22495579D02*
X6308158Y-22476531D01*
X6308158Y-22476531D02*
X6317682Y-22447960D01*
X6317682Y-22447960D02*
X6327206Y-22400341D01*
X6327206Y-22400341D02*
X6327206Y-22362246D01*
X6327206Y-22362246D02*
X6317682Y-22314627D01*
X6317682Y-22314627D02*
X6308158Y-22286055D01*
X6308158Y-22286055D02*
X6298634Y-22267008D01*
X6298634Y-22267008D02*
X6279587Y-22238436D01*
X6279587Y-22238436D02*
X6270063Y-22228912D01*
M02*
