%TF.GenerationSoftware,KiCad,Pcbnew,7.0.5*%
%TF.CreationDate,2023-07-03T18:50:33+02:00*%
%TF.ProjectId,Master_Board,4d617374-6572-45f4-926f-6172642e6b69,rev?*%
%TF.SameCoordinates,Original*%
%TF.FileFunction,Legend,Bot*%
%TF.FilePolarity,Positive*%
%FSLAX46Y46*%
G04 Gerber Fmt 4.6, Leading zero omitted, Abs format (unit mm)*
G04 Created by KiCad (PCBNEW 7.0.5) date 2023-07-03 18:50:33*
%MOMM*%
%LPD*%
G01*
G04 APERTURE LIST*
%ADD10C,0.150000*%
%ADD11C,0.120000*%
G04 APERTURE END LIST*
D10*
%TO.C,J1*%
X94063333Y-55984819D02*
X94063333Y-56699104D01*
X94063333Y-56699104D02*
X94110952Y-56841961D01*
X94110952Y-56841961D02*
X94206190Y-56937200D01*
X94206190Y-56937200D02*
X94349047Y-56984819D01*
X94349047Y-56984819D02*
X94444285Y-56984819D01*
X93063333Y-56984819D02*
X93634761Y-56984819D01*
X93349047Y-56984819D02*
X93349047Y-55984819D01*
X93349047Y-55984819D02*
X93444285Y-56127676D01*
X93444285Y-56127676D02*
X93539523Y-56222914D01*
X93539523Y-56222914D02*
X93634761Y-56270533D01*
D11*
X96040000Y-121640000D02*
X96040000Y-128140000D01*
X98240000Y-121640000D02*
X98240000Y-63920000D01*
X89220000Y-121640000D02*
X98240000Y-121640000D01*
X96930000Y-94830000D02*
X98240000Y-94830000D01*
X99630000Y-74500000D02*
X99630000Y-75500000D01*
X98630000Y-75000000D02*
X99630000Y-74500000D01*
X96930000Y-71080000D02*
X90530000Y-71080000D01*
X99630000Y-75500000D02*
X98630000Y-75000000D01*
X96040000Y-63920000D02*
X96040000Y-57420000D01*
X96930000Y-114480000D02*
X96930000Y-94830000D01*
X91420000Y-57420000D02*
X91420000Y-63920000D01*
X96040000Y-57420000D02*
X91420000Y-57420000D01*
X98240000Y-63920000D02*
X89220000Y-63920000D01*
X98240000Y-90730000D02*
X96930000Y-90730000D01*
X90530000Y-71080000D02*
X90530000Y-114480000D01*
X96930000Y-94830000D02*
X96930000Y-94830000D01*
X96930000Y-90730000D02*
X96930000Y-71080000D01*
X90530000Y-114480000D02*
X96930000Y-114480000D01*
X89220000Y-63920000D02*
X89220000Y-121640000D01*
X96040000Y-128140000D02*
X91420000Y-128140000D01*
X91420000Y-128140000D02*
X91420000Y-121640000D01*
%TD*%
M02*
