M48
; DRILL file {KiCad 7.0.5} date Mon Jul  3 18:50:36 2023
; FORMAT={-:-/ absolute / inch / decimal}
; #@! TF.CreationDate,2023-07-03T18:50:36+02:00
; #@! TF.GenerationSoftware,Kicad,Pcbnew,7.0.5
; #@! TF.FileFunction,Plated,1,2,PTH
FMAT,2
INCH
; #@! TA.AperFunction,Plated,PTH,ViaDrill
T1C0.0157
; #@! TA.AperFunction,Plated,PTH,ComponentDrill
T2C0.0394
; #@! TA.AperFunction,Plated,PTH,ComponentDrill
T3C0.0433
; #@! TA.AperFunction,Plated,PTH,ComponentDrill
T4C0.0472
; #@! TA.AperFunction,Plated,PTH,ComponentDrill
T5C0.0591
; #@! TA.AperFunction,Plated,PTH,ComponentDrill
T6C0.0787
; #@! TA.AperFunction,Plated,PTH,ComponentDrill
T7C0.1260
%
G90
G05
T1
X1.5748Y-3.6614
X1.6535Y-5.4331
X1.727Y-5.764
X1.877Y-4.7362
X2.23Y-3.955
X2.804Y-4.7539
X2.933Y-4.0275
X3.4579Y-4.7362
X3.4635Y-2.953
X3.4865Y-4.7633
X3.487Y-3.862
X3.492Y-1.527
X3.492Y-2.311
X3.495Y-4.713
X3.507Y-3.275
X3.522Y-3.353
X3.542Y-3.155
X3.5444Y-3.1157
X3.563Y-3.052
X3.8705Y-3.469
X3.872Y-5.779
X3.899Y-5.748
T2
X3.6402Y-2.9528
X3.6402Y-3.0528
X3.6402Y-3.1528
X3.6402Y-3.2528
X3.6402Y-3.3528
X3.6402Y-3.4528
X3.6402Y-3.5528
X3.6402Y-3.6528
X3.6402Y-3.7528
X3.6402Y-3.8528
X3.6402Y-3.9528
X3.6402Y-4.0528
X3.6402Y-4.1528
X3.6402Y-4.2528
X3.6402Y-4.3528
X3.7402Y-2.9528
X3.7402Y-3.0528
X3.7402Y-3.1528
X3.7402Y-3.2528
X3.7402Y-3.3528
X3.7402Y-3.4528
X3.7402Y-3.5528
X3.7402Y-3.6528
X3.7402Y-3.7528
X3.7402Y-3.8528
X3.7402Y-3.9528
X3.7402Y-4.0528
X3.7402Y-4.1528
X3.7402Y-4.2528
X3.7402Y-4.3528
T3
X1.0567Y-1.2205
X1.0567Y-2.0079
X1.0567Y-2.9921
X1.0567Y-3.7795
X1.0567Y-4.7638
X1.0567Y-5.5512
X1.4567Y-1.2205
X1.4567Y-2.0079
X1.4567Y-2.9921
X1.4567Y-3.7795
X1.4567Y-4.7638
X1.4567Y-5.5512
X2.4346Y-6.3386
X2.4378Y-7.126
X2.5528Y-5.5512
X2.8346Y-6.3386
X2.8378Y-7.126
X2.9528Y-5.5512
T4
X2.1406Y-0.4429
X2.2882Y-0.4429
X2.2882Y-5.4626
X2.4362Y-0.4429
X2.4362Y-5.4626
X2.5839Y-0.4429
X2.928Y-0.4429
X3.0756Y-0.4429
X3.0756Y-5.4626
X3.2236Y-0.4429
X3.2236Y-5.4626
X3.3713Y-0.4429
T5
X1.228Y-1.4748
X1.228Y-2.2622
X1.228Y-3.2465
X1.228Y-4.0339
X1.228Y-5.0181
X1.228Y-5.8055
X1.478Y-1.3748
X1.478Y-2.1622
X1.478Y-3.1465
X1.478Y-3.9339
X1.478Y-4.9181
X1.478Y-5.7055
X2.6028Y-5.8055
X2.6059Y-6.5929
X2.6059Y-7.3803
X2.8528Y-5.7055
X2.8559Y-6.4929
X2.8559Y-7.2803
T6
X2.3622Y-1.3287
X2.3622Y-4.5768
X3.1496Y-1.3287
X3.1496Y-4.5768
T7
X0.7874Y-0.7874
X0.7874Y-5.315
X0.7874Y-7.4803
X3.7402Y-0.7874
X3.7402Y-5.315
X3.7402Y-7.4803
T0
M30
