%TF.GenerationSoftware,KiCad,Pcbnew,7.0.5*%
%TF.CreationDate,2023-07-03T18:50:33+02:00*%
%TF.ProjectId,Master_Board,4d617374-6572-45f4-926f-6172642e6b69,rev?*%
%TF.SameCoordinates,Original*%
%TF.FileFunction,Soldermask,Top*%
%TF.FilePolarity,Negative*%
%FSLAX46Y46*%
G04 Gerber Fmt 4.6, Leading zero omitted, Abs format (unit mm)*
G04 Created by KiCad (PCBNEW 7.0.5) date 2023-07-03 18:50:33*
%MOMM*%
%LPD*%
G01*
G04 APERTURE LIST*
G04 Aperture macros list*
%AMRoundRect*
0 Rectangle with rounded corners*
0 $1 Rounding radius*
0 $2 $3 $4 $5 $6 $7 $8 $9 X,Y pos of 4 corners*
0 Add a 4 corners polygon primitive as box body*
4,1,4,$2,$3,$4,$5,$6,$7,$8,$9,$2,$3,0*
0 Add four circle primitives for the rounded corners*
1,1,$1+$1,$2,$3*
1,1,$1+$1,$4,$5*
1,1,$1+$1,$6,$7*
1,1,$1+$1,$8,$9*
0 Add four rect primitives between the rounded corners*
20,1,$1+$1,$2,$3,$4,$5,0*
20,1,$1+$1,$4,$5,$6,$7,0*
20,1,$1+$1,$6,$7,$8,$9,0*
20,1,$1+$1,$8,$9,$2,$3,0*%
G04 Aperture macros list end*
%ADD10C,4.000000*%
%ADD11C,1.750000*%
%ADD12C,1.550000*%
%ADD13C,3.048000*%
%ADD14C,3.987800*%
%ADD15R,2.200000X2.200000*%
%ADD16O,2.200000X2.200000*%
%ADD17C,2.200000*%
%ADD18C,5.600000*%
%ADD19RoundRect,0.250000X0.600000X0.600000X-0.600000X0.600000X-0.600000X-0.600000X0.600000X-0.600000X0*%
%ADD20C,1.700000*%
G04 APERTURE END LIST*
D10*
%TO.C,SW2*%
X70000000Y-170000000D03*
D11*
X64920000Y-170000000D03*
D12*
X72540000Y-164920000D03*
X66190000Y-167460000D03*
D11*
X75080000Y-170000000D03*
%TD*%
D13*
%TO.C,REF\u002A\u002A*%
X81938000Y-183015000D03*
X58062000Y-183015000D03*
D14*
X81938000Y-198225000D03*
X58062000Y-198225000D03*
%TD*%
D10*
%TO.C,SW7*%
X35000000Y-85000000D03*
D11*
X29920000Y-85000000D03*
D12*
X31190000Y-82460000D03*
X37540000Y-79920000D03*
D11*
X40080000Y-85000000D03*
%TD*%
D10*
%TO.C,SW5*%
X35000000Y-40000000D03*
D12*
X37540000Y-34920000D03*
X31190000Y-37460000D03*
D11*
X40080000Y-40000000D03*
X29920000Y-40000000D03*
%TD*%
D15*
%TO.C,D10*%
X26840000Y-141000000D03*
D16*
X37000000Y-141000000D03*
%TD*%
D17*
%TO.C,RV2*%
X78120000Y-11250000D03*
X74370000Y-11250000D03*
X78120000Y-138750000D03*
X81880000Y-11250000D03*
X85630000Y-11250000D03*
X81880000Y-138750000D03*
D10*
X80000000Y-33750000D03*
X80000000Y-116250000D03*
%TD*%
D12*
%TO.C,SW8*%
X37540000Y-99920000D03*
D11*
X29920000Y-105000000D03*
D12*
X31190000Y-102460000D03*
D10*
X35000000Y-105000000D03*
D11*
X40080000Y-105000000D03*
%TD*%
D18*
%TO.C,H5*%
X95000000Y-190000000D03*
%TD*%
D15*
%TO.C,D3*%
X61920000Y-181000000D03*
D16*
X72080000Y-181000000D03*
%TD*%
D12*
%TO.C,SW10*%
X31190000Y-147460000D03*
D11*
X29920000Y-150000000D03*
D10*
X35000000Y-150000000D03*
D12*
X37540000Y-144920000D03*
D11*
X40080000Y-150000000D03*
%TD*%
D13*
%TO.C,REF\u002A\u002A*%
X81858000Y-143015000D03*
X57982000Y-143015000D03*
D14*
X81858000Y-158225000D03*
X57982000Y-158225000D03*
%TD*%
D15*
%TO.C,D8*%
X26840000Y-96000000D03*
D16*
X37000000Y-96000000D03*
%TD*%
D11*
%TO.C,SW6*%
X40080000Y-60000000D03*
D10*
X35000000Y-60000000D03*
D12*
X31190000Y-57460000D03*
X37540000Y-54920000D03*
D11*
X29920000Y-60000000D03*
%TD*%
D18*
%TO.C,H3*%
X95000000Y-135000000D03*
%TD*%
D10*
%TO.C,SW1*%
X69920000Y-150000000D03*
D11*
X64840000Y-150000000D03*
X75000000Y-150000000D03*
D12*
X72460000Y-144920000D03*
X66110000Y-147460000D03*
%TD*%
D13*
%TO.C,REF\u002A\u002A*%
X81938000Y-163015000D03*
X58062000Y-163015000D03*
D14*
X81938000Y-178225000D03*
X58062000Y-178225000D03*
%TD*%
D15*
%TO.C,D1*%
X64840000Y-141000000D03*
D16*
X75000000Y-141000000D03*
%TD*%
D12*
%TO.C,SW9*%
X37540000Y-124920000D03*
D11*
X40080000Y-130000000D03*
X29920000Y-130000000D03*
D10*
X35000000Y-130000000D03*
D12*
X31190000Y-127460000D03*
%TD*%
D17*
%TO.C,RV1*%
X58120000Y-11250000D03*
X54370000Y-11250000D03*
X58120000Y-138750000D03*
X61880000Y-11250000D03*
X65630000Y-11250000D03*
X61880000Y-138750000D03*
D10*
X60000000Y-116250000D03*
X60000000Y-33750000D03*
%TD*%
D18*
%TO.C,H2*%
X95000000Y-20000000D03*
%TD*%
%TO.C,H1*%
X20000000Y-135000000D03*
%TD*%
%TO.C,H4*%
X20000000Y-20000000D03*
%TD*%
D15*
%TO.C,D7*%
X26840000Y-76000000D03*
D16*
X37000000Y-76000000D03*
%TD*%
D18*
%TO.C,H6*%
X20000000Y-190000000D03*
%TD*%
D15*
%TO.C,D2*%
X61840000Y-161000000D03*
D16*
X72000000Y-161000000D03*
%TD*%
D15*
%TO.C,D9*%
X26840000Y-121000000D03*
D16*
X37000000Y-121000000D03*
%TD*%
D15*
%TO.C,D6*%
X26840000Y-51000000D03*
D16*
X37000000Y-51000000D03*
%TD*%
D11*
%TO.C,SW3*%
X75080000Y-190000000D03*
D12*
X72540000Y-184920000D03*
D11*
X64920000Y-190000000D03*
D12*
X66190000Y-187460000D03*
D10*
X70000000Y-190000000D03*
%TD*%
D15*
%TO.C,D5*%
X26840000Y-31000000D03*
D16*
X37000000Y-31000000D03*
%TD*%
D19*
%TO.C,J1*%
X95000000Y-75000000D03*
D20*
X92460000Y-75000000D03*
X95000000Y-77540000D03*
X92460000Y-77540000D03*
X95000000Y-80080000D03*
X92460000Y-80080000D03*
X95000000Y-82620000D03*
X92460000Y-82620000D03*
X95000000Y-85160000D03*
X92460000Y-85160000D03*
X95000000Y-87700000D03*
X92460000Y-87700000D03*
X95000000Y-90240000D03*
X92460000Y-90240000D03*
X95000000Y-92780000D03*
X92460000Y-92780000D03*
X95000000Y-95320000D03*
X92460000Y-95320000D03*
X95000000Y-97860000D03*
X92460000Y-97860000D03*
X95000000Y-100400000D03*
X92460000Y-100400000D03*
X95000000Y-102940000D03*
X92460000Y-102940000D03*
X95000000Y-105480000D03*
X92460000Y-105480000D03*
X95000000Y-108020000D03*
X92460000Y-108020000D03*
X95000000Y-110560000D03*
X92460000Y-110560000D03*
%TD*%
M02*
