M48
; DRILL file {KiCad (6.0.4)} date Mon Jan 30 21:52:42 2023
; FORMAT={-:-/ absolute / inch / decimal}
; #@! TF.CreationDate,2023-01-30T21:52:42+01:00
; #@! TF.GenerationSoftware,Kicad,Pcbnew,(6.0.4)
; #@! TF.FileFunction,Plated,1,2,PTH
FMAT,2
INCH
; #@! TA.AperFunction,Plated,PTH,ViaDrill
T1C0.0157
; #@! TA.AperFunction,Plated,PTH,ComponentDrill
T2C0.0394
; #@! TA.AperFunction,Plated,PTH,ComponentDrill
T3C0.0433
; #@! TA.AperFunction,Plated,PTH,ComponentDrill
T4C0.0472
; #@! TA.AperFunction,Plated,PTH,ComponentDrill
T5C0.0591
; #@! TA.AperFunction,Plated,PTH,ComponentDrill
T6C0.0787
; #@! TA.AperFunction,Plated,PTH,ComponentDrill
T7C0.1260
%
G90
G05
T1
X5.3194Y-3.8819
X5.3371Y-3.9764
X5.3543Y-4.0787
X5.3725Y-4.1811
X5.437Y-4.2795
X5.8809Y-3.2203
X5.8987Y-3.2795
X6.2096Y-3.1772
X6.2205Y-2.9331
X6.2667Y-3.1299
T2
X6.0024Y-2.8795
X6.0024Y-2.9795
X6.0024Y-3.0795
X6.0024Y-3.1795
X6.0024Y-3.2795
X6.0024Y-3.3795
X6.0024Y-3.4795
X6.0024Y-3.5795
X6.0024Y-3.6795
X6.0024Y-3.7795
X6.0024Y-3.8795
X6.0024Y-3.9795
X6.0024Y-4.0795
X6.0024Y-4.1795
X6.0024Y-4.2795
X6.1024Y-2.8795
X6.1024Y-2.9795
X6.1024Y-3.0795
X6.1024Y-3.1795
X6.1024Y-3.2795
X6.1024Y-3.3795
X6.1024Y-3.4795
X6.1024Y-3.5795
X6.1024Y-3.6795
X6.1024Y-3.7795
X6.1024Y-3.8795
X6.1024Y-3.9795
X6.1024Y-4.0795
X6.1024Y-4.1795
X6.1024Y-4.2795
T3
X2.0441Y-1.1417
X2.0441Y-1.9291
X2.0441Y-7.0866
X2.1228Y-6.6535
X2.4441Y-1.1417
X2.4441Y-1.9291
X2.4441Y-7.0866
X2.5228Y-6.6535
X2.8315Y-1.1417
X2.8315Y-6.6535
X2.8315Y-7.0866
X2.8346Y-1.9291
X3.2315Y-1.1417
X3.2315Y-6.6535
X3.2315Y-7.0866
X3.2346Y-1.9291
X3.6189Y-1.1417
X3.6189Y-1.9291
X3.6189Y-6.6535
X3.6189Y-7.0866
X4.0189Y-1.1417
X4.0189Y-1.9291
X4.0189Y-6.6535
X4.0189Y-7.0866
X4.4063Y-1.1417
X4.4063Y-1.9291
X4.4063Y-6.6535
X4.4063Y-7.0866
X4.8063Y-1.1417
X4.8063Y-1.9291
X4.8063Y-6.6535
X4.8063Y-7.0866
X5.1937Y-1.9291
X5.1937Y-6.6535
X5.1937Y-7.0866
X5.1969Y-1.1417
X5.5937Y-1.9291
X5.5937Y-6.6535
X5.5937Y-7.0866
X5.5969Y-1.1417
T4
X2.1406Y-2.2146
X2.2882Y-2.2146
X2.2882Y-5.6594
X2.4362Y-2.2146
X2.4362Y-5.6594
X2.5839Y-2.2146
X2.928Y-2.2146
X3.0756Y-2.2146
X3.0756Y-5.6594
X3.2236Y-2.2146
X3.2236Y-5.6594
X3.3713Y-2.2146
X3.7154Y-2.2146
X3.863Y-2.2146
X3.863Y-5.6594
X4.011Y-2.2146
X4.011Y-5.6594
X4.1587Y-2.2146
X4.5028Y-2.2146
X4.6504Y-2.2146
X4.6504Y-5.6594
X4.7984Y-2.2146
X4.7984Y-5.6594
X4.9461Y-2.2146
X5.2902Y-2.2146
X5.4378Y-2.2146
X5.4378Y-5.6594
X5.5858Y-2.2146
X5.5858Y-5.6594
X5.7335Y-2.2146
T5
X2.2122Y-0.6874
X2.2122Y-1.4748
X2.2122Y-6.1992
X2.2122Y-7.3803
X2.4622Y-0.5874
X2.4622Y-1.3748
X2.4622Y-6.0992
X2.4622Y-7.2803
X2.9996Y-0.6874
X2.9996Y-1.4748
X2.9996Y-6.1992
X2.9996Y-7.3803
X3.2496Y-0.5874
X3.2496Y-1.3748
X3.2496Y-6.0992
X3.2496Y-7.2803
X3.787Y-0.6874
X3.787Y-1.4748
X3.787Y-6.1992
X3.787Y-7.3803
X4.037Y-0.5874
X4.037Y-1.3748
X4.037Y-6.0992
X4.037Y-7.2803
X4.5744Y-0.6874
X4.5744Y-1.4748
X4.5744Y-6.1992
X4.5744Y-7.3803
X4.8244Y-0.5874
X4.8244Y-1.3748
X4.8244Y-6.0992
X4.8244Y-7.2803
X5.3618Y-0.6874
X5.3618Y-1.4748
X5.3618Y-6.1992
X5.3618Y-7.3803
X5.6118Y-0.5874
X5.6118Y-1.3748
X5.6118Y-6.0992
X5.6118Y-7.2803
T6
X2.3622Y-2.9193
X2.3622Y-4.9547
X3.1496Y-2.9193
X3.1496Y-4.9547
X3.937Y-2.9193
X3.937Y-4.9547
X4.7244Y-2.9193
X4.7244Y-4.9547
X5.5118Y-2.9193
X5.5118Y-4.9547
T7
X1.7717Y-0.7874
X1.7717Y-5.315
X1.7717Y-7.4803
X6.1024Y-0.7874
X6.1024Y-5.315
X6.1024Y-7.4803
T0
M30
