M48
; DRILL file {KiCad (6.0.4)} date Mon Jan 30 21:52:42 2023
; FORMAT={-:-/ absolute / inch / decimal}
; #@! TF.CreationDate,2023-01-30T21:52:42+01:00
; #@! TF.GenerationSoftware,Kicad,Pcbnew,(6.0.4)
; #@! TF.FileFunction,NonPlated,1,2,NPTH
FMAT,2
INCH
; #@! TA.AperFunction,NonPlated,NPTH,ComponentDrill
T1C0.0689
; #@! TA.AperFunction,NonPlated,NPTH,ComponentDrill
T2C0.1575
%
G90
G05
T1
X2.1622Y-0.7874
X2.1622Y-1.5748
X2.1622Y-6.2992
X2.1622Y-7.4803
X2.5622Y-0.7874
X2.5622Y-1.5748
X2.5622Y-6.2992
X2.5622Y-7.4803
X2.9496Y-0.7874
X2.9496Y-1.5748
X2.9496Y-6.2992
X2.9496Y-7.4803
X3.3496Y-0.7874
X3.3496Y-1.5748
X3.3496Y-6.2992
X3.3496Y-7.4803
X3.737Y-0.7874
X3.737Y-1.5748
X3.737Y-6.2992
X3.737Y-7.4803
X4.137Y-0.7874
X4.137Y-1.5748
X4.137Y-6.2992
X4.137Y-7.4803
X4.5244Y-0.7874
X4.5244Y-1.5748
X4.5244Y-6.2992
X4.5244Y-7.4803
X4.9244Y-0.7874
X4.9244Y-1.5748
X4.9244Y-6.2992
X4.9244Y-7.4803
X5.3118Y-0.7874
X5.3118Y-1.5748
X5.3118Y-6.2992
X5.3118Y-7.4803
X5.7118Y-0.7874
X5.7118Y-1.5748
X5.7118Y-6.2992
X5.7118Y-7.4803
T2
X2.3622Y-0.7874
X2.3622Y-1.5748
X2.3622Y-6.2992
X2.3622Y-7.4803
X3.1496Y-0.7874
X3.1496Y-1.5748
X3.1496Y-6.2992
X3.1496Y-7.4803
X3.937Y-0.7874
X3.937Y-1.5748
X3.937Y-6.2992
X3.937Y-7.4803
X4.7244Y-0.7874
X4.7244Y-1.5748
X4.7244Y-6.2992
X4.7244Y-7.4803
X5.5118Y-0.7874
X5.5118Y-1.5748
X5.5118Y-6.2992
X5.5118Y-7.4803
T0
M30
