%TF.GenerationSoftware,KiCad,Pcbnew,(6.0.4)*%
%TF.CreationDate,2023-01-30T21:52:44+01:00*%
%TF.ProjectId,Fader_Board,46616465-725f-4426-9f61-72642e6b6963,rev?*%
%TF.SameCoordinates,Original*%
%TF.FileFunction,Legend,Top*%
%TF.FilePolarity,Positive*%
%FSLAX46Y46*%
G04 Gerber Fmt 4.6, Leading zero omitted, Abs format (unit mm)*
G04 Created by KiCad (PCBNEW (6.0.4)) date 2023-01-30 21:52:44*
%MOMM*%
%LPD*%
G01*
G04 APERTURE LIST*
%ADD10C,0.300000*%
%ADD11C,0.150000*%
%ADD12C,0.120000*%
G04 APERTURE END LIST*
D10*
X82178571Y-148478571D02*
X82464285Y-149478571D01*
X82750000Y-148764285D01*
X83035714Y-149478571D01*
X83321428Y-148478571D01*
X83750000Y-148478571D02*
X84035714Y-149478571D01*
X84321428Y-148764285D01*
X84607142Y-149478571D01*
X84892857Y-148478571D01*
X85321428Y-148478571D02*
X85607142Y-149478571D01*
X85892857Y-148764285D01*
X86178571Y-149478571D01*
X86464285Y-148478571D01*
X87035714Y-149335714D02*
X87107142Y-149407142D01*
X87035714Y-149478571D01*
X86964285Y-149407142D01*
X87035714Y-149335714D01*
X87035714Y-149478571D01*
X88392857Y-149478571D02*
X88392857Y-147978571D01*
X88392857Y-149407142D02*
X88250000Y-149478571D01*
X87964285Y-149478571D01*
X87821428Y-149407142D01*
X87750000Y-149335714D01*
X87678571Y-149192857D01*
X87678571Y-148764285D01*
X87750000Y-148621428D01*
X87821428Y-148550000D01*
X87964285Y-148478571D01*
X88250000Y-148478571D01*
X88392857Y-148550000D01*
X89678571Y-149407142D02*
X89535714Y-149478571D01*
X89250000Y-149478571D01*
X89107142Y-149407142D01*
X89035714Y-149264285D01*
X89035714Y-148692857D01*
X89107142Y-148550000D01*
X89250000Y-148478571D01*
X89535714Y-148478571D01*
X89678571Y-148550000D01*
X89750000Y-148692857D01*
X89750000Y-148835714D01*
X89035714Y-148978571D01*
X90392857Y-148478571D02*
X90392857Y-149478571D01*
X90392857Y-148621428D02*
X90464285Y-148550000D01*
X90607142Y-148478571D01*
X90821428Y-148478571D01*
X90964285Y-148550000D01*
X91035714Y-148692857D01*
X91035714Y-149478571D01*
X91750000Y-148478571D02*
X91750000Y-149478571D01*
X91750000Y-148621428D02*
X91821428Y-148550000D01*
X91964285Y-148478571D01*
X92178571Y-148478571D01*
X92321428Y-148550000D01*
X92392857Y-148692857D01*
X92392857Y-149478571D01*
X93107142Y-149478571D02*
X93107142Y-148478571D01*
X93107142Y-147978571D02*
X93035714Y-148050000D01*
X93107142Y-148121428D01*
X93178571Y-148050000D01*
X93107142Y-147978571D01*
X93107142Y-148121428D01*
X93750000Y-149407142D02*
X93892857Y-149478571D01*
X94178571Y-149478571D01*
X94321428Y-149407142D01*
X94392857Y-149264285D01*
X94392857Y-149192857D01*
X94321428Y-149050000D01*
X94178571Y-148978571D01*
X93964285Y-148978571D01*
X93821428Y-148907142D01*
X93750000Y-148764285D01*
X93750000Y-148692857D01*
X93821428Y-148550000D01*
X93964285Y-148478571D01*
X94178571Y-148478571D01*
X94321428Y-148550000D01*
X95678571Y-148478571D02*
X95678571Y-149692857D01*
X95607142Y-149835714D01*
X95535714Y-149907142D01*
X95392857Y-149978571D01*
X95178571Y-149978571D01*
X95035714Y-149907142D01*
X95678571Y-149407142D02*
X95535714Y-149478571D01*
X95250000Y-149478571D01*
X95107142Y-149407142D01*
X95035714Y-149335714D01*
X94964285Y-149192857D01*
X94964285Y-148764285D01*
X95035714Y-148621428D01*
X95107142Y-148550000D01*
X95250000Y-148478571D01*
X95535714Y-148478571D01*
X95678571Y-148550000D01*
X97035714Y-148478571D02*
X97035714Y-149478571D01*
X96392857Y-148478571D02*
X96392857Y-149264285D01*
X96464285Y-149407142D01*
X96607142Y-149478571D01*
X96821428Y-149478571D01*
X96964285Y-149407142D01*
X97035714Y-149335714D01*
X97750000Y-148478571D02*
X97750000Y-149478571D01*
X97750000Y-148621428D02*
X97821428Y-148550000D01*
X97964285Y-148478571D01*
X98178571Y-148478571D01*
X98321428Y-148550000D01*
X98392857Y-148692857D01*
X98392857Y-149478571D01*
X99107142Y-149478571D02*
X99107142Y-148478571D01*
X99107142Y-147978571D02*
X99035714Y-148050000D01*
X99107142Y-148121428D01*
X99178571Y-148050000D01*
X99107142Y-147978571D01*
X99107142Y-148121428D01*
X100464285Y-149478571D02*
X100464285Y-148692857D01*
X100392857Y-148550000D01*
X100250000Y-148478571D01*
X99964285Y-148478571D01*
X99821428Y-148550000D01*
X100464285Y-149407142D02*
X100321428Y-149478571D01*
X99964285Y-149478571D01*
X99821428Y-149407142D01*
X99750000Y-149264285D01*
X99750000Y-149121428D01*
X99821428Y-148978571D01*
X99964285Y-148907142D01*
X100321428Y-148907142D01*
X100464285Y-148835714D01*
X101178571Y-149335714D02*
X101250000Y-149407142D01*
X101178571Y-149478571D01*
X101107142Y-149407142D01*
X101178571Y-149335714D01*
X101178571Y-149478571D01*
X102535714Y-149478571D02*
X102535714Y-147978571D01*
X102535714Y-149407142D02*
X102392857Y-149478571D01*
X102107142Y-149478571D01*
X101964285Y-149407142D01*
X101892857Y-149335714D01*
X101821428Y-149192857D01*
X101821428Y-148764285D01*
X101892857Y-148621428D01*
X101964285Y-148550000D01*
X102107142Y-148478571D01*
X102392857Y-148478571D01*
X102535714Y-148550000D01*
X103821428Y-149407142D02*
X103678571Y-149478571D01*
X103392857Y-149478571D01*
X103250000Y-149407142D01*
X103178571Y-149264285D01*
X103178571Y-148692857D01*
X103250000Y-148550000D01*
X103392857Y-148478571D01*
X103678571Y-148478571D01*
X103821428Y-148550000D01*
X103892857Y-148692857D01*
X103892857Y-148835714D01*
X103178571Y-148978571D01*
X106035714Y-149978571D02*
X106035714Y-147835714D01*
X108178571Y-148121428D02*
X108250000Y-148050000D01*
X108392857Y-147978571D01*
X108750000Y-147978571D01*
X108892857Y-148050000D01*
X108964285Y-148121428D01*
X109035714Y-148264285D01*
X109035714Y-148407142D01*
X108964285Y-148621428D01*
X108107142Y-149478571D01*
X109035714Y-149478571D01*
X109964285Y-147978571D02*
X110107142Y-147978571D01*
X110250000Y-148050000D01*
X110321428Y-148121428D01*
X110392857Y-148264285D01*
X110464285Y-148550000D01*
X110464285Y-148907142D01*
X110392857Y-149192857D01*
X110321428Y-149335714D01*
X110250000Y-149407142D01*
X110107142Y-149478571D01*
X109964285Y-149478571D01*
X109821428Y-149407142D01*
X109750000Y-149335714D01*
X109678571Y-149192857D01*
X109607142Y-148907142D01*
X109607142Y-148550000D01*
X109678571Y-148264285D01*
X109750000Y-148121428D01*
X109821428Y-148050000D01*
X109964285Y-147978571D01*
X111035714Y-148121428D02*
X111107142Y-148050000D01*
X111250000Y-147978571D01*
X111607142Y-147978571D01*
X111750000Y-148050000D01*
X111821428Y-148121428D01*
X111892857Y-148264285D01*
X111892857Y-148407142D01*
X111821428Y-148621428D01*
X110964285Y-149478571D01*
X111892857Y-149478571D01*
X112392857Y-147978571D02*
X113321428Y-147978571D01*
X112821428Y-148550000D01*
X113035714Y-148550000D01*
X113178571Y-148621428D01*
X113250000Y-148692857D01*
X113321428Y-148835714D01*
X113321428Y-149192857D01*
X113250000Y-149335714D01*
X113178571Y-149407142D01*
X113035714Y-149478571D01*
X112607142Y-149478571D01*
X112464285Y-149407142D01*
X112392857Y-149335714D01*
X115035714Y-147907142D02*
X113750000Y-149835714D01*
X115821428Y-147978571D02*
X115964285Y-147978571D01*
X116107142Y-148050000D01*
X116178571Y-148121428D01*
X116250000Y-148264285D01*
X116321428Y-148550000D01*
X116321428Y-148907142D01*
X116250000Y-149192857D01*
X116178571Y-149335714D01*
X116107142Y-149407142D01*
X115964285Y-149478571D01*
X115821428Y-149478571D01*
X115678571Y-149407142D01*
X115607142Y-149335714D01*
X115535714Y-149192857D01*
X115464285Y-148907142D01*
X115464285Y-148550000D01*
X115535714Y-148264285D01*
X115607142Y-148121428D01*
X115678571Y-148050000D01*
X115821428Y-147978571D01*
X116892857Y-148121428D02*
X116964285Y-148050000D01*
X117107142Y-147978571D01*
X117464285Y-147978571D01*
X117607142Y-148050000D01*
X117678571Y-148121428D01*
X117750000Y-148264285D01*
X117750000Y-148407142D01*
X117678571Y-148621428D01*
X116821428Y-149478571D01*
X117750000Y-149478571D01*
X92321428Y-146292857D02*
X91821428Y-146292857D01*
X91821428Y-147078571D02*
X91821428Y-145578571D01*
X92535714Y-145578571D01*
X93750000Y-147078571D02*
X93750000Y-146292857D01*
X93678571Y-146150000D01*
X93535714Y-146078571D01*
X93250000Y-146078571D01*
X93107142Y-146150000D01*
X93750000Y-147007142D02*
X93607142Y-147078571D01*
X93250000Y-147078571D01*
X93107142Y-147007142D01*
X93035714Y-146864285D01*
X93035714Y-146721428D01*
X93107142Y-146578571D01*
X93250000Y-146507142D01*
X93607142Y-146507142D01*
X93750000Y-146435714D01*
X95107142Y-147078571D02*
X95107142Y-145578571D01*
X95107142Y-147007142D02*
X94964285Y-147078571D01*
X94678571Y-147078571D01*
X94535714Y-147007142D01*
X94464285Y-146935714D01*
X94392857Y-146792857D01*
X94392857Y-146364285D01*
X94464285Y-146221428D01*
X94535714Y-146150000D01*
X94678571Y-146078571D01*
X94964285Y-146078571D01*
X95107142Y-146150000D01*
X96392857Y-147007142D02*
X96250000Y-147078571D01*
X95964285Y-147078571D01*
X95821428Y-147007142D01*
X95750000Y-146864285D01*
X95750000Y-146292857D01*
X95821428Y-146150000D01*
X95964285Y-146078571D01*
X96250000Y-146078571D01*
X96392857Y-146150000D01*
X96464285Y-146292857D01*
X96464285Y-146435714D01*
X95750000Y-146578571D01*
X97107142Y-147078571D02*
X97107142Y-146078571D01*
X97107142Y-146364285D02*
X97178571Y-146221428D01*
X97250000Y-146150000D01*
X97392857Y-146078571D01*
X97535714Y-146078571D01*
X98035714Y-146507142D02*
X99178571Y-146507142D01*
X99750000Y-145578571D02*
X100107142Y-147078571D01*
X100392857Y-146007142D01*
X100678571Y-147078571D01*
X101035714Y-145578571D01*
X101607142Y-147078571D02*
X101607142Y-146078571D01*
X101607142Y-145578571D02*
X101535714Y-145650000D01*
X101607142Y-145721428D01*
X101678571Y-145650000D01*
X101607142Y-145578571D01*
X101607142Y-145721428D01*
X102321428Y-146078571D02*
X102321428Y-147078571D01*
X102321428Y-146221428D02*
X102392857Y-146150000D01*
X102535714Y-146078571D01*
X102750000Y-146078571D01*
X102892857Y-146150000D01*
X102964285Y-146292857D01*
X102964285Y-147078571D01*
X104321428Y-146078571D02*
X104321428Y-147292857D01*
X104250000Y-147435714D01*
X104178571Y-147507142D01*
X104035714Y-147578571D01*
X103821428Y-147578571D01*
X103678571Y-147507142D01*
X104321428Y-147007142D02*
X104178571Y-147078571D01*
X103892857Y-147078571D01*
X103750000Y-147007142D01*
X103678571Y-146935714D01*
X103607142Y-146792857D01*
X103607142Y-146364285D01*
X103678571Y-146221428D01*
X103750000Y-146150000D01*
X103892857Y-146078571D01*
X104178571Y-146078571D01*
X104321428Y-146150000D01*
X105964285Y-145578571D02*
X106464285Y-147078571D01*
X106964285Y-145578571D01*
X108250000Y-147078571D02*
X107392857Y-147078571D01*
X107821428Y-147078571D02*
X107821428Y-145578571D01*
X107678571Y-145792857D01*
X107535714Y-145935714D01*
X107392857Y-146007142D01*
D11*
%TO.C,RV5*%
X144404761Y-100452380D02*
X144071428Y-99976190D01*
X143833333Y-100452380D02*
X143833333Y-99452380D01*
X144214285Y-99452380D01*
X144309523Y-99500000D01*
X144357142Y-99547619D01*
X144404761Y-99642857D01*
X144404761Y-99785714D01*
X144357142Y-99880952D01*
X144309523Y-99928571D01*
X144214285Y-99976190D01*
X143833333Y-99976190D01*
X144690476Y-99452380D02*
X145023809Y-100452380D01*
X145357142Y-99452380D01*
X146166666Y-99452380D02*
X145690476Y-99452380D01*
X145642857Y-99928571D01*
X145690476Y-99880952D01*
X145785714Y-99833333D01*
X146023809Y-99833333D01*
X146119047Y-99880952D01*
X146166666Y-99928571D01*
X146214285Y-100023809D01*
X146214285Y-100261904D01*
X146166666Y-100357142D01*
X146119047Y-100404761D01*
X146023809Y-100452380D01*
X145785714Y-100452380D01*
X145690476Y-100404761D01*
X145642857Y-100357142D01*
%TO.C,RV4*%
X124404761Y-100452380D02*
X124071428Y-99976190D01*
X123833333Y-100452380D02*
X123833333Y-99452380D01*
X124214285Y-99452380D01*
X124309523Y-99500000D01*
X124357142Y-99547619D01*
X124404761Y-99642857D01*
X124404761Y-99785714D01*
X124357142Y-99880952D01*
X124309523Y-99928571D01*
X124214285Y-99976190D01*
X123833333Y-99976190D01*
X124690476Y-99452380D02*
X125023809Y-100452380D01*
X125357142Y-99452380D01*
X126119047Y-99785714D02*
X126119047Y-100452380D01*
X125880952Y-99404761D02*
X125642857Y-100119047D01*
X126261904Y-100119047D01*
%TO.C,RV3*%
X104404761Y-100452380D02*
X104071428Y-99976190D01*
X103833333Y-100452380D02*
X103833333Y-99452380D01*
X104214285Y-99452380D01*
X104309523Y-99500000D01*
X104357142Y-99547619D01*
X104404761Y-99642857D01*
X104404761Y-99785714D01*
X104357142Y-99880952D01*
X104309523Y-99928571D01*
X104214285Y-99976190D01*
X103833333Y-99976190D01*
X104690476Y-99452380D02*
X105023809Y-100452380D01*
X105357142Y-99452380D01*
X105595238Y-99452380D02*
X106214285Y-99452380D01*
X105880952Y-99833333D01*
X106023809Y-99833333D01*
X106119047Y-99880952D01*
X106166666Y-99928571D01*
X106214285Y-100023809D01*
X106214285Y-100261904D01*
X106166666Y-100357142D01*
X106119047Y-100404761D01*
X106023809Y-100452380D01*
X105738095Y-100452380D01*
X105642857Y-100404761D01*
X105595238Y-100357142D01*
%TO.C,RV2*%
X84404761Y-100452380D02*
X84071428Y-99976190D01*
X83833333Y-100452380D02*
X83833333Y-99452380D01*
X84214285Y-99452380D01*
X84309523Y-99500000D01*
X84357142Y-99547619D01*
X84404761Y-99642857D01*
X84404761Y-99785714D01*
X84357142Y-99880952D01*
X84309523Y-99928571D01*
X84214285Y-99976190D01*
X83833333Y-99976190D01*
X84690476Y-99452380D02*
X85023809Y-100452380D01*
X85357142Y-99452380D01*
X85642857Y-99547619D02*
X85690476Y-99500000D01*
X85785714Y-99452380D01*
X86023809Y-99452380D01*
X86119047Y-99500000D01*
X86166666Y-99547619D01*
X86214285Y-99642857D01*
X86214285Y-99738095D01*
X86166666Y-99880952D01*
X85595238Y-100452380D01*
X86214285Y-100452380D01*
%TO.C,RV1*%
X64404761Y-100452380D02*
X64071428Y-99976190D01*
X63833333Y-100452380D02*
X63833333Y-99452380D01*
X64214285Y-99452380D01*
X64309523Y-99500000D01*
X64357142Y-99547619D01*
X64404761Y-99642857D01*
X64404761Y-99785714D01*
X64357142Y-99880952D01*
X64309523Y-99928571D01*
X64214285Y-99976190D01*
X63833333Y-99976190D01*
X64690476Y-99452380D02*
X65023809Y-100452380D01*
X65357142Y-99452380D01*
X66214285Y-100452380D02*
X65642857Y-100452380D01*
X65928571Y-100452380D02*
X65928571Y-99452380D01*
X65833333Y-99595238D01*
X65738095Y-99690476D01*
X65642857Y-99738095D01*
%TO.C,H6*%
X44238095Y-186652380D02*
X44238095Y-185652380D01*
X44238095Y-186128571D02*
X44809523Y-186128571D01*
X44809523Y-186652380D02*
X44809523Y-185652380D01*
X45714285Y-185652380D02*
X45523809Y-185652380D01*
X45428571Y-185700000D01*
X45380952Y-185747619D01*
X45285714Y-185890476D01*
X45238095Y-186080952D01*
X45238095Y-186461904D01*
X45285714Y-186557142D01*
X45333333Y-186604761D01*
X45428571Y-186652380D01*
X45619047Y-186652380D01*
X45714285Y-186604761D01*
X45761904Y-186557142D01*
X45809523Y-186461904D01*
X45809523Y-186223809D01*
X45761904Y-186128571D01*
X45714285Y-186080952D01*
X45619047Y-186033333D01*
X45428571Y-186033333D01*
X45333333Y-186080952D01*
X45285714Y-186128571D01*
X45238095Y-186223809D01*
%TO.C,H5*%
X154238095Y-186652380D02*
X154238095Y-185652380D01*
X154238095Y-186128571D02*
X154809523Y-186128571D01*
X154809523Y-186652380D02*
X154809523Y-185652380D01*
X155761904Y-185652380D02*
X155285714Y-185652380D01*
X155238095Y-186128571D01*
X155285714Y-186080952D01*
X155380952Y-186033333D01*
X155619047Y-186033333D01*
X155714285Y-186080952D01*
X155761904Y-186128571D01*
X155809523Y-186223809D01*
X155809523Y-186461904D01*
X155761904Y-186557142D01*
X155714285Y-186604761D01*
X155619047Y-186652380D01*
X155380952Y-186652380D01*
X155285714Y-186604761D01*
X155238095Y-186557142D01*
%TO.C,H4*%
X44238095Y-16652380D02*
X44238095Y-15652380D01*
X44238095Y-16128571D02*
X44809523Y-16128571D01*
X44809523Y-16652380D02*
X44809523Y-15652380D01*
X45714285Y-15985714D02*
X45714285Y-16652380D01*
X45476190Y-15604761D02*
X45238095Y-16319047D01*
X45857142Y-16319047D01*
%TO.C,H3*%
X154238095Y-131652380D02*
X154238095Y-130652380D01*
X154238095Y-131128571D02*
X154809523Y-131128571D01*
X154809523Y-131652380D02*
X154809523Y-130652380D01*
X155190476Y-130652380D02*
X155809523Y-130652380D01*
X155476190Y-131033333D01*
X155619047Y-131033333D01*
X155714285Y-131080952D01*
X155761904Y-131128571D01*
X155809523Y-131223809D01*
X155809523Y-131461904D01*
X155761904Y-131557142D01*
X155714285Y-131604761D01*
X155619047Y-131652380D01*
X155333333Y-131652380D01*
X155238095Y-131604761D01*
X155190476Y-131557142D01*
%TO.C,H2*%
X154238095Y-16652380D02*
X154238095Y-15652380D01*
X154238095Y-16128571D02*
X154809523Y-16128571D01*
X154809523Y-16652380D02*
X154809523Y-15652380D01*
X155238095Y-15747619D02*
X155285714Y-15700000D01*
X155380952Y-15652380D01*
X155619047Y-15652380D01*
X155714285Y-15700000D01*
X155761904Y-15747619D01*
X155809523Y-15842857D01*
X155809523Y-15938095D01*
X155761904Y-16080952D01*
X155190476Y-16652380D01*
X155809523Y-16652380D01*
%TO.C,H1*%
X44238095Y-131652380D02*
X44238095Y-130652380D01*
X44238095Y-131128571D02*
X44809523Y-131128571D01*
X44809523Y-131652380D02*
X44809523Y-130652380D01*
X45809523Y-131652380D02*
X45238095Y-131652380D01*
X45523809Y-131652380D02*
X45523809Y-130652380D01*
X45428571Y-130795238D01*
X45333333Y-130890476D01*
X45238095Y-130938095D01*
%TO.C,D14*%
X115785714Y-46982380D02*
X115785714Y-45982380D01*
X116023809Y-45982380D01*
X116166666Y-46030000D01*
X116261904Y-46125238D01*
X116309523Y-46220476D01*
X116357142Y-46410952D01*
X116357142Y-46553809D01*
X116309523Y-46744285D01*
X116261904Y-46839523D01*
X116166666Y-46934761D01*
X116023809Y-46982380D01*
X115785714Y-46982380D01*
X117309523Y-46982380D02*
X116738095Y-46982380D01*
X117023809Y-46982380D02*
X117023809Y-45982380D01*
X116928571Y-46125238D01*
X116833333Y-46220476D01*
X116738095Y-46268095D01*
X118166666Y-46315714D02*
X118166666Y-46982380D01*
X117928571Y-45934761D02*
X117690476Y-46649047D01*
X118309523Y-46649047D01*
X111658095Y-47352380D02*
X111658095Y-46352380D01*
X112229523Y-47352380D02*
X111800952Y-46780952D01*
X112229523Y-46352380D02*
X111658095Y-46923809D01*
%TO.C,SW2*%
X58666666Y-32404761D02*
X58809523Y-32452380D01*
X59047619Y-32452380D01*
X59142857Y-32404761D01*
X59190476Y-32357142D01*
X59238095Y-32261904D01*
X59238095Y-32166666D01*
X59190476Y-32071428D01*
X59142857Y-32023809D01*
X59047619Y-31976190D01*
X58857142Y-31928571D01*
X58761904Y-31880952D01*
X58714285Y-31833333D01*
X58666666Y-31738095D01*
X58666666Y-31642857D01*
X58714285Y-31547619D01*
X58761904Y-31500000D01*
X58857142Y-31452380D01*
X59095238Y-31452380D01*
X59238095Y-31500000D01*
X59571428Y-31452380D02*
X59809523Y-32452380D01*
X60000000Y-31738095D01*
X60190476Y-32452380D01*
X60428571Y-31452380D01*
X60761904Y-31547619D02*
X60809523Y-31500000D01*
X60904761Y-31452380D01*
X61142857Y-31452380D01*
X61238095Y-31500000D01*
X61285714Y-31547619D01*
X61333333Y-31642857D01*
X61333333Y-31738095D01*
X61285714Y-31880952D01*
X60714285Y-32452380D01*
X61333333Y-32452380D01*
%TO.C,D20*%
X135785714Y-177982380D02*
X135785714Y-176982380D01*
X136023809Y-176982380D01*
X136166666Y-177030000D01*
X136261904Y-177125238D01*
X136309523Y-177220476D01*
X136357142Y-177410952D01*
X136357142Y-177553809D01*
X136309523Y-177744285D01*
X136261904Y-177839523D01*
X136166666Y-177934761D01*
X136023809Y-177982380D01*
X135785714Y-177982380D01*
X136738095Y-177077619D02*
X136785714Y-177030000D01*
X136880952Y-176982380D01*
X137119047Y-176982380D01*
X137214285Y-177030000D01*
X137261904Y-177077619D01*
X137309523Y-177172857D01*
X137309523Y-177268095D01*
X137261904Y-177410952D01*
X136690476Y-177982380D01*
X137309523Y-177982380D01*
X137928571Y-176982380D02*
X138023809Y-176982380D01*
X138119047Y-177030000D01*
X138166666Y-177077619D01*
X138214285Y-177172857D01*
X138261904Y-177363333D01*
X138261904Y-177601428D01*
X138214285Y-177791904D01*
X138166666Y-177887142D01*
X138119047Y-177934761D01*
X138023809Y-177982380D01*
X137928571Y-177982380D01*
X137833333Y-177934761D01*
X137785714Y-177887142D01*
X137738095Y-177791904D01*
X137690476Y-177601428D01*
X137690476Y-177363333D01*
X137738095Y-177172857D01*
X137785714Y-177077619D01*
X137833333Y-177030000D01*
X137928571Y-176982380D01*
X131658095Y-178352380D02*
X131658095Y-177352380D01*
X132229523Y-178352380D02*
X131800952Y-177780952D01*
X132229523Y-177352380D02*
X131658095Y-177923809D01*
%TO.C,D19*%
X135785714Y-166982380D02*
X135785714Y-165982380D01*
X136023809Y-165982380D01*
X136166666Y-166030000D01*
X136261904Y-166125238D01*
X136309523Y-166220476D01*
X136357142Y-166410952D01*
X136357142Y-166553809D01*
X136309523Y-166744285D01*
X136261904Y-166839523D01*
X136166666Y-166934761D01*
X136023809Y-166982380D01*
X135785714Y-166982380D01*
X137309523Y-166982380D02*
X136738095Y-166982380D01*
X137023809Y-166982380D02*
X137023809Y-165982380D01*
X136928571Y-166125238D01*
X136833333Y-166220476D01*
X136738095Y-166268095D01*
X137785714Y-166982380D02*
X137976190Y-166982380D01*
X138071428Y-166934761D01*
X138119047Y-166887142D01*
X138214285Y-166744285D01*
X138261904Y-166553809D01*
X138261904Y-166172857D01*
X138214285Y-166077619D01*
X138166666Y-166030000D01*
X138071428Y-165982380D01*
X137880952Y-165982380D01*
X137785714Y-166030000D01*
X137738095Y-166077619D01*
X137690476Y-166172857D01*
X137690476Y-166410952D01*
X137738095Y-166506190D01*
X137785714Y-166553809D01*
X137880952Y-166601428D01*
X138071428Y-166601428D01*
X138166666Y-166553809D01*
X138214285Y-166506190D01*
X138261904Y-166410952D01*
X131658095Y-167352380D02*
X131658095Y-166352380D01*
X132229523Y-167352380D02*
X131800952Y-166780952D01*
X132229523Y-166352380D02*
X131658095Y-166923809D01*
%TO.C,SW7*%
X78666666Y-152404761D02*
X78809523Y-152452380D01*
X79047619Y-152452380D01*
X79142857Y-152404761D01*
X79190476Y-152357142D01*
X79238095Y-152261904D01*
X79238095Y-152166666D01*
X79190476Y-152071428D01*
X79142857Y-152023809D01*
X79047619Y-151976190D01*
X78857142Y-151928571D01*
X78761904Y-151880952D01*
X78714285Y-151833333D01*
X78666666Y-151738095D01*
X78666666Y-151642857D01*
X78714285Y-151547619D01*
X78761904Y-151500000D01*
X78857142Y-151452380D01*
X79095238Y-151452380D01*
X79238095Y-151500000D01*
X79571428Y-151452380D02*
X79809523Y-152452380D01*
X80000000Y-151738095D01*
X80190476Y-152452380D01*
X80428571Y-151452380D01*
X80714285Y-151452380D02*
X81380952Y-151452380D01*
X80952380Y-152452380D01*
%TO.C,SW16*%
X118190476Y-182404761D02*
X118333333Y-182452380D01*
X118571428Y-182452380D01*
X118666666Y-182404761D01*
X118714285Y-182357142D01*
X118761904Y-182261904D01*
X118761904Y-182166666D01*
X118714285Y-182071428D01*
X118666666Y-182023809D01*
X118571428Y-181976190D01*
X118380952Y-181928571D01*
X118285714Y-181880952D01*
X118238095Y-181833333D01*
X118190476Y-181738095D01*
X118190476Y-181642857D01*
X118238095Y-181547619D01*
X118285714Y-181500000D01*
X118380952Y-181452380D01*
X118619047Y-181452380D01*
X118761904Y-181500000D01*
X119095238Y-181452380D02*
X119333333Y-182452380D01*
X119523809Y-181738095D01*
X119714285Y-182452380D01*
X119952380Y-181452380D01*
X120857142Y-182452380D02*
X120285714Y-182452380D01*
X120571428Y-182452380D02*
X120571428Y-181452380D01*
X120476190Y-181595238D01*
X120380952Y-181690476D01*
X120285714Y-181738095D01*
X121714285Y-181452380D02*
X121523809Y-181452380D01*
X121428571Y-181500000D01*
X121380952Y-181547619D01*
X121285714Y-181690476D01*
X121238095Y-181880952D01*
X121238095Y-182261904D01*
X121285714Y-182357142D01*
X121333333Y-182404761D01*
X121428571Y-182452380D01*
X121619047Y-182452380D01*
X121714285Y-182404761D01*
X121761904Y-182357142D01*
X121809523Y-182261904D01*
X121809523Y-182023809D01*
X121761904Y-181928571D01*
X121714285Y-181880952D01*
X121619047Y-181833333D01*
X121428571Y-181833333D01*
X121333333Y-181880952D01*
X121285714Y-181928571D01*
X121238095Y-182023809D01*
%TO.C,SW5*%
X78666666Y-12404761D02*
X78809523Y-12452380D01*
X79047619Y-12452380D01*
X79142857Y-12404761D01*
X79190476Y-12357142D01*
X79238095Y-12261904D01*
X79238095Y-12166666D01*
X79190476Y-12071428D01*
X79142857Y-12023809D01*
X79047619Y-11976190D01*
X78857142Y-11928571D01*
X78761904Y-11880952D01*
X78714285Y-11833333D01*
X78666666Y-11738095D01*
X78666666Y-11642857D01*
X78714285Y-11547619D01*
X78761904Y-11500000D01*
X78857142Y-11452380D01*
X79095238Y-11452380D01*
X79238095Y-11500000D01*
X79571428Y-11452380D02*
X79809523Y-12452380D01*
X80000000Y-11738095D01*
X80190476Y-12452380D01*
X80428571Y-11452380D01*
X81285714Y-11452380D02*
X80809523Y-11452380D01*
X80761904Y-11928571D01*
X80809523Y-11880952D01*
X80904761Y-11833333D01*
X81142857Y-11833333D01*
X81238095Y-11880952D01*
X81285714Y-11928571D01*
X81333333Y-12023809D01*
X81333333Y-12261904D01*
X81285714Y-12357142D01*
X81238095Y-12404761D01*
X81142857Y-12452380D01*
X80904761Y-12452380D01*
X80809523Y-12404761D01*
X80761904Y-12357142D01*
%TO.C,D17*%
X135865714Y-26982380D02*
X135865714Y-25982380D01*
X136103809Y-25982380D01*
X136246666Y-26030000D01*
X136341904Y-26125238D01*
X136389523Y-26220476D01*
X136437142Y-26410952D01*
X136437142Y-26553809D01*
X136389523Y-26744285D01*
X136341904Y-26839523D01*
X136246666Y-26934761D01*
X136103809Y-26982380D01*
X135865714Y-26982380D01*
X137389523Y-26982380D02*
X136818095Y-26982380D01*
X137103809Y-26982380D02*
X137103809Y-25982380D01*
X137008571Y-26125238D01*
X136913333Y-26220476D01*
X136818095Y-26268095D01*
X137722857Y-25982380D02*
X138389523Y-25982380D01*
X137960952Y-26982380D01*
X131738095Y-27352380D02*
X131738095Y-26352380D01*
X132309523Y-27352380D02*
X131880952Y-26780952D01*
X132309523Y-26352380D02*
X131738095Y-26923809D01*
%TO.C,D10*%
X95785714Y-46982380D02*
X95785714Y-45982380D01*
X96023809Y-45982380D01*
X96166666Y-46030000D01*
X96261904Y-46125238D01*
X96309523Y-46220476D01*
X96357142Y-46410952D01*
X96357142Y-46553809D01*
X96309523Y-46744285D01*
X96261904Y-46839523D01*
X96166666Y-46934761D01*
X96023809Y-46982380D01*
X95785714Y-46982380D01*
X97309523Y-46982380D02*
X96738095Y-46982380D01*
X97023809Y-46982380D02*
X97023809Y-45982380D01*
X96928571Y-46125238D01*
X96833333Y-46220476D01*
X96738095Y-46268095D01*
X97928571Y-45982380D02*
X98023809Y-45982380D01*
X98119047Y-46030000D01*
X98166666Y-46077619D01*
X98214285Y-46172857D01*
X98261904Y-46363333D01*
X98261904Y-46601428D01*
X98214285Y-46791904D01*
X98166666Y-46887142D01*
X98119047Y-46934761D01*
X98023809Y-46982380D01*
X97928571Y-46982380D01*
X97833333Y-46934761D01*
X97785714Y-46887142D01*
X97738095Y-46791904D01*
X97690476Y-46601428D01*
X97690476Y-46363333D01*
X97738095Y-46172857D01*
X97785714Y-46077619D01*
X97833333Y-46030000D01*
X97928571Y-45982380D01*
X91658095Y-47352380D02*
X91658095Y-46352380D01*
X92229523Y-47352380D02*
X91800952Y-46780952D01*
X92229523Y-46352380D02*
X91658095Y-46923809D01*
%TO.C,D12*%
X95785714Y-177982380D02*
X95785714Y-176982380D01*
X96023809Y-176982380D01*
X96166666Y-177030000D01*
X96261904Y-177125238D01*
X96309523Y-177220476D01*
X96357142Y-177410952D01*
X96357142Y-177553809D01*
X96309523Y-177744285D01*
X96261904Y-177839523D01*
X96166666Y-177934761D01*
X96023809Y-177982380D01*
X95785714Y-177982380D01*
X97309523Y-177982380D02*
X96738095Y-177982380D01*
X97023809Y-177982380D02*
X97023809Y-176982380D01*
X96928571Y-177125238D01*
X96833333Y-177220476D01*
X96738095Y-177268095D01*
X97690476Y-177077619D02*
X97738095Y-177030000D01*
X97833333Y-176982380D01*
X98071428Y-176982380D01*
X98166666Y-177030000D01*
X98214285Y-177077619D01*
X98261904Y-177172857D01*
X98261904Y-177268095D01*
X98214285Y-177410952D01*
X97642857Y-177982380D01*
X98261904Y-177982380D01*
X91658095Y-178352380D02*
X91658095Y-177352380D01*
X92229523Y-178352380D02*
X91800952Y-177780952D01*
X92229523Y-177352380D02*
X91658095Y-177923809D01*
%TO.C,SW11*%
X98190476Y-152404761D02*
X98333333Y-152452380D01*
X98571428Y-152452380D01*
X98666666Y-152404761D01*
X98714285Y-152357142D01*
X98761904Y-152261904D01*
X98761904Y-152166666D01*
X98714285Y-152071428D01*
X98666666Y-152023809D01*
X98571428Y-151976190D01*
X98380952Y-151928571D01*
X98285714Y-151880952D01*
X98238095Y-151833333D01*
X98190476Y-151738095D01*
X98190476Y-151642857D01*
X98238095Y-151547619D01*
X98285714Y-151500000D01*
X98380952Y-151452380D01*
X98619047Y-151452380D01*
X98761904Y-151500000D01*
X99095238Y-151452380D02*
X99333333Y-152452380D01*
X99523809Y-151738095D01*
X99714285Y-152452380D01*
X99952380Y-151452380D01*
X100857142Y-152452380D02*
X100285714Y-152452380D01*
X100571428Y-152452380D02*
X100571428Y-151452380D01*
X100476190Y-151595238D01*
X100380952Y-151690476D01*
X100285714Y-151738095D01*
X101809523Y-152452380D02*
X101238095Y-152452380D01*
X101523809Y-152452380D02*
X101523809Y-151452380D01*
X101428571Y-151595238D01*
X101333333Y-151690476D01*
X101238095Y-151738095D01*
%TO.C,D4*%
X56261904Y-177982380D02*
X56261904Y-176982380D01*
X56500000Y-176982380D01*
X56642857Y-177030000D01*
X56738095Y-177125238D01*
X56785714Y-177220476D01*
X56833333Y-177410952D01*
X56833333Y-177553809D01*
X56785714Y-177744285D01*
X56738095Y-177839523D01*
X56642857Y-177934761D01*
X56500000Y-177982380D01*
X56261904Y-177982380D01*
X57690476Y-177315714D02*
X57690476Y-177982380D01*
X57452380Y-176934761D02*
X57214285Y-177649047D01*
X57833333Y-177649047D01*
X51658095Y-178352380D02*
X51658095Y-177352380D01*
X52229523Y-178352380D02*
X51800952Y-177780952D01*
X52229523Y-177352380D02*
X51658095Y-177923809D01*
%TO.C,SW8*%
X78666666Y-182404761D02*
X78809523Y-182452380D01*
X79047619Y-182452380D01*
X79142857Y-182404761D01*
X79190476Y-182357142D01*
X79238095Y-182261904D01*
X79238095Y-182166666D01*
X79190476Y-182071428D01*
X79142857Y-182023809D01*
X79047619Y-181976190D01*
X78857142Y-181928571D01*
X78761904Y-181880952D01*
X78714285Y-181833333D01*
X78666666Y-181738095D01*
X78666666Y-181642857D01*
X78714285Y-181547619D01*
X78761904Y-181500000D01*
X78857142Y-181452380D01*
X79095238Y-181452380D01*
X79238095Y-181500000D01*
X79571428Y-181452380D02*
X79809523Y-182452380D01*
X80000000Y-181738095D01*
X80190476Y-182452380D01*
X80428571Y-181452380D01*
X80952380Y-181880952D02*
X80857142Y-181833333D01*
X80809523Y-181785714D01*
X80761904Y-181690476D01*
X80761904Y-181642857D01*
X80809523Y-181547619D01*
X80857142Y-181500000D01*
X80952380Y-181452380D01*
X81142857Y-181452380D01*
X81238095Y-181500000D01*
X81285714Y-181547619D01*
X81333333Y-181642857D01*
X81333333Y-181690476D01*
X81285714Y-181785714D01*
X81238095Y-181833333D01*
X81142857Y-181880952D01*
X80952380Y-181880952D01*
X80857142Y-181928571D01*
X80809523Y-181976190D01*
X80761904Y-182071428D01*
X80761904Y-182261904D01*
X80809523Y-182357142D01*
X80857142Y-182404761D01*
X80952380Y-182452380D01*
X81142857Y-182452380D01*
X81238095Y-182404761D01*
X81285714Y-182357142D01*
X81333333Y-182261904D01*
X81333333Y-182071428D01*
X81285714Y-181976190D01*
X81238095Y-181928571D01*
X81142857Y-181880952D01*
%TO.C,SW14*%
X118190476Y-32404761D02*
X118333333Y-32452380D01*
X118571428Y-32452380D01*
X118666666Y-32404761D01*
X118714285Y-32357142D01*
X118761904Y-32261904D01*
X118761904Y-32166666D01*
X118714285Y-32071428D01*
X118666666Y-32023809D01*
X118571428Y-31976190D01*
X118380952Y-31928571D01*
X118285714Y-31880952D01*
X118238095Y-31833333D01*
X118190476Y-31738095D01*
X118190476Y-31642857D01*
X118238095Y-31547619D01*
X118285714Y-31500000D01*
X118380952Y-31452380D01*
X118619047Y-31452380D01*
X118761904Y-31500000D01*
X119095238Y-31452380D02*
X119333333Y-32452380D01*
X119523809Y-31738095D01*
X119714285Y-32452380D01*
X119952380Y-31452380D01*
X120857142Y-32452380D02*
X120285714Y-32452380D01*
X120571428Y-32452380D02*
X120571428Y-31452380D01*
X120476190Y-31595238D01*
X120380952Y-31690476D01*
X120285714Y-31738095D01*
X121714285Y-31785714D02*
X121714285Y-32452380D01*
X121476190Y-31404761D02*
X121238095Y-32119047D01*
X121857142Y-32119047D01*
%TO.C,D3*%
X58261904Y-166982380D02*
X58261904Y-165982380D01*
X58500000Y-165982380D01*
X58642857Y-166030000D01*
X58738095Y-166125238D01*
X58785714Y-166220476D01*
X58833333Y-166410952D01*
X58833333Y-166553809D01*
X58785714Y-166744285D01*
X58738095Y-166839523D01*
X58642857Y-166934761D01*
X58500000Y-166982380D01*
X58261904Y-166982380D01*
X59166666Y-165982380D02*
X59785714Y-165982380D01*
X59452380Y-166363333D01*
X59595238Y-166363333D01*
X59690476Y-166410952D01*
X59738095Y-166458571D01*
X59785714Y-166553809D01*
X59785714Y-166791904D01*
X59738095Y-166887142D01*
X59690476Y-166934761D01*
X59595238Y-166982380D01*
X59309523Y-166982380D01*
X59214285Y-166934761D01*
X59166666Y-166887142D01*
X53658095Y-167352380D02*
X53658095Y-166352380D01*
X54229523Y-167352380D02*
X53800952Y-166780952D01*
X54229523Y-166352380D02*
X53658095Y-166923809D01*
%TO.C,D13*%
X115785714Y-26982380D02*
X115785714Y-25982380D01*
X116023809Y-25982380D01*
X116166666Y-26030000D01*
X116261904Y-26125238D01*
X116309523Y-26220476D01*
X116357142Y-26410952D01*
X116357142Y-26553809D01*
X116309523Y-26744285D01*
X116261904Y-26839523D01*
X116166666Y-26934761D01*
X116023809Y-26982380D01*
X115785714Y-26982380D01*
X117309523Y-26982380D02*
X116738095Y-26982380D01*
X117023809Y-26982380D02*
X117023809Y-25982380D01*
X116928571Y-26125238D01*
X116833333Y-26220476D01*
X116738095Y-26268095D01*
X117642857Y-25982380D02*
X118261904Y-25982380D01*
X117928571Y-26363333D01*
X118071428Y-26363333D01*
X118166666Y-26410952D01*
X118214285Y-26458571D01*
X118261904Y-26553809D01*
X118261904Y-26791904D01*
X118214285Y-26887142D01*
X118166666Y-26934761D01*
X118071428Y-26982380D01*
X117785714Y-26982380D01*
X117690476Y-26934761D01*
X117642857Y-26887142D01*
X111658095Y-27352380D02*
X111658095Y-26352380D01*
X112229523Y-27352380D02*
X111800952Y-26780952D01*
X112229523Y-26352380D02*
X111658095Y-26923809D01*
%TO.C,SW10*%
X98190476Y-32404761D02*
X98333333Y-32452380D01*
X98571428Y-32452380D01*
X98666666Y-32404761D01*
X98714285Y-32357142D01*
X98761904Y-32261904D01*
X98761904Y-32166666D01*
X98714285Y-32071428D01*
X98666666Y-32023809D01*
X98571428Y-31976190D01*
X98380952Y-31928571D01*
X98285714Y-31880952D01*
X98238095Y-31833333D01*
X98190476Y-31738095D01*
X98190476Y-31642857D01*
X98238095Y-31547619D01*
X98285714Y-31500000D01*
X98380952Y-31452380D01*
X98619047Y-31452380D01*
X98761904Y-31500000D01*
X99095238Y-31452380D02*
X99333333Y-32452380D01*
X99523809Y-31738095D01*
X99714285Y-32452380D01*
X99952380Y-31452380D01*
X100857142Y-32452380D02*
X100285714Y-32452380D01*
X100571428Y-32452380D02*
X100571428Y-31452380D01*
X100476190Y-31595238D01*
X100380952Y-31690476D01*
X100285714Y-31738095D01*
X101476190Y-31452380D02*
X101571428Y-31452380D01*
X101666666Y-31500000D01*
X101714285Y-31547619D01*
X101761904Y-31642857D01*
X101809523Y-31833333D01*
X101809523Y-32071428D01*
X101761904Y-32261904D01*
X101714285Y-32357142D01*
X101666666Y-32404761D01*
X101571428Y-32452380D01*
X101476190Y-32452380D01*
X101380952Y-32404761D01*
X101333333Y-32357142D01*
X101285714Y-32261904D01*
X101238095Y-32071428D01*
X101238095Y-31833333D01*
X101285714Y-31642857D01*
X101333333Y-31547619D01*
X101380952Y-31500000D01*
X101476190Y-31452380D01*
%TO.C,D8*%
X76261904Y-177982380D02*
X76261904Y-176982380D01*
X76500000Y-176982380D01*
X76642857Y-177030000D01*
X76738095Y-177125238D01*
X76785714Y-177220476D01*
X76833333Y-177410952D01*
X76833333Y-177553809D01*
X76785714Y-177744285D01*
X76738095Y-177839523D01*
X76642857Y-177934761D01*
X76500000Y-177982380D01*
X76261904Y-177982380D01*
X77404761Y-177410952D02*
X77309523Y-177363333D01*
X77261904Y-177315714D01*
X77214285Y-177220476D01*
X77214285Y-177172857D01*
X77261904Y-177077619D01*
X77309523Y-177030000D01*
X77404761Y-176982380D01*
X77595238Y-176982380D01*
X77690476Y-177030000D01*
X77738095Y-177077619D01*
X77785714Y-177172857D01*
X77785714Y-177220476D01*
X77738095Y-177315714D01*
X77690476Y-177363333D01*
X77595238Y-177410952D01*
X77404761Y-177410952D01*
X77309523Y-177458571D01*
X77261904Y-177506190D01*
X77214285Y-177601428D01*
X77214285Y-177791904D01*
X77261904Y-177887142D01*
X77309523Y-177934761D01*
X77404761Y-177982380D01*
X77595238Y-177982380D01*
X77690476Y-177934761D01*
X77738095Y-177887142D01*
X77785714Y-177791904D01*
X77785714Y-177601428D01*
X77738095Y-177506190D01*
X77690476Y-177458571D01*
X77595238Y-177410952D01*
X71658095Y-178352380D02*
X71658095Y-177352380D01*
X72229523Y-178352380D02*
X71800952Y-177780952D01*
X72229523Y-177352380D02*
X71658095Y-177923809D01*
%TO.C,SW6*%
X78666666Y-32404761D02*
X78809523Y-32452380D01*
X79047619Y-32452380D01*
X79142857Y-32404761D01*
X79190476Y-32357142D01*
X79238095Y-32261904D01*
X79238095Y-32166666D01*
X79190476Y-32071428D01*
X79142857Y-32023809D01*
X79047619Y-31976190D01*
X78857142Y-31928571D01*
X78761904Y-31880952D01*
X78714285Y-31833333D01*
X78666666Y-31738095D01*
X78666666Y-31642857D01*
X78714285Y-31547619D01*
X78761904Y-31500000D01*
X78857142Y-31452380D01*
X79095238Y-31452380D01*
X79238095Y-31500000D01*
X79571428Y-31452380D02*
X79809523Y-32452380D01*
X80000000Y-31738095D01*
X80190476Y-32452380D01*
X80428571Y-31452380D01*
X81238095Y-31452380D02*
X81047619Y-31452380D01*
X80952380Y-31500000D01*
X80904761Y-31547619D01*
X80809523Y-31690476D01*
X80761904Y-31880952D01*
X80761904Y-32261904D01*
X80809523Y-32357142D01*
X80857142Y-32404761D01*
X80952380Y-32452380D01*
X81142857Y-32452380D01*
X81238095Y-32404761D01*
X81285714Y-32357142D01*
X81333333Y-32261904D01*
X81333333Y-32023809D01*
X81285714Y-31928571D01*
X81238095Y-31880952D01*
X81142857Y-31833333D01*
X80952380Y-31833333D01*
X80857142Y-31880952D01*
X80809523Y-31928571D01*
X80761904Y-32023809D01*
%TO.C,SW1*%
X58666666Y-12404761D02*
X58809523Y-12452380D01*
X59047619Y-12452380D01*
X59142857Y-12404761D01*
X59190476Y-12357142D01*
X59238095Y-12261904D01*
X59238095Y-12166666D01*
X59190476Y-12071428D01*
X59142857Y-12023809D01*
X59047619Y-11976190D01*
X58857142Y-11928571D01*
X58761904Y-11880952D01*
X58714285Y-11833333D01*
X58666666Y-11738095D01*
X58666666Y-11642857D01*
X58714285Y-11547619D01*
X58761904Y-11500000D01*
X58857142Y-11452380D01*
X59095238Y-11452380D01*
X59238095Y-11500000D01*
X59571428Y-11452380D02*
X59809523Y-12452380D01*
X60000000Y-11738095D01*
X60190476Y-12452380D01*
X60428571Y-11452380D01*
X61333333Y-12452380D02*
X60761904Y-12452380D01*
X61047619Y-12452380D02*
X61047619Y-11452380D01*
X60952380Y-11595238D01*
X60857142Y-11690476D01*
X60761904Y-11738095D01*
%TO.C,D1*%
X56261904Y-26982380D02*
X56261904Y-25982380D01*
X56500000Y-25982380D01*
X56642857Y-26030000D01*
X56738095Y-26125238D01*
X56785714Y-26220476D01*
X56833333Y-26410952D01*
X56833333Y-26553809D01*
X56785714Y-26744285D01*
X56738095Y-26839523D01*
X56642857Y-26934761D01*
X56500000Y-26982380D01*
X56261904Y-26982380D01*
X57785714Y-26982380D02*
X57214285Y-26982380D01*
X57500000Y-26982380D02*
X57500000Y-25982380D01*
X57404761Y-26125238D01*
X57309523Y-26220476D01*
X57214285Y-26268095D01*
X51658095Y-27352380D02*
X51658095Y-26352380D01*
X52229523Y-27352380D02*
X51800952Y-26780952D01*
X52229523Y-26352380D02*
X51658095Y-26923809D01*
%TO.C,SW20*%
X138190476Y-182404761D02*
X138333333Y-182452380D01*
X138571428Y-182452380D01*
X138666666Y-182404761D01*
X138714285Y-182357142D01*
X138761904Y-182261904D01*
X138761904Y-182166666D01*
X138714285Y-182071428D01*
X138666666Y-182023809D01*
X138571428Y-181976190D01*
X138380952Y-181928571D01*
X138285714Y-181880952D01*
X138238095Y-181833333D01*
X138190476Y-181738095D01*
X138190476Y-181642857D01*
X138238095Y-181547619D01*
X138285714Y-181500000D01*
X138380952Y-181452380D01*
X138619047Y-181452380D01*
X138761904Y-181500000D01*
X139095238Y-181452380D02*
X139333333Y-182452380D01*
X139523809Y-181738095D01*
X139714285Y-182452380D01*
X139952380Y-181452380D01*
X140285714Y-181547619D02*
X140333333Y-181500000D01*
X140428571Y-181452380D01*
X140666666Y-181452380D01*
X140761904Y-181500000D01*
X140809523Y-181547619D01*
X140857142Y-181642857D01*
X140857142Y-181738095D01*
X140809523Y-181880952D01*
X140238095Y-182452380D01*
X140857142Y-182452380D01*
X141476190Y-181452380D02*
X141571428Y-181452380D01*
X141666666Y-181500000D01*
X141714285Y-181547619D01*
X141761904Y-181642857D01*
X141809523Y-181833333D01*
X141809523Y-182071428D01*
X141761904Y-182261904D01*
X141714285Y-182357142D01*
X141666666Y-182404761D01*
X141571428Y-182452380D01*
X141476190Y-182452380D01*
X141380952Y-182404761D01*
X141333333Y-182357142D01*
X141285714Y-182261904D01*
X141238095Y-182071428D01*
X141238095Y-181833333D01*
X141285714Y-181642857D01*
X141333333Y-181547619D01*
X141380952Y-181500000D01*
X141476190Y-181452380D01*
%TO.C,SW18*%
X138190476Y-32404761D02*
X138333333Y-32452380D01*
X138571428Y-32452380D01*
X138666666Y-32404761D01*
X138714285Y-32357142D01*
X138761904Y-32261904D01*
X138761904Y-32166666D01*
X138714285Y-32071428D01*
X138666666Y-32023809D01*
X138571428Y-31976190D01*
X138380952Y-31928571D01*
X138285714Y-31880952D01*
X138238095Y-31833333D01*
X138190476Y-31738095D01*
X138190476Y-31642857D01*
X138238095Y-31547619D01*
X138285714Y-31500000D01*
X138380952Y-31452380D01*
X138619047Y-31452380D01*
X138761904Y-31500000D01*
X139095238Y-31452380D02*
X139333333Y-32452380D01*
X139523809Y-31738095D01*
X139714285Y-32452380D01*
X139952380Y-31452380D01*
X140857142Y-32452380D02*
X140285714Y-32452380D01*
X140571428Y-32452380D02*
X140571428Y-31452380D01*
X140476190Y-31595238D01*
X140380952Y-31690476D01*
X140285714Y-31738095D01*
X141428571Y-31880952D02*
X141333333Y-31833333D01*
X141285714Y-31785714D01*
X141238095Y-31690476D01*
X141238095Y-31642857D01*
X141285714Y-31547619D01*
X141333333Y-31500000D01*
X141428571Y-31452380D01*
X141619047Y-31452380D01*
X141714285Y-31500000D01*
X141761904Y-31547619D01*
X141809523Y-31642857D01*
X141809523Y-31690476D01*
X141761904Y-31785714D01*
X141714285Y-31833333D01*
X141619047Y-31880952D01*
X141428571Y-31880952D01*
X141333333Y-31928571D01*
X141285714Y-31976190D01*
X141238095Y-32071428D01*
X141238095Y-32261904D01*
X141285714Y-32357142D01*
X141333333Y-32404761D01*
X141428571Y-32452380D01*
X141619047Y-32452380D01*
X141714285Y-32404761D01*
X141761904Y-32357142D01*
X141809523Y-32261904D01*
X141809523Y-32071428D01*
X141761904Y-31976190D01*
X141714285Y-31928571D01*
X141619047Y-31880952D01*
%TO.C,SW9*%
X98666666Y-12404761D02*
X98809523Y-12452380D01*
X99047619Y-12452380D01*
X99142857Y-12404761D01*
X99190476Y-12357142D01*
X99238095Y-12261904D01*
X99238095Y-12166666D01*
X99190476Y-12071428D01*
X99142857Y-12023809D01*
X99047619Y-11976190D01*
X98857142Y-11928571D01*
X98761904Y-11880952D01*
X98714285Y-11833333D01*
X98666666Y-11738095D01*
X98666666Y-11642857D01*
X98714285Y-11547619D01*
X98761904Y-11500000D01*
X98857142Y-11452380D01*
X99095238Y-11452380D01*
X99238095Y-11500000D01*
X99571428Y-11452380D02*
X99809523Y-12452380D01*
X100000000Y-11738095D01*
X100190476Y-12452380D01*
X100428571Y-11452380D01*
X100857142Y-12452380D02*
X101047619Y-12452380D01*
X101142857Y-12404761D01*
X101190476Y-12357142D01*
X101285714Y-12214285D01*
X101333333Y-12023809D01*
X101333333Y-11642857D01*
X101285714Y-11547619D01*
X101238095Y-11500000D01*
X101142857Y-11452380D01*
X100952380Y-11452380D01*
X100857142Y-11500000D01*
X100809523Y-11547619D01*
X100761904Y-11642857D01*
X100761904Y-11880952D01*
X100809523Y-11976190D01*
X100857142Y-12023809D01*
X100952380Y-12071428D01*
X101142857Y-12071428D01*
X101238095Y-12023809D01*
X101285714Y-11976190D01*
X101333333Y-11880952D01*
%TO.C,D18*%
X135785714Y-46982380D02*
X135785714Y-45982380D01*
X136023809Y-45982380D01*
X136166666Y-46030000D01*
X136261904Y-46125238D01*
X136309523Y-46220476D01*
X136357142Y-46410952D01*
X136357142Y-46553809D01*
X136309523Y-46744285D01*
X136261904Y-46839523D01*
X136166666Y-46934761D01*
X136023809Y-46982380D01*
X135785714Y-46982380D01*
X137309523Y-46982380D02*
X136738095Y-46982380D01*
X137023809Y-46982380D02*
X137023809Y-45982380D01*
X136928571Y-46125238D01*
X136833333Y-46220476D01*
X136738095Y-46268095D01*
X137880952Y-46410952D02*
X137785714Y-46363333D01*
X137738095Y-46315714D01*
X137690476Y-46220476D01*
X137690476Y-46172857D01*
X137738095Y-46077619D01*
X137785714Y-46030000D01*
X137880952Y-45982380D01*
X138071428Y-45982380D01*
X138166666Y-46030000D01*
X138214285Y-46077619D01*
X138261904Y-46172857D01*
X138261904Y-46220476D01*
X138214285Y-46315714D01*
X138166666Y-46363333D01*
X138071428Y-46410952D01*
X137880952Y-46410952D01*
X137785714Y-46458571D01*
X137738095Y-46506190D01*
X137690476Y-46601428D01*
X137690476Y-46791904D01*
X137738095Y-46887142D01*
X137785714Y-46934761D01*
X137880952Y-46982380D01*
X138071428Y-46982380D01*
X138166666Y-46934761D01*
X138214285Y-46887142D01*
X138261904Y-46791904D01*
X138261904Y-46601428D01*
X138214285Y-46506190D01*
X138166666Y-46458571D01*
X138071428Y-46410952D01*
X131658095Y-47352380D02*
X131658095Y-46352380D01*
X132229523Y-47352380D02*
X131800952Y-46780952D01*
X132229523Y-46352380D02*
X131658095Y-46923809D01*
%TO.C,SW13*%
X118190476Y-12404761D02*
X118333333Y-12452380D01*
X118571428Y-12452380D01*
X118666666Y-12404761D01*
X118714285Y-12357142D01*
X118761904Y-12261904D01*
X118761904Y-12166666D01*
X118714285Y-12071428D01*
X118666666Y-12023809D01*
X118571428Y-11976190D01*
X118380952Y-11928571D01*
X118285714Y-11880952D01*
X118238095Y-11833333D01*
X118190476Y-11738095D01*
X118190476Y-11642857D01*
X118238095Y-11547619D01*
X118285714Y-11500000D01*
X118380952Y-11452380D01*
X118619047Y-11452380D01*
X118761904Y-11500000D01*
X119095238Y-11452380D02*
X119333333Y-12452380D01*
X119523809Y-11738095D01*
X119714285Y-12452380D01*
X119952380Y-11452380D01*
X120857142Y-12452380D02*
X120285714Y-12452380D01*
X120571428Y-12452380D02*
X120571428Y-11452380D01*
X120476190Y-11595238D01*
X120380952Y-11690476D01*
X120285714Y-11738095D01*
X121190476Y-11452380D02*
X121809523Y-11452380D01*
X121476190Y-11833333D01*
X121619047Y-11833333D01*
X121714285Y-11880952D01*
X121761904Y-11928571D01*
X121809523Y-12023809D01*
X121809523Y-12261904D01*
X121761904Y-12357142D01*
X121714285Y-12404761D01*
X121619047Y-12452380D01*
X121333333Y-12452380D01*
X121238095Y-12404761D01*
X121190476Y-12357142D01*
%TO.C,D7*%
X76261904Y-166982380D02*
X76261904Y-165982380D01*
X76500000Y-165982380D01*
X76642857Y-166030000D01*
X76738095Y-166125238D01*
X76785714Y-166220476D01*
X76833333Y-166410952D01*
X76833333Y-166553809D01*
X76785714Y-166744285D01*
X76738095Y-166839523D01*
X76642857Y-166934761D01*
X76500000Y-166982380D01*
X76261904Y-166982380D01*
X77166666Y-165982380D02*
X77833333Y-165982380D01*
X77404761Y-166982380D01*
X71658095Y-167352380D02*
X71658095Y-166352380D01*
X72229523Y-167352380D02*
X71800952Y-166780952D01*
X72229523Y-166352380D02*
X71658095Y-166923809D01*
%TO.C,SW17*%
X138190476Y-12404761D02*
X138333333Y-12452380D01*
X138571428Y-12452380D01*
X138666666Y-12404761D01*
X138714285Y-12357142D01*
X138761904Y-12261904D01*
X138761904Y-12166666D01*
X138714285Y-12071428D01*
X138666666Y-12023809D01*
X138571428Y-11976190D01*
X138380952Y-11928571D01*
X138285714Y-11880952D01*
X138238095Y-11833333D01*
X138190476Y-11738095D01*
X138190476Y-11642857D01*
X138238095Y-11547619D01*
X138285714Y-11500000D01*
X138380952Y-11452380D01*
X138619047Y-11452380D01*
X138761904Y-11500000D01*
X139095238Y-11452380D02*
X139333333Y-12452380D01*
X139523809Y-11738095D01*
X139714285Y-12452380D01*
X139952380Y-11452380D01*
X140857142Y-12452380D02*
X140285714Y-12452380D01*
X140571428Y-12452380D02*
X140571428Y-11452380D01*
X140476190Y-11595238D01*
X140380952Y-11690476D01*
X140285714Y-11738095D01*
X141190476Y-11452380D02*
X141857142Y-11452380D01*
X141428571Y-12452380D01*
%TO.C,D2*%
X56261904Y-46982380D02*
X56261904Y-45982380D01*
X56500000Y-45982380D01*
X56642857Y-46030000D01*
X56738095Y-46125238D01*
X56785714Y-46220476D01*
X56833333Y-46410952D01*
X56833333Y-46553809D01*
X56785714Y-46744285D01*
X56738095Y-46839523D01*
X56642857Y-46934761D01*
X56500000Y-46982380D01*
X56261904Y-46982380D01*
X57214285Y-46077619D02*
X57261904Y-46030000D01*
X57357142Y-45982380D01*
X57595238Y-45982380D01*
X57690476Y-46030000D01*
X57738095Y-46077619D01*
X57785714Y-46172857D01*
X57785714Y-46268095D01*
X57738095Y-46410952D01*
X57166666Y-46982380D01*
X57785714Y-46982380D01*
X51658095Y-47352380D02*
X51658095Y-46352380D01*
X52229523Y-47352380D02*
X51800952Y-46780952D01*
X52229523Y-46352380D02*
X51658095Y-46923809D01*
%TO.C,D9*%
X96261904Y-26982380D02*
X96261904Y-25982380D01*
X96500000Y-25982380D01*
X96642857Y-26030000D01*
X96738095Y-26125238D01*
X96785714Y-26220476D01*
X96833333Y-26410952D01*
X96833333Y-26553809D01*
X96785714Y-26744285D01*
X96738095Y-26839523D01*
X96642857Y-26934761D01*
X96500000Y-26982380D01*
X96261904Y-26982380D01*
X97309523Y-26982380D02*
X97500000Y-26982380D01*
X97595238Y-26934761D01*
X97642857Y-26887142D01*
X97738095Y-26744285D01*
X97785714Y-26553809D01*
X97785714Y-26172857D01*
X97738095Y-26077619D01*
X97690476Y-26030000D01*
X97595238Y-25982380D01*
X97404761Y-25982380D01*
X97309523Y-26030000D01*
X97261904Y-26077619D01*
X97214285Y-26172857D01*
X97214285Y-26410952D01*
X97261904Y-26506190D01*
X97309523Y-26553809D01*
X97404761Y-26601428D01*
X97595238Y-26601428D01*
X97690476Y-26553809D01*
X97738095Y-26506190D01*
X97785714Y-26410952D01*
X91658095Y-27352380D02*
X91658095Y-26352380D01*
X92229523Y-27352380D02*
X91800952Y-26780952D01*
X92229523Y-26352380D02*
X91658095Y-26923809D01*
%TO.C,SW19*%
X138190476Y-152404761D02*
X138333333Y-152452380D01*
X138571428Y-152452380D01*
X138666666Y-152404761D01*
X138714285Y-152357142D01*
X138761904Y-152261904D01*
X138761904Y-152166666D01*
X138714285Y-152071428D01*
X138666666Y-152023809D01*
X138571428Y-151976190D01*
X138380952Y-151928571D01*
X138285714Y-151880952D01*
X138238095Y-151833333D01*
X138190476Y-151738095D01*
X138190476Y-151642857D01*
X138238095Y-151547619D01*
X138285714Y-151500000D01*
X138380952Y-151452380D01*
X138619047Y-151452380D01*
X138761904Y-151500000D01*
X139095238Y-151452380D02*
X139333333Y-152452380D01*
X139523809Y-151738095D01*
X139714285Y-152452380D01*
X139952380Y-151452380D01*
X140857142Y-152452380D02*
X140285714Y-152452380D01*
X140571428Y-152452380D02*
X140571428Y-151452380D01*
X140476190Y-151595238D01*
X140380952Y-151690476D01*
X140285714Y-151738095D01*
X141333333Y-152452380D02*
X141523809Y-152452380D01*
X141619047Y-152404761D01*
X141666666Y-152357142D01*
X141761904Y-152214285D01*
X141809523Y-152023809D01*
X141809523Y-151642857D01*
X141761904Y-151547619D01*
X141714285Y-151500000D01*
X141619047Y-151452380D01*
X141428571Y-151452380D01*
X141333333Y-151500000D01*
X141285714Y-151547619D01*
X141238095Y-151642857D01*
X141238095Y-151880952D01*
X141285714Y-151976190D01*
X141333333Y-152023809D01*
X141428571Y-152071428D01*
X141619047Y-152071428D01*
X141714285Y-152023809D01*
X141761904Y-151976190D01*
X141809523Y-151880952D01*
%TO.C,D6*%
X76341904Y-46982380D02*
X76341904Y-45982380D01*
X76580000Y-45982380D01*
X76722857Y-46030000D01*
X76818095Y-46125238D01*
X76865714Y-46220476D01*
X76913333Y-46410952D01*
X76913333Y-46553809D01*
X76865714Y-46744285D01*
X76818095Y-46839523D01*
X76722857Y-46934761D01*
X76580000Y-46982380D01*
X76341904Y-46982380D01*
X77770476Y-45982380D02*
X77580000Y-45982380D01*
X77484761Y-46030000D01*
X77437142Y-46077619D01*
X77341904Y-46220476D01*
X77294285Y-46410952D01*
X77294285Y-46791904D01*
X77341904Y-46887142D01*
X77389523Y-46934761D01*
X77484761Y-46982380D01*
X77675238Y-46982380D01*
X77770476Y-46934761D01*
X77818095Y-46887142D01*
X77865714Y-46791904D01*
X77865714Y-46553809D01*
X77818095Y-46458571D01*
X77770476Y-46410952D01*
X77675238Y-46363333D01*
X77484761Y-46363333D01*
X77389523Y-46410952D01*
X77341904Y-46458571D01*
X77294285Y-46553809D01*
X71738095Y-47352380D02*
X71738095Y-46352380D01*
X72309523Y-47352380D02*
X71880952Y-46780952D01*
X72309523Y-46352380D02*
X71738095Y-46923809D01*
%TO.C,D15*%
X115785714Y-166982380D02*
X115785714Y-165982380D01*
X116023809Y-165982380D01*
X116166666Y-166030000D01*
X116261904Y-166125238D01*
X116309523Y-166220476D01*
X116357142Y-166410952D01*
X116357142Y-166553809D01*
X116309523Y-166744285D01*
X116261904Y-166839523D01*
X116166666Y-166934761D01*
X116023809Y-166982380D01*
X115785714Y-166982380D01*
X117309523Y-166982380D02*
X116738095Y-166982380D01*
X117023809Y-166982380D02*
X117023809Y-165982380D01*
X116928571Y-166125238D01*
X116833333Y-166220476D01*
X116738095Y-166268095D01*
X118214285Y-165982380D02*
X117738095Y-165982380D01*
X117690476Y-166458571D01*
X117738095Y-166410952D01*
X117833333Y-166363333D01*
X118071428Y-166363333D01*
X118166666Y-166410952D01*
X118214285Y-166458571D01*
X118261904Y-166553809D01*
X118261904Y-166791904D01*
X118214285Y-166887142D01*
X118166666Y-166934761D01*
X118071428Y-166982380D01*
X117833333Y-166982380D01*
X117738095Y-166934761D01*
X117690476Y-166887142D01*
X111658095Y-167352380D02*
X111658095Y-166352380D01*
X112229523Y-167352380D02*
X111800952Y-166780952D01*
X112229523Y-166352380D02*
X111658095Y-166923809D01*
%TO.C,D16*%
X115785714Y-177982380D02*
X115785714Y-176982380D01*
X116023809Y-176982380D01*
X116166666Y-177030000D01*
X116261904Y-177125238D01*
X116309523Y-177220476D01*
X116357142Y-177410952D01*
X116357142Y-177553809D01*
X116309523Y-177744285D01*
X116261904Y-177839523D01*
X116166666Y-177934761D01*
X116023809Y-177982380D01*
X115785714Y-177982380D01*
X117309523Y-177982380D02*
X116738095Y-177982380D01*
X117023809Y-177982380D02*
X117023809Y-176982380D01*
X116928571Y-177125238D01*
X116833333Y-177220476D01*
X116738095Y-177268095D01*
X118166666Y-176982380D02*
X117976190Y-176982380D01*
X117880952Y-177030000D01*
X117833333Y-177077619D01*
X117738095Y-177220476D01*
X117690476Y-177410952D01*
X117690476Y-177791904D01*
X117738095Y-177887142D01*
X117785714Y-177934761D01*
X117880952Y-177982380D01*
X118071428Y-177982380D01*
X118166666Y-177934761D01*
X118214285Y-177887142D01*
X118261904Y-177791904D01*
X118261904Y-177553809D01*
X118214285Y-177458571D01*
X118166666Y-177410952D01*
X118071428Y-177363333D01*
X117880952Y-177363333D01*
X117785714Y-177410952D01*
X117738095Y-177458571D01*
X117690476Y-177553809D01*
X111658095Y-178352380D02*
X111658095Y-177352380D01*
X112229523Y-178352380D02*
X111800952Y-177780952D01*
X112229523Y-177352380D02*
X111658095Y-177923809D01*
%TO.C,SW3*%
X58666666Y-152404761D02*
X58809523Y-152452380D01*
X59047619Y-152452380D01*
X59142857Y-152404761D01*
X59190476Y-152357142D01*
X59238095Y-152261904D01*
X59238095Y-152166666D01*
X59190476Y-152071428D01*
X59142857Y-152023809D01*
X59047619Y-151976190D01*
X58857142Y-151928571D01*
X58761904Y-151880952D01*
X58714285Y-151833333D01*
X58666666Y-151738095D01*
X58666666Y-151642857D01*
X58714285Y-151547619D01*
X58761904Y-151500000D01*
X58857142Y-151452380D01*
X59095238Y-151452380D01*
X59238095Y-151500000D01*
X59571428Y-151452380D02*
X59809523Y-152452380D01*
X60000000Y-151738095D01*
X60190476Y-152452380D01*
X60428571Y-151452380D01*
X60714285Y-151452380D02*
X61333333Y-151452380D01*
X61000000Y-151833333D01*
X61142857Y-151833333D01*
X61238095Y-151880952D01*
X61285714Y-151928571D01*
X61333333Y-152023809D01*
X61333333Y-152261904D01*
X61285714Y-152357142D01*
X61238095Y-152404761D01*
X61142857Y-152452380D01*
X60857142Y-152452380D01*
X60761904Y-152404761D01*
X60714285Y-152357142D01*
%TO.C,SW15*%
X118190476Y-152404761D02*
X118333333Y-152452380D01*
X118571428Y-152452380D01*
X118666666Y-152404761D01*
X118714285Y-152357142D01*
X118761904Y-152261904D01*
X118761904Y-152166666D01*
X118714285Y-152071428D01*
X118666666Y-152023809D01*
X118571428Y-151976190D01*
X118380952Y-151928571D01*
X118285714Y-151880952D01*
X118238095Y-151833333D01*
X118190476Y-151738095D01*
X118190476Y-151642857D01*
X118238095Y-151547619D01*
X118285714Y-151500000D01*
X118380952Y-151452380D01*
X118619047Y-151452380D01*
X118761904Y-151500000D01*
X119095238Y-151452380D02*
X119333333Y-152452380D01*
X119523809Y-151738095D01*
X119714285Y-152452380D01*
X119952380Y-151452380D01*
X120857142Y-152452380D02*
X120285714Y-152452380D01*
X120571428Y-152452380D02*
X120571428Y-151452380D01*
X120476190Y-151595238D01*
X120380952Y-151690476D01*
X120285714Y-151738095D01*
X121761904Y-151452380D02*
X121285714Y-151452380D01*
X121238095Y-151928571D01*
X121285714Y-151880952D01*
X121380952Y-151833333D01*
X121619047Y-151833333D01*
X121714285Y-151880952D01*
X121761904Y-151928571D01*
X121809523Y-152023809D01*
X121809523Y-152261904D01*
X121761904Y-152357142D01*
X121714285Y-152404761D01*
X121619047Y-152452380D01*
X121380952Y-152452380D01*
X121285714Y-152404761D01*
X121238095Y-152357142D01*
%TO.C,D5*%
X76261904Y-26982380D02*
X76261904Y-25982380D01*
X76500000Y-25982380D01*
X76642857Y-26030000D01*
X76738095Y-26125238D01*
X76785714Y-26220476D01*
X76833333Y-26410952D01*
X76833333Y-26553809D01*
X76785714Y-26744285D01*
X76738095Y-26839523D01*
X76642857Y-26934761D01*
X76500000Y-26982380D01*
X76261904Y-26982380D01*
X77738095Y-25982380D02*
X77261904Y-25982380D01*
X77214285Y-26458571D01*
X77261904Y-26410952D01*
X77357142Y-26363333D01*
X77595238Y-26363333D01*
X77690476Y-26410952D01*
X77738095Y-26458571D01*
X77785714Y-26553809D01*
X77785714Y-26791904D01*
X77738095Y-26887142D01*
X77690476Y-26934761D01*
X77595238Y-26982380D01*
X77357142Y-26982380D01*
X77261904Y-26934761D01*
X77214285Y-26887142D01*
X71658095Y-27352380D02*
X71658095Y-26352380D01*
X72229523Y-27352380D02*
X71800952Y-26780952D01*
X72229523Y-26352380D02*
X71658095Y-26923809D01*
%TO.C,SW12*%
X98190476Y-182404761D02*
X98333333Y-182452380D01*
X98571428Y-182452380D01*
X98666666Y-182404761D01*
X98714285Y-182357142D01*
X98761904Y-182261904D01*
X98761904Y-182166666D01*
X98714285Y-182071428D01*
X98666666Y-182023809D01*
X98571428Y-181976190D01*
X98380952Y-181928571D01*
X98285714Y-181880952D01*
X98238095Y-181833333D01*
X98190476Y-181738095D01*
X98190476Y-181642857D01*
X98238095Y-181547619D01*
X98285714Y-181500000D01*
X98380952Y-181452380D01*
X98619047Y-181452380D01*
X98761904Y-181500000D01*
X99095238Y-181452380D02*
X99333333Y-182452380D01*
X99523809Y-181738095D01*
X99714285Y-182452380D01*
X99952380Y-181452380D01*
X100857142Y-182452380D02*
X100285714Y-182452380D01*
X100571428Y-182452380D02*
X100571428Y-181452380D01*
X100476190Y-181595238D01*
X100380952Y-181690476D01*
X100285714Y-181738095D01*
X101238095Y-181547619D02*
X101285714Y-181500000D01*
X101380952Y-181452380D01*
X101619047Y-181452380D01*
X101714285Y-181500000D01*
X101761904Y-181547619D01*
X101809523Y-181642857D01*
X101809523Y-181738095D01*
X101761904Y-181880952D01*
X101190476Y-182452380D01*
X101809523Y-182452380D01*
%TO.C,D11*%
X95785714Y-166982380D02*
X95785714Y-165982380D01*
X96023809Y-165982380D01*
X96166666Y-166030000D01*
X96261904Y-166125238D01*
X96309523Y-166220476D01*
X96357142Y-166410952D01*
X96357142Y-166553809D01*
X96309523Y-166744285D01*
X96261904Y-166839523D01*
X96166666Y-166934761D01*
X96023809Y-166982380D01*
X95785714Y-166982380D01*
X97309523Y-166982380D02*
X96738095Y-166982380D01*
X97023809Y-166982380D02*
X97023809Y-165982380D01*
X96928571Y-166125238D01*
X96833333Y-166220476D01*
X96738095Y-166268095D01*
X98261904Y-166982380D02*
X97690476Y-166982380D01*
X97976190Y-166982380D02*
X97976190Y-165982380D01*
X97880952Y-166125238D01*
X97785714Y-166220476D01*
X97690476Y-166268095D01*
X91658095Y-167352380D02*
X91658095Y-166352380D01*
X92229523Y-167352380D02*
X91800952Y-166780952D01*
X92229523Y-166352380D02*
X91658095Y-166923809D01*
%TO.C,SW4*%
X58666666Y-182404761D02*
X58809523Y-182452380D01*
X59047619Y-182452380D01*
X59142857Y-182404761D01*
X59190476Y-182357142D01*
X59238095Y-182261904D01*
X59238095Y-182166666D01*
X59190476Y-182071428D01*
X59142857Y-182023809D01*
X59047619Y-181976190D01*
X58857142Y-181928571D01*
X58761904Y-181880952D01*
X58714285Y-181833333D01*
X58666666Y-181738095D01*
X58666666Y-181642857D01*
X58714285Y-181547619D01*
X58761904Y-181500000D01*
X58857142Y-181452380D01*
X59095238Y-181452380D01*
X59238095Y-181500000D01*
X59571428Y-181452380D02*
X59809523Y-182452380D01*
X60000000Y-181738095D01*
X60190476Y-182452380D01*
X60428571Y-181452380D01*
X61238095Y-181785714D02*
X61238095Y-182452380D01*
X61000000Y-181404761D02*
X60761904Y-182119047D01*
X61380952Y-182119047D01*
D12*
%TO.C,RV5*%
X132000000Y-56000000D02*
X148000000Y-56000000D01*
X139000000Y-139250000D02*
X141000000Y-139250000D01*
X139000000Y-60750000D02*
X139000000Y-139250000D01*
X139000000Y-60750000D02*
X141000000Y-60750000D01*
X132000000Y-144000000D02*
X132000000Y-56000000D01*
X141000000Y-60750000D02*
X141000000Y-139250000D01*
X148000000Y-56000000D02*
X148000000Y-144000000D01*
X132000000Y-144000000D02*
X148000000Y-144000000D01*
%TO.C,RV4*%
X112000000Y-56000000D02*
X128000000Y-56000000D01*
X119000000Y-139250000D02*
X121000000Y-139250000D01*
X119000000Y-60750000D02*
X119000000Y-139250000D01*
X119000000Y-60750000D02*
X121000000Y-60750000D01*
X112000000Y-144000000D02*
X112000000Y-56000000D01*
X121000000Y-60750000D02*
X121000000Y-139250000D01*
X128000000Y-56000000D02*
X128000000Y-144000000D01*
X112000000Y-144000000D02*
X128000000Y-144000000D01*
%TO.C,RV3*%
X92000000Y-56000000D02*
X108000000Y-56000000D01*
X99000000Y-139250000D02*
X101000000Y-139250000D01*
X99000000Y-60750000D02*
X99000000Y-139250000D01*
X99000000Y-60750000D02*
X101000000Y-60750000D01*
X92000000Y-144000000D02*
X92000000Y-56000000D01*
X101000000Y-60750000D02*
X101000000Y-139250000D01*
X108000000Y-56000000D02*
X108000000Y-144000000D01*
X92000000Y-144000000D02*
X108000000Y-144000000D01*
%TO.C,RV2*%
X72000000Y-56000000D02*
X88000000Y-56000000D01*
X79000000Y-139250000D02*
X81000000Y-139250000D01*
X79000000Y-60750000D02*
X79000000Y-139250000D01*
X79000000Y-60750000D02*
X81000000Y-60750000D01*
X72000000Y-144000000D02*
X72000000Y-56000000D01*
X81000000Y-60750000D02*
X81000000Y-139250000D01*
X88000000Y-56000000D02*
X88000000Y-144000000D01*
X72000000Y-144000000D02*
X88000000Y-144000000D01*
%TO.C,RV1*%
X52000000Y-144000000D02*
X68000000Y-144000000D01*
X68000000Y-56000000D02*
X68000000Y-144000000D01*
X61000000Y-60750000D02*
X61000000Y-139250000D01*
X52000000Y-144000000D02*
X52000000Y-56000000D01*
X59000000Y-60750000D02*
X61000000Y-60750000D01*
X59000000Y-60750000D02*
X59000000Y-139250000D01*
X59000000Y-139250000D02*
X61000000Y-139250000D01*
X52000000Y-56000000D02*
X68000000Y-56000000D01*
%TO.C,D14*%
X115060000Y-47530000D02*
X115060000Y-50470000D01*
X113260000Y-49000000D02*
X114280000Y-49000000D01*
X115180000Y-47530000D02*
X115180000Y-50470000D01*
X114280000Y-47530000D02*
X114280000Y-50470000D01*
X119720000Y-50470000D02*
X119720000Y-47530000D01*
X115300000Y-47530000D02*
X115300000Y-50470000D01*
X114280000Y-50470000D02*
X119720000Y-50470000D01*
X119720000Y-47530000D02*
X114280000Y-47530000D01*
X120740000Y-49000000D02*
X119720000Y-49000000D01*
%TO.C,SW2*%
X52900000Y-47100000D02*
X67100000Y-47100000D01*
X67100000Y-32900000D02*
X52900000Y-32900000D01*
X52900000Y-32900000D02*
X52900000Y-47100000D01*
X67100000Y-47100000D02*
X67100000Y-32900000D01*
%TO.C,D20*%
X135300000Y-178530000D02*
X135300000Y-181470000D01*
X139720000Y-178530000D02*
X134280000Y-178530000D01*
X135060000Y-178530000D02*
X135060000Y-181470000D01*
X135180000Y-178530000D02*
X135180000Y-181470000D01*
X133260000Y-180000000D02*
X134280000Y-180000000D01*
X134280000Y-181470000D02*
X139720000Y-181470000D01*
X140740000Y-180000000D02*
X139720000Y-180000000D01*
X134280000Y-178530000D02*
X134280000Y-181470000D01*
X139720000Y-181470000D02*
X139720000Y-178530000D01*
%TO.C,D19*%
X133260000Y-169000000D02*
X134280000Y-169000000D01*
X139720000Y-167530000D02*
X134280000Y-167530000D01*
X135060000Y-167530000D02*
X135060000Y-170470000D01*
X134280000Y-170470000D02*
X139720000Y-170470000D01*
X140740000Y-169000000D02*
X139720000Y-169000000D01*
X135300000Y-167530000D02*
X135300000Y-170470000D01*
X139720000Y-170470000D02*
X139720000Y-167530000D01*
X134280000Y-167530000D02*
X134280000Y-170470000D01*
X135180000Y-167530000D02*
X135180000Y-170470000D01*
%TO.C,SW7*%
X72900000Y-152900000D02*
X72900000Y-167100000D01*
X87100000Y-152900000D02*
X72900000Y-152900000D01*
X72900000Y-167100000D02*
X87100000Y-167100000D01*
X87100000Y-167100000D02*
X87100000Y-152900000D01*
%TO.C,SW16*%
X127100000Y-197100000D02*
X127100000Y-182900000D01*
X127100000Y-182900000D02*
X112900000Y-182900000D01*
X112900000Y-197100000D02*
X127100000Y-197100000D01*
X112900000Y-182900000D02*
X112900000Y-197100000D01*
%TO.C,SW5*%
X87100000Y-27100000D02*
X87100000Y-12900000D01*
X72900000Y-27100000D02*
X87100000Y-27100000D01*
X72900000Y-12900000D02*
X72900000Y-27100000D01*
X87100000Y-12900000D02*
X72900000Y-12900000D01*
%TO.C,D17*%
X139800000Y-27530000D02*
X134360000Y-27530000D01*
X135140000Y-27530000D02*
X135140000Y-30470000D01*
X135380000Y-27530000D02*
X135380000Y-30470000D01*
X139800000Y-30470000D02*
X139800000Y-27530000D01*
X134360000Y-30470000D02*
X139800000Y-30470000D01*
X140820000Y-29000000D02*
X139800000Y-29000000D01*
X133340000Y-29000000D02*
X134360000Y-29000000D01*
X134360000Y-27530000D02*
X134360000Y-30470000D01*
X135260000Y-27530000D02*
X135260000Y-30470000D01*
%TO.C,D10*%
X93260000Y-49000000D02*
X94280000Y-49000000D01*
X94280000Y-50470000D02*
X99720000Y-50470000D01*
X95180000Y-47530000D02*
X95180000Y-50470000D01*
X95300000Y-47530000D02*
X95300000Y-50470000D01*
X95060000Y-47530000D02*
X95060000Y-50470000D01*
X94280000Y-47530000D02*
X94280000Y-50470000D01*
X99720000Y-47530000D02*
X94280000Y-47530000D01*
X99720000Y-50470000D02*
X99720000Y-47530000D01*
X100740000Y-49000000D02*
X99720000Y-49000000D01*
%TO.C,D12*%
X95300000Y-178530000D02*
X95300000Y-181470000D01*
X94280000Y-178530000D02*
X94280000Y-181470000D01*
X99720000Y-181470000D02*
X99720000Y-178530000D01*
X94280000Y-181470000D02*
X99720000Y-181470000D01*
X99720000Y-178530000D02*
X94280000Y-178530000D01*
X100740000Y-180000000D02*
X99720000Y-180000000D01*
X93260000Y-180000000D02*
X94280000Y-180000000D01*
X95180000Y-178530000D02*
X95180000Y-181470000D01*
X95060000Y-178530000D02*
X95060000Y-181470000D01*
%TO.C,SW11*%
X107100000Y-167100000D02*
X107100000Y-152900000D01*
X92900000Y-152900000D02*
X92900000Y-167100000D01*
X92900000Y-167100000D02*
X107100000Y-167100000D01*
X107100000Y-152900000D02*
X92900000Y-152900000D01*
%TO.C,D4*%
X59720000Y-178530000D02*
X54280000Y-178530000D01*
X60740000Y-180000000D02*
X59720000Y-180000000D01*
X53260000Y-180000000D02*
X54280000Y-180000000D01*
X54280000Y-181470000D02*
X59720000Y-181470000D01*
X55300000Y-178530000D02*
X55300000Y-181470000D01*
X54280000Y-178530000D02*
X54280000Y-181470000D01*
X55180000Y-178530000D02*
X55180000Y-181470000D01*
X55060000Y-178530000D02*
X55060000Y-181470000D01*
X59720000Y-181470000D02*
X59720000Y-178530000D01*
%TO.C,SW8*%
X72900000Y-197100000D02*
X87100000Y-197100000D01*
X72900000Y-182900000D02*
X72900000Y-197100000D01*
X87100000Y-197100000D02*
X87100000Y-182900000D01*
X87100000Y-182900000D02*
X72900000Y-182900000D01*
%TO.C,SW14*%
X112900000Y-47100000D02*
X127100000Y-47100000D01*
X112900000Y-32900000D02*
X112900000Y-47100000D01*
X127100000Y-47100000D02*
X127100000Y-32900000D01*
X127100000Y-32900000D02*
X112900000Y-32900000D01*
%TO.C,D3*%
X56280000Y-170470000D02*
X61720000Y-170470000D01*
X56280000Y-167530000D02*
X56280000Y-170470000D01*
X61720000Y-167530000D02*
X56280000Y-167530000D01*
X57060000Y-167530000D02*
X57060000Y-170470000D01*
X62740000Y-169000000D02*
X61720000Y-169000000D01*
X55260000Y-169000000D02*
X56280000Y-169000000D01*
X61720000Y-170470000D02*
X61720000Y-167530000D01*
X57180000Y-167530000D02*
X57180000Y-170470000D01*
X57300000Y-167530000D02*
X57300000Y-170470000D01*
%TO.C,D13*%
X115060000Y-27530000D02*
X115060000Y-30470000D01*
X119720000Y-30470000D02*
X119720000Y-27530000D01*
X119720000Y-27530000D02*
X114280000Y-27530000D01*
X115300000Y-27530000D02*
X115300000Y-30470000D01*
X114280000Y-30470000D02*
X119720000Y-30470000D01*
X115180000Y-27530000D02*
X115180000Y-30470000D01*
X120740000Y-29000000D02*
X119720000Y-29000000D01*
X113260000Y-29000000D02*
X114280000Y-29000000D01*
X114280000Y-27530000D02*
X114280000Y-30470000D01*
%TO.C,SW10*%
X92900000Y-32900000D02*
X92900000Y-47100000D01*
X92900000Y-47100000D02*
X107100000Y-47100000D01*
X107100000Y-47100000D02*
X107100000Y-32900000D01*
X107100000Y-32900000D02*
X92900000Y-32900000D01*
%TO.C,D8*%
X79720000Y-181470000D02*
X79720000Y-178530000D01*
X80740000Y-180000000D02*
X79720000Y-180000000D01*
X73260000Y-180000000D02*
X74280000Y-180000000D01*
X74280000Y-178530000D02*
X74280000Y-181470000D01*
X79720000Y-178530000D02*
X74280000Y-178530000D01*
X74280000Y-181470000D02*
X79720000Y-181470000D01*
X75060000Y-178530000D02*
X75060000Y-181470000D01*
X75300000Y-178530000D02*
X75300000Y-181470000D01*
X75180000Y-178530000D02*
X75180000Y-181470000D01*
%TO.C,SW6*%
X72900000Y-47100000D02*
X87100000Y-47100000D01*
X87100000Y-32900000D02*
X72900000Y-32900000D01*
X87100000Y-47100000D02*
X87100000Y-32900000D01*
X72900000Y-32900000D02*
X72900000Y-47100000D01*
%TO.C,SW1*%
X52900000Y-27100000D02*
X67100000Y-27100000D01*
X52900000Y-12900000D02*
X52900000Y-27100000D01*
X67100000Y-12900000D02*
X52900000Y-12900000D01*
X67100000Y-27100000D02*
X67100000Y-12900000D01*
%TO.C,D1*%
X55180000Y-27530000D02*
X55180000Y-30470000D01*
X60740000Y-29000000D02*
X59720000Y-29000000D01*
X55060000Y-27530000D02*
X55060000Y-30470000D01*
X53260000Y-29000000D02*
X54280000Y-29000000D01*
X55300000Y-27530000D02*
X55300000Y-30470000D01*
X59720000Y-27530000D02*
X54280000Y-27530000D01*
X59720000Y-30470000D02*
X59720000Y-27530000D01*
X54280000Y-27530000D02*
X54280000Y-30470000D01*
X54280000Y-30470000D02*
X59720000Y-30470000D01*
%TO.C,SW20*%
X132900000Y-182900000D02*
X132900000Y-197100000D01*
X132900000Y-197100000D02*
X147100000Y-197100000D01*
X147100000Y-182900000D02*
X132900000Y-182900000D01*
X147100000Y-197100000D02*
X147100000Y-182900000D01*
%TO.C,SW18*%
X132900000Y-47100000D02*
X147100000Y-47100000D01*
X147100000Y-32900000D02*
X132900000Y-32900000D01*
X132900000Y-32900000D02*
X132900000Y-47100000D01*
X147100000Y-47100000D02*
X147100000Y-32900000D01*
%TO.C,SW9*%
X92900000Y-12900000D02*
X92900000Y-27100000D01*
X92900000Y-27100000D02*
X107100000Y-27100000D01*
X107100000Y-12900000D02*
X92900000Y-12900000D01*
X107100000Y-27100000D02*
X107100000Y-12900000D01*
%TO.C,D18*%
X140740000Y-49000000D02*
X139720000Y-49000000D01*
X134280000Y-50470000D02*
X139720000Y-50470000D01*
X134280000Y-47530000D02*
X134280000Y-50470000D01*
X133260000Y-49000000D02*
X134280000Y-49000000D01*
X135060000Y-47530000D02*
X135060000Y-50470000D01*
X139720000Y-50470000D02*
X139720000Y-47530000D01*
X135300000Y-47530000D02*
X135300000Y-50470000D01*
X135180000Y-47530000D02*
X135180000Y-50470000D01*
X139720000Y-47530000D02*
X134280000Y-47530000D01*
%TO.C,SW13*%
X112900000Y-12900000D02*
X112900000Y-27100000D01*
X127100000Y-12900000D02*
X112900000Y-12900000D01*
X112900000Y-27100000D02*
X127100000Y-27100000D01*
X127100000Y-27100000D02*
X127100000Y-12900000D01*
%TO.C,D7*%
X80740000Y-169000000D02*
X79720000Y-169000000D01*
X79720000Y-167530000D02*
X74280000Y-167530000D01*
X75060000Y-167530000D02*
X75060000Y-170470000D01*
X75180000Y-167530000D02*
X75180000Y-170470000D01*
X74280000Y-167530000D02*
X74280000Y-170470000D01*
X73260000Y-169000000D02*
X74280000Y-169000000D01*
X75300000Y-167530000D02*
X75300000Y-170470000D01*
X79720000Y-170470000D02*
X79720000Y-167530000D01*
X74280000Y-170470000D02*
X79720000Y-170470000D01*
%TO.C,SW17*%
X147100000Y-27100000D02*
X147100000Y-12900000D01*
X132900000Y-12900000D02*
X132900000Y-27100000D01*
X147100000Y-12900000D02*
X132900000Y-12900000D01*
X132900000Y-27100000D02*
X147100000Y-27100000D01*
%TO.C,D2*%
X60740000Y-49000000D02*
X59720000Y-49000000D01*
X54280000Y-47530000D02*
X54280000Y-50470000D01*
X59720000Y-50470000D02*
X59720000Y-47530000D01*
X55060000Y-47530000D02*
X55060000Y-50470000D01*
X59720000Y-47530000D02*
X54280000Y-47530000D01*
X55180000Y-47530000D02*
X55180000Y-50470000D01*
X54280000Y-50470000D02*
X59720000Y-50470000D01*
X53260000Y-49000000D02*
X54280000Y-49000000D01*
X55300000Y-47530000D02*
X55300000Y-50470000D01*
%TO.C,D9*%
X99720000Y-27530000D02*
X94280000Y-27530000D01*
X95300000Y-27530000D02*
X95300000Y-30470000D01*
X95180000Y-27530000D02*
X95180000Y-30470000D01*
X94280000Y-30470000D02*
X99720000Y-30470000D01*
X99720000Y-30470000D02*
X99720000Y-27530000D01*
X93260000Y-29000000D02*
X94280000Y-29000000D01*
X100740000Y-29000000D02*
X99720000Y-29000000D01*
X94280000Y-27530000D02*
X94280000Y-30470000D01*
X95060000Y-27530000D02*
X95060000Y-30470000D01*
%TO.C,SW19*%
X147100000Y-152900000D02*
X132900000Y-152900000D01*
X132900000Y-152900000D02*
X132900000Y-167100000D01*
X147100000Y-167100000D02*
X147100000Y-152900000D01*
X132900000Y-167100000D02*
X147100000Y-167100000D01*
%TO.C,D6*%
X80820000Y-49000000D02*
X79800000Y-49000000D01*
X73340000Y-49000000D02*
X74360000Y-49000000D01*
X79800000Y-50470000D02*
X79800000Y-47530000D01*
X75260000Y-47530000D02*
X75260000Y-50470000D01*
X74360000Y-50470000D02*
X79800000Y-50470000D01*
X75380000Y-47530000D02*
X75380000Y-50470000D01*
X74360000Y-47530000D02*
X74360000Y-50470000D01*
X75140000Y-47530000D02*
X75140000Y-50470000D01*
X79800000Y-47530000D02*
X74360000Y-47530000D01*
%TO.C,D15*%
X113260000Y-169000000D02*
X114280000Y-169000000D01*
X119720000Y-170470000D02*
X119720000Y-167530000D01*
X115180000Y-167530000D02*
X115180000Y-170470000D01*
X114280000Y-167530000D02*
X114280000Y-170470000D01*
X115060000Y-167530000D02*
X115060000Y-170470000D01*
X115300000Y-167530000D02*
X115300000Y-170470000D01*
X114280000Y-170470000D02*
X119720000Y-170470000D01*
X120740000Y-169000000D02*
X119720000Y-169000000D01*
X119720000Y-167530000D02*
X114280000Y-167530000D01*
%TO.C,D16*%
X115060000Y-178530000D02*
X115060000Y-181470000D01*
X113260000Y-180000000D02*
X114280000Y-180000000D01*
X119720000Y-178530000D02*
X114280000Y-178530000D01*
X120740000Y-180000000D02*
X119720000Y-180000000D01*
X114280000Y-178530000D02*
X114280000Y-181470000D01*
X115300000Y-178530000D02*
X115300000Y-181470000D01*
X114280000Y-181470000D02*
X119720000Y-181470000D01*
X119720000Y-181470000D02*
X119720000Y-178530000D01*
X115180000Y-178530000D02*
X115180000Y-181470000D01*
%TO.C,SW3*%
X52900000Y-167100000D02*
X67100000Y-167100000D01*
X67100000Y-152900000D02*
X52900000Y-152900000D01*
X52900000Y-152900000D02*
X52900000Y-167100000D01*
X67100000Y-167100000D02*
X67100000Y-152900000D01*
%TO.C,SW15*%
X112900000Y-167100000D02*
X127100000Y-167100000D01*
X127100000Y-152900000D02*
X112900000Y-152900000D01*
X112900000Y-152900000D02*
X112900000Y-167100000D01*
X127100000Y-167100000D02*
X127100000Y-152900000D01*
%TO.C,D5*%
X80740000Y-29000000D02*
X79720000Y-29000000D01*
X75300000Y-27530000D02*
X75300000Y-30470000D01*
X73260000Y-29000000D02*
X74280000Y-29000000D01*
X79720000Y-27530000D02*
X74280000Y-27530000D01*
X79720000Y-30470000D02*
X79720000Y-27530000D01*
X75060000Y-27530000D02*
X75060000Y-30470000D01*
X74280000Y-27530000D02*
X74280000Y-30470000D01*
X74280000Y-30470000D02*
X79720000Y-30470000D01*
X75180000Y-27530000D02*
X75180000Y-30470000D01*
%TO.C,SW12*%
X92900000Y-197100000D02*
X107100000Y-197100000D01*
X107100000Y-182900000D02*
X92900000Y-182900000D01*
X107100000Y-197100000D02*
X107100000Y-182900000D01*
X92900000Y-182900000D02*
X92900000Y-197100000D01*
%TO.C,D11*%
X94280000Y-167530000D02*
X94280000Y-170470000D01*
X100740000Y-169000000D02*
X99720000Y-169000000D01*
X95060000Y-167530000D02*
X95060000Y-170470000D01*
X94280000Y-170470000D02*
X99720000Y-170470000D01*
X95180000Y-167530000D02*
X95180000Y-170470000D01*
X95300000Y-167530000D02*
X95300000Y-170470000D01*
X93260000Y-169000000D02*
X94280000Y-169000000D01*
X99720000Y-170470000D02*
X99720000Y-167530000D01*
X99720000Y-167530000D02*
X94280000Y-167530000D01*
%TO.C,SW4*%
X67100000Y-182900000D02*
X52900000Y-182900000D01*
X67100000Y-197100000D02*
X67100000Y-182900000D01*
X52900000Y-182900000D02*
X52900000Y-197100000D01*
X52900000Y-197100000D02*
X67100000Y-197100000D01*
%TD*%
M02*
